G04*
G04 #@! TF.GenerationSoftware,Altium Limited,Altium Designer,22.6.0 (29)*
G04*
G04 Layer_Color=8421504*
%FSLAX25Y25*%
%MOIN*%
G70*
G04*
G04 #@! TF.SameCoordinates,0ADED8EB-2248-42DB-B9B4-91843697612D*
G04*
G04*
G04 #@! TF.FilePolarity,Positive*
G04*
G01*
G75*
%ADD10C,0.01575*%
%ADD11R,0.07480X0.21654*%
%ADD12C,0.00591*%
%ADD13R,0.04331X0.03937*%
%ADD14R,0.03937X0.04331*%
%ADD15R,0.03150X0.09843*%
%ADD16R,0.07874X0.02756*%
%ADD17R,0.05512X0.06299*%
%ADD18R,0.06299X0.05512*%
%ADD19R,0.09449X0.05512*%
%ADD20R,0.04724X0.05906*%
%ADD21R,0.05118X0.05906*%
G36*
X74803Y742126D02*
X73834D01*
X71932Y742504D01*
X70141Y743246D01*
X68529Y744323D01*
X67158Y745694D01*
X66081Y747306D01*
X65339Y749097D01*
X64961Y750999D01*
Y751968D01*
Y752938D01*
X65339Y754839D01*
X66081Y756631D01*
X67158Y758243D01*
X68529Y759614D01*
X70141Y760691D01*
X71932Y761433D01*
X73834Y761811D01*
X74803D01*
X75773D01*
X77674Y761433D01*
X79465Y760691D01*
X81077Y759614D01*
X82448Y758243D01*
X83526Y756631D01*
X84267Y754839D01*
X84646Y752938D01*
Y751968D01*
Y750999D01*
X84267Y749097D01*
X83526Y747306D01*
X82448Y745694D01*
X81077Y744323D01*
X79465Y743246D01*
X77674Y742504D01*
X75773Y742126D01*
X74803D01*
D01*
D02*
G37*
G36*
X641732D02*
X642702D01*
X644603Y742504D01*
X646394Y743246D01*
X648006Y744323D01*
X649377Y745694D01*
X650455Y747306D01*
X651197Y749097D01*
X651575Y750999D01*
Y751968D01*
Y752938D01*
X651197Y754839D01*
X650455Y756631D01*
X649377Y758243D01*
X648006Y759614D01*
X646394Y760691D01*
X644603Y761433D01*
X642702Y761811D01*
X641732D01*
X640763D01*
X638861Y761433D01*
X637070Y760691D01*
X635458Y759614D01*
X634087Y758243D01*
X633010Y756631D01*
X632268Y754839D01*
X631890Y752938D01*
Y751968D01*
Y750999D01*
X632268Y749097D01*
X633010Y747306D01*
X634087Y745694D01*
X635458Y744323D01*
X637070Y743246D01*
X638861Y742504D01*
X640763Y742126D01*
X641732D01*
D01*
D02*
G37*
D10*
X1042921Y-168552D02*
X1052104D01*
X1047513D01*
Y-182327D01*
X1058992D02*
X1063584D01*
X1065879Y-180031D01*
Y-175439D01*
X1063584Y-173144D01*
X1058992D01*
X1056696Y-175439D01*
Y-180031D01*
X1058992Y-182327D01*
X1070471Y-186919D02*
Y-173144D01*
X1077359D01*
X1079655Y-175439D01*
Y-180031D01*
X1077359Y-182327D01*
X1070471D01*
X1098021D02*
Y-168552D01*
X1104909D01*
X1107205Y-170848D01*
Y-175439D01*
X1104909Y-177735D01*
X1098021D01*
X1114092Y-173144D02*
X1118684D01*
X1120980Y-175439D01*
Y-182327D01*
X1114092D01*
X1111796Y-180031D01*
X1114092Y-177735D01*
X1120980D01*
X1125571Y-182327D02*
X1132459D01*
X1134755Y-180031D01*
X1132459Y-177735D01*
X1127867D01*
X1125571Y-175439D01*
X1127867Y-173144D01*
X1134755D01*
X1141642Y-170848D02*
Y-173144D01*
X1139347D01*
X1143938D01*
X1141642D01*
Y-180031D01*
X1143938Y-182327D01*
X1157713D02*
X1153122D01*
X1150826Y-180031D01*
Y-175439D01*
X1153122Y-173144D01*
X1157713D01*
X1160009Y-175439D01*
Y-177735D01*
X1150826D01*
D11*
X70866Y184488D02*
D03*
X283465D02*
D03*
X433071D02*
D03*
X645669D02*
D03*
X70866Y389213D02*
D03*
X283465D02*
D03*
X433071D02*
D03*
X645669D02*
D03*
X70866Y593937D02*
D03*
X283465D02*
D03*
X433071D02*
D03*
X645669D02*
D03*
D12*
X787402Y-112205D02*
X787402Y826772D01*
X-78740Y-112205D02*
X-78740Y826772D01*
X-78740Y-112205D02*
X787402Y-112205D01*
X-78740Y826772D02*
X787402Y826772D01*
D13*
X161811Y67323D02*
D03*
X155118Y67323D02*
D03*
X141719Y73622D02*
D03*
X148412Y73622D02*
D03*
X141732Y67322D02*
D03*
X148425D02*
D03*
X161811Y79922D02*
D03*
X155118D02*
D03*
Y73622D02*
D03*
X161811D02*
D03*
X148425Y79922D02*
D03*
X141733D02*
D03*
X278150Y101378D02*
D03*
X284843D02*
D03*
X278150Y95473D02*
D03*
X284843D02*
D03*
X278150Y81693D02*
D03*
X284843D02*
D03*
X278150Y75788D02*
D03*
X284843D02*
D03*
X524016Y67323D02*
D03*
X517323Y67323D02*
D03*
X503924Y73622D02*
D03*
X510617Y73622D02*
D03*
X503937Y67322D02*
D03*
X510630D02*
D03*
X524016Y79922D02*
D03*
X517323D02*
D03*
Y73622D02*
D03*
X524016D02*
D03*
X510630Y79922D02*
D03*
X503937D02*
D03*
X640355Y101378D02*
D03*
X647048D02*
D03*
X640355Y95473D02*
D03*
X647048D02*
D03*
X640355Y81693D02*
D03*
X647048D02*
D03*
X640355Y75788D02*
D03*
X647048D02*
D03*
X161811Y272048D02*
D03*
X155118Y272048D02*
D03*
X141719Y278347D02*
D03*
X148412Y278347D02*
D03*
X141732Y272047D02*
D03*
X148425D02*
D03*
X161811Y284646D02*
D03*
X155118D02*
D03*
Y278347D02*
D03*
X161811D02*
D03*
X148425Y284646D02*
D03*
X141733D02*
D03*
X278150Y306103D02*
D03*
X284843D02*
D03*
X278150Y300197D02*
D03*
X284843D02*
D03*
X278150Y286418D02*
D03*
X284843D02*
D03*
X278150Y280512D02*
D03*
X284843D02*
D03*
X524016Y272048D02*
D03*
X517323Y272048D02*
D03*
X503924Y278347D02*
D03*
X510617Y278347D02*
D03*
X503937Y272047D02*
D03*
X510630D02*
D03*
X524016Y284646D02*
D03*
X517323D02*
D03*
Y278347D02*
D03*
X524016D02*
D03*
X510630Y284646D02*
D03*
X503937D02*
D03*
X640355Y306103D02*
D03*
X647048D02*
D03*
X640355Y300197D02*
D03*
X647048D02*
D03*
X640355Y286418D02*
D03*
X647048D02*
D03*
X640355Y280512D02*
D03*
X647048D02*
D03*
X161811Y476772D02*
D03*
X155118Y476772D02*
D03*
X141719Y483071D02*
D03*
X148412Y483071D02*
D03*
X141732Y476771D02*
D03*
X148425D02*
D03*
X161811Y489370D02*
D03*
X155118D02*
D03*
Y483071D02*
D03*
X161811D02*
D03*
X148425Y489370D02*
D03*
X141733D02*
D03*
X278150Y510827D02*
D03*
X284843D02*
D03*
X278150Y504922D02*
D03*
X284843D02*
D03*
X278150Y491142D02*
D03*
X284843D02*
D03*
X278150Y485237D02*
D03*
X284843D02*
D03*
X524016Y476772D02*
D03*
X517323Y476772D02*
D03*
X503924Y483071D02*
D03*
X510617Y483071D02*
D03*
X503937Y476771D02*
D03*
X510630D02*
D03*
X524016Y489370D02*
D03*
X517323D02*
D03*
Y483071D02*
D03*
X524016D02*
D03*
X510630Y489370D02*
D03*
X503937D02*
D03*
X640355Y510827D02*
D03*
X647048D02*
D03*
X640355Y504922D02*
D03*
X647048D02*
D03*
X640355Y491142D02*
D03*
X647048D02*
D03*
X640355Y485237D02*
D03*
X647048D02*
D03*
D14*
X177166Y32086D02*
D03*
X177166Y38779D02*
D03*
X140748Y32086D02*
D03*
X140748Y38779D02*
D03*
X214370Y82874D02*
D03*
Y76181D02*
D03*
X214370Y64370D02*
D03*
Y71063D02*
D03*
X539370Y32086D02*
D03*
X539370Y38779D02*
D03*
X502953Y32086D02*
D03*
X502953Y38779D02*
D03*
X576575Y82874D02*
D03*
Y76181D02*
D03*
X576575Y64370D02*
D03*
Y71063D02*
D03*
X177166Y236811D02*
D03*
X177166Y243504D02*
D03*
X140748Y236811D02*
D03*
X140748Y243504D02*
D03*
X214370Y287599D02*
D03*
Y280906D02*
D03*
X214370Y269094D02*
D03*
Y275787D02*
D03*
X539370Y236811D02*
D03*
X539370Y243504D02*
D03*
X502953Y236811D02*
D03*
X502953Y243504D02*
D03*
X576575Y287599D02*
D03*
Y280906D02*
D03*
X576575Y269094D02*
D03*
Y275787D02*
D03*
X177166Y441535D02*
D03*
X177166Y448228D02*
D03*
X140748Y441535D02*
D03*
X140748Y448228D02*
D03*
X214370Y492323D02*
D03*
Y485630D02*
D03*
X214370Y473819D02*
D03*
Y480512D02*
D03*
X539370Y441535D02*
D03*
X539370Y448228D02*
D03*
X502953Y441535D02*
D03*
X502953Y448228D02*
D03*
X576575Y492323D02*
D03*
Y485630D02*
D03*
X576575Y473819D02*
D03*
Y480512D02*
D03*
D15*
X84665Y150984D02*
D03*
X79665D02*
D03*
X89665D02*
D03*
X94665D02*
D03*
X99665D02*
D03*
X104665D02*
D03*
X109665D02*
D03*
X114665D02*
D03*
X119665D02*
D03*
X124665D02*
D03*
X129665D02*
D03*
X134665D02*
D03*
X139665D02*
D03*
X144665D02*
D03*
X149665D02*
D03*
X154665D02*
D03*
X159665D02*
D03*
X164665D02*
D03*
X169665D02*
D03*
X174665D02*
D03*
X179665D02*
D03*
X184665D02*
D03*
X189665D02*
D03*
X194665D02*
D03*
X199665D02*
D03*
X204665D02*
D03*
X209665D02*
D03*
X214665D02*
D03*
X219665D02*
D03*
X224665D02*
D03*
X229665D02*
D03*
X234665D02*
D03*
X239665D02*
D03*
X244665D02*
D03*
X249665D02*
D03*
X254665D02*
D03*
X259665D02*
D03*
X264665D02*
D03*
X269665D02*
D03*
X274665D02*
D03*
D03*
X269665D02*
D03*
X264665D02*
D03*
X259665D02*
D03*
X254665D02*
D03*
X249665D02*
D03*
X244665D02*
D03*
X239665D02*
D03*
X234665D02*
D03*
X229665D02*
D03*
X224665D02*
D03*
X219665D02*
D03*
X214665D02*
D03*
X209665D02*
D03*
X204665D02*
D03*
X199665D02*
D03*
X194665D02*
D03*
X189665D02*
D03*
X184665D02*
D03*
X179665D02*
D03*
X174665D02*
D03*
X169665D02*
D03*
X164665D02*
D03*
X159665D02*
D03*
X154665D02*
D03*
X149665D02*
D03*
X144665D02*
D03*
X139665D02*
D03*
X134665D02*
D03*
X129665D02*
D03*
X124665D02*
D03*
X119665D02*
D03*
X114665D02*
D03*
X109665D02*
D03*
X104665D02*
D03*
X99665D02*
D03*
X94665D02*
D03*
X89665D02*
D03*
X79665D02*
D03*
X84665D02*
D03*
X446870D02*
D03*
X441870D02*
D03*
X451870D02*
D03*
X456870D02*
D03*
X461870D02*
D03*
X466870D02*
D03*
X471870D02*
D03*
X476870D02*
D03*
X481870D02*
D03*
X486870D02*
D03*
X491870D02*
D03*
X496870D02*
D03*
X501870D02*
D03*
X506870D02*
D03*
X511870D02*
D03*
X516870D02*
D03*
X521870D02*
D03*
X526870D02*
D03*
X531870D02*
D03*
X536870D02*
D03*
X541870D02*
D03*
X546870D02*
D03*
X551870D02*
D03*
X556870D02*
D03*
X561870D02*
D03*
X566870D02*
D03*
X571870D02*
D03*
X576870D02*
D03*
X581870D02*
D03*
X586870D02*
D03*
X591870D02*
D03*
X596870D02*
D03*
X601870D02*
D03*
X606870D02*
D03*
X611870D02*
D03*
X616870D02*
D03*
X621870D02*
D03*
X626870D02*
D03*
X631870D02*
D03*
X636870D02*
D03*
D03*
X631870D02*
D03*
X626870D02*
D03*
X621870D02*
D03*
X616870D02*
D03*
X611870D02*
D03*
X606870D02*
D03*
X601870D02*
D03*
X596870D02*
D03*
X591870D02*
D03*
X586870D02*
D03*
X581870D02*
D03*
X576870D02*
D03*
X571870D02*
D03*
X566870D02*
D03*
X561870D02*
D03*
X556870D02*
D03*
X551870D02*
D03*
X546870D02*
D03*
X541870D02*
D03*
X536870D02*
D03*
X531870D02*
D03*
X526870D02*
D03*
X521870D02*
D03*
X516870D02*
D03*
X511870D02*
D03*
X506870D02*
D03*
X501870D02*
D03*
X496870D02*
D03*
X491870D02*
D03*
X486870D02*
D03*
X481870D02*
D03*
X476870D02*
D03*
X471870D02*
D03*
X466870D02*
D03*
X461870D02*
D03*
X456870D02*
D03*
X451870D02*
D03*
X441870D02*
D03*
X446870D02*
D03*
X84665Y355709D02*
D03*
X79665D02*
D03*
X89665D02*
D03*
X94665D02*
D03*
X99665D02*
D03*
X104665D02*
D03*
X109665D02*
D03*
X114665D02*
D03*
X119665D02*
D03*
X124665D02*
D03*
X129665D02*
D03*
X134665D02*
D03*
X139665D02*
D03*
X144665D02*
D03*
X149665D02*
D03*
X154665D02*
D03*
X159665D02*
D03*
X164665D02*
D03*
X169665D02*
D03*
X174665D02*
D03*
X179665D02*
D03*
X184665D02*
D03*
X189665D02*
D03*
X194665D02*
D03*
X199665D02*
D03*
X204665D02*
D03*
X209665D02*
D03*
X214665D02*
D03*
X219665D02*
D03*
X224665D02*
D03*
X229665D02*
D03*
X234665D02*
D03*
X239665D02*
D03*
X244665D02*
D03*
X249665D02*
D03*
X254665D02*
D03*
X259665D02*
D03*
X264665D02*
D03*
X269665D02*
D03*
X274665D02*
D03*
D03*
X269665D02*
D03*
X264665D02*
D03*
X259665D02*
D03*
X254665D02*
D03*
X249665D02*
D03*
X244665D02*
D03*
X239665D02*
D03*
X234665D02*
D03*
X229665D02*
D03*
X224665D02*
D03*
X219665D02*
D03*
X214665D02*
D03*
X209665D02*
D03*
X204665D02*
D03*
X199665D02*
D03*
X194665D02*
D03*
X189665D02*
D03*
X184665D02*
D03*
X179665D02*
D03*
X174665D02*
D03*
X169665D02*
D03*
X164665D02*
D03*
X159665D02*
D03*
X154665D02*
D03*
X149665D02*
D03*
X144665D02*
D03*
X139665D02*
D03*
X134665D02*
D03*
X129665D02*
D03*
X124665D02*
D03*
X119665D02*
D03*
X114665D02*
D03*
X109665D02*
D03*
X104665D02*
D03*
X99665D02*
D03*
X94665D02*
D03*
X89665D02*
D03*
X79665D02*
D03*
X84665D02*
D03*
X446870D02*
D03*
X441870D02*
D03*
X451870D02*
D03*
X456870D02*
D03*
X461870D02*
D03*
X466870D02*
D03*
X471870D02*
D03*
X476870D02*
D03*
X481870D02*
D03*
X486870D02*
D03*
X491870D02*
D03*
X496870D02*
D03*
X501870D02*
D03*
X506870D02*
D03*
X511870D02*
D03*
X516870D02*
D03*
X521870D02*
D03*
X526870D02*
D03*
X531870D02*
D03*
X536870D02*
D03*
X541870D02*
D03*
X546870D02*
D03*
X551870D02*
D03*
X556870D02*
D03*
X561870D02*
D03*
X566870D02*
D03*
X571870D02*
D03*
X576870D02*
D03*
X581870D02*
D03*
X586870D02*
D03*
X591870D02*
D03*
X596870D02*
D03*
X601870D02*
D03*
X606870D02*
D03*
X611870D02*
D03*
X616870D02*
D03*
X621870D02*
D03*
X626870D02*
D03*
X631870D02*
D03*
X636870D02*
D03*
D03*
X631870D02*
D03*
X626870D02*
D03*
X621870D02*
D03*
X616870D02*
D03*
X611870D02*
D03*
X606870D02*
D03*
X601870D02*
D03*
X596870D02*
D03*
X591870D02*
D03*
X586870D02*
D03*
X581870D02*
D03*
X576870D02*
D03*
X571870D02*
D03*
X566870D02*
D03*
X561870D02*
D03*
X556870D02*
D03*
X551870D02*
D03*
X546870D02*
D03*
X541870D02*
D03*
X536870D02*
D03*
X531870D02*
D03*
X526870D02*
D03*
X521870D02*
D03*
X516870D02*
D03*
X511870D02*
D03*
X506870D02*
D03*
X501870D02*
D03*
X496870D02*
D03*
X491870D02*
D03*
X486870D02*
D03*
X481870D02*
D03*
X476870D02*
D03*
X471870D02*
D03*
X466870D02*
D03*
X461870D02*
D03*
X456870D02*
D03*
X451870D02*
D03*
X441870D02*
D03*
X446870D02*
D03*
X84665Y560433D02*
D03*
X79665D02*
D03*
X89665D02*
D03*
X94665D02*
D03*
X99665D02*
D03*
X104665D02*
D03*
X109665D02*
D03*
X114665D02*
D03*
X119665D02*
D03*
X124665D02*
D03*
X129665D02*
D03*
X134665D02*
D03*
X139665D02*
D03*
X144665D02*
D03*
X149665D02*
D03*
X154665D02*
D03*
X159665D02*
D03*
X164665D02*
D03*
X169665D02*
D03*
X174665D02*
D03*
X179665D02*
D03*
X184665D02*
D03*
X189665D02*
D03*
X194665D02*
D03*
X199665D02*
D03*
X204665D02*
D03*
X209665D02*
D03*
X214665D02*
D03*
X219665D02*
D03*
X224665D02*
D03*
X229665D02*
D03*
X234665D02*
D03*
X239665D02*
D03*
X244665D02*
D03*
X249665D02*
D03*
X254665D02*
D03*
X259665D02*
D03*
X264665D02*
D03*
X269665D02*
D03*
X274665D02*
D03*
D03*
X269665D02*
D03*
X264665D02*
D03*
X259665D02*
D03*
X254665D02*
D03*
X249665D02*
D03*
X244665D02*
D03*
X239665D02*
D03*
X234665D02*
D03*
X229665D02*
D03*
X224665D02*
D03*
X219665D02*
D03*
X214665D02*
D03*
X209665D02*
D03*
X204665D02*
D03*
X199665D02*
D03*
X194665D02*
D03*
X189665D02*
D03*
X184665D02*
D03*
X179665D02*
D03*
X174665D02*
D03*
X169665D02*
D03*
X164665D02*
D03*
X159665D02*
D03*
X154665D02*
D03*
X149665D02*
D03*
X144665D02*
D03*
X139665D02*
D03*
X134665D02*
D03*
X129665D02*
D03*
X124665D02*
D03*
X119665D02*
D03*
X114665D02*
D03*
X109665D02*
D03*
X104665D02*
D03*
X99665D02*
D03*
X94665D02*
D03*
X89665D02*
D03*
X79665D02*
D03*
X84665D02*
D03*
X446870D02*
D03*
X441870D02*
D03*
X451870D02*
D03*
X456870D02*
D03*
X461870D02*
D03*
X466870D02*
D03*
X471870D02*
D03*
X476870D02*
D03*
X481870D02*
D03*
X486870D02*
D03*
X491870D02*
D03*
X496870D02*
D03*
X501870D02*
D03*
X506870D02*
D03*
X511870D02*
D03*
X516870D02*
D03*
X521870D02*
D03*
X526870D02*
D03*
X531870D02*
D03*
X536870D02*
D03*
X541870D02*
D03*
X546870D02*
D03*
X551870D02*
D03*
X556870D02*
D03*
X561870D02*
D03*
X566870D02*
D03*
X571870D02*
D03*
X576870D02*
D03*
X581870D02*
D03*
X586870D02*
D03*
X591870D02*
D03*
X596870D02*
D03*
X601870D02*
D03*
X606870D02*
D03*
X611870D02*
D03*
X616870D02*
D03*
X621870D02*
D03*
X626870D02*
D03*
X631870D02*
D03*
X636870D02*
D03*
D03*
X631870D02*
D03*
X626870D02*
D03*
X621870D02*
D03*
X616870D02*
D03*
X611870D02*
D03*
X606870D02*
D03*
X601870D02*
D03*
X596870D02*
D03*
X591870D02*
D03*
X586870D02*
D03*
X581870D02*
D03*
X576870D02*
D03*
X571870D02*
D03*
X566870D02*
D03*
X561870D02*
D03*
X556870D02*
D03*
X551870D02*
D03*
X546870D02*
D03*
X541870D02*
D03*
X536870D02*
D03*
X531870D02*
D03*
X526870D02*
D03*
X521870D02*
D03*
X516870D02*
D03*
X511870D02*
D03*
X506870D02*
D03*
X501870D02*
D03*
X496870D02*
D03*
X491870D02*
D03*
X486870D02*
D03*
X481870D02*
D03*
X476870D02*
D03*
X471870D02*
D03*
X466870D02*
D03*
X461870D02*
D03*
X456870D02*
D03*
X451870D02*
D03*
X441870D02*
D03*
X446870D02*
D03*
D16*
X293898Y65945D02*
D03*
Y70276D02*
D03*
Y74606D02*
D03*
Y78937D02*
D03*
Y83268D02*
D03*
Y87599D02*
D03*
Y91929D02*
D03*
Y96260D02*
D03*
Y100591D02*
D03*
X656102Y65945D02*
D03*
Y70276D02*
D03*
Y74606D02*
D03*
Y78937D02*
D03*
Y83268D02*
D03*
Y87599D02*
D03*
Y91929D02*
D03*
Y96260D02*
D03*
Y100591D02*
D03*
X293898Y270669D02*
D03*
Y275000D02*
D03*
Y279331D02*
D03*
Y283662D02*
D03*
Y287992D02*
D03*
Y292323D02*
D03*
Y296654D02*
D03*
Y300984D02*
D03*
Y305315D02*
D03*
X656102Y270669D02*
D03*
Y275000D02*
D03*
Y279331D02*
D03*
Y283662D02*
D03*
Y287992D02*
D03*
Y292323D02*
D03*
Y296654D02*
D03*
Y300984D02*
D03*
Y305315D02*
D03*
X293898Y475394D02*
D03*
Y479725D02*
D03*
Y484055D02*
D03*
Y488386D02*
D03*
Y492717D02*
D03*
Y497047D02*
D03*
Y501378D02*
D03*
Y505709D02*
D03*
Y510039D02*
D03*
X656102Y475394D02*
D03*
Y479725D02*
D03*
Y484055D02*
D03*
Y488386D02*
D03*
Y492717D02*
D03*
Y497047D02*
D03*
Y501378D02*
D03*
Y505709D02*
D03*
Y510039D02*
D03*
D17*
X296654Y119095D02*
D03*
X658858D02*
D03*
X296654Y323819D02*
D03*
X658858D02*
D03*
X296654Y528543D02*
D03*
X658858D02*
D03*
D18*
X296654Y60433D02*
D03*
X658858D02*
D03*
X296654Y265158D02*
D03*
X658858D02*
D03*
X296654Y469882D02*
D03*
X658858D02*
D03*
D19*
X334449Y60827D02*
D03*
Y122638D02*
D03*
X696654Y60827D02*
D03*
Y122638D02*
D03*
X334449Y265551D02*
D03*
Y327362D02*
D03*
X696654Y265551D02*
D03*
Y327362D02*
D03*
X334449Y470276D02*
D03*
Y532087D02*
D03*
X696654Y470276D02*
D03*
Y532087D02*
D03*
D20*
X200984Y80709D02*
D03*
X208465D02*
D03*
X200984Y66535D02*
D03*
X208465D02*
D03*
X563189Y80709D02*
D03*
X570669D02*
D03*
X563189Y66535D02*
D03*
X570669D02*
D03*
X200984Y285433D02*
D03*
X208465D02*
D03*
X200984Y271260D02*
D03*
X208465D02*
D03*
X563189Y285433D02*
D03*
X570669D02*
D03*
X563189Y271260D02*
D03*
X570669D02*
D03*
X200984Y490158D02*
D03*
X208465D02*
D03*
X200984Y475984D02*
D03*
X208465D02*
D03*
X563189Y490158D02*
D03*
X570669D02*
D03*
X563189Y475984D02*
D03*
X570669D02*
D03*
D21*
X208465Y73622D02*
D03*
X200984D02*
D03*
X273819Y88583D02*
D03*
X281299D02*
D03*
X570669Y73622D02*
D03*
X563189D02*
D03*
X636024Y88583D02*
D03*
X643504D02*
D03*
X208465Y278346D02*
D03*
X200984D02*
D03*
X273819Y293307D02*
D03*
X281299D02*
D03*
X570669Y278346D02*
D03*
X563189D02*
D03*
X636024Y293307D02*
D03*
X643504D02*
D03*
X208465Y483071D02*
D03*
X200984D02*
D03*
X273819Y498032D02*
D03*
X281299D02*
D03*
X570669Y483071D02*
D03*
X563189D02*
D03*
X636024Y498032D02*
D03*
X643504D02*
D03*
M02*
