M48
;Layer_Color=9474304
;FILE_FORMAT=2:5
INCH,LZ
;TYPE=PLATED
T1F00S00C0.01181
T3F00S00C0.03543
T4F00S00C0.03937
T5F00S00C0.04331
T6F00S00C0.04724
;TYPE=NON_PLATED
T8F00S00C0.03937
T9F00S00C0.06693
T10F00S00C0.11811
T11F00S00C0.12598
%
T01
X0652953Y0060433
X0664764
X0696654Y0054921
X0565945Y0059055
X0562992
X0448425Y0046457
X0334449Y0054921
X0302559Y0060433
X0290748
X020374Y0059055
X0200787
X0086221Y0046457
X0070866Y0153543
X0137795Y0073622
X0155118Y0083661
X0167323Y0081693
X0193504Y0076673
X0196653Y0075197
Y0072047
X0218307
Y0075197
X0269488Y0087008
Y0090158
X0254665Y014311
X0249665
X0283465Y0154528
X0290748Y0119095
X0302559
X0334449Y0116732
Y0128543
Y0066732
X0299803Y0078937
X0433071Y0153543
X05Y0073622
X0517323Y0083661
X0529528Y0081693
X0555709Y0076673
X0558858Y0075197
Y0072047
X0580512
Y0075197
X0631693Y0087008
Y0090158
X0662008Y0078937
X0664764Y0119095
X0652953
X0645669Y0154528
X061687Y014311
X061187
X0696654Y0128543
Y0116732
Y0066732
Y0259646
Y0271457
X0664764Y0265158
X0652953
X0662008Y0283662
X0631693Y0291732
Y0294882
X0652953Y0323819
X0664764
X0696654Y0321457
Y0333268
X0645669Y0359252
X061687Y0347835
X061187
X0580512Y0279921
Y0276772
X0558858
Y0279921
X0555709Y0281398
X0562992Y0263779
X0565945
X0529528Y0286417
X0517323Y0288386
X05Y0278347
X0448425Y0251181
X0433071Y0358268
X0334449Y0333268
Y0321457
X0302559Y0323819
X0290748
X0299803Y0283662
X0302559Y0265158
X0290748
X0334449Y0259646
Y0271457
X0269488Y0291732
Y0294882
X0218307Y0279921
Y0276772
X0196653
Y0279921
X0193504Y0281398
X0200787Y0263779
X020374
X0167323Y0286417
X0155118Y0288386
X0137795Y0278347
X0249665Y0347835
X0254665
X0283465Y0359252
X0070866Y0358268
X0086221Y0251181
Y0455905
X0137795Y0483071
X0155118Y049311
X0167323Y0491142
X0193504Y0486122
X0196653Y0484646
Y0481496
X0200787Y0468504
X020374
X0218307Y0481496
Y0484646
X0269488Y0496457
Y0499606
X0299803Y0488386
X0302559Y0469882
X0290748
X0334449Y046437
Y0476181
Y0526181
X0302559Y0528543
X0290748
X0448425Y0455905
X05Y0483071
X0517323Y049311
X0529528Y0491142
X0555709Y0486122
X0558858Y0484646
Y0481496
X0562992Y0468504
X0565945
X0580512Y0481496
Y0484646
X0631693Y0496457
Y0499606
X0662008Y0488386
X0664764Y0469882
X0652953
X0696654Y046437
Y0476181
Y0526181
X0664764Y0528543
X0652953
X0645669Y0563976
X061687Y0552559
X061187
X0696654Y0537992
X0433071Y0562992
X0334449Y0537992
X0283465Y0563976
X0254665Y0552559
X0249665
X0070866Y0562992
T03
X0668976Y0047244
X0678976
X0688976
X0698976
X0336772
X0326772
X0316772
X0306772
X022441Y0068622
Y0078622
X0586614
Y0068622
X0668976Y0251969
X0678976
X0688976
X0698976
X0586614Y0273346
Y0283347
X0336772Y0251969
X0326772
X0316772
X0306772
X022441Y0273346
Y0283347
Y0478071
Y0488071
X0306772Y0456693
X0316772
X0326772
X0336772
X0586614Y0478071
Y0488071
X0668976Y0456693
X0678976
X0688976
X0698976
T04
X0461221Y0051772
X0420669
X0099016
X0058465
X0041339Y007185
X0021654
Y0128937
X0031496
X0041339
X0034449Y0176181
X003937Y0186024
X0057087
X0062008Y0176181
X0292323
X0297244Y0186024
X0314961
X0319882Y0176181
X0396654
X0401575Y0186024
X0419291
X0424213Y0176181
X0403543Y0128937
X0393701
X0383858
Y007185
X0403543
X0654528Y0176181
X0659449Y0186024
X0677165
X0682087Y0176181
X0461221Y0256496
X0420669
X0403543Y0276575
X0383858
Y0333661
X0393701
X0403543
X0041339
X0031496
X0021654
Y0276575
X0041339
X0058465Y0256496
X0099016
X0062008Y0380906
X0057087Y0390748
X003937
X0034449Y0380906
X0058465Y0461221
X0041339Y0481299
X0021654
X0099016Y0461221
X0297244Y0390748
X0292323Y0380906
X0319882
X0314961Y0390748
X0401575
X0396654Y0380906
X0424213
X0419291Y0390748
X0420669Y0461221
X0403543Y0481299
X0383858
X0461221Y0461221
X0659449Y0390748
X0654528Y0380906
X0682087
X0677165Y0390748
X0682087Y058563
X0677165Y0595472
X0659449
X0654528Y058563
X0424213
X0419291Y0595472
X0401575
X0396654Y058563
X0393701Y0538386
X0403543
X0383858
X0319882Y058563
X0314961Y0595472
X0297244
X0292323Y058563
X0062008
X0057087Y0595472
X003937
X0034449Y058563
X0031496Y0538386
X0041339
X0021654
T05
X0607425Y0022433
Y0048433
X0628795Y0042118
X0646795
X0589425Y0048433
X0568055
X0550055
X0528685
X0510685
Y0022433
X0528685
X0550055
X0568055
X0589425
X0284591Y0042118
X026659
X024522Y0048433
X0227221
X020585
X018785
X016648
X014848
Y0022433
X016648
X018785
X020585
X0227221
X024522
X007126Y0166339
X0283071
X0284591Y0068118
X026659
X0433465Y0166339
X0645276
X0646795Y0068118
X0628795
Y0246843
X0646795
Y0272843
X0628795
X0607425Y0253157
Y0227157
X0645276Y0371063
X0589425Y0253157
X0568055
X0550055
X0528685
X0510685
Y0227157
X0528685
X0550055
X0568055
X0589425
X0433465Y0371063
X0283071
X0284591Y0272843
X026659
Y0246843
X0284591
X024522Y0253157
X0227221
X020585
X018785
X016648
X014848
Y0227157
X016648
X018785
X020585
X0227221
X024522
X007126Y0371063
X014848Y0431882
X016648
X018785
X020585
X0227221
X024522
Y0457882
X0227221
X020585
X018785
X016648
X014848
X026659Y0451567
X0284591
Y0477567
X026659
X0510685Y0457882
X0528685
X0550055
X0568055
X0589425
Y0431882
X0568055
X0550055
X0528685
X0510685
X0607425
Y0457882
X0628795Y0451567
X0646795
Y0477567
X0628795
X0645276Y0575787
X0433465
X0283071
X007126
T06
X0461221Y0040748
X0420669
X0099016
X0058465
Y0066339
X0099016
X0420669
X0461221
Y0245472
Y0271063
X0420669
Y0245472
X0099016
Y0271063
X0058465
Y0245472
Y0450197
Y0475787
X0099016
Y0450197
X0420669
Y0475787
X0461221
Y0450197
T08
X0336024Y0072323
Y010374
X0698228
Y0072323
Y0277047
Y0308465
X0336024
Y0277047
Y0481772
Y0513189
X0698228
Y0481772
T09
X0125984Y0177953
X0228346
X0488189
X0590551
X0125984Y0382677
X0228346
X0488189
X0590551
Y0587402
X0488189
X0228346
X0125984
T10
X0641732Y0633858
X0074803
T11
X069685Y0019685
X038189Y0019685
X0334646Y0019685
X0019685Y0019685
X0019685Y0177165
X0334646Y0177165
X038189Y0177165
X069685Y0177165
X069685Y022441
X038189Y022441
X0334646Y022441
X0019685Y022441
X0019685Y038189
X0019685Y0429134
X0334646Y0429134
X0334646Y038189
X038189Y038189
X038189Y0429134
X069685Y0429134
X069685Y038189
Y0586614
X038189Y0586614
X0334646Y0586614
X0019685Y0586614
M30
