M48
;Layer_Color=9474304
;FILE_FORMAT=2:5
INCH,LZ
;TYPE=PLATED
T2F00S00C0.01968
T7F00S00C0.07087
;TYPE=NON_PLATED
%
G90
G05
T02
G00X0070866Y0181929
M15
G01Y0187047
M16
G00X0283465Y0181929
M15
G01Y0187047
M16
G00X0433071Y0181929
M15
G01Y0187047
M16
G00X0645669Y0181929
M15
G01Y0187047
M16
G00X0070866Y0386654
M15
G01Y0391772
M16
G00X0283465Y0386654
M15
G01Y0391772
M16
G00X0433071Y0386654
M15
G01Y0391772
M16
G00X0645669Y0386654
M15
G01Y0391772
M16
G00X0645669Y0591378
M15
G01Y0596496
M16
G00X0433071Y0591378
M15
G01Y0596496
M16
G00X0283465Y0591378
M15
G01Y0596496
M16
G00X0070866Y0591378
M15
G01Y0596496
M16
T07
G00X0009055Y0102756
M15
G01Y0096063
M16
G00X0053937Y0102756
M15
G01Y0096063
M16
G00X037126Y0102756
M15
G01Y0096063
M16
G00X0416142Y0102756
M15
G01Y0096063
M16
G00X0416142Y030748
M15
G01Y0300787
M16
G00X037126Y030748
M15
G01Y0300787
M16
G00X0053937Y030748
M15
G01Y0300787
M16
G00X0009055Y030748
M15
G01Y0300787
M16
G00X0009055Y0512205
M15
G01Y0505512
M16
G00X0053937Y0512205
M15
G01Y0505512
M16
G00X037126Y0512205
M15
G01Y0505512
M16
G00X0416142Y0512205
M15
G01Y0505512
M16
M17
M30
