G04*
G04 #@! TF.GenerationSoftware,Altium Limited,Altium Designer,22.6.0 (29)*
G04*
G04 Layer_Color=128*
%FSLAX25Y25*%
%MOIN*%
G70*
G04*
G04 #@! TF.SameCoordinates,10DF7CA3-E9B9-4642-BBA7-13C8921E1616*
G04*
G04*
G04 #@! TF.FilePolarity,Positive*
G04*
G01*
G75*
%ADD10C,0.01575*%
%ADD14C,0.00984*%
%ADD25C,0.00394*%
%ADD26C,0.00787*%
%ADD70C,0.00200*%
G36*
X872201Y-141778D02*
X873919D01*
Y-142065D01*
X874778D01*
Y-142351D01*
X875637D01*
Y-142637D01*
X876496D01*
Y-142924D01*
X877069D01*
Y-143210D01*
X877355D01*
Y-143496D01*
X877928D01*
Y-143783D01*
X878214D01*
Y-144069D01*
X878786D01*
Y-144355D01*
X879073D01*
Y-144641D01*
X879359D01*
Y-144928D01*
X879646D01*
Y-145214D01*
X879932D01*
Y-145501D01*
X880218D01*
Y-145787D01*
X880504D01*
Y-146073D01*
Y-146359D01*
X880791D01*
Y-146646D01*
X881077D01*
Y-146932D01*
Y-147218D01*
X881363D01*
Y-147505D01*
X881650D01*
Y-147791D01*
Y-148077D01*
X881936D01*
Y-148364D01*
Y-148650D01*
Y-148936D01*
X882222D01*
Y-149223D01*
Y-149509D01*
Y-149795D01*
X882509D01*
Y-150082D01*
Y-150368D01*
Y-150654D01*
Y-150940D01*
X882795D01*
Y-151227D01*
Y-151513D01*
Y-151799D01*
Y-152086D01*
Y-152372D01*
X883081D01*
Y-152658D01*
Y-152945D01*
Y-153231D01*
Y-153517D01*
Y-153804D01*
Y-154090D01*
Y-154376D01*
Y-154663D01*
Y-154949D01*
Y-155235D01*
Y-155521D01*
Y-155808D01*
Y-156094D01*
Y-156380D01*
Y-156667D01*
Y-156953D01*
Y-157239D01*
Y-157526D01*
Y-157812D01*
Y-158098D01*
X882795D01*
Y-158385D01*
Y-158671D01*
Y-158957D01*
Y-159244D01*
Y-159530D01*
Y-159816D01*
Y-160102D01*
X882509D01*
Y-160389D01*
Y-160675D01*
Y-160961D01*
Y-161248D01*
Y-161534D01*
X882222D01*
Y-161820D01*
Y-162107D01*
Y-162393D01*
Y-162679D01*
Y-162966D01*
X881936D01*
Y-163252D01*
Y-163538D01*
Y-163824D01*
X881650D01*
Y-164111D01*
Y-164397D01*
Y-164683D01*
Y-164970D01*
X881363D01*
Y-165256D01*
Y-165542D01*
Y-165829D01*
X881077D01*
Y-166115D01*
Y-166401D01*
X880791D01*
Y-166688D01*
Y-166974D01*
Y-167260D01*
X880504D01*
Y-167547D01*
Y-167833D01*
X880218D01*
Y-168119D01*
Y-168405D01*
X879932D01*
Y-168692D01*
Y-168978D01*
X879646D01*
Y-169264D01*
X879359D01*
Y-169551D01*
Y-169837D01*
X879073D01*
Y-170123D01*
X878786D01*
Y-170410D01*
X878500D01*
Y-170696D01*
Y-170982D01*
X878214D01*
Y-171269D01*
X877928D01*
Y-171555D01*
X877641D01*
Y-171841D01*
X877355D01*
Y-172127D01*
X877069D01*
Y-172414D01*
X876496D01*
Y-172700D01*
X876210D01*
Y-172986D01*
X875637D01*
Y-173273D01*
X875351D01*
Y-173559D01*
X874778D01*
Y-173845D01*
X873919D01*
Y-174132D01*
X873060D01*
Y-174418D01*
X872201D01*
Y-174704D01*
X870483D01*
Y-174991D01*
X865330D01*
Y-174704D01*
X862753D01*
Y-174418D01*
X860749D01*
Y-174132D01*
X859317D01*
Y-173845D01*
X857886D01*
Y-173559D01*
X856454D01*
Y-173845D01*
Y-174132D01*
Y-174418D01*
Y-174704D01*
Y-174991D01*
Y-175277D01*
Y-175563D01*
X856168D01*
Y-175850D01*
Y-176136D01*
Y-176422D01*
Y-176709D01*
Y-176995D01*
Y-177281D01*
X855882D01*
Y-177568D01*
Y-177854D01*
Y-178140D01*
Y-178426D01*
Y-178713D01*
Y-178999D01*
X855595D01*
Y-179285D01*
Y-179572D01*
Y-179858D01*
Y-180144D01*
Y-180431D01*
Y-180717D01*
Y-181003D01*
X855309D01*
Y-181290D01*
Y-181576D01*
Y-181862D01*
Y-182149D01*
Y-182435D01*
Y-182721D01*
X855023D01*
Y-183007D01*
Y-183294D01*
Y-183580D01*
Y-183866D01*
Y-184153D01*
Y-184439D01*
X854736D01*
Y-184725D01*
Y-185012D01*
Y-185298D01*
Y-185584D01*
Y-185871D01*
Y-186157D01*
Y-186443D01*
X854450D01*
Y-186730D01*
Y-187016D01*
Y-187302D01*
Y-187588D01*
Y-187875D01*
Y-188161D01*
X854164D01*
Y-188447D01*
Y-188734D01*
Y-189020D01*
Y-189306D01*
Y-189593D01*
Y-189879D01*
X853877D01*
Y-190165D01*
Y-190452D01*
Y-190738D01*
Y-191024D01*
Y-191311D01*
Y-191597D01*
Y-191883D01*
X840421D01*
Y-191597D01*
X840707D01*
Y-191311D01*
Y-191024D01*
Y-190738D01*
Y-190452D01*
Y-190165D01*
X840993D01*
Y-189879D01*
Y-189593D01*
Y-189306D01*
Y-189020D01*
Y-188734D01*
Y-188447D01*
Y-188161D01*
X841280D01*
Y-187875D01*
Y-187588D01*
Y-187302D01*
Y-187016D01*
Y-186730D01*
Y-186443D01*
X841566D01*
Y-186157D01*
Y-185871D01*
Y-185584D01*
Y-185298D01*
Y-185012D01*
Y-184725D01*
X841852D01*
Y-184439D01*
Y-184153D01*
Y-183866D01*
Y-183580D01*
Y-183294D01*
Y-183007D01*
Y-182721D01*
X842138D01*
Y-182435D01*
Y-182149D01*
Y-181862D01*
Y-181576D01*
Y-181290D01*
Y-181003D01*
X842425D01*
Y-180717D01*
Y-180431D01*
Y-180144D01*
Y-179858D01*
Y-179572D01*
Y-179285D01*
X842711D01*
Y-178999D01*
Y-178713D01*
Y-178426D01*
Y-178140D01*
Y-177854D01*
Y-177568D01*
X842997D01*
Y-177281D01*
Y-176995D01*
Y-176709D01*
Y-176422D01*
Y-176136D01*
Y-175850D01*
Y-175563D01*
X843284D01*
Y-175277D01*
Y-174991D01*
Y-174704D01*
Y-174418D01*
Y-174132D01*
Y-173845D01*
X843570D01*
Y-173559D01*
Y-173273D01*
Y-172986D01*
Y-172700D01*
Y-172414D01*
Y-172127D01*
X843856D01*
Y-171841D01*
Y-171555D01*
Y-171269D01*
Y-170982D01*
Y-170696D01*
Y-170410D01*
X844143D01*
Y-170123D01*
Y-169837D01*
Y-169551D01*
Y-169264D01*
Y-168978D01*
Y-168692D01*
Y-168405D01*
X844429D01*
Y-168119D01*
Y-167833D01*
Y-167547D01*
Y-167260D01*
Y-166974D01*
Y-166688D01*
X844715D01*
Y-166401D01*
Y-166115D01*
Y-165829D01*
Y-165542D01*
Y-165256D01*
Y-164970D01*
X845002D01*
Y-164683D01*
Y-164397D01*
Y-164111D01*
Y-163824D01*
Y-163538D01*
Y-163252D01*
Y-162966D01*
X845288D01*
Y-162679D01*
Y-162393D01*
Y-162107D01*
Y-161820D01*
Y-161534D01*
Y-161248D01*
X845574D01*
Y-160961D01*
Y-160675D01*
Y-160389D01*
Y-160102D01*
Y-159816D01*
Y-159530D01*
X845861D01*
Y-159244D01*
Y-158957D01*
Y-158671D01*
Y-158385D01*
Y-158098D01*
Y-157812D01*
X846147D01*
Y-157526D01*
Y-157239D01*
Y-156953D01*
Y-156667D01*
Y-156380D01*
Y-156094D01*
Y-155808D01*
X846433D01*
Y-155521D01*
Y-155235D01*
Y-154949D01*
Y-154663D01*
Y-154376D01*
Y-154090D01*
X846719D01*
Y-153804D01*
Y-153517D01*
Y-153231D01*
Y-152945D01*
Y-152658D01*
Y-152372D01*
X847006D01*
Y-152086D01*
Y-151799D01*
Y-151513D01*
Y-151227D01*
Y-150940D01*
Y-150654D01*
Y-150368D01*
X847292D01*
Y-150082D01*
Y-149795D01*
Y-149509D01*
Y-149223D01*
Y-148936D01*
Y-148650D01*
X847578D01*
Y-148364D01*
Y-148077D01*
Y-147791D01*
Y-147505D01*
Y-147218D01*
Y-146932D01*
X847865D01*
Y-146646D01*
Y-146359D01*
Y-146073D01*
Y-145787D01*
Y-145501D01*
Y-145214D01*
Y-144928D01*
X848151D01*
Y-144641D01*
Y-144355D01*
Y-144069D01*
Y-143783D01*
Y-143496D01*
Y-143210D01*
X848437D01*
Y-142924D01*
Y-142637D01*
Y-142351D01*
Y-142065D01*
Y-141778D01*
Y-141492D01*
X872201D01*
Y-141778D01*
D02*
G37*
G36*
X903409Y-138343D02*
Y-138629D01*
X903123D01*
Y-138915D01*
Y-139202D01*
Y-139488D01*
Y-139774D01*
Y-140060D01*
Y-140347D01*
X902837D01*
Y-140633D01*
Y-140919D01*
Y-141206D01*
Y-141492D01*
Y-141778D01*
Y-142065D01*
X902551D01*
Y-142351D01*
Y-142637D01*
Y-142924D01*
Y-143210D01*
Y-143496D01*
Y-143783D01*
Y-144069D01*
X902264D01*
Y-144355D01*
Y-144641D01*
Y-144928D01*
Y-145214D01*
Y-145501D01*
Y-145787D01*
X901978D01*
Y-146073D01*
Y-146359D01*
Y-146646D01*
Y-146932D01*
Y-147218D01*
Y-147505D01*
X901692D01*
Y-147791D01*
Y-148077D01*
Y-148364D01*
Y-148650D01*
Y-148936D01*
Y-149223D01*
Y-149509D01*
X901405D01*
Y-149795D01*
Y-150082D01*
Y-150368D01*
Y-150654D01*
Y-150940D01*
Y-151227D01*
X901119D01*
Y-151513D01*
Y-151799D01*
Y-152086D01*
Y-152372D01*
Y-152658D01*
Y-152945D01*
X900833D01*
Y-153231D01*
Y-153517D01*
Y-153804D01*
Y-154090D01*
Y-154376D01*
Y-154663D01*
X900546D01*
Y-154949D01*
Y-155235D01*
Y-155521D01*
Y-155808D01*
Y-156094D01*
Y-156380D01*
Y-156667D01*
X900260D01*
Y-156953D01*
Y-157239D01*
Y-157526D01*
Y-157812D01*
Y-158098D01*
Y-158385D01*
X899974D01*
Y-158671D01*
Y-158957D01*
X900546D01*
Y-158671D01*
X900833D01*
Y-158385D01*
X901119D01*
Y-158098D01*
X901692D01*
Y-157812D01*
X901978D01*
Y-157526D01*
X902264D01*
Y-157239D01*
X902837D01*
Y-156953D01*
X903409D01*
Y-156667D01*
X903696D01*
Y-156380D01*
X904268D01*
Y-156094D01*
X905127D01*
Y-155808D01*
X905700D01*
Y-155521D01*
X906559D01*
Y-155235D01*
X907990D01*
Y-154949D01*
X914289D01*
Y-155235D01*
X915435D01*
Y-155521D01*
X916294D01*
Y-155808D01*
X916866D01*
Y-156094D01*
X917153D01*
Y-156380D01*
X917725D01*
Y-156667D01*
X918011D01*
Y-156953D01*
X918298D01*
Y-157239D01*
X918584D01*
Y-157526D01*
X918870D01*
Y-157812D01*
Y-158098D01*
X919157D01*
Y-158385D01*
Y-158671D01*
X919443D01*
Y-158957D01*
Y-159244D01*
Y-159530D01*
X919729D01*
Y-159816D01*
Y-160102D01*
Y-160389D01*
Y-160675D01*
X920016D01*
Y-160961D01*
Y-161248D01*
Y-161534D01*
Y-161820D01*
Y-162107D01*
Y-162393D01*
Y-162679D01*
Y-162966D01*
Y-163252D01*
Y-163538D01*
Y-163824D01*
Y-164111D01*
Y-164397D01*
Y-164683D01*
Y-164970D01*
Y-165256D01*
Y-165542D01*
Y-165829D01*
X919729D01*
Y-166115D01*
Y-166401D01*
Y-166688D01*
Y-166974D01*
Y-167260D01*
Y-167547D01*
Y-167833D01*
X919443D01*
Y-168119D01*
Y-168405D01*
Y-168692D01*
Y-168978D01*
Y-169264D01*
Y-169551D01*
Y-169837D01*
X919157D01*
Y-170123D01*
Y-170410D01*
Y-170696D01*
Y-170982D01*
Y-171269D01*
Y-171555D01*
X918870D01*
Y-171841D01*
Y-172127D01*
Y-172414D01*
Y-172700D01*
Y-172986D01*
Y-173273D01*
X918584D01*
Y-173559D01*
Y-173845D01*
Y-174132D01*
Y-174418D01*
Y-174704D01*
Y-174991D01*
X918298D01*
Y-175277D01*
Y-175563D01*
Y-175850D01*
Y-176136D01*
Y-176422D01*
Y-176709D01*
Y-176995D01*
X918011D01*
Y-177281D01*
Y-177568D01*
Y-177854D01*
Y-178140D01*
Y-178426D01*
Y-178713D01*
X917725D01*
Y-178999D01*
Y-179285D01*
Y-179572D01*
Y-179858D01*
Y-180144D01*
Y-180431D01*
X917439D01*
Y-180717D01*
Y-181003D01*
Y-181290D01*
Y-181576D01*
Y-181862D01*
Y-182149D01*
Y-182435D01*
X917153D01*
Y-182721D01*
Y-183007D01*
Y-183294D01*
Y-183580D01*
Y-183866D01*
Y-184153D01*
X916866D01*
Y-184439D01*
Y-184725D01*
Y-185012D01*
Y-185298D01*
Y-185584D01*
Y-185871D01*
X916580D01*
Y-186157D01*
Y-186443D01*
Y-186730D01*
Y-187016D01*
Y-187302D01*
Y-187588D01*
X916294D01*
Y-187875D01*
Y-188161D01*
Y-188447D01*
Y-188734D01*
Y-189020D01*
Y-189306D01*
Y-189593D01*
X916007D01*
Y-189879D01*
Y-190165D01*
Y-190452D01*
Y-190738D01*
Y-191024D01*
Y-191311D01*
X915721D01*
Y-191597D01*
Y-191883D01*
X902551D01*
Y-191597D01*
Y-191311D01*
X902837D01*
Y-191024D01*
Y-190738D01*
Y-190452D01*
Y-190165D01*
Y-189879D01*
Y-189593D01*
X903123D01*
Y-189306D01*
Y-189020D01*
Y-188734D01*
Y-188447D01*
Y-188161D01*
Y-187875D01*
Y-187588D01*
X903409D01*
Y-187302D01*
Y-187016D01*
Y-186730D01*
Y-186443D01*
Y-186157D01*
Y-185871D01*
X903696D01*
Y-185584D01*
Y-185298D01*
Y-185012D01*
Y-184725D01*
Y-184439D01*
Y-184153D01*
X903982D01*
Y-183866D01*
Y-183580D01*
Y-183294D01*
Y-183007D01*
Y-182721D01*
Y-182435D01*
Y-182149D01*
X904268D01*
Y-181862D01*
Y-181576D01*
Y-181290D01*
Y-181003D01*
Y-180717D01*
Y-180431D01*
X904555D01*
Y-180144D01*
Y-179858D01*
Y-179572D01*
Y-179285D01*
Y-178999D01*
Y-178713D01*
Y-178426D01*
X904841D01*
Y-178140D01*
Y-177854D01*
Y-177568D01*
Y-177281D01*
Y-176995D01*
Y-176709D01*
X905127D01*
Y-176422D01*
Y-176136D01*
Y-175850D01*
Y-175563D01*
Y-175277D01*
Y-174991D01*
X905414D01*
Y-174704D01*
Y-174418D01*
Y-174132D01*
Y-173845D01*
Y-173559D01*
Y-173273D01*
X905700D01*
Y-172986D01*
Y-172700D01*
Y-172414D01*
Y-172127D01*
Y-171841D01*
Y-171555D01*
Y-171269D01*
X905986D01*
Y-170982D01*
Y-170696D01*
Y-170410D01*
Y-170123D01*
Y-169837D01*
Y-169551D01*
X906273D01*
Y-169264D01*
Y-168978D01*
Y-168692D01*
Y-168405D01*
Y-168119D01*
Y-167833D01*
Y-167547D01*
X906559D01*
Y-167260D01*
Y-166974D01*
Y-166688D01*
Y-166401D01*
Y-166115D01*
Y-165829D01*
X906273D01*
Y-165542D01*
Y-165256D01*
X905986D01*
Y-164970D01*
X905700D01*
Y-164683D01*
X905127D01*
Y-164397D01*
X903409D01*
Y-164683D01*
X901978D01*
Y-164970D01*
X901119D01*
Y-165256D01*
X900546D01*
Y-165542D01*
X900260D01*
Y-165829D01*
X899687D01*
Y-166115D01*
X899401D01*
Y-166401D01*
X899115D01*
Y-166688D01*
Y-166974D01*
X898828D01*
Y-167260D01*
Y-167547D01*
Y-167833D01*
X898542D01*
Y-168119D01*
Y-168405D01*
Y-168692D01*
Y-168978D01*
Y-169264D01*
Y-169551D01*
X898256D01*
Y-169837D01*
Y-170123D01*
Y-170410D01*
Y-170696D01*
Y-170982D01*
Y-171269D01*
Y-171555D01*
X897970D01*
Y-171841D01*
Y-172127D01*
Y-172414D01*
Y-172700D01*
Y-172986D01*
Y-173273D01*
X897683D01*
Y-173559D01*
Y-173845D01*
Y-174132D01*
Y-174418D01*
Y-174704D01*
Y-174991D01*
X897397D01*
Y-175277D01*
Y-175563D01*
Y-175850D01*
Y-176136D01*
Y-176422D01*
Y-176709D01*
X897111D01*
Y-176995D01*
Y-177281D01*
Y-177568D01*
Y-177854D01*
Y-178140D01*
Y-178426D01*
Y-178713D01*
X896824D01*
Y-178999D01*
Y-179285D01*
Y-179572D01*
Y-179858D01*
Y-180144D01*
Y-180431D01*
X896538D01*
Y-180717D01*
Y-181003D01*
Y-181290D01*
Y-181576D01*
Y-181862D01*
Y-182149D01*
X896252D01*
Y-182435D01*
Y-182721D01*
Y-183007D01*
Y-183294D01*
Y-183580D01*
Y-183866D01*
Y-184153D01*
X895965D01*
Y-184439D01*
Y-184725D01*
Y-185012D01*
Y-185298D01*
Y-185584D01*
Y-185871D01*
X895679D01*
Y-186157D01*
Y-186443D01*
Y-186730D01*
Y-187016D01*
Y-187302D01*
Y-187588D01*
X895393D01*
Y-187875D01*
Y-188161D01*
Y-188447D01*
Y-188734D01*
Y-189020D01*
Y-189306D01*
X895106D01*
Y-189593D01*
Y-189879D01*
Y-190165D01*
Y-190452D01*
Y-190738D01*
Y-191024D01*
Y-191311D01*
X894820D01*
Y-191597D01*
Y-191883D01*
X881650D01*
Y-191597D01*
Y-191311D01*
X881936D01*
Y-191024D01*
Y-190738D01*
Y-190452D01*
Y-190165D01*
Y-189879D01*
Y-189593D01*
Y-189306D01*
X882222D01*
Y-189020D01*
Y-188734D01*
Y-188447D01*
Y-188161D01*
Y-187875D01*
Y-187588D01*
X882509D01*
Y-187302D01*
Y-187016D01*
Y-186730D01*
Y-186443D01*
Y-186157D01*
Y-185871D01*
X882795D01*
Y-185584D01*
Y-185298D01*
Y-185012D01*
Y-184725D01*
Y-184439D01*
Y-184153D01*
Y-183866D01*
X883081D01*
Y-183580D01*
Y-183294D01*
Y-183007D01*
Y-182721D01*
Y-182435D01*
Y-182149D01*
X883368D01*
Y-181862D01*
Y-181576D01*
Y-181290D01*
Y-181003D01*
Y-180717D01*
Y-180431D01*
X883654D01*
Y-180144D01*
Y-179858D01*
Y-179572D01*
Y-179285D01*
Y-178999D01*
Y-178713D01*
X883940D01*
Y-178426D01*
Y-178140D01*
Y-177854D01*
Y-177568D01*
Y-177281D01*
Y-176995D01*
Y-176709D01*
X884227D01*
Y-176422D01*
Y-176136D01*
Y-175850D01*
Y-175563D01*
Y-175277D01*
Y-174991D01*
X884513D01*
Y-174704D01*
Y-174418D01*
Y-174132D01*
Y-173845D01*
Y-173559D01*
Y-173273D01*
X884799D01*
Y-172986D01*
Y-172700D01*
Y-172414D01*
Y-172127D01*
Y-171841D01*
Y-171555D01*
Y-171269D01*
X885085D01*
Y-170982D01*
Y-170696D01*
Y-170410D01*
Y-170123D01*
Y-169837D01*
Y-169551D01*
X885372D01*
Y-169264D01*
Y-168978D01*
Y-168692D01*
Y-168405D01*
Y-168119D01*
Y-167833D01*
X885658D01*
Y-167547D01*
Y-167260D01*
Y-166974D01*
Y-166688D01*
Y-166401D01*
Y-166115D01*
X885944D01*
Y-165829D01*
Y-165542D01*
Y-165256D01*
Y-164970D01*
Y-164683D01*
Y-164397D01*
Y-164111D01*
X886231D01*
Y-163824D01*
Y-163538D01*
Y-163252D01*
Y-162966D01*
Y-162679D01*
Y-162393D01*
X886517D01*
Y-162107D01*
Y-161820D01*
Y-161534D01*
Y-161248D01*
Y-160961D01*
Y-160675D01*
X886803D01*
Y-160389D01*
Y-160102D01*
Y-159816D01*
Y-159530D01*
Y-159244D01*
Y-158957D01*
X887090D01*
Y-158671D01*
Y-158385D01*
Y-158098D01*
Y-157812D01*
Y-157526D01*
Y-157239D01*
Y-156953D01*
X887376D01*
Y-156667D01*
Y-156380D01*
Y-156094D01*
Y-155808D01*
Y-155521D01*
Y-155235D01*
X887662D01*
Y-154949D01*
Y-154663D01*
Y-154376D01*
Y-154090D01*
Y-153804D01*
Y-153517D01*
X887949D01*
Y-153231D01*
Y-152945D01*
Y-152658D01*
Y-152372D01*
Y-152086D01*
Y-151799D01*
Y-151513D01*
X888235D01*
Y-151227D01*
Y-150940D01*
Y-150654D01*
Y-150368D01*
Y-150082D01*
Y-149795D01*
X888521D01*
Y-149509D01*
Y-149223D01*
Y-148936D01*
Y-148650D01*
Y-148364D01*
Y-148077D01*
X888807D01*
Y-147791D01*
Y-147505D01*
Y-147218D01*
Y-146932D01*
Y-146646D01*
Y-146359D01*
X889094D01*
Y-146073D01*
Y-145787D01*
Y-145501D01*
Y-145214D01*
Y-144928D01*
Y-144641D01*
Y-144355D01*
X889380D01*
Y-144069D01*
Y-143783D01*
Y-143496D01*
Y-143210D01*
Y-142924D01*
Y-142637D01*
X889666D01*
Y-142351D01*
Y-142065D01*
Y-141778D01*
Y-141492D01*
Y-141206D01*
Y-140919D01*
X889953D01*
Y-140633D01*
Y-140347D01*
Y-140060D01*
Y-139774D01*
Y-139488D01*
Y-139202D01*
Y-138915D01*
X890239D01*
Y-138629D01*
Y-138343D01*
Y-138056D01*
X903409D01*
Y-138343D01*
D02*
G37*
G36*
X1005337Y-155808D02*
X1005050D01*
Y-156094D01*
X1004764D01*
Y-156380D01*
Y-156667D01*
X1004478D01*
Y-156953D01*
X1004192D01*
Y-157239D01*
X1003905D01*
Y-157526D01*
Y-157812D01*
X1003619D01*
Y-158098D01*
X1003333D01*
Y-158385D01*
X1003046D01*
Y-158671D01*
X1002760D01*
Y-158957D01*
Y-159244D01*
X1002474D01*
Y-159530D01*
X1002187D01*
Y-159816D01*
X1001901D01*
Y-160102D01*
Y-160389D01*
X1001615D01*
Y-160675D01*
X1001328D01*
Y-160961D01*
X1001042D01*
Y-161248D01*
X1000756D01*
Y-161534D01*
Y-161820D01*
X1000469D01*
Y-162107D01*
X1000183D01*
Y-162393D01*
X999897D01*
Y-162679D01*
Y-162966D01*
X999611D01*
Y-163252D01*
X999324D01*
Y-163538D01*
X999038D01*
Y-163824D01*
Y-164111D01*
X998752D01*
Y-164397D01*
X998465D01*
Y-164683D01*
X998179D01*
Y-164970D01*
X997893D01*
Y-165256D01*
Y-165542D01*
X997606D01*
Y-165829D01*
X997320D01*
Y-166115D01*
X997034D01*
Y-166401D01*
Y-166688D01*
X996747D01*
Y-166974D01*
X996461D01*
Y-167260D01*
X996175D01*
Y-167547D01*
Y-167833D01*
X995889D01*
Y-168119D01*
X995602D01*
Y-168405D01*
X995316D01*
Y-168692D01*
X995030D01*
Y-168978D01*
Y-169264D01*
X994743D01*
Y-169551D01*
X994457D01*
Y-169837D01*
X994171D01*
Y-170123D01*
Y-170410D01*
X993884D01*
Y-170696D01*
X993598D01*
Y-170982D01*
X993312D01*
Y-171269D01*
Y-171555D01*
X993025D01*
Y-171841D01*
X992739D01*
Y-172127D01*
X992453D01*
Y-172414D01*
X992166D01*
Y-172700D01*
Y-172986D01*
X991880D01*
Y-173273D01*
X991594D01*
Y-173559D01*
X991308D01*
Y-173845D01*
Y-174132D01*
X991021D01*
Y-174418D01*
X990735D01*
Y-174704D01*
X990449D01*
Y-174991D01*
X990162D01*
Y-175277D01*
Y-175563D01*
X990449D01*
Y-175850D01*
Y-176136D01*
X990735D01*
Y-176422D01*
Y-176709D01*
X991021D01*
Y-176995D01*
X991308D01*
Y-177281D01*
Y-177568D01*
X991594D01*
Y-177854D01*
Y-178140D01*
X991880D01*
Y-178426D01*
Y-178713D01*
X992166D01*
Y-178999D01*
Y-179285D01*
X992453D01*
Y-179572D01*
Y-179858D01*
X992739D01*
Y-180144D01*
Y-180431D01*
X993025D01*
Y-180717D01*
Y-181003D01*
X993312D01*
Y-181290D01*
Y-181576D01*
X993598D01*
Y-181862D01*
X993884D01*
Y-182149D01*
Y-182435D01*
X994171D01*
Y-182721D01*
Y-183007D01*
X994457D01*
Y-183294D01*
Y-183580D01*
X994743D01*
Y-183866D01*
Y-184153D01*
X995030D01*
Y-184439D01*
Y-184725D01*
X995316D01*
Y-185012D01*
Y-185298D01*
X995602D01*
Y-185584D01*
Y-185871D01*
X995889D01*
Y-186157D01*
X996175D01*
Y-186443D01*
Y-186730D01*
X996461D01*
Y-187016D01*
Y-187302D01*
X996747D01*
Y-187588D01*
Y-187875D01*
X997034D01*
Y-188161D01*
Y-188447D01*
X997320D01*
Y-188734D01*
Y-189020D01*
X997606D01*
Y-189306D01*
Y-189593D01*
X997893D01*
Y-189879D01*
Y-190165D01*
X998179D01*
Y-190452D01*
X998465D01*
Y-190738D01*
Y-191024D01*
X998752D01*
Y-191311D01*
Y-191597D01*
X999038D01*
Y-191883D01*
X983863D01*
Y-191597D01*
X983577D01*
Y-191311D01*
Y-191024D01*
Y-190738D01*
X983291D01*
Y-190452D01*
Y-190165D01*
Y-189879D01*
X983004D01*
Y-189593D01*
Y-189306D01*
X982718D01*
Y-189020D01*
Y-188734D01*
Y-188447D01*
X982432D01*
Y-188161D01*
Y-187875D01*
Y-187588D01*
X982146D01*
Y-187302D01*
Y-187016D01*
X981859D01*
Y-186730D01*
Y-186443D01*
Y-186157D01*
X981573D01*
Y-185871D01*
Y-185584D01*
Y-185298D01*
X981287D01*
Y-185012D01*
Y-184725D01*
Y-184439D01*
X981000D01*
Y-184153D01*
X980428D01*
Y-184439D01*
Y-184725D01*
X980141D01*
Y-185012D01*
X979855D01*
Y-185298D01*
Y-185584D01*
X979569D01*
Y-185871D01*
X979282D01*
Y-186157D01*
Y-186443D01*
X978996D01*
Y-186730D01*
X978710D01*
Y-187016D01*
Y-187302D01*
X978423D01*
Y-187588D01*
X978137D01*
Y-187875D01*
X977851D01*
Y-188161D01*
Y-188447D01*
X977565D01*
Y-188734D01*
X977278D01*
Y-189020D01*
Y-189306D01*
X976992D01*
Y-189593D01*
X976705D01*
Y-189879D01*
Y-190165D01*
X976419D01*
Y-190452D01*
X976133D01*
Y-190738D01*
Y-191024D01*
X975847D01*
Y-191311D01*
X975560D01*
Y-191597D01*
Y-191883D01*
X959527D01*
Y-191597D01*
X959813D01*
Y-191311D01*
X960099D01*
Y-191024D01*
X960386D01*
Y-190738D01*
X960672D01*
Y-190452D01*
Y-190165D01*
X960958D01*
Y-189879D01*
X961245D01*
Y-189593D01*
X961531D01*
Y-189306D01*
X961817D01*
Y-189020D01*
Y-188734D01*
X962104D01*
Y-188447D01*
X962390D01*
Y-188161D01*
X962676D01*
Y-187875D01*
Y-187588D01*
X962963D01*
Y-187302D01*
X963249D01*
Y-187016D01*
X963535D01*
Y-186730D01*
X963822D01*
Y-186443D01*
Y-186157D01*
X964108D01*
Y-185871D01*
X964394D01*
Y-185584D01*
X964680D01*
Y-185298D01*
X964967D01*
Y-185012D01*
Y-184725D01*
X965253D01*
Y-184439D01*
X965539D01*
Y-184153D01*
X965826D01*
Y-183866D01*
Y-183580D01*
X966112D01*
Y-183294D01*
X966398D01*
Y-183007D01*
X966685D01*
Y-182721D01*
X966971D01*
Y-182435D01*
Y-182149D01*
X967257D01*
Y-181862D01*
X967544D01*
Y-181576D01*
X967830D01*
Y-181290D01*
Y-181003D01*
X968116D01*
Y-180717D01*
X968402D01*
Y-180431D01*
X968689D01*
Y-180144D01*
X968975D01*
Y-179858D01*
Y-179572D01*
X969261D01*
Y-179285D01*
X969548D01*
Y-178999D01*
X969834D01*
Y-178713D01*
Y-178426D01*
X970120D01*
Y-178140D01*
X970407D01*
Y-177854D01*
X970693D01*
Y-177568D01*
X970979D01*
Y-177281D01*
Y-176995D01*
X971266D01*
Y-176709D01*
X971552D01*
Y-176422D01*
X971838D01*
Y-176136D01*
X972124D01*
Y-175850D01*
Y-175563D01*
X972411D01*
Y-175277D01*
X972697D01*
Y-174991D01*
X972983D01*
Y-174704D01*
Y-174418D01*
X973270D01*
Y-174132D01*
X973556D01*
Y-173845D01*
X973842D01*
Y-173559D01*
X974129D01*
Y-173273D01*
Y-172986D01*
X974415D01*
Y-172700D01*
Y-172414D01*
Y-172127D01*
X974129D01*
Y-171841D01*
X973842D01*
Y-171555D01*
Y-171269D01*
X973556D01*
Y-170982D01*
Y-170696D01*
X973270D01*
Y-170410D01*
Y-170123D01*
X972983D01*
Y-169837D01*
Y-169551D01*
X972697D01*
Y-169264D01*
Y-168978D01*
X972411D01*
Y-168692D01*
Y-168405D01*
X972124D01*
Y-168119D01*
X971838D01*
Y-167833D01*
Y-167547D01*
X971552D01*
Y-167260D01*
Y-166974D01*
X971266D01*
Y-166688D01*
Y-166401D01*
X970979D01*
Y-166115D01*
Y-165829D01*
X970693D01*
Y-165542D01*
Y-165256D01*
X970407D01*
Y-164970D01*
Y-164683D01*
X970120D01*
Y-164397D01*
X969834D01*
Y-164111D01*
Y-163824D01*
X969548D01*
Y-163538D01*
Y-163252D01*
X969261D01*
Y-162966D01*
Y-162679D01*
X968975D01*
Y-162393D01*
Y-162107D01*
X968689D01*
Y-161820D01*
Y-161534D01*
X968402D01*
Y-161248D01*
Y-160961D01*
X968116D01*
Y-160675D01*
Y-160389D01*
X967830D01*
Y-160102D01*
X967544D01*
Y-159816D01*
Y-159530D01*
X967257D01*
Y-159244D01*
Y-158957D01*
X966971D01*
Y-158671D01*
Y-158385D01*
X966685D01*
Y-158098D01*
Y-157812D01*
X966398D01*
Y-157526D01*
Y-157239D01*
X966112D01*
Y-156953D01*
Y-156667D01*
X965826D01*
Y-156380D01*
X965539D01*
Y-156094D01*
Y-155808D01*
X965253D01*
Y-155521D01*
X981000D01*
Y-155808D01*
X981287D01*
Y-156094D01*
Y-156380D01*
Y-156667D01*
X981573D01*
Y-156953D01*
Y-157239D01*
Y-157526D01*
X981859D01*
Y-157812D01*
Y-158098D01*
Y-158385D01*
X982146D01*
Y-158671D01*
Y-158957D01*
Y-159244D01*
X982432D01*
Y-159530D01*
Y-159816D01*
Y-160102D01*
X982718D01*
Y-160389D01*
Y-160675D01*
Y-160961D01*
X983004D01*
Y-161248D01*
Y-161534D01*
Y-161820D01*
X983291D01*
Y-162107D01*
Y-162393D01*
Y-162679D01*
X983577D01*
Y-162966D01*
Y-163252D01*
Y-163538D01*
Y-163824D01*
X984150D01*
Y-163538D01*
X984436D01*
Y-163252D01*
X984722D01*
Y-162966D01*
Y-162679D01*
X985009D01*
Y-162393D01*
X985295D01*
Y-162107D01*
Y-161820D01*
X985581D01*
Y-161534D01*
X985868D01*
Y-161248D01*
Y-160961D01*
X986154D01*
Y-160675D01*
X986440D01*
Y-160389D01*
Y-160102D01*
X986726D01*
Y-159816D01*
X987013D01*
Y-159530D01*
Y-159244D01*
X987299D01*
Y-158957D01*
X987585D01*
Y-158671D01*
Y-158385D01*
X987872D01*
Y-158098D01*
X988158D01*
Y-157812D01*
Y-157526D01*
X988444D01*
Y-157239D01*
X988731D01*
Y-156953D01*
Y-156667D01*
X989017D01*
Y-156380D01*
X989303D01*
Y-156094D01*
Y-155808D01*
X989590D01*
Y-155521D01*
X1005337D01*
Y-155808D01*
D02*
G37*
G36*
X961245D02*
Y-156094D01*
Y-156380D01*
Y-156667D01*
Y-156953D01*
Y-157239D01*
Y-157526D01*
Y-157812D01*
Y-158098D01*
Y-158385D01*
Y-158671D01*
Y-158957D01*
Y-159244D01*
Y-159530D01*
Y-159816D01*
Y-160102D01*
Y-160389D01*
Y-160675D01*
Y-160961D01*
Y-161248D01*
Y-161534D01*
X960958D01*
Y-161820D01*
Y-162107D01*
Y-162393D01*
Y-162679D01*
Y-162966D01*
X960672D01*
Y-163252D01*
Y-163538D01*
Y-163824D01*
Y-164111D01*
X960386D01*
Y-164397D01*
Y-164683D01*
Y-164970D01*
Y-165256D01*
X960099D01*
Y-165542D01*
Y-165829D01*
Y-166115D01*
X959813D01*
Y-166401D01*
Y-166688D01*
Y-166974D01*
X959527D01*
Y-167260D01*
Y-167547D01*
Y-167833D01*
X959241D01*
Y-168119D01*
Y-168405D01*
Y-168692D01*
X958954D01*
Y-168978D01*
Y-169264D01*
X958668D01*
Y-169551D01*
Y-169837D01*
X958381D01*
Y-170123D01*
Y-170410D01*
Y-170696D01*
X958095D01*
Y-170982D01*
Y-171269D01*
X957809D01*
Y-171555D01*
Y-171841D01*
Y-172127D01*
X957523D01*
Y-172414D01*
Y-172700D01*
X957236D01*
Y-172986D01*
Y-173273D01*
Y-173559D01*
X956950D01*
Y-173845D01*
Y-174132D01*
X956664D01*
Y-174418D01*
Y-174704D01*
Y-174991D01*
X956377D01*
Y-175277D01*
Y-175563D01*
X956091D01*
Y-175850D01*
Y-176136D01*
Y-176422D01*
X955805D01*
Y-176709D01*
Y-176995D01*
X955518D01*
Y-177281D01*
Y-177568D01*
Y-177854D01*
X955232D01*
Y-178140D01*
Y-178426D01*
X954946D01*
Y-178713D01*
Y-178999D01*
Y-179285D01*
X954659D01*
Y-179572D01*
Y-179858D01*
X954373D01*
Y-180144D01*
Y-180431D01*
Y-180717D01*
X954087D01*
Y-181003D01*
Y-181290D01*
X953800D01*
Y-181576D01*
Y-181862D01*
Y-182149D01*
X953514D01*
Y-182435D01*
Y-182721D01*
X953228D01*
Y-183007D01*
Y-183294D01*
Y-183580D01*
X952942D01*
Y-183866D01*
Y-184153D01*
X952655D01*
Y-184439D01*
Y-184725D01*
Y-185012D01*
X952369D01*
Y-185298D01*
Y-185584D01*
X952083D01*
Y-185871D01*
Y-186157D01*
Y-186443D01*
X951796D01*
Y-186730D01*
Y-187016D01*
X951510D01*
Y-187302D01*
Y-187588D01*
Y-187875D01*
X951224D01*
Y-188161D01*
Y-188447D01*
X950937D01*
Y-188734D01*
Y-189020D01*
Y-189306D01*
X950651D01*
Y-189593D01*
Y-189879D01*
X950365D01*
Y-190165D01*
Y-190452D01*
Y-190738D01*
X950078D01*
Y-191024D01*
Y-191311D01*
X949792D01*
Y-191597D01*
Y-191883D01*
Y-192169D01*
X949506D01*
Y-192456D01*
Y-192742D01*
X949220D01*
Y-193028D01*
Y-193315D01*
X948933D01*
Y-193601D01*
Y-193887D01*
X948647D01*
Y-194174D01*
Y-194460D01*
Y-194746D01*
X948361D01*
Y-195033D01*
X948074D01*
Y-195319D01*
Y-195605D01*
Y-195891D01*
X947788D01*
Y-196178D01*
X947502D01*
Y-196464D01*
Y-196750D01*
X947215D01*
Y-197037D01*
Y-197323D01*
X946929D01*
Y-197609D01*
Y-197896D01*
X946643D01*
Y-198182D01*
Y-198468D01*
X946356D01*
Y-198755D01*
X946070D01*
Y-199041D01*
Y-199327D01*
X945784D01*
Y-199614D01*
Y-199900D01*
X945497D01*
Y-200186D01*
X945211D01*
Y-200472D01*
X944925D01*
Y-200759D01*
Y-201045D01*
X944639D01*
Y-201331D01*
X944352D01*
Y-201618D01*
Y-201904D01*
X944066D01*
Y-202190D01*
X943780D01*
Y-202477D01*
X943493D01*
Y-202763D01*
Y-203049D01*
X943207D01*
Y-203336D01*
X942921D01*
Y-203622D01*
X942634D01*
Y-203908D01*
X942348D01*
Y-204195D01*
X942062D01*
Y-204481D01*
Y-204767D01*
X941775D01*
Y-205053D01*
X941489D01*
Y-205340D01*
X941203D01*
Y-205626D01*
X940916D01*
Y-205912D01*
X940630D01*
Y-206199D01*
X940344D01*
Y-206485D01*
X940057D01*
Y-206771D01*
X939485D01*
Y-207058D01*
X939199D01*
Y-207344D01*
X938912D01*
Y-207630D01*
X938626D01*
Y-207917D01*
X938340D01*
Y-208203D01*
X937767D01*
Y-208489D01*
X937481D01*
Y-208776D01*
X936908D01*
Y-209062D01*
X936622D01*
Y-209348D01*
X936049D01*
Y-209634D01*
X935763D01*
Y-209921D01*
X935190D01*
Y-210207D01*
X934618D01*
Y-210493D01*
X934045D01*
Y-210780D01*
X933472D01*
Y-211066D01*
X932900D01*
Y-211352D01*
X932041D01*
Y-211639D01*
X931468D01*
Y-211925D01*
X930609D01*
Y-212211D01*
X929464D01*
Y-212498D01*
X928319D01*
Y-212784D01*
X926601D01*
Y-213070D01*
X924597D01*
Y-213357D01*
X924310D01*
Y-213070D01*
Y-212784D01*
Y-212498D01*
Y-212211D01*
Y-211925D01*
Y-211639D01*
Y-211352D01*
Y-211066D01*
Y-210780D01*
Y-210493D01*
Y-210207D01*
Y-209921D01*
Y-209634D01*
Y-209348D01*
Y-209062D01*
Y-208776D01*
Y-208489D01*
Y-208203D01*
Y-207917D01*
Y-207630D01*
Y-207344D01*
Y-207058D01*
Y-206771D01*
Y-206485D01*
Y-206199D01*
Y-205912D01*
Y-205626D01*
Y-205340D01*
Y-205053D01*
Y-204767D01*
Y-204481D01*
Y-204195D01*
Y-203908D01*
X924883D01*
Y-203622D01*
X925455D01*
Y-203336D01*
X926028D01*
Y-203049D01*
X926601D01*
Y-202763D01*
X927173D01*
Y-202477D01*
X927746D01*
Y-202190D01*
X928032D01*
Y-201904D01*
X928605D01*
Y-201618D01*
X928891D01*
Y-201331D01*
X929464D01*
Y-201045D01*
X929750D01*
Y-200759D01*
X930037D01*
Y-200472D01*
X930609D01*
Y-200186D01*
X930896D01*
Y-199900D01*
X931182D01*
Y-199614D01*
X931468D01*
Y-199327D01*
X931754D01*
Y-199041D01*
X932041D01*
Y-198755D01*
X932327D01*
Y-198468D01*
X932613D01*
Y-198182D01*
X932900D01*
Y-197896D01*
X933186D01*
Y-197609D01*
X933472D01*
Y-197323D01*
X933759D01*
Y-197037D01*
Y-196750D01*
X934045D01*
Y-196464D01*
X934331D01*
Y-196178D01*
X934618D01*
Y-195891D01*
Y-195605D01*
X934904D01*
Y-195319D01*
X935190D01*
Y-195033D01*
Y-194746D01*
X935476D01*
Y-194460D01*
Y-194174D01*
X935763D01*
Y-193887D01*
X936049D01*
Y-193601D01*
Y-193315D01*
X936335D01*
Y-193028D01*
Y-192742D01*
X936622D01*
Y-192456D01*
Y-192169D01*
X934904D01*
Y-191883D01*
X932900D01*
Y-191597D01*
X931754D01*
Y-191311D01*
X931182D01*
Y-191024D01*
X930323D01*
Y-190738D01*
X929750D01*
Y-190452D01*
X929464D01*
Y-190165D01*
X928891D01*
Y-189879D01*
X928605D01*
Y-189593D01*
X928319D01*
Y-189306D01*
X928032D01*
Y-189020D01*
X927746D01*
Y-188734D01*
X927460D01*
Y-188447D01*
Y-188161D01*
X927173D01*
Y-187875D01*
X926887D01*
Y-187588D01*
Y-187302D01*
X926601D01*
Y-187016D01*
Y-186730D01*
X926315D01*
Y-186443D01*
Y-186157D01*
X926028D01*
Y-185871D01*
Y-185584D01*
Y-185298D01*
X925742D01*
Y-185012D01*
Y-184725D01*
Y-184439D01*
Y-184153D01*
X925455D01*
Y-183866D01*
Y-183580D01*
Y-183294D01*
Y-183007D01*
Y-182721D01*
Y-182435D01*
Y-182149D01*
X925169D01*
Y-181862D01*
Y-181576D01*
Y-181290D01*
Y-181003D01*
Y-180717D01*
Y-180431D01*
Y-180144D01*
Y-179858D01*
Y-179572D01*
Y-179285D01*
Y-178999D01*
Y-178713D01*
Y-178426D01*
Y-178140D01*
Y-177854D01*
X924883D01*
Y-177568D01*
Y-177281D01*
Y-176995D01*
Y-176709D01*
Y-176422D01*
Y-176136D01*
Y-175850D01*
Y-175563D01*
Y-175277D01*
Y-174991D01*
Y-174704D01*
Y-174418D01*
Y-174132D01*
Y-173845D01*
Y-173559D01*
X924597D01*
Y-173273D01*
Y-172986D01*
Y-172700D01*
Y-172414D01*
Y-172127D01*
Y-171841D01*
Y-171555D01*
Y-171269D01*
Y-170982D01*
Y-170696D01*
Y-170410D01*
Y-170123D01*
Y-169837D01*
Y-169551D01*
Y-169264D01*
Y-168978D01*
X924310D01*
Y-168692D01*
Y-168405D01*
Y-168119D01*
Y-167833D01*
Y-167547D01*
Y-167260D01*
Y-166974D01*
Y-166688D01*
Y-166401D01*
Y-166115D01*
Y-165829D01*
Y-165542D01*
Y-165256D01*
Y-164970D01*
Y-164683D01*
Y-164397D01*
X924024D01*
Y-164111D01*
Y-163824D01*
Y-163538D01*
Y-163252D01*
Y-162966D01*
Y-162679D01*
Y-162393D01*
Y-162107D01*
Y-161820D01*
Y-161534D01*
Y-161248D01*
Y-160961D01*
Y-160675D01*
Y-160389D01*
X923738D01*
Y-160102D01*
Y-159816D01*
Y-159530D01*
Y-159244D01*
Y-158957D01*
Y-158671D01*
Y-158385D01*
Y-158098D01*
Y-157812D01*
Y-157526D01*
Y-157239D01*
Y-156953D01*
Y-156667D01*
Y-156380D01*
Y-156094D01*
Y-155808D01*
X923451D01*
Y-155521D01*
X937194D01*
Y-155808D01*
Y-156094D01*
Y-156380D01*
Y-156667D01*
Y-156953D01*
Y-157239D01*
Y-157526D01*
Y-157812D01*
Y-158098D01*
Y-158385D01*
Y-158671D01*
Y-158957D01*
Y-159244D01*
Y-159530D01*
X937481D01*
Y-159816D01*
Y-160102D01*
Y-160389D01*
Y-160675D01*
Y-160961D01*
Y-161248D01*
Y-161534D01*
Y-161820D01*
Y-162107D01*
Y-162393D01*
Y-162679D01*
Y-162966D01*
Y-163252D01*
Y-163538D01*
Y-163824D01*
Y-164111D01*
Y-164397D01*
Y-164683D01*
Y-164970D01*
Y-165256D01*
Y-165542D01*
Y-165829D01*
Y-166115D01*
Y-166401D01*
Y-166688D01*
Y-166974D01*
Y-167260D01*
Y-167547D01*
Y-167833D01*
Y-168119D01*
Y-168405D01*
Y-168692D01*
Y-168978D01*
Y-169264D01*
Y-169551D01*
Y-169837D01*
Y-170123D01*
Y-170410D01*
Y-170696D01*
Y-170982D01*
Y-171269D01*
X937767D01*
Y-171555D01*
X937481D01*
Y-171841D01*
Y-172127D01*
X937767D01*
Y-172414D01*
Y-172700D01*
Y-172986D01*
Y-173273D01*
Y-173559D01*
Y-173845D01*
Y-174132D01*
Y-174418D01*
Y-174704D01*
Y-174991D01*
Y-175277D01*
Y-175563D01*
Y-175850D01*
Y-176136D01*
Y-176422D01*
Y-176709D01*
Y-176995D01*
Y-177281D01*
Y-177568D01*
Y-177854D01*
Y-178140D01*
Y-178426D01*
Y-178713D01*
Y-178999D01*
Y-179285D01*
Y-179572D01*
X938053D01*
Y-179858D01*
Y-180144D01*
Y-180431D01*
X938340D01*
Y-180717D01*
X938626D01*
Y-181003D01*
X938912D01*
Y-181290D01*
X939771D01*
Y-181576D01*
X940630D01*
Y-181290D01*
X940916D01*
Y-181003D01*
Y-180717D01*
Y-180431D01*
X941203D01*
Y-180144D01*
Y-179858D01*
X941489D01*
Y-179572D01*
Y-179285D01*
Y-178999D01*
X941775D01*
Y-178713D01*
Y-178426D01*
Y-178140D01*
X942062D01*
Y-177854D01*
Y-177568D01*
Y-177281D01*
X942348D01*
Y-176995D01*
Y-176709D01*
Y-176422D01*
X942634D01*
Y-176136D01*
Y-175850D01*
X942921D01*
Y-175563D01*
Y-175277D01*
Y-174991D01*
X943207D01*
Y-174704D01*
Y-174418D01*
Y-174132D01*
X943493D01*
Y-173845D01*
Y-173559D01*
Y-173273D01*
X943780D01*
Y-172986D01*
Y-172700D01*
X944066D01*
Y-172414D01*
Y-172127D01*
Y-171841D01*
X944352D01*
Y-171555D01*
Y-171269D01*
Y-170982D01*
X944639D01*
Y-170696D01*
Y-170410D01*
Y-170123D01*
X944925D01*
Y-169837D01*
Y-169551D01*
X945211D01*
Y-169264D01*
Y-168978D01*
Y-168692D01*
X945497D01*
Y-168405D01*
Y-168119D01*
Y-167833D01*
X945784D01*
Y-167547D01*
Y-167260D01*
Y-166974D01*
X946070D01*
Y-166688D01*
Y-166401D01*
X946356D01*
Y-166115D01*
Y-165829D01*
Y-165542D01*
X946643D01*
Y-165256D01*
Y-164970D01*
Y-164683D01*
X946929D01*
Y-164397D01*
Y-164111D01*
Y-163824D01*
X947215D01*
Y-163538D01*
Y-163252D01*
Y-162966D01*
Y-162679D01*
X947502D01*
Y-162393D01*
Y-162107D01*
Y-161820D01*
Y-161534D01*
X947788D01*
Y-161248D01*
Y-160961D01*
Y-160675D01*
Y-160389D01*
Y-160102D01*
X948074D01*
Y-159816D01*
Y-159530D01*
Y-159244D01*
Y-158957D01*
Y-158671D01*
Y-158385D01*
X948361D01*
Y-158098D01*
Y-157812D01*
Y-157526D01*
Y-157239D01*
Y-156953D01*
Y-156667D01*
Y-156380D01*
Y-156094D01*
Y-155808D01*
Y-155521D01*
X961245D01*
Y-155808D01*
D02*
G37*
%LPC*%
G36*
X867907Y-152658D02*
X859890D01*
Y-152945D01*
Y-153231D01*
Y-153517D01*
Y-153804D01*
Y-154090D01*
X859604D01*
Y-154376D01*
Y-154663D01*
Y-154949D01*
Y-155235D01*
Y-155521D01*
Y-155808D01*
X859317D01*
Y-156094D01*
Y-156380D01*
Y-156667D01*
Y-156953D01*
Y-157239D01*
Y-157526D01*
X859031D01*
Y-157812D01*
Y-158098D01*
Y-158385D01*
Y-158671D01*
Y-158957D01*
Y-159244D01*
X858745D01*
Y-159530D01*
Y-159816D01*
Y-160102D01*
Y-160389D01*
Y-160675D01*
Y-160961D01*
Y-161248D01*
X858458D01*
Y-161534D01*
Y-161820D01*
Y-162107D01*
Y-162393D01*
Y-162679D01*
Y-162966D01*
X858172D01*
Y-163252D01*
Y-163538D01*
Y-163824D01*
X865330D01*
Y-163538D01*
X866475D01*
Y-163252D01*
X867048D01*
Y-162966D01*
X867334D01*
Y-162679D01*
X867620D01*
Y-162393D01*
X867907D01*
Y-162107D01*
X868193D01*
Y-161820D01*
Y-161534D01*
X868479D01*
Y-161248D01*
Y-160961D01*
X868766D01*
Y-160675D01*
Y-160389D01*
X869052D01*
Y-160102D01*
Y-159816D01*
Y-159530D01*
Y-159244D01*
X869338D01*
Y-158957D01*
Y-158671D01*
Y-158385D01*
Y-158098D01*
Y-157812D01*
X869625D01*
Y-157526D01*
Y-157239D01*
Y-156953D01*
Y-156667D01*
Y-156380D01*
Y-156094D01*
Y-155808D01*
Y-155521D01*
Y-155235D01*
Y-154949D01*
Y-154663D01*
X869338D01*
Y-154376D01*
Y-154090D01*
X869052D01*
Y-153804D01*
Y-153517D01*
X868766D01*
Y-153231D01*
X868479D01*
Y-152945D01*
X867907D01*
Y-152658D01*
D02*
G37*
%LPD*%
D10*
X846071Y-247293D02*
Y-263036D01*
X851318Y-257788D01*
X856566Y-263036D01*
Y-247293D01*
X861814Y-263036D02*
X867061D01*
X864437D01*
Y-252540D01*
X861814D01*
X874933Y-263036D02*
Y-252540D01*
X877556D01*
X880180Y-255164D01*
Y-263036D01*
Y-255164D01*
X882804Y-252540D01*
X885428Y-255164D01*
Y-263036D01*
X890676Y-247293D02*
Y-257788D01*
X895923Y-263036D01*
X901171Y-257788D01*
Y-247293D01*
X916914Y-249917D02*
X914290Y-247293D01*
X909042D01*
X906419Y-249917D01*
Y-260412D01*
X909042Y-263036D01*
X914290D01*
X916914Y-260412D01*
Y-255164D01*
X911666D01*
X1200401Y-210546D02*
X1203025Y-207923D01*
X1208273D01*
X1210897Y-210546D01*
Y-221042D01*
X1208273Y-223665D01*
X1203025D01*
X1200401Y-221042D01*
Y-210546D01*
X1226639Y-223665D02*
X1216144D01*
X1226639Y-213170D01*
Y-210546D01*
X1224016Y-207923D01*
X1218768D01*
X1216144Y-210546D01*
X1037015Y-212186D02*
X1039311Y-209890D01*
X1043903D01*
X1046199Y-212186D01*
Y-221370D01*
X1043903Y-223665D01*
X1039311D01*
X1037015Y-221370D01*
Y-212186D01*
X1059974Y-209890D02*
X1055382Y-212186D01*
X1050791Y-216778D01*
Y-221370D01*
X1053086Y-223665D01*
X1057678D01*
X1059974Y-221370D01*
Y-219074D01*
X1057678Y-216778D01*
X1050791D01*
X1064566Y-223665D02*
X1073749Y-214482D01*
X1078341Y-212186D02*
X1080637Y-209890D01*
X1085228D01*
X1087524Y-212186D01*
Y-221370D01*
X1085228Y-223665D01*
X1080637D01*
X1078341Y-221370D01*
Y-212186D01*
X1101299Y-209890D02*
X1096707Y-212186D01*
X1092116Y-216778D01*
Y-221370D01*
X1094412Y-223665D01*
X1099003D01*
X1101299Y-221370D01*
Y-219074D01*
X1099003Y-216778D01*
X1092116D01*
X1105891Y-223665D02*
X1115074Y-214482D01*
X1128849Y-223665D02*
X1119666D01*
X1128849Y-214482D01*
Y-212186D01*
X1126553Y-209890D01*
X1121962D01*
X1119666Y-212186D01*
X1133441D02*
X1135737Y-209890D01*
X1140329D01*
X1142624Y-212186D01*
Y-221370D01*
X1140329Y-223665D01*
X1135737D01*
X1133441Y-221370D01*
Y-212186D01*
X1156400Y-223665D02*
X1147216D01*
X1156400Y-214482D01*
Y-212186D01*
X1154104Y-209890D01*
X1149512D01*
X1147216Y-212186D01*
X1170175Y-223665D02*
X1160991D01*
X1170175Y-214482D01*
Y-212186D01*
X1167879Y-209890D01*
X1163287D01*
X1160991Y-212186D01*
X1039506Y-132331D02*
X1031110D01*
Y-138628D01*
X1035308D01*
X1031110D01*
Y-144925D01*
X1043704Y-136529D02*
Y-144925D01*
Y-140727D01*
X1045803Y-138628D01*
X1047902Y-136529D01*
X1050002D01*
X1056299Y-144925D02*
X1060497D01*
X1058398D01*
Y-136529D01*
X1056299D01*
X1066794Y-134430D02*
X1068893Y-132331D01*
X1073091D01*
X1075190Y-134430D01*
Y-136529D01*
X1073091Y-138628D01*
X1070992D01*
X1073091D01*
X1075190Y-140727D01*
Y-142826D01*
X1073091Y-144925D01*
X1068893D01*
X1066794Y-142826D01*
X1079388Y-132331D02*
Y-144925D01*
X1085686D01*
X1087784Y-142826D01*
Y-134430D01*
X1085686Y-132331D01*
X1079388D01*
X1112973Y-144925D02*
X1104577D01*
X1112973Y-136529D01*
Y-134430D01*
X1110874Y-132331D01*
X1106676D01*
X1104577Y-134430D01*
X1117171D02*
X1119270Y-132331D01*
X1123469D01*
X1125568Y-134430D01*
Y-142826D01*
X1123469Y-144925D01*
X1119270D01*
X1117171Y-142826D01*
Y-134430D01*
X1138162Y-144925D02*
X1129766D01*
X1138162Y-136529D01*
Y-134430D01*
X1136063Y-132331D01*
X1131865D01*
X1129766Y-134430D01*
X1150756Y-144925D02*
X1142360D01*
X1150756Y-136529D01*
Y-134430D01*
X1148657Y-132331D01*
X1144459D01*
X1142360Y-134430D01*
X1175945D02*
X1173846Y-132331D01*
X1169648D01*
X1167549Y-134430D01*
Y-142826D01*
X1169648Y-144925D01*
X1173846D01*
X1175945Y-142826D01*
Y-138628D01*
X1171747D01*
X1182242Y-136529D02*
X1186440D01*
X1188539Y-138628D01*
Y-144925D01*
X1182242D01*
X1180143Y-142826D01*
X1182242Y-140727D01*
X1188539D01*
X1192737Y-144925D02*
Y-136529D01*
X1194837D01*
X1196936Y-138628D01*
Y-144925D01*
Y-138628D01*
X1199035Y-136529D01*
X1201134Y-138628D01*
Y-144925D01*
X1211629D02*
X1207431D01*
X1205332Y-142826D01*
Y-138628D01*
X1207431Y-136529D01*
X1211629D01*
X1213728Y-138628D01*
Y-140727D01*
X1205332D01*
X1224223Y-132331D02*
X1220025D01*
X1217926Y-134430D01*
Y-142826D01*
X1220025Y-144925D01*
X1224223D01*
X1226322Y-142826D01*
Y-134430D01*
X1224223Y-132331D01*
X1230521Y-144925D02*
Y-136529D01*
X1236818D01*
X1238917Y-138628D01*
Y-144925D01*
X1042921Y-168552D02*
Y-182327D01*
X1049809D01*
X1052104Y-180031D01*
Y-170848D01*
X1049809Y-168552D01*
X1042921D01*
X1056696Y-173144D02*
Y-182327D01*
Y-177735D01*
X1058992Y-175439D01*
X1061288Y-173144D01*
X1063584D01*
X1070471Y-182327D02*
X1075063D01*
X1072767D01*
Y-173144D01*
X1070471D01*
X1081950Y-182327D02*
X1086542D01*
X1084246D01*
Y-168552D01*
X1081950D01*
X1093430Y-182327D02*
X1098021D01*
X1095725D01*
Y-168552D01*
X1093430D01*
X1127867Y-170848D02*
X1125571Y-168552D01*
X1120980D01*
X1118684Y-170848D01*
Y-180031D01*
X1120980Y-182327D01*
X1125571D01*
X1127867Y-180031D01*
Y-175439D01*
X1123276D01*
X1132459Y-173144D02*
Y-180031D01*
X1134755Y-182327D01*
X1141642D01*
Y-173144D01*
X1146234Y-182327D02*
X1150826D01*
X1148530D01*
Y-173144D01*
X1146234D01*
X1166897Y-168552D02*
Y-182327D01*
X1160009D01*
X1157713Y-180031D01*
Y-175439D01*
X1160009Y-173144D01*
X1166897D01*
X1178376Y-182327D02*
X1173784D01*
X1171488Y-180031D01*
Y-175439D01*
X1173784Y-173144D01*
X1178376D01*
X1180672Y-175439D01*
Y-177735D01*
X1171488D01*
D14*
X1182685Y-202012D02*
Y-194141D01*
X1186621D01*
X1187932Y-195452D01*
Y-198076D01*
X1186621Y-199388D01*
X1182685D01*
X1185308D02*
X1187932Y-202012D01*
X1194492D02*
X1191868D01*
X1190556Y-200700D01*
Y-198076D01*
X1191868Y-196764D01*
X1194492D01*
X1195804Y-198076D01*
Y-199388D01*
X1190556D01*
X1198428Y-196764D02*
X1201052Y-202012D01*
X1203675Y-196764D01*
X828354Y-233511D02*
Y-241382D01*
X832290D01*
X833602Y-240070D01*
Y-234823D01*
X832290Y-233511D01*
X828354D01*
X840161Y-241382D02*
X837537D01*
X836226Y-240070D01*
Y-237446D01*
X837537Y-236134D01*
X840161D01*
X841473Y-237446D01*
Y-238758D01*
X836226D01*
X844097Y-241382D02*
X848033D01*
X849345Y-240070D01*
X848033Y-238758D01*
X845409D01*
X844097Y-237446D01*
X845409Y-236134D01*
X849345D01*
X854592Y-244006D02*
X855904D01*
X857216Y-242694D01*
Y-236134D01*
X853280D01*
X851968Y-237446D01*
Y-240070D01*
X853280Y-241382D01*
X857216D01*
X859840D02*
X862464D01*
X861152D01*
Y-236134D01*
X859840D01*
X866399Y-241382D02*
Y-236134D01*
X870335D01*
X871647Y-237446D01*
Y-241382D01*
X878207D02*
X875583D01*
X874271Y-240070D01*
Y-237446D01*
X875583Y-236134D01*
X878207D01*
X879519Y-237446D01*
Y-238758D01*
X874271D01*
X882143Y-236134D02*
Y-241382D01*
Y-238758D01*
X883454Y-237446D01*
X884766Y-236134D01*
X886078D01*
X1025204Y-115400D02*
Y-123272D01*
X1029140D01*
X1030452Y-121960D01*
Y-116712D01*
X1029140Y-115400D01*
X1025204D01*
X1034388Y-123272D02*
X1037012D01*
X1038323Y-121960D01*
Y-119336D01*
X1037012Y-118024D01*
X1034388D01*
X1033076Y-119336D01*
Y-121960D01*
X1034388Y-123272D01*
X1046195Y-118024D02*
X1042259D01*
X1040947Y-119336D01*
Y-121960D01*
X1042259Y-123272D01*
X1046195D01*
X1048819Y-118024D02*
Y-121960D01*
X1050131Y-123272D01*
X1054066D01*
Y-118024D01*
X1056690Y-123272D02*
Y-118024D01*
X1058002D01*
X1059314Y-119336D01*
Y-123272D01*
Y-119336D01*
X1060626Y-118024D01*
X1061938Y-119336D01*
Y-123272D01*
X1068498D02*
X1065874D01*
X1064562Y-121960D01*
Y-119336D01*
X1065874Y-118024D01*
X1068498D01*
X1069810Y-119336D01*
Y-120648D01*
X1064562D01*
X1072433Y-123272D02*
Y-118024D01*
X1076369D01*
X1077681Y-119336D01*
Y-123272D01*
X1081617Y-116712D02*
Y-118024D01*
X1080305D01*
X1082929D01*
X1081617D01*
Y-121960D01*
X1082929Y-123272D01*
X1025204Y-154770D02*
Y-162642D01*
X1030452D01*
X1034388Y-157394D02*
X1037012D01*
X1038323Y-158706D01*
Y-162642D01*
X1034388D01*
X1033076Y-161330D01*
X1034388Y-160018D01*
X1038323D01*
X1040947Y-157394D02*
Y-161330D01*
X1042259Y-162642D01*
X1046195D01*
Y-163954D01*
X1044883Y-165266D01*
X1043571D01*
X1046195Y-162642D02*
Y-157394D01*
X1052755Y-162642D02*
X1050131D01*
X1048819Y-161330D01*
Y-158706D01*
X1050131Y-157394D01*
X1052755D01*
X1054066Y-158706D01*
Y-160018D01*
X1048819D01*
X1056690Y-157394D02*
Y-162642D01*
Y-160018D01*
X1058002Y-158706D01*
X1059314Y-157394D01*
X1060626D01*
X1072433Y-162642D02*
Y-154770D01*
X1077681Y-162642D01*
Y-154770D01*
X1081617Y-157394D02*
X1084241D01*
X1085552Y-158706D01*
Y-162642D01*
X1081617D01*
X1080305Y-161330D01*
X1081617Y-160018D01*
X1085552D01*
X1088176Y-162642D02*
Y-157394D01*
X1089488D01*
X1090800Y-158706D01*
Y-162642D01*
Y-158706D01*
X1092112Y-157394D01*
X1093424Y-158706D01*
Y-162642D01*
X1099984D02*
X1097360D01*
X1096048Y-161330D01*
Y-158706D01*
X1097360Y-157394D01*
X1099984D01*
X1101295Y-158706D01*
Y-160018D01*
X1096048D01*
X1025204Y-194141D02*
Y-202012D01*
X1029140D01*
X1030452Y-200700D01*
Y-195452D01*
X1029140Y-194141D01*
X1025204D01*
X1034388Y-196764D02*
X1037012D01*
X1038323Y-198076D01*
Y-202012D01*
X1034388D01*
X1033076Y-200700D01*
X1034388Y-199388D01*
X1038323D01*
X1042259Y-195452D02*
Y-196764D01*
X1040947D01*
X1043571D01*
X1042259D01*
Y-200700D01*
X1043571Y-202012D01*
X1051443D02*
X1048819D01*
X1047507Y-200700D01*
Y-198076D01*
X1048819Y-196764D01*
X1051443D01*
X1052755Y-198076D01*
Y-199388D01*
X1047507D01*
X1025204Y-233511D02*
Y-241382D01*
X1029140D01*
X1030452Y-240070D01*
Y-234823D01*
X1029140Y-233511D01*
X1025204D01*
X1034388Y-241382D02*
X1037012D01*
X1038323Y-240070D01*
Y-237446D01*
X1037012Y-236134D01*
X1034388D01*
X1033076Y-237446D01*
Y-240070D01*
X1034388Y-241382D01*
X1046195Y-236134D02*
X1042259D01*
X1040947Y-237446D01*
Y-240070D01*
X1042259Y-241382D01*
X1046195D01*
X1048819Y-236134D02*
Y-240070D01*
X1050131Y-241382D01*
X1054066D01*
Y-236134D01*
X1056690Y-241382D02*
Y-236134D01*
X1058002D01*
X1059314Y-237446D01*
Y-241382D01*
Y-237446D01*
X1060626Y-236134D01*
X1061938Y-237446D01*
Y-241382D01*
X1068498D02*
X1065874D01*
X1064562Y-240070D01*
Y-237446D01*
X1065874Y-236134D01*
X1068498D01*
X1069810Y-237446D01*
Y-238758D01*
X1064562D01*
X1072433Y-241382D02*
Y-236134D01*
X1076369D01*
X1077681Y-237446D01*
Y-241382D01*
X1081617Y-234823D02*
Y-236134D01*
X1080305D01*
X1082929D01*
X1081617D01*
Y-240070D01*
X1082929Y-241382D01*
D25*
X19685Y196850D02*
G03*
X0Y177165I-0J-19685D01*
G01*
X354331D02*
G03*
X334646Y196850I-19685J0D01*
G01*
Y0D02*
G03*
X354331Y19685I-0J19685D01*
G01*
X0Y19685D02*
G03*
X19685Y0I19685J0D01*
G01*
X334646D01*
X354331Y19685D02*
Y177165D01*
X19685Y196850D02*
X334646D01*
X0Y19685D02*
Y177165D01*
X381890Y196850D02*
G03*
X362205Y177165I-0J-19685D01*
G01*
X716535D02*
G03*
X696850Y196850I-19685J0D01*
G01*
Y0D02*
G03*
X716535Y19685I-0J19685D01*
G01*
X362205Y19685D02*
G03*
X381890Y0I19685J0D01*
G01*
X696850D01*
X716535Y19685D02*
Y177165D01*
X381890Y196850D02*
X696850D01*
X362205Y19685D02*
Y177165D01*
X19685Y401575D02*
G03*
X0Y381890I-0J-19685D01*
G01*
X354331D02*
G03*
X334646Y401575I-19685J0D01*
G01*
Y204724D02*
G03*
X354331Y224410I-0J19685D01*
G01*
X0Y224410D02*
G03*
X19685Y204724I19685J0D01*
G01*
X334646D01*
X354331Y224410D02*
Y381890D01*
X19685Y401575D02*
X334646D01*
X0Y224410D02*
Y381890D01*
X381890Y401575D02*
G03*
X362205Y381890I-0J-19685D01*
G01*
X716535D02*
G03*
X696850Y401575I-19685J0D01*
G01*
Y204724D02*
G03*
X716535Y224410I-0J19685D01*
G01*
X362205Y224410D02*
G03*
X381890Y204724I19685J0D01*
G01*
X696850D01*
X716535Y224410D02*
Y381890D01*
X381890Y401575D02*
X696850D01*
X362205Y224410D02*
Y381890D01*
X19685Y606299D02*
G03*
X0Y586614I-0J-19685D01*
G01*
X354331D02*
G03*
X334646Y606299I-19685J0D01*
G01*
Y409449D02*
G03*
X354331Y429134I-0J19685D01*
G01*
X0Y429134D02*
G03*
X19685Y409449I19685J0D01*
G01*
X334646D01*
X354331Y429134D02*
Y586614D01*
X19685Y606299D02*
X334646D01*
X0Y429134D02*
Y586614D01*
X381890Y606299D02*
G03*
X362205Y586614I-0J-19685D01*
G01*
X716535D02*
G03*
X696850Y606299I-19685J0D01*
G01*
Y409449D02*
G03*
X716535Y429134I-0J19685D01*
G01*
X362205Y429134D02*
G03*
X381890Y409449I19685J0D01*
G01*
X696850D01*
X716535Y429134D02*
Y586614D01*
X381890Y606299D02*
X696850D01*
X362205Y429134D02*
Y586614D01*
D26*
X1178748Y-229571D02*
Y-190201D01*
X1021267Y-150831D02*
X1296858D01*
X1021267Y-190201D02*
X1296858D01*
X824417Y-229571D02*
X1296858D01*
X824417Y-111461D02*
X1296858D01*
X824417Y-268941D02*
Y-111461D01*
X1021267Y-268941D02*
Y-111461D01*
X-356685Y900350D02*
X1296858D01*
Y-268941D02*
Y900350D01*
X-356685Y-268941D02*
Y900350D01*
Y-268941D02*
X1296858D01*
X1035046Y-255164D02*
X1031110D01*
Y-258115D01*
X1033078D01*
X1031110D01*
Y-261067D01*
X1037014Y-257131D02*
Y-261067D01*
Y-259099D01*
X1037998Y-258115D01*
X1038981Y-257131D01*
X1039965D01*
X1042917Y-261067D02*
X1044885D01*
X1043901D01*
Y-257131D01*
X1042917D01*
X1047837Y-256147D02*
X1048821Y-255164D01*
X1050789D01*
X1051772Y-256147D01*
Y-257131D01*
X1050789Y-258115D01*
X1049805D01*
X1050789D01*
X1051772Y-259099D01*
Y-260083D01*
X1050789Y-261067D01*
X1048821D01*
X1047837Y-260083D01*
X1053740Y-255164D02*
Y-261067D01*
X1056692D01*
X1057676Y-260083D01*
Y-256147D01*
X1056692Y-255164D01*
X1053740D01*
X1059644Y-262051D02*
X1063580D01*
X1069483Y-261067D02*
X1065548D01*
X1069483Y-257131D01*
Y-256147D01*
X1068499Y-255164D01*
X1066531D01*
X1065548Y-256147D01*
X1071451D02*
X1072435Y-255164D01*
X1074403D01*
X1075387Y-256147D01*
Y-260083D01*
X1074403Y-261067D01*
X1072435D01*
X1071451Y-260083D01*
Y-256147D01*
X1081291Y-261067D02*
X1077355D01*
X1081291Y-257131D01*
Y-256147D01*
X1080307Y-255164D01*
X1078339D01*
X1077355Y-256147D01*
X1083258D02*
X1084242Y-255164D01*
X1086210D01*
X1087194Y-256147D01*
Y-260083D01*
X1086210Y-261067D01*
X1084242D01*
X1083258Y-260083D01*
Y-256147D01*
X1089162Y-262051D02*
X1093098D01*
X1099001Y-256147D02*
X1098017Y-255164D01*
X1096049D01*
X1095066Y-256147D01*
Y-260083D01*
X1096049Y-261067D01*
X1098017D01*
X1099001Y-260083D01*
Y-258115D01*
X1097034D01*
X1101953Y-257131D02*
X1103921D01*
X1104905Y-258115D01*
Y-261067D01*
X1101953D01*
X1100969Y-260083D01*
X1101953Y-259099D01*
X1104905D01*
X1106873Y-261067D02*
Y-257131D01*
X1107857D01*
X1108841Y-258115D01*
Y-261067D01*
Y-258115D01*
X1109825Y-257131D01*
X1110808Y-258115D01*
Y-261067D01*
X1115728D02*
X1113760D01*
X1112776Y-260083D01*
Y-258115D01*
X1113760Y-257131D01*
X1115728D01*
X1116712Y-258115D01*
Y-259099D01*
X1112776D01*
X1121632Y-255164D02*
X1119664D01*
X1118680Y-256147D01*
Y-260083D01*
X1119664Y-261067D01*
X1121632D01*
X1122616Y-260083D01*
Y-256147D01*
X1121632Y-255164D01*
X1124584Y-261067D02*
Y-257131D01*
X1127535D01*
X1128519Y-258115D01*
Y-261067D01*
X1130487Y-262051D02*
X1134423D01*
X1136391Y-261067D02*
Y-255164D01*
X1139343D01*
X1140326Y-256147D01*
Y-258115D01*
X1139343Y-259099D01*
X1136391D01*
X1143278Y-257131D02*
X1145246D01*
X1146230Y-258115D01*
Y-261067D01*
X1143278D01*
X1142294Y-260083D01*
X1143278Y-259099D01*
X1146230D01*
X1148198Y-261067D02*
Y-257131D01*
X1151150D01*
X1152134Y-258115D01*
Y-261067D01*
X1157053D02*
X1155085D01*
X1154102Y-260083D01*
Y-258115D01*
X1155085Y-257131D01*
X1157053D01*
X1158037Y-258115D01*
Y-259099D01*
X1154102D01*
X1160005Y-261067D02*
X1161973D01*
X1160989D01*
Y-255164D01*
X1160005D01*
X1164925Y-262051D02*
X1168861D01*
X1170829Y-256147D02*
X1171812Y-255164D01*
X1173780D01*
X1174764Y-256147D01*
Y-260083D01*
X1173780Y-261067D01*
X1171812D01*
X1170829Y-260083D01*
Y-256147D01*
X1180668Y-261067D02*
X1176732D01*
X1180668Y-257131D01*
Y-256147D01*
X1179684Y-255164D01*
X1177716D01*
X1176732Y-256147D01*
X1182636Y-261067D02*
Y-260083D01*
X1183620D01*
Y-261067D01*
X1182636D01*
X1187555D02*
Y-255164D01*
X1190507D01*
X1191491Y-256147D01*
Y-258115D01*
X1190507Y-259099D01*
X1187555D01*
X1197395Y-257131D02*
X1194443D01*
X1193459Y-258115D01*
Y-260083D01*
X1194443Y-261067D01*
X1197395D01*
X1199362Y-255164D02*
Y-261067D01*
X1202314D01*
X1203298Y-260083D01*
Y-259099D01*
Y-258115D01*
X1202314Y-257131D01*
X1199362D01*
X1205266Y-255164D02*
Y-261067D01*
X1208218D01*
X1209202Y-260083D01*
Y-256147D01*
X1208218Y-255164D01*
X1205266D01*
X1212154Y-261067D02*
X1214122D01*
X1215106Y-260083D01*
Y-258115D01*
X1214122Y-257131D01*
X1212154D01*
X1211170Y-258115D01*
Y-260083D01*
X1212154Y-261067D01*
X1221009Y-257131D02*
X1218057D01*
X1217073Y-258115D01*
Y-260083D01*
X1218057Y-261067D01*
X1221009D01*
D70*
X68898Y633858D02*
X80709D01*
X74803Y627953D02*
Y639764D01*
X635827Y633858D02*
X647638D01*
X641732Y627953D02*
Y639764D01*
X56102Y40748D02*
X60827D01*
X58465Y38386D02*
Y43110D01*
X96653Y40748D02*
X101378D01*
X99016Y38386D02*
Y43110D01*
X97047Y51772D02*
X100984D01*
X99016Y49803D02*
Y53740D01*
X56496Y51772D02*
X60433D01*
X58465Y49803D02*
Y53740D01*
X96653Y66339D02*
X101378D01*
X99016Y63976D02*
Y68701D01*
X56102Y66339D02*
X60827D01*
X58465Y63976D02*
Y68701D01*
X32480Y176181D02*
X36417D01*
X34449Y174213D02*
Y178150D01*
X37402Y186024D02*
X41339D01*
X39370Y184055D02*
Y187992D01*
X55118Y186024D02*
X59055D01*
X57087Y184055D02*
Y187992D01*
X60039Y176181D02*
X63976D01*
X62008Y174213D02*
Y178150D01*
X290354Y176181D02*
X294291D01*
X292323Y174213D02*
Y178150D01*
X295276Y186024D02*
X299213D01*
X297244Y184055D02*
Y187992D01*
X312992Y186024D02*
X316929D01*
X314961Y184055D02*
Y187992D01*
X317913Y176181D02*
X321850D01*
X319882Y174213D02*
Y178150D01*
X305000Y47244D02*
X308543D01*
X306772Y45472D02*
Y49016D01*
X315000Y47244D02*
X318543D01*
X316772Y45472D02*
Y49016D01*
X325000Y47244D02*
X328543D01*
X326772Y45472D02*
Y49016D01*
X335000Y47244D02*
X338543D01*
X336772Y45472D02*
Y49016D01*
X69882Y184488D02*
X71850D01*
X70866Y183504D02*
Y185473D01*
X282480Y184488D02*
X284449D01*
X283465Y183504D02*
Y185473D01*
X122638Y177953D02*
X129331D01*
X125984Y174606D02*
Y181299D01*
X225000Y177953D02*
X231693D01*
X228346Y174606D02*
Y181299D01*
X280906Y166339D02*
X285236D01*
X283071Y164173D02*
Y168504D01*
X69095Y166339D02*
X73425D01*
X71260Y164173D02*
Y168504D01*
X50394Y99410D02*
X57480D01*
X53937Y95866D02*
Y102953D01*
X5512Y99410D02*
X12598D01*
X9055Y95866D02*
Y102953D01*
X39370Y128937D02*
X43307D01*
X41339Y126969D02*
Y130905D01*
X19685Y128937D02*
X23622D01*
X21654Y126969D02*
Y130905D01*
X29528Y128937D02*
X33465D01*
X31496Y126969D02*
Y130905D01*
X19685Y71850D02*
X23622D01*
X21654Y69882D02*
Y73819D01*
X39370Y71850D02*
X43307D01*
X41339Y69882D02*
Y73819D01*
X334055Y72323D02*
X337992D01*
X336024Y70354D02*
Y74291D01*
X334055Y103740D02*
X337992D01*
X336024Y101772D02*
Y105709D01*
X222638Y68622D02*
X226181D01*
X224410Y66850D02*
Y70394D01*
X222638Y78622D02*
X226181D01*
X224410Y76850D02*
Y80394D01*
X13386Y19685D02*
X25984D01*
X19685Y13386D02*
Y25984D01*
X328346Y19685D02*
X340945D01*
X334646Y13386D02*
Y25984D01*
X328346Y177165D02*
X340945D01*
X334646Y170866D02*
Y183465D01*
X13386Y177165D02*
X25984D01*
X19685Y170866D02*
Y183465D01*
X264425Y68118D02*
X268756D01*
X266590Y65953D02*
Y70284D01*
X282425Y68118D02*
X286756D01*
X284591Y65953D02*
Y70284D01*
X282425Y42118D02*
X286756D01*
X284591Y39953D02*
Y44284D01*
X264425Y42118D02*
X268756D01*
X266590Y39953D02*
Y44284D01*
X146315Y48433D02*
X150646D01*
X148480Y46268D02*
Y50598D01*
X164315Y48433D02*
X168646D01*
X166480Y46268D02*
Y50598D01*
X164315Y22433D02*
X168646D01*
X166480Y20268D02*
Y24598D01*
X146315Y22433D02*
X150646D01*
X148480Y20268D02*
Y24598D01*
X185685Y48433D02*
X190016D01*
X187850Y46268D02*
Y50598D01*
X203685Y48433D02*
X208016D01*
X205850Y46268D02*
Y50598D01*
X203685Y22433D02*
X208016D01*
X205850Y20268D02*
Y24598D01*
X185685Y22433D02*
X190016D01*
X187850Y20268D02*
Y24598D01*
X225055Y48433D02*
X229386D01*
X227221Y46268D02*
Y50598D01*
X243055Y48433D02*
X247386D01*
X245220Y46268D02*
Y50598D01*
X243055Y22433D02*
X247386D01*
X245220Y20268D02*
Y24598D01*
X225055Y22433D02*
X229386D01*
X227221Y20268D02*
Y24598D01*
X137205Y73622D02*
X138386D01*
X137795Y73032D02*
Y74213D01*
X154528Y83661D02*
X155709D01*
X155118Y83071D02*
Y84252D01*
X85630Y46457D02*
X86811D01*
X86221Y45866D02*
Y47047D01*
X192913Y76673D02*
X194095D01*
X193504Y76083D02*
Y77264D01*
X282874Y154528D02*
X284055D01*
X283465Y153937D02*
Y155118D01*
X70276Y153543D02*
X71457D01*
X70866Y152953D02*
Y154134D01*
X254075Y143110D02*
X255256D01*
X254665Y142520D02*
Y143701D01*
X249075Y143110D02*
X250256D01*
X249665Y142520D02*
Y143701D01*
X200197Y59055D02*
X201378D01*
X200787Y58465D02*
Y59646D01*
X196063Y72047D02*
X197244D01*
X196653Y71457D02*
Y72638D01*
X203150Y59055D02*
X204331D01*
X203740Y58465D02*
Y59646D01*
X166732Y81693D02*
X167913D01*
X167323Y81102D02*
Y82284D01*
X196063Y75197D02*
X197244D01*
X196653Y74606D02*
Y75787D01*
X217717Y72047D02*
X218898D01*
X218307Y71457D02*
Y72638D01*
X217717Y75197D02*
X218898D01*
X218307Y74606D02*
Y75787D01*
X333858Y116732D02*
X335039D01*
X334449Y116142D02*
Y117323D01*
X333858Y128543D02*
X335039D01*
X334449Y127953D02*
Y129134D01*
X290158Y119095D02*
X291339D01*
X290748Y118504D02*
Y119685D01*
X301969Y119095D02*
X303150D01*
X302559Y118504D02*
Y119685D01*
X333858Y66732D02*
X335039D01*
X334449Y66142D02*
Y67323D01*
X333858Y54921D02*
X335039D01*
X334449Y54331D02*
Y55512D01*
X290158Y60433D02*
X291339D01*
X290748Y59842D02*
Y61024D01*
X301969Y60433D02*
X303150D01*
X302559Y59842D02*
Y61024D01*
X299213Y78937D02*
X300394D01*
X299803Y78347D02*
Y79528D01*
X268898Y87008D02*
X270079D01*
X269488Y86417D02*
Y87598D01*
X268898Y90158D02*
X270079D01*
X269488Y89567D02*
Y90748D01*
X418307Y40748D02*
X423032D01*
X420669Y38386D02*
Y43110D01*
X458858Y40748D02*
X463583D01*
X461221Y38386D02*
Y43110D01*
X459252Y51772D02*
X463189D01*
X461221Y49803D02*
Y53740D01*
X418701Y51772D02*
X422638D01*
X420669Y49803D02*
Y53740D01*
X458858Y66339D02*
X463583D01*
X461221Y63976D02*
Y68701D01*
X418307Y66339D02*
X423032D01*
X420669Y63976D02*
Y68701D01*
X394685Y176181D02*
X398622D01*
X396654Y174213D02*
Y178150D01*
X399606Y186024D02*
X403543D01*
X401575Y184055D02*
Y187992D01*
X417323Y186024D02*
X421260D01*
X419291Y184055D02*
Y187992D01*
X422244Y176181D02*
X426181D01*
X424213Y174213D02*
Y178150D01*
X652559Y176181D02*
X656496D01*
X654528Y174213D02*
Y178150D01*
X657480Y186024D02*
X661417D01*
X659449Y184055D02*
Y187992D01*
X675197Y186024D02*
X679134D01*
X677165Y184055D02*
Y187992D01*
X680118Y176181D02*
X684055D01*
X682087Y174213D02*
Y178150D01*
X667205Y47244D02*
X670748D01*
X668976Y45472D02*
Y49016D01*
X677205Y47244D02*
X680748D01*
X678976Y45472D02*
Y49016D01*
X687205Y47244D02*
X690748D01*
X688976Y45472D02*
Y49016D01*
X697205Y47244D02*
X700748D01*
X698976Y45472D02*
Y49016D01*
X432087Y184488D02*
X434055D01*
X433071Y183504D02*
Y185473D01*
X644685Y184488D02*
X646654D01*
X645669Y183504D02*
Y185473D01*
X484842Y177953D02*
X491535D01*
X488189Y174606D02*
Y181299D01*
X587205Y177953D02*
X593898D01*
X590551Y174606D02*
Y181299D01*
X643110Y166339D02*
X647441D01*
X645276Y164173D02*
Y168504D01*
X431299Y166339D02*
X435630D01*
X433465Y164173D02*
Y168504D01*
X412598Y99410D02*
X419685D01*
X416142Y95866D02*
Y102953D01*
X367717Y99410D02*
X374803D01*
X371260Y95866D02*
Y102953D01*
X401575Y128937D02*
X405512D01*
X403543Y126969D02*
Y130905D01*
X381890Y128937D02*
X385827D01*
X383858Y126969D02*
Y130905D01*
X391732Y128937D02*
X395669D01*
X393701Y126969D02*
Y130905D01*
X381890Y71850D02*
X385827D01*
X383858Y69882D02*
Y73819D01*
X401575Y71850D02*
X405512D01*
X403543Y69882D02*
Y73819D01*
X696260Y72323D02*
X700197D01*
X698228Y70354D02*
Y74291D01*
X696260Y103740D02*
X700197D01*
X698228Y101772D02*
Y105709D01*
X584842Y68622D02*
X588386D01*
X586614Y66850D02*
Y70394D01*
X584842Y78622D02*
X588386D01*
X586614Y76850D02*
Y80394D01*
X375591Y19685D02*
X388189D01*
X381890Y13386D02*
Y25984D01*
X690551Y19685D02*
X703150D01*
X696850Y13386D02*
Y25984D01*
X690551Y177165D02*
X703150D01*
X696850Y170866D02*
Y183465D01*
X375591Y177165D02*
X388189D01*
X381890Y170866D02*
Y183465D01*
X626630Y68118D02*
X630961D01*
X628795Y65953D02*
Y70284D01*
X644630Y68118D02*
X648961D01*
X646795Y65953D02*
Y70284D01*
X644630Y42118D02*
X648961D01*
X646795Y39953D02*
Y44284D01*
X626630Y42118D02*
X630961D01*
X628795Y39953D02*
Y44284D01*
X508520Y48433D02*
X512850D01*
X510685Y46268D02*
Y50598D01*
X526520Y48433D02*
X530850D01*
X528685Y46268D02*
Y50598D01*
X526520Y22433D02*
X530850D01*
X528685Y20268D02*
Y24598D01*
X508520Y22433D02*
X512850D01*
X510685Y20268D02*
Y24598D01*
X547890Y48433D02*
X552220D01*
X550055Y46268D02*
Y50598D01*
X565890Y48433D02*
X570221D01*
X568055Y46268D02*
Y50598D01*
X565890Y22433D02*
X570221D01*
X568055Y20268D02*
Y24598D01*
X547890Y22433D02*
X552220D01*
X550055Y20268D02*
Y24598D01*
X587260Y48433D02*
X591590D01*
X589425Y46268D02*
Y50598D01*
X605260Y48433D02*
X609590D01*
X607425Y46268D02*
Y50598D01*
X605260Y22433D02*
X609590D01*
X607425Y20268D02*
Y24598D01*
X587260Y22433D02*
X591590D01*
X589425Y20268D02*
Y24598D01*
X499409Y73622D02*
X500591D01*
X500000Y73032D02*
Y74213D01*
X516732Y83661D02*
X517913D01*
X517323Y83071D02*
Y84252D01*
X447835Y46457D02*
X449016D01*
X448425Y45866D02*
Y47047D01*
X555118Y76673D02*
X556299D01*
X555709Y76083D02*
Y77264D01*
X645079Y154528D02*
X646260D01*
X645669Y153937D02*
Y155118D01*
X432480Y153543D02*
X433661D01*
X433071Y152953D02*
Y154134D01*
X616280Y143110D02*
X617461D01*
X616870Y142520D02*
Y143701D01*
X611279Y143110D02*
X612461D01*
X611870Y142520D02*
Y143701D01*
X562402Y59055D02*
X563583D01*
X562992Y58465D02*
Y59646D01*
X558268Y72047D02*
X559449D01*
X558858Y71457D02*
Y72638D01*
X565354Y59055D02*
X566535D01*
X565945Y58465D02*
Y59646D01*
X528937Y81693D02*
X530118D01*
X529528Y81102D02*
Y82284D01*
X558268Y75197D02*
X559449D01*
X558858Y74606D02*
Y75787D01*
X579921Y72047D02*
X581102D01*
X580512Y71457D02*
Y72638D01*
X579921Y75197D02*
X581102D01*
X580512Y74606D02*
Y75787D01*
X696063Y116732D02*
X697244D01*
X696654Y116142D02*
Y117323D01*
X696063Y128543D02*
X697244D01*
X696654Y127953D02*
Y129134D01*
X652362Y119095D02*
X653543D01*
X652953Y118504D02*
Y119685D01*
X664173Y119095D02*
X665354D01*
X664764Y118504D02*
Y119685D01*
X696063Y66732D02*
X697244D01*
X696654Y66142D02*
Y67323D01*
X696063Y54921D02*
X697244D01*
X696654Y54331D02*
Y55512D01*
X652362Y60433D02*
X653543D01*
X652953Y59842D02*
Y61024D01*
X664173Y60433D02*
X665354D01*
X664764Y59842D02*
Y61024D01*
X661417Y78937D02*
X662598D01*
X662008Y78347D02*
Y79528D01*
X631102Y87008D02*
X632283D01*
X631693Y86417D02*
Y87598D01*
X631102Y90158D02*
X632283D01*
X631693Y89567D02*
Y90748D01*
X56102Y245472D02*
X60827D01*
X58465Y243110D02*
Y247835D01*
X96653Y245472D02*
X101378D01*
X99016Y243110D02*
Y247835D01*
X97047Y256496D02*
X100984D01*
X99016Y254528D02*
Y258465D01*
X56496Y256496D02*
X60433D01*
X58465Y254528D02*
Y258465D01*
X96653Y271063D02*
X101378D01*
X99016Y268701D02*
Y273425D01*
X56102Y271063D02*
X60827D01*
X58465Y268701D02*
Y273425D01*
X32480Y380906D02*
X36417D01*
X34449Y378937D02*
Y382874D01*
X37402Y390748D02*
X41339D01*
X39370Y388779D02*
Y392717D01*
X55118Y390748D02*
X59055D01*
X57087Y388779D02*
Y392717D01*
X60039Y380906D02*
X63976D01*
X62008Y378937D02*
Y382874D01*
X290354Y380906D02*
X294291D01*
X292323Y378937D02*
Y382874D01*
X295276Y390748D02*
X299213D01*
X297244Y388779D02*
Y392717D01*
X312992Y390748D02*
X316929D01*
X314961Y388779D02*
Y392717D01*
X317913Y380906D02*
X321850D01*
X319882Y378937D02*
Y382874D01*
X305000Y251969D02*
X308543D01*
X306772Y250197D02*
Y253740D01*
X315000Y251969D02*
X318543D01*
X316772Y250197D02*
Y253740D01*
X325000Y251969D02*
X328543D01*
X326772Y250197D02*
Y253740D01*
X335000Y251969D02*
X338543D01*
X336772Y250197D02*
Y253740D01*
X69882Y389213D02*
X71850D01*
X70866Y388228D02*
Y390197D01*
X282480Y389213D02*
X284449D01*
X283465Y388228D02*
Y390197D01*
X122638Y382677D02*
X129331D01*
X125984Y379331D02*
Y386024D01*
X225000Y382677D02*
X231693D01*
X228346Y379331D02*
Y386024D01*
X280906Y371063D02*
X285236D01*
X283071Y368898D02*
Y373228D01*
X69095Y371063D02*
X73425D01*
X71260Y368898D02*
Y373228D01*
X50394Y304134D02*
X57480D01*
X53937Y300591D02*
Y307677D01*
X5512Y304134D02*
X12598D01*
X9055Y300591D02*
Y307677D01*
X39370Y333661D02*
X43307D01*
X41339Y331693D02*
Y335630D01*
X19685Y333661D02*
X23622D01*
X21654Y331693D02*
Y335630D01*
X29528Y333661D02*
X33465D01*
X31496Y331693D02*
Y335630D01*
X19685Y276575D02*
X23622D01*
X21654Y274606D02*
Y278543D01*
X39370Y276575D02*
X43307D01*
X41339Y274606D02*
Y278543D01*
X334055Y277047D02*
X337992D01*
X336024Y275079D02*
Y279016D01*
X334055Y308465D02*
X337992D01*
X336024Y306496D02*
Y310433D01*
X222638Y273346D02*
X226181D01*
X224410Y271575D02*
Y275118D01*
X222638Y283347D02*
X226181D01*
X224410Y281575D02*
Y285118D01*
X13386Y224410D02*
X25984D01*
X19685Y218110D02*
Y230709D01*
X328346Y224410D02*
X340945D01*
X334646Y218110D02*
Y230709D01*
X328346Y381890D02*
X340945D01*
X334646Y375591D02*
Y388189D01*
X13386Y381890D02*
X25984D01*
X19685Y375590D02*
Y388189D01*
X264425Y272843D02*
X268756D01*
X266590Y270677D02*
Y275008D01*
X282425Y272843D02*
X286756D01*
X284591Y270677D02*
Y275008D01*
X282425Y246843D02*
X286756D01*
X284591Y244677D02*
Y249008D01*
X264425Y246843D02*
X268756D01*
X266590Y244677D02*
Y249008D01*
X146315Y253157D02*
X150646D01*
X148480Y250992D02*
Y255323D01*
X164315Y253157D02*
X168646D01*
X166480Y250992D02*
Y255323D01*
X164315Y227157D02*
X168646D01*
X166480Y224992D02*
Y229323D01*
X146315Y227157D02*
X150646D01*
X148480Y224992D02*
Y229323D01*
X185685Y253157D02*
X190016D01*
X187850Y250992D02*
Y255323D01*
X203685Y253157D02*
X208016D01*
X205850Y250992D02*
Y255323D01*
X203685Y227157D02*
X208016D01*
X205850Y224992D02*
Y229323D01*
X185685Y227157D02*
X190016D01*
X187850Y224992D02*
Y229323D01*
X225055Y253157D02*
X229386D01*
X227221Y250992D02*
Y255323D01*
X243055Y253157D02*
X247386D01*
X245220Y250992D02*
Y255323D01*
X243055Y227157D02*
X247386D01*
X245220Y224992D02*
Y229323D01*
X225055Y227157D02*
X229386D01*
X227221Y224992D02*
Y229323D01*
X137205Y278347D02*
X138386D01*
X137795Y277756D02*
Y278937D01*
X154528Y288386D02*
X155709D01*
X155118Y287795D02*
Y288976D01*
X85630Y251181D02*
X86811D01*
X86221Y250590D02*
Y251772D01*
X192913Y281398D02*
X194095D01*
X193504Y280807D02*
Y281988D01*
X282874Y359252D02*
X284055D01*
X283465Y358661D02*
Y359842D01*
X70276Y358268D02*
X71457D01*
X70866Y357677D02*
Y358858D01*
X254075Y347835D02*
X255256D01*
X254665Y347244D02*
Y348425D01*
X249075Y347835D02*
X250256D01*
X249665Y347244D02*
Y348425D01*
X200197Y263779D02*
X201378D01*
X200787Y263189D02*
Y264370D01*
X196063Y276772D02*
X197244D01*
X196653Y276181D02*
Y277362D01*
X203150Y263779D02*
X204331D01*
X203740Y263189D02*
Y264370D01*
X166732Y286417D02*
X167913D01*
X167323Y285827D02*
Y287008D01*
X196063Y279921D02*
X197244D01*
X196653Y279331D02*
Y280512D01*
X217717Y276772D02*
X218898D01*
X218307Y276181D02*
Y277362D01*
X217717Y279921D02*
X218898D01*
X218307Y279331D02*
Y280512D01*
X333858Y321457D02*
X335039D01*
X334449Y320866D02*
Y322047D01*
X333858Y333268D02*
X335039D01*
X334449Y332677D02*
Y333858D01*
X290158Y323819D02*
X291339D01*
X290748Y323228D02*
Y324410D01*
X301969Y323819D02*
X303150D01*
X302559Y323228D02*
Y324410D01*
X333858Y271457D02*
X335039D01*
X334449Y270866D02*
Y272047D01*
X333858Y259646D02*
X335039D01*
X334449Y259055D02*
Y260236D01*
X290158Y265158D02*
X291339D01*
X290748Y264567D02*
Y265748D01*
X301969Y265158D02*
X303150D01*
X302559Y264567D02*
Y265748D01*
X299213Y283662D02*
X300394D01*
X299803Y283071D02*
Y284252D01*
X268898Y291732D02*
X270079D01*
X269488Y291142D02*
Y292323D01*
X268898Y294882D02*
X270079D01*
X269488Y294291D02*
Y295472D01*
X418307Y245472D02*
X423032D01*
X420669Y243110D02*
Y247835D01*
X458858Y245472D02*
X463583D01*
X461221Y243110D02*
Y247835D01*
X459252Y256496D02*
X463189D01*
X461221Y254528D02*
Y258465D01*
X418701Y256496D02*
X422638D01*
X420669Y254528D02*
Y258465D01*
X458858Y271063D02*
X463583D01*
X461221Y268701D02*
Y273425D01*
X418307Y271063D02*
X423032D01*
X420669Y268701D02*
Y273425D01*
X394685Y380906D02*
X398622D01*
X396654Y378937D02*
Y382874D01*
X399606Y390748D02*
X403543D01*
X401575Y388779D02*
Y392717D01*
X417323Y390748D02*
X421260D01*
X419291Y388779D02*
Y392717D01*
X422244Y380906D02*
X426181D01*
X424213Y378937D02*
Y382874D01*
X652559Y380906D02*
X656496D01*
X654528Y378937D02*
Y382874D01*
X657480Y390748D02*
X661417D01*
X659449Y388779D02*
Y392717D01*
X675197Y390748D02*
X679134D01*
X677165Y388779D02*
Y392717D01*
X680118Y380906D02*
X684055D01*
X682087Y378937D02*
Y382874D01*
X667205Y251969D02*
X670748D01*
X668976Y250197D02*
Y253740D01*
X677205Y251969D02*
X680748D01*
X678976Y250197D02*
Y253740D01*
X687205Y251969D02*
X690748D01*
X688976Y250197D02*
Y253740D01*
X697205Y251969D02*
X700748D01*
X698976Y250197D02*
Y253740D01*
X432087Y389213D02*
X434055D01*
X433071Y388228D02*
Y390197D01*
X644685Y389213D02*
X646654D01*
X645669Y388228D02*
Y390197D01*
X484842Y382677D02*
X491535D01*
X488189Y379331D02*
Y386024D01*
X587205Y382677D02*
X593898D01*
X590551Y379331D02*
Y386024D01*
X643110Y371063D02*
X647441D01*
X645276Y368898D02*
Y373228D01*
X431299Y371063D02*
X435630D01*
X433465Y368898D02*
Y373228D01*
X412598Y304134D02*
X419685D01*
X416142Y300591D02*
Y307677D01*
X367717Y304134D02*
X374803D01*
X371260Y300591D02*
Y307677D01*
X401575Y333661D02*
X405512D01*
X403543Y331693D02*
Y335630D01*
X381890Y333661D02*
X385827D01*
X383858Y331693D02*
Y335630D01*
X391732Y333661D02*
X395669D01*
X393701Y331693D02*
Y335630D01*
X381890Y276575D02*
X385827D01*
X383858Y274606D02*
Y278543D01*
X401575Y276575D02*
X405512D01*
X403543Y274606D02*
Y278543D01*
X696260Y277047D02*
X700197D01*
X698228Y275079D02*
Y279016D01*
X696260Y308465D02*
X700197D01*
X698228Y306496D02*
Y310433D01*
X584842Y273346D02*
X588386D01*
X586614Y271575D02*
Y275118D01*
X584842Y283347D02*
X588386D01*
X586614Y281575D02*
Y285118D01*
X375591Y224410D02*
X388189D01*
X381890Y218110D02*
Y230709D01*
X690551Y224410D02*
X703150D01*
X696850Y218110D02*
Y230709D01*
X690551Y381890D02*
X703150D01*
X696850Y375591D02*
Y388189D01*
X375591Y381890D02*
X388189D01*
X381890Y375590D02*
Y388189D01*
X626630Y272843D02*
X630961D01*
X628795Y270677D02*
Y275008D01*
X644630Y272843D02*
X648961D01*
X646795Y270677D02*
Y275008D01*
X644630Y246843D02*
X648961D01*
X646795Y244677D02*
Y249008D01*
X626630Y246843D02*
X630961D01*
X628795Y244677D02*
Y249008D01*
X508520Y253157D02*
X512850D01*
X510685Y250992D02*
Y255323D01*
X526520Y253157D02*
X530850D01*
X528685Y250992D02*
Y255323D01*
X526520Y227157D02*
X530850D01*
X528685Y224992D02*
Y229323D01*
X508520Y227157D02*
X512850D01*
X510685Y224992D02*
Y229323D01*
X547890Y253157D02*
X552220D01*
X550055Y250992D02*
Y255323D01*
X565890Y253157D02*
X570221D01*
X568055Y250992D02*
Y255323D01*
X565890Y227157D02*
X570221D01*
X568055Y224992D02*
Y229323D01*
X547890Y227157D02*
X552220D01*
X550055Y224992D02*
Y229323D01*
X587260Y253157D02*
X591590D01*
X589425Y250992D02*
Y255323D01*
X605260Y253157D02*
X609590D01*
X607425Y250992D02*
Y255323D01*
X605260Y227157D02*
X609590D01*
X607425Y224992D02*
Y229323D01*
X587260Y227157D02*
X591590D01*
X589425Y224992D02*
Y229323D01*
X499409Y278347D02*
X500591D01*
X500000Y277756D02*
Y278937D01*
X516732Y288386D02*
X517913D01*
X517323Y287795D02*
Y288976D01*
X447835Y251181D02*
X449016D01*
X448425Y250590D02*
Y251772D01*
X555118Y281398D02*
X556299D01*
X555709Y280807D02*
Y281988D01*
X645079Y359252D02*
X646260D01*
X645669Y358661D02*
Y359842D01*
X432480Y358268D02*
X433661D01*
X433071Y357677D02*
Y358858D01*
X616280Y347835D02*
X617461D01*
X616870Y347244D02*
Y348425D01*
X611279Y347835D02*
X612461D01*
X611870Y347244D02*
Y348425D01*
X562402Y263779D02*
X563583D01*
X562992Y263189D02*
Y264370D01*
X558268Y276772D02*
X559449D01*
X558858Y276181D02*
Y277362D01*
X565354Y263779D02*
X566535D01*
X565945Y263189D02*
Y264370D01*
X528937Y286417D02*
X530118D01*
X529528Y285827D02*
Y287008D01*
X558268Y279921D02*
X559449D01*
X558858Y279331D02*
Y280512D01*
X579921Y276772D02*
X581102D01*
X580512Y276181D02*
Y277362D01*
X579921Y279921D02*
X581102D01*
X580512Y279331D02*
Y280512D01*
X696063Y321457D02*
X697244D01*
X696654Y320866D02*
Y322047D01*
X696063Y333268D02*
X697244D01*
X696654Y332677D02*
Y333858D01*
X652362Y323819D02*
X653543D01*
X652953Y323228D02*
Y324410D01*
X664173Y323819D02*
X665354D01*
X664764Y323228D02*
Y324410D01*
X696063Y271457D02*
X697244D01*
X696654Y270866D02*
Y272047D01*
X696063Y259646D02*
X697244D01*
X696654Y259055D02*
Y260236D01*
X652362Y265158D02*
X653543D01*
X652953Y264567D02*
Y265748D01*
X664173Y265158D02*
X665354D01*
X664764Y264567D02*
Y265748D01*
X661417Y283662D02*
X662598D01*
X662008Y283071D02*
Y284252D01*
X631102Y291732D02*
X632283D01*
X631693Y291142D02*
Y292323D01*
X631102Y294882D02*
X632283D01*
X631693Y294291D02*
Y295472D01*
X56102Y450197D02*
X60827D01*
X58465Y447835D02*
Y452559D01*
X96653Y450197D02*
X101378D01*
X99016Y447835D02*
Y452559D01*
X97047Y461221D02*
X100984D01*
X99016Y459252D02*
Y463189D01*
X56496Y461221D02*
X60433D01*
X58465Y459252D02*
Y463189D01*
X96653Y475787D02*
X101378D01*
X99016Y473425D02*
Y478150D01*
X56102Y475787D02*
X60827D01*
X58465Y473425D02*
Y478150D01*
X32480Y585630D02*
X36417D01*
X34449Y583661D02*
Y587598D01*
X37402Y595472D02*
X41339D01*
X39370Y593504D02*
Y597441D01*
X55118Y595472D02*
X59055D01*
X57087Y593504D02*
Y597441D01*
X60039Y585630D02*
X63976D01*
X62008Y583661D02*
Y587598D01*
X290354Y585630D02*
X294291D01*
X292323Y583661D02*
Y587598D01*
X295276Y595472D02*
X299213D01*
X297244Y593504D02*
Y597441D01*
X312992Y595472D02*
X316929D01*
X314961Y593504D02*
Y597441D01*
X317913Y585630D02*
X321850D01*
X319882Y583661D02*
Y587598D01*
X305000Y456693D02*
X308543D01*
X306772Y454921D02*
Y458465D01*
X315000Y456693D02*
X318543D01*
X316772Y454921D02*
Y458465D01*
X325000Y456693D02*
X328543D01*
X326772Y454921D02*
Y458465D01*
X335000Y456693D02*
X338543D01*
X336772Y454921D02*
Y458465D01*
X69882Y593937D02*
X71850D01*
X70866Y592953D02*
Y594921D01*
X282480Y593937D02*
X284449D01*
X283465Y592953D02*
Y594921D01*
X122638Y587402D02*
X129331D01*
X125984Y584055D02*
Y590748D01*
X225000Y587402D02*
X231693D01*
X228346Y584055D02*
Y590748D01*
X280906Y575787D02*
X285236D01*
X283071Y573622D02*
Y577953D01*
X69095Y575787D02*
X73425D01*
X71260Y573622D02*
Y577953D01*
X50394Y508858D02*
X57480D01*
X53937Y505315D02*
Y512402D01*
X5512Y508858D02*
X12598D01*
X9055Y505315D02*
Y512402D01*
X39370Y538386D02*
X43307D01*
X41339Y536417D02*
Y540354D01*
X19685Y538386D02*
X23622D01*
X21654Y536417D02*
Y540354D01*
X29528Y538386D02*
X33465D01*
X31496Y536417D02*
Y540354D01*
X19685Y481299D02*
X23622D01*
X21654Y479331D02*
Y483268D01*
X39370Y481299D02*
X43307D01*
X41339Y479331D02*
Y483268D01*
X334055Y481772D02*
X337992D01*
X336024Y479803D02*
Y483740D01*
X334055Y513189D02*
X337992D01*
X336024Y511221D02*
Y515158D01*
X222638Y478071D02*
X226181D01*
X224410Y476299D02*
Y479843D01*
X222638Y488071D02*
X226181D01*
X224410Y486299D02*
Y489843D01*
X13386Y429134D02*
X25984D01*
X19685Y422835D02*
Y435433D01*
X328346Y429134D02*
X340945D01*
X334646Y422835D02*
Y435433D01*
X328346Y586614D02*
X340945D01*
X334646Y580315D02*
Y592913D01*
X13386Y586614D02*
X25984D01*
X19685Y580315D02*
Y592913D01*
X264425Y477567D02*
X268756D01*
X266590Y475402D02*
Y479732D01*
X282425Y477567D02*
X286756D01*
X284591Y475402D02*
Y479732D01*
X282425Y451567D02*
X286756D01*
X284591Y449402D02*
Y453732D01*
X264425Y451567D02*
X268756D01*
X266590Y449402D02*
Y453732D01*
X146315Y457882D02*
X150646D01*
X148480Y455717D02*
Y460047D01*
X164315Y457882D02*
X168646D01*
X166480Y455717D02*
Y460047D01*
X164315Y431882D02*
X168646D01*
X166480Y429716D02*
Y434047D01*
X146315Y431882D02*
X150646D01*
X148480Y429716D02*
Y434047D01*
X185685Y457882D02*
X190016D01*
X187850Y455717D02*
Y460047D01*
X203685Y457882D02*
X208016D01*
X205850Y455717D02*
Y460047D01*
X203685Y431882D02*
X208016D01*
X205850Y429716D02*
Y434047D01*
X185685Y431882D02*
X190016D01*
X187850Y429716D02*
Y434047D01*
X225055Y457882D02*
X229386D01*
X227221Y455717D02*
Y460047D01*
X243055Y457882D02*
X247386D01*
X245220Y455717D02*
Y460047D01*
X243055Y431882D02*
X247386D01*
X245220Y429716D02*
Y434047D01*
X225055Y431882D02*
X229386D01*
X227221Y429716D02*
Y434047D01*
X137205Y483071D02*
X138386D01*
X137795Y482481D02*
Y483662D01*
X154528Y493110D02*
X155709D01*
X155118Y492520D02*
Y493701D01*
X85630Y455905D02*
X86811D01*
X86221Y455315D02*
Y456496D01*
X192913Y486122D02*
X194095D01*
X193504Y485532D02*
Y486713D01*
X282874Y563976D02*
X284055D01*
X283465Y563386D02*
Y564567D01*
X70276Y562992D02*
X71457D01*
X70866Y562402D02*
Y563583D01*
X254075Y552559D02*
X255256D01*
X254665Y551968D02*
Y553150D01*
X249075Y552559D02*
X250256D01*
X249665Y551968D02*
Y553150D01*
X200197Y468504D02*
X201378D01*
X200787Y467913D02*
Y469095D01*
X196063Y481496D02*
X197244D01*
X196653Y480905D02*
Y482087D01*
X203150Y468504D02*
X204331D01*
X203740Y467913D02*
Y469095D01*
X166732Y491142D02*
X167913D01*
X167323Y490551D02*
Y491732D01*
X196063Y484646D02*
X197244D01*
X196653Y484055D02*
Y485236D01*
X217717Y481496D02*
X218898D01*
X218307Y480905D02*
Y482087D01*
X217717Y484646D02*
X218898D01*
X218307Y484055D02*
Y485236D01*
X333858Y526181D02*
X335039D01*
X334449Y525591D02*
Y526772D01*
X333858Y537992D02*
X335039D01*
X334449Y537402D02*
Y538583D01*
X290158Y528543D02*
X291339D01*
X290748Y527953D02*
Y529134D01*
X301969Y528543D02*
X303150D01*
X302559Y527953D02*
Y529134D01*
X333858Y476181D02*
X335039D01*
X334449Y475591D02*
Y476772D01*
X333858Y464370D02*
X335039D01*
X334449Y463780D02*
Y464961D01*
X290158Y469882D02*
X291339D01*
X290748Y469291D02*
Y470472D01*
X301969Y469882D02*
X303150D01*
X302559Y469291D02*
Y470472D01*
X299213Y488386D02*
X300394D01*
X299803Y487795D02*
Y488976D01*
X268898Y496457D02*
X270079D01*
X269488Y495866D02*
Y497047D01*
X268898Y499606D02*
X270079D01*
X269488Y499016D02*
Y500197D01*
X418307Y450197D02*
X423032D01*
X420669Y447835D02*
Y452559D01*
X458858Y450197D02*
X463583D01*
X461221Y447835D02*
Y452559D01*
X459252Y461221D02*
X463189D01*
X461221Y459252D02*
Y463189D01*
X418701Y461221D02*
X422638D01*
X420669Y459252D02*
Y463189D01*
X458858Y475787D02*
X463583D01*
X461221Y473425D02*
Y478150D01*
X418307Y475787D02*
X423032D01*
X420669Y473425D02*
Y478150D01*
X394685Y585630D02*
X398622D01*
X396654Y583661D02*
Y587598D01*
X399606Y595472D02*
X403543D01*
X401575Y593504D02*
Y597441D01*
X417323Y595472D02*
X421260D01*
X419291Y593504D02*
Y597441D01*
X422244Y585630D02*
X426181D01*
X424213Y583661D02*
Y587598D01*
X652559Y585630D02*
X656496D01*
X654528Y583661D02*
Y587598D01*
X657480Y595472D02*
X661417D01*
X659449Y593504D02*
Y597441D01*
X675197Y595472D02*
X679134D01*
X677165Y593504D02*
Y597441D01*
X680118Y585630D02*
X684055D01*
X682087Y583661D02*
Y587598D01*
X667205Y456693D02*
X670748D01*
X668976Y454921D02*
Y458465D01*
X677205Y456693D02*
X680748D01*
X678976Y454921D02*
Y458465D01*
X687205Y456693D02*
X690748D01*
X688976Y454921D02*
Y458465D01*
X697205Y456693D02*
X700748D01*
X698976Y454921D02*
Y458465D01*
X432087Y593937D02*
X434055D01*
X433071Y592953D02*
Y594921D01*
X644685Y593937D02*
X646654D01*
X645669Y592953D02*
Y594921D01*
X484842Y587402D02*
X491535D01*
X488189Y584055D02*
Y590748D01*
X587205Y587402D02*
X593898D01*
X590551Y584055D02*
Y590748D01*
X643110Y575787D02*
X647441D01*
X645276Y573622D02*
Y577953D01*
X431299Y575787D02*
X435630D01*
X433465Y573622D02*
Y577953D01*
X412598Y508858D02*
X419685D01*
X416142Y505315D02*
Y512402D01*
X367717Y508858D02*
X374803D01*
X371260Y505315D02*
Y512402D01*
X401575Y538386D02*
X405512D01*
X403543Y536417D02*
Y540354D01*
X381890Y538386D02*
X385827D01*
X383858Y536417D02*
Y540354D01*
X391732Y538386D02*
X395669D01*
X393701Y536417D02*
Y540354D01*
X381890Y481299D02*
X385827D01*
X383858Y479331D02*
Y483268D01*
X401575Y481299D02*
X405512D01*
X403543Y479331D02*
Y483268D01*
X696260Y481772D02*
X700197D01*
X698228Y479803D02*
Y483740D01*
X696260Y513189D02*
X700197D01*
X698228Y511221D02*
Y515158D01*
X584842Y478071D02*
X588386D01*
X586614Y476299D02*
Y479843D01*
X584842Y488071D02*
X588386D01*
X586614Y486299D02*
Y489843D01*
X375591Y429134D02*
X388189D01*
X381890Y422835D02*
Y435433D01*
X690551Y429134D02*
X703150D01*
X696850Y422835D02*
Y435433D01*
X690551Y586614D02*
X703150D01*
X696850Y580315D02*
Y592913D01*
X375591Y586614D02*
X388189D01*
X381890Y580315D02*
Y592913D01*
X626630Y477567D02*
X630961D01*
X628795Y475402D02*
Y479732D01*
X644630Y477567D02*
X648961D01*
X646795Y475402D02*
Y479732D01*
X644630Y451567D02*
X648961D01*
X646795Y449402D02*
Y453732D01*
X626630Y451567D02*
X630961D01*
X628795Y449402D02*
Y453732D01*
X508520Y457882D02*
X512850D01*
X510685Y455717D02*
Y460047D01*
X526520Y457882D02*
X530850D01*
X528685Y455717D02*
Y460047D01*
X526520Y431882D02*
X530850D01*
X528685Y429716D02*
Y434047D01*
X508520Y431882D02*
X512850D01*
X510685Y429716D02*
Y434047D01*
X547890Y457882D02*
X552220D01*
X550055Y455717D02*
Y460047D01*
X565890Y457882D02*
X570221D01*
X568055Y455717D02*
Y460047D01*
X565890Y431882D02*
X570221D01*
X568055Y429716D02*
Y434047D01*
X547890Y431882D02*
X552220D01*
X550055Y429716D02*
Y434047D01*
X587260Y457882D02*
X591590D01*
X589425Y455717D02*
Y460047D01*
X605260Y457882D02*
X609590D01*
X607425Y455717D02*
Y460047D01*
X605260Y431882D02*
X609590D01*
X607425Y429716D02*
Y434047D01*
X587260Y431882D02*
X591590D01*
X589425Y429716D02*
Y434047D01*
X499409Y483071D02*
X500591D01*
X500000Y482481D02*
Y483662D01*
X516732Y493110D02*
X517913D01*
X517323Y492520D02*
Y493701D01*
X447835Y455905D02*
X449016D01*
X448425Y455315D02*
Y456496D01*
X555118Y486122D02*
X556299D01*
X555709Y485532D02*
Y486713D01*
X645079Y563976D02*
X646260D01*
X645669Y563386D02*
Y564567D01*
X432480Y562992D02*
X433661D01*
X433071Y562402D02*
Y563583D01*
X616280Y552559D02*
X617461D01*
X616870Y551968D02*
Y553150D01*
X611279Y552559D02*
X612461D01*
X611870Y551968D02*
Y553150D01*
X562402Y468504D02*
X563583D01*
X562992Y467913D02*
Y469095D01*
X558268Y481496D02*
X559449D01*
X558858Y480905D02*
Y482087D01*
X565354Y468504D02*
X566535D01*
X565945Y467913D02*
Y469095D01*
X528937Y491142D02*
X530118D01*
X529528Y490551D02*
Y491732D01*
X558268Y484646D02*
X559449D01*
X558858Y484055D02*
Y485236D01*
X579921Y481496D02*
X581102D01*
X580512Y480905D02*
Y482087D01*
X579921Y484646D02*
X581102D01*
X580512Y484055D02*
Y485236D01*
X696063Y526181D02*
X697244D01*
X696654Y525591D02*
Y526772D01*
X696063Y537992D02*
X697244D01*
X696654Y537402D02*
Y538583D01*
X652362Y528543D02*
X653543D01*
X652953Y527953D02*
Y529134D01*
X664173Y528543D02*
X665354D01*
X664764Y527953D02*
Y529134D01*
X696063Y476181D02*
X697244D01*
X696654Y475591D02*
Y476772D01*
X696063Y464370D02*
X697244D01*
X696654Y463780D02*
Y464961D01*
X652362Y469882D02*
X653543D01*
X652953Y469291D02*
Y470472D01*
X664173Y469882D02*
X665354D01*
X664764Y469291D02*
Y470472D01*
X661417Y488386D02*
X662598D01*
X662008Y487795D02*
Y488976D01*
X631102Y496457D02*
X632283D01*
X631693Y495866D02*
Y497047D01*
X631102Y499606D02*
X632283D01*
X631693Y499016D02*
Y500197D01*
M02*
