M48
;Layer_Color=9474304
;FILE_FORMAT=2:5
INCH,LZ
;TYPE=PLATED
T1F00S00C0.01181
T3F00S00C0.03543
T4F00S00C0.03937
T5F00S00C0.04331
T6F00S00C0.04724
;TYPE=NON_PLATED
T8F00S00C0.03937
T9F00S00C0.06299
T10F00S00C0.12598
%
T01
X0290748Y0060433
X0302559
X0334449Y0054921
X020374Y0059055
X0200787
X0086221Y0046457
X0070866Y0153543
X0137795Y0073622
X0155118Y0083661
X0167323Y0081693
X0193504Y0076673
X0196653Y0075197
Y0072047
X0218307
Y0075197
X0269488Y0087008
Y0090158
X0254665Y014311
X0249665
X0283465Y0154528
X0290748Y0119095
X0302559
X0334449Y0116732
Y0128543
Y0066732
X0299803Y0078937
T03
X0306772Y0047244
X0316772
X0326772
X0336772
X022441Y0068622
Y0078622
T04
X0058465Y0051772
X0099016
X0041339Y007185
X0021654
Y0128937
X0031496
X0041339
T05
X014848Y0022433
X016648
X018785
X020585
X0227221
X024522
Y0048433
X0227221
X020585
X018785
X016648
X014848
X026659Y0042118
X0284591
X007126Y0166339
X0283071
X0284591Y0068118
X026659
T06
X0058465Y0040748
X0099016
Y0066339
X0058465
T08
X0336024Y0072323
Y010374
T09
X0125984Y0177953
X0228346
T10
X0334646Y0019685
X0019685Y0019685
X0019685Y0177165
X0334646Y0177165
M30
