G04*
G04 #@! TF.GenerationSoftware,Altium Limited,Altium Designer,22.0.2 (36)*
G04*
G04 Layer_Color=2752767*
%FSLAX25Y25*%
%MOIN*%
G70*
G04*
G04 #@! TF.SameCoordinates,97D47E50-BCFC-400F-BBD2-71598373C37A*
G04*
G04*
G04 #@! TF.FilePolarity,Positive*
G04*
G01*
G75*
%ADD11C,0.00591*%
%ADD12C,0.00787*%
%ADD14C,0.01575*%
%ADD15C,0.00394*%
%ADD16C,0.00984*%
%ADD67C,0.00200*%
%ADD68C,0.00945*%
%ADD69C,0.00827*%
G36*
X872201Y-141778D02*
X873919D01*
Y-142065D01*
X874778D01*
Y-142351D01*
X875637D01*
Y-142637D01*
X876496D01*
Y-142924D01*
X877069D01*
Y-143210D01*
X877355D01*
Y-143496D01*
X877928D01*
Y-143783D01*
X878214D01*
Y-144069D01*
X878786D01*
Y-144355D01*
X879073D01*
Y-144641D01*
X879359D01*
Y-144928D01*
X879646D01*
Y-145214D01*
X879932D01*
Y-145501D01*
X880218D01*
Y-145787D01*
X880504D01*
Y-146073D01*
Y-146359D01*
X880791D01*
Y-146646D01*
X881077D01*
Y-146932D01*
Y-147218D01*
X881363D01*
Y-147505D01*
X881650D01*
Y-147791D01*
Y-148077D01*
X881936D01*
Y-148364D01*
Y-148650D01*
Y-148936D01*
X882222D01*
Y-149223D01*
Y-149509D01*
Y-149795D01*
X882509D01*
Y-150082D01*
Y-150368D01*
Y-150654D01*
Y-150940D01*
X882795D01*
Y-151227D01*
Y-151513D01*
Y-151799D01*
Y-152086D01*
Y-152372D01*
X883081D01*
Y-152658D01*
Y-152945D01*
Y-153231D01*
Y-153517D01*
Y-153804D01*
Y-154090D01*
Y-154376D01*
Y-154663D01*
Y-154949D01*
Y-155235D01*
Y-155521D01*
Y-155808D01*
Y-156094D01*
Y-156380D01*
Y-156667D01*
Y-156953D01*
Y-157239D01*
Y-157526D01*
Y-157812D01*
Y-158098D01*
X882795D01*
Y-158385D01*
Y-158671D01*
Y-158957D01*
Y-159244D01*
Y-159530D01*
Y-159816D01*
Y-160102D01*
X882509D01*
Y-160389D01*
Y-160675D01*
Y-160961D01*
Y-161248D01*
Y-161534D01*
X882222D01*
Y-161820D01*
Y-162107D01*
Y-162393D01*
Y-162679D01*
Y-162966D01*
X881936D01*
Y-163252D01*
Y-163538D01*
Y-163824D01*
X881650D01*
Y-164111D01*
Y-164397D01*
Y-164683D01*
Y-164970D01*
X881363D01*
Y-165256D01*
Y-165542D01*
Y-165829D01*
X881077D01*
Y-166115D01*
Y-166401D01*
X880791D01*
Y-166688D01*
Y-166974D01*
Y-167260D01*
X880504D01*
Y-167547D01*
Y-167833D01*
X880218D01*
Y-168119D01*
Y-168405D01*
X879932D01*
Y-168692D01*
Y-168978D01*
X879646D01*
Y-169264D01*
X879359D01*
Y-169551D01*
Y-169837D01*
X879073D01*
Y-170123D01*
X878786D01*
Y-170410D01*
X878500D01*
Y-170696D01*
Y-170982D01*
X878214D01*
Y-171269D01*
X877928D01*
Y-171555D01*
X877641D01*
Y-171841D01*
X877355D01*
Y-172127D01*
X877069D01*
Y-172414D01*
X876496D01*
Y-172700D01*
X876210D01*
Y-172986D01*
X875637D01*
Y-173273D01*
X875351D01*
Y-173559D01*
X874778D01*
Y-173845D01*
X873919D01*
Y-174132D01*
X873060D01*
Y-174418D01*
X872201D01*
Y-174704D01*
X870483D01*
Y-174991D01*
X865330D01*
Y-174704D01*
X862753D01*
Y-174418D01*
X860749D01*
Y-174132D01*
X859317D01*
Y-173845D01*
X857886D01*
Y-173559D01*
X856454D01*
Y-173845D01*
Y-174132D01*
Y-174418D01*
Y-174704D01*
Y-174991D01*
Y-175277D01*
Y-175563D01*
X856168D01*
Y-175850D01*
Y-176136D01*
Y-176422D01*
Y-176709D01*
Y-176995D01*
Y-177281D01*
X855882D01*
Y-177568D01*
Y-177854D01*
Y-178140D01*
Y-178426D01*
Y-178713D01*
Y-178999D01*
X855595D01*
Y-179285D01*
Y-179572D01*
Y-179858D01*
Y-180144D01*
Y-180431D01*
Y-180717D01*
Y-181003D01*
X855309D01*
Y-181290D01*
Y-181576D01*
Y-181862D01*
Y-182149D01*
Y-182435D01*
Y-182721D01*
X855023D01*
Y-183007D01*
Y-183294D01*
Y-183580D01*
Y-183866D01*
Y-184153D01*
Y-184439D01*
X854736D01*
Y-184725D01*
Y-185012D01*
Y-185298D01*
Y-185584D01*
Y-185871D01*
Y-186157D01*
Y-186443D01*
X854450D01*
Y-186730D01*
Y-187016D01*
Y-187302D01*
Y-187588D01*
Y-187875D01*
Y-188161D01*
X854164D01*
Y-188447D01*
Y-188734D01*
Y-189020D01*
Y-189306D01*
Y-189593D01*
Y-189879D01*
X853877D01*
Y-190165D01*
Y-190452D01*
Y-190738D01*
Y-191024D01*
Y-191311D01*
Y-191597D01*
Y-191883D01*
X840421D01*
Y-191597D01*
X840707D01*
Y-191311D01*
Y-191024D01*
Y-190738D01*
Y-190452D01*
Y-190165D01*
X840993D01*
Y-189879D01*
Y-189593D01*
Y-189306D01*
Y-189020D01*
Y-188734D01*
Y-188447D01*
Y-188161D01*
X841280D01*
Y-187875D01*
Y-187588D01*
Y-187302D01*
Y-187016D01*
Y-186730D01*
Y-186443D01*
X841566D01*
Y-186157D01*
Y-185871D01*
Y-185584D01*
Y-185298D01*
Y-185012D01*
Y-184725D01*
X841852D01*
Y-184439D01*
Y-184153D01*
Y-183866D01*
Y-183580D01*
Y-183294D01*
Y-183007D01*
Y-182721D01*
X842138D01*
Y-182435D01*
Y-182149D01*
Y-181862D01*
Y-181576D01*
Y-181290D01*
Y-181003D01*
X842425D01*
Y-180717D01*
Y-180431D01*
Y-180144D01*
Y-179858D01*
Y-179572D01*
Y-179285D01*
X842711D01*
Y-178999D01*
Y-178713D01*
Y-178426D01*
Y-178140D01*
Y-177854D01*
Y-177568D01*
X842997D01*
Y-177281D01*
Y-176995D01*
Y-176709D01*
Y-176422D01*
Y-176136D01*
Y-175850D01*
Y-175563D01*
X843284D01*
Y-175277D01*
Y-174991D01*
Y-174704D01*
Y-174418D01*
Y-174132D01*
Y-173845D01*
X843570D01*
Y-173559D01*
Y-173273D01*
Y-172986D01*
Y-172700D01*
Y-172414D01*
Y-172127D01*
X843856D01*
Y-171841D01*
Y-171555D01*
Y-171269D01*
Y-170982D01*
Y-170696D01*
Y-170410D01*
X844143D01*
Y-170123D01*
Y-169837D01*
Y-169551D01*
Y-169264D01*
Y-168978D01*
Y-168692D01*
Y-168405D01*
X844429D01*
Y-168119D01*
Y-167833D01*
Y-167547D01*
Y-167260D01*
Y-166974D01*
Y-166688D01*
X844715D01*
Y-166401D01*
Y-166115D01*
Y-165829D01*
Y-165542D01*
Y-165256D01*
Y-164970D01*
X845002D01*
Y-164683D01*
Y-164397D01*
Y-164111D01*
Y-163824D01*
Y-163538D01*
Y-163252D01*
Y-162966D01*
X845288D01*
Y-162679D01*
Y-162393D01*
Y-162107D01*
Y-161820D01*
Y-161534D01*
Y-161248D01*
X845574D01*
Y-160961D01*
Y-160675D01*
Y-160389D01*
Y-160102D01*
Y-159816D01*
Y-159530D01*
X845861D01*
Y-159244D01*
Y-158957D01*
Y-158671D01*
Y-158385D01*
Y-158098D01*
Y-157812D01*
X846147D01*
Y-157526D01*
Y-157239D01*
Y-156953D01*
Y-156667D01*
Y-156380D01*
Y-156094D01*
Y-155808D01*
X846433D01*
Y-155521D01*
Y-155235D01*
Y-154949D01*
Y-154663D01*
Y-154376D01*
Y-154090D01*
X846719D01*
Y-153804D01*
Y-153517D01*
Y-153231D01*
Y-152945D01*
Y-152658D01*
Y-152372D01*
X847006D01*
Y-152086D01*
Y-151799D01*
Y-151513D01*
Y-151227D01*
Y-150940D01*
Y-150654D01*
Y-150368D01*
X847292D01*
Y-150082D01*
Y-149795D01*
Y-149509D01*
Y-149223D01*
Y-148936D01*
Y-148650D01*
X847578D01*
Y-148364D01*
Y-148077D01*
Y-147791D01*
Y-147505D01*
Y-147218D01*
Y-146932D01*
X847865D01*
Y-146646D01*
Y-146359D01*
Y-146073D01*
Y-145787D01*
Y-145501D01*
Y-145214D01*
Y-144928D01*
X848151D01*
Y-144641D01*
Y-144355D01*
Y-144069D01*
Y-143783D01*
Y-143496D01*
Y-143210D01*
X848437D01*
Y-142924D01*
Y-142637D01*
Y-142351D01*
Y-142065D01*
Y-141778D01*
Y-141492D01*
X872201D01*
Y-141778D01*
D02*
G37*
G36*
X903409Y-138343D02*
Y-138629D01*
X903123D01*
Y-138915D01*
Y-139202D01*
Y-139488D01*
Y-139774D01*
Y-140060D01*
Y-140347D01*
X902837D01*
Y-140633D01*
Y-140919D01*
Y-141206D01*
Y-141492D01*
Y-141778D01*
Y-142065D01*
X902551D01*
Y-142351D01*
Y-142637D01*
Y-142924D01*
Y-143210D01*
Y-143496D01*
Y-143783D01*
Y-144069D01*
X902264D01*
Y-144355D01*
Y-144641D01*
Y-144928D01*
Y-145214D01*
Y-145501D01*
Y-145787D01*
X901978D01*
Y-146073D01*
Y-146359D01*
Y-146646D01*
Y-146932D01*
Y-147218D01*
Y-147505D01*
X901692D01*
Y-147791D01*
Y-148077D01*
Y-148364D01*
Y-148650D01*
Y-148936D01*
Y-149223D01*
Y-149509D01*
X901405D01*
Y-149795D01*
Y-150082D01*
Y-150368D01*
Y-150654D01*
Y-150940D01*
Y-151227D01*
X901119D01*
Y-151513D01*
Y-151799D01*
Y-152086D01*
Y-152372D01*
Y-152658D01*
Y-152945D01*
X900833D01*
Y-153231D01*
Y-153517D01*
Y-153804D01*
Y-154090D01*
Y-154376D01*
Y-154663D01*
X900546D01*
Y-154949D01*
Y-155235D01*
Y-155521D01*
Y-155808D01*
Y-156094D01*
Y-156380D01*
Y-156667D01*
X900260D01*
Y-156953D01*
Y-157239D01*
Y-157526D01*
Y-157812D01*
Y-158098D01*
Y-158385D01*
X899974D01*
Y-158671D01*
Y-158957D01*
X900546D01*
Y-158671D01*
X900833D01*
Y-158385D01*
X901119D01*
Y-158098D01*
X901692D01*
Y-157812D01*
X901978D01*
Y-157526D01*
X902264D01*
Y-157239D01*
X902837D01*
Y-156953D01*
X903409D01*
Y-156667D01*
X903696D01*
Y-156380D01*
X904268D01*
Y-156094D01*
X905127D01*
Y-155808D01*
X905700D01*
Y-155521D01*
X906559D01*
Y-155235D01*
X907990D01*
Y-154949D01*
X914289D01*
Y-155235D01*
X915435D01*
Y-155521D01*
X916294D01*
Y-155808D01*
X916866D01*
Y-156094D01*
X917153D01*
Y-156380D01*
X917725D01*
Y-156667D01*
X918011D01*
Y-156953D01*
X918298D01*
Y-157239D01*
X918584D01*
Y-157526D01*
X918870D01*
Y-157812D01*
Y-158098D01*
X919157D01*
Y-158385D01*
Y-158671D01*
X919443D01*
Y-158957D01*
Y-159244D01*
Y-159530D01*
X919729D01*
Y-159816D01*
Y-160102D01*
Y-160389D01*
Y-160675D01*
X920016D01*
Y-160961D01*
Y-161248D01*
Y-161534D01*
Y-161820D01*
Y-162107D01*
Y-162393D01*
Y-162679D01*
Y-162966D01*
Y-163252D01*
Y-163538D01*
Y-163824D01*
Y-164111D01*
Y-164397D01*
Y-164683D01*
Y-164970D01*
Y-165256D01*
Y-165542D01*
Y-165829D01*
X919729D01*
Y-166115D01*
Y-166401D01*
Y-166688D01*
Y-166974D01*
Y-167260D01*
Y-167547D01*
Y-167833D01*
X919443D01*
Y-168119D01*
Y-168405D01*
Y-168692D01*
Y-168978D01*
Y-169264D01*
Y-169551D01*
Y-169837D01*
X919157D01*
Y-170123D01*
Y-170410D01*
Y-170696D01*
Y-170982D01*
Y-171269D01*
Y-171555D01*
X918870D01*
Y-171841D01*
Y-172127D01*
Y-172414D01*
Y-172700D01*
Y-172986D01*
Y-173273D01*
X918584D01*
Y-173559D01*
Y-173845D01*
Y-174132D01*
Y-174418D01*
Y-174704D01*
Y-174991D01*
X918298D01*
Y-175277D01*
Y-175563D01*
Y-175850D01*
Y-176136D01*
Y-176422D01*
Y-176709D01*
Y-176995D01*
X918011D01*
Y-177281D01*
Y-177568D01*
Y-177854D01*
Y-178140D01*
Y-178426D01*
Y-178713D01*
X917725D01*
Y-178999D01*
Y-179285D01*
Y-179572D01*
Y-179858D01*
Y-180144D01*
Y-180431D01*
X917439D01*
Y-180717D01*
Y-181003D01*
Y-181290D01*
Y-181576D01*
Y-181862D01*
Y-182149D01*
Y-182435D01*
X917153D01*
Y-182721D01*
Y-183007D01*
Y-183294D01*
Y-183580D01*
Y-183866D01*
Y-184153D01*
X916866D01*
Y-184439D01*
Y-184725D01*
Y-185012D01*
Y-185298D01*
Y-185584D01*
Y-185871D01*
X916580D01*
Y-186157D01*
Y-186443D01*
Y-186730D01*
Y-187016D01*
Y-187302D01*
Y-187588D01*
X916294D01*
Y-187875D01*
Y-188161D01*
Y-188447D01*
Y-188734D01*
Y-189020D01*
Y-189306D01*
Y-189593D01*
X916007D01*
Y-189879D01*
Y-190165D01*
Y-190452D01*
Y-190738D01*
Y-191024D01*
Y-191311D01*
X915721D01*
Y-191597D01*
Y-191883D01*
X902551D01*
Y-191597D01*
Y-191311D01*
X902837D01*
Y-191024D01*
Y-190738D01*
Y-190452D01*
Y-190165D01*
Y-189879D01*
Y-189593D01*
X903123D01*
Y-189306D01*
Y-189020D01*
Y-188734D01*
Y-188447D01*
Y-188161D01*
Y-187875D01*
Y-187588D01*
X903409D01*
Y-187302D01*
Y-187016D01*
Y-186730D01*
Y-186443D01*
Y-186157D01*
Y-185871D01*
X903696D01*
Y-185584D01*
Y-185298D01*
Y-185012D01*
Y-184725D01*
Y-184439D01*
Y-184153D01*
X903982D01*
Y-183866D01*
Y-183580D01*
Y-183294D01*
Y-183007D01*
Y-182721D01*
Y-182435D01*
Y-182149D01*
X904268D01*
Y-181862D01*
Y-181576D01*
Y-181290D01*
Y-181003D01*
Y-180717D01*
Y-180431D01*
X904555D01*
Y-180144D01*
Y-179858D01*
Y-179572D01*
Y-179285D01*
Y-178999D01*
Y-178713D01*
Y-178426D01*
X904841D01*
Y-178140D01*
Y-177854D01*
Y-177568D01*
Y-177281D01*
Y-176995D01*
Y-176709D01*
X905127D01*
Y-176422D01*
Y-176136D01*
Y-175850D01*
Y-175563D01*
Y-175277D01*
Y-174991D01*
X905414D01*
Y-174704D01*
Y-174418D01*
Y-174132D01*
Y-173845D01*
Y-173559D01*
Y-173273D01*
X905700D01*
Y-172986D01*
Y-172700D01*
Y-172414D01*
Y-172127D01*
Y-171841D01*
Y-171555D01*
Y-171269D01*
X905986D01*
Y-170982D01*
Y-170696D01*
Y-170410D01*
Y-170123D01*
Y-169837D01*
Y-169551D01*
X906273D01*
Y-169264D01*
Y-168978D01*
Y-168692D01*
Y-168405D01*
Y-168119D01*
Y-167833D01*
Y-167547D01*
X906559D01*
Y-167260D01*
Y-166974D01*
Y-166688D01*
Y-166401D01*
Y-166115D01*
Y-165829D01*
X906273D01*
Y-165542D01*
Y-165256D01*
X905986D01*
Y-164970D01*
X905700D01*
Y-164683D01*
X905127D01*
Y-164397D01*
X903409D01*
Y-164683D01*
X901978D01*
Y-164970D01*
X901119D01*
Y-165256D01*
X900546D01*
Y-165542D01*
X900260D01*
Y-165829D01*
X899687D01*
Y-166115D01*
X899401D01*
Y-166401D01*
X899115D01*
Y-166688D01*
Y-166974D01*
X898828D01*
Y-167260D01*
Y-167547D01*
Y-167833D01*
X898542D01*
Y-168119D01*
Y-168405D01*
Y-168692D01*
Y-168978D01*
Y-169264D01*
Y-169551D01*
X898256D01*
Y-169837D01*
Y-170123D01*
Y-170410D01*
Y-170696D01*
Y-170982D01*
Y-171269D01*
Y-171555D01*
X897970D01*
Y-171841D01*
Y-172127D01*
Y-172414D01*
Y-172700D01*
Y-172986D01*
Y-173273D01*
X897683D01*
Y-173559D01*
Y-173845D01*
Y-174132D01*
Y-174418D01*
Y-174704D01*
Y-174991D01*
X897397D01*
Y-175277D01*
Y-175563D01*
Y-175850D01*
Y-176136D01*
Y-176422D01*
Y-176709D01*
X897111D01*
Y-176995D01*
Y-177281D01*
Y-177568D01*
Y-177854D01*
Y-178140D01*
Y-178426D01*
Y-178713D01*
X896824D01*
Y-178999D01*
Y-179285D01*
Y-179572D01*
Y-179858D01*
Y-180144D01*
Y-180431D01*
X896538D01*
Y-180717D01*
Y-181003D01*
Y-181290D01*
Y-181576D01*
Y-181862D01*
Y-182149D01*
X896252D01*
Y-182435D01*
Y-182721D01*
Y-183007D01*
Y-183294D01*
Y-183580D01*
Y-183866D01*
Y-184153D01*
X895965D01*
Y-184439D01*
Y-184725D01*
Y-185012D01*
Y-185298D01*
Y-185584D01*
Y-185871D01*
X895679D01*
Y-186157D01*
Y-186443D01*
Y-186730D01*
Y-187016D01*
Y-187302D01*
Y-187588D01*
X895393D01*
Y-187875D01*
Y-188161D01*
Y-188447D01*
Y-188734D01*
Y-189020D01*
Y-189306D01*
X895106D01*
Y-189593D01*
Y-189879D01*
Y-190165D01*
Y-190452D01*
Y-190738D01*
Y-191024D01*
Y-191311D01*
X894820D01*
Y-191597D01*
Y-191883D01*
X881650D01*
Y-191597D01*
Y-191311D01*
X881936D01*
Y-191024D01*
Y-190738D01*
Y-190452D01*
Y-190165D01*
Y-189879D01*
Y-189593D01*
Y-189306D01*
X882222D01*
Y-189020D01*
Y-188734D01*
Y-188447D01*
Y-188161D01*
Y-187875D01*
Y-187588D01*
X882509D01*
Y-187302D01*
Y-187016D01*
Y-186730D01*
Y-186443D01*
Y-186157D01*
Y-185871D01*
X882795D01*
Y-185584D01*
Y-185298D01*
Y-185012D01*
Y-184725D01*
Y-184439D01*
Y-184153D01*
Y-183866D01*
X883081D01*
Y-183580D01*
Y-183294D01*
Y-183007D01*
Y-182721D01*
Y-182435D01*
Y-182149D01*
X883368D01*
Y-181862D01*
Y-181576D01*
Y-181290D01*
Y-181003D01*
Y-180717D01*
Y-180431D01*
X883654D01*
Y-180144D01*
Y-179858D01*
Y-179572D01*
Y-179285D01*
Y-178999D01*
Y-178713D01*
X883940D01*
Y-178426D01*
Y-178140D01*
Y-177854D01*
Y-177568D01*
Y-177281D01*
Y-176995D01*
Y-176709D01*
X884227D01*
Y-176422D01*
Y-176136D01*
Y-175850D01*
Y-175563D01*
Y-175277D01*
Y-174991D01*
X884513D01*
Y-174704D01*
Y-174418D01*
Y-174132D01*
Y-173845D01*
Y-173559D01*
Y-173273D01*
X884799D01*
Y-172986D01*
Y-172700D01*
Y-172414D01*
Y-172127D01*
Y-171841D01*
Y-171555D01*
Y-171269D01*
X885085D01*
Y-170982D01*
Y-170696D01*
Y-170410D01*
Y-170123D01*
Y-169837D01*
Y-169551D01*
X885372D01*
Y-169264D01*
Y-168978D01*
Y-168692D01*
Y-168405D01*
Y-168119D01*
Y-167833D01*
X885658D01*
Y-167547D01*
Y-167260D01*
Y-166974D01*
Y-166688D01*
Y-166401D01*
Y-166115D01*
X885944D01*
Y-165829D01*
Y-165542D01*
Y-165256D01*
Y-164970D01*
Y-164683D01*
Y-164397D01*
Y-164111D01*
X886231D01*
Y-163824D01*
Y-163538D01*
Y-163252D01*
Y-162966D01*
Y-162679D01*
Y-162393D01*
X886517D01*
Y-162107D01*
Y-161820D01*
Y-161534D01*
Y-161248D01*
Y-160961D01*
Y-160675D01*
X886803D01*
Y-160389D01*
Y-160102D01*
Y-159816D01*
Y-159530D01*
Y-159244D01*
Y-158957D01*
X887090D01*
Y-158671D01*
Y-158385D01*
Y-158098D01*
Y-157812D01*
Y-157526D01*
Y-157239D01*
Y-156953D01*
X887376D01*
Y-156667D01*
Y-156380D01*
Y-156094D01*
Y-155808D01*
Y-155521D01*
Y-155235D01*
X887662D01*
Y-154949D01*
Y-154663D01*
Y-154376D01*
Y-154090D01*
Y-153804D01*
Y-153517D01*
X887949D01*
Y-153231D01*
Y-152945D01*
Y-152658D01*
Y-152372D01*
Y-152086D01*
Y-151799D01*
Y-151513D01*
X888235D01*
Y-151227D01*
Y-150940D01*
Y-150654D01*
Y-150368D01*
Y-150082D01*
Y-149795D01*
X888521D01*
Y-149509D01*
Y-149223D01*
Y-148936D01*
Y-148650D01*
Y-148364D01*
Y-148077D01*
X888807D01*
Y-147791D01*
Y-147505D01*
Y-147218D01*
Y-146932D01*
Y-146646D01*
Y-146359D01*
X889094D01*
Y-146073D01*
Y-145787D01*
Y-145501D01*
Y-145214D01*
Y-144928D01*
Y-144641D01*
Y-144355D01*
X889380D01*
Y-144069D01*
Y-143783D01*
Y-143496D01*
Y-143210D01*
Y-142924D01*
Y-142637D01*
X889666D01*
Y-142351D01*
Y-142065D01*
Y-141778D01*
Y-141492D01*
Y-141206D01*
Y-140919D01*
X889953D01*
Y-140633D01*
Y-140347D01*
Y-140060D01*
Y-139774D01*
Y-139488D01*
Y-139202D01*
Y-138915D01*
X890239D01*
Y-138629D01*
Y-138343D01*
Y-138056D01*
X903409D01*
Y-138343D01*
D02*
G37*
G36*
X1005337Y-155808D02*
X1005050D01*
Y-156094D01*
X1004764D01*
Y-156380D01*
Y-156667D01*
X1004478D01*
Y-156953D01*
X1004192D01*
Y-157239D01*
X1003905D01*
Y-157526D01*
Y-157812D01*
X1003619D01*
Y-158098D01*
X1003333D01*
Y-158385D01*
X1003046D01*
Y-158671D01*
X1002760D01*
Y-158957D01*
Y-159244D01*
X1002474D01*
Y-159530D01*
X1002187D01*
Y-159816D01*
X1001901D01*
Y-160102D01*
Y-160389D01*
X1001615D01*
Y-160675D01*
X1001328D01*
Y-160961D01*
X1001042D01*
Y-161248D01*
X1000756D01*
Y-161534D01*
Y-161820D01*
X1000469D01*
Y-162107D01*
X1000183D01*
Y-162393D01*
X999897D01*
Y-162679D01*
Y-162966D01*
X999611D01*
Y-163252D01*
X999324D01*
Y-163538D01*
X999038D01*
Y-163824D01*
Y-164111D01*
X998752D01*
Y-164397D01*
X998465D01*
Y-164683D01*
X998179D01*
Y-164970D01*
X997893D01*
Y-165256D01*
Y-165542D01*
X997606D01*
Y-165829D01*
X997320D01*
Y-166115D01*
X997034D01*
Y-166401D01*
Y-166688D01*
X996747D01*
Y-166974D01*
X996461D01*
Y-167260D01*
X996175D01*
Y-167547D01*
Y-167833D01*
X995889D01*
Y-168119D01*
X995602D01*
Y-168405D01*
X995316D01*
Y-168692D01*
X995030D01*
Y-168978D01*
Y-169264D01*
X994743D01*
Y-169551D01*
X994457D01*
Y-169837D01*
X994171D01*
Y-170123D01*
Y-170410D01*
X993884D01*
Y-170696D01*
X993598D01*
Y-170982D01*
X993312D01*
Y-171269D01*
Y-171555D01*
X993025D01*
Y-171841D01*
X992739D01*
Y-172127D01*
X992453D01*
Y-172414D01*
X992166D01*
Y-172700D01*
Y-172986D01*
X991880D01*
Y-173273D01*
X991594D01*
Y-173559D01*
X991308D01*
Y-173845D01*
Y-174132D01*
X991021D01*
Y-174418D01*
X990735D01*
Y-174704D01*
X990449D01*
Y-174991D01*
X990162D01*
Y-175277D01*
Y-175563D01*
X990449D01*
Y-175850D01*
Y-176136D01*
X990735D01*
Y-176422D01*
Y-176709D01*
X991021D01*
Y-176995D01*
X991308D01*
Y-177281D01*
Y-177568D01*
X991594D01*
Y-177854D01*
Y-178140D01*
X991880D01*
Y-178426D01*
Y-178713D01*
X992166D01*
Y-178999D01*
Y-179285D01*
X992453D01*
Y-179572D01*
Y-179858D01*
X992739D01*
Y-180144D01*
Y-180431D01*
X993025D01*
Y-180717D01*
Y-181003D01*
X993312D01*
Y-181290D01*
Y-181576D01*
X993598D01*
Y-181862D01*
X993884D01*
Y-182149D01*
Y-182435D01*
X994171D01*
Y-182721D01*
Y-183007D01*
X994457D01*
Y-183294D01*
Y-183580D01*
X994743D01*
Y-183866D01*
Y-184153D01*
X995030D01*
Y-184439D01*
Y-184725D01*
X995316D01*
Y-185012D01*
Y-185298D01*
X995602D01*
Y-185584D01*
Y-185871D01*
X995889D01*
Y-186157D01*
X996175D01*
Y-186443D01*
Y-186730D01*
X996461D01*
Y-187016D01*
Y-187302D01*
X996747D01*
Y-187588D01*
Y-187875D01*
X997034D01*
Y-188161D01*
Y-188447D01*
X997320D01*
Y-188734D01*
Y-189020D01*
X997606D01*
Y-189306D01*
Y-189593D01*
X997893D01*
Y-189879D01*
Y-190165D01*
X998179D01*
Y-190452D01*
X998465D01*
Y-190738D01*
Y-191024D01*
X998752D01*
Y-191311D01*
Y-191597D01*
X999038D01*
Y-191883D01*
X983863D01*
Y-191597D01*
X983577D01*
Y-191311D01*
Y-191024D01*
Y-190738D01*
X983291D01*
Y-190452D01*
Y-190165D01*
Y-189879D01*
X983004D01*
Y-189593D01*
Y-189306D01*
X982718D01*
Y-189020D01*
Y-188734D01*
Y-188447D01*
X982432D01*
Y-188161D01*
Y-187875D01*
Y-187588D01*
X982146D01*
Y-187302D01*
Y-187016D01*
X981859D01*
Y-186730D01*
Y-186443D01*
Y-186157D01*
X981573D01*
Y-185871D01*
Y-185584D01*
Y-185298D01*
X981287D01*
Y-185012D01*
Y-184725D01*
Y-184439D01*
X981000D01*
Y-184153D01*
X980428D01*
Y-184439D01*
Y-184725D01*
X980141D01*
Y-185012D01*
X979855D01*
Y-185298D01*
Y-185584D01*
X979569D01*
Y-185871D01*
X979282D01*
Y-186157D01*
Y-186443D01*
X978996D01*
Y-186730D01*
X978710D01*
Y-187016D01*
Y-187302D01*
X978423D01*
Y-187588D01*
X978137D01*
Y-187875D01*
X977851D01*
Y-188161D01*
Y-188447D01*
X977565D01*
Y-188734D01*
X977278D01*
Y-189020D01*
Y-189306D01*
X976992D01*
Y-189593D01*
X976705D01*
Y-189879D01*
Y-190165D01*
X976419D01*
Y-190452D01*
X976133D01*
Y-190738D01*
Y-191024D01*
X975847D01*
Y-191311D01*
X975560D01*
Y-191597D01*
Y-191883D01*
X959527D01*
Y-191597D01*
X959813D01*
Y-191311D01*
X960099D01*
Y-191024D01*
X960386D01*
Y-190738D01*
X960672D01*
Y-190452D01*
Y-190165D01*
X960958D01*
Y-189879D01*
X961245D01*
Y-189593D01*
X961531D01*
Y-189306D01*
X961817D01*
Y-189020D01*
Y-188734D01*
X962104D01*
Y-188447D01*
X962390D01*
Y-188161D01*
X962676D01*
Y-187875D01*
Y-187588D01*
X962963D01*
Y-187302D01*
X963249D01*
Y-187016D01*
X963535D01*
Y-186730D01*
X963822D01*
Y-186443D01*
Y-186157D01*
X964108D01*
Y-185871D01*
X964394D01*
Y-185584D01*
X964680D01*
Y-185298D01*
X964967D01*
Y-185012D01*
Y-184725D01*
X965253D01*
Y-184439D01*
X965539D01*
Y-184153D01*
X965826D01*
Y-183866D01*
Y-183580D01*
X966112D01*
Y-183294D01*
X966398D01*
Y-183007D01*
X966685D01*
Y-182721D01*
X966971D01*
Y-182435D01*
Y-182149D01*
X967257D01*
Y-181862D01*
X967544D01*
Y-181576D01*
X967830D01*
Y-181290D01*
Y-181003D01*
X968116D01*
Y-180717D01*
X968402D01*
Y-180431D01*
X968689D01*
Y-180144D01*
X968975D01*
Y-179858D01*
Y-179572D01*
X969261D01*
Y-179285D01*
X969548D01*
Y-178999D01*
X969834D01*
Y-178713D01*
Y-178426D01*
X970120D01*
Y-178140D01*
X970407D01*
Y-177854D01*
X970693D01*
Y-177568D01*
X970979D01*
Y-177281D01*
Y-176995D01*
X971266D01*
Y-176709D01*
X971552D01*
Y-176422D01*
X971838D01*
Y-176136D01*
X972124D01*
Y-175850D01*
Y-175563D01*
X972411D01*
Y-175277D01*
X972697D01*
Y-174991D01*
X972983D01*
Y-174704D01*
Y-174418D01*
X973270D01*
Y-174132D01*
X973556D01*
Y-173845D01*
X973842D01*
Y-173559D01*
X974129D01*
Y-173273D01*
Y-172986D01*
X974415D01*
Y-172700D01*
Y-172414D01*
Y-172127D01*
X974129D01*
Y-171841D01*
X973842D01*
Y-171555D01*
Y-171269D01*
X973556D01*
Y-170982D01*
Y-170696D01*
X973270D01*
Y-170410D01*
Y-170123D01*
X972983D01*
Y-169837D01*
Y-169551D01*
X972697D01*
Y-169264D01*
Y-168978D01*
X972411D01*
Y-168692D01*
Y-168405D01*
X972124D01*
Y-168119D01*
X971838D01*
Y-167833D01*
Y-167547D01*
X971552D01*
Y-167260D01*
Y-166974D01*
X971266D01*
Y-166688D01*
Y-166401D01*
X970979D01*
Y-166115D01*
Y-165829D01*
X970693D01*
Y-165542D01*
Y-165256D01*
X970407D01*
Y-164970D01*
Y-164683D01*
X970120D01*
Y-164397D01*
X969834D01*
Y-164111D01*
Y-163824D01*
X969548D01*
Y-163538D01*
Y-163252D01*
X969261D01*
Y-162966D01*
Y-162679D01*
X968975D01*
Y-162393D01*
Y-162107D01*
X968689D01*
Y-161820D01*
Y-161534D01*
X968402D01*
Y-161248D01*
Y-160961D01*
X968116D01*
Y-160675D01*
Y-160389D01*
X967830D01*
Y-160102D01*
X967544D01*
Y-159816D01*
Y-159530D01*
X967257D01*
Y-159244D01*
Y-158957D01*
X966971D01*
Y-158671D01*
Y-158385D01*
X966685D01*
Y-158098D01*
Y-157812D01*
X966398D01*
Y-157526D01*
Y-157239D01*
X966112D01*
Y-156953D01*
Y-156667D01*
X965826D01*
Y-156380D01*
X965539D01*
Y-156094D01*
Y-155808D01*
X965253D01*
Y-155521D01*
X981000D01*
Y-155808D01*
X981287D01*
Y-156094D01*
Y-156380D01*
Y-156667D01*
X981573D01*
Y-156953D01*
Y-157239D01*
Y-157526D01*
X981859D01*
Y-157812D01*
Y-158098D01*
Y-158385D01*
X982146D01*
Y-158671D01*
Y-158957D01*
Y-159244D01*
X982432D01*
Y-159530D01*
Y-159816D01*
Y-160102D01*
X982718D01*
Y-160389D01*
Y-160675D01*
Y-160961D01*
X983004D01*
Y-161248D01*
Y-161534D01*
Y-161820D01*
X983291D01*
Y-162107D01*
Y-162393D01*
Y-162679D01*
X983577D01*
Y-162966D01*
Y-163252D01*
Y-163538D01*
Y-163824D01*
X984150D01*
Y-163538D01*
X984436D01*
Y-163252D01*
X984722D01*
Y-162966D01*
Y-162679D01*
X985009D01*
Y-162393D01*
X985295D01*
Y-162107D01*
Y-161820D01*
X985581D01*
Y-161534D01*
X985868D01*
Y-161248D01*
Y-160961D01*
X986154D01*
Y-160675D01*
X986440D01*
Y-160389D01*
Y-160102D01*
X986726D01*
Y-159816D01*
X987013D01*
Y-159530D01*
Y-159244D01*
X987299D01*
Y-158957D01*
X987585D01*
Y-158671D01*
Y-158385D01*
X987872D01*
Y-158098D01*
X988158D01*
Y-157812D01*
Y-157526D01*
X988444D01*
Y-157239D01*
X988731D01*
Y-156953D01*
Y-156667D01*
X989017D01*
Y-156380D01*
X989303D01*
Y-156094D01*
Y-155808D01*
X989590D01*
Y-155521D01*
X1005337D01*
Y-155808D01*
D02*
G37*
G36*
X961245D02*
Y-156094D01*
Y-156380D01*
Y-156667D01*
Y-156953D01*
Y-157239D01*
Y-157526D01*
Y-157812D01*
Y-158098D01*
Y-158385D01*
Y-158671D01*
Y-158957D01*
Y-159244D01*
Y-159530D01*
Y-159816D01*
Y-160102D01*
Y-160389D01*
Y-160675D01*
Y-160961D01*
Y-161248D01*
Y-161534D01*
X960958D01*
Y-161820D01*
Y-162107D01*
Y-162393D01*
Y-162679D01*
Y-162966D01*
X960672D01*
Y-163252D01*
Y-163538D01*
Y-163824D01*
Y-164111D01*
X960386D01*
Y-164397D01*
Y-164683D01*
Y-164970D01*
Y-165256D01*
X960099D01*
Y-165542D01*
Y-165829D01*
Y-166115D01*
X959813D01*
Y-166401D01*
Y-166688D01*
Y-166974D01*
X959527D01*
Y-167260D01*
Y-167547D01*
Y-167833D01*
X959241D01*
Y-168119D01*
Y-168405D01*
Y-168692D01*
X958954D01*
Y-168978D01*
Y-169264D01*
X958668D01*
Y-169551D01*
Y-169837D01*
X958381D01*
Y-170123D01*
Y-170410D01*
Y-170696D01*
X958095D01*
Y-170982D01*
Y-171269D01*
X957809D01*
Y-171555D01*
Y-171841D01*
Y-172127D01*
X957523D01*
Y-172414D01*
Y-172700D01*
X957236D01*
Y-172986D01*
Y-173273D01*
Y-173559D01*
X956950D01*
Y-173845D01*
Y-174132D01*
X956664D01*
Y-174418D01*
Y-174704D01*
Y-174991D01*
X956377D01*
Y-175277D01*
Y-175563D01*
X956091D01*
Y-175850D01*
Y-176136D01*
Y-176422D01*
X955805D01*
Y-176709D01*
Y-176995D01*
X955518D01*
Y-177281D01*
Y-177568D01*
Y-177854D01*
X955232D01*
Y-178140D01*
Y-178426D01*
X954946D01*
Y-178713D01*
Y-178999D01*
Y-179285D01*
X954659D01*
Y-179572D01*
Y-179858D01*
X954373D01*
Y-180144D01*
Y-180431D01*
Y-180717D01*
X954087D01*
Y-181003D01*
Y-181290D01*
X953800D01*
Y-181576D01*
Y-181862D01*
Y-182149D01*
X953514D01*
Y-182435D01*
Y-182721D01*
X953228D01*
Y-183007D01*
Y-183294D01*
Y-183580D01*
X952942D01*
Y-183866D01*
Y-184153D01*
X952655D01*
Y-184439D01*
Y-184725D01*
Y-185012D01*
X952369D01*
Y-185298D01*
Y-185584D01*
X952083D01*
Y-185871D01*
Y-186157D01*
Y-186443D01*
X951796D01*
Y-186730D01*
Y-187016D01*
X951510D01*
Y-187302D01*
Y-187588D01*
Y-187875D01*
X951224D01*
Y-188161D01*
Y-188447D01*
X950937D01*
Y-188734D01*
Y-189020D01*
Y-189306D01*
X950651D01*
Y-189593D01*
Y-189879D01*
X950365D01*
Y-190165D01*
Y-190452D01*
Y-190738D01*
X950078D01*
Y-191024D01*
Y-191311D01*
X949792D01*
Y-191597D01*
Y-191883D01*
Y-192169D01*
X949506D01*
Y-192456D01*
Y-192742D01*
X949220D01*
Y-193028D01*
Y-193315D01*
X948933D01*
Y-193601D01*
Y-193887D01*
X948647D01*
Y-194174D01*
Y-194460D01*
Y-194746D01*
X948361D01*
Y-195033D01*
X948074D01*
Y-195319D01*
Y-195605D01*
Y-195891D01*
X947788D01*
Y-196178D01*
X947502D01*
Y-196464D01*
Y-196750D01*
X947215D01*
Y-197037D01*
Y-197323D01*
X946929D01*
Y-197609D01*
Y-197896D01*
X946643D01*
Y-198182D01*
Y-198468D01*
X946356D01*
Y-198755D01*
X946070D01*
Y-199041D01*
Y-199327D01*
X945784D01*
Y-199614D01*
Y-199900D01*
X945497D01*
Y-200186D01*
X945211D01*
Y-200472D01*
X944925D01*
Y-200759D01*
Y-201045D01*
X944639D01*
Y-201331D01*
X944352D01*
Y-201618D01*
Y-201904D01*
X944066D01*
Y-202190D01*
X943780D01*
Y-202477D01*
X943493D01*
Y-202763D01*
Y-203049D01*
X943207D01*
Y-203336D01*
X942921D01*
Y-203622D01*
X942634D01*
Y-203908D01*
X942348D01*
Y-204195D01*
X942062D01*
Y-204481D01*
Y-204767D01*
X941775D01*
Y-205053D01*
X941489D01*
Y-205340D01*
X941203D01*
Y-205626D01*
X940916D01*
Y-205912D01*
X940630D01*
Y-206199D01*
X940344D01*
Y-206485D01*
X940057D01*
Y-206771D01*
X939485D01*
Y-207058D01*
X939199D01*
Y-207344D01*
X938912D01*
Y-207630D01*
X938626D01*
Y-207917D01*
X938340D01*
Y-208203D01*
X937767D01*
Y-208489D01*
X937481D01*
Y-208776D01*
X936908D01*
Y-209062D01*
X936622D01*
Y-209348D01*
X936049D01*
Y-209634D01*
X935763D01*
Y-209921D01*
X935190D01*
Y-210207D01*
X934618D01*
Y-210493D01*
X934045D01*
Y-210780D01*
X933472D01*
Y-211066D01*
X932900D01*
Y-211352D01*
X932041D01*
Y-211639D01*
X931468D01*
Y-211925D01*
X930609D01*
Y-212211D01*
X929464D01*
Y-212498D01*
X928319D01*
Y-212784D01*
X926601D01*
Y-213070D01*
X924597D01*
Y-213357D01*
X924310D01*
Y-213070D01*
Y-212784D01*
Y-212498D01*
Y-212211D01*
Y-211925D01*
Y-211639D01*
Y-211352D01*
Y-211066D01*
Y-210780D01*
Y-210493D01*
Y-210207D01*
Y-209921D01*
Y-209634D01*
Y-209348D01*
Y-209062D01*
Y-208776D01*
Y-208489D01*
Y-208203D01*
Y-207917D01*
Y-207630D01*
Y-207344D01*
Y-207058D01*
Y-206771D01*
Y-206485D01*
Y-206199D01*
Y-205912D01*
Y-205626D01*
Y-205340D01*
Y-205053D01*
Y-204767D01*
Y-204481D01*
Y-204195D01*
Y-203908D01*
X924883D01*
Y-203622D01*
X925455D01*
Y-203336D01*
X926028D01*
Y-203049D01*
X926601D01*
Y-202763D01*
X927173D01*
Y-202477D01*
X927746D01*
Y-202190D01*
X928032D01*
Y-201904D01*
X928605D01*
Y-201618D01*
X928891D01*
Y-201331D01*
X929464D01*
Y-201045D01*
X929750D01*
Y-200759D01*
X930037D01*
Y-200472D01*
X930609D01*
Y-200186D01*
X930896D01*
Y-199900D01*
X931182D01*
Y-199614D01*
X931468D01*
Y-199327D01*
X931754D01*
Y-199041D01*
X932041D01*
Y-198755D01*
X932327D01*
Y-198468D01*
X932613D01*
Y-198182D01*
X932900D01*
Y-197896D01*
X933186D01*
Y-197609D01*
X933472D01*
Y-197323D01*
X933759D01*
Y-197037D01*
Y-196750D01*
X934045D01*
Y-196464D01*
X934331D01*
Y-196178D01*
X934618D01*
Y-195891D01*
Y-195605D01*
X934904D01*
Y-195319D01*
X935190D01*
Y-195033D01*
Y-194746D01*
X935476D01*
Y-194460D01*
Y-194174D01*
X935763D01*
Y-193887D01*
X936049D01*
Y-193601D01*
Y-193315D01*
X936335D01*
Y-193028D01*
Y-192742D01*
X936622D01*
Y-192456D01*
Y-192169D01*
X934904D01*
Y-191883D01*
X932900D01*
Y-191597D01*
X931754D01*
Y-191311D01*
X931182D01*
Y-191024D01*
X930323D01*
Y-190738D01*
X929750D01*
Y-190452D01*
X929464D01*
Y-190165D01*
X928891D01*
Y-189879D01*
X928605D01*
Y-189593D01*
X928319D01*
Y-189306D01*
X928032D01*
Y-189020D01*
X927746D01*
Y-188734D01*
X927460D01*
Y-188447D01*
Y-188161D01*
X927173D01*
Y-187875D01*
X926887D01*
Y-187588D01*
Y-187302D01*
X926601D01*
Y-187016D01*
Y-186730D01*
X926315D01*
Y-186443D01*
Y-186157D01*
X926028D01*
Y-185871D01*
Y-185584D01*
Y-185298D01*
X925742D01*
Y-185012D01*
Y-184725D01*
Y-184439D01*
Y-184153D01*
X925455D01*
Y-183866D01*
Y-183580D01*
Y-183294D01*
Y-183007D01*
Y-182721D01*
Y-182435D01*
Y-182149D01*
X925169D01*
Y-181862D01*
Y-181576D01*
Y-181290D01*
Y-181003D01*
Y-180717D01*
Y-180431D01*
Y-180144D01*
Y-179858D01*
Y-179572D01*
Y-179285D01*
Y-178999D01*
Y-178713D01*
Y-178426D01*
Y-178140D01*
Y-177854D01*
X924883D01*
Y-177568D01*
Y-177281D01*
Y-176995D01*
Y-176709D01*
Y-176422D01*
Y-176136D01*
Y-175850D01*
Y-175563D01*
Y-175277D01*
Y-174991D01*
Y-174704D01*
Y-174418D01*
Y-174132D01*
Y-173845D01*
Y-173559D01*
X924597D01*
Y-173273D01*
Y-172986D01*
Y-172700D01*
Y-172414D01*
Y-172127D01*
Y-171841D01*
Y-171555D01*
Y-171269D01*
Y-170982D01*
Y-170696D01*
Y-170410D01*
Y-170123D01*
Y-169837D01*
Y-169551D01*
Y-169264D01*
Y-168978D01*
X924310D01*
Y-168692D01*
Y-168405D01*
Y-168119D01*
Y-167833D01*
Y-167547D01*
Y-167260D01*
Y-166974D01*
Y-166688D01*
Y-166401D01*
Y-166115D01*
Y-165829D01*
Y-165542D01*
Y-165256D01*
Y-164970D01*
Y-164683D01*
Y-164397D01*
X924024D01*
Y-164111D01*
Y-163824D01*
Y-163538D01*
Y-163252D01*
Y-162966D01*
Y-162679D01*
Y-162393D01*
Y-162107D01*
Y-161820D01*
Y-161534D01*
Y-161248D01*
Y-160961D01*
Y-160675D01*
Y-160389D01*
X923738D01*
Y-160102D01*
Y-159816D01*
Y-159530D01*
Y-159244D01*
Y-158957D01*
Y-158671D01*
Y-158385D01*
Y-158098D01*
Y-157812D01*
Y-157526D01*
Y-157239D01*
Y-156953D01*
Y-156667D01*
Y-156380D01*
Y-156094D01*
Y-155808D01*
X923451D01*
Y-155521D01*
X937194D01*
Y-155808D01*
Y-156094D01*
Y-156380D01*
Y-156667D01*
Y-156953D01*
Y-157239D01*
Y-157526D01*
Y-157812D01*
Y-158098D01*
Y-158385D01*
Y-158671D01*
Y-158957D01*
Y-159244D01*
Y-159530D01*
X937481D01*
Y-159816D01*
Y-160102D01*
Y-160389D01*
Y-160675D01*
Y-160961D01*
Y-161248D01*
Y-161534D01*
Y-161820D01*
Y-162107D01*
Y-162393D01*
Y-162679D01*
Y-162966D01*
Y-163252D01*
Y-163538D01*
Y-163824D01*
Y-164111D01*
Y-164397D01*
Y-164683D01*
Y-164970D01*
Y-165256D01*
Y-165542D01*
Y-165829D01*
Y-166115D01*
Y-166401D01*
Y-166688D01*
Y-166974D01*
Y-167260D01*
Y-167547D01*
Y-167833D01*
Y-168119D01*
Y-168405D01*
Y-168692D01*
Y-168978D01*
Y-169264D01*
Y-169551D01*
Y-169837D01*
Y-170123D01*
Y-170410D01*
Y-170696D01*
Y-170982D01*
Y-171269D01*
X937767D01*
Y-171555D01*
X937481D01*
Y-171841D01*
Y-172127D01*
X937767D01*
Y-172414D01*
Y-172700D01*
Y-172986D01*
Y-173273D01*
Y-173559D01*
Y-173845D01*
Y-174132D01*
Y-174418D01*
Y-174704D01*
Y-174991D01*
Y-175277D01*
Y-175563D01*
Y-175850D01*
Y-176136D01*
Y-176422D01*
Y-176709D01*
Y-176995D01*
Y-177281D01*
Y-177568D01*
Y-177854D01*
Y-178140D01*
Y-178426D01*
Y-178713D01*
Y-178999D01*
Y-179285D01*
Y-179572D01*
X938053D01*
Y-179858D01*
Y-180144D01*
Y-180431D01*
X938340D01*
Y-180717D01*
X938626D01*
Y-181003D01*
X938912D01*
Y-181290D01*
X939771D01*
Y-181576D01*
X940630D01*
Y-181290D01*
X940916D01*
Y-181003D01*
Y-180717D01*
Y-180431D01*
X941203D01*
Y-180144D01*
Y-179858D01*
X941489D01*
Y-179572D01*
Y-179285D01*
Y-178999D01*
X941775D01*
Y-178713D01*
Y-178426D01*
Y-178140D01*
X942062D01*
Y-177854D01*
Y-177568D01*
Y-177281D01*
X942348D01*
Y-176995D01*
Y-176709D01*
Y-176422D01*
X942634D01*
Y-176136D01*
Y-175850D01*
X942921D01*
Y-175563D01*
Y-175277D01*
Y-174991D01*
X943207D01*
Y-174704D01*
Y-174418D01*
Y-174132D01*
X943493D01*
Y-173845D01*
Y-173559D01*
Y-173273D01*
X943780D01*
Y-172986D01*
Y-172700D01*
X944066D01*
Y-172414D01*
Y-172127D01*
Y-171841D01*
X944352D01*
Y-171555D01*
Y-171269D01*
Y-170982D01*
X944639D01*
Y-170696D01*
Y-170410D01*
Y-170123D01*
X944925D01*
Y-169837D01*
Y-169551D01*
X945211D01*
Y-169264D01*
Y-168978D01*
Y-168692D01*
X945497D01*
Y-168405D01*
Y-168119D01*
Y-167833D01*
X945784D01*
Y-167547D01*
Y-167260D01*
Y-166974D01*
X946070D01*
Y-166688D01*
Y-166401D01*
X946356D01*
Y-166115D01*
Y-165829D01*
Y-165542D01*
X946643D01*
Y-165256D01*
Y-164970D01*
Y-164683D01*
X946929D01*
Y-164397D01*
Y-164111D01*
Y-163824D01*
X947215D01*
Y-163538D01*
Y-163252D01*
Y-162966D01*
Y-162679D01*
X947502D01*
Y-162393D01*
Y-162107D01*
Y-161820D01*
Y-161534D01*
X947788D01*
Y-161248D01*
Y-160961D01*
Y-160675D01*
Y-160389D01*
Y-160102D01*
X948074D01*
Y-159816D01*
Y-159530D01*
Y-159244D01*
Y-158957D01*
Y-158671D01*
Y-158385D01*
X948361D01*
Y-158098D01*
Y-157812D01*
Y-157526D01*
Y-157239D01*
Y-156953D01*
Y-156667D01*
Y-156380D01*
Y-156094D01*
Y-155808D01*
Y-155521D01*
X961245D01*
Y-155808D01*
D02*
G37*
%LPC*%
G36*
X867907Y-152658D02*
X859890D01*
Y-152945D01*
Y-153231D01*
Y-153517D01*
Y-153804D01*
Y-154090D01*
X859604D01*
Y-154376D01*
Y-154663D01*
Y-154949D01*
Y-155235D01*
Y-155521D01*
Y-155808D01*
X859317D01*
Y-156094D01*
Y-156380D01*
Y-156667D01*
Y-156953D01*
Y-157239D01*
Y-157526D01*
X859031D01*
Y-157812D01*
Y-158098D01*
Y-158385D01*
Y-158671D01*
Y-158957D01*
Y-159244D01*
X858745D01*
Y-159530D01*
Y-159816D01*
Y-160102D01*
Y-160389D01*
Y-160675D01*
Y-160961D01*
Y-161248D01*
X858458D01*
Y-161534D01*
Y-161820D01*
Y-162107D01*
Y-162393D01*
Y-162679D01*
Y-162966D01*
X858172D01*
Y-163252D01*
Y-163538D01*
Y-163824D01*
X865330D01*
Y-163538D01*
X866475D01*
Y-163252D01*
X867048D01*
Y-162966D01*
X867334D01*
Y-162679D01*
X867620D01*
Y-162393D01*
X867907D01*
Y-162107D01*
X868193D01*
Y-161820D01*
Y-161534D01*
X868479D01*
Y-161248D01*
Y-160961D01*
X868766D01*
Y-160675D01*
Y-160389D01*
X869052D01*
Y-160102D01*
Y-159816D01*
Y-159530D01*
Y-159244D01*
X869338D01*
Y-158957D01*
Y-158671D01*
Y-158385D01*
Y-158098D01*
Y-157812D01*
X869625D01*
Y-157526D01*
Y-157239D01*
Y-156953D01*
Y-156667D01*
Y-156380D01*
Y-156094D01*
Y-155808D01*
Y-155521D01*
Y-155235D01*
Y-154949D01*
Y-154663D01*
X869338D01*
Y-154376D01*
Y-154090D01*
X869052D01*
Y-153804D01*
Y-153517D01*
X868766D01*
Y-153231D01*
X868479D01*
Y-152945D01*
X867907D01*
Y-152658D01*
D02*
G37*
%LPD*%
D11*
X716672Y198600D02*
G03*
X716672Y198600I-1750J0D01*
G01*
X715972Y167104D02*
G03*
X715972Y167104I-1050J0D01*
G01*
X716672D02*
G03*
X716672Y167104I-1750J0D01*
G01*
X710013Y210236D02*
X1257314D01*
X710013Y131496D02*
X1257314D01*
X710013Y123622D02*
X1257314D01*
Y218110D01*
X710013D02*
X1257314D01*
X710013Y123622D02*
Y218110D01*
X1183477Y123622D02*
Y218110D01*
X1121946Y123622D02*
Y218110D01*
X1061990Y123622D02*
Y218110D01*
X1004657Y123622D02*
Y218110D01*
X973484Y123622D02*
Y218110D01*
X894636Y123622D02*
Y218110D01*
X855907Y123622D02*
Y218110D01*
X829142Y123622D02*
Y218110D01*
X767611Y123622D02*
Y218110D01*
X739141Y123622D02*
Y218110D01*
X713172Y206474D02*
X714922Y204724D01*
X716672Y206474D01*
X714922Y208224D02*
X716672Y206474D01*
X713172D02*
X714922Y208224D01*
X713172Y188976D02*
Y189851D01*
X714047Y190726D01*
X713172Y191601D02*
X714047Y190726D01*
X713172Y191601D02*
Y192476D01*
X714047D01*
X714922Y191601D01*
X715797Y192476D01*
X716672D01*
Y191601D02*
Y192476D01*
X715797Y190726D02*
X716672Y191601D01*
X715797Y190726D02*
X716672Y189851D01*
Y188976D02*
Y189851D01*
X715797Y188976D02*
X716672D01*
X714922Y189851D02*
X715797Y188976D01*
X714047D02*
X714922Y189851D01*
X713172Y188976D02*
X714047D01*
X713172Y181977D02*
X714047D01*
X713172D02*
Y183727D01*
X714047D01*
Y184602D01*
X715797D01*
Y183727D02*
Y184602D01*
Y183727D02*
X716672D01*
Y181977D02*
Y183727D01*
X715797Y181977D02*
X716672D01*
X715797Y181102D02*
Y181977D01*
X714047Y181102D02*
X715797D01*
X714047D02*
Y181977D01*
Y174103D02*
X714922Y173228D01*
X713172Y174103D02*
X714047D01*
X713172D02*
X714047Y174978D01*
X713172Y175853D02*
X714047Y174978D01*
X713172Y175853D02*
X714047D01*
X714922Y176728D01*
X715797Y175853D01*
X716672D01*
X715797Y174978D02*
X716672Y175853D01*
X715797Y174978D02*
X716672Y174103D01*
X715797D02*
X716672D01*
X714922Y173228D02*
X715797Y174103D01*
X713172Y157480D02*
X716672D01*
Y160980D01*
X713172D02*
X716672D01*
X713172Y157480D02*
Y160980D01*
Y149606D02*
X714922Y150481D01*
X716672Y149606D01*
X715797Y151356D02*
X716672Y149606D01*
X715797Y151356D02*
X716672Y153106D01*
X714922Y152231D02*
X716672Y153106D01*
X713172D02*
X714922Y152231D01*
X713172Y153106D02*
X714047Y151356D01*
X713172Y149606D02*
X714047Y151356D01*
X714922Y141732D02*
X716672Y145232D01*
X713172D02*
X716672D01*
X713172D02*
X714922Y141732D01*
X713872Y134558D02*
X715972D01*
Y136658D01*
X713872D02*
X715972D01*
X713872Y134558D02*
Y136658D01*
X713172Y133858D02*
X716672D01*
Y137358D01*
X713172D02*
X716672D01*
X713172Y133858D02*
Y137358D01*
X1185839Y204724D02*
X1186889D01*
X1186364D01*
Y207873D01*
X1185839Y207348D01*
X1188988Y204200D02*
X1189512Y204724D01*
Y205249D01*
X1188988D01*
Y204724D01*
X1189512D01*
X1188988Y204200D01*
X1188463Y203675D01*
X1191611Y207348D02*
X1192136Y207873D01*
X1193186D01*
X1193710Y207348D01*
Y206823D01*
X1193186Y206299D01*
X1192661D01*
X1193186D01*
X1193710Y205774D01*
Y205249D01*
X1193186Y204724D01*
X1192136D01*
X1191611Y205249D01*
X1194760Y207348D02*
X1195285Y207873D01*
X1196334D01*
X1196859Y207348D01*
Y205249D01*
X1196334Y204724D01*
X1195285D01*
X1194760Y205249D01*
Y207348D01*
X1197908D02*
X1198433Y207873D01*
X1199483D01*
X1200008Y207348D01*
Y205249D01*
X1199483Y204724D01*
X1198433D01*
X1197908Y205249D01*
Y207348D01*
X1201057Y204724D02*
Y206823D01*
X1201582D01*
X1202107Y206299D01*
Y204724D01*
Y206299D01*
X1202631Y206823D01*
X1203156Y206299D01*
Y204724D01*
X1204206D02*
Y206823D01*
X1204731D01*
X1205255Y206299D01*
Y204724D01*
Y206299D01*
X1205780Y206823D01*
X1206305Y206299D01*
Y204724D01*
X1211552D02*
X1210503Y205774D01*
Y206823D01*
X1211552Y207873D01*
X1215226D02*
X1213127D01*
Y206299D01*
X1214176Y206823D01*
X1214701D01*
X1215226Y206299D01*
Y205249D01*
X1214701Y204724D01*
X1213651D01*
X1213127Y205249D01*
X1216275Y204724D02*
X1217325D01*
X1216800D01*
Y207873D01*
X1216275Y207348D01*
X1219424Y204200D02*
X1219949Y204724D01*
Y205249D01*
X1219424D01*
Y204724D01*
X1219949D01*
X1219424Y204200D01*
X1218899Y203675D01*
X1222048Y204724D02*
X1223097D01*
X1222573D01*
Y207873D01*
X1222048Y207348D01*
X1224672D02*
X1225196Y207873D01*
X1226246D01*
X1226771Y207348D01*
Y206823D01*
X1226246Y206299D01*
X1226771Y205774D01*
Y205249D01*
X1226246Y204724D01*
X1225196D01*
X1224672Y205249D01*
Y205774D01*
X1225196Y206299D01*
X1224672Y206823D01*
Y207348D01*
X1225196Y206299D02*
X1226246D01*
X1227820Y204724D02*
Y206823D01*
X1228345D01*
X1228870Y206299D01*
Y204724D01*
Y206299D01*
X1229394Y206823D01*
X1229919Y206299D01*
Y204724D01*
X1230969D02*
X1232018D01*
X1231493D01*
Y206823D01*
X1230969D01*
X1233593Y204724D02*
X1234642D01*
X1234117D01*
Y207873D01*
X1233593D01*
X1236216Y204724D02*
X1237266Y205774D01*
Y206823D01*
X1236216Y207873D01*
X1185839Y198425D02*
X1187938D01*
X1185839Y190551D02*
X1187938D01*
X1185839Y181102D02*
X1186889D01*
X1186364D01*
Y184251D01*
X1185839Y183726D01*
X1188988Y180578D02*
X1189512Y181102D01*
Y181627D01*
X1188988D01*
Y181102D01*
X1189512D01*
X1188988Y180578D01*
X1188463Y180053D01*
X1191611Y184251D02*
X1193710D01*
Y183726D01*
X1191611Y181627D01*
Y181102D01*
X1194760Y183726D02*
X1195285Y184251D01*
X1196334D01*
X1196859Y183726D01*
Y181627D01*
X1196334Y181102D01*
X1195285D01*
X1194760Y181627D01*
Y183726D01*
X1197908D02*
X1198433Y184251D01*
X1199483D01*
X1200008Y183726D01*
Y181627D01*
X1199483Y181102D01*
X1198433D01*
X1197908Y181627D01*
Y183726D01*
X1201057Y181102D02*
Y183201D01*
X1201582D01*
X1202107Y182677D01*
Y181102D01*
Y182677D01*
X1202631Y183201D01*
X1203156Y182677D01*
Y181102D01*
X1204206D02*
Y183201D01*
X1204731D01*
X1205255Y182677D01*
Y181102D01*
Y182677D01*
X1205780Y183201D01*
X1206305Y182677D01*
Y181102D01*
X1211552D02*
X1210503Y182152D01*
Y183201D01*
X1211552Y184251D01*
X1215226D02*
X1214176Y183726D01*
X1213127Y182677D01*
Y181627D01*
X1213651Y181102D01*
X1214701D01*
X1215226Y181627D01*
Y182152D01*
X1214701Y182677D01*
X1213127D01*
X1218374Y184251D02*
X1217325Y183726D01*
X1216275Y182677D01*
Y181627D01*
X1216800Y181102D01*
X1217850D01*
X1218374Y181627D01*
Y182152D01*
X1217850Y182677D01*
X1216275D01*
X1219949Y180578D02*
X1220473Y181102D01*
Y181627D01*
X1219949D01*
Y181102D01*
X1220473D01*
X1219949Y180578D01*
X1219424Y180053D01*
X1222573Y181627D02*
X1223097Y181102D01*
X1224147D01*
X1224672Y181627D01*
Y183726D01*
X1224147Y184251D01*
X1223097D01*
X1222573Y183726D01*
Y183201D01*
X1223097Y182677D01*
X1224672D01*
X1225721Y183726D02*
X1226246Y184251D01*
X1227295D01*
X1227820Y183726D01*
Y183201D01*
X1227295Y182677D01*
X1226771D01*
X1227295D01*
X1227820Y182152D01*
Y181627D01*
X1227295Y181102D01*
X1226246D01*
X1225721Y181627D01*
X1228870Y181102D02*
Y183201D01*
X1229394D01*
X1229919Y182677D01*
Y181102D01*
Y182677D01*
X1230444Y183201D01*
X1230969Y182677D01*
Y181102D01*
X1232018D02*
X1233068D01*
X1232543D01*
Y183201D01*
X1232018D01*
X1234642Y181102D02*
X1235692D01*
X1235167D01*
Y184251D01*
X1234642D01*
X1237266Y181102D02*
X1238315Y182152D01*
Y183201D01*
X1237266Y184251D01*
X1185839Y174803D02*
X1187938D01*
X1185839Y166929D02*
X1187938D01*
X1185839Y159055D02*
X1187938D01*
X1185839Y151181D02*
X1187938D01*
X1185839Y143307D02*
X1187938D01*
X1185839Y135433D02*
X1187938D01*
X1124308Y204724D02*
X1125358D01*
X1124833D01*
Y207873D01*
X1124308Y207348D01*
X1127457Y204200D02*
X1127982Y204724D01*
Y205249D01*
X1127457D01*
Y204724D01*
X1127982D01*
X1127457Y204200D01*
X1126932Y203675D01*
X1130081Y207348D02*
X1130606Y207873D01*
X1131655D01*
X1132180Y207348D01*
Y206823D01*
X1131655Y206299D01*
X1132180Y205774D01*
Y205249D01*
X1131655Y204724D01*
X1130606D01*
X1130081Y205249D01*
Y205774D01*
X1130606Y206299D01*
X1130081Y206823D01*
Y207348D01*
X1130606Y206299D02*
X1131655D01*
X1133229Y207348D02*
X1133754Y207873D01*
X1134804D01*
X1135328Y207348D01*
Y205249D01*
X1134804Y204724D01*
X1133754D01*
X1133229Y205249D01*
Y207348D01*
X1136378D02*
X1136903Y207873D01*
X1137952D01*
X1138477Y207348D01*
Y205249D01*
X1137952Y204724D01*
X1136903D01*
X1136378Y205249D01*
Y207348D01*
X1139526Y204724D02*
Y206823D01*
X1140051D01*
X1140576Y206299D01*
Y204724D01*
Y206299D01*
X1141101Y206823D01*
X1141626Y206299D01*
Y204724D01*
X1142675D02*
Y206823D01*
X1143200D01*
X1143725Y206299D01*
Y204724D01*
Y206299D01*
X1144249Y206823D01*
X1144774Y206299D01*
Y204724D01*
X1150022D02*
X1148972Y205774D01*
Y206823D01*
X1150022Y207873D01*
X1151596D02*
X1153695D01*
Y207348D01*
X1151596Y205249D01*
Y204724D01*
X1154745Y207348D02*
X1155270Y207873D01*
X1156319D01*
X1156844Y207348D01*
Y205249D01*
X1156319Y204724D01*
X1155270D01*
X1154745Y205249D01*
Y207348D01*
X1158418Y204200D02*
X1158943Y204724D01*
Y205249D01*
X1158418D01*
Y204724D01*
X1158943D01*
X1158418Y204200D01*
X1157893Y203675D01*
X1161042Y207348D02*
X1161567Y207873D01*
X1162616D01*
X1163141Y207348D01*
Y206823D01*
X1162616Y206299D01*
X1163141Y205774D01*
Y205249D01*
X1162616Y204724D01*
X1161567D01*
X1161042Y205249D01*
Y205774D01*
X1161567Y206299D01*
X1161042Y206823D01*
Y207348D01*
X1161567Y206299D02*
X1162616D01*
X1164190Y207873D02*
X1166290D01*
Y207348D01*
X1164190Y205249D01*
Y204724D01*
X1167339D02*
Y206823D01*
X1167864D01*
X1168389Y206299D01*
Y204724D01*
Y206299D01*
X1168913Y206823D01*
X1169438Y206299D01*
Y204724D01*
X1170488D02*
X1171537D01*
X1171012D01*
Y206823D01*
X1170488D01*
X1173112Y204724D02*
X1174161D01*
X1173636D01*
Y207873D01*
X1173112D01*
X1175735Y204724D02*
X1176785Y205774D01*
Y206823D01*
X1175735Y207873D01*
X1124308Y198425D02*
X1126407D01*
X1124308Y190551D02*
X1126407D01*
X1124308Y183726D02*
X1124833Y184251D01*
X1125883D01*
X1126407Y183726D01*
Y183201D01*
X1125883Y182677D01*
X1125358D01*
X1125883D01*
X1126407Y182152D01*
Y181627D01*
X1125883Y181102D01*
X1124833D01*
X1124308Y181627D01*
X1127982Y180578D02*
X1128506Y181102D01*
Y181627D01*
X1127982D01*
Y181102D01*
X1128506D01*
X1127982Y180578D01*
X1127457Y180053D01*
X1132705Y184251D02*
X1130606D01*
Y182677D01*
X1131655Y183201D01*
X1132180D01*
X1132705Y182677D01*
Y181627D01*
X1132180Y181102D01*
X1131130D01*
X1130606Y181627D01*
X1133754Y183726D02*
X1134279Y184251D01*
X1135328D01*
X1135853Y183726D01*
Y181627D01*
X1135328Y181102D01*
X1134279D01*
X1133754Y181627D01*
Y183726D01*
X1136903D02*
X1137428Y184251D01*
X1138477D01*
X1139002Y183726D01*
Y181627D01*
X1138477Y181102D01*
X1137428D01*
X1136903Y181627D01*
Y183726D01*
X1140051Y181102D02*
Y183201D01*
X1140576D01*
X1141101Y182677D01*
Y181102D01*
Y182677D01*
X1141626Y183201D01*
X1142150Y182677D01*
Y181102D01*
X1143200D02*
Y183201D01*
X1143725D01*
X1144249Y182677D01*
Y181102D01*
Y182677D01*
X1144774Y183201D01*
X1145299Y182677D01*
Y181102D01*
X1150547D02*
X1149497Y182152D01*
Y183201D01*
X1150547Y184251D01*
X1152121Y181102D02*
X1153170D01*
X1152646D01*
Y184251D01*
X1152121Y183726D01*
X1154745D02*
X1155270Y184251D01*
X1156319D01*
X1156844Y183726D01*
Y183201D01*
X1156319Y182677D01*
X1155794D01*
X1156319D01*
X1156844Y182152D01*
Y181627D01*
X1156319Y181102D01*
X1155270D01*
X1154745Y181627D01*
X1157893Y184251D02*
X1159992D01*
Y183726D01*
X1157893Y181627D01*
Y181102D01*
X1161567Y180578D02*
X1162091Y181102D01*
Y181627D01*
X1161567D01*
Y181102D01*
X1162091D01*
X1161567Y180578D01*
X1161042Y180053D01*
X1164190Y184251D02*
X1166290D01*
Y183726D01*
X1164190Y181627D01*
Y181102D01*
X1167339Y181627D02*
X1167864Y181102D01*
X1168913D01*
X1169438Y181627D01*
Y183726D01*
X1168913Y184251D01*
X1167864D01*
X1167339Y183726D01*
Y183201D01*
X1167864Y182677D01*
X1169438D01*
X1170488Y181102D02*
Y183201D01*
X1171012D01*
X1171537Y182677D01*
Y181102D01*
Y182677D01*
X1172062Y183201D01*
X1172587Y182677D01*
Y181102D01*
X1173636D02*
X1174686D01*
X1174161D01*
Y183201D01*
X1173636D01*
X1176260Y181102D02*
X1177310D01*
X1176785D01*
Y184251D01*
X1176260D01*
X1178884Y181102D02*
X1179933Y182152D01*
Y183201D01*
X1178884Y184251D01*
X1124308Y174803D02*
X1126407D01*
X1124308Y166929D02*
X1126407D01*
X1124308Y159055D02*
X1126407D01*
X1124308Y151181D02*
X1126407D01*
X1124308Y143307D02*
X1126407D01*
X1124308Y135433D02*
X1126407D01*
X1064352Y206823D02*
Y204724D01*
Y205774D01*
X1064877Y206299D01*
X1065402Y206823D01*
X1065926D01*
X1067501Y204724D02*
X1068550D01*
X1068025D01*
Y207873D01*
X1067501Y207348D01*
X1070125Y204724D02*
X1071174D01*
X1070649D01*
Y207873D01*
X1070125Y207348D01*
X1072748D02*
X1073273Y207873D01*
X1074323D01*
X1074847Y207348D01*
Y205249D01*
X1074323Y204724D01*
X1073273D01*
X1072748Y205249D01*
Y207348D01*
X1075897Y204200D02*
X1077996D01*
X1081145Y207873D02*
X1079045D01*
Y206299D01*
X1080095Y206823D01*
X1080620D01*
X1081145Y206299D01*
Y205249D01*
X1080620Y204724D01*
X1079570D01*
X1079045Y205249D01*
X1084293Y207873D02*
X1082194D01*
Y206299D01*
X1083244Y206823D01*
X1083768D01*
X1084293Y206299D01*
Y205249D01*
X1083768Y204724D01*
X1082719D01*
X1082194Y205249D01*
X1085343Y207348D02*
X1085867Y207873D01*
X1086917D01*
X1087442Y207348D01*
Y205249D01*
X1086917Y204724D01*
X1085867D01*
X1085343Y205249D01*
Y207348D01*
X1088491Y207873D02*
Y204724D01*
Y206299D01*
X1089016Y206823D01*
X1090066D01*
X1090590Y206299D01*
Y204724D01*
X1093739Y207873D02*
X1091640D01*
Y206299D01*
X1092689Y206823D01*
X1093214D01*
X1093739Y206299D01*
Y205249D01*
X1093214Y204724D01*
X1092165D01*
X1091640Y205249D01*
X1094788Y207348D02*
X1095313Y207873D01*
X1096363D01*
X1096887Y207348D01*
Y205249D01*
X1096363Y204724D01*
X1095313D01*
X1094788Y205249D01*
Y207348D01*
X1097937Y204200D02*
X1100036D01*
X1101086Y204724D02*
X1102135D01*
X1101610D01*
Y207873D01*
X1101086Y207348D01*
X1103709D02*
X1104234Y207873D01*
X1105284D01*
X1105809Y207348D01*
Y206823D01*
X1105284Y206299D01*
X1105809Y205774D01*
Y205249D01*
X1105284Y204724D01*
X1104234D01*
X1103709Y205249D01*
Y205774D01*
X1104234Y206299D01*
X1103709Y206823D01*
Y207348D01*
X1104234Y206299D02*
X1105284D01*
X1106858Y207348D02*
X1107383Y207873D01*
X1108432D01*
X1108957Y207348D01*
Y205249D01*
X1108432Y204724D01*
X1107383D01*
X1106858Y205249D01*
Y207348D01*
X1110007Y206823D02*
Y204724D01*
Y205774D01*
X1110531Y206299D01*
X1111056Y206823D01*
X1111581D01*
X1115254Y207873D02*
X1113155D01*
Y206299D01*
X1114205Y206823D01*
X1114729D01*
X1115254Y206299D01*
Y205249D01*
X1114729Y204724D01*
X1113680D01*
X1113155Y205249D01*
X1116304Y207348D02*
X1116829Y207873D01*
X1117878D01*
X1118403Y207348D01*
Y205249D01*
X1117878Y204724D01*
X1116829D01*
X1116304Y205249D01*
Y207348D01*
X1066451Y198949D02*
X1064877D01*
X1064352Y198425D01*
Y197375D01*
X1064877Y196850D01*
X1066451D01*
X1067501Y199474D02*
X1068025Y199999D01*
X1069075D01*
X1069600Y199474D01*
Y197375D01*
X1069075Y196850D01*
X1068025D01*
X1067501Y197375D01*
Y199474D01*
X1070649Y199999D02*
Y196850D01*
Y198425D01*
X1071174Y198949D01*
X1072223D01*
X1072748Y198425D01*
Y196850D01*
X1073798D02*
Y198949D01*
X1075372D01*
X1075897Y198425D01*
Y196850D01*
X1076946D02*
X1077996D01*
X1077471D01*
Y199999D01*
X1076946Y199474D01*
X1079570D02*
X1080095Y199999D01*
X1081145D01*
X1081669Y199474D01*
Y197375D01*
X1081145Y196850D01*
X1080095D01*
X1079570Y197375D01*
Y199474D01*
X1082719D02*
X1083244Y199999D01*
X1084293D01*
X1084818Y199474D01*
Y197375D01*
X1084293Y196850D01*
X1083244D01*
X1082719Y197375D01*
Y199474D01*
X1066451Y191075D02*
X1064877D01*
X1064352Y190551D01*
Y189501D01*
X1064877Y188976D01*
X1066451D01*
X1067501D02*
X1068550D01*
X1068025D01*
Y192125D01*
X1067501Y191600D01*
X1072223Y192125D02*
X1071174Y191600D01*
X1070125Y190551D01*
Y189501D01*
X1070649Y188976D01*
X1071699D01*
X1072223Y189501D01*
Y190026D01*
X1071699Y190551D01*
X1070125D01*
X1073273Y191600D02*
X1073798Y192125D01*
X1074847D01*
X1075372Y191600D01*
Y189501D01*
X1074847Y188976D01*
X1073798D01*
X1073273Y189501D01*
Y191600D01*
X1076422Y192125D02*
Y188976D01*
Y190551D01*
X1076946Y191075D01*
X1077996D01*
X1078521Y190551D01*
Y188976D01*
X1079570D02*
Y191075D01*
X1081145D01*
X1081669Y190551D01*
Y188976D01*
X1082719D02*
X1083768D01*
X1083244D01*
Y192125D01*
X1082719Y191600D01*
X1087442Y192125D02*
X1086392Y191600D01*
X1085343Y190551D01*
Y189501D01*
X1085867Y188976D01*
X1086917D01*
X1087442Y189501D01*
Y190026D01*
X1086917Y190551D01*
X1085343D01*
X1088491Y191600D02*
X1089016Y192125D01*
X1090066D01*
X1090590Y191600D01*
Y189501D01*
X1090066Y188976D01*
X1089016D01*
X1088491Y189501D01*
Y191600D01*
X1065402Y181102D02*
X1064352Y182152D01*
Y183201D01*
X1065402Y184251D01*
X1066976Y181102D02*
Y184251D01*
X1068025Y183201D01*
X1069075Y184251D01*
Y181102D01*
X1070125D02*
X1071174D01*
X1070649D01*
Y183201D01*
X1070125D01*
X1072748D02*
X1074847Y181102D01*
X1073798Y182152D01*
X1074847Y183201D01*
X1072748Y181102D01*
X1077471D02*
X1076422D01*
X1075897Y181627D01*
Y182677D01*
X1076422Y183201D01*
X1077471D01*
X1077996Y182677D01*
Y182152D01*
X1075897D01*
X1081145Y184251D02*
Y181102D01*
X1079570D01*
X1079045Y181627D01*
Y182677D01*
X1079570Y183201D01*
X1081145D01*
X1082194Y181102D02*
X1083244Y182152D01*
Y183201D01*
X1082194Y184251D01*
X1065402Y173228D02*
X1064352Y174278D01*
Y175327D01*
X1065402Y176377D01*
X1066976Y173228D02*
Y176377D01*
X1068025Y175327D01*
X1069075Y176377D01*
Y173228D01*
X1070125D02*
X1071174D01*
X1070649D01*
Y175327D01*
X1070125D01*
X1072748D02*
X1074847Y173228D01*
X1073798Y174278D01*
X1074847Y175327D01*
X1072748Y173228D01*
X1077471D02*
X1076422D01*
X1075897Y173753D01*
Y174803D01*
X1076422Y175327D01*
X1077471D01*
X1077996Y174803D01*
Y174278D01*
X1075897D01*
X1081145Y176377D02*
Y173228D01*
X1079570D01*
X1079045Y173753D01*
Y174803D01*
X1079570Y175327D01*
X1081145D01*
X1082194Y173228D02*
X1083244Y174278D01*
Y175327D01*
X1082194Y176377D01*
X1066451Y167453D02*
X1064877D01*
X1064352Y166929D01*
Y165879D01*
X1064877Y165354D01*
X1066451D01*
X1067501Y167978D02*
X1068025Y168503D01*
X1069075D01*
X1069600Y167978D01*
Y167453D01*
X1069075Y166929D01*
X1068550D01*
X1069075D01*
X1069600Y166404D01*
Y165879D01*
X1069075Y165354D01*
X1068025D01*
X1067501Y165879D01*
X1072748Y165354D02*
X1070649D01*
X1072748Y167453D01*
Y167978D01*
X1072223Y168503D01*
X1071174D01*
X1070649Y167978D01*
X1073798D02*
X1074323Y168503D01*
X1075372D01*
X1075897Y167978D01*
Y165879D01*
X1075372Y165354D01*
X1074323D01*
X1073798Y165879D01*
Y167978D01*
X1076946Y168503D02*
Y165354D01*
Y166929D01*
X1077471Y167453D01*
X1078521D01*
X1079045Y166929D01*
Y165354D01*
X1080095D02*
Y167453D01*
X1081669D01*
X1082194Y166929D01*
Y165354D01*
X1083244Y167978D02*
X1083768Y168503D01*
X1084818D01*
X1085343Y167978D01*
Y167453D01*
X1084818Y166929D01*
X1084293D01*
X1084818D01*
X1085343Y166404D01*
Y165879D01*
X1084818Y165354D01*
X1083768D01*
X1083244Y165879D01*
X1088491Y165354D02*
X1086392D01*
X1088491Y167453D01*
Y167978D01*
X1087967Y168503D01*
X1086917D01*
X1086392Y167978D01*
X1089541D02*
X1090065Y168503D01*
X1091115D01*
X1091640Y167978D01*
Y165879D01*
X1091115Y165354D01*
X1090065D01*
X1089541Y165879D01*
Y167978D01*
X1092689Y165354D02*
Y167453D01*
X1093214D01*
X1093739Y166929D01*
Y165354D01*
Y166929D01*
X1094264Y167453D01*
X1094788Y166929D01*
Y165354D01*
X1097412D02*
Y168503D01*
X1095838Y166929D01*
X1097937D01*
X1101086Y165354D02*
X1098987D01*
X1101086Y167453D01*
Y167978D01*
X1100561Y168503D01*
X1099511D01*
X1098987Y167978D01*
X1102135D02*
X1102660Y168503D01*
X1103709D01*
X1104234Y167978D01*
Y165879D01*
X1103709Y165354D01*
X1102660D01*
X1102135Y165879D01*
Y167978D01*
X1065402Y157480D02*
X1064352Y158530D01*
Y159579D01*
X1065402Y160629D01*
X1066976Y157480D02*
Y160629D01*
X1068025Y159579D01*
X1069075Y160629D01*
Y157480D01*
X1070125D02*
X1071174D01*
X1070649D01*
Y159579D01*
X1070125D01*
X1072748D02*
X1074847Y157480D01*
X1073798Y158530D01*
X1074847Y159579D01*
X1072748Y157480D01*
X1077471D02*
X1076422D01*
X1075897Y158005D01*
Y159055D01*
X1076422Y159579D01*
X1077471D01*
X1077996Y159055D01*
Y158530D01*
X1075897D01*
X1081145Y160629D02*
Y157480D01*
X1079570D01*
X1079045Y158005D01*
Y159055D01*
X1079570Y159579D01*
X1081145D01*
X1082194Y157480D02*
X1083244Y158530D01*
Y159579D01*
X1082194Y160629D01*
X1065402Y149606D02*
X1064352Y150656D01*
Y151705D01*
X1065402Y152755D01*
X1066976Y149606D02*
Y152755D01*
X1068025Y151705D01*
X1069075Y152755D01*
Y149606D01*
X1070125D02*
X1071174D01*
X1070649D01*
Y151705D01*
X1070125D01*
X1072748D02*
X1074847Y149606D01*
X1073798Y150656D01*
X1074847Y151705D01*
X1072748Y149606D01*
X1077471D02*
X1076422D01*
X1075897Y150131D01*
Y151181D01*
X1076422Y151705D01*
X1077471D01*
X1077996Y151181D01*
Y150656D01*
X1075897D01*
X1081145Y152755D02*
Y149606D01*
X1079570D01*
X1079045Y150131D01*
Y151181D01*
X1079570Y151705D01*
X1081145D01*
X1082194Y149606D02*
X1083244Y150656D01*
Y151705D01*
X1082194Y152755D01*
X1065402Y141732D02*
X1064352Y142782D01*
Y143831D01*
X1065402Y144881D01*
X1066976Y141732D02*
Y144881D01*
X1068025Y143831D01*
X1069075Y144881D01*
Y141732D01*
X1070125D02*
X1071174D01*
X1070649D01*
Y143831D01*
X1070125D01*
X1072748D02*
X1074847Y141732D01*
X1073798Y142782D01*
X1074847Y143831D01*
X1072748Y141732D01*
X1077471D02*
X1076422D01*
X1075897Y142257D01*
Y143307D01*
X1076422Y143831D01*
X1077471D01*
X1077996Y143307D01*
Y142782D01*
X1075897D01*
X1081145Y144881D02*
Y141732D01*
X1079570D01*
X1079045Y142257D01*
Y143307D01*
X1079570Y143831D01*
X1081145D01*
X1082194Y141732D02*
X1083244Y142782D01*
Y143831D01*
X1082194Y144881D01*
X1064352Y135957D02*
X1065402Y133858D01*
X1066451Y135957D01*
X1067501Y137007D02*
X1069600D01*
Y136482D01*
X1067501Y134383D01*
Y133858D01*
X1070649Y136482D02*
X1071174Y137007D01*
X1072223D01*
X1072748Y136482D01*
Y134383D01*
X1072223Y133858D01*
X1071174D01*
X1070649Y134383D01*
Y136482D01*
X1073798Y137007D02*
Y133858D01*
Y135433D01*
X1074323Y135957D01*
X1075372D01*
X1075897Y135433D01*
Y133858D01*
X1076946Y136482D02*
X1077471Y137007D01*
X1078521D01*
X1079045Y136482D01*
Y135957D01*
X1078521Y135433D01*
X1077996D01*
X1078521D01*
X1079045Y134908D01*
Y134383D01*
X1078521Y133858D01*
X1077471D01*
X1076946Y134383D01*
X1080095Y136482D02*
X1080620Y137007D01*
X1081669D01*
X1082194Y136482D01*
Y134383D01*
X1081669Y133858D01*
X1080620D01*
X1080095Y134383D01*
Y136482D01*
X1083244Y133858D02*
Y135957D01*
X1083768D01*
X1084293Y135433D01*
Y133858D01*
Y135433D01*
X1084818Y135957D01*
X1085343Y135433D01*
Y133858D01*
X1086392Y136482D02*
X1086917Y137007D01*
X1087967D01*
X1088491Y136482D01*
Y134383D01*
X1087967Y133858D01*
X1086917D01*
X1086392Y134383D01*
Y136482D01*
X1089541Y133858D02*
Y135957D01*
X1090065D01*
X1090590Y135433D01*
Y133858D01*
Y135433D01*
X1091115Y135957D01*
X1091640Y135433D01*
Y133858D01*
X1092689Y135957D02*
X1094788Y133858D01*
X1093739Y134908D01*
X1094788Y135957D01*
X1092689Y133858D01*
X1097937Y137007D02*
X1096887Y136482D01*
X1095838Y135433D01*
Y134383D01*
X1096363Y133858D01*
X1097412D01*
X1097937Y134383D01*
Y134908D01*
X1097412Y135433D01*
X1095838D01*
X1098987Y136482D02*
X1099511Y137007D01*
X1100561D01*
X1101086Y136482D01*
Y134383D01*
X1100561Y133858D01*
X1099511D01*
X1098987Y134383D01*
Y136482D01*
X1007020Y204724D02*
Y207873D01*
X1008594D01*
X1009119Y207348D01*
Y206299D01*
X1008594Y205774D01*
X1007020D01*
X1008069D02*
X1009119Y204724D01*
X1010693D02*
X1011742D01*
X1012267Y205249D01*
Y206299D01*
X1011742Y206823D01*
X1010693D01*
X1010168Y206299D01*
Y205249D01*
X1010693Y204724D01*
X1013317Y206823D02*
Y205249D01*
X1013842Y204724D01*
X1015416D01*
Y206823D01*
X1016465Y204724D02*
Y206823D01*
X1018040D01*
X1018564Y206299D01*
Y204724D01*
X1021713Y207873D02*
Y204724D01*
X1020139D01*
X1019614Y205249D01*
Y206299D01*
X1020139Y206823D01*
X1021713D01*
X1024337Y204724D02*
X1023287D01*
X1022762Y205249D01*
Y206299D01*
X1023287Y206823D01*
X1024337D01*
X1024862Y206299D01*
Y205774D01*
X1022762D01*
X1028010Y207873D02*
Y204724D01*
X1026436D01*
X1025911Y205249D01*
Y206299D01*
X1026436Y206823D01*
X1028010D01*
X1032208Y204724D02*
Y207873D01*
X1033783D01*
X1034307Y207348D01*
Y206299D01*
X1033783Y205774D01*
X1032208D01*
X1033258D02*
X1034307Y204724D01*
X1036931D02*
X1035882D01*
X1035357Y205249D01*
Y206299D01*
X1035882Y206823D01*
X1036931D01*
X1037456Y206299D01*
Y205774D01*
X1035357D01*
X1040605Y206823D02*
X1039030D01*
X1038505Y206299D01*
Y205249D01*
X1039030Y204724D01*
X1040605D01*
X1042179Y207348D02*
Y206823D01*
X1041654D01*
X1042704D01*
X1042179D01*
Y205249D01*
X1042704Y204724D01*
X1044803Y206823D02*
X1045852D01*
X1046377Y206299D01*
Y204724D01*
X1044803D01*
X1044278Y205249D01*
X1044803Y205774D01*
X1046377D01*
X1047427Y204724D02*
Y206823D01*
X1049001D01*
X1049526Y206299D01*
Y204724D01*
X1051625Y203675D02*
X1052149D01*
X1052674Y204200D01*
Y206823D01*
X1051100D01*
X1050575Y206299D01*
Y205249D01*
X1051100Y204724D01*
X1052674D01*
X1053724D02*
X1054773D01*
X1054249D01*
Y207873D01*
X1053724D01*
X1057922Y204724D02*
X1056872D01*
X1056347Y205249D01*
Y206299D01*
X1056872Y206823D01*
X1057922D01*
X1058447Y206299D01*
Y205774D01*
X1056347D01*
X1007020Y196850D02*
Y199999D01*
X1008594D01*
X1009119Y199474D01*
Y198425D01*
X1008594Y197900D01*
X1007020D01*
X1008069D02*
X1009119Y196850D01*
X1010693D02*
X1011742D01*
X1012267Y197375D01*
Y198425D01*
X1011742Y198949D01*
X1010693D01*
X1010168Y198425D01*
Y197375D01*
X1010693Y196850D01*
X1013317Y198949D02*
Y197375D01*
X1013842Y196850D01*
X1015416D01*
Y198949D01*
X1016465Y196850D02*
Y198949D01*
X1018040D01*
X1018564Y198425D01*
Y196850D01*
X1021713Y199999D02*
Y196850D01*
X1020139D01*
X1019614Y197375D01*
Y198425D01*
X1020139Y198949D01*
X1021713D01*
X1024337Y196850D02*
X1023287D01*
X1022762Y197375D01*
Y198425D01*
X1023287Y198949D01*
X1024337D01*
X1024862Y198425D01*
Y197900D01*
X1022762D01*
X1028010Y199999D02*
Y196850D01*
X1026436D01*
X1025911Y197375D01*
Y198425D01*
X1026436Y198949D01*
X1028010D01*
X1007020Y188976D02*
Y192125D01*
X1008594D01*
X1009119Y191600D01*
Y190551D01*
X1008594Y190026D01*
X1007020D01*
X1008069D02*
X1009119Y188976D01*
X1010693D02*
X1011742D01*
X1012267Y189501D01*
Y190551D01*
X1011742Y191075D01*
X1010693D01*
X1010168Y190551D01*
Y189501D01*
X1010693Y188976D01*
X1013317Y191075D02*
Y189501D01*
X1013842Y188976D01*
X1015416D01*
Y191075D01*
X1016465Y188976D02*
Y191075D01*
X1018040D01*
X1018564Y190551D01*
Y188976D01*
X1021713Y192125D02*
Y188976D01*
X1020139D01*
X1019614Y189501D01*
Y190551D01*
X1020139Y191075D01*
X1021713D01*
X1024337Y188976D02*
X1023287D01*
X1022762Y189501D01*
Y190551D01*
X1023287Y191075D01*
X1024337D01*
X1024862Y190551D01*
Y190026D01*
X1022762D01*
X1028010Y192125D02*
Y188976D01*
X1026436D01*
X1025911Y189501D01*
Y190551D01*
X1026436Y191075D01*
X1028010D01*
X1007020Y181102D02*
Y184251D01*
X1008594D01*
X1009119Y183726D01*
Y182677D01*
X1008594Y182152D01*
X1007020D01*
X1008069D02*
X1009119Y181102D01*
X1010693D02*
X1011742D01*
X1012267Y181627D01*
Y182677D01*
X1011742Y183201D01*
X1010693D01*
X1010168Y182677D01*
Y181627D01*
X1010693Y181102D01*
X1013317Y183201D02*
Y181627D01*
X1013842Y181102D01*
X1015416D01*
Y183201D01*
X1016465Y181102D02*
Y183201D01*
X1018040D01*
X1018564Y182677D01*
Y181102D01*
X1021713Y184251D02*
Y181102D01*
X1020139D01*
X1019614Y181627D01*
Y182677D01*
X1020139Y183201D01*
X1021713D01*
X1024337Y181102D02*
X1023287D01*
X1022762Y181627D01*
Y182677D01*
X1023287Y183201D01*
X1024337D01*
X1024862Y182677D01*
Y182152D01*
X1022762D01*
X1028010Y184251D02*
Y181102D01*
X1026436D01*
X1025911Y181627D01*
Y182677D01*
X1026436Y183201D01*
X1028010D01*
X1032208Y181102D02*
Y184251D01*
X1033783D01*
X1034307Y183726D01*
Y182677D01*
X1033783Y182152D01*
X1032208D01*
X1033258D02*
X1034307Y181102D01*
X1036931D02*
X1035882D01*
X1035357Y181627D01*
Y182677D01*
X1035882Y183201D01*
X1036931D01*
X1037456Y182677D01*
Y182152D01*
X1035357D01*
X1040605Y183201D02*
X1039030D01*
X1038505Y182677D01*
Y181627D01*
X1039030Y181102D01*
X1040605D01*
X1042179Y183726D02*
Y183201D01*
X1041654D01*
X1042704D01*
X1042179D01*
Y181627D01*
X1042704Y181102D01*
X1044803Y183201D02*
X1045852D01*
X1046377Y182677D01*
Y181102D01*
X1044803D01*
X1044278Y181627D01*
X1044803Y182152D01*
X1046377D01*
X1047427Y181102D02*
Y183201D01*
X1049001D01*
X1049526Y182677D01*
Y181102D01*
X1051625Y180053D02*
X1052149D01*
X1052674Y180578D01*
Y183201D01*
X1051100D01*
X1050575Y182677D01*
Y181627D01*
X1051100Y181102D01*
X1052674D01*
X1053724D02*
X1054773D01*
X1054249D01*
Y184251D01*
X1053724D01*
X1057922Y181102D02*
X1056872D01*
X1056347Y181627D01*
Y182677D01*
X1056872Y183201D01*
X1057922D01*
X1058447Y182677D01*
Y182152D01*
X1056347D01*
X1008069Y173228D02*
X1007020Y174278D01*
Y175327D01*
X1008069Y176377D01*
X1009643Y173228D02*
Y176377D01*
X1010693Y175327D01*
X1011742Y176377D01*
Y173228D01*
X1012792D02*
X1013842D01*
X1013317D01*
Y175327D01*
X1012792D01*
X1015416D02*
X1017515Y173228D01*
X1016465Y174278D01*
X1017515Y175327D01*
X1015416Y173228D01*
X1020139D02*
X1019089D01*
X1018564Y173753D01*
Y174803D01*
X1019089Y175327D01*
X1020139D01*
X1020664Y174803D01*
Y174278D01*
X1018564D01*
X1023812Y176377D02*
Y173228D01*
X1022238D01*
X1021713Y173753D01*
Y174803D01*
X1022238Y175327D01*
X1023812D01*
X1024862Y173228D02*
X1025911Y174278D01*
Y175327D01*
X1024862Y176377D01*
X1007020Y165354D02*
Y168503D01*
X1008594D01*
X1009119Y167978D01*
Y166929D01*
X1008594Y166404D01*
X1007020D01*
X1008069D02*
X1009119Y165354D01*
X1010693D02*
X1011742D01*
X1012267Y165879D01*
Y166929D01*
X1011742Y167453D01*
X1010693D01*
X1010168Y166929D01*
Y165879D01*
X1010693Y165354D01*
X1013317Y167453D02*
Y165879D01*
X1013842Y165354D01*
X1015416D01*
Y167453D01*
X1016465Y165354D02*
Y167453D01*
X1018040D01*
X1018564Y166929D01*
Y165354D01*
X1021713Y168503D02*
Y165354D01*
X1020139D01*
X1019614Y165879D01*
Y166929D01*
X1020139Y167453D01*
X1021713D01*
X1024337Y165354D02*
X1023287D01*
X1022762Y165879D01*
Y166929D01*
X1023287Y167453D01*
X1024337D01*
X1024862Y166929D01*
Y166404D01*
X1022762D01*
X1028010Y168503D02*
Y165354D01*
X1026436D01*
X1025911Y165879D01*
Y166929D01*
X1026436Y167453D01*
X1028010D01*
X1008069Y157480D02*
X1007020Y158530D01*
Y159579D01*
X1008069Y160629D01*
X1009643Y157480D02*
Y160629D01*
X1010693Y159579D01*
X1011742Y160629D01*
Y157480D01*
X1012792D02*
X1013842D01*
X1013317D01*
Y159579D01*
X1012792D01*
X1015416D02*
X1017515Y157480D01*
X1016465Y158530D01*
X1017515Y159579D01*
X1015416Y157480D01*
X1020139D02*
X1019089D01*
X1018564Y158005D01*
Y159055D01*
X1019089Y159579D01*
X1020139D01*
X1020664Y159055D01*
Y158530D01*
X1018564D01*
X1023812Y160629D02*
Y157480D01*
X1022238D01*
X1021713Y158005D01*
Y159055D01*
X1022238Y159579D01*
X1023812D01*
X1024862Y157480D02*
X1025911Y158530D01*
Y159579D01*
X1024862Y160629D01*
X1008069Y149606D02*
X1007020Y150656D01*
Y151705D01*
X1008069Y152755D01*
X1009643Y149606D02*
Y152755D01*
X1010693Y151705D01*
X1011742Y152755D01*
Y149606D01*
X1012792D02*
X1013842D01*
X1013317D01*
Y151705D01*
X1012792D01*
X1015416D02*
X1017515Y149606D01*
X1016465Y150656D01*
X1017515Y151705D01*
X1015416Y149606D01*
X1020139D02*
X1019089D01*
X1018564Y150131D01*
Y151181D01*
X1019089Y151705D01*
X1020139D01*
X1020664Y151181D01*
Y150656D01*
X1018564D01*
X1023812Y152755D02*
Y149606D01*
X1022238D01*
X1021713Y150131D01*
Y151181D01*
X1022238Y151705D01*
X1023812D01*
X1024862Y149606D02*
X1025911Y150656D01*
Y151705D01*
X1024862Y152755D01*
X1007020Y141732D02*
Y144881D01*
X1008594D01*
X1009119Y144356D01*
Y143307D01*
X1008594Y142782D01*
X1007020D01*
X1008069D02*
X1009119Y141732D01*
X1010693D02*
X1011742D01*
X1012267Y142257D01*
Y143307D01*
X1011742Y143831D01*
X1010693D01*
X1010168Y143307D01*
Y142257D01*
X1010693Y141732D01*
X1013317Y143831D02*
Y142257D01*
X1013842Y141732D01*
X1015416D01*
Y143831D01*
X1016465Y141732D02*
Y143831D01*
X1018040D01*
X1018564Y143307D01*
Y141732D01*
X1021713Y144881D02*
Y141732D01*
X1020139D01*
X1019614Y142257D01*
Y143307D01*
X1020139Y143831D01*
X1021713D01*
X1024337Y141732D02*
X1023287D01*
X1022762Y142257D01*
Y143307D01*
X1023287Y143831D01*
X1024337D01*
X1024862Y143307D01*
Y142782D01*
X1022762D01*
X1028010Y144881D02*
Y141732D01*
X1026436D01*
X1025911Y142257D01*
Y143307D01*
X1026436Y143831D01*
X1028010D01*
X1007020Y133858D02*
Y137007D01*
X1008594D01*
X1009119Y136482D01*
Y135433D01*
X1008594Y134908D01*
X1007020D01*
X1008069D02*
X1009119Y133858D01*
X1010693D02*
X1011742D01*
X1012267Y134383D01*
Y135433D01*
X1011742Y135957D01*
X1010693D01*
X1010168Y135433D01*
Y134383D01*
X1010693Y133858D01*
X1013317Y135957D02*
Y134383D01*
X1013842Y133858D01*
X1015416D01*
Y135957D01*
X1016465Y133858D02*
Y135957D01*
X1018040D01*
X1018564Y135433D01*
Y133858D01*
X1021713Y137007D02*
Y133858D01*
X1020139D01*
X1019614Y134383D01*
Y135433D01*
X1020139Y135957D01*
X1021713D01*
X1024337Y133858D02*
X1023287D01*
X1022762Y134383D01*
Y135433D01*
X1023287Y135957D01*
X1024337D01*
X1024862Y135433D01*
Y134908D01*
X1022762D01*
X1028010Y137007D02*
Y133858D01*
X1026436D01*
X1025911Y134383D01*
Y135433D01*
X1026436Y135957D01*
X1028010D01*
X975846Y204724D02*
Y207873D01*
X977421D01*
X977946Y207348D01*
Y206299D01*
X977421Y205774D01*
X975846D01*
X979520Y206823D02*
X980569D01*
X981094Y206299D01*
Y204724D01*
X979520D01*
X978995Y205249D01*
X979520Y205774D01*
X981094D01*
X984243Y207873D02*
Y204724D01*
X982668D01*
X982144Y205249D01*
Y206299D01*
X982668Y206823D01*
X984243D01*
X975846Y196850D02*
Y199999D01*
X977421D01*
X977946Y199474D01*
Y198425D01*
X977421Y197900D01*
X975846D01*
X979520Y198949D02*
X980569D01*
X981094Y198425D01*
Y196850D01*
X979520D01*
X978995Y197375D01*
X979520Y197900D01*
X981094D01*
X984243Y199999D02*
Y196850D01*
X982668D01*
X982144Y197375D01*
Y198425D01*
X982668Y198949D01*
X984243D01*
X975846Y188976D02*
Y192125D01*
X977421D01*
X977946Y191600D01*
Y190551D01*
X977421Y190026D01*
X975846D01*
X979520Y191075D02*
X980569D01*
X981094Y190551D01*
Y188976D01*
X979520D01*
X978995Y189501D01*
X979520Y190026D01*
X981094D01*
X984243Y192125D02*
Y188976D01*
X982668D01*
X982144Y189501D01*
Y190551D01*
X982668Y191075D01*
X984243D01*
X975846Y181102D02*
Y184251D01*
X977421D01*
X977946Y183726D01*
Y182677D01*
X977421Y182152D01*
X975846D01*
X979520Y183201D02*
X980569D01*
X981094Y182677D01*
Y181102D01*
X979520D01*
X978995Y181627D01*
X979520Y182152D01*
X981094D01*
X984243Y184251D02*
Y181102D01*
X982668D01*
X982144Y181627D01*
Y182677D01*
X982668Y183201D01*
X984243D01*
X975846Y173228D02*
Y176377D01*
X977421D01*
X977946Y175852D01*
Y174803D01*
X977421Y174278D01*
X975846D01*
X979520Y175327D02*
X980569D01*
X981094Y174803D01*
Y173228D01*
X979520D01*
X978995Y173753D01*
X979520Y174278D01*
X981094D01*
X984243Y176377D02*
Y173228D01*
X982668D01*
X982144Y173753D01*
Y174803D01*
X982668Y175327D01*
X984243D01*
X975846Y165354D02*
Y168503D01*
X977421D01*
X977946Y167978D01*
Y166929D01*
X977421Y166404D01*
X975846D01*
X979520Y167453D02*
X980569D01*
X981094Y166929D01*
Y165354D01*
X979520D01*
X978995Y165879D01*
X979520Y166404D01*
X981094D01*
X984243Y168503D02*
Y165354D01*
X982668D01*
X982144Y165879D01*
Y166929D01*
X982668Y167453D01*
X984243D01*
X975846Y157480D02*
Y160629D01*
X977421D01*
X977946Y160104D01*
Y159055D01*
X977421Y158530D01*
X975846D01*
X979520Y159579D02*
X980569D01*
X981094Y159055D01*
Y157480D01*
X979520D01*
X978995Y158005D01*
X979520Y158530D01*
X981094D01*
X984243Y160629D02*
Y157480D01*
X982668D01*
X982144Y158005D01*
Y159055D01*
X982668Y159579D01*
X984243D01*
X975846Y149606D02*
Y152755D01*
X977421D01*
X977946Y152230D01*
Y151181D01*
X977421Y150656D01*
X975846D01*
X979520Y151705D02*
X980569D01*
X981094Y151181D01*
Y149606D01*
X979520D01*
X978995Y150131D01*
X979520Y150656D01*
X981094D01*
X984243Y152755D02*
Y149606D01*
X982668D01*
X982144Y150131D01*
Y151181D01*
X982668Y151705D01*
X984243D01*
X975846Y141732D02*
Y144881D01*
X977421D01*
X977946Y144356D01*
Y143307D01*
X977421Y142782D01*
X975846D01*
X979520Y143831D02*
X980569D01*
X981094Y143307D01*
Y141732D01*
X979520D01*
X978995Y142257D01*
X979520Y142782D01*
X981094D01*
X984243Y144881D02*
Y141732D01*
X982668D01*
X982144Y142257D01*
Y143307D01*
X982668Y143831D01*
X984243D01*
X975846Y137007D02*
Y134908D01*
X976896Y133858D01*
X977946Y134908D01*
Y137007D01*
X978995Y133858D02*
X980044D01*
X979520D01*
Y135957D01*
X978995D01*
X982144D02*
X983193D01*
X983718Y135433D01*
Y133858D01*
X982144D01*
X981619Y134383D01*
X982144Y134908D01*
X983718D01*
X896999Y207873D02*
X899098D01*
X898048D01*
Y204724D01*
X900672D02*
X901721D01*
X902246Y205249D01*
Y206299D01*
X901721Y206823D01*
X900672D01*
X900147Y206299D01*
Y205249D01*
X900672Y204724D01*
X903296Y203675D02*
Y206823D01*
X904870D01*
X905395Y206299D01*
Y205249D01*
X904870Y204724D01*
X903296D01*
X909593Y207873D02*
Y204724D01*
X911692D01*
X913266Y206823D02*
X914316D01*
X914841Y206299D01*
Y204724D01*
X913266D01*
X912741Y205249D01*
X913266Y205774D01*
X914841D01*
X915890Y206823D02*
Y205249D01*
X916415Y204724D01*
X917989D01*
Y204200D01*
X917464Y203675D01*
X916940D01*
X917989Y204724D02*
Y206823D01*
X920613Y204724D02*
X919563D01*
X919039Y205249D01*
Y206299D01*
X919563Y206823D01*
X920613D01*
X921138Y206299D01*
Y205774D01*
X919039D01*
X922187Y206823D02*
Y204724D01*
Y205774D01*
X922712Y206299D01*
X923237Y206823D01*
X923762D01*
X928485Y206299D02*
X930583D01*
X934782Y207873D02*
Y204724D01*
X936356D01*
X936881Y205249D01*
Y205774D01*
X936356Y206299D01*
X934782D01*
X936356D01*
X936881Y206823D01*
Y207348D01*
X936356Y207873D01*
X934782D01*
X938455Y204724D02*
X939505D01*
X940029Y205249D01*
Y206299D01*
X939505Y206823D01*
X938455D01*
X937930Y206299D01*
Y205249D01*
X938455Y204724D01*
X941604Y207348D02*
Y206823D01*
X941079D01*
X942128D01*
X941604D01*
Y205249D01*
X942128Y204724D01*
X944227Y207348D02*
Y206823D01*
X943703D01*
X944752D01*
X944227D01*
Y205249D01*
X944752Y204724D01*
X946851D02*
X947901D01*
X948426Y205249D01*
Y206299D01*
X947901Y206823D01*
X946851D01*
X946327Y206299D01*
Y205249D01*
X946851Y204724D01*
X949475D02*
Y206823D01*
X950000D01*
X950525Y206299D01*
Y204724D01*
Y206299D01*
X951049Y206823D01*
X951574Y206299D01*
Y204724D01*
X955772Y207873D02*
Y204724D01*
X957871D01*
X959446Y206823D02*
X960495D01*
X961020Y206299D01*
Y204724D01*
X959446D01*
X958921Y205249D01*
X959446Y205774D01*
X961020D01*
X962070Y206823D02*
Y205249D01*
X962594Y204724D01*
X964168D01*
Y204200D01*
X963644Y203675D01*
X963119D01*
X964168Y204724D02*
Y206823D01*
X966792Y204724D02*
X965743D01*
X965218Y205249D01*
Y206299D01*
X965743Y206823D01*
X966792D01*
X967317Y206299D01*
Y205774D01*
X965218D01*
X968367Y206823D02*
Y204724D01*
Y205774D01*
X968891Y206299D01*
X969416Y206823D01*
X969941D01*
X896999Y199999D02*
X899098D01*
X898048D01*
Y196850D01*
X900672D02*
X901721D01*
X902246Y197375D01*
Y198425D01*
X901721Y198949D01*
X900672D01*
X900147Y198425D01*
Y197375D01*
X900672Y196850D01*
X903296Y195801D02*
Y198949D01*
X904870D01*
X905395Y198425D01*
Y197375D01*
X904870Y196850D01*
X903296D01*
X909593Y199999D02*
Y196850D01*
X911692D01*
X913266Y198949D02*
X914316D01*
X914841Y198425D01*
Y196850D01*
X913266D01*
X912741Y197375D01*
X913266Y197900D01*
X914841D01*
X915890Y198949D02*
Y197375D01*
X916415Y196850D01*
X917989D01*
Y196326D01*
X917464Y195801D01*
X916940D01*
X917989Y196850D02*
Y198949D01*
X920613Y196850D02*
X919563D01*
X919039Y197375D01*
Y198425D01*
X919563Y198949D01*
X920613D01*
X921138Y198425D01*
Y197900D01*
X919039D01*
X922187Y198949D02*
Y196850D01*
Y197900D01*
X922712Y198425D01*
X923237Y198949D01*
X923762D01*
X928485Y198425D02*
X930583D01*
X934782Y199999D02*
Y196850D01*
X936356D01*
X936881Y197375D01*
Y197900D01*
X936356Y198425D01*
X934782D01*
X936356D01*
X936881Y198949D01*
Y199474D01*
X936356Y199999D01*
X934782D01*
X938455Y196850D02*
X939505D01*
X940029Y197375D01*
Y198425D01*
X939505Y198949D01*
X938455D01*
X937930Y198425D01*
Y197375D01*
X938455Y196850D01*
X941604Y199474D02*
Y198949D01*
X941079D01*
X942128D01*
X941604D01*
Y197375D01*
X942128Y196850D01*
X944227Y199474D02*
Y198949D01*
X943703D01*
X944752D01*
X944227D01*
Y197375D01*
X944752Y196850D01*
X946851D02*
X947901D01*
X948426Y197375D01*
Y198425D01*
X947901Y198949D01*
X946851D01*
X946327Y198425D01*
Y197375D01*
X946851Y196850D01*
X949475D02*
Y198949D01*
X950000D01*
X950525Y198425D01*
Y196850D01*
Y198425D01*
X951049Y198949D01*
X951574Y198425D01*
Y196850D01*
X955772Y199999D02*
Y196850D01*
X957871D01*
X959446Y198949D02*
X960495D01*
X961020Y198425D01*
Y196850D01*
X959446D01*
X958921Y197375D01*
X959446Y197900D01*
X961020D01*
X962070Y198949D02*
Y197375D01*
X962594Y196850D01*
X964168D01*
Y196326D01*
X963644Y195801D01*
X963119D01*
X964168Y196850D02*
Y198949D01*
X966792Y196850D02*
X965743D01*
X965218Y197375D01*
Y198425D01*
X965743Y198949D01*
X966792D01*
X967317Y198425D01*
Y197900D01*
X965218D01*
X968367Y198949D02*
Y196850D01*
Y197900D01*
X968891Y198425D01*
X969416Y198949D01*
X969941D01*
X896999Y192125D02*
X899098D01*
X898048D01*
Y188976D01*
X900672D02*
X901721D01*
X902246Y189501D01*
Y190551D01*
X901721Y191075D01*
X900672D01*
X900147Y190551D01*
Y189501D01*
X900672Y188976D01*
X903296Y187927D02*
Y191075D01*
X904870D01*
X905395Y190551D01*
Y189501D01*
X904870Y188976D01*
X903296D01*
X909593Y192125D02*
Y188976D01*
X911692D01*
X913266Y191075D02*
X914316D01*
X914841Y190551D01*
Y188976D01*
X913266D01*
X912741Y189501D01*
X913266Y190026D01*
X914841D01*
X915890Y191075D02*
Y189501D01*
X916415Y188976D01*
X917989D01*
Y188452D01*
X917464Y187927D01*
X916940D01*
X917989Y188976D02*
Y191075D01*
X920613Y188976D02*
X919563D01*
X919039Y189501D01*
Y190551D01*
X919563Y191075D01*
X920613D01*
X921138Y190551D01*
Y190026D01*
X919039D01*
X922187Y191075D02*
Y188976D01*
Y190026D01*
X922712Y190551D01*
X923237Y191075D01*
X923762D01*
X928485Y190551D02*
X930583D01*
X934782Y192125D02*
Y188976D01*
X936356D01*
X936881Y189501D01*
Y190026D01*
X936356Y190551D01*
X934782D01*
X936356D01*
X936881Y191075D01*
Y191600D01*
X936356Y192125D01*
X934782D01*
X938455Y188976D02*
X939505D01*
X940029Y189501D01*
Y190551D01*
X939505Y191075D01*
X938455D01*
X937930Y190551D01*
Y189501D01*
X938455Y188976D01*
X941604Y191600D02*
Y191075D01*
X941079D01*
X942128D01*
X941604D01*
Y189501D01*
X942128Y188976D01*
X944227Y191600D02*
Y191075D01*
X943703D01*
X944752D01*
X944227D01*
Y189501D01*
X944752Y188976D01*
X946851D02*
X947901D01*
X948426Y189501D01*
Y190551D01*
X947901Y191075D01*
X946851D01*
X946327Y190551D01*
Y189501D01*
X946851Y188976D01*
X949475D02*
Y191075D01*
X950000D01*
X950525Y190551D01*
Y188976D01*
Y190551D01*
X951049Y191075D01*
X951574Y190551D01*
Y188976D01*
X955772Y192125D02*
Y188976D01*
X957871D01*
X959446Y191075D02*
X960495D01*
X961020Y190551D01*
Y188976D01*
X959446D01*
X958921Y189501D01*
X959446Y190026D01*
X961020D01*
X962070Y191075D02*
Y189501D01*
X962594Y188976D01*
X964168D01*
Y188452D01*
X963644Y187927D01*
X963119D01*
X964168Y188976D02*
Y191075D01*
X966792Y188976D02*
X965743D01*
X965218Y189501D01*
Y190551D01*
X965743Y191075D01*
X966792D01*
X967317Y190551D01*
Y190026D01*
X965218D01*
X968367Y191075D02*
Y188976D01*
Y190026D01*
X968891Y190551D01*
X969416Y191075D01*
X969941D01*
X896999Y184251D02*
X899098D01*
X898048D01*
Y181102D01*
X900672D02*
X901721D01*
X902246Y181627D01*
Y182677D01*
X901721Y183201D01*
X900672D01*
X900147Y182677D01*
Y181627D01*
X900672Y181102D01*
X903296Y180053D02*
Y183201D01*
X904870D01*
X905395Y182677D01*
Y181627D01*
X904870Y181102D01*
X903296D01*
X909593Y184251D02*
Y181102D01*
X911692D01*
X913266Y183201D02*
X914316D01*
X914841Y182677D01*
Y181102D01*
X913266D01*
X912741Y181627D01*
X913266Y182152D01*
X914841D01*
X915890Y183201D02*
Y181627D01*
X916415Y181102D01*
X917989D01*
Y180578D01*
X917464Y180053D01*
X916940D01*
X917989Y181102D02*
Y183201D01*
X920613Y181102D02*
X919563D01*
X919039Y181627D01*
Y182677D01*
X919563Y183201D01*
X920613D01*
X921138Y182677D01*
Y182152D01*
X919039D01*
X922187Y183201D02*
Y181102D01*
Y182152D01*
X922712Y182677D01*
X923237Y183201D01*
X923762D01*
X928485Y182677D02*
X930583D01*
X934782Y184251D02*
Y181102D01*
X936356D01*
X936881Y181627D01*
Y182152D01*
X936356Y182677D01*
X934782D01*
X936356D01*
X936881Y183201D01*
Y183726D01*
X936356Y184251D01*
X934782D01*
X938455Y181102D02*
X939505D01*
X940029Y181627D01*
Y182677D01*
X939505Y183201D01*
X938455D01*
X937930Y182677D01*
Y181627D01*
X938455Y181102D01*
X941604Y183726D02*
Y183201D01*
X941079D01*
X942128D01*
X941604D01*
Y181627D01*
X942128Y181102D01*
X944227Y183726D02*
Y183201D01*
X943703D01*
X944752D01*
X944227D01*
Y181627D01*
X944752Y181102D01*
X946851D02*
X947901D01*
X948426Y181627D01*
Y182677D01*
X947901Y183201D01*
X946851D01*
X946327Y182677D01*
Y181627D01*
X946851Y181102D01*
X949475D02*
Y183201D01*
X950000D01*
X950525Y182677D01*
Y181102D01*
Y182677D01*
X951049Y183201D01*
X951574Y182677D01*
Y181102D01*
X955772Y184251D02*
Y181102D01*
X957871D01*
X959446Y183201D02*
X960495D01*
X961020Y182677D01*
Y181102D01*
X959446D01*
X958921Y181627D01*
X959446Y182152D01*
X961020D01*
X962070Y183201D02*
Y181627D01*
X962594Y181102D01*
X964168D01*
Y180578D01*
X963644Y180053D01*
X963119D01*
X964168Y181102D02*
Y183201D01*
X966792Y181102D02*
X965743D01*
X965218Y181627D01*
Y182677D01*
X965743Y183201D01*
X966792D01*
X967317Y182677D01*
Y182152D01*
X965218D01*
X968367Y183201D02*
Y181102D01*
Y182152D01*
X968891Y182677D01*
X969416Y183201D01*
X969941D01*
X896999Y176377D02*
X899098D01*
X898048D01*
Y173228D01*
X900672D02*
X901721D01*
X902246Y173753D01*
Y174803D01*
X901721Y175327D01*
X900672D01*
X900147Y174803D01*
Y173753D01*
X900672Y173228D01*
X903296Y172179D02*
Y175327D01*
X904870D01*
X905395Y174803D01*
Y173753D01*
X904870Y173228D01*
X903296D01*
X909593Y176377D02*
Y173228D01*
X911692D01*
X913266Y175327D02*
X914316D01*
X914841Y174803D01*
Y173228D01*
X913266D01*
X912741Y173753D01*
X913266Y174278D01*
X914841D01*
X915890Y175327D02*
Y173753D01*
X916415Y173228D01*
X917989D01*
Y172704D01*
X917464Y172179D01*
X916940D01*
X917989Y173228D02*
Y175327D01*
X920613Y173228D02*
X919563D01*
X919039Y173753D01*
Y174803D01*
X919563Y175327D01*
X920613D01*
X921138Y174803D01*
Y174278D01*
X919039D01*
X922187Y175327D02*
Y173228D01*
Y174278D01*
X922712Y174803D01*
X923237Y175327D01*
X923762D01*
X928485Y174803D02*
X930583D01*
X934782Y176377D02*
Y173228D01*
X936356D01*
X936881Y173753D01*
Y174278D01*
X936356Y174803D01*
X934782D01*
X936356D01*
X936881Y175327D01*
Y175852D01*
X936356Y176377D01*
X934782D01*
X938455Y173228D02*
X939505D01*
X940029Y173753D01*
Y174803D01*
X939505Y175327D01*
X938455D01*
X937930Y174803D01*
Y173753D01*
X938455Y173228D01*
X941604Y175852D02*
Y175327D01*
X941079D01*
X942128D01*
X941604D01*
Y173753D01*
X942128Y173228D01*
X944227Y175852D02*
Y175327D01*
X943703D01*
X944752D01*
X944227D01*
Y173753D01*
X944752Y173228D01*
X946851D02*
X947901D01*
X948426Y173753D01*
Y174803D01*
X947901Y175327D01*
X946851D01*
X946327Y174803D01*
Y173753D01*
X946851Y173228D01*
X949475D02*
Y175327D01*
X950000D01*
X950525Y174803D01*
Y173228D01*
Y174803D01*
X951049Y175327D01*
X951574Y174803D01*
Y173228D01*
X955772Y176377D02*
Y173228D01*
X957871D01*
X959446Y175327D02*
X960495D01*
X961020Y174803D01*
Y173228D01*
X959446D01*
X958921Y173753D01*
X959446Y174278D01*
X961020D01*
X962070Y175327D02*
Y173753D01*
X962594Y173228D01*
X964168D01*
Y172704D01*
X963644Y172179D01*
X963119D01*
X964168Y173228D02*
Y175327D01*
X966792Y173228D02*
X965743D01*
X965218Y173753D01*
Y174803D01*
X965743Y175327D01*
X966792D01*
X967317Y174803D01*
Y174278D01*
X965218D01*
X968367Y175327D02*
Y173228D01*
Y174278D01*
X968891Y174803D01*
X969416Y175327D01*
X969941D01*
X896999Y168503D02*
X899098D01*
X898048D01*
Y165354D01*
X900672D02*
X901721D01*
X902246Y165879D01*
Y166929D01*
X901721Y167453D01*
X900672D01*
X900147Y166929D01*
Y165879D01*
X900672Y165354D01*
X903296Y164305D02*
Y167453D01*
X904870D01*
X905395Y166929D01*
Y165879D01*
X904870Y165354D01*
X903296D01*
X909593Y168503D02*
Y165354D01*
X911692D01*
X913266Y167453D02*
X914316D01*
X914841Y166929D01*
Y165354D01*
X913266D01*
X912741Y165879D01*
X913266Y166404D01*
X914841D01*
X915890Y167453D02*
Y165879D01*
X916415Y165354D01*
X917989D01*
Y164830D01*
X917464Y164305D01*
X916940D01*
X917989Y165354D02*
Y167453D01*
X920613Y165354D02*
X919563D01*
X919039Y165879D01*
Y166929D01*
X919563Y167453D01*
X920613D01*
X921138Y166929D01*
Y166404D01*
X919039D01*
X922187Y167453D02*
Y165354D01*
Y166404D01*
X922712Y166929D01*
X923237Y167453D01*
X923762D01*
X928485Y166929D02*
X930583D01*
X934782Y168503D02*
Y165354D01*
X936356D01*
X936881Y165879D01*
Y166404D01*
X936356Y166929D01*
X934782D01*
X936356D01*
X936881Y167453D01*
Y167978D01*
X936356Y168503D01*
X934782D01*
X938455Y165354D02*
X939505D01*
X940029Y165879D01*
Y166929D01*
X939505Y167453D01*
X938455D01*
X937930Y166929D01*
Y165879D01*
X938455Y165354D01*
X941604Y167978D02*
Y167453D01*
X941079D01*
X942128D01*
X941604D01*
Y165879D01*
X942128Y165354D01*
X944227Y167978D02*
Y167453D01*
X943703D01*
X944752D01*
X944227D01*
Y165879D01*
X944752Y165354D01*
X946851D02*
X947901D01*
X948426Y165879D01*
Y166929D01*
X947901Y167453D01*
X946851D01*
X946327Y166929D01*
Y165879D01*
X946851Y165354D01*
X949475D02*
Y167453D01*
X950000D01*
X950525Y166929D01*
Y165354D01*
Y166929D01*
X951049Y167453D01*
X951574Y166929D01*
Y165354D01*
X955772Y168503D02*
Y165354D01*
X957871D01*
X959446Y167453D02*
X960495D01*
X961020Y166929D01*
Y165354D01*
X959446D01*
X958921Y165879D01*
X959446Y166404D01*
X961020D01*
X962070Y167453D02*
Y165879D01*
X962594Y165354D01*
X964168D01*
Y164830D01*
X963644Y164305D01*
X963119D01*
X964168Y165354D02*
Y167453D01*
X966792Y165354D02*
X965743D01*
X965218Y165879D01*
Y166929D01*
X965743Y167453D01*
X966792D01*
X967317Y166929D01*
Y166404D01*
X965218D01*
X968367Y167453D02*
Y165354D01*
Y166404D01*
X968891Y166929D01*
X969416Y167453D01*
X969941D01*
X896999Y160629D02*
X899098D01*
X898048D01*
Y157480D01*
X900672D02*
X901721D01*
X902246Y158005D01*
Y159055D01*
X901721Y159579D01*
X900672D01*
X900147Y159055D01*
Y158005D01*
X900672Y157480D01*
X903296Y156431D02*
Y159579D01*
X904870D01*
X905395Y159055D01*
Y158005D01*
X904870Y157480D01*
X903296D01*
X909593Y160629D02*
Y157480D01*
X911692D01*
X913266Y159579D02*
X914316D01*
X914841Y159055D01*
Y157480D01*
X913266D01*
X912741Y158005D01*
X913266Y158530D01*
X914841D01*
X915890Y159579D02*
Y158005D01*
X916415Y157480D01*
X917989D01*
Y156956D01*
X917464Y156431D01*
X916940D01*
X917989Y157480D02*
Y159579D01*
X920613Y157480D02*
X919563D01*
X919039Y158005D01*
Y159055D01*
X919563Y159579D01*
X920613D01*
X921138Y159055D01*
Y158530D01*
X919039D01*
X922187Y159579D02*
Y157480D01*
Y158530D01*
X922712Y159055D01*
X923237Y159579D01*
X923762D01*
X928485Y159055D02*
X930583D01*
X934782Y160629D02*
Y157480D01*
X936356D01*
X936881Y158005D01*
Y158530D01*
X936356Y159055D01*
X934782D01*
X936356D01*
X936881Y159579D01*
Y160104D01*
X936356Y160629D01*
X934782D01*
X938455Y157480D02*
X939505D01*
X940029Y158005D01*
Y159055D01*
X939505Y159579D01*
X938455D01*
X937930Y159055D01*
Y158005D01*
X938455Y157480D01*
X941604Y160104D02*
Y159579D01*
X941079D01*
X942128D01*
X941604D01*
Y158005D01*
X942128Y157480D01*
X944227Y160104D02*
Y159579D01*
X943703D01*
X944752D01*
X944227D01*
Y158005D01*
X944752Y157480D01*
X946851D02*
X947901D01*
X948426Y158005D01*
Y159055D01*
X947901Y159579D01*
X946851D01*
X946327Y159055D01*
Y158005D01*
X946851Y157480D01*
X949475D02*
Y159579D01*
X950000D01*
X950525Y159055D01*
Y157480D01*
Y159055D01*
X951049Y159579D01*
X951574Y159055D01*
Y157480D01*
X955772Y160629D02*
Y157480D01*
X957871D01*
X959446Y159579D02*
X960495D01*
X961020Y159055D01*
Y157480D01*
X959446D01*
X958921Y158005D01*
X959446Y158530D01*
X961020D01*
X962070Y159579D02*
Y158005D01*
X962594Y157480D01*
X964168D01*
Y156956D01*
X963644Y156431D01*
X963119D01*
X964168Y157480D02*
Y159579D01*
X966792Y157480D02*
X965743D01*
X965218Y158005D01*
Y159055D01*
X965743Y159579D01*
X966792D01*
X967317Y159055D01*
Y158530D01*
X965218D01*
X968367Y159579D02*
Y157480D01*
Y158530D01*
X968891Y159055D01*
X969416Y159579D01*
X969941D01*
X896999Y152755D02*
X899098D01*
X898048D01*
Y149606D01*
X900672D02*
X901721D01*
X902246Y150131D01*
Y151181D01*
X901721Y151705D01*
X900672D01*
X900147Y151181D01*
Y150131D01*
X900672Y149606D01*
X903296Y148557D02*
Y151705D01*
X904870D01*
X905395Y151181D01*
Y150131D01*
X904870Y149606D01*
X903296D01*
X909593Y152755D02*
Y149606D01*
X911692D01*
X913266Y151705D02*
X914316D01*
X914841Y151181D01*
Y149606D01*
X913266D01*
X912741Y150131D01*
X913266Y150656D01*
X914841D01*
X915890Y151705D02*
Y150131D01*
X916415Y149606D01*
X917989D01*
Y149082D01*
X917464Y148557D01*
X916940D01*
X917989Y149606D02*
Y151705D01*
X920613Y149606D02*
X919563D01*
X919039Y150131D01*
Y151181D01*
X919563Y151705D01*
X920613D01*
X921138Y151181D01*
Y150656D01*
X919039D01*
X922187Y151705D02*
Y149606D01*
Y150656D01*
X922712Y151181D01*
X923237Y151705D01*
X923762D01*
X928485Y151181D02*
X930583D01*
X934782Y152755D02*
Y149606D01*
X936356D01*
X936881Y150131D01*
Y150656D01*
X936356Y151181D01*
X934782D01*
X936356D01*
X936881Y151705D01*
Y152230D01*
X936356Y152755D01*
X934782D01*
X938455Y149606D02*
X939505D01*
X940029Y150131D01*
Y151181D01*
X939505Y151705D01*
X938455D01*
X937930Y151181D01*
Y150131D01*
X938455Y149606D01*
X941604Y152230D02*
Y151705D01*
X941079D01*
X942128D01*
X941604D01*
Y150131D01*
X942128Y149606D01*
X944227Y152230D02*
Y151705D01*
X943703D01*
X944752D01*
X944227D01*
Y150131D01*
X944752Y149606D01*
X946851D02*
X947901D01*
X948426Y150131D01*
Y151181D01*
X947901Y151705D01*
X946851D01*
X946327Y151181D01*
Y150131D01*
X946851Y149606D01*
X949475D02*
Y151705D01*
X950000D01*
X950525Y151181D01*
Y149606D01*
Y151181D01*
X951049Y151705D01*
X951574Y151181D01*
Y149606D01*
X955772Y152755D02*
Y149606D01*
X957871D01*
X959446Y151705D02*
X960495D01*
X961020Y151181D01*
Y149606D01*
X959446D01*
X958921Y150131D01*
X959446Y150656D01*
X961020D01*
X962070Y151705D02*
Y150131D01*
X962594Y149606D01*
X964168D01*
Y149082D01*
X963644Y148557D01*
X963119D01*
X964168Y149606D02*
Y151705D01*
X966792Y149606D02*
X965743D01*
X965218Y150131D01*
Y151181D01*
X965743Y151705D01*
X966792D01*
X967317Y151181D01*
Y150656D01*
X965218D01*
X968367Y151705D02*
Y149606D01*
Y150656D01*
X968891Y151181D01*
X969416Y151705D01*
X969941D01*
X896999Y144881D02*
X899098D01*
X898048D01*
Y141732D01*
X900672D02*
X901721D01*
X902246Y142257D01*
Y143307D01*
X901721Y143831D01*
X900672D01*
X900147Y143307D01*
Y142257D01*
X900672Y141732D01*
X903296Y140683D02*
Y143831D01*
X904870D01*
X905395Y143307D01*
Y142257D01*
X904870Y141732D01*
X903296D01*
X909593Y144881D02*
Y141732D01*
X911692D01*
X913266Y143831D02*
X914316D01*
X914841Y143307D01*
Y141732D01*
X913266D01*
X912741Y142257D01*
X913266Y142782D01*
X914841D01*
X915890Y143831D02*
Y142257D01*
X916415Y141732D01*
X917989D01*
Y141208D01*
X917464Y140683D01*
X916940D01*
X917989Y141732D02*
Y143831D01*
X920613Y141732D02*
X919563D01*
X919039Y142257D01*
Y143307D01*
X919563Y143831D01*
X920613D01*
X921138Y143307D01*
Y142782D01*
X919039D01*
X922187Y143831D02*
Y141732D01*
Y142782D01*
X922712Y143307D01*
X923237Y143831D01*
X923762D01*
X928485Y143307D02*
X930583D01*
X934782Y144881D02*
Y141732D01*
X936356D01*
X936881Y142257D01*
Y142782D01*
X936356Y143307D01*
X934782D01*
X936356D01*
X936881Y143831D01*
Y144356D01*
X936356Y144881D01*
X934782D01*
X938455Y141732D02*
X939505D01*
X940029Y142257D01*
Y143307D01*
X939505Y143831D01*
X938455D01*
X937930Y143307D01*
Y142257D01*
X938455Y141732D01*
X941604Y144356D02*
Y143831D01*
X941079D01*
X942128D01*
X941604D01*
Y142257D01*
X942128Y141732D01*
X944227Y144356D02*
Y143831D01*
X943703D01*
X944752D01*
X944227D01*
Y142257D01*
X944752Y141732D01*
X946851D02*
X947901D01*
X948426Y142257D01*
Y143307D01*
X947901Y143831D01*
X946851D01*
X946327Y143307D01*
Y142257D01*
X946851Y141732D01*
X949475D02*
Y143831D01*
X950000D01*
X950525Y143307D01*
Y141732D01*
Y143307D01*
X951049Y143831D01*
X951574Y143307D01*
Y141732D01*
X955772Y144881D02*
Y141732D01*
X957871D01*
X959446Y143831D02*
X960495D01*
X961020Y143307D01*
Y141732D01*
X959446D01*
X958921Y142257D01*
X959446Y142782D01*
X961020D01*
X962070Y143831D02*
Y142257D01*
X962594Y141732D01*
X964168D01*
Y141208D01*
X963644Y140683D01*
X963119D01*
X964168Y141732D02*
Y143831D01*
X966792Y141732D02*
X965743D01*
X965218Y142257D01*
Y143307D01*
X965743Y143831D01*
X966792D01*
X967317Y143307D01*
Y142782D01*
X965218D01*
X968367Y143831D02*
Y141732D01*
Y142782D01*
X968891Y143307D01*
X969416Y143831D01*
X969941D01*
X896999Y137007D02*
X899098D01*
X898048D01*
Y133858D01*
X900672D02*
X901721D01*
X902246Y134383D01*
Y135433D01*
X901721Y135957D01*
X900672D01*
X900147Y135433D01*
Y134383D01*
X900672Y133858D01*
X903296Y132809D02*
Y135957D01*
X904870D01*
X905395Y135433D01*
Y134383D01*
X904870Y133858D01*
X903296D01*
X909593Y137007D02*
Y133858D01*
X911692D01*
X913266Y135957D02*
X914316D01*
X914841Y135433D01*
Y133858D01*
X913266D01*
X912741Y134383D01*
X913266Y134908D01*
X914841D01*
X915890Y135957D02*
Y134383D01*
X916415Y133858D01*
X917989D01*
Y133334D01*
X917464Y132809D01*
X916940D01*
X917989Y133858D02*
Y135957D01*
X920613Y133858D02*
X919563D01*
X919039Y134383D01*
Y135433D01*
X919563Y135957D01*
X920613D01*
X921138Y135433D01*
Y134908D01*
X919039D01*
X922187Y135957D02*
Y133858D01*
Y134908D01*
X922712Y135433D01*
X923237Y135957D01*
X923762D01*
X928485Y135433D02*
X930583D01*
X934782Y137007D02*
Y133858D01*
X936356D01*
X936881Y134383D01*
Y134908D01*
X936356Y135433D01*
X934782D01*
X936356D01*
X936881Y135957D01*
Y136482D01*
X936356Y137007D01*
X934782D01*
X938455Y133858D02*
X939505D01*
X940029Y134383D01*
Y135433D01*
X939505Y135957D01*
X938455D01*
X937930Y135433D01*
Y134383D01*
X938455Y133858D01*
X941604Y136482D02*
Y135957D01*
X941079D01*
X942128D01*
X941604D01*
Y134383D01*
X942128Y133858D01*
X944227Y136482D02*
Y135957D01*
X943703D01*
X944752D01*
X944227D01*
Y134383D01*
X944752Y133858D01*
X946851D02*
X947901D01*
X948426Y134383D01*
Y135433D01*
X947901Y135957D01*
X946851D01*
X946327Y135433D01*
Y134383D01*
X946851Y133858D01*
X949475D02*
Y135957D01*
X950000D01*
X950525Y135433D01*
Y133858D01*
Y135433D01*
X951049Y135957D01*
X951574Y135433D01*
Y133858D01*
X955772Y137007D02*
Y133858D01*
X957871D01*
X959446Y135957D02*
X960495D01*
X961020Y135433D01*
Y133858D01*
X959446D01*
X958921Y134383D01*
X959446Y134908D01*
X961020D01*
X962070Y135957D02*
Y134383D01*
X962594Y133858D01*
X964168D01*
Y133334D01*
X963644Y132809D01*
X963119D01*
X964168Y133858D02*
Y135957D01*
X966792Y133858D02*
X965743D01*
X965218Y134383D01*
Y135433D01*
X965743Y135957D01*
X966792D01*
X967317Y135433D01*
Y134908D01*
X965218D01*
X968367Y135957D02*
Y133858D01*
Y134908D01*
X968891Y135433D01*
X969416Y135957D01*
X969941D01*
X860368Y207348D02*
X859843Y207873D01*
X858794D01*
X858269Y207348D01*
Y206823D01*
X858794Y206299D01*
X859843D01*
X860368Y205774D01*
Y205249D01*
X859843Y204724D01*
X858794D01*
X858269Y205249D01*
X861417Y204724D02*
X862467D01*
X861942D01*
Y207873D01*
X861417D01*
X864566Y204724D02*
X865615D01*
X866140Y205249D01*
Y206299D01*
X865615Y206823D01*
X864566D01*
X864041Y206299D01*
Y205249D01*
X864566Y204724D01*
X867715Y207348D02*
Y206823D01*
X867190D01*
X868239D01*
X867715D01*
Y205249D01*
X868239Y204724D01*
X858269Y196850D02*
Y199999D01*
X859843D01*
X860368Y199474D01*
Y198425D01*
X859843Y197900D01*
X858269D01*
X859318D02*
X860368Y196850D01*
X861942D02*
X862992D01*
X863517Y197375D01*
Y198425D01*
X862992Y198949D01*
X861942D01*
X861417Y198425D01*
Y197375D01*
X861942Y196850D01*
X864566Y198949D02*
Y197375D01*
X865091Y196850D01*
X866665D01*
Y198949D01*
X867715Y196850D02*
Y198949D01*
X869289D01*
X869814Y198425D01*
Y196850D01*
X872962Y199999D02*
Y196850D01*
X871388D01*
X870863Y197375D01*
Y198425D01*
X871388Y198949D01*
X872962D01*
X858269Y188976D02*
Y192125D01*
X859843D01*
X860368Y191600D01*
Y190551D01*
X859843Y190026D01*
X858269D01*
X859318D02*
X860368Y188976D01*
X861942D02*
X862992D01*
X863517Y189501D01*
Y190551D01*
X862992Y191075D01*
X861942D01*
X861417Y190551D01*
Y189501D01*
X861942Y188976D01*
X864566Y191075D02*
Y189501D01*
X865091Y188976D01*
X866665D01*
Y191075D01*
X867715Y188976D02*
Y191075D01*
X869289D01*
X869814Y190551D01*
Y188976D01*
X872962Y192125D02*
Y188976D01*
X871388D01*
X870863Y189501D01*
Y190551D01*
X871388Y191075D01*
X872962D01*
X860368Y183726D02*
X859843Y184251D01*
X858794D01*
X858269Y183726D01*
Y183201D01*
X858794Y182677D01*
X859843D01*
X860368Y182152D01*
Y181627D01*
X859843Y181102D01*
X858794D01*
X858269Y181627D01*
X861417Y181102D02*
X862467D01*
X861942D01*
Y184251D01*
X861417D01*
X864566Y181102D02*
X865615D01*
X866140Y181627D01*
Y182677D01*
X865615Y183201D01*
X864566D01*
X864041Y182677D01*
Y181627D01*
X864566Y181102D01*
X867715Y183726D02*
Y183201D01*
X867190D01*
X868239D01*
X867715D01*
Y181627D01*
X868239Y181102D01*
X858269Y173228D02*
Y176377D01*
X859843D01*
X860368Y175852D01*
Y174803D01*
X859843Y174278D01*
X858269D01*
X859318D02*
X860368Y173228D01*
X861942D02*
X862992D01*
X863517Y173753D01*
Y174803D01*
X862992Y175327D01*
X861942D01*
X861417Y174803D01*
Y173753D01*
X861942Y173228D01*
X864566Y175327D02*
Y173753D01*
X865091Y173228D01*
X866665D01*
Y175327D01*
X867715Y173228D02*
Y175327D01*
X869289D01*
X869814Y174803D01*
Y173228D01*
X872962Y176377D02*
Y173228D01*
X871388D01*
X870863Y173753D01*
Y174803D01*
X871388Y175327D01*
X872962D01*
X858269Y165354D02*
Y168503D01*
X859843D01*
X860368Y167978D01*
Y166929D01*
X859843Y166404D01*
X858269D01*
X859318D02*
X860368Y165354D01*
X861942D02*
X862992D01*
X863517Y165879D01*
Y166929D01*
X862992Y167453D01*
X861942D01*
X861417Y166929D01*
Y165879D01*
X861942Y165354D01*
X864566Y167453D02*
Y165879D01*
X865091Y165354D01*
X866665D01*
Y167453D01*
X867715Y165354D02*
Y167453D01*
X869289D01*
X869814Y166929D01*
Y165354D01*
X872962Y168503D02*
Y165354D01*
X871388D01*
X870863Y165879D01*
Y166929D01*
X871388Y167453D01*
X872962D01*
X858269Y157480D02*
Y160629D01*
X859843D01*
X860368Y160104D01*
Y159055D01*
X859843Y158530D01*
X858269D01*
X859318D02*
X860368Y157480D01*
X861942D02*
X862992D01*
X863517Y158005D01*
Y159055D01*
X862992Y159579D01*
X861942D01*
X861417Y159055D01*
Y158005D01*
X861942Y157480D01*
X864566Y159579D02*
Y158005D01*
X865091Y157480D01*
X866665D01*
Y159579D01*
X867715Y157480D02*
Y159579D01*
X869289D01*
X869814Y159055D01*
Y157480D01*
X872962Y160629D02*
Y157480D01*
X871388D01*
X870863Y158005D01*
Y159055D01*
X871388Y159579D01*
X872962D01*
X858269Y149606D02*
Y152755D01*
X859843D01*
X860368Y152230D01*
Y151181D01*
X859843Y150656D01*
X858269D01*
X859318D02*
X860368Y149606D01*
X861942D02*
X862992D01*
X863517Y150131D01*
Y151181D01*
X862992Y151705D01*
X861942D01*
X861417Y151181D01*
Y150131D01*
X861942Y149606D01*
X864566Y151705D02*
Y150131D01*
X865091Y149606D01*
X866665D01*
Y151705D01*
X867715Y149606D02*
Y151705D01*
X869289D01*
X869814Y151181D01*
Y149606D01*
X872962Y152755D02*
Y149606D01*
X871388D01*
X870863Y150131D01*
Y151181D01*
X871388Y151705D01*
X872962D01*
X858269Y141732D02*
Y144881D01*
X859843D01*
X860368Y144356D01*
Y143307D01*
X859843Y142782D01*
X858269D01*
X859318D02*
X860368Y141732D01*
X861942D02*
X862992D01*
X863517Y142257D01*
Y143307D01*
X862992Y143831D01*
X861942D01*
X861417Y143307D01*
Y142257D01*
X861942Y141732D01*
X864566Y143831D02*
Y142257D01*
X865091Y141732D01*
X866665D01*
Y143831D01*
X867715Y141732D02*
Y143831D01*
X869289D01*
X869814Y143307D01*
Y141732D01*
X872962Y144881D02*
Y141732D01*
X871388D01*
X870863Y142257D01*
Y143307D01*
X871388Y143831D01*
X872962D01*
X858269Y133858D02*
Y137007D01*
X859843D01*
X860368Y136482D01*
Y135433D01*
X859843Y134908D01*
X858269D01*
X859318D02*
X860368Y133858D01*
X861942D02*
X862992D01*
X863517Y134383D01*
Y135433D01*
X862992Y135957D01*
X861942D01*
X861417Y135433D01*
Y134383D01*
X861942Y133858D01*
X864566Y135957D02*
Y134383D01*
X865091Y133858D01*
X866665D01*
Y135957D01*
X867715Y133858D02*
Y135957D01*
X869289D01*
X869814Y135433D01*
Y133858D01*
X872962Y137007D02*
Y133858D01*
X871388D01*
X870863Y134383D01*
Y135433D01*
X871388Y135957D01*
X872962D01*
X831504Y204724D02*
Y207873D01*
X833078D01*
X833603Y207348D01*
Y206299D01*
X833078Y205774D01*
X831504D01*
X834652Y207873D02*
X836751D01*
X835702D01*
Y204724D01*
X837801Y207873D02*
Y204724D01*
Y206299D01*
X839900D01*
Y207873D01*
Y204724D01*
X831504Y196850D02*
Y199999D01*
X833603Y196850D01*
Y199999D01*
X834652Y196850D02*
Y199999D01*
X836226D01*
X836751Y199474D01*
Y198425D01*
X836226Y197900D01*
X834652D01*
X837801Y199999D02*
X839900D01*
X838850D01*
Y196850D01*
X840949Y199999D02*
Y196850D01*
Y198425D01*
X843048D01*
Y199999D01*
Y196850D01*
X831504Y188976D02*
Y192125D01*
X833603Y188976D01*
Y192125D01*
X834652Y188976D02*
Y192125D01*
X836226D01*
X836751Y191600D01*
Y190551D01*
X836226Y190026D01*
X834652D01*
X837801Y192125D02*
X839900D01*
X838850D01*
Y188976D01*
X840949Y192125D02*
Y188976D01*
Y190551D01*
X843048D01*
Y192125D01*
Y188976D01*
X831504Y181102D02*
Y184251D01*
X833078D01*
X833603Y183726D01*
Y182677D01*
X833078Y182152D01*
X831504D01*
X834652Y184251D02*
X836751D01*
X835702D01*
Y181102D01*
X837801Y184251D02*
Y181102D01*
Y182677D01*
X839900D01*
Y184251D01*
Y181102D01*
X831504Y173228D02*
Y176377D01*
X833078D01*
X833603Y175852D01*
Y174803D01*
X833078Y174278D01*
X831504D01*
X834652Y176377D02*
X836751D01*
X835702D01*
Y173228D01*
X837801Y176377D02*
Y173228D01*
Y174803D01*
X839900D01*
Y176377D01*
Y173228D01*
X831504Y165354D02*
Y168503D01*
X833603Y165354D01*
Y168503D01*
X834652Y165354D02*
Y168503D01*
X836226D01*
X836751Y167978D01*
Y166929D01*
X836226Y166404D01*
X834652D01*
X837801Y168503D02*
X839900D01*
X838850D01*
Y165354D01*
X840949Y168503D02*
Y165354D01*
Y166929D01*
X843048D01*
Y168503D01*
Y165354D01*
X831504Y157480D02*
Y160629D01*
X833078D01*
X833603Y160104D01*
Y159055D01*
X833078Y158530D01*
X831504D01*
X834652Y160629D02*
X836751D01*
X835702D01*
Y157480D01*
X837801Y160629D02*
Y157480D01*
Y159055D01*
X839900D01*
Y160629D01*
Y157480D01*
X831504Y149606D02*
Y152755D01*
X833078D01*
X833603Y152230D01*
Y151181D01*
X833078Y150656D01*
X831504D01*
X834652Y152755D02*
X836751D01*
X835702D01*
Y149606D01*
X837801Y152755D02*
Y149606D01*
Y151181D01*
X839900D01*
Y152755D01*
Y149606D01*
X831504Y141732D02*
Y144881D01*
X833078D01*
X833603Y144356D01*
Y143307D01*
X833078Y142782D01*
X831504D01*
X834652Y144881D02*
X836751D01*
X835702D01*
Y141732D01*
X837801Y144881D02*
Y141732D01*
Y143307D01*
X839900D01*
Y144881D01*
Y141732D01*
X831504Y133858D02*
Y137007D01*
X833078D01*
X833603Y136482D01*
Y135433D01*
X833078Y134908D01*
X831504D01*
X834652Y137007D02*
X836751D01*
X835702D01*
Y133858D01*
X837801Y137007D02*
Y133858D01*
Y135433D01*
X839900D01*
Y137007D01*
Y133858D01*
X769973Y207348D02*
X770498Y207873D01*
X771547D01*
X772072Y207348D01*
Y205249D01*
X771547Y204724D01*
X770498D01*
X769973Y205249D01*
Y207348D01*
X773646Y204200D02*
X774171Y204724D01*
Y205249D01*
X773646D01*
Y204724D01*
X774171D01*
X773646Y204200D01*
X773122Y203675D01*
X778369Y207873D02*
X776270D01*
Y206299D01*
X777320Y206823D01*
X777844D01*
X778369Y206299D01*
Y205249D01*
X777844Y204724D01*
X776795D01*
X776270Y205249D01*
X779419Y207348D02*
X779944Y207873D01*
X780993D01*
X781518Y207348D01*
Y205249D01*
X780993Y204724D01*
X779944D01*
X779419Y205249D01*
Y207348D01*
X782567D02*
X783092Y207873D01*
X784142D01*
X784666Y207348D01*
Y205249D01*
X784142Y204724D01*
X783092D01*
X782567Y205249D01*
Y207348D01*
X785716Y204724D02*
Y206823D01*
X786241D01*
X786765Y206299D01*
Y204724D01*
Y206299D01*
X787290Y206823D01*
X787815Y206299D01*
Y204724D01*
X788865D02*
Y206823D01*
X789389D01*
X789914Y206299D01*
Y204724D01*
Y206299D01*
X790439Y206823D01*
X790964Y206299D01*
Y204724D01*
X796211D02*
X795162Y205774D01*
Y206823D01*
X796211Y207873D01*
X797786Y204724D02*
X798835D01*
X798310D01*
Y207873D01*
X797786Y207348D01*
X800410Y205249D02*
X800934Y204724D01*
X801984D01*
X802509Y205249D01*
Y207348D01*
X801984Y207873D01*
X800934D01*
X800410Y207348D01*
Y206823D01*
X800934Y206299D01*
X802509D01*
X804083Y204200D02*
X804608Y204724D01*
Y205249D01*
X804083D01*
Y204724D01*
X804608D01*
X804083Y204200D01*
X803558Y203675D01*
X808806Y207873D02*
X807756Y207348D01*
X806707Y206299D01*
Y205249D01*
X807231Y204724D01*
X808281D01*
X808806Y205249D01*
Y205774D01*
X808281Y206299D01*
X806707D01*
X809855Y205249D02*
X810380Y204724D01*
X811430D01*
X811954Y205249D01*
Y207348D01*
X811430Y207873D01*
X810380D01*
X809855Y207348D01*
Y206823D01*
X810380Y206299D01*
X811954D01*
X813004Y204724D02*
Y206823D01*
X813529D01*
X814053Y206299D01*
Y204724D01*
Y206299D01*
X814578Y206823D01*
X815103Y206299D01*
Y204724D01*
X816152D02*
X817202D01*
X816677D01*
Y206823D01*
X816152D01*
X818776Y204724D02*
X819826D01*
X819301D01*
Y207873D01*
X818776D01*
X821400Y204724D02*
X822450Y205774D01*
Y206823D01*
X821400Y207873D01*
X769973Y196850D02*
X771023D01*
X770498D01*
Y199999D01*
X769973Y199474D01*
X773122Y196326D02*
X773646Y196850D01*
Y197375D01*
X773122D01*
Y196850D01*
X773646D01*
X773122Y196326D01*
X772597Y195801D01*
X775745Y199474D02*
X776270Y199999D01*
X777320D01*
X777844Y199474D01*
Y197375D01*
X777320Y196850D01*
X776270D01*
X775745Y197375D01*
Y199474D01*
X778894D02*
X779419Y199999D01*
X780468D01*
X780993Y199474D01*
Y197375D01*
X780468Y196850D01*
X779419D01*
X778894Y197375D01*
Y199474D01*
X782043D02*
X782567Y199999D01*
X783617D01*
X784142Y199474D01*
Y197375D01*
X783617Y196850D01*
X782567D01*
X782043Y197375D01*
Y199474D01*
X785191Y196850D02*
Y198949D01*
X785716D01*
X786241Y198425D01*
Y196850D01*
Y198425D01*
X786766Y198949D01*
X787290Y198425D01*
Y196850D01*
X788340D02*
Y198949D01*
X788865D01*
X789389Y198425D01*
Y196850D01*
Y198425D01*
X789914Y198949D01*
X790439Y198425D01*
Y196850D01*
X795687D02*
X794637Y197900D01*
Y198949D01*
X795687Y199999D01*
X797261Y199474D02*
X797786Y199999D01*
X798835D01*
X799360Y199474D01*
Y198949D01*
X798835Y198425D01*
X798310D01*
X798835D01*
X799360Y197900D01*
Y197375D01*
X798835Y196850D01*
X797786D01*
X797261Y197375D01*
X800410D02*
X800934Y196850D01*
X801984D01*
X802509Y197375D01*
Y199474D01*
X801984Y199999D01*
X800934D01*
X800410Y199474D01*
Y198949D01*
X800934Y198425D01*
X802509D01*
X804083Y196326D02*
X804608Y196850D01*
Y197375D01*
X804083D01*
Y196850D01*
X804608D01*
X804083Y196326D01*
X803558Y195801D01*
X806707Y199474D02*
X807231Y199999D01*
X808281D01*
X808806Y199474D01*
Y198949D01*
X808281Y198425D01*
X807756D01*
X808281D01*
X808806Y197900D01*
Y197375D01*
X808281Y196850D01*
X807231D01*
X806707Y197375D01*
X809855Y199999D02*
X811954D01*
Y199474D01*
X809855Y197375D01*
Y196850D01*
X813004D02*
Y198949D01*
X813529D01*
X814053Y198425D01*
Y196850D01*
Y198425D01*
X814578Y198949D01*
X815103Y198425D01*
Y196850D01*
X816152D02*
X817202D01*
X816677D01*
Y198949D01*
X816152D01*
X818776Y196850D02*
X819826D01*
X819301D01*
Y199999D01*
X818776D01*
X821400Y196850D02*
X822450Y197900D01*
Y198949D01*
X821400Y199999D01*
X769973Y188976D02*
X771023D01*
X770498D01*
Y192125D01*
X769973Y191600D01*
X773122Y188452D02*
X773646Y188976D01*
Y189501D01*
X773122D01*
Y188976D01*
X773646D01*
X773122Y188452D01*
X772597Y187927D01*
X777844Y192125D02*
X776795Y191600D01*
X775745Y190551D01*
Y189501D01*
X776270Y188976D01*
X777320D01*
X777844Y189501D01*
Y190026D01*
X777320Y190551D01*
X775745D01*
X778894Y191600D02*
X779419Y192125D01*
X780468D01*
X780993Y191600D01*
Y189501D01*
X780468Y188976D01*
X779419D01*
X778894Y189501D01*
Y191600D01*
X782043D02*
X782567Y192125D01*
X783617D01*
X784142Y191600D01*
Y189501D01*
X783617Y188976D01*
X782567D01*
X782043Y189501D01*
Y191600D01*
X785191Y188976D02*
Y191075D01*
X785716D01*
X786241Y190551D01*
Y188976D01*
Y190551D01*
X786766Y191075D01*
X787290Y190551D01*
Y188976D01*
X788340D02*
Y191075D01*
X788865D01*
X789389Y190551D01*
Y188976D01*
Y190551D01*
X789914Y191075D01*
X790439Y190551D01*
Y188976D01*
X795687D02*
X794637Y190026D01*
Y191075D01*
X795687Y192125D01*
X799360D02*
X798310Y191600D01*
X797261Y190551D01*
Y189501D01*
X797786Y188976D01*
X798835D01*
X799360Y189501D01*
Y190026D01*
X798835Y190551D01*
X797261D01*
X802509Y188976D02*
X800410D01*
X802509Y191075D01*
Y191600D01*
X801984Y192125D01*
X800934D01*
X800410Y191600D01*
X804083Y188452D02*
X804608Y188976D01*
Y189501D01*
X804083D01*
Y188976D01*
X804608D01*
X804083Y188452D01*
X803558Y187927D01*
X806707Y189501D02*
X807231Y188976D01*
X808281D01*
X808806Y189501D01*
Y191600D01*
X808281Y192125D01*
X807231D01*
X806707Y191600D01*
Y191075D01*
X807231Y190551D01*
X808806D01*
X809855Y189501D02*
X810380Y188976D01*
X811430D01*
X811954Y189501D01*
Y191600D01*
X811430Y192125D01*
X810380D01*
X809855Y191600D01*
Y191075D01*
X810380Y190551D01*
X811954D01*
X813004Y188976D02*
Y191075D01*
X813529D01*
X814053Y190551D01*
Y188976D01*
Y190551D01*
X814578Y191075D01*
X815103Y190551D01*
Y188976D01*
X816152D02*
X817202D01*
X816677D01*
Y191075D01*
X816152D01*
X818776Y188976D02*
X819826D01*
X819301D01*
Y192125D01*
X818776D01*
X821400Y188976D02*
X822450Y190026D01*
Y191075D01*
X821400Y192125D01*
X769973Y181102D02*
X771023D01*
X770498D01*
Y184251D01*
X769973Y183726D01*
X773122Y180578D02*
X773646Y181102D01*
Y181627D01*
X773122D01*
Y181102D01*
X773646D01*
X773122Y180578D01*
X772597Y180053D01*
X775745Y183726D02*
X776270Y184251D01*
X777320D01*
X777844Y183726D01*
Y183201D01*
X777320Y182677D01*
X777844Y182152D01*
Y181627D01*
X777320Y181102D01*
X776270D01*
X775745Y181627D01*
Y182152D01*
X776270Y182677D01*
X775745Y183201D01*
Y183726D01*
X776270Y182677D02*
X777320D01*
X778894Y183726D02*
X779419Y184251D01*
X780468D01*
X780993Y183726D01*
Y181627D01*
X780468Y181102D01*
X779419D01*
X778894Y181627D01*
Y183726D01*
X782043D02*
X782567Y184251D01*
X783617D01*
X784142Y183726D01*
Y181627D01*
X783617Y181102D01*
X782567D01*
X782043Y181627D01*
Y183726D01*
X785191Y181102D02*
Y183201D01*
X785716D01*
X786241Y182677D01*
Y181102D01*
Y182677D01*
X786766Y183201D01*
X787290Y182677D01*
Y181102D01*
X788340D02*
Y183201D01*
X788865D01*
X789389Y182677D01*
Y181102D01*
Y182677D01*
X789914Y183201D01*
X790439Y182677D01*
Y181102D01*
X795687D02*
X794637Y182152D01*
Y183201D01*
X795687Y184251D01*
X797261D02*
X799360D01*
Y183726D01*
X797261Y181627D01*
Y181102D01*
X800410Y183726D02*
X800934Y184251D01*
X801984D01*
X802509Y183726D01*
Y181627D01*
X801984Y181102D01*
X800934D01*
X800410Y181627D01*
Y183726D01*
X804083Y180578D02*
X804608Y181102D01*
Y181627D01*
X804083D01*
Y181102D01*
X804608D01*
X804083Y180578D01*
X803558Y180053D01*
X806707Y183726D02*
X807231Y184251D01*
X808281D01*
X808806Y183726D01*
Y183201D01*
X808281Y182677D01*
X808806Y182152D01*
Y181627D01*
X808281Y181102D01*
X807231D01*
X806707Y181627D01*
Y182152D01*
X807231Y182677D01*
X806707Y183201D01*
Y183726D01*
X807231Y182677D02*
X808281D01*
X809855Y184251D02*
X811954D01*
Y183726D01*
X809855Y181627D01*
Y181102D01*
X813004D02*
Y183201D01*
X813529D01*
X814053Y182677D01*
Y181102D01*
Y182677D01*
X814578Y183201D01*
X815103Y182677D01*
Y181102D01*
X816152D02*
X817202D01*
X816677D01*
Y183201D01*
X816152D01*
X818776Y181102D02*
X819826D01*
X819301D01*
Y184251D01*
X818776D01*
X821400Y181102D02*
X822450Y182152D01*
Y183201D01*
X821400Y184251D01*
X769973Y173228D02*
X771023D01*
X770498D01*
Y176377D01*
X769973Y175852D01*
X773122Y172704D02*
X773646Y173228D01*
Y173753D01*
X773122D01*
Y173228D01*
X773646D01*
X773122Y172704D01*
X772597Y172179D01*
X777844Y173228D02*
X775745D01*
X777844Y175327D01*
Y175852D01*
X777320Y176377D01*
X776270D01*
X775745Y175852D01*
X778894D02*
X779419Y176377D01*
X780468D01*
X780993Y175852D01*
Y173753D01*
X780468Y173228D01*
X779419D01*
X778894Y173753D01*
Y175852D01*
X782043D02*
X782567Y176377D01*
X783617D01*
X784142Y175852D01*
Y173753D01*
X783617Y173228D01*
X782567D01*
X782043Y173753D01*
Y175852D01*
X785191Y173228D02*
Y175327D01*
X785716D01*
X786241Y174803D01*
Y173228D01*
Y174803D01*
X786766Y175327D01*
X787290Y174803D01*
Y173228D01*
X788340D02*
Y175327D01*
X788865D01*
X789389Y174803D01*
Y173228D01*
Y174803D01*
X789914Y175327D01*
X790439Y174803D01*
Y173228D01*
X795687D02*
X794637Y174278D01*
Y175327D01*
X795687Y176377D01*
X798835Y173228D02*
Y176377D01*
X797261Y174803D01*
X799360D01*
X800410Y176377D02*
X802509D01*
Y175852D01*
X800410Y173753D01*
Y173228D01*
X804083Y172704D02*
X804608Y173228D01*
Y173753D01*
X804083D01*
Y173228D01*
X804608D01*
X804083Y172704D01*
X803558Y172179D01*
X808806Y173228D02*
X806707D01*
X808806Y175327D01*
Y175852D01*
X808281Y176377D01*
X807231D01*
X806707Y175852D01*
X811430Y173228D02*
Y176377D01*
X809855Y174803D01*
X811954D01*
X813004Y173228D02*
Y175327D01*
X813529D01*
X814053Y174803D01*
Y173228D01*
Y174803D01*
X814578Y175327D01*
X815103Y174803D01*
Y173228D01*
X816152D02*
X817202D01*
X816677D01*
Y175327D01*
X816152D01*
X818776Y173228D02*
X819826D01*
X819301D01*
Y176377D01*
X818776D01*
X821400Y173228D02*
X822450Y174278D01*
Y175327D01*
X821400Y176377D01*
X769973Y167978D02*
X770498Y168503D01*
X771547D01*
X772072Y167978D01*
Y167453D01*
X771547Y166929D01*
X771023D01*
X771547D01*
X772072Y166404D01*
Y165879D01*
X771547Y165354D01*
X770498D01*
X769973Y165879D01*
X773646Y164830D02*
X774171Y165354D01*
Y165879D01*
X773646D01*
Y165354D01*
X774171D01*
X773646Y164830D01*
X773122Y164305D01*
X778369Y165354D02*
X776270D01*
X778369Y167453D01*
Y167978D01*
X777844Y168503D01*
X776795D01*
X776270Y167978D01*
X779419D02*
X779944Y168503D01*
X780993D01*
X781518Y167978D01*
Y165879D01*
X780993Y165354D01*
X779944D01*
X779419Y165879D01*
Y167978D01*
X782567D02*
X783092Y168503D01*
X784142D01*
X784666Y167978D01*
Y165879D01*
X784142Y165354D01*
X783092D01*
X782567Y165879D01*
Y167978D01*
X785716Y165354D02*
Y167453D01*
X786241D01*
X786765Y166929D01*
Y165354D01*
Y166929D01*
X787290Y167453D01*
X787815Y166929D01*
Y165354D01*
X788865D02*
Y167453D01*
X789389D01*
X789914Y166929D01*
Y165354D01*
Y166929D01*
X790439Y167453D01*
X790964Y166929D01*
Y165354D01*
X796211D02*
X795162Y166404D01*
Y167453D01*
X796211Y168503D01*
X797786Y165354D02*
X798835D01*
X798310D01*
Y168503D01*
X797786Y167978D01*
X802509Y165354D02*
X800410D01*
X802509Y167453D01*
Y167978D01*
X801984Y168503D01*
X800934D01*
X800410Y167978D01*
X805657Y168503D02*
X803558D01*
Y166929D01*
X804608Y167453D01*
X805132D01*
X805657Y166929D01*
Y165879D01*
X805132Y165354D01*
X804083D01*
X803558Y165879D01*
X807231Y164830D02*
X807756Y165354D01*
Y165879D01*
X807231D01*
Y165354D01*
X807756D01*
X807231Y164830D01*
X806707Y164305D01*
X809855Y165879D02*
X810380Y165354D01*
X811430D01*
X811954Y165879D01*
Y167978D01*
X811430Y168503D01*
X810380D01*
X809855Y167978D01*
Y167453D01*
X810380Y166929D01*
X811954D01*
X813004Y167978D02*
X813529Y168503D01*
X814578D01*
X815103Y167978D01*
Y167453D01*
X814578Y166929D01*
X815103Y166404D01*
Y165879D01*
X814578Y165354D01*
X813529D01*
X813004Y165879D01*
Y166404D01*
X813529Y166929D01*
X813004Y167453D01*
Y167978D01*
X813529Y166929D02*
X814578D01*
X816152Y165354D02*
Y167453D01*
X816677D01*
X817202Y166929D01*
Y165354D01*
Y166929D01*
X817727Y167453D01*
X818252Y166929D01*
Y165354D01*
X819301D02*
X820350D01*
X819826D01*
Y167453D01*
X819301D01*
X821925Y165354D02*
X822974D01*
X822450D01*
Y168503D01*
X821925D01*
X824549Y165354D02*
X825598Y166404D01*
Y167453D01*
X824549Y168503D01*
X769973Y160104D02*
X770498Y160629D01*
X771547D01*
X772072Y160104D01*
Y158005D01*
X771547Y157480D01*
X770498D01*
X769973Y158005D01*
Y160104D01*
X773646Y156956D02*
X774171Y157480D01*
Y158005D01*
X773646D01*
Y157480D01*
X774171D01*
X773646Y156956D01*
X773122Y156431D01*
X776270Y158005D02*
X776795Y157480D01*
X777844D01*
X778369Y158005D01*
Y160104D01*
X777844Y160629D01*
X776795D01*
X776270Y160104D01*
Y159579D01*
X776795Y159055D01*
X778369D01*
X779419Y160104D02*
X779944Y160629D01*
X780993D01*
X781518Y160104D01*
Y158005D01*
X780993Y157480D01*
X779944D01*
X779419Y158005D01*
Y160104D01*
X782567D02*
X783092Y160629D01*
X784142D01*
X784666Y160104D01*
Y158005D01*
X784142Y157480D01*
X783092D01*
X782567Y158005D01*
Y160104D01*
X785716Y157480D02*
Y159579D01*
X786241D01*
X786765Y159055D01*
Y157480D01*
Y159055D01*
X787290Y159579D01*
X787815Y159055D01*
Y157480D01*
X788865D02*
Y159579D01*
X789389D01*
X789914Y159055D01*
Y157480D01*
Y159055D01*
X790439Y159579D01*
X790964Y159055D01*
Y157480D01*
X796211D02*
X795162Y158530D01*
Y159579D01*
X796211Y160629D01*
X797786Y160104D02*
X798310Y160629D01*
X799360D01*
X799885Y160104D01*
Y159579D01*
X799360Y159055D01*
X798835D01*
X799360D01*
X799885Y158530D01*
Y158005D01*
X799360Y157480D01*
X798310D01*
X797786Y158005D01*
X803033Y160629D02*
X800934D01*
Y159055D01*
X801984Y159579D01*
X802509D01*
X803033Y159055D01*
Y158005D01*
X802509Y157480D01*
X801459D01*
X800934Y158005D01*
X804608Y156956D02*
X805132Y157480D01*
Y158005D01*
X804608D01*
Y157480D01*
X805132D01*
X804608Y156956D01*
X804083Y156431D01*
X808806Y157480D02*
Y160629D01*
X807231Y159055D01*
X809330D01*
X810380Y160104D02*
X810905Y160629D01*
X811954D01*
X812479Y160104D01*
Y159579D01*
X811954Y159055D01*
X811430D01*
X811954D01*
X812479Y158530D01*
Y158005D01*
X811954Y157480D01*
X810905D01*
X810380Y158005D01*
X813529Y157480D02*
Y159579D01*
X814053D01*
X814578Y159055D01*
Y157480D01*
Y159055D01*
X815103Y159579D01*
X815628Y159055D01*
Y157480D01*
X816677D02*
X817727D01*
X817202D01*
Y159579D01*
X816677D01*
X819301Y157480D02*
X820350D01*
X819826D01*
Y160629D01*
X819301D01*
X821925Y157480D02*
X822974Y158530D01*
Y159579D01*
X821925Y160629D01*
X769973Y149606D02*
X771023D01*
X770498D01*
Y152755D01*
X769973Y152230D01*
X773122Y149082D02*
X773646Y149606D01*
Y150131D01*
X773122D01*
Y149606D01*
X773646D01*
X773122Y149082D01*
X772597Y148557D01*
X775745Y152230D02*
X776270Y152755D01*
X777320D01*
X777844Y152230D01*
Y150131D01*
X777320Y149606D01*
X776270D01*
X775745Y150131D01*
Y152230D01*
X778894D02*
X779419Y152755D01*
X780468D01*
X780993Y152230D01*
Y150131D01*
X780468Y149606D01*
X779419D01*
X778894Y150131D01*
Y152230D01*
X782043D02*
X782567Y152755D01*
X783617D01*
X784142Y152230D01*
Y150131D01*
X783617Y149606D01*
X782567D01*
X782043Y150131D01*
Y152230D01*
X785191Y149606D02*
Y151705D01*
X785716D01*
X786241Y151181D01*
Y149606D01*
Y151181D01*
X786766Y151705D01*
X787290Y151181D01*
Y149606D01*
X788340D02*
Y151705D01*
X788865D01*
X789389Y151181D01*
Y149606D01*
Y151181D01*
X789914Y151705D01*
X790439Y151181D01*
Y149606D01*
X795687D02*
X794637Y150656D01*
Y151705D01*
X795687Y152755D01*
X797261Y152230D02*
X797786Y152755D01*
X798835D01*
X799360Y152230D01*
Y151705D01*
X798835Y151181D01*
X798310D01*
X798835D01*
X799360Y150656D01*
Y150131D01*
X798835Y149606D01*
X797786D01*
X797261Y150131D01*
X800410D02*
X800934Y149606D01*
X801984D01*
X802509Y150131D01*
Y152230D01*
X801984Y152755D01*
X800934D01*
X800410Y152230D01*
Y151705D01*
X800934Y151181D01*
X802509D01*
X804083Y149082D02*
X804608Y149606D01*
Y150131D01*
X804083D01*
Y149606D01*
X804608D01*
X804083Y149082D01*
X803558Y148557D01*
X806707Y152230D02*
X807231Y152755D01*
X808281D01*
X808806Y152230D01*
Y151705D01*
X808281Y151181D01*
X807756D01*
X808281D01*
X808806Y150656D01*
Y150131D01*
X808281Y149606D01*
X807231D01*
X806707Y150131D01*
X809855Y152755D02*
X811954D01*
Y152230D01*
X809855Y150131D01*
Y149606D01*
X813004D02*
Y151705D01*
X813529D01*
X814053Y151181D01*
Y149606D01*
Y151181D01*
X814578Y151705D01*
X815103Y151181D01*
Y149606D01*
X816152D02*
X817202D01*
X816677D01*
Y151705D01*
X816152D01*
X818776Y149606D02*
X819826D01*
X819301D01*
Y152755D01*
X818776D01*
X821400Y149606D02*
X822450Y150656D01*
Y151705D01*
X821400Y152755D01*
X769973Y141732D02*
X771023D01*
X770498D01*
Y144881D01*
X769973Y144356D01*
X773122Y141208D02*
X773646Y141732D01*
Y142257D01*
X773122D01*
Y141732D01*
X773646D01*
X773122Y141208D01*
X772597Y140683D01*
X775745Y141732D02*
X776795D01*
X776270D01*
Y144881D01*
X775745Y144356D01*
X778369D02*
X778894Y144881D01*
X779944D01*
X780468Y144356D01*
Y142257D01*
X779944Y141732D01*
X778894D01*
X778369Y142257D01*
Y144356D01*
X781518D02*
X782043Y144881D01*
X783092D01*
X783617Y144356D01*
Y142257D01*
X783092Y141732D01*
X782043D01*
X781518Y142257D01*
Y144356D01*
X784666Y141732D02*
Y143831D01*
X785191D01*
X785716Y143307D01*
Y141732D01*
Y143307D01*
X786241Y143831D01*
X786766Y143307D01*
Y141732D01*
X787815D02*
Y143831D01*
X788340D01*
X788865Y143307D01*
Y141732D01*
Y143307D01*
X789389Y143831D01*
X789914Y143307D01*
Y141732D01*
X795162D02*
X794112Y142782D01*
Y143831D01*
X795162Y144881D01*
X798310Y141732D02*
Y144881D01*
X796736Y143307D01*
X798835D01*
X799885Y144356D02*
X800410Y144881D01*
X801459D01*
X801984Y144356D01*
Y143831D01*
X801459Y143307D01*
X800934D01*
X801459D01*
X801984Y142782D01*
Y142257D01*
X801459Y141732D01*
X800410D01*
X799885Y142257D01*
X803558Y141208D02*
X804083Y141732D01*
Y142257D01*
X803558D01*
Y141732D01*
X804083D01*
X803558Y141208D01*
X803033Y140683D01*
X806182Y144356D02*
X806707Y144881D01*
X807756D01*
X808281Y144356D01*
Y143831D01*
X807756Y143307D01*
X807231D01*
X807756D01*
X808281Y142782D01*
Y142257D01*
X807756Y141732D01*
X806707D01*
X806182Y142257D01*
X809330Y141732D02*
X810380D01*
X809855D01*
Y144881D01*
X809330Y144356D01*
X811954Y141732D02*
Y143831D01*
X812479D01*
X813004Y143307D01*
Y141732D01*
Y143307D01*
X813529Y143831D01*
X814053Y143307D01*
Y141732D01*
X815103D02*
X816152D01*
X815628D01*
Y143831D01*
X815103D01*
X817727Y141732D02*
X818776D01*
X818252D01*
Y144881D01*
X817727D01*
X820350Y141732D02*
X821400Y142782D01*
Y143831D01*
X820350Y144881D01*
X769973Y136482D02*
X770498Y137007D01*
X771547D01*
X772072Y136482D01*
Y134383D01*
X771547Y133858D01*
X770498D01*
X769973Y134383D01*
Y136482D01*
X773646Y133334D02*
X774171Y133858D01*
Y134383D01*
X773646D01*
Y133858D01*
X774171D01*
X773646Y133334D01*
X773122Y132809D01*
X776270Y136482D02*
X776795Y137007D01*
X777844D01*
X778369Y136482D01*
Y135957D01*
X777844Y135433D01*
X777320D01*
X777844D01*
X778369Y134908D01*
Y134383D01*
X777844Y133858D01*
X776795D01*
X776270Y134383D01*
X779419Y136482D02*
X779944Y137007D01*
X780993D01*
X781518Y136482D01*
Y134383D01*
X780993Y133858D01*
X779944D01*
X779419Y134383D01*
Y136482D01*
X782567D02*
X783092Y137007D01*
X784142D01*
X784666Y136482D01*
Y134383D01*
X784142Y133858D01*
X783092D01*
X782567Y134383D01*
Y136482D01*
X785716Y133858D02*
Y135957D01*
X786241D01*
X786765Y135433D01*
Y133858D01*
Y135433D01*
X787290Y135957D01*
X787815Y135433D01*
Y133858D01*
X788865D02*
Y135957D01*
X789389D01*
X789914Y135433D01*
Y133858D01*
Y135433D01*
X790439Y135957D01*
X790964Y135433D01*
Y133858D01*
X796211D02*
X795162Y134908D01*
Y135957D01*
X796211Y137007D01*
X797786Y133858D02*
X798835D01*
X798310D01*
Y137007D01*
X797786Y136482D01*
X800410Y133858D02*
X801459D01*
X800934D01*
Y137007D01*
X800410Y136482D01*
X803558Y133334D02*
X804083Y133858D01*
Y134383D01*
X803558D01*
Y133858D01*
X804083D01*
X803558Y133334D01*
X803033Y132809D01*
X806182Y136482D02*
X806707Y137007D01*
X807756D01*
X808281Y136482D01*
Y135957D01*
X807756Y135433D01*
X808281Y134908D01*
Y134383D01*
X807756Y133858D01*
X806707D01*
X806182Y134383D01*
Y134908D01*
X806707Y135433D01*
X806182Y135957D01*
Y136482D01*
X806707Y135433D02*
X807756D01*
X809330Y133858D02*
X810380D01*
X809855D01*
Y137007D01*
X809330Y136482D01*
X811954Y133858D02*
Y135957D01*
X812479D01*
X813004Y135433D01*
Y133858D01*
Y135433D01*
X813529Y135957D01*
X814053Y135433D01*
Y133858D01*
X815103D02*
X816152D01*
X815628D01*
Y135957D01*
X815103D01*
X817727Y133858D02*
X818776D01*
X818252D01*
Y137007D01*
X817727D01*
X820350Y133858D02*
X821400Y134908D01*
Y135957D01*
X820350Y137007D01*
X741503Y129133D02*
X743602D01*
Y128608D01*
X741503Y126509D01*
Y125984D01*
X744651Y128608D02*
X745176Y129133D01*
X746226D01*
X746750Y128608D01*
Y128083D01*
X746226Y127559D01*
X745701D01*
X746226D01*
X746750Y127034D01*
Y126509D01*
X746226Y125984D01*
X745176D01*
X744651Y126509D01*
X750948Y129133D02*
X753048D01*
X751998D01*
Y125984D01*
X754622D02*
X755671D01*
X756196Y126509D01*
Y127559D01*
X755671Y128083D01*
X754622D01*
X754097Y127559D01*
Y126509D01*
X754622Y125984D01*
X757770Y128608D02*
Y128083D01*
X757246D01*
X758295D01*
X757770D01*
Y126509D01*
X758295Y125984D01*
X760394Y128083D02*
X761444D01*
X761969Y127559D01*
Y125984D01*
X760394D01*
X759869Y126509D01*
X760394Y127034D01*
X761969D01*
X763018Y125984D02*
X764068D01*
X763543D01*
Y129133D01*
X763018D01*
X743602Y204724D02*
X741503D01*
X743602Y206823D01*
Y207348D01*
X743077Y207873D01*
X742028D01*
X741503Y207348D01*
X743602Y196850D02*
X741503D01*
X743602Y198949D01*
Y199474D01*
X743077Y199999D01*
X742028D01*
X741503Y199474D01*
X743602Y188976D02*
X741503D01*
X743602Y191075D01*
Y191600D01*
X743077Y192125D01*
X742028D01*
X741503Y191600D01*
X743602Y181102D02*
X741503D01*
X743602Y183201D01*
Y183726D01*
X743077Y184251D01*
X742028D01*
X741503Y183726D01*
X743077Y173228D02*
Y176377D01*
X741503Y174803D01*
X743602D01*
X743077Y165354D02*
Y168503D01*
X741503Y166929D01*
X743602D01*
Y160629D02*
X742552Y160104D01*
X741503Y159055D01*
Y158005D01*
X742028Y157480D01*
X743077D01*
X743602Y158005D01*
Y158530D01*
X743077Y159055D01*
X741503D01*
Y152755D02*
X743602D01*
Y152230D01*
X741503Y150131D01*
Y149606D01*
Y141732D02*
X742552D01*
X742028D01*
Y144881D01*
X741503Y144356D01*
X744127D02*
X744651Y144881D01*
X745701D01*
X746226Y144356D01*
Y143831D01*
X745701Y143307D01*
X746226Y142782D01*
Y142257D01*
X745701Y141732D01*
X744651D01*
X744127Y142257D01*
Y142782D01*
X744651Y143307D01*
X744127Y143831D01*
Y144356D01*
X744651Y143307D02*
X745701D01*
X743602Y133858D02*
X741503D01*
X743602Y135957D01*
Y136482D01*
X743077Y137007D01*
X742028D01*
X741503Y136482D01*
X746750Y137007D02*
X745701Y136482D01*
X744651Y135433D01*
Y134383D01*
X745176Y133858D01*
X746226D01*
X746750Y134383D01*
Y134908D01*
X746226Y135433D01*
X744651D01*
X808831Y113913D02*
X810930D01*
X808831Y114963D02*
X810930D01*
X815128Y112864D02*
Y116012D01*
X816702D01*
X817227Y115488D01*
Y114438D01*
X816702Y113913D01*
X815128D01*
X816177D02*
X817227Y112864D01*
X818801D02*
X819851D01*
X820375Y113388D01*
Y114438D01*
X819851Y114963D01*
X818801D01*
X818276Y114438D01*
Y113388D01*
X818801Y112864D01*
X821425Y114963D02*
Y113388D01*
X821950Y112864D01*
X823524D01*
Y114963D01*
X825098Y115488D02*
Y114963D01*
X824573D01*
X825623D01*
X825098D01*
Y113388D01*
X825623Y112864D01*
X828772D02*
X827722D01*
X827197Y113388D01*
Y114438D01*
X827722Y114963D01*
X828772D01*
X829296Y114438D01*
Y113913D01*
X827197D01*
X832445Y116012D02*
Y112864D01*
X830871D01*
X830346Y113388D01*
Y114438D01*
X830871Y114963D01*
X832445D01*
X836643Y112864D02*
Y116012D01*
X838217D01*
X838742Y115488D01*
Y114438D01*
X838217Y113913D01*
X836643D01*
X840316Y114963D02*
X841366D01*
X841891Y114438D01*
Y112864D01*
X840316D01*
X839792Y113388D01*
X840316Y113913D01*
X841891D01*
X843465Y115488D02*
Y114963D01*
X842940D01*
X843990D01*
X843465D01*
Y113388D01*
X843990Y112864D01*
X845564Y116012D02*
Y112864D01*
Y114438D01*
X846089Y114963D01*
X847138D01*
X847663Y114438D01*
Y112864D01*
X851861Y116012D02*
Y112864D01*
X853960D01*
X856584D02*
X855535D01*
X855010Y113388D01*
Y114438D01*
X855535Y114963D01*
X856584D01*
X857109Y114438D01*
Y113913D01*
X855010D01*
X858158Y112864D02*
Y114963D01*
X859733D01*
X860258Y114438D01*
Y112864D01*
X862356Y111814D02*
X862881D01*
X863406Y112339D01*
Y114963D01*
X861832D01*
X861307Y114438D01*
Y113388D01*
X861832Y112864D01*
X863406D01*
X864980Y115488D02*
Y114963D01*
X864456D01*
X865505D01*
X864980D01*
Y113388D01*
X865505Y112864D01*
X867079Y116012D02*
Y112864D01*
Y114438D01*
X867604Y114963D01*
X868654D01*
X869178Y114438D01*
Y112864D01*
X873377Y114438D02*
X875476D01*
X874426Y115488D02*
Y113388D01*
X879674Y116012D02*
X881773D01*
X880723D01*
Y112864D01*
X883347D02*
X884397D01*
X884921Y113388D01*
Y114438D01*
X884397Y114963D01*
X883347D01*
X882822Y114438D01*
Y113388D01*
X883347Y112864D01*
X886496D02*
X887545D01*
X888070Y113388D01*
Y114438D01*
X887545Y114963D01*
X886496D01*
X885971Y114438D01*
Y113388D01*
X886496Y112864D01*
X889120D02*
X890169D01*
X889644D01*
Y116012D01*
X889120D01*
X896991Y115488D02*
X896466Y116012D01*
X895417D01*
X894892Y115488D01*
Y114963D01*
X895417Y114438D01*
X896466D01*
X896991Y113913D01*
Y113388D01*
X896466Y112864D01*
X895417D01*
X894892Y113388D01*
X898041Y112864D02*
X899090D01*
X898565D01*
Y114963D01*
X898041D01*
X900664D02*
X902763D01*
X900664Y112864D01*
X902763D01*
X905387D02*
X904338D01*
X903813Y113388D01*
Y114438D01*
X904338Y114963D01*
X905387D01*
X905912Y114438D01*
Y113913D01*
X903813D01*
X910110D02*
X912209D01*
X910110Y114963D02*
X912209D01*
X918506Y115488D02*
X917982Y116012D01*
X916932D01*
X916407Y115488D01*
Y114963D01*
X916932Y114438D01*
X917982D01*
X918506Y113913D01*
Y113388D01*
X917982Y112864D01*
X916932D01*
X916407Y113388D01*
X919556Y112864D02*
X920605D01*
X920081D01*
Y116012D01*
X919556D01*
X922705Y112864D02*
X923754D01*
X924279Y113388D01*
Y114438D01*
X923754Y114963D01*
X922705D01*
X922180Y114438D01*
Y113388D01*
X922705Y112864D01*
X925853Y115488D02*
Y114963D01*
X925328D01*
X926378D01*
X925853D01*
Y113388D01*
X926378Y112864D01*
X931101D02*
X932150D01*
X931625D01*
Y116012D01*
X931101D01*
X935299Y112864D02*
X934249D01*
X933725Y113388D01*
Y114438D01*
X934249Y114963D01*
X935299D01*
X935824Y114438D01*
Y113913D01*
X933725D01*
X936873Y112864D02*
Y114963D01*
X938447D01*
X938972Y114438D01*
Y112864D01*
X941071Y111814D02*
X941596D01*
X942121Y112339D01*
Y114963D01*
X940547D01*
X940022Y114438D01*
Y113388D01*
X940547Y112864D01*
X942121D01*
X943695Y115488D02*
Y114963D01*
X943170D01*
X944220D01*
X943695D01*
Y113388D01*
X944220Y112864D01*
X945794Y116012D02*
Y112864D01*
Y114438D01*
X946319Y114963D01*
X947369D01*
X947893Y114438D01*
Y112864D01*
X952616Y114963D02*
X953666D01*
X954190Y114438D01*
Y112864D01*
X952616D01*
X952091Y113388D01*
X952616Y113913D01*
X954190D01*
X955240Y112864D02*
X956814D01*
X957339Y113388D01*
X956814Y113913D01*
X955765D01*
X955240Y114438D01*
X955765Y114963D01*
X957339D01*
X963636Y116012D02*
Y112864D01*
X962062D01*
X961537Y113388D01*
Y114438D01*
X962062Y114963D01*
X963636D01*
X966260Y112864D02*
X965211D01*
X964686Y113388D01*
Y114438D01*
X965211Y114963D01*
X966260D01*
X966785Y114438D01*
Y113913D01*
X964686D01*
X968359Y112864D02*
Y115488D01*
Y114438D01*
X967834D01*
X968884D01*
X968359D01*
Y115488D01*
X968884Y116012D01*
X970458Y112864D02*
X971508D01*
X970983D01*
Y114963D01*
X970458D01*
X973082Y112864D02*
Y114963D01*
X974656D01*
X975181Y114438D01*
Y112864D01*
X977805D02*
X976755D01*
X976231Y113388D01*
Y114438D01*
X976755Y114963D01*
X977805D01*
X978330Y114438D01*
Y113913D01*
X976231D01*
X981478Y116012D02*
Y112864D01*
X979904D01*
X979379Y113388D01*
Y114438D01*
X979904Y114963D01*
X981478D01*
X985676Y112864D02*
X986726D01*
X986201D01*
Y114963D01*
X985676D01*
X988300Y112864D02*
Y114963D01*
X989874D01*
X990399Y114438D01*
Y112864D01*
X995122Y115488D02*
Y114963D01*
X994597D01*
X995647D01*
X995122D01*
Y113388D01*
X995647Y112864D01*
X997221Y116012D02*
Y112864D01*
Y114438D01*
X997746Y114963D01*
X998796D01*
X999320Y114438D01*
Y112864D01*
X1001944D02*
X1000895D01*
X1000370Y113388D01*
Y114438D01*
X1000895Y114963D01*
X1001944D01*
X1002469Y114438D01*
Y113913D01*
X1000370D01*
X1006667Y112864D02*
Y116012D01*
X1008241D01*
X1008766Y115488D01*
Y114438D01*
X1008241Y113913D01*
X1006667D01*
X1011915Y115488D02*
X1011390Y116012D01*
X1010340D01*
X1009816Y115488D01*
Y113388D01*
X1010340Y112864D01*
X1011390D01*
X1011915Y113388D01*
X1012964Y116012D02*
Y112864D01*
X1014538D01*
X1015063Y113388D01*
Y113913D01*
X1014538Y114438D01*
X1012964D01*
X1014538D01*
X1015063Y114963D01*
Y115488D01*
X1014538Y116012D01*
X1012964D01*
X1019261Y112864D02*
X1020311D01*
X1019786D01*
Y116012D01*
X1019261D01*
X1022410Y114963D02*
X1023459D01*
X1023984Y114438D01*
Y112864D01*
X1022410D01*
X1021885Y113388D01*
X1022410Y113913D01*
X1023984D01*
X1025034Y114963D02*
Y113388D01*
X1025558Y112864D01*
X1027133D01*
Y112339D01*
X1026608Y111814D01*
X1026083D01*
X1027133Y112864D02*
Y114963D01*
X1028707Y112864D02*
X1029757D01*
X1030281Y113388D01*
Y114438D01*
X1029757Y114963D01*
X1028707D01*
X1028182Y114438D01*
Y113388D01*
X1028707Y112864D01*
X1031331Y114963D02*
Y113388D01*
X1031856Y112864D01*
X1033430D01*
Y114963D01*
X1035004Y115488D02*
Y114963D01*
X1034480D01*
X1035529D01*
X1035004D01*
Y113388D01*
X1035529Y112864D01*
X827197Y119292D02*
X829296D01*
X827197Y120342D02*
X829296D01*
X835594Y120867D02*
X835069Y121391D01*
X834019D01*
X833494Y120867D01*
Y118768D01*
X834019Y118243D01*
X835069D01*
X835594Y118768D01*
X837168Y120342D02*
X838217D01*
X838742Y119817D01*
Y118243D01*
X837168D01*
X836643Y118768D01*
X837168Y119292D01*
X838742D01*
X839792Y118243D02*
X840841D01*
X840316D01*
Y121391D01*
X839792D01*
X844514Y120342D02*
X842940D01*
X842416Y119817D01*
Y118768D01*
X842940Y118243D01*
X844514D01*
X845564Y120342D02*
Y118768D01*
X846089Y118243D01*
X847663D01*
Y120342D01*
X848713Y118243D02*
X849762D01*
X849237D01*
Y121391D01*
X848713D01*
X851861Y120342D02*
X852911D01*
X853436Y119817D01*
Y118243D01*
X851861D01*
X851336Y118768D01*
X851861Y119292D01*
X853436D01*
X855010Y120867D02*
Y120342D01*
X854485D01*
X855535D01*
X855010D01*
Y118768D01*
X855535Y118243D01*
X858683D02*
X857634D01*
X857109Y118768D01*
Y119817D01*
X857634Y120342D01*
X858683D01*
X859208Y119817D01*
Y119292D01*
X857109D01*
X862356Y121391D02*
Y118243D01*
X860782D01*
X860258Y118768D01*
Y119817D01*
X860782Y120342D01*
X862356D01*
X867079Y118243D02*
Y120867D01*
Y119817D01*
X866555D01*
X867604D01*
X867079D01*
Y120867D01*
X867604Y121391D01*
X869178Y120342D02*
Y118243D01*
Y119292D01*
X869703Y119817D01*
X870228Y120342D01*
X870753D01*
X872852Y118243D02*
X873901D01*
X874426Y118768D01*
Y119817D01*
X873901Y120342D01*
X872852D01*
X872327Y119817D01*
Y118768D01*
X872852Y118243D01*
X875476D02*
Y120342D01*
X876000D01*
X876525Y119817D01*
Y118243D01*
Y119817D01*
X877050Y120342D01*
X877575Y119817D01*
Y118243D01*
X882298Y120867D02*
Y120342D01*
X881773D01*
X882822D01*
X882298D01*
Y118768D01*
X882822Y118243D01*
X884921D02*
X885971D01*
X886496Y118768D01*
Y119817D01*
X885971Y120342D01*
X884921D01*
X884397Y119817D01*
Y118768D01*
X884921Y118243D01*
X888070D02*
X889120D01*
X889644Y118768D01*
Y119817D01*
X889120Y120342D01*
X888070D01*
X887545Y119817D01*
Y118768D01*
X888070Y118243D01*
X890694D02*
X891743D01*
X891219D01*
Y121391D01*
X890694D01*
X896466Y118243D02*
X898041D01*
X898565Y118768D01*
X898041Y119292D01*
X896991D01*
X896466Y119817D01*
X896991Y120342D01*
X898565D01*
X900140Y120867D02*
Y120342D01*
X899615D01*
X900664D01*
X900140D01*
Y118768D01*
X900664Y118243D01*
X902763Y120342D02*
X903813D01*
X904338Y119817D01*
Y118243D01*
X902763D01*
X902239Y118768D01*
X902763Y119292D01*
X904338D01*
X905387Y120342D02*
Y118243D01*
Y119292D01*
X905912Y119817D01*
X906437Y120342D01*
X906962D01*
X909061Y120867D02*
Y120342D01*
X908536D01*
X909585D01*
X909061D01*
Y118768D01*
X909585Y118243D01*
X916407Y120342D02*
X914833D01*
X914308Y119817D01*
Y118768D01*
X914833Y118243D01*
X916407D01*
X919031D02*
X917982D01*
X917457Y118768D01*
Y119817D01*
X917982Y120342D01*
X919031D01*
X919556Y119817D01*
Y119292D01*
X917457D01*
X920605Y118243D02*
Y120342D01*
X922180D01*
X922705Y119817D01*
Y118243D01*
X924279Y120867D02*
Y120342D01*
X923754D01*
X924804D01*
X924279D01*
Y118768D01*
X924804Y118243D01*
X926378Y120342D02*
Y118243D01*
Y119292D01*
X926903Y119817D01*
X927427Y120342D01*
X927952D01*
X931101Y118243D02*
X930051D01*
X929527Y118768D01*
Y119817D01*
X930051Y120342D01*
X931101D01*
X931625Y119817D01*
Y119292D01*
X929527D01*
X935824Y117193D02*
Y120342D01*
X937398D01*
X937923Y119817D01*
Y118768D01*
X937398Y118243D01*
X935824D01*
X939497D02*
X940547D01*
X941071Y118768D01*
Y119817D01*
X940547Y120342D01*
X939497D01*
X938972Y119817D01*
Y118768D01*
X939497Y118243D01*
X942121D02*
X943695D01*
X944220Y118768D01*
X943695Y119292D01*
X942646D01*
X942121Y119817D01*
X942646Y120342D01*
X944220D01*
X945269Y118243D02*
X946319D01*
X945794D01*
Y120342D01*
X945269D01*
X948418Y120867D02*
Y120342D01*
X947893D01*
X948943D01*
X948418D01*
Y118768D01*
X948943Y118243D01*
X950517D02*
X951567D01*
X951042D01*
Y120342D01*
X950517D01*
X953666Y118243D02*
X954715D01*
X955240Y118768D01*
Y119817D01*
X954715Y120342D01*
X953666D01*
X953141Y119817D01*
Y118768D01*
X953666Y118243D01*
X956289D02*
Y120342D01*
X957864D01*
X958389Y119817D01*
Y118243D01*
X963111Y120867D02*
Y120342D01*
X962587D01*
X963636D01*
X963111D01*
Y118768D01*
X963636Y118243D01*
X965735D02*
X966785D01*
X967310Y118768D01*
Y119817D01*
X966785Y120342D01*
X965735D01*
X965211Y119817D01*
Y118768D01*
X965735Y118243D01*
X972033Y120867D02*
Y120342D01*
X971508D01*
X972557D01*
X972033D01*
Y118768D01*
X972557Y118243D01*
X974656D02*
X975706D01*
X976231Y118768D01*
Y119817D01*
X975706Y120342D01*
X974656D01*
X974131Y119817D01*
Y118768D01*
X974656Y118243D01*
X977805D02*
X978854D01*
X979379Y118768D01*
Y119817D01*
X978854Y120342D01*
X977805D01*
X977280Y119817D01*
Y118768D01*
X977805Y118243D01*
X980429D02*
X981478D01*
X980954D01*
Y121391D01*
X980429D01*
X987775Y118243D02*
X986726D01*
X986201Y118768D01*
Y119817D01*
X986726Y120342D01*
X987775D01*
X988300Y119817D01*
Y119292D01*
X986201D01*
X989350Y118243D02*
Y120342D01*
X990924D01*
X991449Y119817D01*
Y118243D01*
X994597Y121391D02*
Y118243D01*
X993023D01*
X992498Y118768D01*
Y119817D01*
X993023Y120342D01*
X994597D01*
X1000895D02*
X999320D01*
X998796Y119817D01*
Y118768D01*
X999320Y118243D01*
X1000895D01*
X1003518D02*
X1002469D01*
X1001944Y118768D01*
Y119817D01*
X1002469Y120342D01*
X1003518D01*
X1004043Y119817D01*
Y119292D01*
X1001944D01*
X1005093Y118243D02*
Y120342D01*
X1006667D01*
X1007192Y119817D01*
Y118243D01*
X1008766Y120867D02*
Y120342D01*
X1008241D01*
X1009291D01*
X1008766D01*
Y118768D01*
X1009291Y118243D01*
X1010865Y120342D02*
Y118243D01*
Y119292D01*
X1011390Y119817D01*
X1011915Y120342D01*
X1012439D01*
X1015588Y118243D02*
X1014538D01*
X1014014Y118768D01*
Y119817D01*
X1014538Y120342D01*
X1015588D01*
X1016113Y119817D01*
Y119292D01*
X1014014D01*
X1020311Y117193D02*
Y120342D01*
X1021885D01*
X1022410Y119817D01*
Y118768D01*
X1021885Y118243D01*
X1020311D01*
X1023984D02*
X1025034D01*
X1025558Y118768D01*
Y119817D01*
X1025034Y120342D01*
X1023984D01*
X1023460Y119817D01*
Y118768D01*
X1023984Y118243D01*
X1026608D02*
X1028182D01*
X1028707Y118768D01*
X1028182Y119292D01*
X1027133D01*
X1026608Y119817D01*
X1027133Y120342D01*
X1028707D01*
X1029757Y118243D02*
X1030806D01*
X1030281D01*
Y120342D01*
X1029757D01*
X1032905Y120867D02*
Y120342D01*
X1032380D01*
X1033430D01*
X1032905D01*
Y118768D01*
X1033430Y118243D01*
X1035004D02*
X1036054D01*
X1035529D01*
Y120342D01*
X1035004D01*
X1038153Y118243D02*
X1039202D01*
X1039727Y118768D01*
Y119817D01*
X1039202Y120342D01*
X1038153D01*
X1037628Y119817D01*
Y118768D01*
X1038153Y118243D01*
X1040777D02*
Y120342D01*
X1042351D01*
X1042876Y119817D01*
Y118243D01*
X1043925D02*
Y118768D01*
X1044450D01*
Y118243D01*
X1043925D01*
D12*
X1178748Y-229571D02*
Y-190201D01*
X1021267Y-150831D02*
X1296858D01*
X1021267Y-190201D02*
X1296858D01*
X824417Y-229571D02*
X1296858D01*
X824417Y-111461D02*
X1296858D01*
X824417Y-268941D02*
Y-111461D01*
X1021267Y-268941D02*
Y-111461D01*
X-356685Y900350D02*
X1296858D01*
Y-268941D02*
Y900350D01*
X-356685Y-268941D02*
Y900350D01*
Y-268941D02*
X1296858D01*
X1035046Y-255164D02*
X1031110D01*
Y-258115D01*
X1033078D01*
X1031110D01*
Y-261067D01*
X1037014Y-257131D02*
Y-261067D01*
Y-259099D01*
X1037998Y-258115D01*
X1038981Y-257131D01*
X1039965D01*
X1042917Y-261067D02*
X1044885D01*
X1043901D01*
Y-257131D01*
X1042917D01*
X1047837Y-256147D02*
X1048821Y-255164D01*
X1050789D01*
X1051772Y-256147D01*
Y-257131D01*
X1050789Y-258115D01*
X1049805D01*
X1050789D01*
X1051772Y-259099D01*
Y-260083D01*
X1050789Y-261067D01*
X1048821D01*
X1047837Y-260083D01*
X1053740Y-255164D02*
Y-261067D01*
X1056692D01*
X1057676Y-260083D01*
Y-256147D01*
X1056692Y-255164D01*
X1053740D01*
X1059644Y-262051D02*
X1063580D01*
X1069483Y-261067D02*
X1065548D01*
X1069483Y-257131D01*
Y-256147D01*
X1068499Y-255164D01*
X1066531D01*
X1065548Y-256147D01*
X1071451D02*
X1072435Y-255164D01*
X1074403D01*
X1075387Y-256147D01*
Y-260083D01*
X1074403Y-261067D01*
X1072435D01*
X1071451Y-260083D01*
Y-256147D01*
X1081291Y-261067D02*
X1077355D01*
X1081291Y-257131D01*
Y-256147D01*
X1080307Y-255164D01*
X1078339D01*
X1077355Y-256147D01*
X1083258D02*
X1084242Y-255164D01*
X1086210D01*
X1087194Y-256147D01*
Y-260083D01*
X1086210Y-261067D01*
X1084242D01*
X1083258Y-260083D01*
Y-256147D01*
X1089162Y-262051D02*
X1093098D01*
X1099001Y-256147D02*
X1098017Y-255164D01*
X1096049D01*
X1095066Y-256147D01*
Y-260083D01*
X1096049Y-261067D01*
X1098017D01*
X1099001Y-260083D01*
Y-258115D01*
X1097034D01*
X1101953Y-257131D02*
X1103921D01*
X1104905Y-258115D01*
Y-261067D01*
X1101953D01*
X1100969Y-260083D01*
X1101953Y-259099D01*
X1104905D01*
X1106873Y-261067D02*
Y-257131D01*
X1107857D01*
X1108841Y-258115D01*
Y-261067D01*
Y-258115D01*
X1109825Y-257131D01*
X1110808Y-258115D01*
Y-261067D01*
X1115728D02*
X1113760D01*
X1112776Y-260083D01*
Y-258115D01*
X1113760Y-257131D01*
X1115728D01*
X1116712Y-258115D01*
Y-259099D01*
X1112776D01*
X1121632Y-255164D02*
X1119664D01*
X1118680Y-256147D01*
Y-260083D01*
X1119664Y-261067D01*
X1121632D01*
X1122616Y-260083D01*
Y-256147D01*
X1121632Y-255164D01*
X1124584Y-261067D02*
Y-257131D01*
X1127535D01*
X1128519Y-258115D01*
Y-261067D01*
X1130487Y-262051D02*
X1134423D01*
X1136391Y-256147D02*
X1137375Y-255164D01*
X1139343D01*
X1140326Y-256147D01*
Y-260083D01*
X1139343Y-261067D01*
X1137375D01*
X1136391Y-260083D01*
Y-256147D01*
X1142294Y-261067D02*
X1144262D01*
X1143278D01*
Y-255164D01*
X1142294Y-256147D01*
X1147214Y-261067D02*
Y-260083D01*
X1148198D01*
Y-261067D01*
X1147214D01*
X1152134D02*
Y-255164D01*
X1155085D01*
X1156069Y-256147D01*
Y-258115D01*
X1155085Y-259099D01*
X1152134D01*
X1161973Y-257131D02*
X1159021D01*
X1158037Y-258115D01*
Y-260083D01*
X1159021Y-261067D01*
X1161973D01*
X1163941Y-255164D02*
Y-261067D01*
X1166893D01*
X1167877Y-260083D01*
Y-259099D01*
Y-258115D01*
X1166893Y-257131D01*
X1163941D01*
X1169845Y-255164D02*
Y-261067D01*
X1172796D01*
X1173780Y-260083D01*
Y-256147D01*
X1172796Y-255164D01*
X1169845D01*
X1176732Y-261067D02*
X1178700D01*
X1179684Y-260083D01*
Y-258115D01*
X1178700Y-257131D01*
X1176732D01*
X1175748Y-258115D01*
Y-260083D01*
X1176732Y-261067D01*
X1185588Y-257131D02*
X1182636D01*
X1181652Y-258115D01*
Y-260083D01*
X1182636Y-261067D01*
X1185588D01*
D14*
X846071Y-247293D02*
Y-263036D01*
X851318Y-257788D01*
X856566Y-263036D01*
Y-247293D01*
X861814Y-263036D02*
X867061D01*
X864437D01*
Y-252540D01*
X861814D01*
X874933Y-263036D02*
Y-252540D01*
X877556D01*
X880180Y-255164D01*
Y-263036D01*
Y-255164D01*
X882804Y-252540D01*
X885428Y-255164D01*
Y-263036D01*
X890676Y-247293D02*
Y-257788D01*
X895923Y-263036D01*
X901171Y-257788D01*
Y-247293D01*
X916914Y-249917D02*
X914290Y-247293D01*
X909042D01*
X906419Y-249917D01*
Y-260412D01*
X909042Y-263036D01*
X914290D01*
X916914Y-260412D01*
Y-255164D01*
X911666D01*
X1200401Y-210546D02*
X1203025Y-207923D01*
X1208273D01*
X1210897Y-210546D01*
Y-221042D01*
X1208273Y-223665D01*
X1203025D01*
X1200401Y-221042D01*
Y-210546D01*
X1216144Y-223665D02*
X1221392D01*
X1218768D01*
Y-207923D01*
X1216144Y-210546D01*
X1037015Y-212186D02*
X1039311Y-209890D01*
X1043903D01*
X1046199Y-212186D01*
Y-221370D01*
X1043903Y-223665D01*
X1039311D01*
X1037015Y-221370D01*
Y-212186D01*
X1059974Y-209890D02*
X1050791D01*
Y-216778D01*
X1055382Y-214482D01*
X1057678D01*
X1059974Y-216778D01*
Y-221370D01*
X1057678Y-223665D01*
X1053086D01*
X1050791Y-221370D01*
X1064566Y-223665D02*
X1073749Y-214482D01*
X1078341Y-212186D02*
X1080637Y-209890D01*
X1085228D01*
X1087524Y-212186D01*
Y-221370D01*
X1085228Y-223665D01*
X1080637D01*
X1078341Y-221370D01*
Y-212186D01*
X1092116Y-223665D02*
X1096707D01*
X1094412D01*
Y-209890D01*
X1092116Y-212186D01*
X1103595Y-223665D02*
X1112778Y-214482D01*
X1126553Y-223665D02*
X1117370D01*
X1126553Y-214482D01*
Y-212186D01*
X1124258Y-209890D01*
X1119666D01*
X1117370Y-212186D01*
X1131145D02*
X1133441Y-209890D01*
X1138033D01*
X1140329Y-212186D01*
Y-221370D01*
X1138033Y-223665D01*
X1133441D01*
X1131145Y-221370D01*
Y-212186D01*
X1154104Y-223665D02*
X1144920D01*
X1154104Y-214482D01*
Y-212186D01*
X1151808Y-209890D01*
X1147216D01*
X1144920Y-212186D01*
X1167879Y-223665D02*
X1158695D01*
X1167879Y-214482D01*
Y-212186D01*
X1165583Y-209890D01*
X1160991D01*
X1158695Y-212186D01*
X1039506Y-132331D02*
X1031110D01*
Y-138628D01*
X1035308D01*
X1031110D01*
Y-144925D01*
X1043704Y-136529D02*
Y-144925D01*
Y-140727D01*
X1045803Y-138628D01*
X1047902Y-136529D01*
X1050002D01*
X1056299Y-144925D02*
X1060497D01*
X1058398D01*
Y-136529D01*
X1056299D01*
X1066794Y-134430D02*
X1068893Y-132331D01*
X1073091D01*
X1075190Y-134430D01*
Y-136529D01*
X1073091Y-138628D01*
X1070992D01*
X1073091D01*
X1075190Y-140727D01*
Y-142826D01*
X1073091Y-144925D01*
X1068893D01*
X1066794Y-142826D01*
X1079388Y-132331D02*
Y-144925D01*
X1085686D01*
X1087784Y-142826D01*
Y-134430D01*
X1085686Y-132331D01*
X1079388D01*
X1112973Y-144925D02*
X1104577D01*
X1112973Y-136529D01*
Y-134430D01*
X1110874Y-132331D01*
X1106676D01*
X1104577Y-134430D01*
X1117171D02*
X1119270Y-132331D01*
X1123469D01*
X1125568Y-134430D01*
Y-142826D01*
X1123469Y-144925D01*
X1119270D01*
X1117171Y-142826D01*
Y-134430D01*
X1138162Y-144925D02*
X1129766D01*
X1138162Y-136529D01*
Y-134430D01*
X1136063Y-132331D01*
X1131865D01*
X1129766Y-134430D01*
X1142360D02*
X1144459Y-132331D01*
X1148657D01*
X1150756Y-134430D01*
Y-142826D01*
X1148657Y-144925D01*
X1144459D01*
X1142360Y-142826D01*
Y-134430D01*
X1175945D02*
X1173846Y-132331D01*
X1169648D01*
X1167549Y-134430D01*
Y-142826D01*
X1169648Y-144925D01*
X1173846D01*
X1175945Y-142826D01*
Y-138628D01*
X1171747D01*
X1182242Y-136529D02*
X1186440D01*
X1188539Y-138628D01*
Y-144925D01*
X1182242D01*
X1180143Y-142826D01*
X1182242Y-140727D01*
X1188539D01*
X1192737Y-144925D02*
Y-136529D01*
X1194837D01*
X1196936Y-138628D01*
Y-144925D01*
Y-138628D01*
X1199035Y-136529D01*
X1201134Y-138628D01*
Y-144925D01*
X1211629D02*
X1207431D01*
X1205332Y-142826D01*
Y-138628D01*
X1207431Y-136529D01*
X1211629D01*
X1213728Y-138628D01*
Y-140727D01*
X1205332D01*
X1224223Y-132331D02*
X1220025D01*
X1217926Y-134430D01*
Y-142826D01*
X1220025Y-144925D01*
X1224223D01*
X1226322Y-142826D01*
Y-134430D01*
X1224223Y-132331D01*
X1230521Y-144925D02*
Y-136529D01*
X1236818D01*
X1238917Y-138628D01*
Y-144925D01*
X1042921Y-168552D02*
Y-182327D01*
X1049809D01*
X1052104Y-180031D01*
Y-170848D01*
X1049809Y-168552D01*
X1042921D01*
X1056696Y-173143D02*
Y-182327D01*
Y-177735D01*
X1058992Y-175439D01*
X1061288Y-173143D01*
X1063584D01*
X1070471Y-182327D02*
X1075063D01*
X1072767D01*
Y-173143D01*
X1070471D01*
X1081950Y-182327D02*
X1086542D01*
X1084246D01*
Y-168552D01*
X1081950D01*
X1093430Y-182327D02*
X1098021D01*
X1095725D01*
Y-168552D01*
X1093430D01*
X1118684D02*
Y-182327D01*
X1125571D01*
X1127867Y-180031D01*
Y-170848D01*
X1125571Y-168552D01*
X1118684D01*
X1132459Y-173143D02*
Y-182327D01*
Y-177735D01*
X1134755Y-175439D01*
X1137051Y-173143D01*
X1139347D01*
X1148530D02*
X1153122D01*
X1155417Y-175439D01*
Y-182327D01*
X1148530D01*
X1146234Y-180031D01*
X1148530Y-177735D01*
X1155417D01*
X1160009Y-173143D02*
Y-180031D01*
X1162305Y-182327D01*
X1164601Y-180031D01*
X1166897Y-182327D01*
X1169193Y-180031D01*
Y-173143D01*
X1173784Y-182327D02*
X1178376D01*
X1176080D01*
Y-173143D01*
X1173784D01*
X1185263Y-182327D02*
Y-173143D01*
X1192151D01*
X1194447Y-175439D01*
Y-182327D01*
X1203630Y-186919D02*
X1205926D01*
X1208222Y-184623D01*
Y-173143D01*
X1201334D01*
X1199039Y-175439D01*
Y-180031D01*
X1201334Y-182327D01*
X1208222D01*
D15*
X19685Y196850D02*
G03*
X0Y177165I-0J-19685D01*
G01*
X354331D02*
G03*
X334646Y196850I-19685J0D01*
G01*
Y0D02*
G03*
X354331Y19685I-0J19685D01*
G01*
X0Y19685D02*
G03*
X19685Y0I19685J0D01*
G01*
X334646D01*
X354331Y19685D02*
Y177165D01*
X19685Y196850D02*
X334646D01*
X0Y19685D02*
Y177165D01*
D16*
X1182685Y-202012D02*
Y-194141D01*
X1186621D01*
X1187932Y-195452D01*
Y-198076D01*
X1186621Y-199388D01*
X1182685D01*
X1185308D02*
X1187932Y-202012D01*
X1194492D02*
X1191868D01*
X1190556Y-200700D01*
Y-198076D01*
X1191868Y-196764D01*
X1194492D01*
X1195804Y-198076D01*
Y-199388D01*
X1190556D01*
X1198428Y-196764D02*
X1201052Y-202012D01*
X1203675Y-196764D01*
X828354Y-233511D02*
Y-241382D01*
X832290D01*
X833602Y-240070D01*
Y-234823D01*
X832290Y-233511D01*
X828354D01*
X840161Y-241382D02*
X837537D01*
X836226Y-240070D01*
Y-237446D01*
X837537Y-236134D01*
X840161D01*
X841473Y-237446D01*
Y-238758D01*
X836226D01*
X844097Y-241382D02*
X848033D01*
X849345Y-240070D01*
X848033Y-238758D01*
X845409D01*
X844097Y-237446D01*
X845409Y-236134D01*
X849345D01*
X854592Y-244006D02*
X855904D01*
X857216Y-242694D01*
Y-236134D01*
X853280D01*
X851968Y-237446D01*
Y-240070D01*
X853280Y-241382D01*
X857216D01*
X859840D02*
X862464D01*
X861152D01*
Y-236134D01*
X859840D01*
X866399Y-241382D02*
Y-236134D01*
X870335D01*
X871647Y-237446D01*
Y-241382D01*
X878207D02*
X875583D01*
X874271Y-240070D01*
Y-237446D01*
X875583Y-236134D01*
X878207D01*
X879519Y-237446D01*
Y-238758D01*
X874271D01*
X882143Y-236134D02*
Y-241382D01*
Y-238758D01*
X883454Y-237446D01*
X884766Y-236134D01*
X886078D01*
X1025204Y-115400D02*
Y-123272D01*
X1029140D01*
X1030452Y-121960D01*
Y-116712D01*
X1029140Y-115400D01*
X1025204D01*
X1034388Y-123272D02*
X1037012D01*
X1038323Y-121960D01*
Y-119336D01*
X1037012Y-118024D01*
X1034388D01*
X1033076Y-119336D01*
Y-121960D01*
X1034388Y-123272D01*
X1046195Y-118024D02*
X1042259D01*
X1040947Y-119336D01*
Y-121960D01*
X1042259Y-123272D01*
X1046195D01*
X1048819Y-118024D02*
Y-121960D01*
X1050131Y-123272D01*
X1054066D01*
Y-118024D01*
X1056690Y-123272D02*
Y-118024D01*
X1058002D01*
X1059314Y-119336D01*
Y-123272D01*
Y-119336D01*
X1060626Y-118024D01*
X1061938Y-119336D01*
Y-123272D01*
X1068498D02*
X1065874D01*
X1064562Y-121960D01*
Y-119336D01*
X1065874Y-118024D01*
X1068498D01*
X1069810Y-119336D01*
Y-120648D01*
X1064562D01*
X1072433Y-123272D02*
Y-118024D01*
X1076369D01*
X1077681Y-119336D01*
Y-123272D01*
X1081617Y-116712D02*
Y-118024D01*
X1080305D01*
X1082929D01*
X1081617D01*
Y-121960D01*
X1082929Y-123272D01*
X1025204Y-154770D02*
Y-162642D01*
X1030452D01*
X1034388Y-157394D02*
X1037012D01*
X1038323Y-158706D01*
Y-162642D01*
X1034388D01*
X1033076Y-161330D01*
X1034388Y-160018D01*
X1038323D01*
X1040947Y-157394D02*
Y-161330D01*
X1042259Y-162642D01*
X1046195D01*
Y-163954D01*
X1044883Y-165266D01*
X1043571D01*
X1046195Y-162642D02*
Y-157394D01*
X1052755Y-162642D02*
X1050131D01*
X1048819Y-161330D01*
Y-158706D01*
X1050131Y-157394D01*
X1052755D01*
X1054066Y-158706D01*
Y-160018D01*
X1048819D01*
X1056690Y-157394D02*
Y-162642D01*
Y-160018D01*
X1058002Y-158706D01*
X1059314Y-157394D01*
X1060626D01*
X1072433Y-162642D02*
Y-154770D01*
X1077681Y-162642D01*
Y-154770D01*
X1081617Y-157394D02*
X1084241D01*
X1085552Y-158706D01*
Y-162642D01*
X1081617D01*
X1080305Y-161330D01*
X1081617Y-160018D01*
X1085552D01*
X1088176Y-162642D02*
Y-157394D01*
X1089488D01*
X1090800Y-158706D01*
Y-162642D01*
Y-158706D01*
X1092112Y-157394D01*
X1093424Y-158706D01*
Y-162642D01*
X1099984D02*
X1097360D01*
X1096048Y-161330D01*
Y-158706D01*
X1097360Y-157394D01*
X1099984D01*
X1101295Y-158706D01*
Y-160018D01*
X1096048D01*
X1025204Y-194141D02*
Y-202012D01*
X1029140D01*
X1030452Y-200700D01*
Y-195452D01*
X1029140Y-194141D01*
X1025204D01*
X1034388Y-196764D02*
X1037012D01*
X1038323Y-198076D01*
Y-202012D01*
X1034388D01*
X1033076Y-200700D01*
X1034388Y-199388D01*
X1038323D01*
X1042259Y-195452D02*
Y-196764D01*
X1040947D01*
X1043571D01*
X1042259D01*
Y-200700D01*
X1043571Y-202012D01*
X1051443D02*
X1048819D01*
X1047507Y-200700D01*
Y-198076D01*
X1048819Y-196764D01*
X1051443D01*
X1052755Y-198076D01*
Y-199388D01*
X1047507D01*
X1025204Y-233511D02*
Y-241382D01*
X1029140D01*
X1030452Y-240070D01*
Y-234823D01*
X1029140Y-233511D01*
X1025204D01*
X1034388Y-241382D02*
X1037012D01*
X1038323Y-240070D01*
Y-237446D01*
X1037012Y-236134D01*
X1034388D01*
X1033076Y-237446D01*
Y-240070D01*
X1034388Y-241382D01*
X1046195Y-236134D02*
X1042259D01*
X1040947Y-237446D01*
Y-240070D01*
X1042259Y-241382D01*
X1046195D01*
X1048819Y-236134D02*
Y-240070D01*
X1050131Y-241382D01*
X1054066D01*
Y-236134D01*
X1056690Y-241382D02*
Y-236134D01*
X1058002D01*
X1059314Y-237446D01*
Y-241382D01*
Y-237446D01*
X1060626Y-236134D01*
X1061938Y-237446D01*
Y-241382D01*
X1068498D02*
X1065874D01*
X1064562Y-240070D01*
Y-237446D01*
X1065874Y-236134D01*
X1068498D01*
X1069810Y-237446D01*
Y-238758D01*
X1064562D01*
X1072433Y-241382D02*
Y-236134D01*
X1076369D01*
X1077681Y-237446D01*
Y-241382D01*
X1081617Y-234823D02*
Y-236134D01*
X1080305D01*
X1082929D01*
X1081617D01*
Y-240070D01*
X1082929Y-241382D01*
D67*
X20285Y177165D02*
G03*
X20285Y177165I-600J0D01*
G01*
X20685D02*
G03*
X20685Y177165I-1000J0D01*
G01*
X335246Y177165D02*
G03*
X335246Y177165I-600J0D01*
G01*
X335646D02*
G03*
X335646Y177165I-1000J0D01*
G01*
X335246Y19685D02*
G03*
X335246Y19685I-600J0D01*
G01*
X335646D02*
G03*
X335646Y19685I-1000J0D01*
G01*
X20285Y19685D02*
G03*
X20285Y19685I-600J0D01*
G01*
X20685D02*
G03*
X20685Y19685I-1000J0D01*
G01*
X337024Y103740D02*
G03*
X337024Y103740I-1000J0D01*
G01*
Y72323D02*
G03*
X337024Y72323I-1000J0D01*
G01*
X268888Y89557D02*
X270088D01*
Y90758D01*
X268888D02*
X270088D01*
X268888Y89557D02*
Y90758D01*
X268488Y89157D02*
X270488D01*
Y91158D01*
X268488D02*
X270488D01*
X268488Y89157D02*
Y91158D01*
X268888Y86408D02*
X270088D01*
Y87608D01*
X268888D02*
X270088D01*
X268888Y86408D02*
Y87608D01*
X268488Y86008D02*
X270488D01*
Y88008D01*
X268488D02*
X270488D01*
X268488Y86008D02*
Y88008D01*
X299203Y78337D02*
X300403D01*
Y79537D01*
X299203D02*
X300403D01*
X299203Y78337D02*
Y79537D01*
X298803Y77937D02*
X300803D01*
Y79937D01*
X298803D02*
X300803D01*
X298803Y77937D02*
Y79937D01*
X301959Y59833D02*
X303159D01*
Y61033D01*
X301959D02*
X303159D01*
X301959Y59833D02*
Y61033D01*
X301559Y59433D02*
X303559D01*
Y61433D01*
X301559D02*
X303559D01*
X301559Y59433D02*
Y61433D01*
X290148Y59833D02*
X291348D01*
Y61033D01*
X290148D02*
X291348D01*
X290148Y59833D02*
Y61033D01*
X289748Y59433D02*
X291748D01*
Y61433D01*
X289748D02*
X291748D01*
X289748Y59433D02*
Y61433D01*
X333849Y54321D02*
X335049D01*
Y55521D01*
X333849D02*
X335049D01*
X333849Y54321D02*
Y55521D01*
X333449Y53921D02*
X335449D01*
Y55921D01*
X333449D02*
X335449D01*
X333449Y53921D02*
Y55921D01*
X333849Y66132D02*
X335049D01*
Y67332D01*
X333849D02*
X335049D01*
X333849Y66132D02*
Y67332D01*
X333449Y65732D02*
X335449D01*
Y67732D01*
X333449D02*
X335449D01*
X333449Y65732D02*
Y67732D01*
X301959Y118494D02*
X303159D01*
Y119694D01*
X301959D02*
X303159D01*
X301959Y118494D02*
Y119694D01*
X301559Y118095D02*
X303559D01*
Y120095D01*
X301559D02*
X303559D01*
X301559Y118095D02*
Y120095D01*
X290148Y118494D02*
X291348D01*
Y119694D01*
X290148D02*
X291348D01*
X290148Y118494D02*
Y119694D01*
X289748Y118095D02*
X291748D01*
Y120095D01*
X289748D02*
X291748D01*
X289748Y118095D02*
Y120095D01*
X333849Y127943D02*
X335049D01*
Y129143D01*
X333849D02*
X335049D01*
X333849Y127943D02*
Y129143D01*
X333449Y127543D02*
X335449D01*
Y129543D01*
X333449D02*
X335449D01*
X333449Y127543D02*
Y129543D01*
X333849Y116132D02*
X335049D01*
Y117332D01*
X333849D02*
X335049D01*
X333849Y116132D02*
Y117332D01*
X333449Y115732D02*
X335449D01*
Y117732D01*
X333449D02*
X335449D01*
X333449Y115732D02*
Y117732D01*
X217707Y74597D02*
X218907D01*
Y75797D01*
X217707D02*
X218907D01*
X217707Y74597D02*
Y75797D01*
X217307Y74197D02*
X219307D01*
Y76197D01*
X217307D02*
X219307D01*
X217307Y74197D02*
Y76197D01*
X217707Y71447D02*
X218907D01*
Y72647D01*
X217707D02*
X218907D01*
X217707Y71447D02*
Y72647D01*
X217307Y71047D02*
X219307D01*
Y73047D01*
X217307D02*
X219307D01*
X217307Y71047D02*
Y73047D01*
X196054Y74597D02*
X197254D01*
Y75797D01*
X196054D02*
X197254D01*
X196054Y74597D02*
Y75797D01*
X195653Y74197D02*
X197653D01*
Y76197D01*
X195653D02*
X197653D01*
X195653Y74197D02*
Y76197D01*
X166723Y81093D02*
X167923D01*
Y82293D01*
X166723D02*
X167923D01*
X166723Y81093D02*
Y82293D01*
X166323Y80693D02*
X168323D01*
Y82693D01*
X166323D02*
X168323D01*
X166323Y80693D02*
Y82693D01*
X203140Y58455D02*
X204340D01*
Y59655D01*
X203140D02*
X204340D01*
X203140Y58455D02*
Y59655D01*
X202740Y58055D02*
X204740D01*
Y60055D01*
X202740D02*
X204740D01*
X202740Y58055D02*
Y60055D01*
X196054Y71447D02*
X197254D01*
Y72647D01*
X196054D02*
X197254D01*
X196054Y71447D02*
Y72647D01*
X195653Y71047D02*
X197653D01*
Y73047D01*
X195653D02*
X197653D01*
X195653Y71047D02*
Y73047D01*
X200187Y58455D02*
X201387D01*
Y59655D01*
X200187D02*
X201387D01*
X200187Y58455D02*
Y59655D01*
X199787Y58055D02*
X201787D01*
Y60055D01*
X199787D02*
X201787D01*
X199787Y58055D02*
Y60055D01*
X249065Y142510D02*
X250265D01*
Y143710D01*
X249065D02*
X250265D01*
X249065Y142510D02*
Y143710D01*
X248665Y142110D02*
X250665D01*
Y144110D01*
X248665D02*
X250665D01*
X248665Y142110D02*
Y144110D01*
X254065Y142510D02*
X255265D01*
Y143710D01*
X254065D02*
X255265D01*
X254065Y142510D02*
Y143710D01*
X253665Y142110D02*
X255665D01*
Y144110D01*
X253665D02*
X255665D01*
X253665Y142110D02*
Y144110D01*
X70266Y152943D02*
X71466D01*
Y154143D01*
X70266D02*
X71466D01*
X70266Y152943D02*
Y154143D01*
X69866Y152543D02*
X71866D01*
Y154543D01*
X69866D02*
X71866D01*
X69866Y152543D02*
Y154543D01*
X282865Y153928D02*
X284065D01*
Y155128D01*
X282865D02*
X284065D01*
X282865Y153928D02*
Y155128D01*
X282465Y153528D02*
X284465D01*
Y155528D01*
X282465D02*
X284465D01*
X282465Y153528D02*
Y155528D01*
X192904Y76073D02*
X194104D01*
Y77273D01*
X192904D02*
X194104D01*
X192904Y76073D02*
Y77273D01*
X192504Y75673D02*
X194504D01*
Y77673D01*
X192504D02*
X194504D01*
X192504Y75673D02*
Y77673D01*
X85620Y45857D02*
X86821D01*
Y47057D01*
X85620D02*
X86821D01*
X85620Y45857D02*
Y47057D01*
X85220Y45457D02*
X87221D01*
Y47457D01*
X85220D02*
X87221D01*
X85220Y45457D02*
Y47457D01*
X154518Y83061D02*
X155718D01*
Y84261D01*
X154518D02*
X155718D01*
X154518Y83061D02*
Y84261D01*
X154118Y82661D02*
X156118D01*
Y84661D01*
X154118D02*
X156118D01*
X154118Y82661D02*
Y84661D01*
X137195Y73022D02*
X138395D01*
Y74222D01*
X137195D02*
X138395D01*
X137195Y73022D02*
Y74222D01*
X136795Y72622D02*
X138795D01*
Y74622D01*
X136795D02*
X138795D01*
X136795Y72622D02*
Y74622D01*
X57965Y65839D02*
X58465Y65339D01*
X57465Y65839D02*
X57965D01*
X57465D02*
X57965Y66339D01*
X57465Y66839D02*
X57965Y66339D01*
X57465Y66839D02*
X57965D01*
X58465Y67339D01*
X58965Y66839D01*
X59465D01*
X58965Y66339D02*
X59465Y66839D01*
X58965Y66339D02*
X59465Y65839D01*
X58965D02*
X59465D01*
X58465Y65339D02*
X58965Y65839D01*
X98516D02*
X99016Y65339D01*
X98016Y65839D02*
X98516D01*
X98016D02*
X98516Y66339D01*
X98016Y66839D02*
X98516Y66339D01*
X98016Y66839D02*
X98516D01*
X99016Y67339D01*
X99516Y66839D01*
X100016D01*
X99516Y66339D02*
X100016Y66839D01*
X99516Y66339D02*
X100016Y65839D01*
X99516D02*
X100016D01*
X99016Y65339D02*
X99516Y65839D01*
X57465Y50772D02*
X58465Y51272D01*
X59465Y50772D01*
X58965Y51772D02*
X59465Y50772D01*
X58965Y51772D02*
X59465Y52772D01*
X58465Y52272D02*
X59465Y52772D01*
X57465D02*
X58465Y52272D01*
X57465Y52772D02*
X57965Y51772D01*
X57465Y50772D02*
X57965Y51772D01*
X98016Y50772D02*
X99016Y51272D01*
X100016Y50772D01*
X99516Y51772D02*
X100016Y50772D01*
X99516Y51772D02*
X100016Y52772D01*
X99016Y52272D02*
X100016Y52772D01*
X98016D02*
X99016Y52272D01*
X98016Y52772D02*
X98516Y51772D01*
X98016Y50772D02*
X98516Y51772D01*
Y40248D02*
X99016Y39748D01*
X98016Y40248D02*
X98516D01*
X98016D02*
X98516Y40748D01*
X98016Y41248D02*
X98516Y40748D01*
X98016Y41248D02*
X98516D01*
X99016Y41748D01*
X99516Y41248D01*
X100016D01*
X99516Y40748D02*
X100016Y41248D01*
X99516Y40748D02*
X100016Y40248D01*
X99516D02*
X100016D01*
X99016Y39748D02*
X99516Y40248D01*
X57965D02*
X58465Y39748D01*
X57465Y40248D02*
X57965D01*
X57465D02*
X57965Y40748D01*
X57465Y41248D02*
X57965Y40748D01*
X57465Y41248D02*
X57965D01*
X58465Y41748D01*
X58965Y41248D01*
X59465D01*
X58965Y40748D02*
X59465Y41248D01*
X58965Y40748D02*
X59465Y40248D01*
X58965D02*
X59465D01*
X58465Y39748D02*
X58965Y40248D01*
X227221Y21433D02*
X228221Y23433D01*
X226220D02*
X228221D01*
X226220D02*
X227221Y21433D01*
X245220D02*
X246220Y23433D01*
X244220D02*
X246220D01*
X244220D02*
X245220Y21433D01*
Y47433D02*
X246220Y49433D01*
X244220D02*
X246220D01*
X244220D02*
X245220Y47433D01*
X227221D02*
X228221Y49433D01*
X226220D02*
X228221D01*
X226220D02*
X227221Y47433D01*
X187850Y21433D02*
X188850Y23433D01*
X186850D02*
X188850D01*
X186850D02*
X187850Y21433D01*
X205850D02*
X206850Y23433D01*
X204850D02*
X206850D01*
X204850D02*
X205850Y21433D01*
Y47433D02*
X206850Y49433D01*
X204850D02*
X206850D01*
X204850D02*
X205850Y47433D01*
X187850D02*
X188850Y49433D01*
X186850D02*
X188850D01*
X186850D02*
X187850Y47433D01*
X148480Y21433D02*
X149480Y23433D01*
X147480D02*
X149480D01*
X147480D02*
X148480Y21433D01*
X166480D02*
X167480Y23433D01*
X165480D02*
X167480D01*
X165480D02*
X166480Y21433D01*
Y47433D02*
X167480Y49433D01*
X165480D02*
X167480D01*
X165480D02*
X166480Y47433D01*
X148480D02*
X149480Y49433D01*
X147480D02*
X149480D01*
X147480D02*
X148480Y47433D01*
X266590Y41118D02*
X267590Y43118D01*
X265591D02*
X267590D01*
X265591D02*
X266590Y41118D01*
X284591D02*
X285591Y43118D01*
X283591D02*
X285591D01*
X283591D02*
X284591Y41118D01*
Y67118D02*
X285591Y69118D01*
X283591D02*
X285591D01*
X283591D02*
X284591Y67118D01*
X266590D02*
X267590Y69118D01*
X265591D02*
X267590D01*
X265591D02*
X266590Y67118D01*
X223410Y77622D02*
X225410D01*
Y79622D01*
X223410D02*
X225410D01*
X223410Y77622D02*
Y79622D01*
Y67622D02*
X225410D01*
Y69622D01*
X223410D02*
X225410D01*
X223410Y67622D02*
Y69622D01*
X40339Y70850D02*
X41339Y71350D01*
X42339Y70850D01*
X41839Y71850D02*
X42339Y70850D01*
X41839Y71850D02*
X42339Y72850D01*
X41339Y72350D02*
X42339Y72850D01*
X40339D02*
X41339Y72350D01*
X40339Y72850D02*
X40839Y71850D01*
X40339Y70850D02*
X40839Y71850D01*
X20653Y70850D02*
X21654Y71350D01*
X22654Y70850D01*
X22153Y71850D02*
X22654Y70850D01*
X22153Y71850D02*
X22654Y72850D01*
X21654Y72350D02*
X22654Y72850D01*
X20653D02*
X21654Y72350D01*
X20653Y72850D02*
X21154Y71850D01*
X20653Y70850D02*
X21154Y71850D01*
X30496Y127937D02*
X31496Y128437D01*
X32496Y127937D01*
X31996Y128937D02*
X32496Y127937D01*
X31996Y128937D02*
X32496Y129937D01*
X31496Y129437D02*
X32496Y129937D01*
X30496D02*
X31496Y129437D01*
X30496Y129937D02*
X30996Y128937D01*
X30496Y127937D02*
X30996Y128937D01*
X20653Y127937D02*
X21654Y128437D01*
X22654Y127937D01*
X22153Y128937D02*
X22654Y127937D01*
X22153Y128937D02*
X22654Y129937D01*
X21654Y129437D02*
X22654Y129937D01*
X20653D02*
X21654Y129437D01*
X20653Y129937D02*
X21154Y128937D01*
X20653Y127937D02*
X21154Y128937D01*
X40339Y127937D02*
X41339Y128437D01*
X42339Y127937D01*
X41839Y128937D02*
X42339Y127937D01*
X41839Y128937D02*
X42339Y129937D01*
X41339Y129437D02*
X42339Y129937D01*
X40339D02*
X41339Y129437D01*
X40339Y129937D02*
X40839Y128937D01*
X40339Y127937D02*
X40839Y128937D01*
X8055Y98909D02*
X8555D01*
X8055D02*
Y99910D01*
X8555D01*
Y100409D01*
X9555D01*
Y99910D02*
Y100409D01*
Y99910D02*
X10055D01*
Y98909D02*
Y99910D01*
X9555Y98909D02*
X10055D01*
X9555Y98409D02*
Y98909D01*
X8555Y98409D02*
X9555D01*
X8555D02*
Y98909D01*
X52937D02*
X53437D01*
X52937D02*
Y99910D01*
X53437D01*
Y100409D01*
X54437D01*
Y99910D02*
Y100409D01*
Y99910D02*
X54937D01*
Y98909D02*
Y99910D01*
X54437Y98909D02*
X54937D01*
X54437Y98409D02*
Y98909D01*
X53437Y98409D02*
X54437D01*
X53437D02*
Y98909D01*
X71260Y165339D02*
X72260Y167339D01*
X70260D02*
X72260D01*
X70260D02*
X71260Y165339D01*
X283071D02*
X284071Y167339D01*
X282071D02*
X284071D01*
X282071D02*
X283071Y165339D01*
X227346Y176953D02*
Y177453D01*
X227847Y177953D01*
X227346Y178453D02*
X227847Y177953D01*
X227346Y178453D02*
Y178953D01*
X227847D01*
X228346Y178453D01*
X228847Y178953D01*
X229346D01*
Y178453D02*
Y178953D01*
X228847Y177953D02*
X229346Y178453D01*
X228847Y177953D02*
X229346Y177453D01*
Y176953D02*
Y177453D01*
X228847Y176953D02*
X229346D01*
X228346Y177453D02*
X228847Y176953D01*
X227847D02*
X228346Y177453D01*
X227346Y176953D02*
X227847D01*
X124984D02*
Y177453D01*
X125484Y177953D01*
X124984Y178453D02*
X125484Y177953D01*
X124984Y178453D02*
Y178953D01*
X125484D01*
X125984Y178453D01*
X126484Y178953D01*
X126984D01*
Y178453D02*
Y178953D01*
X126484Y177953D02*
X126984Y178453D01*
X126484Y177953D02*
X126984Y177453D01*
Y176953D02*
Y177453D01*
X126484Y176953D02*
X126984D01*
X125984Y177453D02*
X126484Y176953D01*
X125484D02*
X125984Y177453D01*
X124984Y176953D02*
X125484D01*
X282465Y184488D02*
X283465Y183488D01*
X284465Y184488D01*
X283465Y185488D02*
X284465Y184488D01*
X282465D02*
X283465Y185488D01*
X69866Y184488D02*
X70866Y183488D01*
X71866Y184488D01*
X70866Y185488D02*
X71866Y184488D01*
X69866D02*
X70866Y185488D01*
X335772Y46244D02*
X337772D01*
Y48244D01*
X335772D02*
X337772D01*
X335772Y46244D02*
Y48244D01*
X325772Y46244D02*
X327772D01*
Y48244D01*
X325772D02*
X327772D01*
X325772Y46244D02*
Y48244D01*
X315772Y46244D02*
X317772D01*
Y48244D01*
X315772D02*
X317772D01*
X315772Y46244D02*
Y48244D01*
X305772Y46244D02*
X307772D01*
Y48244D01*
X305772D02*
X307772D01*
X305772Y46244D02*
Y48244D01*
D68*
X1185839Y212598D02*
Y216377D01*
X1187728D01*
X1188358Y215747D01*
Y214488D01*
X1187728Y213858D01*
X1185839D01*
X1187098D02*
X1188358Y212598D01*
X1190247D02*
X1191506D01*
X1192136Y213228D01*
Y214488D01*
X1191506Y215117D01*
X1190247D01*
X1189617Y214488D01*
Y213228D01*
X1190247Y212598D01*
X1193396Y215117D02*
Y213228D01*
X1194025Y212598D01*
X1195914D01*
Y215117D01*
X1197804Y215747D02*
Y215117D01*
X1197174D01*
X1198433D01*
X1197804D01*
Y213228D01*
X1198433Y212598D01*
X1202212D02*
X1200952D01*
X1200323Y213228D01*
Y214488D01*
X1200952Y215117D01*
X1202212D01*
X1202841Y214488D01*
Y213858D01*
X1200323D01*
X1206620Y216377D02*
Y212598D01*
X1204731D01*
X1204101Y213228D01*
Y214488D01*
X1204731Y215117D01*
X1206620D01*
X1211657Y212598D02*
Y216377D01*
X1213546D01*
X1214176Y215747D01*
Y214488D01*
X1213546Y213858D01*
X1211657D01*
X1216065Y215117D02*
X1217325D01*
X1217955Y214488D01*
Y212598D01*
X1216065D01*
X1215436Y213228D01*
X1216065Y213858D01*
X1217955D01*
X1219844Y215747D02*
Y215117D01*
X1219214D01*
X1220473D01*
X1219844D01*
Y213228D01*
X1220473Y212598D01*
X1222363Y216377D02*
Y212598D01*
Y214488D01*
X1222992Y215117D01*
X1224252D01*
X1224881Y214488D01*
Y212598D01*
X1229919Y216377D02*
Y212598D01*
X1232438D01*
X1235587D02*
X1234327D01*
X1233698Y213228D01*
Y214488D01*
X1234327Y215117D01*
X1235587D01*
X1236216Y214488D01*
Y213858D01*
X1233698D01*
X1237476Y212598D02*
Y215117D01*
X1239365D01*
X1239995Y214488D01*
Y212598D01*
X1242514Y211339D02*
X1243143D01*
X1243773Y211969D01*
Y215117D01*
X1241884D01*
X1241254Y214488D01*
Y213228D01*
X1241884Y212598D01*
X1243773D01*
X1245662Y215747D02*
Y215117D01*
X1245033D01*
X1246292D01*
X1245662D01*
Y213228D01*
X1246292Y212598D01*
X1248181Y216377D02*
Y212598D01*
Y214488D01*
X1248811Y215117D01*
X1250070D01*
X1250700Y214488D01*
Y212598D01*
X1124308Y216377D02*
Y212598D01*
Y214488D01*
X1126827D01*
Y216377D01*
Y212598D01*
X1128716D02*
X1129976D01*
X1130606Y213228D01*
Y214488D01*
X1129976Y215117D01*
X1128716D01*
X1128087Y214488D01*
Y213228D01*
X1128716Y212598D01*
X1131865D02*
X1133124D01*
X1132495D01*
Y216377D01*
X1131865D01*
X1136903Y212598D02*
X1135643D01*
X1135014Y213228D01*
Y214488D01*
X1135643Y215117D01*
X1136903D01*
X1137532Y214488D01*
Y213858D01*
X1135014D01*
X1142570Y216377D02*
Y212598D01*
X1145089D01*
X1148238D02*
X1146978D01*
X1146348Y213228D01*
Y214488D01*
X1146978Y215117D01*
X1148238D01*
X1148867Y214488D01*
Y213858D01*
X1146348D01*
X1150127Y212598D02*
Y215117D01*
X1152016D01*
X1152646Y214488D01*
Y212598D01*
X1155165Y211339D02*
X1155794D01*
X1156424Y211969D01*
Y215117D01*
X1154535D01*
X1153905Y214488D01*
Y213228D01*
X1154535Y212598D01*
X1156424D01*
X1158313Y215747D02*
Y215117D01*
X1157683D01*
X1158943D01*
X1158313D01*
Y213228D01*
X1158943Y212598D01*
X1160832Y216377D02*
Y212598D01*
Y214488D01*
X1161462Y215117D01*
X1162721D01*
X1163351Y214488D01*
Y212598D01*
X1064352Y216377D02*
X1066871D01*
X1065611D01*
Y212598D01*
X1070020D02*
X1068760D01*
X1068130Y213228D01*
Y214488D01*
X1068760Y215117D01*
X1070020D01*
X1070649Y214488D01*
Y213858D01*
X1068130D01*
X1071909Y212598D02*
Y215117D01*
X1072538D01*
X1073168Y214488D01*
Y212598D01*
Y214488D01*
X1073798Y215117D01*
X1074428Y214488D01*
Y212598D01*
X1075687Y211339D02*
Y215117D01*
X1077576D01*
X1078206Y214488D01*
Y213228D01*
X1077576Y212598D01*
X1075687D01*
X1079465D02*
X1080725D01*
X1080095D01*
Y216377D01*
X1079465D01*
X1083244Y215117D02*
X1084503D01*
X1085133Y214488D01*
Y212598D01*
X1083244D01*
X1082614Y213228D01*
X1083244Y213858D01*
X1085133D01*
X1087022Y215747D02*
Y215117D01*
X1086392D01*
X1087652D01*
X1087022D01*
Y213228D01*
X1087652Y212598D01*
X1091430D02*
X1090170D01*
X1089541Y213228D01*
Y214488D01*
X1090170Y215117D01*
X1091430D01*
X1092060Y214488D01*
Y213858D01*
X1089541D01*
X1007020Y212598D02*
Y216377D01*
X1008909D01*
X1009538Y215747D01*
Y214488D01*
X1008909Y213858D01*
X1007020D01*
X1011428Y215117D02*
X1012687D01*
X1013317Y214488D01*
Y212598D01*
X1011428D01*
X1010798Y213228D01*
X1011428Y213858D01*
X1013317D01*
X1017095Y216377D02*
Y212598D01*
X1015206D01*
X1014576Y213228D01*
Y214488D01*
X1015206Y215117D01*
X1017095D01*
X1024652Y215747D02*
X1024022Y216377D01*
X1022763D01*
X1022133Y215747D01*
Y215117D01*
X1022763Y214488D01*
X1024022D01*
X1024652Y213858D01*
Y213228D01*
X1024022Y212598D01*
X1022763D01*
X1022133Y213228D01*
X1025911Y216377D02*
Y212598D01*
Y214488D01*
X1026541Y215117D01*
X1027800D01*
X1028430Y214488D01*
Y212598D01*
X1030319Y215117D02*
X1031579D01*
X1032208Y214488D01*
Y212598D01*
X1030319D01*
X1029690Y213228D01*
X1030319Y213858D01*
X1032208D01*
X1033468Y211339D02*
Y215117D01*
X1035357D01*
X1035987Y214488D01*
Y213228D01*
X1035357Y212598D01*
X1033468D01*
X1039135D02*
X1037876D01*
X1037246Y213228D01*
Y214488D01*
X1037876Y215117D01*
X1039135D01*
X1039765Y214488D01*
Y213858D01*
X1037246D01*
X975846Y216377D02*
Y213858D01*
X977106Y212598D01*
X978365Y213858D01*
Y216377D01*
X979625Y212598D02*
X980884D01*
X980254D01*
Y215117D01*
X979625D01*
X983403D02*
X984663D01*
X985292Y214488D01*
Y212598D01*
X983403D01*
X982773Y213228D01*
X983403Y213858D01*
X985292D01*
X986552Y212598D02*
X989071Y215117D01*
X990330Y212598D02*
Y216377D01*
X992219D01*
X992849Y215747D01*
Y214488D01*
X992219Y213858D01*
X990330D01*
X994738Y215117D02*
X995997D01*
X996627Y214488D01*
Y212598D01*
X994738D01*
X994108Y213228D01*
X994738Y213858D01*
X996627D01*
X1000405Y216377D02*
Y212598D01*
X998516D01*
X997887Y213228D01*
Y214488D01*
X998516Y215117D01*
X1000405D01*
X896999Y216377D02*
Y212598D01*
X898888D01*
X899518Y213228D01*
Y215747D01*
X898888Y216377D01*
X896999D01*
X900777Y215117D02*
Y212598D01*
Y213858D01*
X901407Y214488D01*
X902036Y215117D01*
X902666D01*
X904555Y212598D02*
X905815D01*
X905185D01*
Y215117D01*
X904555D01*
X907704Y212598D02*
X908963D01*
X908333D01*
Y216377D01*
X907704D01*
X910852Y212598D02*
X912112D01*
X911482D01*
Y216377D01*
X910852D01*
X917779D02*
Y212598D01*
X920298D01*
X922187Y215117D02*
X923447D01*
X924076Y214488D01*
Y212598D01*
X922187D01*
X921558Y213228D01*
X922187Y213858D01*
X924076D01*
X925336Y215117D02*
Y213228D01*
X925966Y212598D01*
X927855D01*
Y211969D01*
X927225Y211339D01*
X926595D01*
X927855Y212598D02*
Y215117D01*
X931003Y212598D02*
X929744D01*
X929114Y213228D01*
Y214488D01*
X929744Y215117D01*
X931003D01*
X931633Y214488D01*
Y213858D01*
X929114D01*
X932893Y215117D02*
Y212598D01*
Y213858D01*
X933522Y214488D01*
X934152Y215117D01*
X934782D01*
X940449Y212598D02*
Y216377D01*
X942338D01*
X942968Y215747D01*
Y214488D01*
X942338Y213858D01*
X940449D01*
X944857Y215117D02*
X946117D01*
X946746Y214488D01*
Y212598D01*
X944857D01*
X944228Y213228D01*
X944857Y213858D01*
X946746D01*
X948006Y212598D02*
X949265D01*
X948635D01*
Y215117D01*
X948006D01*
X951154D02*
Y212598D01*
Y213858D01*
X951784Y214488D01*
X952414Y215117D01*
X953043D01*
X858269Y216377D02*
Y212598D01*
Y214488D01*
X860788D01*
Y216377D01*
Y212598D01*
X862677D02*
X863936D01*
X864566Y213228D01*
Y214488D01*
X863936Y215117D01*
X862677D01*
X862047Y214488D01*
Y213228D01*
X862677Y212598D01*
X865825D02*
X867085D01*
X866455D01*
Y216377D01*
X865825D01*
X870863Y212598D02*
X869604D01*
X868974Y213228D01*
Y214488D01*
X869604Y215117D01*
X870863D01*
X871493Y214488D01*
Y213858D01*
X868974D01*
X876531Y216377D02*
X879049D01*
X877790D01*
Y212598D01*
X880309Y215117D02*
Y213228D01*
X880939Y212598D01*
X882828D01*
Y211969D01*
X882198Y211339D01*
X881568D01*
X882828Y212598D02*
Y215117D01*
X884087Y211339D02*
Y215117D01*
X885976D01*
X886606Y214488D01*
Y213228D01*
X885976Y212598D01*
X884087D01*
X889755D02*
X888495D01*
X887866Y213228D01*
Y214488D01*
X888495Y215117D01*
X889755D01*
X890384Y214488D01*
Y213858D01*
X887866D01*
X831504Y212598D02*
Y216377D01*
X833393D01*
X834023Y215747D01*
Y214488D01*
X833393Y213858D01*
X831504D01*
X835282Y212598D02*
X836541D01*
X835912D01*
Y216377D01*
X835282D01*
X839060Y215117D02*
X840320D01*
X840949Y214488D01*
Y212598D01*
X839060D01*
X838431Y213228D01*
X839060Y213858D01*
X840949D01*
X842839Y215747D02*
Y215117D01*
X842209D01*
X843468D01*
X842839D01*
Y213228D01*
X843468Y212598D01*
X847247D02*
X845987D01*
X845358Y213228D01*
Y214488D01*
X845987Y215117D01*
X847247D01*
X847876Y214488D01*
Y213858D01*
X845358D01*
X851655Y216377D02*
Y212598D01*
X849765D01*
X849136Y213228D01*
Y214488D01*
X849765Y215117D01*
X851655D01*
X769973Y216377D02*
Y212598D01*
Y214488D01*
X772492D01*
Y216377D01*
Y212598D01*
X774381D02*
X775640D01*
X776270Y213228D01*
Y214488D01*
X775640Y215117D01*
X774381D01*
X773751Y214488D01*
Y213228D01*
X774381Y212598D01*
X777530D02*
X778789D01*
X778159D01*
Y216377D01*
X777530D01*
X782567Y212598D02*
X781308D01*
X780678Y213228D01*
Y214488D01*
X781308Y215117D01*
X782567D01*
X783197Y214488D01*
Y213858D01*
X780678D01*
X790754Y215747D02*
X790124Y216377D01*
X788865D01*
X788235Y215747D01*
Y215117D01*
X788865Y214488D01*
X790124D01*
X790754Y213858D01*
Y213228D01*
X790124Y212598D01*
X788865D01*
X788235Y213228D01*
X792013Y212598D02*
X793273D01*
X792643D01*
Y215117D01*
X792013D01*
X795162D02*
X797681D01*
X795162Y212598D01*
X797681D01*
X800829D02*
X799570D01*
X798940Y213228D01*
Y214488D01*
X799570Y215117D01*
X800829D01*
X801459Y214488D01*
Y213858D01*
X798940D01*
X744022Y215747D02*
X743392Y216377D01*
X742132D01*
X741503Y215747D01*
Y213228D01*
X742132Y212598D01*
X743392D01*
X744022Y213228D01*
X745911Y212598D02*
X747170D01*
X747800Y213228D01*
Y214488D01*
X747170Y215117D01*
X745911D01*
X745281Y214488D01*
Y213228D01*
X745911Y212598D01*
X749059Y215117D02*
Y213228D01*
X749689Y212598D01*
X751578D01*
Y215117D01*
X752838Y212598D02*
Y215117D01*
X754727D01*
X755357Y214488D01*
Y212598D01*
X757246Y215747D02*
Y215117D01*
X756616D01*
X757875D01*
X757246D01*
Y213228D01*
X757875Y212598D01*
X717256Y215747D02*
X716627Y216377D01*
X715367D01*
X714738Y215747D01*
Y215117D01*
X715367Y214488D01*
X716627D01*
X717256Y213858D01*
Y213228D01*
X716627Y212598D01*
X715367D01*
X714738Y213228D01*
X718516Y215117D02*
Y213228D01*
X719146Y212598D01*
X721035D01*
Y211969D01*
X720405Y211339D01*
X719775D01*
X721035Y212598D02*
Y215117D01*
X722294Y212598D02*
Y215117D01*
X722924D01*
X723554Y214488D01*
Y212598D01*
Y214488D01*
X724183Y215117D01*
X724813Y214488D01*
Y212598D01*
X726073Y216377D02*
Y212598D01*
X727962D01*
X728591Y213228D01*
Y213858D01*
Y214488D01*
X727962Y215117D01*
X726073D01*
X730480Y212598D02*
X731740D01*
X732370Y213228D01*
Y214488D01*
X731740Y215117D01*
X730480D01*
X729851Y214488D01*
Y213228D01*
X730480Y212598D01*
X733629D02*
X734889D01*
X734259D01*
Y216377D01*
X733629D01*
D69*
X769131Y116012D02*
Y112864D01*
Y114438D01*
X771230D01*
Y116012D01*
Y112864D01*
X772804D02*
X773854D01*
X774378Y113388D01*
Y114438D01*
X773854Y114963D01*
X772804D01*
X772279Y114438D01*
Y113388D01*
X772804Y112864D01*
X775428D02*
X776477D01*
X775953D01*
Y116012D01*
X775428D01*
X779626Y112864D02*
X778577D01*
X778052Y113388D01*
Y114438D01*
X778577Y114963D01*
X779626D01*
X780151Y114438D01*
Y113913D01*
X778052D01*
X784349Y116012D02*
Y112864D01*
X786448D01*
X789072D02*
X788022D01*
X787498Y113388D01*
Y114438D01*
X788022Y114963D01*
X789072D01*
X789597Y114438D01*
Y113913D01*
X787498D01*
X790646Y112864D02*
Y114963D01*
X792220D01*
X792745Y114438D01*
Y112864D01*
X794844Y111814D02*
X795369D01*
X795894Y112339D01*
Y114963D01*
X794319D01*
X793795Y114438D01*
Y113388D01*
X794319Y112864D01*
X795894D01*
X797468Y115488D02*
Y114963D01*
X796943D01*
X797993D01*
X797468D01*
Y113388D01*
X797993Y112864D01*
X799567Y116012D02*
Y112864D01*
Y114438D01*
X800092Y114963D01*
X801141D01*
X801666Y114438D01*
Y112864D01*
X769131Y118243D02*
Y121391D01*
X770705D01*
X771230Y120867D01*
Y119817D01*
X770705Y119292D01*
X769131D01*
X770180D02*
X771230Y118243D01*
X772804D02*
X773854D01*
X774378Y118768D01*
Y119817D01*
X773854Y120342D01*
X772804D01*
X772279Y119817D01*
Y118768D01*
X772804Y118243D01*
X775428Y120342D02*
Y118768D01*
X775953Y118243D01*
X777527D01*
Y120342D01*
X779101Y120867D02*
Y120342D01*
X778577D01*
X779626D01*
X779101D01*
Y118768D01*
X779626Y118243D01*
X782775D02*
X781725D01*
X781200Y118768D01*
Y119817D01*
X781725Y120342D01*
X782775D01*
X783299Y119817D01*
Y119292D01*
X781200D01*
X786448Y121391D02*
Y118243D01*
X784874D01*
X784349Y118768D01*
Y119817D01*
X784874Y120342D01*
X786448D01*
X790646Y118243D02*
Y121391D01*
X792220D01*
X792745Y120867D01*
Y119817D01*
X792220Y119292D01*
X790646D01*
X794319Y120342D02*
X795369D01*
X795894Y119817D01*
Y118243D01*
X794319D01*
X793795Y118768D01*
X794319Y119292D01*
X795894D01*
X797468Y120867D02*
Y120342D01*
X796943D01*
X797993D01*
X797468D01*
Y118768D01*
X797993Y118243D01*
X799567Y121391D02*
Y118243D01*
Y119817D01*
X800092Y120342D01*
X801141D01*
X801666Y119817D01*
Y118243D01*
X805864Y121391D02*
Y118243D01*
X807963D01*
X810587D02*
X809538D01*
X809013Y118768D01*
Y119817D01*
X809538Y120342D01*
X810587D01*
X811112Y119817D01*
Y119292D01*
X809013D01*
X812162Y118243D02*
Y120342D01*
X813736D01*
X814260Y119817D01*
Y118243D01*
X816360Y117193D02*
X816884D01*
X817409Y117718D01*
Y120342D01*
X815835D01*
X815310Y119817D01*
Y118768D01*
X815835Y118243D01*
X817409D01*
X818983Y120867D02*
Y120342D01*
X818459D01*
X819508D01*
X818983D01*
Y118768D01*
X819508Y118243D01*
X821082Y121391D02*
Y118243D01*
Y119817D01*
X821607Y120342D01*
X822657D01*
X823182Y119817D01*
Y118243D01*
X716837Y120867D02*
X716312Y121391D01*
X715262D01*
X714738Y120867D01*
Y120342D01*
X715262Y119817D01*
X716312D01*
X716837Y119292D01*
Y118768D01*
X716312Y118243D01*
X715262D01*
X714738Y118768D01*
X717886Y118243D02*
X718936D01*
X718411D01*
Y121391D01*
X717886D01*
X721035Y118243D02*
X722084D01*
X722609Y118768D01*
Y119817D01*
X722084Y120342D01*
X721035D01*
X720510Y119817D01*
Y118768D01*
X721035Y118243D01*
X724183Y120867D02*
Y120342D01*
X723659D01*
X724708D01*
X724183D01*
Y118768D01*
X724708Y118243D01*
X731530Y121391D02*
Y118243D01*
X729956D01*
X729431Y118768D01*
Y119817D01*
X729956Y120342D01*
X731530D01*
X734154Y118243D02*
X733104D01*
X732580Y118768D01*
Y119817D01*
X733104Y120342D01*
X734154D01*
X734679Y119817D01*
Y119292D01*
X732580D01*
X736253Y118243D02*
Y120867D01*
Y119817D01*
X735728D01*
X736778D01*
X736253D01*
Y120867D01*
X736778Y121391D01*
X738352Y118243D02*
X739401D01*
X738877D01*
Y120342D01*
X738352D01*
X740976Y118243D02*
Y120342D01*
X742550D01*
X743075Y119817D01*
Y118243D01*
X744124D02*
X745174D01*
X744649D01*
Y120342D01*
X744124D01*
X747273Y120867D02*
Y120342D01*
X746748D01*
X747798D01*
X747273D01*
Y118768D01*
X747798Y118243D01*
X749372D02*
X750422D01*
X749897D01*
Y120342D01*
X749372D01*
X752521Y118243D02*
X753570D01*
X754095Y118768D01*
Y119817D01*
X753570Y120342D01*
X752521D01*
X751996Y119817D01*
Y118768D01*
X752521Y118243D01*
X755145D02*
Y120342D01*
X756719D01*
X757243Y119817D01*
Y118243D01*
X758293D02*
X759867D01*
X760392Y118768D01*
X759867Y119292D01*
X758818D01*
X758293Y119817D01*
X758818Y120342D01*
X760392D01*
X764590D02*
X765115D01*
Y119817D01*
X764590D01*
Y120342D01*
Y118768D02*
X765115D01*
Y118243D01*
X764590D01*
Y118768D01*
M02*
