G04*
G04 #@! TF.GenerationSoftware,Altium Limited,Altium Designer,20.0.13 (296)*
G04*
G04 Layer_Color=2752767*
%FSLAX25Y25*%
%MOIN*%
G70*
G01*
G75*
%ADD11C,0.00591*%
%ADD12C,0.00787*%
%ADD14C,0.01575*%
%ADD15C,0.00394*%
%ADD16C,0.00984*%
%ADD66C,0.00200*%
%ADD67C,0.00945*%
%ADD68C,0.00827*%
G36*
X872201Y-141778D02*
X873919D01*
Y-142065D01*
X874778D01*
Y-142351D01*
X875637D01*
Y-142637D01*
X876496D01*
Y-142924D01*
X877069D01*
Y-143210D01*
X877355D01*
Y-143496D01*
X877928D01*
Y-143783D01*
X878214D01*
Y-144069D01*
X878786D01*
Y-144355D01*
X879073D01*
Y-144641D01*
X879359D01*
Y-144928D01*
X879646D01*
Y-145214D01*
X879932D01*
Y-145501D01*
X880218D01*
Y-145787D01*
X880504D01*
Y-146073D01*
Y-146359D01*
X880791D01*
Y-146646D01*
X881077D01*
Y-146932D01*
Y-147218D01*
X881363D01*
Y-147505D01*
X881650D01*
Y-147791D01*
Y-148077D01*
X881936D01*
Y-148364D01*
Y-148650D01*
Y-148936D01*
X882222D01*
Y-149223D01*
Y-149509D01*
Y-149795D01*
X882509D01*
Y-150082D01*
Y-150368D01*
Y-150654D01*
Y-150940D01*
X882795D01*
Y-151227D01*
Y-151513D01*
Y-151799D01*
Y-152086D01*
Y-152372D01*
X883081D01*
Y-152658D01*
Y-152945D01*
Y-153231D01*
Y-153517D01*
Y-153804D01*
Y-154090D01*
Y-154376D01*
Y-154663D01*
Y-154949D01*
Y-155235D01*
Y-155521D01*
Y-155808D01*
Y-156094D01*
Y-156380D01*
Y-156667D01*
Y-156953D01*
Y-157239D01*
Y-157526D01*
Y-157812D01*
Y-158098D01*
X882795D01*
Y-158385D01*
Y-158671D01*
Y-158957D01*
Y-159244D01*
Y-159530D01*
Y-159816D01*
Y-160102D01*
X882509D01*
Y-160389D01*
Y-160675D01*
Y-160961D01*
Y-161248D01*
Y-161534D01*
X882222D01*
Y-161820D01*
Y-162107D01*
Y-162393D01*
Y-162679D01*
Y-162966D01*
X881936D01*
Y-163252D01*
Y-163538D01*
Y-163824D01*
X881650D01*
Y-164111D01*
Y-164397D01*
Y-164683D01*
Y-164970D01*
X881363D01*
Y-165256D01*
Y-165542D01*
Y-165829D01*
X881077D01*
Y-166115D01*
Y-166401D01*
X880791D01*
Y-166688D01*
Y-166974D01*
Y-167260D01*
X880504D01*
Y-167547D01*
Y-167833D01*
X880218D01*
Y-168119D01*
Y-168405D01*
X879932D01*
Y-168692D01*
Y-168978D01*
X879646D01*
Y-169264D01*
X879359D01*
Y-169551D01*
Y-169837D01*
X879073D01*
Y-170123D01*
X878786D01*
Y-170410D01*
X878500D01*
Y-170696D01*
Y-170982D01*
X878214D01*
Y-171269D01*
X877928D01*
Y-171555D01*
X877641D01*
Y-171841D01*
X877355D01*
Y-172127D01*
X877069D01*
Y-172414D01*
X876496D01*
Y-172700D01*
X876210D01*
Y-172986D01*
X875637D01*
Y-173273D01*
X875351D01*
Y-173559D01*
X874778D01*
Y-173845D01*
X873919D01*
Y-174132D01*
X873060D01*
Y-174418D01*
X872201D01*
Y-174704D01*
X870483D01*
Y-174991D01*
X865330D01*
Y-174704D01*
X862753D01*
Y-174418D01*
X860749D01*
Y-174132D01*
X859317D01*
Y-173845D01*
X857886D01*
Y-173559D01*
X856454D01*
Y-173845D01*
Y-174132D01*
Y-174418D01*
Y-174704D01*
Y-174991D01*
Y-175277D01*
Y-175563D01*
X856168D01*
Y-175850D01*
Y-176136D01*
Y-176422D01*
Y-176709D01*
Y-176995D01*
Y-177281D01*
X855882D01*
Y-177568D01*
Y-177854D01*
Y-178140D01*
Y-178426D01*
Y-178713D01*
Y-178999D01*
X855595D01*
Y-179285D01*
Y-179572D01*
Y-179858D01*
Y-180144D01*
Y-180431D01*
Y-180717D01*
Y-181003D01*
X855309D01*
Y-181290D01*
Y-181576D01*
Y-181862D01*
Y-182149D01*
Y-182435D01*
Y-182721D01*
X855023D01*
Y-183007D01*
Y-183294D01*
Y-183580D01*
Y-183866D01*
Y-184153D01*
Y-184439D01*
X854736D01*
Y-184725D01*
Y-185012D01*
Y-185298D01*
Y-185584D01*
Y-185871D01*
Y-186157D01*
Y-186443D01*
X854450D01*
Y-186730D01*
Y-187016D01*
Y-187302D01*
Y-187588D01*
Y-187875D01*
Y-188161D01*
X854164D01*
Y-188447D01*
Y-188734D01*
Y-189020D01*
Y-189306D01*
Y-189593D01*
Y-189879D01*
X853877D01*
Y-190165D01*
Y-190452D01*
Y-190738D01*
Y-191024D01*
Y-191311D01*
Y-191597D01*
Y-191883D01*
X840421D01*
Y-191597D01*
X840707D01*
Y-191311D01*
Y-191024D01*
Y-190738D01*
Y-190452D01*
Y-190165D01*
X840993D01*
Y-189879D01*
Y-189593D01*
Y-189306D01*
Y-189020D01*
Y-188734D01*
Y-188447D01*
Y-188161D01*
X841280D01*
Y-187875D01*
Y-187588D01*
Y-187302D01*
Y-187016D01*
Y-186730D01*
Y-186443D01*
X841566D01*
Y-186157D01*
Y-185871D01*
Y-185584D01*
Y-185298D01*
Y-185012D01*
Y-184725D01*
X841852D01*
Y-184439D01*
Y-184153D01*
Y-183866D01*
Y-183580D01*
Y-183294D01*
Y-183007D01*
Y-182721D01*
X842138D01*
Y-182435D01*
Y-182149D01*
Y-181862D01*
Y-181576D01*
Y-181290D01*
Y-181003D01*
X842425D01*
Y-180717D01*
Y-180431D01*
Y-180144D01*
Y-179858D01*
Y-179572D01*
Y-179285D01*
X842711D01*
Y-178999D01*
Y-178713D01*
Y-178426D01*
Y-178140D01*
Y-177854D01*
Y-177568D01*
X842997D01*
Y-177281D01*
Y-176995D01*
Y-176709D01*
Y-176422D01*
Y-176136D01*
Y-175850D01*
Y-175563D01*
X843284D01*
Y-175277D01*
Y-174991D01*
Y-174704D01*
Y-174418D01*
Y-174132D01*
Y-173845D01*
X843570D01*
Y-173559D01*
Y-173273D01*
Y-172986D01*
Y-172700D01*
Y-172414D01*
Y-172127D01*
X843856D01*
Y-171841D01*
Y-171555D01*
Y-171269D01*
Y-170982D01*
Y-170696D01*
Y-170410D01*
X844143D01*
Y-170123D01*
Y-169837D01*
Y-169551D01*
Y-169264D01*
Y-168978D01*
Y-168692D01*
Y-168405D01*
X844429D01*
Y-168119D01*
Y-167833D01*
Y-167547D01*
Y-167260D01*
Y-166974D01*
Y-166688D01*
X844715D01*
Y-166401D01*
Y-166115D01*
Y-165829D01*
Y-165542D01*
Y-165256D01*
Y-164970D01*
X845002D01*
Y-164683D01*
Y-164397D01*
Y-164111D01*
Y-163824D01*
Y-163538D01*
Y-163252D01*
Y-162966D01*
X845288D01*
Y-162679D01*
Y-162393D01*
Y-162107D01*
Y-161820D01*
Y-161534D01*
Y-161248D01*
X845574D01*
Y-160961D01*
Y-160675D01*
Y-160389D01*
Y-160102D01*
Y-159816D01*
Y-159530D01*
X845861D01*
Y-159244D01*
Y-158957D01*
Y-158671D01*
Y-158385D01*
Y-158098D01*
Y-157812D01*
X846147D01*
Y-157526D01*
Y-157239D01*
Y-156953D01*
Y-156667D01*
Y-156380D01*
Y-156094D01*
Y-155808D01*
X846433D01*
Y-155521D01*
Y-155235D01*
Y-154949D01*
Y-154663D01*
Y-154376D01*
Y-154090D01*
X846719D01*
Y-153804D01*
Y-153517D01*
Y-153231D01*
Y-152945D01*
Y-152658D01*
Y-152372D01*
X847006D01*
Y-152086D01*
Y-151799D01*
Y-151513D01*
Y-151227D01*
Y-150940D01*
Y-150654D01*
Y-150368D01*
X847292D01*
Y-150082D01*
Y-149795D01*
Y-149509D01*
Y-149223D01*
Y-148936D01*
Y-148650D01*
X847578D01*
Y-148364D01*
Y-148077D01*
Y-147791D01*
Y-147505D01*
Y-147218D01*
Y-146932D01*
X847865D01*
Y-146646D01*
Y-146359D01*
Y-146073D01*
Y-145787D01*
Y-145501D01*
Y-145214D01*
Y-144928D01*
X848151D01*
Y-144641D01*
Y-144355D01*
Y-144069D01*
Y-143783D01*
Y-143496D01*
Y-143210D01*
X848437D01*
Y-142924D01*
Y-142637D01*
Y-142351D01*
Y-142065D01*
Y-141778D01*
Y-141492D01*
X872201D01*
Y-141778D01*
D02*
G37*
G36*
X903409Y-138343D02*
Y-138629D01*
X903123D01*
Y-138915D01*
Y-139202D01*
Y-139488D01*
Y-139774D01*
Y-140060D01*
Y-140347D01*
X902837D01*
Y-140633D01*
Y-140919D01*
Y-141206D01*
Y-141492D01*
Y-141778D01*
Y-142065D01*
X902551D01*
Y-142351D01*
Y-142637D01*
Y-142924D01*
Y-143210D01*
Y-143496D01*
Y-143783D01*
Y-144069D01*
X902264D01*
Y-144355D01*
Y-144641D01*
Y-144928D01*
Y-145214D01*
Y-145501D01*
Y-145787D01*
X901978D01*
Y-146073D01*
Y-146359D01*
Y-146646D01*
Y-146932D01*
Y-147218D01*
Y-147505D01*
X901692D01*
Y-147791D01*
Y-148077D01*
Y-148364D01*
Y-148650D01*
Y-148936D01*
Y-149223D01*
Y-149509D01*
X901405D01*
Y-149795D01*
Y-150082D01*
Y-150368D01*
Y-150654D01*
Y-150940D01*
Y-151227D01*
X901119D01*
Y-151513D01*
Y-151799D01*
Y-152086D01*
Y-152372D01*
Y-152658D01*
Y-152945D01*
X900833D01*
Y-153231D01*
Y-153517D01*
Y-153804D01*
Y-154090D01*
Y-154376D01*
Y-154663D01*
X900546D01*
Y-154949D01*
Y-155235D01*
Y-155521D01*
Y-155808D01*
Y-156094D01*
Y-156380D01*
Y-156667D01*
X900260D01*
Y-156953D01*
Y-157239D01*
Y-157526D01*
Y-157812D01*
Y-158098D01*
Y-158385D01*
X899974D01*
Y-158671D01*
Y-158957D01*
X900546D01*
Y-158671D01*
X900833D01*
Y-158385D01*
X901119D01*
Y-158098D01*
X901692D01*
Y-157812D01*
X901978D01*
Y-157526D01*
X902264D01*
Y-157239D01*
X902837D01*
Y-156953D01*
X903409D01*
Y-156667D01*
X903696D01*
Y-156380D01*
X904268D01*
Y-156094D01*
X905127D01*
Y-155808D01*
X905700D01*
Y-155521D01*
X906559D01*
Y-155235D01*
X907990D01*
Y-154949D01*
X914289D01*
Y-155235D01*
X915435D01*
Y-155521D01*
X916294D01*
Y-155808D01*
X916866D01*
Y-156094D01*
X917153D01*
Y-156380D01*
X917725D01*
Y-156667D01*
X918011D01*
Y-156953D01*
X918298D01*
Y-157239D01*
X918584D01*
Y-157526D01*
X918870D01*
Y-157812D01*
Y-158098D01*
X919157D01*
Y-158385D01*
Y-158671D01*
X919443D01*
Y-158957D01*
Y-159244D01*
Y-159530D01*
X919729D01*
Y-159816D01*
Y-160102D01*
Y-160389D01*
Y-160675D01*
X920016D01*
Y-160961D01*
Y-161248D01*
Y-161534D01*
Y-161820D01*
Y-162107D01*
Y-162393D01*
Y-162679D01*
Y-162966D01*
Y-163252D01*
Y-163538D01*
Y-163824D01*
Y-164111D01*
Y-164397D01*
Y-164683D01*
Y-164970D01*
Y-165256D01*
Y-165542D01*
Y-165829D01*
X919729D01*
Y-166115D01*
Y-166401D01*
Y-166688D01*
Y-166974D01*
Y-167260D01*
Y-167547D01*
Y-167833D01*
X919443D01*
Y-168119D01*
Y-168405D01*
Y-168692D01*
Y-168978D01*
Y-169264D01*
Y-169551D01*
Y-169837D01*
X919157D01*
Y-170123D01*
Y-170410D01*
Y-170696D01*
Y-170982D01*
Y-171269D01*
Y-171555D01*
X918870D01*
Y-171841D01*
Y-172127D01*
Y-172414D01*
Y-172700D01*
Y-172986D01*
Y-173273D01*
X918584D01*
Y-173559D01*
Y-173845D01*
Y-174132D01*
Y-174418D01*
Y-174704D01*
Y-174991D01*
X918298D01*
Y-175277D01*
Y-175563D01*
Y-175850D01*
Y-176136D01*
Y-176422D01*
Y-176709D01*
Y-176995D01*
X918011D01*
Y-177281D01*
Y-177568D01*
Y-177854D01*
Y-178140D01*
Y-178426D01*
Y-178713D01*
X917725D01*
Y-178999D01*
Y-179285D01*
Y-179572D01*
Y-179858D01*
Y-180144D01*
Y-180431D01*
X917439D01*
Y-180717D01*
Y-181003D01*
Y-181290D01*
Y-181576D01*
Y-181862D01*
Y-182149D01*
Y-182435D01*
X917153D01*
Y-182721D01*
Y-183007D01*
Y-183294D01*
Y-183580D01*
Y-183866D01*
Y-184153D01*
X916866D01*
Y-184439D01*
Y-184725D01*
Y-185012D01*
Y-185298D01*
Y-185584D01*
Y-185871D01*
X916580D01*
Y-186157D01*
Y-186443D01*
Y-186730D01*
Y-187016D01*
Y-187302D01*
Y-187588D01*
X916294D01*
Y-187875D01*
Y-188161D01*
Y-188447D01*
Y-188734D01*
Y-189020D01*
Y-189306D01*
Y-189593D01*
X916007D01*
Y-189879D01*
Y-190165D01*
Y-190452D01*
Y-190738D01*
Y-191024D01*
Y-191311D01*
X915721D01*
Y-191597D01*
Y-191883D01*
X902551D01*
Y-191597D01*
Y-191311D01*
X902837D01*
Y-191024D01*
Y-190738D01*
Y-190452D01*
Y-190165D01*
Y-189879D01*
Y-189593D01*
X903123D01*
Y-189306D01*
Y-189020D01*
Y-188734D01*
Y-188447D01*
Y-188161D01*
Y-187875D01*
Y-187588D01*
X903409D01*
Y-187302D01*
Y-187016D01*
Y-186730D01*
Y-186443D01*
Y-186157D01*
Y-185871D01*
X903696D01*
Y-185584D01*
Y-185298D01*
Y-185012D01*
Y-184725D01*
Y-184439D01*
Y-184153D01*
X903982D01*
Y-183866D01*
Y-183580D01*
Y-183294D01*
Y-183007D01*
Y-182721D01*
Y-182435D01*
Y-182149D01*
X904268D01*
Y-181862D01*
Y-181576D01*
Y-181290D01*
Y-181003D01*
Y-180717D01*
Y-180431D01*
X904555D01*
Y-180144D01*
Y-179858D01*
Y-179572D01*
Y-179285D01*
Y-178999D01*
Y-178713D01*
Y-178426D01*
X904841D01*
Y-178140D01*
Y-177854D01*
Y-177568D01*
Y-177281D01*
Y-176995D01*
Y-176709D01*
X905127D01*
Y-176422D01*
Y-176136D01*
Y-175850D01*
Y-175563D01*
Y-175277D01*
Y-174991D01*
X905414D01*
Y-174704D01*
Y-174418D01*
Y-174132D01*
Y-173845D01*
Y-173559D01*
Y-173273D01*
X905700D01*
Y-172986D01*
Y-172700D01*
Y-172414D01*
Y-172127D01*
Y-171841D01*
Y-171555D01*
Y-171269D01*
X905986D01*
Y-170982D01*
Y-170696D01*
Y-170410D01*
Y-170123D01*
Y-169837D01*
Y-169551D01*
X906273D01*
Y-169264D01*
Y-168978D01*
Y-168692D01*
Y-168405D01*
Y-168119D01*
Y-167833D01*
Y-167547D01*
X906559D01*
Y-167260D01*
Y-166974D01*
Y-166688D01*
Y-166401D01*
Y-166115D01*
Y-165829D01*
X906273D01*
Y-165542D01*
Y-165256D01*
X905986D01*
Y-164970D01*
X905700D01*
Y-164683D01*
X905127D01*
Y-164397D01*
X903409D01*
Y-164683D01*
X901978D01*
Y-164970D01*
X901119D01*
Y-165256D01*
X900546D01*
Y-165542D01*
X900260D01*
Y-165829D01*
X899687D01*
Y-166115D01*
X899401D01*
Y-166401D01*
X899115D01*
Y-166688D01*
Y-166974D01*
X898828D01*
Y-167260D01*
Y-167547D01*
Y-167833D01*
X898542D01*
Y-168119D01*
Y-168405D01*
Y-168692D01*
Y-168978D01*
Y-169264D01*
Y-169551D01*
X898256D01*
Y-169837D01*
Y-170123D01*
Y-170410D01*
Y-170696D01*
Y-170982D01*
Y-171269D01*
Y-171555D01*
X897970D01*
Y-171841D01*
Y-172127D01*
Y-172414D01*
Y-172700D01*
Y-172986D01*
Y-173273D01*
X897683D01*
Y-173559D01*
Y-173845D01*
Y-174132D01*
Y-174418D01*
Y-174704D01*
Y-174991D01*
X897397D01*
Y-175277D01*
Y-175563D01*
Y-175850D01*
Y-176136D01*
Y-176422D01*
Y-176709D01*
X897111D01*
Y-176995D01*
Y-177281D01*
Y-177568D01*
Y-177854D01*
Y-178140D01*
Y-178426D01*
Y-178713D01*
X896824D01*
Y-178999D01*
Y-179285D01*
Y-179572D01*
Y-179858D01*
Y-180144D01*
Y-180431D01*
X896538D01*
Y-180717D01*
Y-181003D01*
Y-181290D01*
Y-181576D01*
Y-181862D01*
Y-182149D01*
X896252D01*
Y-182435D01*
Y-182721D01*
Y-183007D01*
Y-183294D01*
Y-183580D01*
Y-183866D01*
Y-184153D01*
X895965D01*
Y-184439D01*
Y-184725D01*
Y-185012D01*
Y-185298D01*
Y-185584D01*
Y-185871D01*
X895679D01*
Y-186157D01*
Y-186443D01*
Y-186730D01*
Y-187016D01*
Y-187302D01*
Y-187588D01*
X895393D01*
Y-187875D01*
Y-188161D01*
Y-188447D01*
Y-188734D01*
Y-189020D01*
Y-189306D01*
X895106D01*
Y-189593D01*
Y-189879D01*
Y-190165D01*
Y-190452D01*
Y-190738D01*
Y-191024D01*
Y-191311D01*
X894820D01*
Y-191597D01*
Y-191883D01*
X881650D01*
Y-191597D01*
Y-191311D01*
X881936D01*
Y-191024D01*
Y-190738D01*
Y-190452D01*
Y-190165D01*
Y-189879D01*
Y-189593D01*
Y-189306D01*
X882222D01*
Y-189020D01*
Y-188734D01*
Y-188447D01*
Y-188161D01*
Y-187875D01*
Y-187588D01*
X882509D01*
Y-187302D01*
Y-187016D01*
Y-186730D01*
Y-186443D01*
Y-186157D01*
Y-185871D01*
X882795D01*
Y-185584D01*
Y-185298D01*
Y-185012D01*
Y-184725D01*
Y-184439D01*
Y-184153D01*
Y-183866D01*
X883081D01*
Y-183580D01*
Y-183294D01*
Y-183007D01*
Y-182721D01*
Y-182435D01*
Y-182149D01*
X883368D01*
Y-181862D01*
Y-181576D01*
Y-181290D01*
Y-181003D01*
Y-180717D01*
Y-180431D01*
X883654D01*
Y-180144D01*
Y-179858D01*
Y-179572D01*
Y-179285D01*
Y-178999D01*
Y-178713D01*
X883940D01*
Y-178426D01*
Y-178140D01*
Y-177854D01*
Y-177568D01*
Y-177281D01*
Y-176995D01*
Y-176709D01*
X884227D01*
Y-176422D01*
Y-176136D01*
Y-175850D01*
Y-175563D01*
Y-175277D01*
Y-174991D01*
X884513D01*
Y-174704D01*
Y-174418D01*
Y-174132D01*
Y-173845D01*
Y-173559D01*
Y-173273D01*
X884799D01*
Y-172986D01*
Y-172700D01*
Y-172414D01*
Y-172127D01*
Y-171841D01*
Y-171555D01*
Y-171269D01*
X885085D01*
Y-170982D01*
Y-170696D01*
Y-170410D01*
Y-170123D01*
Y-169837D01*
Y-169551D01*
X885372D01*
Y-169264D01*
Y-168978D01*
Y-168692D01*
Y-168405D01*
Y-168119D01*
Y-167833D01*
X885658D01*
Y-167547D01*
Y-167260D01*
Y-166974D01*
Y-166688D01*
Y-166401D01*
Y-166115D01*
X885944D01*
Y-165829D01*
Y-165542D01*
Y-165256D01*
Y-164970D01*
Y-164683D01*
Y-164397D01*
Y-164111D01*
X886231D01*
Y-163824D01*
Y-163538D01*
Y-163252D01*
Y-162966D01*
Y-162679D01*
Y-162393D01*
X886517D01*
Y-162107D01*
Y-161820D01*
Y-161534D01*
Y-161248D01*
Y-160961D01*
Y-160675D01*
X886803D01*
Y-160389D01*
Y-160102D01*
Y-159816D01*
Y-159530D01*
Y-159244D01*
Y-158957D01*
X887090D01*
Y-158671D01*
Y-158385D01*
Y-158098D01*
Y-157812D01*
Y-157526D01*
Y-157239D01*
Y-156953D01*
X887376D01*
Y-156667D01*
Y-156380D01*
Y-156094D01*
Y-155808D01*
Y-155521D01*
Y-155235D01*
X887662D01*
Y-154949D01*
Y-154663D01*
Y-154376D01*
Y-154090D01*
Y-153804D01*
Y-153517D01*
X887949D01*
Y-153231D01*
Y-152945D01*
Y-152658D01*
Y-152372D01*
Y-152086D01*
Y-151799D01*
Y-151513D01*
X888235D01*
Y-151227D01*
Y-150940D01*
Y-150654D01*
Y-150368D01*
Y-150082D01*
Y-149795D01*
X888521D01*
Y-149509D01*
Y-149223D01*
Y-148936D01*
Y-148650D01*
Y-148364D01*
Y-148077D01*
X888807D01*
Y-147791D01*
Y-147505D01*
Y-147218D01*
Y-146932D01*
Y-146646D01*
Y-146359D01*
X889094D01*
Y-146073D01*
Y-145787D01*
Y-145501D01*
Y-145214D01*
Y-144928D01*
Y-144641D01*
Y-144355D01*
X889380D01*
Y-144069D01*
Y-143783D01*
Y-143496D01*
Y-143210D01*
Y-142924D01*
Y-142637D01*
X889666D01*
Y-142351D01*
Y-142065D01*
Y-141778D01*
Y-141492D01*
Y-141206D01*
Y-140919D01*
X889953D01*
Y-140633D01*
Y-140347D01*
Y-140060D01*
Y-139774D01*
Y-139488D01*
Y-139202D01*
Y-138915D01*
X890239D01*
Y-138629D01*
Y-138343D01*
Y-138056D01*
X903409D01*
Y-138343D01*
D02*
G37*
G36*
X1005337Y-155808D02*
X1005050D01*
Y-156094D01*
X1004764D01*
Y-156380D01*
Y-156667D01*
X1004478D01*
Y-156953D01*
X1004192D01*
Y-157239D01*
X1003905D01*
Y-157526D01*
Y-157812D01*
X1003619D01*
Y-158098D01*
X1003333D01*
Y-158385D01*
X1003046D01*
Y-158671D01*
X1002760D01*
Y-158957D01*
Y-159244D01*
X1002474D01*
Y-159530D01*
X1002187D01*
Y-159816D01*
X1001901D01*
Y-160102D01*
Y-160389D01*
X1001615D01*
Y-160675D01*
X1001328D01*
Y-160961D01*
X1001042D01*
Y-161248D01*
X1000756D01*
Y-161534D01*
Y-161820D01*
X1000469D01*
Y-162107D01*
X1000183D01*
Y-162393D01*
X999897D01*
Y-162679D01*
Y-162966D01*
X999611D01*
Y-163252D01*
X999324D01*
Y-163538D01*
X999038D01*
Y-163824D01*
Y-164111D01*
X998752D01*
Y-164397D01*
X998465D01*
Y-164683D01*
X998179D01*
Y-164970D01*
X997893D01*
Y-165256D01*
Y-165542D01*
X997606D01*
Y-165829D01*
X997320D01*
Y-166115D01*
X997034D01*
Y-166401D01*
Y-166688D01*
X996747D01*
Y-166974D01*
X996461D01*
Y-167260D01*
X996175D01*
Y-167547D01*
Y-167833D01*
X995889D01*
Y-168119D01*
X995602D01*
Y-168405D01*
X995316D01*
Y-168692D01*
X995030D01*
Y-168978D01*
Y-169264D01*
X994743D01*
Y-169551D01*
X994457D01*
Y-169837D01*
X994171D01*
Y-170123D01*
Y-170410D01*
X993884D01*
Y-170696D01*
X993598D01*
Y-170982D01*
X993312D01*
Y-171269D01*
Y-171555D01*
X993025D01*
Y-171841D01*
X992739D01*
Y-172127D01*
X992453D01*
Y-172414D01*
X992166D01*
Y-172700D01*
Y-172986D01*
X991880D01*
Y-173273D01*
X991594D01*
Y-173559D01*
X991308D01*
Y-173845D01*
Y-174132D01*
X991021D01*
Y-174418D01*
X990735D01*
Y-174704D01*
X990449D01*
Y-174991D01*
X990162D01*
Y-175277D01*
Y-175563D01*
X990449D01*
Y-175850D01*
Y-176136D01*
X990735D01*
Y-176422D01*
Y-176709D01*
X991021D01*
Y-176995D01*
X991308D01*
Y-177281D01*
Y-177568D01*
X991594D01*
Y-177854D01*
Y-178140D01*
X991880D01*
Y-178426D01*
Y-178713D01*
X992166D01*
Y-178999D01*
Y-179285D01*
X992453D01*
Y-179572D01*
Y-179858D01*
X992739D01*
Y-180144D01*
Y-180431D01*
X993025D01*
Y-180717D01*
Y-181003D01*
X993312D01*
Y-181290D01*
Y-181576D01*
X993598D01*
Y-181862D01*
X993884D01*
Y-182149D01*
Y-182435D01*
X994171D01*
Y-182721D01*
Y-183007D01*
X994457D01*
Y-183294D01*
Y-183580D01*
X994743D01*
Y-183866D01*
Y-184153D01*
X995030D01*
Y-184439D01*
Y-184725D01*
X995316D01*
Y-185012D01*
Y-185298D01*
X995602D01*
Y-185584D01*
Y-185871D01*
X995889D01*
Y-186157D01*
X996175D01*
Y-186443D01*
Y-186730D01*
X996461D01*
Y-187016D01*
Y-187302D01*
X996747D01*
Y-187588D01*
Y-187875D01*
X997034D01*
Y-188161D01*
Y-188447D01*
X997320D01*
Y-188734D01*
Y-189020D01*
X997606D01*
Y-189306D01*
Y-189593D01*
X997893D01*
Y-189879D01*
Y-190165D01*
X998179D01*
Y-190452D01*
X998465D01*
Y-190738D01*
Y-191024D01*
X998752D01*
Y-191311D01*
Y-191597D01*
X999038D01*
Y-191883D01*
X983863D01*
Y-191597D01*
X983577D01*
Y-191311D01*
Y-191024D01*
Y-190738D01*
X983291D01*
Y-190452D01*
Y-190165D01*
Y-189879D01*
X983004D01*
Y-189593D01*
Y-189306D01*
X982718D01*
Y-189020D01*
Y-188734D01*
Y-188447D01*
X982432D01*
Y-188161D01*
Y-187875D01*
Y-187588D01*
X982146D01*
Y-187302D01*
Y-187016D01*
X981859D01*
Y-186730D01*
Y-186443D01*
Y-186157D01*
X981573D01*
Y-185871D01*
Y-185584D01*
Y-185298D01*
X981287D01*
Y-185012D01*
Y-184725D01*
Y-184439D01*
X981000D01*
Y-184153D01*
X980428D01*
Y-184439D01*
Y-184725D01*
X980141D01*
Y-185012D01*
X979855D01*
Y-185298D01*
Y-185584D01*
X979569D01*
Y-185871D01*
X979282D01*
Y-186157D01*
Y-186443D01*
X978996D01*
Y-186730D01*
X978710D01*
Y-187016D01*
Y-187302D01*
X978423D01*
Y-187588D01*
X978137D01*
Y-187875D01*
X977851D01*
Y-188161D01*
Y-188447D01*
X977565D01*
Y-188734D01*
X977278D01*
Y-189020D01*
Y-189306D01*
X976992D01*
Y-189593D01*
X976705D01*
Y-189879D01*
Y-190165D01*
X976419D01*
Y-190452D01*
X976133D01*
Y-190738D01*
Y-191024D01*
X975847D01*
Y-191311D01*
X975560D01*
Y-191597D01*
Y-191883D01*
X959527D01*
Y-191597D01*
X959813D01*
Y-191311D01*
X960099D01*
Y-191024D01*
X960386D01*
Y-190738D01*
X960672D01*
Y-190452D01*
Y-190165D01*
X960958D01*
Y-189879D01*
X961245D01*
Y-189593D01*
X961531D01*
Y-189306D01*
X961817D01*
Y-189020D01*
Y-188734D01*
X962104D01*
Y-188447D01*
X962390D01*
Y-188161D01*
X962676D01*
Y-187875D01*
Y-187588D01*
X962963D01*
Y-187302D01*
X963249D01*
Y-187016D01*
X963535D01*
Y-186730D01*
X963822D01*
Y-186443D01*
Y-186157D01*
X964108D01*
Y-185871D01*
X964394D01*
Y-185584D01*
X964680D01*
Y-185298D01*
X964967D01*
Y-185012D01*
Y-184725D01*
X965253D01*
Y-184439D01*
X965539D01*
Y-184153D01*
X965826D01*
Y-183866D01*
Y-183580D01*
X966112D01*
Y-183294D01*
X966398D01*
Y-183007D01*
X966685D01*
Y-182721D01*
X966971D01*
Y-182435D01*
Y-182149D01*
X967257D01*
Y-181862D01*
X967544D01*
Y-181576D01*
X967830D01*
Y-181290D01*
Y-181003D01*
X968116D01*
Y-180717D01*
X968402D01*
Y-180431D01*
X968689D01*
Y-180144D01*
X968975D01*
Y-179858D01*
Y-179572D01*
X969261D01*
Y-179285D01*
X969548D01*
Y-178999D01*
X969834D01*
Y-178713D01*
Y-178426D01*
X970120D01*
Y-178140D01*
X970407D01*
Y-177854D01*
X970693D01*
Y-177568D01*
X970979D01*
Y-177281D01*
Y-176995D01*
X971266D01*
Y-176709D01*
X971552D01*
Y-176422D01*
X971838D01*
Y-176136D01*
X972124D01*
Y-175850D01*
Y-175563D01*
X972411D01*
Y-175277D01*
X972697D01*
Y-174991D01*
X972983D01*
Y-174704D01*
Y-174418D01*
X973270D01*
Y-174132D01*
X973556D01*
Y-173845D01*
X973842D01*
Y-173559D01*
X974129D01*
Y-173273D01*
Y-172986D01*
X974415D01*
Y-172700D01*
Y-172414D01*
Y-172127D01*
X974129D01*
Y-171841D01*
X973842D01*
Y-171555D01*
Y-171269D01*
X973556D01*
Y-170982D01*
Y-170696D01*
X973270D01*
Y-170410D01*
Y-170123D01*
X972983D01*
Y-169837D01*
Y-169551D01*
X972697D01*
Y-169264D01*
Y-168978D01*
X972411D01*
Y-168692D01*
Y-168405D01*
X972124D01*
Y-168119D01*
X971838D01*
Y-167833D01*
Y-167547D01*
X971552D01*
Y-167260D01*
Y-166974D01*
X971266D01*
Y-166688D01*
Y-166401D01*
X970979D01*
Y-166115D01*
Y-165829D01*
X970693D01*
Y-165542D01*
Y-165256D01*
X970407D01*
Y-164970D01*
Y-164683D01*
X970120D01*
Y-164397D01*
X969834D01*
Y-164111D01*
Y-163824D01*
X969548D01*
Y-163538D01*
Y-163252D01*
X969261D01*
Y-162966D01*
Y-162679D01*
X968975D01*
Y-162393D01*
Y-162107D01*
X968689D01*
Y-161820D01*
Y-161534D01*
X968402D01*
Y-161248D01*
Y-160961D01*
X968116D01*
Y-160675D01*
Y-160389D01*
X967830D01*
Y-160102D01*
X967544D01*
Y-159816D01*
Y-159530D01*
X967257D01*
Y-159244D01*
Y-158957D01*
X966971D01*
Y-158671D01*
Y-158385D01*
X966685D01*
Y-158098D01*
Y-157812D01*
X966398D01*
Y-157526D01*
Y-157239D01*
X966112D01*
Y-156953D01*
Y-156667D01*
X965826D01*
Y-156380D01*
X965539D01*
Y-156094D01*
Y-155808D01*
X965253D01*
Y-155521D01*
X981000D01*
Y-155808D01*
X981287D01*
Y-156094D01*
Y-156380D01*
Y-156667D01*
X981573D01*
Y-156953D01*
Y-157239D01*
Y-157526D01*
X981859D01*
Y-157812D01*
Y-158098D01*
Y-158385D01*
X982146D01*
Y-158671D01*
Y-158957D01*
Y-159244D01*
X982432D01*
Y-159530D01*
Y-159816D01*
Y-160102D01*
X982718D01*
Y-160389D01*
Y-160675D01*
Y-160961D01*
X983004D01*
Y-161248D01*
Y-161534D01*
Y-161820D01*
X983291D01*
Y-162107D01*
Y-162393D01*
Y-162679D01*
X983577D01*
Y-162966D01*
Y-163252D01*
Y-163538D01*
Y-163824D01*
X984150D01*
Y-163538D01*
X984436D01*
Y-163252D01*
X984722D01*
Y-162966D01*
Y-162679D01*
X985009D01*
Y-162393D01*
X985295D01*
Y-162107D01*
Y-161820D01*
X985581D01*
Y-161534D01*
X985868D01*
Y-161248D01*
Y-160961D01*
X986154D01*
Y-160675D01*
X986440D01*
Y-160389D01*
Y-160102D01*
X986726D01*
Y-159816D01*
X987013D01*
Y-159530D01*
Y-159244D01*
X987299D01*
Y-158957D01*
X987585D01*
Y-158671D01*
Y-158385D01*
X987872D01*
Y-158098D01*
X988158D01*
Y-157812D01*
Y-157526D01*
X988444D01*
Y-157239D01*
X988731D01*
Y-156953D01*
Y-156667D01*
X989017D01*
Y-156380D01*
X989303D01*
Y-156094D01*
Y-155808D01*
X989590D01*
Y-155521D01*
X1005337D01*
Y-155808D01*
D02*
G37*
G36*
X961245D02*
Y-156094D01*
Y-156380D01*
Y-156667D01*
Y-156953D01*
Y-157239D01*
Y-157526D01*
Y-157812D01*
Y-158098D01*
Y-158385D01*
Y-158671D01*
Y-158957D01*
Y-159244D01*
Y-159530D01*
Y-159816D01*
Y-160102D01*
Y-160389D01*
Y-160675D01*
Y-160961D01*
Y-161248D01*
Y-161534D01*
X960958D01*
Y-161820D01*
Y-162107D01*
Y-162393D01*
Y-162679D01*
Y-162966D01*
X960672D01*
Y-163252D01*
Y-163538D01*
Y-163824D01*
Y-164111D01*
X960386D01*
Y-164397D01*
Y-164683D01*
Y-164970D01*
Y-165256D01*
X960099D01*
Y-165542D01*
Y-165829D01*
Y-166115D01*
X959813D01*
Y-166401D01*
Y-166688D01*
Y-166974D01*
X959527D01*
Y-167260D01*
Y-167547D01*
Y-167833D01*
X959241D01*
Y-168119D01*
Y-168405D01*
Y-168692D01*
X958954D01*
Y-168978D01*
Y-169264D01*
X958668D01*
Y-169551D01*
Y-169837D01*
X958381D01*
Y-170123D01*
Y-170410D01*
Y-170696D01*
X958095D01*
Y-170982D01*
Y-171269D01*
X957809D01*
Y-171555D01*
Y-171841D01*
Y-172127D01*
X957523D01*
Y-172414D01*
Y-172700D01*
X957236D01*
Y-172986D01*
Y-173273D01*
Y-173559D01*
X956950D01*
Y-173845D01*
Y-174132D01*
X956664D01*
Y-174418D01*
Y-174704D01*
Y-174991D01*
X956377D01*
Y-175277D01*
Y-175563D01*
X956091D01*
Y-175850D01*
Y-176136D01*
Y-176422D01*
X955805D01*
Y-176709D01*
Y-176995D01*
X955518D01*
Y-177281D01*
Y-177568D01*
Y-177854D01*
X955232D01*
Y-178140D01*
Y-178426D01*
X954946D01*
Y-178713D01*
Y-178999D01*
Y-179285D01*
X954659D01*
Y-179572D01*
Y-179858D01*
X954373D01*
Y-180144D01*
Y-180431D01*
Y-180717D01*
X954087D01*
Y-181003D01*
Y-181290D01*
X953800D01*
Y-181576D01*
Y-181862D01*
Y-182149D01*
X953514D01*
Y-182435D01*
Y-182721D01*
X953228D01*
Y-183007D01*
Y-183294D01*
Y-183580D01*
X952942D01*
Y-183866D01*
Y-184153D01*
X952655D01*
Y-184439D01*
Y-184725D01*
Y-185012D01*
X952369D01*
Y-185298D01*
Y-185584D01*
X952083D01*
Y-185871D01*
Y-186157D01*
Y-186443D01*
X951796D01*
Y-186730D01*
Y-187016D01*
X951510D01*
Y-187302D01*
Y-187588D01*
Y-187875D01*
X951224D01*
Y-188161D01*
Y-188447D01*
X950937D01*
Y-188734D01*
Y-189020D01*
Y-189306D01*
X950651D01*
Y-189593D01*
Y-189879D01*
X950365D01*
Y-190165D01*
Y-190452D01*
Y-190738D01*
X950078D01*
Y-191024D01*
Y-191311D01*
X949792D01*
Y-191597D01*
Y-191883D01*
Y-192169D01*
X949506D01*
Y-192456D01*
Y-192742D01*
X949220D01*
Y-193028D01*
Y-193315D01*
X948933D01*
Y-193601D01*
Y-193887D01*
X948647D01*
Y-194174D01*
Y-194460D01*
Y-194746D01*
X948361D01*
Y-195033D01*
X948074D01*
Y-195319D01*
Y-195605D01*
Y-195891D01*
X947788D01*
Y-196178D01*
X947502D01*
Y-196464D01*
Y-196750D01*
X947215D01*
Y-197037D01*
Y-197323D01*
X946929D01*
Y-197609D01*
Y-197896D01*
X946643D01*
Y-198182D01*
Y-198468D01*
X946356D01*
Y-198755D01*
X946070D01*
Y-199041D01*
Y-199327D01*
X945784D01*
Y-199614D01*
Y-199900D01*
X945497D01*
Y-200186D01*
X945211D01*
Y-200472D01*
X944925D01*
Y-200759D01*
Y-201045D01*
X944639D01*
Y-201331D01*
X944352D01*
Y-201618D01*
Y-201904D01*
X944066D01*
Y-202190D01*
X943780D01*
Y-202477D01*
X943493D01*
Y-202763D01*
Y-203049D01*
X943207D01*
Y-203336D01*
X942921D01*
Y-203622D01*
X942634D01*
Y-203908D01*
X942348D01*
Y-204195D01*
X942062D01*
Y-204481D01*
Y-204767D01*
X941775D01*
Y-205053D01*
X941489D01*
Y-205340D01*
X941203D01*
Y-205626D01*
X940916D01*
Y-205912D01*
X940630D01*
Y-206199D01*
X940344D01*
Y-206485D01*
X940057D01*
Y-206771D01*
X939485D01*
Y-207058D01*
X939199D01*
Y-207344D01*
X938912D01*
Y-207630D01*
X938626D01*
Y-207917D01*
X938340D01*
Y-208203D01*
X937767D01*
Y-208489D01*
X937481D01*
Y-208776D01*
X936908D01*
Y-209062D01*
X936622D01*
Y-209348D01*
X936049D01*
Y-209634D01*
X935763D01*
Y-209921D01*
X935190D01*
Y-210207D01*
X934618D01*
Y-210493D01*
X934045D01*
Y-210780D01*
X933472D01*
Y-211066D01*
X932900D01*
Y-211352D01*
X932041D01*
Y-211639D01*
X931468D01*
Y-211925D01*
X930609D01*
Y-212211D01*
X929464D01*
Y-212498D01*
X928319D01*
Y-212784D01*
X926601D01*
Y-213070D01*
X924597D01*
Y-213357D01*
X924310D01*
Y-213070D01*
Y-212784D01*
Y-212498D01*
Y-212211D01*
Y-211925D01*
Y-211639D01*
Y-211352D01*
Y-211066D01*
Y-210780D01*
Y-210493D01*
Y-210207D01*
Y-209921D01*
Y-209634D01*
Y-209348D01*
Y-209062D01*
Y-208776D01*
Y-208489D01*
Y-208203D01*
Y-207917D01*
Y-207630D01*
Y-207344D01*
Y-207058D01*
Y-206771D01*
Y-206485D01*
Y-206199D01*
Y-205912D01*
Y-205626D01*
Y-205340D01*
Y-205053D01*
Y-204767D01*
Y-204481D01*
Y-204195D01*
Y-203908D01*
X924883D01*
Y-203622D01*
X925455D01*
Y-203336D01*
X926028D01*
Y-203049D01*
X926601D01*
Y-202763D01*
X927173D01*
Y-202477D01*
X927746D01*
Y-202190D01*
X928032D01*
Y-201904D01*
X928605D01*
Y-201618D01*
X928891D01*
Y-201331D01*
X929464D01*
Y-201045D01*
X929750D01*
Y-200759D01*
X930037D01*
Y-200472D01*
X930609D01*
Y-200186D01*
X930896D01*
Y-199900D01*
X931182D01*
Y-199614D01*
X931468D01*
Y-199327D01*
X931754D01*
Y-199041D01*
X932041D01*
Y-198755D01*
X932327D01*
Y-198468D01*
X932613D01*
Y-198182D01*
X932900D01*
Y-197896D01*
X933186D01*
Y-197609D01*
X933472D01*
Y-197323D01*
X933759D01*
Y-197037D01*
Y-196750D01*
X934045D01*
Y-196464D01*
X934331D01*
Y-196178D01*
X934618D01*
Y-195891D01*
Y-195605D01*
X934904D01*
Y-195319D01*
X935190D01*
Y-195033D01*
Y-194746D01*
X935476D01*
Y-194460D01*
Y-194174D01*
X935763D01*
Y-193887D01*
X936049D01*
Y-193601D01*
Y-193315D01*
X936335D01*
Y-193028D01*
Y-192742D01*
X936622D01*
Y-192456D01*
Y-192169D01*
X934904D01*
Y-191883D01*
X932900D01*
Y-191597D01*
X931754D01*
Y-191311D01*
X931182D01*
Y-191024D01*
X930323D01*
Y-190738D01*
X929750D01*
Y-190452D01*
X929464D01*
Y-190165D01*
X928891D01*
Y-189879D01*
X928605D01*
Y-189593D01*
X928319D01*
Y-189306D01*
X928032D01*
Y-189020D01*
X927746D01*
Y-188734D01*
X927460D01*
Y-188447D01*
Y-188161D01*
X927173D01*
Y-187875D01*
X926887D01*
Y-187588D01*
Y-187302D01*
X926601D01*
Y-187016D01*
Y-186730D01*
X926315D01*
Y-186443D01*
Y-186157D01*
X926028D01*
Y-185871D01*
Y-185584D01*
Y-185298D01*
X925742D01*
Y-185012D01*
Y-184725D01*
Y-184439D01*
Y-184153D01*
X925455D01*
Y-183866D01*
Y-183580D01*
Y-183294D01*
Y-183007D01*
Y-182721D01*
Y-182435D01*
Y-182149D01*
X925169D01*
Y-181862D01*
Y-181576D01*
Y-181290D01*
Y-181003D01*
Y-180717D01*
Y-180431D01*
Y-180144D01*
Y-179858D01*
Y-179572D01*
Y-179285D01*
Y-178999D01*
Y-178713D01*
Y-178426D01*
Y-178140D01*
Y-177854D01*
X924883D01*
Y-177568D01*
Y-177281D01*
Y-176995D01*
Y-176709D01*
Y-176422D01*
Y-176136D01*
Y-175850D01*
Y-175563D01*
Y-175277D01*
Y-174991D01*
Y-174704D01*
Y-174418D01*
Y-174132D01*
Y-173845D01*
Y-173559D01*
X924597D01*
Y-173273D01*
Y-172986D01*
Y-172700D01*
Y-172414D01*
Y-172127D01*
Y-171841D01*
Y-171555D01*
Y-171269D01*
Y-170982D01*
Y-170696D01*
Y-170410D01*
Y-170123D01*
Y-169837D01*
Y-169551D01*
Y-169264D01*
Y-168978D01*
X924310D01*
Y-168692D01*
Y-168405D01*
Y-168119D01*
Y-167833D01*
Y-167547D01*
Y-167260D01*
Y-166974D01*
Y-166688D01*
Y-166401D01*
Y-166115D01*
Y-165829D01*
Y-165542D01*
Y-165256D01*
Y-164970D01*
Y-164683D01*
Y-164397D01*
X924024D01*
Y-164111D01*
Y-163824D01*
Y-163538D01*
Y-163252D01*
Y-162966D01*
Y-162679D01*
Y-162393D01*
Y-162107D01*
Y-161820D01*
Y-161534D01*
Y-161248D01*
Y-160961D01*
Y-160675D01*
Y-160389D01*
X923738D01*
Y-160102D01*
Y-159816D01*
Y-159530D01*
Y-159244D01*
Y-158957D01*
Y-158671D01*
Y-158385D01*
Y-158098D01*
Y-157812D01*
Y-157526D01*
Y-157239D01*
Y-156953D01*
Y-156667D01*
Y-156380D01*
Y-156094D01*
Y-155808D01*
X923451D01*
Y-155521D01*
X937194D01*
Y-155808D01*
Y-156094D01*
Y-156380D01*
Y-156667D01*
Y-156953D01*
Y-157239D01*
Y-157526D01*
Y-157812D01*
Y-158098D01*
Y-158385D01*
Y-158671D01*
Y-158957D01*
Y-159244D01*
Y-159530D01*
X937481D01*
Y-159816D01*
Y-160102D01*
Y-160389D01*
Y-160675D01*
Y-160961D01*
Y-161248D01*
Y-161534D01*
Y-161820D01*
Y-162107D01*
Y-162393D01*
Y-162679D01*
Y-162966D01*
Y-163252D01*
Y-163538D01*
Y-163824D01*
Y-164111D01*
Y-164397D01*
Y-164683D01*
Y-164970D01*
Y-165256D01*
Y-165542D01*
Y-165829D01*
Y-166115D01*
Y-166401D01*
Y-166688D01*
Y-166974D01*
Y-167260D01*
Y-167547D01*
Y-167833D01*
Y-168119D01*
Y-168405D01*
Y-168692D01*
Y-168978D01*
Y-169264D01*
Y-169551D01*
Y-169837D01*
Y-170123D01*
Y-170410D01*
Y-170696D01*
Y-170982D01*
Y-171269D01*
X937767D01*
Y-171555D01*
X937481D01*
Y-171841D01*
Y-172127D01*
X937767D01*
Y-172414D01*
Y-172700D01*
Y-172986D01*
Y-173273D01*
Y-173559D01*
Y-173845D01*
Y-174132D01*
Y-174418D01*
Y-174704D01*
Y-174991D01*
Y-175277D01*
Y-175563D01*
Y-175850D01*
Y-176136D01*
Y-176422D01*
Y-176709D01*
Y-176995D01*
Y-177281D01*
Y-177568D01*
Y-177854D01*
Y-178140D01*
Y-178426D01*
Y-178713D01*
Y-178999D01*
Y-179285D01*
Y-179572D01*
X938053D01*
Y-179858D01*
Y-180144D01*
Y-180431D01*
X938340D01*
Y-180717D01*
X938626D01*
Y-181003D01*
X938912D01*
Y-181290D01*
X939771D01*
Y-181576D01*
X940630D01*
Y-181290D01*
X940916D01*
Y-181003D01*
Y-180717D01*
Y-180431D01*
X941203D01*
Y-180144D01*
Y-179858D01*
X941489D01*
Y-179572D01*
Y-179285D01*
Y-178999D01*
X941775D01*
Y-178713D01*
Y-178426D01*
Y-178140D01*
X942062D01*
Y-177854D01*
Y-177568D01*
Y-177281D01*
X942348D01*
Y-176995D01*
Y-176709D01*
Y-176422D01*
X942634D01*
Y-176136D01*
Y-175850D01*
X942921D01*
Y-175563D01*
Y-175277D01*
Y-174991D01*
X943207D01*
Y-174704D01*
Y-174418D01*
Y-174132D01*
X943493D01*
Y-173845D01*
Y-173559D01*
Y-173273D01*
X943780D01*
Y-172986D01*
Y-172700D01*
X944066D01*
Y-172414D01*
Y-172127D01*
Y-171841D01*
X944352D01*
Y-171555D01*
Y-171269D01*
Y-170982D01*
X944639D01*
Y-170696D01*
Y-170410D01*
Y-170123D01*
X944925D01*
Y-169837D01*
Y-169551D01*
X945211D01*
Y-169264D01*
Y-168978D01*
Y-168692D01*
X945497D01*
Y-168405D01*
Y-168119D01*
Y-167833D01*
X945784D01*
Y-167547D01*
Y-167260D01*
Y-166974D01*
X946070D01*
Y-166688D01*
Y-166401D01*
X946356D01*
Y-166115D01*
Y-165829D01*
Y-165542D01*
X946643D01*
Y-165256D01*
Y-164970D01*
Y-164683D01*
X946929D01*
Y-164397D01*
Y-164111D01*
Y-163824D01*
X947215D01*
Y-163538D01*
Y-163252D01*
Y-162966D01*
Y-162679D01*
X947502D01*
Y-162393D01*
Y-162107D01*
Y-161820D01*
Y-161534D01*
X947788D01*
Y-161248D01*
Y-160961D01*
Y-160675D01*
Y-160389D01*
Y-160102D01*
X948074D01*
Y-159816D01*
Y-159530D01*
Y-159244D01*
Y-158957D01*
Y-158671D01*
Y-158385D01*
X948361D01*
Y-158098D01*
Y-157812D01*
Y-157526D01*
Y-157239D01*
Y-156953D01*
Y-156667D01*
Y-156380D01*
Y-156094D01*
Y-155808D01*
Y-155521D01*
X961245D01*
Y-155808D01*
D02*
G37*
%LPC*%
G36*
X867907Y-152658D02*
X859890D01*
Y-152945D01*
Y-153231D01*
Y-153517D01*
Y-153804D01*
Y-154090D01*
X859604D01*
Y-154376D01*
Y-154663D01*
Y-154949D01*
Y-155235D01*
Y-155521D01*
Y-155808D01*
X859317D01*
Y-156094D01*
Y-156380D01*
Y-156667D01*
Y-156953D01*
Y-157239D01*
Y-157526D01*
X859031D01*
Y-157812D01*
Y-158098D01*
Y-158385D01*
Y-158671D01*
Y-158957D01*
Y-159244D01*
X858745D01*
Y-159530D01*
Y-159816D01*
Y-160102D01*
Y-160389D01*
Y-160675D01*
Y-160961D01*
Y-161248D01*
X858458D01*
Y-161534D01*
Y-161820D01*
Y-162107D01*
Y-162393D01*
Y-162679D01*
Y-162966D01*
X858172D01*
Y-163252D01*
Y-163538D01*
Y-163824D01*
X865330D01*
Y-163538D01*
X866475D01*
Y-163252D01*
X867048D01*
Y-162966D01*
X867334D01*
Y-162679D01*
X867620D01*
Y-162393D01*
X867907D01*
Y-162107D01*
X868193D01*
Y-161820D01*
Y-161534D01*
X868479D01*
Y-161248D01*
Y-160961D01*
X868766D01*
Y-160675D01*
Y-160389D01*
X869052D01*
Y-160102D01*
Y-159816D01*
Y-159530D01*
Y-159244D01*
X869338D01*
Y-158957D01*
Y-158671D01*
Y-158385D01*
Y-158098D01*
Y-157812D01*
X869625D01*
Y-157526D01*
Y-157239D01*
Y-156953D01*
Y-156667D01*
Y-156380D01*
Y-156094D01*
Y-155808D01*
Y-155521D01*
Y-155235D01*
Y-154949D01*
Y-154663D01*
X869338D01*
Y-154376D01*
Y-154090D01*
X869052D01*
Y-153804D01*
Y-153517D01*
X868766D01*
Y-153231D01*
X868479D01*
Y-152945D01*
X867907D01*
Y-152658D01*
D02*
G37*
%LPD*%
D11*
X716672Y198600D02*
G03*
X716672Y198600I-1750J0D01*
G01*
X715972Y167104D02*
G03*
X715972Y167104I-1050J0D01*
G01*
X716672D02*
G03*
X716672Y167104I-1750J0D01*
G01*
X710013Y210236D02*
X1256789D01*
X710013Y131496D02*
X1256789D01*
X710013Y123622D02*
X1256789D01*
Y218110D01*
X710013D02*
X1256789D01*
X710013Y123622D02*
Y218110D01*
X1182952Y123622D02*
Y218110D01*
X1121421Y123622D02*
Y218110D01*
X1061465Y123622D02*
Y218110D01*
X1004133Y123622D02*
Y218110D01*
X972959Y123622D02*
Y218110D01*
X894112Y123622D02*
Y218110D01*
X855382Y123622D02*
Y218110D01*
X828617Y123622D02*
Y218110D01*
X767086Y123622D02*
Y218110D01*
X739140Y123622D02*
Y218110D01*
X713172Y206474D02*
X714922Y204724D01*
X716672Y206474D01*
X714922Y208224D02*
X716672Y206474D01*
X713172D02*
X714922Y208224D01*
X713172Y188976D02*
Y189851D01*
X714047Y190726D01*
X713172Y191601D02*
X714047Y190726D01*
X713172Y191601D02*
Y192476D01*
X714047D01*
X714922Y191601D01*
X715797Y192476D01*
X716672D01*
Y191601D02*
Y192476D01*
X715797Y190726D02*
X716672Y191601D01*
X715797Y190726D02*
X716672Y189851D01*
Y188976D02*
Y189851D01*
X715797Y188976D02*
X716672D01*
X714922Y189851D02*
X715797Y188976D01*
X714047D02*
X714922Y189851D01*
X713172Y188976D02*
X714047D01*
X713172Y181977D02*
X714047D01*
X713172D02*
Y183727D01*
X714047D01*
Y184602D01*
X715797D01*
Y183727D02*
Y184602D01*
Y183727D02*
X716672D01*
Y181977D02*
Y183727D01*
X715797Y181977D02*
X716672D01*
X715797Y181102D02*
Y181977D01*
X714047Y181102D02*
X715797D01*
X714047D02*
Y181977D01*
Y174103D02*
X714922Y173228D01*
X713172Y174103D02*
X714047D01*
X713172D02*
X714047Y174978D01*
X713172Y175853D02*
X714047Y174978D01*
X713172Y175853D02*
X714047D01*
X714922Y176728D01*
X715797Y175853D01*
X716672D01*
X715797Y174978D02*
X716672Y175853D01*
X715797Y174978D02*
X716672Y174103D01*
X715797D02*
X716672D01*
X714922Y173228D02*
X715797Y174103D01*
X713172Y157480D02*
X716672D01*
Y160980D01*
X713172D02*
X716672D01*
X713172Y157480D02*
Y160980D01*
Y149606D02*
X714922Y150481D01*
X716672Y149606D01*
X715797Y151356D02*
X716672Y149606D01*
X715797Y151356D02*
X716672Y153106D01*
X714922Y152231D02*
X716672Y153106D01*
X713172D02*
X714922Y152231D01*
X713172Y153106D02*
X714047Y151356D01*
X713172Y149606D02*
X714047Y151356D01*
X714922Y141732D02*
X716672Y145232D01*
X713172D02*
X716672D01*
X713172D02*
X714922Y141732D01*
X713872Y134558D02*
X715972D01*
Y136658D01*
X713872D02*
X715972D01*
X713872Y134558D02*
Y136658D01*
X713172Y133858D02*
X716672D01*
Y137358D01*
X713172D02*
X716672D01*
X713172Y133858D02*
Y137358D01*
X1185314Y204724D02*
X1186364D01*
X1185839D01*
Y207873D01*
X1185314Y207348D01*
X1188463Y204200D02*
X1188988Y204724D01*
Y205249D01*
X1188463D01*
Y204724D01*
X1188988D01*
X1188463Y204200D01*
X1187938Y203675D01*
X1191086Y207348D02*
X1191611Y207873D01*
X1192661D01*
X1193186Y207348D01*
Y206823D01*
X1192661Y206299D01*
X1192136D01*
X1192661D01*
X1193186Y205774D01*
Y205249D01*
X1192661Y204724D01*
X1191611D01*
X1191086Y205249D01*
X1194235Y207348D02*
X1194760Y207873D01*
X1195809D01*
X1196334Y207348D01*
Y205249D01*
X1195809Y204724D01*
X1194760D01*
X1194235Y205249D01*
Y207348D01*
X1197384D02*
X1197908Y207873D01*
X1198958D01*
X1199483Y207348D01*
Y205249D01*
X1198958Y204724D01*
X1197908D01*
X1197384Y205249D01*
Y207348D01*
X1200532Y204724D02*
Y206823D01*
X1201057D01*
X1201582Y206299D01*
Y204724D01*
Y206299D01*
X1202107Y206823D01*
X1202631Y206299D01*
Y204724D01*
X1203681D02*
Y206823D01*
X1204206D01*
X1204730Y206299D01*
Y204724D01*
Y206299D01*
X1205255Y206823D01*
X1205780Y206299D01*
Y204724D01*
X1211028D02*
X1209978Y205774D01*
Y206823D01*
X1211028Y207873D01*
X1214701D02*
X1212602D01*
Y206299D01*
X1213651Y206823D01*
X1214176D01*
X1214701Y206299D01*
Y205249D01*
X1214176Y204724D01*
X1213127D01*
X1212602Y205249D01*
X1215751Y204724D02*
X1216800D01*
X1216275D01*
Y207873D01*
X1215751Y207348D01*
X1218899Y204200D02*
X1219424Y204724D01*
Y205249D01*
X1218899D01*
Y204724D01*
X1219424D01*
X1218899Y204200D01*
X1218374Y203675D01*
X1221523Y204724D02*
X1222572D01*
X1222048D01*
Y207873D01*
X1221523Y207348D01*
X1224147D02*
X1224671Y207873D01*
X1225721D01*
X1226246Y207348D01*
Y206823D01*
X1225721Y206299D01*
X1226246Y205774D01*
Y205249D01*
X1225721Y204724D01*
X1224671D01*
X1224147Y205249D01*
Y205774D01*
X1224671Y206299D01*
X1224147Y206823D01*
Y207348D01*
X1224671Y206299D02*
X1225721D01*
X1227295Y204724D02*
Y206823D01*
X1227820D01*
X1228345Y206299D01*
Y204724D01*
Y206299D01*
X1228870Y206823D01*
X1229394Y206299D01*
Y204724D01*
X1230444D02*
X1231493D01*
X1230969D01*
Y206823D01*
X1230444D01*
X1233068Y204724D02*
X1234117D01*
X1233593D01*
Y207873D01*
X1233068D01*
X1235692Y204724D02*
X1236741Y205774D01*
Y206823D01*
X1235692Y207873D01*
X1185314Y198425D02*
X1187413D01*
X1185314Y190551D02*
X1187413D01*
X1185314Y181102D02*
X1186364D01*
X1185839D01*
Y184251D01*
X1185314Y183726D01*
X1188463Y180578D02*
X1188988Y181102D01*
Y181627D01*
X1188463D01*
Y181102D01*
X1188988D01*
X1188463Y180578D01*
X1187938Y180053D01*
X1191086Y184251D02*
X1193186D01*
Y183726D01*
X1191086Y181627D01*
Y181102D01*
X1194235Y183726D02*
X1194760Y184251D01*
X1195809D01*
X1196334Y183726D01*
Y181627D01*
X1195809Y181102D01*
X1194760D01*
X1194235Y181627D01*
Y183726D01*
X1197384D02*
X1197908Y184251D01*
X1198958D01*
X1199483Y183726D01*
Y181627D01*
X1198958Y181102D01*
X1197908D01*
X1197384Y181627D01*
Y183726D01*
X1200532Y181102D02*
Y183201D01*
X1201057D01*
X1201582Y182677D01*
Y181102D01*
Y182677D01*
X1202107Y183201D01*
X1202631Y182677D01*
Y181102D01*
X1203681D02*
Y183201D01*
X1204206D01*
X1204730Y182677D01*
Y181102D01*
Y182677D01*
X1205255Y183201D01*
X1205780Y182677D01*
Y181102D01*
X1211028D02*
X1209978Y182152D01*
Y183201D01*
X1211028Y184251D01*
X1214701D02*
X1213651Y183726D01*
X1212602Y182677D01*
Y181627D01*
X1213127Y181102D01*
X1214176D01*
X1214701Y181627D01*
Y182152D01*
X1214176Y182677D01*
X1212602D01*
X1217850Y184251D02*
X1216800Y183726D01*
X1215751Y182677D01*
Y181627D01*
X1216275Y181102D01*
X1217325D01*
X1217850Y181627D01*
Y182152D01*
X1217325Y182677D01*
X1215751D01*
X1219424Y180578D02*
X1219949Y181102D01*
Y181627D01*
X1219424D01*
Y181102D01*
X1219949D01*
X1219424Y180578D01*
X1218899Y180053D01*
X1222048Y181627D02*
X1222572Y181102D01*
X1223622D01*
X1224147Y181627D01*
Y183726D01*
X1223622Y184251D01*
X1222572D01*
X1222048Y183726D01*
Y183201D01*
X1222572Y182677D01*
X1224147D01*
X1225196Y183726D02*
X1225721Y184251D01*
X1226771D01*
X1227295Y183726D01*
Y183201D01*
X1226771Y182677D01*
X1226246D01*
X1226771D01*
X1227295Y182152D01*
Y181627D01*
X1226771Y181102D01*
X1225721D01*
X1225196Y181627D01*
X1228345Y181102D02*
Y183201D01*
X1228870D01*
X1229394Y182677D01*
Y181102D01*
Y182677D01*
X1229919Y183201D01*
X1230444Y182677D01*
Y181102D01*
X1231493D02*
X1232543D01*
X1232018D01*
Y183201D01*
X1231493D01*
X1234117Y181102D02*
X1235167D01*
X1234642D01*
Y184251D01*
X1234117D01*
X1236741Y181102D02*
X1237791Y182152D01*
Y183201D01*
X1236741Y184251D01*
X1185314Y174803D02*
X1187413D01*
X1185314Y166929D02*
X1187413D01*
X1185314Y159055D02*
X1187413D01*
X1185314Y151181D02*
X1187413D01*
X1185314Y143307D02*
X1187413D01*
X1185314Y135433D02*
X1187413D01*
X1123783Y204724D02*
X1124833D01*
X1124308D01*
Y207873D01*
X1123783Y207348D01*
X1126932Y204200D02*
X1127457Y204724D01*
Y205249D01*
X1126932D01*
Y204724D01*
X1127457D01*
X1126932Y204200D01*
X1126407Y203675D01*
X1129556Y207348D02*
X1130081Y207873D01*
X1131130D01*
X1131655Y207348D01*
Y206823D01*
X1131130Y206299D01*
X1131655Y205774D01*
Y205249D01*
X1131130Y204724D01*
X1130081D01*
X1129556Y205249D01*
Y205774D01*
X1130081Y206299D01*
X1129556Y206823D01*
Y207348D01*
X1130081Y206299D02*
X1131130D01*
X1132705Y207348D02*
X1133229Y207873D01*
X1134279D01*
X1134804Y207348D01*
Y205249D01*
X1134279Y204724D01*
X1133229D01*
X1132705Y205249D01*
Y207348D01*
X1135853D02*
X1136378Y207873D01*
X1137427D01*
X1137952Y207348D01*
Y205249D01*
X1137427Y204724D01*
X1136378D01*
X1135853Y205249D01*
Y207348D01*
X1139002Y204724D02*
Y206823D01*
X1139526D01*
X1140051Y206299D01*
Y204724D01*
Y206299D01*
X1140576Y206823D01*
X1141101Y206299D01*
Y204724D01*
X1142150D02*
Y206823D01*
X1142675D01*
X1143200Y206299D01*
Y204724D01*
Y206299D01*
X1143725Y206823D01*
X1144249Y206299D01*
Y204724D01*
X1149497D02*
X1148448Y205774D01*
Y206823D01*
X1149497Y207873D01*
X1151071D02*
X1153170D01*
Y207348D01*
X1151071Y205249D01*
Y204724D01*
X1154220Y207348D02*
X1154745Y207873D01*
X1155794D01*
X1156319Y207348D01*
Y205249D01*
X1155794Y204724D01*
X1154745D01*
X1154220Y205249D01*
Y207348D01*
X1157893Y204200D02*
X1158418Y204724D01*
Y205249D01*
X1157893D01*
Y204724D01*
X1158418D01*
X1157893Y204200D01*
X1157368Y203675D01*
X1160517Y207348D02*
X1161042Y207873D01*
X1162091D01*
X1162616Y207348D01*
Y206823D01*
X1162091Y206299D01*
X1162616Y205774D01*
Y205249D01*
X1162091Y204724D01*
X1161042D01*
X1160517Y205249D01*
Y205774D01*
X1161042Y206299D01*
X1160517Y206823D01*
Y207348D01*
X1161042Y206299D02*
X1162091D01*
X1163666Y207873D02*
X1165765D01*
Y207348D01*
X1163666Y205249D01*
Y204724D01*
X1166814D02*
Y206823D01*
X1167339D01*
X1167864Y206299D01*
Y204724D01*
Y206299D01*
X1168389Y206823D01*
X1168913Y206299D01*
Y204724D01*
X1169963D02*
X1171012D01*
X1170488D01*
Y206823D01*
X1169963D01*
X1172587Y204724D02*
X1173636D01*
X1173111D01*
Y207873D01*
X1172587D01*
X1175210Y204724D02*
X1176260Y205774D01*
Y206823D01*
X1175210Y207873D01*
X1123783Y198425D02*
X1125883D01*
X1123783Y190551D02*
X1125883D01*
X1123783Y183726D02*
X1124308Y184251D01*
X1125358D01*
X1125883Y183726D01*
Y183201D01*
X1125358Y182677D01*
X1124833D01*
X1125358D01*
X1125883Y182152D01*
Y181627D01*
X1125358Y181102D01*
X1124308D01*
X1123783Y181627D01*
X1127457Y180578D02*
X1127982Y181102D01*
Y181627D01*
X1127457D01*
Y181102D01*
X1127982D01*
X1127457Y180578D01*
X1126932Y180053D01*
X1132180Y184251D02*
X1130081D01*
Y182677D01*
X1131130Y183201D01*
X1131655D01*
X1132180Y182677D01*
Y181627D01*
X1131655Y181102D01*
X1130606D01*
X1130081Y181627D01*
X1133229Y183726D02*
X1133754Y184251D01*
X1134804D01*
X1135328Y183726D01*
Y181627D01*
X1134804Y181102D01*
X1133754D01*
X1133229Y181627D01*
Y183726D01*
X1136378D02*
X1136903Y184251D01*
X1137952D01*
X1138477Y183726D01*
Y181627D01*
X1137952Y181102D01*
X1136903D01*
X1136378Y181627D01*
Y183726D01*
X1139526Y181102D02*
Y183201D01*
X1140051D01*
X1140576Y182677D01*
Y181102D01*
Y182677D01*
X1141101Y183201D01*
X1141625Y182677D01*
Y181102D01*
X1142675D02*
Y183201D01*
X1143200D01*
X1143725Y182677D01*
Y181102D01*
Y182677D01*
X1144249Y183201D01*
X1144774Y182677D01*
Y181102D01*
X1150022D02*
X1148972Y182152D01*
Y183201D01*
X1150022Y184251D01*
X1151596Y181102D02*
X1152646D01*
X1152121D01*
Y184251D01*
X1151596Y183726D01*
X1154220D02*
X1154745Y184251D01*
X1155794D01*
X1156319Y183726D01*
Y183201D01*
X1155794Y182677D01*
X1155269D01*
X1155794D01*
X1156319Y182152D01*
Y181627D01*
X1155794Y181102D01*
X1154745D01*
X1154220Y181627D01*
X1157368Y184251D02*
X1159468D01*
Y183726D01*
X1157368Y181627D01*
Y181102D01*
X1161042Y180578D02*
X1161567Y181102D01*
Y181627D01*
X1161042D01*
Y181102D01*
X1161567D01*
X1161042Y180578D01*
X1160517Y180053D01*
X1163666Y184251D02*
X1165765D01*
Y183726D01*
X1163666Y181627D01*
Y181102D01*
X1166814Y181627D02*
X1167339Y181102D01*
X1168389D01*
X1168913Y181627D01*
Y183726D01*
X1168389Y184251D01*
X1167339D01*
X1166814Y183726D01*
Y183201D01*
X1167339Y182677D01*
X1168913D01*
X1169963Y181102D02*
Y183201D01*
X1170488D01*
X1171012Y182677D01*
Y181102D01*
Y182677D01*
X1171537Y183201D01*
X1172062Y182677D01*
Y181102D01*
X1173111D02*
X1174161D01*
X1173636D01*
Y183201D01*
X1173111D01*
X1175735Y181102D02*
X1176785D01*
X1176260D01*
Y184251D01*
X1175735D01*
X1178359Y181102D02*
X1179409Y182152D01*
Y183201D01*
X1178359Y184251D01*
X1123783Y174803D02*
X1125883D01*
X1123783Y166929D02*
X1125883D01*
X1123783Y159055D02*
X1125883D01*
X1123783Y151181D02*
X1125883D01*
X1123783Y143307D02*
X1125883D01*
X1123783Y135433D02*
X1125883D01*
X1063827Y206823D02*
Y204724D01*
Y205774D01*
X1064352Y206299D01*
X1064877Y206823D01*
X1065401D01*
X1066976Y204724D02*
X1068025D01*
X1067501D01*
Y207873D01*
X1066976Y207348D01*
X1069600Y204724D02*
X1070649D01*
X1070124D01*
Y207873D01*
X1069600Y207348D01*
X1072223D02*
X1072748Y207873D01*
X1073798D01*
X1074323Y207348D01*
Y205249D01*
X1073798Y204724D01*
X1072748D01*
X1072223Y205249D01*
Y207348D01*
X1075372Y204200D02*
X1077471D01*
X1080620Y207873D02*
X1078521D01*
Y206299D01*
X1079570Y206823D01*
X1080095D01*
X1080620Y206299D01*
Y205249D01*
X1080095Y204724D01*
X1079045D01*
X1078521Y205249D01*
X1083768Y207873D02*
X1081669D01*
Y206299D01*
X1082719Y206823D01*
X1083243D01*
X1083768Y206299D01*
Y205249D01*
X1083243Y204724D01*
X1082194D01*
X1081669Y205249D01*
X1084818Y207348D02*
X1085343Y207873D01*
X1086392D01*
X1086917Y207348D01*
Y205249D01*
X1086392Y204724D01*
X1085343D01*
X1084818Y205249D01*
Y207348D01*
X1087966Y207873D02*
Y204724D01*
Y206299D01*
X1088491Y206823D01*
X1089541D01*
X1090065Y206299D01*
Y204724D01*
X1093214Y207873D02*
X1091115D01*
Y206299D01*
X1092165Y206823D01*
X1092689D01*
X1093214Y206299D01*
Y205249D01*
X1092689Y204724D01*
X1091640D01*
X1091115Y205249D01*
X1094264Y207348D02*
X1094788Y207873D01*
X1095838D01*
X1096363Y207348D01*
Y205249D01*
X1095838Y204724D01*
X1094788D01*
X1094264Y205249D01*
Y207348D01*
X1097412Y204200D02*
X1099511D01*
X1100561Y204724D02*
X1101610D01*
X1101085D01*
Y207873D01*
X1100561Y207348D01*
X1103185D02*
X1103709Y207873D01*
X1104759D01*
X1105284Y207348D01*
Y206823D01*
X1104759Y206299D01*
X1105284Y205774D01*
Y205249D01*
X1104759Y204724D01*
X1103709D01*
X1103185Y205249D01*
Y205774D01*
X1103709Y206299D01*
X1103185Y206823D01*
Y207348D01*
X1103709Y206299D02*
X1104759D01*
X1106333Y207348D02*
X1106858Y207873D01*
X1107907D01*
X1108432Y207348D01*
Y205249D01*
X1107907Y204724D01*
X1106858D01*
X1106333Y205249D01*
Y207348D01*
X1109482Y206823D02*
Y204724D01*
Y205774D01*
X1110007Y206299D01*
X1110531Y206823D01*
X1111056D01*
X1114729Y207873D02*
X1112630D01*
Y206299D01*
X1113680Y206823D01*
X1114205D01*
X1114729Y206299D01*
Y205249D01*
X1114205Y204724D01*
X1113155D01*
X1112630Y205249D01*
X1115779Y207348D02*
X1116304Y207873D01*
X1117353D01*
X1117878Y207348D01*
Y205249D01*
X1117353Y204724D01*
X1116304D01*
X1115779Y205249D01*
Y207348D01*
X1065926Y198949D02*
X1064352D01*
X1063827Y198425D01*
Y197375D01*
X1064352Y196850D01*
X1065926D01*
X1066976Y199474D02*
X1067501Y199999D01*
X1068550D01*
X1069075Y199474D01*
Y197375D01*
X1068550Y196850D01*
X1067501D01*
X1066976Y197375D01*
Y199474D01*
X1070124Y199999D02*
Y196850D01*
Y198425D01*
X1070649Y198949D01*
X1071699D01*
X1072223Y198425D01*
Y196850D01*
X1073273D02*
Y198949D01*
X1074847D01*
X1075372Y198425D01*
Y196850D01*
X1076422D02*
X1077471D01*
X1076946D01*
Y199999D01*
X1076422Y199474D01*
X1079045D02*
X1079570Y199999D01*
X1080620D01*
X1081145Y199474D01*
Y197375D01*
X1080620Y196850D01*
X1079570D01*
X1079045Y197375D01*
Y199474D01*
X1082194D02*
X1082719Y199999D01*
X1083768D01*
X1084293Y199474D01*
Y197375D01*
X1083768Y196850D01*
X1082719D01*
X1082194Y197375D01*
Y199474D01*
X1065926Y191075D02*
X1064352D01*
X1063827Y190551D01*
Y189501D01*
X1064352Y188976D01*
X1065926D01*
X1066976D02*
X1068025D01*
X1067501D01*
Y192125D01*
X1066976Y191600D01*
X1071699Y192125D02*
X1070649Y191600D01*
X1069600Y190551D01*
Y189501D01*
X1070124Y188976D01*
X1071174D01*
X1071699Y189501D01*
Y190026D01*
X1071174Y190551D01*
X1069600D01*
X1072748Y191600D02*
X1073273Y192125D01*
X1074323D01*
X1074847Y191600D01*
Y189501D01*
X1074323Y188976D01*
X1073273D01*
X1072748Y189501D01*
Y191600D01*
X1075897Y192125D02*
Y188976D01*
Y190551D01*
X1076422Y191075D01*
X1077471D01*
X1077996Y190551D01*
Y188976D01*
X1079045D02*
Y191075D01*
X1080620D01*
X1081145Y190551D01*
Y188976D01*
X1082194D02*
X1083243D01*
X1082719D01*
Y192125D01*
X1082194Y191600D01*
X1086917Y192125D02*
X1085867Y191600D01*
X1084818Y190551D01*
Y189501D01*
X1085343Y188976D01*
X1086392D01*
X1086917Y189501D01*
Y190026D01*
X1086392Y190551D01*
X1084818D01*
X1087966Y191600D02*
X1088491Y192125D01*
X1089541D01*
X1090065Y191600D01*
Y189501D01*
X1089541Y188976D01*
X1088491D01*
X1087966Y189501D01*
Y191600D01*
X1064877Y181102D02*
X1063827Y182152D01*
Y183201D01*
X1064877Y184251D01*
X1066451Y181102D02*
Y184251D01*
X1067501Y183201D01*
X1068550Y184251D01*
Y181102D01*
X1069600D02*
X1070649D01*
X1070124D01*
Y183201D01*
X1069600D01*
X1072223D02*
X1074323Y181102D01*
X1073273Y182152D01*
X1074323Y183201D01*
X1072223Y181102D01*
X1076946D02*
X1075897D01*
X1075372Y181627D01*
Y182677D01*
X1075897Y183201D01*
X1076946D01*
X1077471Y182677D01*
Y182152D01*
X1075372D01*
X1080620Y184251D02*
Y181102D01*
X1079045D01*
X1078521Y181627D01*
Y182677D01*
X1079045Y183201D01*
X1080620D01*
X1081669Y181102D02*
X1082719Y182152D01*
Y183201D01*
X1081669Y184251D01*
X1064877Y173228D02*
X1063827Y174278D01*
Y175327D01*
X1064877Y176377D01*
X1066451Y173228D02*
Y176377D01*
X1067501Y175327D01*
X1068550Y176377D01*
Y173228D01*
X1069600D02*
X1070649D01*
X1070124D01*
Y175327D01*
X1069600D01*
X1072223D02*
X1074323Y173228D01*
X1073273Y174278D01*
X1074323Y175327D01*
X1072223Y173228D01*
X1076946D02*
X1075897D01*
X1075372Y173753D01*
Y174803D01*
X1075897Y175327D01*
X1076946D01*
X1077471Y174803D01*
Y174278D01*
X1075372D01*
X1080620Y176377D02*
Y173228D01*
X1079045D01*
X1078521Y173753D01*
Y174803D01*
X1079045Y175327D01*
X1080620D01*
X1081669Y173228D02*
X1082719Y174278D01*
Y175327D01*
X1081669Y176377D01*
X1065926Y167453D02*
X1064352D01*
X1063827Y166929D01*
Y165879D01*
X1064352Y165354D01*
X1065926D01*
X1066976Y167978D02*
X1067501Y168503D01*
X1068550D01*
X1069075Y167978D01*
Y167453D01*
X1068550Y166929D01*
X1068025D01*
X1068550D01*
X1069075Y166404D01*
Y165879D01*
X1068550Y165354D01*
X1067501D01*
X1066976Y165879D01*
X1072223Y165354D02*
X1070124D01*
X1072223Y167453D01*
Y167978D01*
X1071699Y168503D01*
X1070649D01*
X1070124Y167978D01*
X1073273D02*
X1073798Y168503D01*
X1074847D01*
X1075372Y167978D01*
Y165879D01*
X1074847Y165354D01*
X1073798D01*
X1073273Y165879D01*
Y167978D01*
X1076422Y168503D02*
Y165354D01*
Y166929D01*
X1076946Y167453D01*
X1077996D01*
X1078521Y166929D01*
Y165354D01*
X1079570D02*
Y167453D01*
X1081145D01*
X1081669Y166929D01*
Y165354D01*
X1082719Y167978D02*
X1083243Y168503D01*
X1084293D01*
X1084818Y167978D01*
Y167453D01*
X1084293Y166929D01*
X1083768D01*
X1084293D01*
X1084818Y166404D01*
Y165879D01*
X1084293Y165354D01*
X1083243D01*
X1082719Y165879D01*
X1087966Y165354D02*
X1085867D01*
X1087966Y167453D01*
Y167978D01*
X1087442Y168503D01*
X1086392D01*
X1085867Y167978D01*
X1089016D02*
X1089541Y168503D01*
X1090590D01*
X1091115Y167978D01*
Y165879D01*
X1090590Y165354D01*
X1089541D01*
X1089016Y165879D01*
Y167978D01*
X1092165Y165354D02*
Y167453D01*
X1092689D01*
X1093214Y166929D01*
Y165354D01*
Y166929D01*
X1093739Y167453D01*
X1094264Y166929D01*
Y165354D01*
X1096887D02*
Y168503D01*
X1095313Y166929D01*
X1097412D01*
X1100561Y165354D02*
X1098462D01*
X1100561Y167453D01*
Y167978D01*
X1100036Y168503D01*
X1098987D01*
X1098462Y167978D01*
X1101610D02*
X1102135Y168503D01*
X1103185D01*
X1103709Y167978D01*
Y165879D01*
X1103185Y165354D01*
X1102135D01*
X1101610Y165879D01*
Y167978D01*
X1064877Y157480D02*
X1063827Y158530D01*
Y159579D01*
X1064877Y160629D01*
X1066451Y157480D02*
Y160629D01*
X1067501Y159579D01*
X1068550Y160629D01*
Y157480D01*
X1069600D02*
X1070649D01*
X1070124D01*
Y159579D01*
X1069600D01*
X1072223D02*
X1074323Y157480D01*
X1073273Y158530D01*
X1074323Y159579D01*
X1072223Y157480D01*
X1076946D02*
X1075897D01*
X1075372Y158005D01*
Y159055D01*
X1075897Y159579D01*
X1076946D01*
X1077471Y159055D01*
Y158530D01*
X1075372D01*
X1080620Y160629D02*
Y157480D01*
X1079045D01*
X1078521Y158005D01*
Y159055D01*
X1079045Y159579D01*
X1080620D01*
X1081669Y157480D02*
X1082719Y158530D01*
Y159579D01*
X1081669Y160629D01*
X1064877Y149606D02*
X1063827Y150656D01*
Y151705D01*
X1064877Y152755D01*
X1066451Y149606D02*
Y152755D01*
X1067501Y151705D01*
X1068550Y152755D01*
Y149606D01*
X1069600D02*
X1070649D01*
X1070124D01*
Y151705D01*
X1069600D01*
X1072223D02*
X1074323Y149606D01*
X1073273Y150656D01*
X1074323Y151705D01*
X1072223Y149606D01*
X1076946D02*
X1075897D01*
X1075372Y150131D01*
Y151181D01*
X1075897Y151705D01*
X1076946D01*
X1077471Y151181D01*
Y150656D01*
X1075372D01*
X1080620Y152755D02*
Y149606D01*
X1079045D01*
X1078521Y150131D01*
Y151181D01*
X1079045Y151705D01*
X1080620D01*
X1081669Y149606D02*
X1082719Y150656D01*
Y151705D01*
X1081669Y152755D01*
X1064877Y141732D02*
X1063827Y142782D01*
Y143831D01*
X1064877Y144881D01*
X1066451Y141732D02*
Y144881D01*
X1067501Y143831D01*
X1068550Y144881D01*
Y141732D01*
X1069600D02*
X1070649D01*
X1070124D01*
Y143831D01*
X1069600D01*
X1072223D02*
X1074323Y141732D01*
X1073273Y142782D01*
X1074323Y143831D01*
X1072223Y141732D01*
X1076946D02*
X1075897D01*
X1075372Y142257D01*
Y143307D01*
X1075897Y143831D01*
X1076946D01*
X1077471Y143307D01*
Y142782D01*
X1075372D01*
X1080620Y144881D02*
Y141732D01*
X1079045D01*
X1078521Y142257D01*
Y143307D01*
X1079045Y143831D01*
X1080620D01*
X1081669Y141732D02*
X1082719Y142782D01*
Y143831D01*
X1081669Y144881D01*
X1063827Y135957D02*
X1064877Y133858D01*
X1065926Y135957D01*
X1066976Y137007D02*
X1069075D01*
Y136482D01*
X1066976Y134383D01*
Y133858D01*
X1070124Y136482D02*
X1070649Y137007D01*
X1071699D01*
X1072223Y136482D01*
Y134383D01*
X1071699Y133858D01*
X1070649D01*
X1070124Y134383D01*
Y136482D01*
X1073273Y137007D02*
Y133858D01*
Y135433D01*
X1073798Y135957D01*
X1074847D01*
X1075372Y135433D01*
Y133858D01*
X1076422Y136482D02*
X1076946Y137007D01*
X1077996D01*
X1078521Y136482D01*
Y135957D01*
X1077996Y135433D01*
X1077471D01*
X1077996D01*
X1078521Y134908D01*
Y134383D01*
X1077996Y133858D01*
X1076946D01*
X1076422Y134383D01*
X1079570Y136482D02*
X1080095Y137007D01*
X1081145D01*
X1081669Y136482D01*
Y134383D01*
X1081145Y133858D01*
X1080095D01*
X1079570Y134383D01*
Y136482D01*
X1082719Y133858D02*
Y135957D01*
X1083243D01*
X1083768Y135433D01*
Y133858D01*
Y135433D01*
X1084293Y135957D01*
X1084818Y135433D01*
Y133858D01*
X1085867Y136482D02*
X1086392Y137007D01*
X1087442D01*
X1087966Y136482D01*
Y134383D01*
X1087442Y133858D01*
X1086392D01*
X1085867Y134383D01*
Y136482D01*
X1089016Y133858D02*
Y135957D01*
X1089541D01*
X1090065Y135433D01*
Y133858D01*
Y135433D01*
X1090590Y135957D01*
X1091115Y135433D01*
Y133858D01*
X1092165Y135957D02*
X1094264Y133858D01*
X1093214Y134908D01*
X1094264Y135957D01*
X1092165Y133858D01*
X1097412Y137007D02*
X1096363Y136482D01*
X1095313Y135433D01*
Y134383D01*
X1095838Y133858D01*
X1096887D01*
X1097412Y134383D01*
Y134908D01*
X1096887Y135433D01*
X1095313D01*
X1098462Y136482D02*
X1098987Y137007D01*
X1100036D01*
X1100561Y136482D01*
Y134383D01*
X1100036Y133858D01*
X1098987D01*
X1098462Y134383D01*
Y136482D01*
X1006495Y204724D02*
Y207873D01*
X1008069D01*
X1008594Y207348D01*
Y206299D01*
X1008069Y205774D01*
X1006495D01*
X1007544D02*
X1008594Y204724D01*
X1010168D02*
X1011218D01*
X1011742Y205249D01*
Y206299D01*
X1011218Y206823D01*
X1010168D01*
X1009643Y206299D01*
Y205249D01*
X1010168Y204724D01*
X1012792Y206823D02*
Y205249D01*
X1013317Y204724D01*
X1014891D01*
Y206823D01*
X1015940Y204724D02*
Y206823D01*
X1017515D01*
X1018040Y206299D01*
Y204724D01*
X1021188Y207873D02*
Y204724D01*
X1019614D01*
X1019089Y205249D01*
Y206299D01*
X1019614Y206823D01*
X1021188D01*
X1023812Y204724D02*
X1022762D01*
X1022238Y205249D01*
Y206299D01*
X1022762Y206823D01*
X1023812D01*
X1024337Y206299D01*
Y205774D01*
X1022238D01*
X1027485Y207873D02*
Y204724D01*
X1025911D01*
X1025386Y205249D01*
Y206299D01*
X1025911Y206823D01*
X1027485D01*
X1031684Y204724D02*
Y207873D01*
X1033258D01*
X1033782Y207348D01*
Y206299D01*
X1033258Y205774D01*
X1031684D01*
X1032733D02*
X1033782Y204724D01*
X1036406D02*
X1035357D01*
X1034832Y205249D01*
Y206299D01*
X1035357Y206823D01*
X1036406D01*
X1036931Y206299D01*
Y205774D01*
X1034832D01*
X1040080Y206823D02*
X1038505D01*
X1037981Y206299D01*
Y205249D01*
X1038505Y204724D01*
X1040080D01*
X1041654Y207348D02*
Y206823D01*
X1041129D01*
X1042179D01*
X1041654D01*
Y205249D01*
X1042179Y204724D01*
X1044278Y206823D02*
X1045327D01*
X1045852Y206299D01*
Y204724D01*
X1044278D01*
X1043753Y205249D01*
X1044278Y205774D01*
X1045852D01*
X1046902Y204724D02*
Y206823D01*
X1048476D01*
X1049001Y206299D01*
Y204724D01*
X1051100Y203675D02*
X1051625D01*
X1052149Y204200D01*
Y206823D01*
X1050575D01*
X1050050Y206299D01*
Y205249D01*
X1050575Y204724D01*
X1052149D01*
X1053199D02*
X1054248D01*
X1053724D01*
Y207873D01*
X1053199D01*
X1057397Y204724D02*
X1056347D01*
X1055823Y205249D01*
Y206299D01*
X1056347Y206823D01*
X1057397D01*
X1057922Y206299D01*
Y205774D01*
X1055823D01*
X1006495Y196850D02*
Y199999D01*
X1008069D01*
X1008594Y199474D01*
Y198425D01*
X1008069Y197900D01*
X1006495D01*
X1007544D02*
X1008594Y196850D01*
X1010168D02*
X1011218D01*
X1011742Y197375D01*
Y198425D01*
X1011218Y198949D01*
X1010168D01*
X1009643Y198425D01*
Y197375D01*
X1010168Y196850D01*
X1012792Y198949D02*
Y197375D01*
X1013317Y196850D01*
X1014891D01*
Y198949D01*
X1015940Y196850D02*
Y198949D01*
X1017515D01*
X1018040Y198425D01*
Y196850D01*
X1021188Y199999D02*
Y196850D01*
X1019614D01*
X1019089Y197375D01*
Y198425D01*
X1019614Y198949D01*
X1021188D01*
X1023812Y196850D02*
X1022762D01*
X1022238Y197375D01*
Y198425D01*
X1022762Y198949D01*
X1023812D01*
X1024337Y198425D01*
Y197900D01*
X1022238D01*
X1027485Y199999D02*
Y196850D01*
X1025911D01*
X1025386Y197375D01*
Y198425D01*
X1025911Y198949D01*
X1027485D01*
X1006495Y188976D02*
Y192125D01*
X1008069D01*
X1008594Y191600D01*
Y190551D01*
X1008069Y190026D01*
X1006495D01*
X1007544D02*
X1008594Y188976D01*
X1010168D02*
X1011218D01*
X1011742Y189501D01*
Y190551D01*
X1011218Y191075D01*
X1010168D01*
X1009643Y190551D01*
Y189501D01*
X1010168Y188976D01*
X1012792Y191075D02*
Y189501D01*
X1013317Y188976D01*
X1014891D01*
Y191075D01*
X1015940Y188976D02*
Y191075D01*
X1017515D01*
X1018040Y190551D01*
Y188976D01*
X1021188Y192125D02*
Y188976D01*
X1019614D01*
X1019089Y189501D01*
Y190551D01*
X1019614Y191075D01*
X1021188D01*
X1023812Y188976D02*
X1022762D01*
X1022238Y189501D01*
Y190551D01*
X1022762Y191075D01*
X1023812D01*
X1024337Y190551D01*
Y190026D01*
X1022238D01*
X1027485Y192125D02*
Y188976D01*
X1025911D01*
X1025386Y189501D01*
Y190551D01*
X1025911Y191075D01*
X1027485D01*
X1006495Y181102D02*
Y184251D01*
X1008069D01*
X1008594Y183726D01*
Y182677D01*
X1008069Y182152D01*
X1006495D01*
X1007544D02*
X1008594Y181102D01*
X1010168D02*
X1011218D01*
X1011742Y181627D01*
Y182677D01*
X1011218Y183201D01*
X1010168D01*
X1009643Y182677D01*
Y181627D01*
X1010168Y181102D01*
X1012792Y183201D02*
Y181627D01*
X1013317Y181102D01*
X1014891D01*
Y183201D01*
X1015940Y181102D02*
Y183201D01*
X1017515D01*
X1018040Y182677D01*
Y181102D01*
X1021188Y184251D02*
Y181102D01*
X1019614D01*
X1019089Y181627D01*
Y182677D01*
X1019614Y183201D01*
X1021188D01*
X1023812Y181102D02*
X1022762D01*
X1022238Y181627D01*
Y182677D01*
X1022762Y183201D01*
X1023812D01*
X1024337Y182677D01*
Y182152D01*
X1022238D01*
X1027485Y184251D02*
Y181102D01*
X1025911D01*
X1025386Y181627D01*
Y182677D01*
X1025911Y183201D01*
X1027485D01*
X1031684Y181102D02*
Y184251D01*
X1033258D01*
X1033782Y183726D01*
Y182677D01*
X1033258Y182152D01*
X1031684D01*
X1032733D02*
X1033782Y181102D01*
X1036406D02*
X1035357D01*
X1034832Y181627D01*
Y182677D01*
X1035357Y183201D01*
X1036406D01*
X1036931Y182677D01*
Y182152D01*
X1034832D01*
X1040080Y183201D02*
X1038505D01*
X1037981Y182677D01*
Y181627D01*
X1038505Y181102D01*
X1040080D01*
X1041654Y183726D02*
Y183201D01*
X1041129D01*
X1042179D01*
X1041654D01*
Y181627D01*
X1042179Y181102D01*
X1044278Y183201D02*
X1045327D01*
X1045852Y182677D01*
Y181102D01*
X1044278D01*
X1043753Y181627D01*
X1044278Y182152D01*
X1045852D01*
X1046902Y181102D02*
Y183201D01*
X1048476D01*
X1049001Y182677D01*
Y181102D01*
X1051100Y180053D02*
X1051625D01*
X1052149Y180578D01*
Y183201D01*
X1050575D01*
X1050050Y182677D01*
Y181627D01*
X1050575Y181102D01*
X1052149D01*
X1053199D02*
X1054248D01*
X1053724D01*
Y184251D01*
X1053199D01*
X1057397Y181102D02*
X1056347D01*
X1055823Y181627D01*
Y182677D01*
X1056347Y183201D01*
X1057397D01*
X1057922Y182677D01*
Y182152D01*
X1055823D01*
X1007544Y173228D02*
X1006495Y174278D01*
Y175327D01*
X1007544Y176377D01*
X1009119Y173228D02*
Y176377D01*
X1010168Y175327D01*
X1011218Y176377D01*
Y173228D01*
X1012267D02*
X1013317D01*
X1012792D01*
Y175327D01*
X1012267D01*
X1014891D02*
X1016990Y173228D01*
X1015940Y174278D01*
X1016990Y175327D01*
X1014891Y173228D01*
X1019614D02*
X1018564D01*
X1018040Y173753D01*
Y174803D01*
X1018564Y175327D01*
X1019614D01*
X1020139Y174803D01*
Y174278D01*
X1018040D01*
X1023287Y176377D02*
Y173228D01*
X1021713D01*
X1021188Y173753D01*
Y174803D01*
X1021713Y175327D01*
X1023287D01*
X1024337Y173228D02*
X1025386Y174278D01*
Y175327D01*
X1024337Y176377D01*
X1006495Y165354D02*
Y168503D01*
X1008069D01*
X1008594Y167978D01*
Y166929D01*
X1008069Y166404D01*
X1006495D01*
X1007544D02*
X1008594Y165354D01*
X1010168D02*
X1011218D01*
X1011742Y165879D01*
Y166929D01*
X1011218Y167453D01*
X1010168D01*
X1009643Y166929D01*
Y165879D01*
X1010168Y165354D01*
X1012792Y167453D02*
Y165879D01*
X1013317Y165354D01*
X1014891D01*
Y167453D01*
X1015940Y165354D02*
Y167453D01*
X1017515D01*
X1018040Y166929D01*
Y165354D01*
X1021188Y168503D02*
Y165354D01*
X1019614D01*
X1019089Y165879D01*
Y166929D01*
X1019614Y167453D01*
X1021188D01*
X1023812Y165354D02*
X1022762D01*
X1022238Y165879D01*
Y166929D01*
X1022762Y167453D01*
X1023812D01*
X1024337Y166929D01*
Y166404D01*
X1022238D01*
X1027485Y168503D02*
Y165354D01*
X1025911D01*
X1025386Y165879D01*
Y166929D01*
X1025911Y167453D01*
X1027485D01*
X1007544Y157480D02*
X1006495Y158530D01*
Y159579D01*
X1007544Y160629D01*
X1009119Y157480D02*
Y160629D01*
X1010168Y159579D01*
X1011218Y160629D01*
Y157480D01*
X1012267D02*
X1013317D01*
X1012792D01*
Y159579D01*
X1012267D01*
X1014891D02*
X1016990Y157480D01*
X1015940Y158530D01*
X1016990Y159579D01*
X1014891Y157480D01*
X1019614D02*
X1018564D01*
X1018040Y158005D01*
Y159055D01*
X1018564Y159579D01*
X1019614D01*
X1020139Y159055D01*
Y158530D01*
X1018040D01*
X1023287Y160629D02*
Y157480D01*
X1021713D01*
X1021188Y158005D01*
Y159055D01*
X1021713Y159579D01*
X1023287D01*
X1024337Y157480D02*
X1025386Y158530D01*
Y159579D01*
X1024337Y160629D01*
X1007544Y149606D02*
X1006495Y150656D01*
Y151705D01*
X1007544Y152755D01*
X1009119Y149606D02*
Y152755D01*
X1010168Y151705D01*
X1011218Y152755D01*
Y149606D01*
X1012267D02*
X1013317D01*
X1012792D01*
Y151705D01*
X1012267D01*
X1014891D02*
X1016990Y149606D01*
X1015940Y150656D01*
X1016990Y151705D01*
X1014891Y149606D01*
X1019614D02*
X1018564D01*
X1018040Y150131D01*
Y151181D01*
X1018564Y151705D01*
X1019614D01*
X1020139Y151181D01*
Y150656D01*
X1018040D01*
X1023287Y152755D02*
Y149606D01*
X1021713D01*
X1021188Y150131D01*
Y151181D01*
X1021713Y151705D01*
X1023287D01*
X1024337Y149606D02*
X1025386Y150656D01*
Y151705D01*
X1024337Y152755D01*
X1006495Y141732D02*
Y144881D01*
X1008069D01*
X1008594Y144356D01*
Y143307D01*
X1008069Y142782D01*
X1006495D01*
X1007544D02*
X1008594Y141732D01*
X1010168D02*
X1011218D01*
X1011742Y142257D01*
Y143307D01*
X1011218Y143831D01*
X1010168D01*
X1009643Y143307D01*
Y142257D01*
X1010168Y141732D01*
X1012792Y143831D02*
Y142257D01*
X1013317Y141732D01*
X1014891D01*
Y143831D01*
X1015940Y141732D02*
Y143831D01*
X1017515D01*
X1018040Y143307D01*
Y141732D01*
X1021188Y144881D02*
Y141732D01*
X1019614D01*
X1019089Y142257D01*
Y143307D01*
X1019614Y143831D01*
X1021188D01*
X1023812Y141732D02*
X1022762D01*
X1022238Y142257D01*
Y143307D01*
X1022762Y143831D01*
X1023812D01*
X1024337Y143307D01*
Y142782D01*
X1022238D01*
X1027485Y144881D02*
Y141732D01*
X1025911D01*
X1025386Y142257D01*
Y143307D01*
X1025911Y143831D01*
X1027485D01*
X1006495Y133858D02*
Y137007D01*
X1008069D01*
X1008594Y136482D01*
Y135433D01*
X1008069Y134908D01*
X1006495D01*
X1007544D02*
X1008594Y133858D01*
X1010168D02*
X1011218D01*
X1011742Y134383D01*
Y135433D01*
X1011218Y135957D01*
X1010168D01*
X1009643Y135433D01*
Y134383D01*
X1010168Y133858D01*
X1012792Y135957D02*
Y134383D01*
X1013317Y133858D01*
X1014891D01*
Y135957D01*
X1015940Y133858D02*
Y135957D01*
X1017515D01*
X1018040Y135433D01*
Y133858D01*
X1021188Y137007D02*
Y133858D01*
X1019614D01*
X1019089Y134383D01*
Y135433D01*
X1019614Y135957D01*
X1021188D01*
X1023812Y133858D02*
X1022762D01*
X1022238Y134383D01*
Y135433D01*
X1022762Y135957D01*
X1023812D01*
X1024337Y135433D01*
Y134908D01*
X1022238D01*
X1027485Y137007D02*
Y133858D01*
X1025911D01*
X1025386Y134383D01*
Y135433D01*
X1025911Y135957D01*
X1027485D01*
X975322Y204724D02*
Y207873D01*
X976896D01*
X977421Y207348D01*
Y206299D01*
X976896Y205774D01*
X975322D01*
X978995Y206823D02*
X980044D01*
X980569Y206299D01*
Y204724D01*
X978995D01*
X978470Y205249D01*
X978995Y205774D01*
X980569D01*
X983718Y207873D02*
Y204724D01*
X982143D01*
X981619Y205249D01*
Y206299D01*
X982143Y206823D01*
X983718D01*
X975322Y196850D02*
Y199999D01*
X976896D01*
X977421Y199474D01*
Y198425D01*
X976896Y197900D01*
X975322D01*
X978995Y198949D02*
X980044D01*
X980569Y198425D01*
Y196850D01*
X978995D01*
X978470Y197375D01*
X978995Y197900D01*
X980569D01*
X983718Y199999D02*
Y196850D01*
X982143D01*
X981619Y197375D01*
Y198425D01*
X982143Y198949D01*
X983718D01*
X975322Y188976D02*
Y192125D01*
X976896D01*
X977421Y191600D01*
Y190551D01*
X976896Y190026D01*
X975322D01*
X978995Y191075D02*
X980044D01*
X980569Y190551D01*
Y188976D01*
X978995D01*
X978470Y189501D01*
X978995Y190026D01*
X980569D01*
X983718Y192125D02*
Y188976D01*
X982143D01*
X981619Y189501D01*
Y190551D01*
X982143Y191075D01*
X983718D01*
X975322Y181102D02*
Y184251D01*
X976896D01*
X977421Y183726D01*
Y182677D01*
X976896Y182152D01*
X975322D01*
X978995Y183201D02*
X980044D01*
X980569Y182677D01*
Y181102D01*
X978995D01*
X978470Y181627D01*
X978995Y182152D01*
X980569D01*
X983718Y184251D02*
Y181102D01*
X982143D01*
X981619Y181627D01*
Y182677D01*
X982143Y183201D01*
X983718D01*
X975322Y173228D02*
Y176377D01*
X976896D01*
X977421Y175852D01*
Y174803D01*
X976896Y174278D01*
X975322D01*
X978995Y175327D02*
X980044D01*
X980569Y174803D01*
Y173228D01*
X978995D01*
X978470Y173753D01*
X978995Y174278D01*
X980569D01*
X983718Y176377D02*
Y173228D01*
X982143D01*
X981619Y173753D01*
Y174803D01*
X982143Y175327D01*
X983718D01*
X975322Y165354D02*
Y168503D01*
X976896D01*
X977421Y167978D01*
Y166929D01*
X976896Y166404D01*
X975322D01*
X978995Y167453D02*
X980044D01*
X980569Y166929D01*
Y165354D01*
X978995D01*
X978470Y165879D01*
X978995Y166404D01*
X980569D01*
X983718Y168503D02*
Y165354D01*
X982143D01*
X981619Y165879D01*
Y166929D01*
X982143Y167453D01*
X983718D01*
X975322Y157480D02*
Y160629D01*
X976896D01*
X977421Y160104D01*
Y159055D01*
X976896Y158530D01*
X975322D01*
X978995Y159579D02*
X980044D01*
X980569Y159055D01*
Y157480D01*
X978995D01*
X978470Y158005D01*
X978995Y158530D01*
X980569D01*
X983718Y160629D02*
Y157480D01*
X982143D01*
X981619Y158005D01*
Y159055D01*
X982143Y159579D01*
X983718D01*
X975322Y149606D02*
Y152755D01*
X976896D01*
X977421Y152230D01*
Y151181D01*
X976896Y150656D01*
X975322D01*
X978995Y151705D02*
X980044D01*
X980569Y151181D01*
Y149606D01*
X978995D01*
X978470Y150131D01*
X978995Y150656D01*
X980569D01*
X983718Y152755D02*
Y149606D01*
X982143D01*
X981619Y150131D01*
Y151181D01*
X982143Y151705D01*
X983718D01*
X975322Y141732D02*
Y144881D01*
X976896D01*
X977421Y144356D01*
Y143307D01*
X976896Y142782D01*
X975322D01*
X978995Y143831D02*
X980044D01*
X980569Y143307D01*
Y141732D01*
X978995D01*
X978470Y142257D01*
X978995Y142782D01*
X980569D01*
X983718Y144881D02*
Y141732D01*
X982143D01*
X981619Y142257D01*
Y143307D01*
X982143Y143831D01*
X983718D01*
X975322Y137007D02*
Y134908D01*
X976371Y133858D01*
X977421Y134908D01*
Y137007D01*
X978470Y133858D02*
X979520D01*
X978995D01*
Y135957D01*
X978470D01*
X981619D02*
X982668D01*
X983193Y135433D01*
Y133858D01*
X981619D01*
X981094Y134383D01*
X981619Y134908D01*
X983193D01*
X896474Y207873D02*
X898573D01*
X897523D01*
Y204724D01*
X900147D02*
X901197D01*
X901721Y205249D01*
Y206299D01*
X901197Y206823D01*
X900147D01*
X899622Y206299D01*
Y205249D01*
X900147Y204724D01*
X902771Y203675D02*
Y206823D01*
X904345D01*
X904870Y206299D01*
Y205249D01*
X904345Y204724D01*
X902771D01*
X909068Y207873D02*
Y204724D01*
X911167D01*
X912741Y206823D02*
X913791D01*
X914316Y206299D01*
Y204724D01*
X912741D01*
X912217Y205249D01*
X912741Y205774D01*
X914316D01*
X915365Y206823D02*
Y205249D01*
X915890Y204724D01*
X917464D01*
Y204200D01*
X916940Y203675D01*
X916415D01*
X917464Y204724D02*
Y206823D01*
X920088Y204724D02*
X919039D01*
X918514Y205249D01*
Y206299D01*
X919039Y206823D01*
X920088D01*
X920613Y206299D01*
Y205774D01*
X918514D01*
X921663Y206823D02*
Y204724D01*
Y205774D01*
X922187Y206299D01*
X922712Y206823D01*
X923237D01*
X927960Y206299D02*
X930059D01*
X934257Y207873D02*
Y204724D01*
X935831D01*
X936356Y205249D01*
Y205774D01*
X935831Y206299D01*
X934257D01*
X935831D01*
X936356Y206823D01*
Y207348D01*
X935831Y207873D01*
X934257D01*
X937930Y204724D02*
X938980D01*
X939505Y205249D01*
Y206299D01*
X938980Y206823D01*
X937930D01*
X937405Y206299D01*
Y205249D01*
X937930Y204724D01*
X941079Y207348D02*
Y206823D01*
X940554D01*
X941603D01*
X941079D01*
Y205249D01*
X941603Y204724D01*
X943703Y207348D02*
Y206823D01*
X943178D01*
X944227D01*
X943703D01*
Y205249D01*
X944227Y204724D01*
X946326D02*
X947376D01*
X947901Y205249D01*
Y206299D01*
X947376Y206823D01*
X946326D01*
X945802Y206299D01*
Y205249D01*
X946326Y204724D01*
X948950D02*
Y206823D01*
X949475D01*
X950000Y206299D01*
Y204724D01*
Y206299D01*
X950525Y206823D01*
X951049Y206299D01*
Y204724D01*
X955247Y207873D02*
Y204724D01*
X957347D01*
X958921Y206823D02*
X959970D01*
X960495Y206299D01*
Y204724D01*
X958921D01*
X958396Y205249D01*
X958921Y205774D01*
X960495D01*
X961545Y206823D02*
Y205249D01*
X962069Y204724D01*
X963644D01*
Y204200D01*
X963119Y203675D01*
X962594D01*
X963644Y204724D02*
Y206823D01*
X966267Y204724D02*
X965218D01*
X964693Y205249D01*
Y206299D01*
X965218Y206823D01*
X966267D01*
X966792Y206299D01*
Y205774D01*
X964693D01*
X967842Y206823D02*
Y204724D01*
Y205774D01*
X968367Y206299D01*
X968891Y206823D01*
X969416D01*
X896474Y199999D02*
X898573D01*
X897523D01*
Y196850D01*
X900147D02*
X901197D01*
X901721Y197375D01*
Y198425D01*
X901197Y198949D01*
X900147D01*
X899622Y198425D01*
Y197375D01*
X900147Y196850D01*
X902771Y195801D02*
Y198949D01*
X904345D01*
X904870Y198425D01*
Y197375D01*
X904345Y196850D01*
X902771D01*
X909068Y199999D02*
Y196850D01*
X911167D01*
X912741Y198949D02*
X913791D01*
X914316Y198425D01*
Y196850D01*
X912741D01*
X912217Y197375D01*
X912741Y197900D01*
X914316D01*
X915365Y198949D02*
Y197375D01*
X915890Y196850D01*
X917464D01*
Y196326D01*
X916940Y195801D01*
X916415D01*
X917464Y196850D02*
Y198949D01*
X920088Y196850D02*
X919039D01*
X918514Y197375D01*
Y198425D01*
X919039Y198949D01*
X920088D01*
X920613Y198425D01*
Y197900D01*
X918514D01*
X921663Y198949D02*
Y196850D01*
Y197900D01*
X922187Y198425D01*
X922712Y198949D01*
X923237D01*
X927960Y198425D02*
X930059D01*
X934257Y199999D02*
Y196850D01*
X935831D01*
X936356Y197375D01*
Y197900D01*
X935831Y198425D01*
X934257D01*
X935831D01*
X936356Y198949D01*
Y199474D01*
X935831Y199999D01*
X934257D01*
X937930Y196850D02*
X938980D01*
X939505Y197375D01*
Y198425D01*
X938980Y198949D01*
X937930D01*
X937405Y198425D01*
Y197375D01*
X937930Y196850D01*
X941079Y199474D02*
Y198949D01*
X940554D01*
X941603D01*
X941079D01*
Y197375D01*
X941603Y196850D01*
X943703Y199474D02*
Y198949D01*
X943178D01*
X944227D01*
X943703D01*
Y197375D01*
X944227Y196850D01*
X946326D02*
X947376D01*
X947901Y197375D01*
Y198425D01*
X947376Y198949D01*
X946326D01*
X945802Y198425D01*
Y197375D01*
X946326Y196850D01*
X948950D02*
Y198949D01*
X949475D01*
X950000Y198425D01*
Y196850D01*
Y198425D01*
X950525Y198949D01*
X951049Y198425D01*
Y196850D01*
X955247Y199999D02*
Y196850D01*
X957347D01*
X958921Y198949D02*
X959970D01*
X960495Y198425D01*
Y196850D01*
X958921D01*
X958396Y197375D01*
X958921Y197900D01*
X960495D01*
X961545Y198949D02*
Y197375D01*
X962069Y196850D01*
X963644D01*
Y196326D01*
X963119Y195801D01*
X962594D01*
X963644Y196850D02*
Y198949D01*
X966267Y196850D02*
X965218D01*
X964693Y197375D01*
Y198425D01*
X965218Y198949D01*
X966267D01*
X966792Y198425D01*
Y197900D01*
X964693D01*
X967842Y198949D02*
Y196850D01*
Y197900D01*
X968367Y198425D01*
X968891Y198949D01*
X969416D01*
X896474Y192125D02*
X898573D01*
X897523D01*
Y188976D01*
X900147D02*
X901197D01*
X901721Y189501D01*
Y190551D01*
X901197Y191075D01*
X900147D01*
X899622Y190551D01*
Y189501D01*
X900147Y188976D01*
X902771Y187927D02*
Y191075D01*
X904345D01*
X904870Y190551D01*
Y189501D01*
X904345Y188976D01*
X902771D01*
X909068Y192125D02*
Y188976D01*
X911167D01*
X912741Y191075D02*
X913791D01*
X914316Y190551D01*
Y188976D01*
X912741D01*
X912217Y189501D01*
X912741Y190026D01*
X914316D01*
X915365Y191075D02*
Y189501D01*
X915890Y188976D01*
X917464D01*
Y188452D01*
X916940Y187927D01*
X916415D01*
X917464Y188976D02*
Y191075D01*
X920088Y188976D02*
X919039D01*
X918514Y189501D01*
Y190551D01*
X919039Y191075D01*
X920088D01*
X920613Y190551D01*
Y190026D01*
X918514D01*
X921663Y191075D02*
Y188976D01*
Y190026D01*
X922187Y190551D01*
X922712Y191075D01*
X923237D01*
X927960Y190551D02*
X930059D01*
X934257Y192125D02*
Y188976D01*
X935831D01*
X936356Y189501D01*
Y190026D01*
X935831Y190551D01*
X934257D01*
X935831D01*
X936356Y191075D01*
Y191600D01*
X935831Y192125D01*
X934257D01*
X937930Y188976D02*
X938980D01*
X939505Y189501D01*
Y190551D01*
X938980Y191075D01*
X937930D01*
X937405Y190551D01*
Y189501D01*
X937930Y188976D01*
X941079Y191600D02*
Y191075D01*
X940554D01*
X941603D01*
X941079D01*
Y189501D01*
X941603Y188976D01*
X943703Y191600D02*
Y191075D01*
X943178D01*
X944227D01*
X943703D01*
Y189501D01*
X944227Y188976D01*
X946326D02*
X947376D01*
X947901Y189501D01*
Y190551D01*
X947376Y191075D01*
X946326D01*
X945802Y190551D01*
Y189501D01*
X946326Y188976D01*
X948950D02*
Y191075D01*
X949475D01*
X950000Y190551D01*
Y188976D01*
Y190551D01*
X950525Y191075D01*
X951049Y190551D01*
Y188976D01*
X955247Y192125D02*
Y188976D01*
X957347D01*
X958921Y191075D02*
X959970D01*
X960495Y190551D01*
Y188976D01*
X958921D01*
X958396Y189501D01*
X958921Y190026D01*
X960495D01*
X961545Y191075D02*
Y189501D01*
X962069Y188976D01*
X963644D01*
Y188452D01*
X963119Y187927D01*
X962594D01*
X963644Y188976D02*
Y191075D01*
X966267Y188976D02*
X965218D01*
X964693Y189501D01*
Y190551D01*
X965218Y191075D01*
X966267D01*
X966792Y190551D01*
Y190026D01*
X964693D01*
X967842Y191075D02*
Y188976D01*
Y190026D01*
X968367Y190551D01*
X968891Y191075D01*
X969416D01*
X896474Y184251D02*
X898573D01*
X897523D01*
Y181102D01*
X900147D02*
X901197D01*
X901721Y181627D01*
Y182677D01*
X901197Y183201D01*
X900147D01*
X899622Y182677D01*
Y181627D01*
X900147Y181102D01*
X902771Y180053D02*
Y183201D01*
X904345D01*
X904870Y182677D01*
Y181627D01*
X904345Y181102D01*
X902771D01*
X909068Y184251D02*
Y181102D01*
X911167D01*
X912741Y183201D02*
X913791D01*
X914316Y182677D01*
Y181102D01*
X912741D01*
X912217Y181627D01*
X912741Y182152D01*
X914316D01*
X915365Y183201D02*
Y181627D01*
X915890Y181102D01*
X917464D01*
Y180578D01*
X916940Y180053D01*
X916415D01*
X917464Y181102D02*
Y183201D01*
X920088Y181102D02*
X919039D01*
X918514Y181627D01*
Y182677D01*
X919039Y183201D01*
X920088D01*
X920613Y182677D01*
Y182152D01*
X918514D01*
X921663Y183201D02*
Y181102D01*
Y182152D01*
X922187Y182677D01*
X922712Y183201D01*
X923237D01*
X927960Y182677D02*
X930059D01*
X934257Y184251D02*
Y181102D01*
X935831D01*
X936356Y181627D01*
Y182152D01*
X935831Y182677D01*
X934257D01*
X935831D01*
X936356Y183201D01*
Y183726D01*
X935831Y184251D01*
X934257D01*
X937930Y181102D02*
X938980D01*
X939505Y181627D01*
Y182677D01*
X938980Y183201D01*
X937930D01*
X937405Y182677D01*
Y181627D01*
X937930Y181102D01*
X941079Y183726D02*
Y183201D01*
X940554D01*
X941603D01*
X941079D01*
Y181627D01*
X941603Y181102D01*
X943703Y183726D02*
Y183201D01*
X943178D01*
X944227D01*
X943703D01*
Y181627D01*
X944227Y181102D01*
X946326D02*
X947376D01*
X947901Y181627D01*
Y182677D01*
X947376Y183201D01*
X946326D01*
X945802Y182677D01*
Y181627D01*
X946326Y181102D01*
X948950D02*
Y183201D01*
X949475D01*
X950000Y182677D01*
Y181102D01*
Y182677D01*
X950525Y183201D01*
X951049Y182677D01*
Y181102D01*
X955247Y184251D02*
Y181102D01*
X957347D01*
X958921Y183201D02*
X959970D01*
X960495Y182677D01*
Y181102D01*
X958921D01*
X958396Y181627D01*
X958921Y182152D01*
X960495D01*
X961545Y183201D02*
Y181627D01*
X962069Y181102D01*
X963644D01*
Y180578D01*
X963119Y180053D01*
X962594D01*
X963644Y181102D02*
Y183201D01*
X966267Y181102D02*
X965218D01*
X964693Y181627D01*
Y182677D01*
X965218Y183201D01*
X966267D01*
X966792Y182677D01*
Y182152D01*
X964693D01*
X967842Y183201D02*
Y181102D01*
Y182152D01*
X968367Y182677D01*
X968891Y183201D01*
X969416D01*
X896474Y176377D02*
X898573D01*
X897523D01*
Y173228D01*
X900147D02*
X901197D01*
X901721Y173753D01*
Y174803D01*
X901197Y175327D01*
X900147D01*
X899622Y174803D01*
Y173753D01*
X900147Y173228D01*
X902771Y172179D02*
Y175327D01*
X904345D01*
X904870Y174803D01*
Y173753D01*
X904345Y173228D01*
X902771D01*
X909068Y176377D02*
Y173228D01*
X911167D01*
X912741Y175327D02*
X913791D01*
X914316Y174803D01*
Y173228D01*
X912741D01*
X912217Y173753D01*
X912741Y174278D01*
X914316D01*
X915365Y175327D02*
Y173753D01*
X915890Y173228D01*
X917464D01*
Y172704D01*
X916940Y172179D01*
X916415D01*
X917464Y173228D02*
Y175327D01*
X920088Y173228D02*
X919039D01*
X918514Y173753D01*
Y174803D01*
X919039Y175327D01*
X920088D01*
X920613Y174803D01*
Y174278D01*
X918514D01*
X921663Y175327D02*
Y173228D01*
Y174278D01*
X922187Y174803D01*
X922712Y175327D01*
X923237D01*
X927960Y174803D02*
X930059D01*
X934257Y176377D02*
Y173228D01*
X935831D01*
X936356Y173753D01*
Y174278D01*
X935831Y174803D01*
X934257D01*
X935831D01*
X936356Y175327D01*
Y175852D01*
X935831Y176377D01*
X934257D01*
X937930Y173228D02*
X938980D01*
X939505Y173753D01*
Y174803D01*
X938980Y175327D01*
X937930D01*
X937405Y174803D01*
Y173753D01*
X937930Y173228D01*
X941079Y175852D02*
Y175327D01*
X940554D01*
X941603D01*
X941079D01*
Y173753D01*
X941603Y173228D01*
X943703Y175852D02*
Y175327D01*
X943178D01*
X944227D01*
X943703D01*
Y173753D01*
X944227Y173228D01*
X946326D02*
X947376D01*
X947901Y173753D01*
Y174803D01*
X947376Y175327D01*
X946326D01*
X945802Y174803D01*
Y173753D01*
X946326Y173228D01*
X948950D02*
Y175327D01*
X949475D01*
X950000Y174803D01*
Y173228D01*
Y174803D01*
X950525Y175327D01*
X951049Y174803D01*
Y173228D01*
X955247Y176377D02*
Y173228D01*
X957347D01*
X958921Y175327D02*
X959970D01*
X960495Y174803D01*
Y173228D01*
X958921D01*
X958396Y173753D01*
X958921Y174278D01*
X960495D01*
X961545Y175327D02*
Y173753D01*
X962069Y173228D01*
X963644D01*
Y172704D01*
X963119Y172179D01*
X962594D01*
X963644Y173228D02*
Y175327D01*
X966267Y173228D02*
X965218D01*
X964693Y173753D01*
Y174803D01*
X965218Y175327D01*
X966267D01*
X966792Y174803D01*
Y174278D01*
X964693D01*
X967842Y175327D02*
Y173228D01*
Y174278D01*
X968367Y174803D01*
X968891Y175327D01*
X969416D01*
X896474Y168503D02*
X898573D01*
X897523D01*
Y165354D01*
X900147D02*
X901197D01*
X901721Y165879D01*
Y166929D01*
X901197Y167453D01*
X900147D01*
X899622Y166929D01*
Y165879D01*
X900147Y165354D01*
X902771Y164305D02*
Y167453D01*
X904345D01*
X904870Y166929D01*
Y165879D01*
X904345Y165354D01*
X902771D01*
X909068Y168503D02*
Y165354D01*
X911167D01*
X912741Y167453D02*
X913791D01*
X914316Y166929D01*
Y165354D01*
X912741D01*
X912217Y165879D01*
X912741Y166404D01*
X914316D01*
X915365Y167453D02*
Y165879D01*
X915890Y165354D01*
X917464D01*
Y164830D01*
X916940Y164305D01*
X916415D01*
X917464Y165354D02*
Y167453D01*
X920088Y165354D02*
X919039D01*
X918514Y165879D01*
Y166929D01*
X919039Y167453D01*
X920088D01*
X920613Y166929D01*
Y166404D01*
X918514D01*
X921663Y167453D02*
Y165354D01*
Y166404D01*
X922187Y166929D01*
X922712Y167453D01*
X923237D01*
X927960Y166929D02*
X930059D01*
X934257Y168503D02*
Y165354D01*
X935831D01*
X936356Y165879D01*
Y166404D01*
X935831Y166929D01*
X934257D01*
X935831D01*
X936356Y167453D01*
Y167978D01*
X935831Y168503D01*
X934257D01*
X937930Y165354D02*
X938980D01*
X939505Y165879D01*
Y166929D01*
X938980Y167453D01*
X937930D01*
X937405Y166929D01*
Y165879D01*
X937930Y165354D01*
X941079Y167978D02*
Y167453D01*
X940554D01*
X941603D01*
X941079D01*
Y165879D01*
X941603Y165354D01*
X943703Y167978D02*
Y167453D01*
X943178D01*
X944227D01*
X943703D01*
Y165879D01*
X944227Y165354D01*
X946326D02*
X947376D01*
X947901Y165879D01*
Y166929D01*
X947376Y167453D01*
X946326D01*
X945802Y166929D01*
Y165879D01*
X946326Y165354D01*
X948950D02*
Y167453D01*
X949475D01*
X950000Y166929D01*
Y165354D01*
Y166929D01*
X950525Y167453D01*
X951049Y166929D01*
Y165354D01*
X955247Y168503D02*
Y165354D01*
X957347D01*
X958921Y167453D02*
X959970D01*
X960495Y166929D01*
Y165354D01*
X958921D01*
X958396Y165879D01*
X958921Y166404D01*
X960495D01*
X961545Y167453D02*
Y165879D01*
X962069Y165354D01*
X963644D01*
Y164830D01*
X963119Y164305D01*
X962594D01*
X963644Y165354D02*
Y167453D01*
X966267Y165354D02*
X965218D01*
X964693Y165879D01*
Y166929D01*
X965218Y167453D01*
X966267D01*
X966792Y166929D01*
Y166404D01*
X964693D01*
X967842Y167453D02*
Y165354D01*
Y166404D01*
X968367Y166929D01*
X968891Y167453D01*
X969416D01*
X896474Y160629D02*
X898573D01*
X897523D01*
Y157480D01*
X900147D02*
X901197D01*
X901721Y158005D01*
Y159055D01*
X901197Y159579D01*
X900147D01*
X899622Y159055D01*
Y158005D01*
X900147Y157480D01*
X902771Y156431D02*
Y159579D01*
X904345D01*
X904870Y159055D01*
Y158005D01*
X904345Y157480D01*
X902771D01*
X909068Y160629D02*
Y157480D01*
X911167D01*
X912741Y159579D02*
X913791D01*
X914316Y159055D01*
Y157480D01*
X912741D01*
X912217Y158005D01*
X912741Y158530D01*
X914316D01*
X915365Y159579D02*
Y158005D01*
X915890Y157480D01*
X917464D01*
Y156956D01*
X916940Y156431D01*
X916415D01*
X917464Y157480D02*
Y159579D01*
X920088Y157480D02*
X919039D01*
X918514Y158005D01*
Y159055D01*
X919039Y159579D01*
X920088D01*
X920613Y159055D01*
Y158530D01*
X918514D01*
X921663Y159579D02*
Y157480D01*
Y158530D01*
X922187Y159055D01*
X922712Y159579D01*
X923237D01*
X927960Y159055D02*
X930059D01*
X934257Y160629D02*
Y157480D01*
X935831D01*
X936356Y158005D01*
Y158530D01*
X935831Y159055D01*
X934257D01*
X935831D01*
X936356Y159579D01*
Y160104D01*
X935831Y160629D01*
X934257D01*
X937930Y157480D02*
X938980D01*
X939505Y158005D01*
Y159055D01*
X938980Y159579D01*
X937930D01*
X937405Y159055D01*
Y158005D01*
X937930Y157480D01*
X941079Y160104D02*
Y159579D01*
X940554D01*
X941603D01*
X941079D01*
Y158005D01*
X941603Y157480D01*
X943703Y160104D02*
Y159579D01*
X943178D01*
X944227D01*
X943703D01*
Y158005D01*
X944227Y157480D01*
X946326D02*
X947376D01*
X947901Y158005D01*
Y159055D01*
X947376Y159579D01*
X946326D01*
X945802Y159055D01*
Y158005D01*
X946326Y157480D01*
X948950D02*
Y159579D01*
X949475D01*
X950000Y159055D01*
Y157480D01*
Y159055D01*
X950525Y159579D01*
X951049Y159055D01*
Y157480D01*
X955247Y160629D02*
Y157480D01*
X957347D01*
X958921Y159579D02*
X959970D01*
X960495Y159055D01*
Y157480D01*
X958921D01*
X958396Y158005D01*
X958921Y158530D01*
X960495D01*
X961545Y159579D02*
Y158005D01*
X962069Y157480D01*
X963644D01*
Y156956D01*
X963119Y156431D01*
X962594D01*
X963644Y157480D02*
Y159579D01*
X966267Y157480D02*
X965218D01*
X964693Y158005D01*
Y159055D01*
X965218Y159579D01*
X966267D01*
X966792Y159055D01*
Y158530D01*
X964693D01*
X967842Y159579D02*
Y157480D01*
Y158530D01*
X968367Y159055D01*
X968891Y159579D01*
X969416D01*
X896474Y152755D02*
X898573D01*
X897523D01*
Y149606D01*
X900147D02*
X901197D01*
X901721Y150131D01*
Y151181D01*
X901197Y151705D01*
X900147D01*
X899622Y151181D01*
Y150131D01*
X900147Y149606D01*
X902771Y148557D02*
Y151705D01*
X904345D01*
X904870Y151181D01*
Y150131D01*
X904345Y149606D01*
X902771D01*
X909068Y152755D02*
Y149606D01*
X911167D01*
X912741Y151705D02*
X913791D01*
X914316Y151181D01*
Y149606D01*
X912741D01*
X912217Y150131D01*
X912741Y150656D01*
X914316D01*
X915365Y151705D02*
Y150131D01*
X915890Y149606D01*
X917464D01*
Y149082D01*
X916940Y148557D01*
X916415D01*
X917464Y149606D02*
Y151705D01*
X920088Y149606D02*
X919039D01*
X918514Y150131D01*
Y151181D01*
X919039Y151705D01*
X920088D01*
X920613Y151181D01*
Y150656D01*
X918514D01*
X921663Y151705D02*
Y149606D01*
Y150656D01*
X922187Y151181D01*
X922712Y151705D01*
X923237D01*
X927960Y151181D02*
X930059D01*
X934257Y152755D02*
Y149606D01*
X935831D01*
X936356Y150131D01*
Y150656D01*
X935831Y151181D01*
X934257D01*
X935831D01*
X936356Y151705D01*
Y152230D01*
X935831Y152755D01*
X934257D01*
X937930Y149606D02*
X938980D01*
X939505Y150131D01*
Y151181D01*
X938980Y151705D01*
X937930D01*
X937405Y151181D01*
Y150131D01*
X937930Y149606D01*
X941079Y152230D02*
Y151705D01*
X940554D01*
X941603D01*
X941079D01*
Y150131D01*
X941603Y149606D01*
X943703Y152230D02*
Y151705D01*
X943178D01*
X944227D01*
X943703D01*
Y150131D01*
X944227Y149606D01*
X946326D02*
X947376D01*
X947901Y150131D01*
Y151181D01*
X947376Y151705D01*
X946326D01*
X945802Y151181D01*
Y150131D01*
X946326Y149606D01*
X948950D02*
Y151705D01*
X949475D01*
X950000Y151181D01*
Y149606D01*
Y151181D01*
X950525Y151705D01*
X951049Y151181D01*
Y149606D01*
X955247Y152755D02*
Y149606D01*
X957347D01*
X958921Y151705D02*
X959970D01*
X960495Y151181D01*
Y149606D01*
X958921D01*
X958396Y150131D01*
X958921Y150656D01*
X960495D01*
X961545Y151705D02*
Y150131D01*
X962069Y149606D01*
X963644D01*
Y149082D01*
X963119Y148557D01*
X962594D01*
X963644Y149606D02*
Y151705D01*
X966267Y149606D02*
X965218D01*
X964693Y150131D01*
Y151181D01*
X965218Y151705D01*
X966267D01*
X966792Y151181D01*
Y150656D01*
X964693D01*
X967842Y151705D02*
Y149606D01*
Y150656D01*
X968367Y151181D01*
X968891Y151705D01*
X969416D01*
X896474Y144881D02*
X898573D01*
X897523D01*
Y141732D01*
X900147D02*
X901197D01*
X901721Y142257D01*
Y143307D01*
X901197Y143831D01*
X900147D01*
X899622Y143307D01*
Y142257D01*
X900147Y141732D01*
X902771Y140683D02*
Y143831D01*
X904345D01*
X904870Y143307D01*
Y142257D01*
X904345Y141732D01*
X902771D01*
X909068Y144881D02*
Y141732D01*
X911167D01*
X912741Y143831D02*
X913791D01*
X914316Y143307D01*
Y141732D01*
X912741D01*
X912217Y142257D01*
X912741Y142782D01*
X914316D01*
X915365Y143831D02*
Y142257D01*
X915890Y141732D01*
X917464D01*
Y141208D01*
X916940Y140683D01*
X916415D01*
X917464Y141732D02*
Y143831D01*
X920088Y141732D02*
X919039D01*
X918514Y142257D01*
Y143307D01*
X919039Y143831D01*
X920088D01*
X920613Y143307D01*
Y142782D01*
X918514D01*
X921663Y143831D02*
Y141732D01*
Y142782D01*
X922187Y143307D01*
X922712Y143831D01*
X923237D01*
X927960Y143307D02*
X930059D01*
X934257Y144881D02*
Y141732D01*
X935831D01*
X936356Y142257D01*
Y142782D01*
X935831Y143307D01*
X934257D01*
X935831D01*
X936356Y143831D01*
Y144356D01*
X935831Y144881D01*
X934257D01*
X937930Y141732D02*
X938980D01*
X939505Y142257D01*
Y143307D01*
X938980Y143831D01*
X937930D01*
X937405Y143307D01*
Y142257D01*
X937930Y141732D01*
X941079Y144356D02*
Y143831D01*
X940554D01*
X941603D01*
X941079D01*
Y142257D01*
X941603Y141732D01*
X943703Y144356D02*
Y143831D01*
X943178D01*
X944227D01*
X943703D01*
Y142257D01*
X944227Y141732D01*
X946326D02*
X947376D01*
X947901Y142257D01*
Y143307D01*
X947376Y143831D01*
X946326D01*
X945802Y143307D01*
Y142257D01*
X946326Y141732D01*
X948950D02*
Y143831D01*
X949475D01*
X950000Y143307D01*
Y141732D01*
Y143307D01*
X950525Y143831D01*
X951049Y143307D01*
Y141732D01*
X955247Y144881D02*
Y141732D01*
X957347D01*
X958921Y143831D02*
X959970D01*
X960495Y143307D01*
Y141732D01*
X958921D01*
X958396Y142257D01*
X958921Y142782D01*
X960495D01*
X961545Y143831D02*
Y142257D01*
X962069Y141732D01*
X963644D01*
Y141208D01*
X963119Y140683D01*
X962594D01*
X963644Y141732D02*
Y143831D01*
X966267Y141732D02*
X965218D01*
X964693Y142257D01*
Y143307D01*
X965218Y143831D01*
X966267D01*
X966792Y143307D01*
Y142782D01*
X964693D01*
X967842Y143831D02*
Y141732D01*
Y142782D01*
X968367Y143307D01*
X968891Y143831D01*
X969416D01*
X896474Y137007D02*
X898573D01*
X897523D01*
Y133858D01*
X900147D02*
X901197D01*
X901721Y134383D01*
Y135433D01*
X901197Y135957D01*
X900147D01*
X899622Y135433D01*
Y134383D01*
X900147Y133858D01*
X902771Y132809D02*
Y135957D01*
X904345D01*
X904870Y135433D01*
Y134383D01*
X904345Y133858D01*
X902771D01*
X909068Y137007D02*
Y133858D01*
X911167D01*
X912741Y135957D02*
X913791D01*
X914316Y135433D01*
Y133858D01*
X912741D01*
X912217Y134383D01*
X912741Y134908D01*
X914316D01*
X915365Y135957D02*
Y134383D01*
X915890Y133858D01*
X917464D01*
Y133334D01*
X916940Y132809D01*
X916415D01*
X917464Y133858D02*
Y135957D01*
X920088Y133858D02*
X919039D01*
X918514Y134383D01*
Y135433D01*
X919039Y135957D01*
X920088D01*
X920613Y135433D01*
Y134908D01*
X918514D01*
X921663Y135957D02*
Y133858D01*
Y134908D01*
X922187Y135433D01*
X922712Y135957D01*
X923237D01*
X927960Y135433D02*
X930059D01*
X934257Y137007D02*
Y133858D01*
X935831D01*
X936356Y134383D01*
Y134908D01*
X935831Y135433D01*
X934257D01*
X935831D01*
X936356Y135957D01*
Y136482D01*
X935831Y137007D01*
X934257D01*
X937930Y133858D02*
X938980D01*
X939505Y134383D01*
Y135433D01*
X938980Y135957D01*
X937930D01*
X937405Y135433D01*
Y134383D01*
X937930Y133858D01*
X941079Y136482D02*
Y135957D01*
X940554D01*
X941603D01*
X941079D01*
Y134383D01*
X941603Y133858D01*
X943703Y136482D02*
Y135957D01*
X943178D01*
X944227D01*
X943703D01*
Y134383D01*
X944227Y133858D01*
X946326D02*
X947376D01*
X947901Y134383D01*
Y135433D01*
X947376Y135957D01*
X946326D01*
X945802Y135433D01*
Y134383D01*
X946326Y133858D01*
X948950D02*
Y135957D01*
X949475D01*
X950000Y135433D01*
Y133858D01*
Y135433D01*
X950525Y135957D01*
X951049Y135433D01*
Y133858D01*
X955247Y137007D02*
Y133858D01*
X957347D01*
X958921Y135957D02*
X959970D01*
X960495Y135433D01*
Y133858D01*
X958921D01*
X958396Y134383D01*
X958921Y134908D01*
X960495D01*
X961545Y135957D02*
Y134383D01*
X962069Y133858D01*
X963644D01*
Y133334D01*
X963119Y132809D01*
X962594D01*
X963644Y133858D02*
Y135957D01*
X966267Y133858D02*
X965218D01*
X964693Y134383D01*
Y135433D01*
X965218Y135957D01*
X966267D01*
X966792Y135433D01*
Y134908D01*
X964693D01*
X967842Y135957D02*
Y133858D01*
Y134908D01*
X968367Y135433D01*
X968891Y135957D01*
X969416D01*
X859843Y207348D02*
X859318Y207873D01*
X858269D01*
X857744Y207348D01*
Y206823D01*
X858269Y206299D01*
X859318D01*
X859843Y205774D01*
Y205249D01*
X859318Y204724D01*
X858269D01*
X857744Y205249D01*
X860893Y204724D02*
X861942D01*
X861417D01*
Y207873D01*
X860893D01*
X864041Y204724D02*
X865091D01*
X865615Y205249D01*
Y206299D01*
X865091Y206823D01*
X864041D01*
X863516Y206299D01*
Y205249D01*
X864041Y204724D01*
X867190Y207348D02*
Y206823D01*
X866665D01*
X867715D01*
X867190D01*
Y205249D01*
X867715Y204724D01*
X857744Y196850D02*
Y199999D01*
X859318D01*
X859843Y199474D01*
Y198425D01*
X859318Y197900D01*
X857744D01*
X858794D02*
X859843Y196850D01*
X861417D02*
X862467D01*
X862992Y197375D01*
Y198425D01*
X862467Y198949D01*
X861417D01*
X860893Y198425D01*
Y197375D01*
X861417Y196850D01*
X864041Y198949D02*
Y197375D01*
X864566Y196850D01*
X866140D01*
Y198949D01*
X867190Y196850D02*
Y198949D01*
X868764D01*
X869289Y198425D01*
Y196850D01*
X872437Y199999D02*
Y196850D01*
X870863D01*
X870338Y197375D01*
Y198425D01*
X870863Y198949D01*
X872437D01*
X857744Y188976D02*
Y192125D01*
X859318D01*
X859843Y191600D01*
Y190551D01*
X859318Y190026D01*
X857744D01*
X858794D02*
X859843Y188976D01*
X861417D02*
X862467D01*
X862992Y189501D01*
Y190551D01*
X862467Y191075D01*
X861417D01*
X860893Y190551D01*
Y189501D01*
X861417Y188976D01*
X864041Y191075D02*
Y189501D01*
X864566Y188976D01*
X866140D01*
Y191075D01*
X867190Y188976D02*
Y191075D01*
X868764D01*
X869289Y190551D01*
Y188976D01*
X872437Y192125D02*
Y188976D01*
X870863D01*
X870338Y189501D01*
Y190551D01*
X870863Y191075D01*
X872437D01*
X859843Y183726D02*
X859318Y184251D01*
X858269D01*
X857744Y183726D01*
Y183201D01*
X858269Y182677D01*
X859318D01*
X859843Y182152D01*
Y181627D01*
X859318Y181102D01*
X858269D01*
X857744Y181627D01*
X860893Y181102D02*
X861942D01*
X861417D01*
Y184251D01*
X860893D01*
X864041Y181102D02*
X865091D01*
X865615Y181627D01*
Y182677D01*
X865091Y183201D01*
X864041D01*
X863516Y182677D01*
Y181627D01*
X864041Y181102D01*
X867190Y183726D02*
Y183201D01*
X866665D01*
X867715D01*
X867190D01*
Y181627D01*
X867715Y181102D01*
X857744Y173228D02*
Y176377D01*
X859318D01*
X859843Y175852D01*
Y174803D01*
X859318Y174278D01*
X857744D01*
X858794D02*
X859843Y173228D01*
X861417D02*
X862467D01*
X862992Y173753D01*
Y174803D01*
X862467Y175327D01*
X861417D01*
X860893Y174803D01*
Y173753D01*
X861417Y173228D01*
X864041Y175327D02*
Y173753D01*
X864566Y173228D01*
X866140D01*
Y175327D01*
X867190Y173228D02*
Y175327D01*
X868764D01*
X869289Y174803D01*
Y173228D01*
X872437Y176377D02*
Y173228D01*
X870863D01*
X870338Y173753D01*
Y174803D01*
X870863Y175327D01*
X872437D01*
X857744Y165354D02*
Y168503D01*
X859318D01*
X859843Y167978D01*
Y166929D01*
X859318Y166404D01*
X857744D01*
X858794D02*
X859843Y165354D01*
X861417D02*
X862467D01*
X862992Y165879D01*
Y166929D01*
X862467Y167453D01*
X861417D01*
X860893Y166929D01*
Y165879D01*
X861417Y165354D01*
X864041Y167453D02*
Y165879D01*
X864566Y165354D01*
X866140D01*
Y167453D01*
X867190Y165354D02*
Y167453D01*
X868764D01*
X869289Y166929D01*
Y165354D01*
X872437Y168503D02*
Y165354D01*
X870863D01*
X870338Y165879D01*
Y166929D01*
X870863Y167453D01*
X872437D01*
X857744Y157480D02*
Y160629D01*
X859318D01*
X859843Y160104D01*
Y159055D01*
X859318Y158530D01*
X857744D01*
X858794D02*
X859843Y157480D01*
X861417D02*
X862467D01*
X862992Y158005D01*
Y159055D01*
X862467Y159579D01*
X861417D01*
X860893Y159055D01*
Y158005D01*
X861417Y157480D01*
X864041Y159579D02*
Y158005D01*
X864566Y157480D01*
X866140D01*
Y159579D01*
X867190Y157480D02*
Y159579D01*
X868764D01*
X869289Y159055D01*
Y157480D01*
X872437Y160629D02*
Y157480D01*
X870863D01*
X870338Y158005D01*
Y159055D01*
X870863Y159579D01*
X872437D01*
X857744Y149606D02*
Y152755D01*
X859318D01*
X859843Y152230D01*
Y151181D01*
X859318Y150656D01*
X857744D01*
X858794D02*
X859843Y149606D01*
X861417D02*
X862467D01*
X862992Y150131D01*
Y151181D01*
X862467Y151705D01*
X861417D01*
X860893Y151181D01*
Y150131D01*
X861417Y149606D01*
X864041Y151705D02*
Y150131D01*
X864566Y149606D01*
X866140D01*
Y151705D01*
X867190Y149606D02*
Y151705D01*
X868764D01*
X869289Y151181D01*
Y149606D01*
X872437Y152755D02*
Y149606D01*
X870863D01*
X870338Y150131D01*
Y151181D01*
X870863Y151705D01*
X872437D01*
X857744Y141732D02*
Y144881D01*
X859318D01*
X859843Y144356D01*
Y143307D01*
X859318Y142782D01*
X857744D01*
X858794D02*
X859843Y141732D01*
X861417D02*
X862467D01*
X862992Y142257D01*
Y143307D01*
X862467Y143831D01*
X861417D01*
X860893Y143307D01*
Y142257D01*
X861417Y141732D01*
X864041Y143831D02*
Y142257D01*
X864566Y141732D01*
X866140D01*
Y143831D01*
X867190Y141732D02*
Y143831D01*
X868764D01*
X869289Y143307D01*
Y141732D01*
X872437Y144881D02*
Y141732D01*
X870863D01*
X870338Y142257D01*
Y143307D01*
X870863Y143831D01*
X872437D01*
X857744Y133858D02*
Y137007D01*
X859318D01*
X859843Y136482D01*
Y135433D01*
X859318Y134908D01*
X857744D01*
X858794D02*
X859843Y133858D01*
X861417D02*
X862467D01*
X862992Y134383D01*
Y135433D01*
X862467Y135957D01*
X861417D01*
X860893Y135433D01*
Y134383D01*
X861417Y133858D01*
X864041Y135957D02*
Y134383D01*
X864566Y133858D01*
X866140D01*
Y135957D01*
X867190Y133858D02*
Y135957D01*
X868764D01*
X869289Y135433D01*
Y133858D01*
X872437Y137007D02*
Y133858D01*
X870863D01*
X870338Y134383D01*
Y135433D01*
X870863Y135957D01*
X872437D01*
X830979Y204724D02*
Y207873D01*
X832553D01*
X833078Y207348D01*
Y206299D01*
X832553Y205774D01*
X830979D01*
X834127Y207873D02*
X836226D01*
X835177D01*
Y204724D01*
X837276Y207873D02*
Y204724D01*
Y206299D01*
X839375D01*
Y207873D01*
Y204724D01*
X830979Y196850D02*
Y199999D01*
X833078Y196850D01*
Y199999D01*
X834127Y196850D02*
Y199999D01*
X835702D01*
X836226Y199474D01*
Y198425D01*
X835702Y197900D01*
X834127D01*
X837276Y199999D02*
X839375D01*
X838326D01*
Y196850D01*
X840425Y199999D02*
Y196850D01*
Y198425D01*
X842524D01*
Y199999D01*
Y196850D01*
X830979Y188976D02*
Y192125D01*
X833078Y188976D01*
Y192125D01*
X834127Y188976D02*
Y192125D01*
X835702D01*
X836226Y191600D01*
Y190551D01*
X835702Y190026D01*
X834127D01*
X837276Y192125D02*
X839375D01*
X838326D01*
Y188976D01*
X840425Y192125D02*
Y188976D01*
Y190551D01*
X842524D01*
Y192125D01*
Y188976D01*
X830979Y181102D02*
Y184251D01*
X832553D01*
X833078Y183726D01*
Y182677D01*
X832553Y182152D01*
X830979D01*
X834127Y184251D02*
X836226D01*
X835177D01*
Y181102D01*
X837276Y184251D02*
Y181102D01*
Y182677D01*
X839375D01*
Y184251D01*
Y181102D01*
X830979Y173228D02*
Y176377D01*
X832553D01*
X833078Y175852D01*
Y174803D01*
X832553Y174278D01*
X830979D01*
X834127Y176377D02*
X836226D01*
X835177D01*
Y173228D01*
X837276Y176377D02*
Y173228D01*
Y174803D01*
X839375D01*
Y176377D01*
Y173228D01*
X830979Y165354D02*
Y168503D01*
X833078Y165354D01*
Y168503D01*
X834127Y165354D02*
Y168503D01*
X835702D01*
X836226Y167978D01*
Y166929D01*
X835702Y166404D01*
X834127D01*
X837276Y168503D02*
X839375D01*
X838326D01*
Y165354D01*
X840425Y168503D02*
Y165354D01*
Y166929D01*
X842524D01*
Y168503D01*
Y165354D01*
X830979Y157480D02*
Y160629D01*
X832553D01*
X833078Y160104D01*
Y159055D01*
X832553Y158530D01*
X830979D01*
X834127Y160629D02*
X836226D01*
X835177D01*
Y157480D01*
X837276Y160629D02*
Y157480D01*
Y159055D01*
X839375D01*
Y160629D01*
Y157480D01*
X830979Y149606D02*
Y152755D01*
X832553D01*
X833078Y152230D01*
Y151181D01*
X832553Y150656D01*
X830979D01*
X834127Y152755D02*
X836226D01*
X835177D01*
Y149606D01*
X837276Y152755D02*
Y149606D01*
Y151181D01*
X839375D01*
Y152755D01*
Y149606D01*
X830979Y141732D02*
Y144881D01*
X832553D01*
X833078Y144356D01*
Y143307D01*
X832553Y142782D01*
X830979D01*
X834127Y144881D02*
X836226D01*
X835177D01*
Y141732D01*
X837276Y144881D02*
Y141732D01*
Y143307D01*
X839375D01*
Y144881D01*
Y141732D01*
X830979Y133858D02*
Y137007D01*
X832553D01*
X833078Y136482D01*
Y135433D01*
X832553Y134908D01*
X830979D01*
X834127Y137007D02*
X836226D01*
X835177D01*
Y133858D01*
X837276Y137007D02*
Y133858D01*
Y135433D01*
X839375D01*
Y137007D01*
Y133858D01*
X769448Y207348D02*
X769973Y207873D01*
X771023D01*
X771547Y207348D01*
Y205249D01*
X771023Y204724D01*
X769973D01*
X769448Y205249D01*
Y207348D01*
X773122Y204200D02*
X773646Y204724D01*
Y205249D01*
X773122D01*
Y204724D01*
X773646D01*
X773122Y204200D01*
X772597Y203675D01*
X777844Y207873D02*
X775745D01*
Y206299D01*
X776795Y206823D01*
X777320D01*
X777844Y206299D01*
Y205249D01*
X777320Y204724D01*
X776270D01*
X775745Y205249D01*
X778894Y207348D02*
X779419Y207873D01*
X780468D01*
X780993Y207348D01*
Y205249D01*
X780468Y204724D01*
X779419D01*
X778894Y205249D01*
Y207348D01*
X782043D02*
X782567Y207873D01*
X783617D01*
X784142Y207348D01*
Y205249D01*
X783617Y204724D01*
X782567D01*
X782043Y205249D01*
Y207348D01*
X785191Y204724D02*
Y206823D01*
X785716D01*
X786241Y206299D01*
Y204724D01*
Y206299D01*
X786765Y206823D01*
X787290Y206299D01*
Y204724D01*
X788340D02*
Y206823D01*
X788865D01*
X789389Y206299D01*
Y204724D01*
Y206299D01*
X789914Y206823D01*
X790439Y206299D01*
Y204724D01*
X795686D02*
X794637Y205774D01*
Y206823D01*
X795686Y207873D01*
X797261Y204724D02*
X798310D01*
X797786D01*
Y207873D01*
X797261Y207348D01*
X799885Y205249D02*
X800409Y204724D01*
X801459D01*
X801984Y205249D01*
Y207348D01*
X801459Y207873D01*
X800409D01*
X799885Y207348D01*
Y206823D01*
X800409Y206299D01*
X801984D01*
X803558Y204200D02*
X804083Y204724D01*
Y205249D01*
X803558D01*
Y204724D01*
X804083D01*
X803558Y204200D01*
X803033Y203675D01*
X808281Y207873D02*
X807231Y207348D01*
X806182Y206299D01*
Y205249D01*
X806707Y204724D01*
X807756D01*
X808281Y205249D01*
Y205774D01*
X807756Y206299D01*
X806182D01*
X809330Y205249D02*
X809855Y204724D01*
X810905D01*
X811429Y205249D01*
Y207348D01*
X810905Y207873D01*
X809855D01*
X809330Y207348D01*
Y206823D01*
X809855Y206299D01*
X811429D01*
X812479Y204724D02*
Y206823D01*
X813004D01*
X813529Y206299D01*
Y204724D01*
Y206299D01*
X814053Y206823D01*
X814578Y206299D01*
Y204724D01*
X815628D02*
X816677D01*
X816152D01*
Y206823D01*
X815628D01*
X818251Y204724D02*
X819301D01*
X818776D01*
Y207873D01*
X818251D01*
X820875Y204724D02*
X821925Y205774D01*
Y206823D01*
X820875Y207873D01*
X769448Y196850D02*
X770498D01*
X769973D01*
Y199999D01*
X769448Y199474D01*
X772597Y196326D02*
X773122Y196850D01*
Y197375D01*
X772597D01*
Y196850D01*
X773122D01*
X772597Y196326D01*
X772072Y195801D01*
X775221Y199474D02*
X775745Y199999D01*
X776795D01*
X777320Y199474D01*
Y197375D01*
X776795Y196850D01*
X775745D01*
X775221Y197375D01*
Y199474D01*
X778369D02*
X778894Y199999D01*
X779944D01*
X780468Y199474D01*
Y197375D01*
X779944Y196850D01*
X778894D01*
X778369Y197375D01*
Y199474D01*
X781518D02*
X782043Y199999D01*
X783092D01*
X783617Y199474D01*
Y197375D01*
X783092Y196850D01*
X782043D01*
X781518Y197375D01*
Y199474D01*
X784666Y196850D02*
Y198949D01*
X785191D01*
X785716Y198425D01*
Y196850D01*
Y198425D01*
X786241Y198949D01*
X786765Y198425D01*
Y196850D01*
X787815D02*
Y198949D01*
X788340D01*
X788865Y198425D01*
Y196850D01*
Y198425D01*
X789389Y198949D01*
X789914Y198425D01*
Y196850D01*
X795162D02*
X794112Y197900D01*
Y198949D01*
X795162Y199999D01*
X796736Y199474D02*
X797261Y199999D01*
X798310D01*
X798835Y199474D01*
Y198949D01*
X798310Y198425D01*
X797786D01*
X798310D01*
X798835Y197900D01*
Y197375D01*
X798310Y196850D01*
X797261D01*
X796736Y197375D01*
X799885D02*
X800409Y196850D01*
X801459D01*
X801984Y197375D01*
Y199474D01*
X801459Y199999D01*
X800409D01*
X799885Y199474D01*
Y198949D01*
X800409Y198425D01*
X801984D01*
X803558Y196326D02*
X804083Y196850D01*
Y197375D01*
X803558D01*
Y196850D01*
X804083D01*
X803558Y196326D01*
X803033Y195801D01*
X806182Y199474D02*
X806707Y199999D01*
X807756D01*
X808281Y199474D01*
Y198949D01*
X807756Y198425D01*
X807231D01*
X807756D01*
X808281Y197900D01*
Y197375D01*
X807756Y196850D01*
X806707D01*
X806182Y197375D01*
X809330Y199999D02*
X811429D01*
Y199474D01*
X809330Y197375D01*
Y196850D01*
X812479D02*
Y198949D01*
X813004D01*
X813529Y198425D01*
Y196850D01*
Y198425D01*
X814053Y198949D01*
X814578Y198425D01*
Y196850D01*
X815628D02*
X816677D01*
X816152D01*
Y198949D01*
X815628D01*
X818251Y196850D02*
X819301D01*
X818776D01*
Y199999D01*
X818251D01*
X820875Y196850D02*
X821925Y197900D01*
Y198949D01*
X820875Y199999D01*
X769448Y188976D02*
X770498D01*
X769973D01*
Y192125D01*
X769448Y191600D01*
X772597Y188452D02*
X773122Y188976D01*
Y189501D01*
X772597D01*
Y188976D01*
X773122D01*
X772597Y188452D01*
X772072Y187927D01*
X777320Y192125D02*
X776270Y191600D01*
X775221Y190551D01*
Y189501D01*
X775745Y188976D01*
X776795D01*
X777320Y189501D01*
Y190026D01*
X776795Y190551D01*
X775221D01*
X778369Y191600D02*
X778894Y192125D01*
X779944D01*
X780468Y191600D01*
Y189501D01*
X779944Y188976D01*
X778894D01*
X778369Y189501D01*
Y191600D01*
X781518D02*
X782043Y192125D01*
X783092D01*
X783617Y191600D01*
Y189501D01*
X783092Y188976D01*
X782043D01*
X781518Y189501D01*
Y191600D01*
X784666Y188976D02*
Y191075D01*
X785191D01*
X785716Y190551D01*
Y188976D01*
Y190551D01*
X786241Y191075D01*
X786765Y190551D01*
Y188976D01*
X787815D02*
Y191075D01*
X788340D01*
X788865Y190551D01*
Y188976D01*
Y190551D01*
X789389Y191075D01*
X789914Y190551D01*
Y188976D01*
X795162D02*
X794112Y190026D01*
Y191075D01*
X795162Y192125D01*
X798835D02*
X797786Y191600D01*
X796736Y190551D01*
Y189501D01*
X797261Y188976D01*
X798310D01*
X798835Y189501D01*
Y190026D01*
X798310Y190551D01*
X796736D01*
X801984Y188976D02*
X799885D01*
X801984Y191075D01*
Y191600D01*
X801459Y192125D01*
X800409D01*
X799885Y191600D01*
X803558Y188452D02*
X804083Y188976D01*
Y189501D01*
X803558D01*
Y188976D01*
X804083D01*
X803558Y188452D01*
X803033Y187927D01*
X806182Y189501D02*
X806707Y188976D01*
X807756D01*
X808281Y189501D01*
Y191600D01*
X807756Y192125D01*
X806707D01*
X806182Y191600D01*
Y191075D01*
X806707Y190551D01*
X808281D01*
X809330Y189501D02*
X809855Y188976D01*
X810905D01*
X811429Y189501D01*
Y191600D01*
X810905Y192125D01*
X809855D01*
X809330Y191600D01*
Y191075D01*
X809855Y190551D01*
X811429D01*
X812479Y188976D02*
Y191075D01*
X813004D01*
X813529Y190551D01*
Y188976D01*
Y190551D01*
X814053Y191075D01*
X814578Y190551D01*
Y188976D01*
X815628D02*
X816677D01*
X816152D01*
Y191075D01*
X815628D01*
X818251Y188976D02*
X819301D01*
X818776D01*
Y192125D01*
X818251D01*
X820875Y188976D02*
X821925Y190026D01*
Y191075D01*
X820875Y192125D01*
X769448Y181102D02*
X770498D01*
X769973D01*
Y184251D01*
X769448Y183726D01*
X772597Y180578D02*
X773122Y181102D01*
Y181627D01*
X772597D01*
Y181102D01*
X773122D01*
X772597Y180578D01*
X772072Y180053D01*
X775221Y183726D02*
X775745Y184251D01*
X776795D01*
X777320Y183726D01*
Y183201D01*
X776795Y182677D01*
X777320Y182152D01*
Y181627D01*
X776795Y181102D01*
X775745D01*
X775221Y181627D01*
Y182152D01*
X775745Y182677D01*
X775221Y183201D01*
Y183726D01*
X775745Y182677D02*
X776795D01*
X778369Y183726D02*
X778894Y184251D01*
X779944D01*
X780468Y183726D01*
Y181627D01*
X779944Y181102D01*
X778894D01*
X778369Y181627D01*
Y183726D01*
X781518D02*
X782043Y184251D01*
X783092D01*
X783617Y183726D01*
Y181627D01*
X783092Y181102D01*
X782043D01*
X781518Y181627D01*
Y183726D01*
X784666Y181102D02*
Y183201D01*
X785191D01*
X785716Y182677D01*
Y181102D01*
Y182677D01*
X786241Y183201D01*
X786765Y182677D01*
Y181102D01*
X787815D02*
Y183201D01*
X788340D01*
X788865Y182677D01*
Y181102D01*
Y182677D01*
X789389Y183201D01*
X789914Y182677D01*
Y181102D01*
X795162D02*
X794112Y182152D01*
Y183201D01*
X795162Y184251D01*
X796736D02*
X798835D01*
Y183726D01*
X796736Y181627D01*
Y181102D01*
X799885Y183726D02*
X800409Y184251D01*
X801459D01*
X801984Y183726D01*
Y181627D01*
X801459Y181102D01*
X800409D01*
X799885Y181627D01*
Y183726D01*
X803558Y180578D02*
X804083Y181102D01*
Y181627D01*
X803558D01*
Y181102D01*
X804083D01*
X803558Y180578D01*
X803033Y180053D01*
X806182Y183726D02*
X806707Y184251D01*
X807756D01*
X808281Y183726D01*
Y183201D01*
X807756Y182677D01*
X808281Y182152D01*
Y181627D01*
X807756Y181102D01*
X806707D01*
X806182Y181627D01*
Y182152D01*
X806707Y182677D01*
X806182Y183201D01*
Y183726D01*
X806707Y182677D02*
X807756D01*
X809330Y184251D02*
X811429D01*
Y183726D01*
X809330Y181627D01*
Y181102D01*
X812479D02*
Y183201D01*
X813004D01*
X813529Y182677D01*
Y181102D01*
Y182677D01*
X814053Y183201D01*
X814578Y182677D01*
Y181102D01*
X815628D02*
X816677D01*
X816152D01*
Y183201D01*
X815628D01*
X818251Y181102D02*
X819301D01*
X818776D01*
Y184251D01*
X818251D01*
X820875Y181102D02*
X821925Y182152D01*
Y183201D01*
X820875Y184251D01*
X769448Y173228D02*
X770498D01*
X769973D01*
Y176377D01*
X769448Y175852D01*
X772597Y172704D02*
X773122Y173228D01*
Y173753D01*
X772597D01*
Y173228D01*
X773122D01*
X772597Y172704D01*
X772072Y172179D01*
X777320Y173228D02*
X775221D01*
X777320Y175327D01*
Y175852D01*
X776795Y176377D01*
X775745D01*
X775221Y175852D01*
X778369D02*
X778894Y176377D01*
X779944D01*
X780468Y175852D01*
Y173753D01*
X779944Y173228D01*
X778894D01*
X778369Y173753D01*
Y175852D01*
X781518D02*
X782043Y176377D01*
X783092D01*
X783617Y175852D01*
Y173753D01*
X783092Y173228D01*
X782043D01*
X781518Y173753D01*
Y175852D01*
X784666Y173228D02*
Y175327D01*
X785191D01*
X785716Y174803D01*
Y173228D01*
Y174803D01*
X786241Y175327D01*
X786765Y174803D01*
Y173228D01*
X787815D02*
Y175327D01*
X788340D01*
X788865Y174803D01*
Y173228D01*
Y174803D01*
X789389Y175327D01*
X789914Y174803D01*
Y173228D01*
X795162D02*
X794112Y174278D01*
Y175327D01*
X795162Y176377D01*
X798310Y173228D02*
Y176377D01*
X796736Y174803D01*
X798835D01*
X799885Y176377D02*
X801984D01*
Y175852D01*
X799885Y173753D01*
Y173228D01*
X803558Y172704D02*
X804083Y173228D01*
Y173753D01*
X803558D01*
Y173228D01*
X804083D01*
X803558Y172704D01*
X803033Y172179D01*
X808281Y173228D02*
X806182D01*
X808281Y175327D01*
Y175852D01*
X807756Y176377D01*
X806707D01*
X806182Y175852D01*
X810905Y173228D02*
Y176377D01*
X809330Y174803D01*
X811429D01*
X812479Y173228D02*
Y175327D01*
X813004D01*
X813529Y174803D01*
Y173228D01*
Y174803D01*
X814053Y175327D01*
X814578Y174803D01*
Y173228D01*
X815628D02*
X816677D01*
X816152D01*
Y175327D01*
X815628D01*
X818251Y173228D02*
X819301D01*
X818776D01*
Y176377D01*
X818251D01*
X820875Y173228D02*
X821925Y174278D01*
Y175327D01*
X820875Y176377D01*
X769448Y167978D02*
X769973Y168503D01*
X771023D01*
X771547Y167978D01*
Y167453D01*
X771023Y166929D01*
X770498D01*
X771023D01*
X771547Y166404D01*
Y165879D01*
X771023Y165354D01*
X769973D01*
X769448Y165879D01*
X773122Y164830D02*
X773646Y165354D01*
Y165879D01*
X773122D01*
Y165354D01*
X773646D01*
X773122Y164830D01*
X772597Y164305D01*
X777844Y165354D02*
X775745D01*
X777844Y167453D01*
Y167978D01*
X777320Y168503D01*
X776270D01*
X775745Y167978D01*
X778894D02*
X779419Y168503D01*
X780468D01*
X780993Y167978D01*
Y165879D01*
X780468Y165354D01*
X779419D01*
X778894Y165879D01*
Y167978D01*
X782043D02*
X782567Y168503D01*
X783617D01*
X784142Y167978D01*
Y165879D01*
X783617Y165354D01*
X782567D01*
X782043Y165879D01*
Y167978D01*
X785191Y165354D02*
Y167453D01*
X785716D01*
X786241Y166929D01*
Y165354D01*
Y166929D01*
X786765Y167453D01*
X787290Y166929D01*
Y165354D01*
X788340D02*
Y167453D01*
X788865D01*
X789389Y166929D01*
Y165354D01*
Y166929D01*
X789914Y167453D01*
X790439Y166929D01*
Y165354D01*
X795686D02*
X794637Y166404D01*
Y167453D01*
X795686Y168503D01*
X797261Y165354D02*
X798310D01*
X797786D01*
Y168503D01*
X797261Y167978D01*
X801984Y165354D02*
X799885D01*
X801984Y167453D01*
Y167978D01*
X801459Y168503D01*
X800409D01*
X799885Y167978D01*
X805132Y168503D02*
X803033D01*
Y166929D01*
X804083Y167453D01*
X804607D01*
X805132Y166929D01*
Y165879D01*
X804607Y165354D01*
X803558D01*
X803033Y165879D01*
X806707Y164830D02*
X807231Y165354D01*
Y165879D01*
X806707D01*
Y165354D01*
X807231D01*
X806707Y164830D01*
X806182Y164305D01*
X809330Y165879D02*
X809855Y165354D01*
X810905D01*
X811429Y165879D01*
Y167978D01*
X810905Y168503D01*
X809855D01*
X809330Y167978D01*
Y167453D01*
X809855Y166929D01*
X811429D01*
X812479Y167978D02*
X813004Y168503D01*
X814053D01*
X814578Y167978D01*
Y167453D01*
X814053Y166929D01*
X814578Y166404D01*
Y165879D01*
X814053Y165354D01*
X813004D01*
X812479Y165879D01*
Y166404D01*
X813004Y166929D01*
X812479Y167453D01*
Y167978D01*
X813004Y166929D02*
X814053D01*
X815628Y165354D02*
Y167453D01*
X816152D01*
X816677Y166929D01*
Y165354D01*
Y166929D01*
X817202Y167453D01*
X817727Y166929D01*
Y165354D01*
X818776D02*
X819826D01*
X819301D01*
Y167453D01*
X818776D01*
X821400Y165354D02*
X822449D01*
X821925D01*
Y168503D01*
X821400D01*
X824024Y165354D02*
X825073Y166404D01*
Y167453D01*
X824024Y168503D01*
X769448Y160104D02*
X769973Y160629D01*
X771023D01*
X771547Y160104D01*
Y158005D01*
X771023Y157480D01*
X769973D01*
X769448Y158005D01*
Y160104D01*
X773122Y156956D02*
X773646Y157480D01*
Y158005D01*
X773122D01*
Y157480D01*
X773646D01*
X773122Y156956D01*
X772597Y156431D01*
X775745Y158005D02*
X776270Y157480D01*
X777320D01*
X777844Y158005D01*
Y160104D01*
X777320Y160629D01*
X776270D01*
X775745Y160104D01*
Y159579D01*
X776270Y159055D01*
X777844D01*
X778894Y160104D02*
X779419Y160629D01*
X780468D01*
X780993Y160104D01*
Y158005D01*
X780468Y157480D01*
X779419D01*
X778894Y158005D01*
Y160104D01*
X782043D02*
X782567Y160629D01*
X783617D01*
X784142Y160104D01*
Y158005D01*
X783617Y157480D01*
X782567D01*
X782043Y158005D01*
Y160104D01*
X785191Y157480D02*
Y159579D01*
X785716D01*
X786241Y159055D01*
Y157480D01*
Y159055D01*
X786765Y159579D01*
X787290Y159055D01*
Y157480D01*
X788340D02*
Y159579D01*
X788865D01*
X789389Y159055D01*
Y157480D01*
Y159055D01*
X789914Y159579D01*
X790439Y159055D01*
Y157480D01*
X795686D02*
X794637Y158530D01*
Y159579D01*
X795686Y160629D01*
X797261Y160104D02*
X797786Y160629D01*
X798835D01*
X799360Y160104D01*
Y159579D01*
X798835Y159055D01*
X798310D01*
X798835D01*
X799360Y158530D01*
Y158005D01*
X798835Y157480D01*
X797786D01*
X797261Y158005D01*
X802508Y160629D02*
X800409D01*
Y159055D01*
X801459Y159579D01*
X801984D01*
X802508Y159055D01*
Y158005D01*
X801984Y157480D01*
X800934D01*
X800409Y158005D01*
X804083Y156956D02*
X804607Y157480D01*
Y158005D01*
X804083D01*
Y157480D01*
X804607D01*
X804083Y156956D01*
X803558Y156431D01*
X808281Y157480D02*
Y160629D01*
X806707Y159055D01*
X808806D01*
X809855Y160104D02*
X810380Y160629D01*
X811429D01*
X811954Y160104D01*
Y159579D01*
X811429Y159055D01*
X810905D01*
X811429D01*
X811954Y158530D01*
Y158005D01*
X811429Y157480D01*
X810380D01*
X809855Y158005D01*
X813004Y157480D02*
Y159579D01*
X813529D01*
X814053Y159055D01*
Y157480D01*
Y159055D01*
X814578Y159579D01*
X815103Y159055D01*
Y157480D01*
X816152D02*
X817202D01*
X816677D01*
Y159579D01*
X816152D01*
X818776Y157480D02*
X819826D01*
X819301D01*
Y160629D01*
X818776D01*
X821400Y157480D02*
X822449Y158530D01*
Y159579D01*
X821400Y160629D01*
X769448Y149606D02*
X770498D01*
X769973D01*
Y152755D01*
X769448Y152230D01*
X772597Y149082D02*
X773122Y149606D01*
Y150131D01*
X772597D01*
Y149606D01*
X773122D01*
X772597Y149082D01*
X772072Y148557D01*
X775221Y152230D02*
X775745Y152755D01*
X776795D01*
X777320Y152230D01*
Y150131D01*
X776795Y149606D01*
X775745D01*
X775221Y150131D01*
Y152230D01*
X778369D02*
X778894Y152755D01*
X779944D01*
X780468Y152230D01*
Y150131D01*
X779944Y149606D01*
X778894D01*
X778369Y150131D01*
Y152230D01*
X781518D02*
X782043Y152755D01*
X783092D01*
X783617Y152230D01*
Y150131D01*
X783092Y149606D01*
X782043D01*
X781518Y150131D01*
Y152230D01*
X784666Y149606D02*
Y151705D01*
X785191D01*
X785716Y151181D01*
Y149606D01*
Y151181D01*
X786241Y151705D01*
X786765Y151181D01*
Y149606D01*
X787815D02*
Y151705D01*
X788340D01*
X788865Y151181D01*
Y149606D01*
Y151181D01*
X789389Y151705D01*
X789914Y151181D01*
Y149606D01*
X795162D02*
X794112Y150656D01*
Y151705D01*
X795162Y152755D01*
X796736Y152230D02*
X797261Y152755D01*
X798310D01*
X798835Y152230D01*
Y151705D01*
X798310Y151181D01*
X797786D01*
X798310D01*
X798835Y150656D01*
Y150131D01*
X798310Y149606D01*
X797261D01*
X796736Y150131D01*
X799885D02*
X800409Y149606D01*
X801459D01*
X801984Y150131D01*
Y152230D01*
X801459Y152755D01*
X800409D01*
X799885Y152230D01*
Y151705D01*
X800409Y151181D01*
X801984D01*
X803558Y149082D02*
X804083Y149606D01*
Y150131D01*
X803558D01*
Y149606D01*
X804083D01*
X803558Y149082D01*
X803033Y148557D01*
X806182Y152230D02*
X806707Y152755D01*
X807756D01*
X808281Y152230D01*
Y151705D01*
X807756Y151181D01*
X807231D01*
X807756D01*
X808281Y150656D01*
Y150131D01*
X807756Y149606D01*
X806707D01*
X806182Y150131D01*
X809330Y152755D02*
X811429D01*
Y152230D01*
X809330Y150131D01*
Y149606D01*
X812479D02*
Y151705D01*
X813004D01*
X813529Y151181D01*
Y149606D01*
Y151181D01*
X814053Y151705D01*
X814578Y151181D01*
Y149606D01*
X815628D02*
X816677D01*
X816152D01*
Y151705D01*
X815628D01*
X818251Y149606D02*
X819301D01*
X818776D01*
Y152755D01*
X818251D01*
X820875Y149606D02*
X821925Y150656D01*
Y151705D01*
X820875Y152755D01*
X769448Y141732D02*
X770498D01*
X769973D01*
Y144881D01*
X769448Y144356D01*
X772597Y141208D02*
X773122Y141732D01*
Y142257D01*
X772597D01*
Y141732D01*
X773122D01*
X772597Y141208D01*
X772072Y140683D01*
X775221Y141732D02*
X776270D01*
X775745D01*
Y144881D01*
X775221Y144356D01*
X777844D02*
X778369Y144881D01*
X779419D01*
X779944Y144356D01*
Y142257D01*
X779419Y141732D01*
X778369D01*
X777844Y142257D01*
Y144356D01*
X780993D02*
X781518Y144881D01*
X782567D01*
X783092Y144356D01*
Y142257D01*
X782567Y141732D01*
X781518D01*
X780993Y142257D01*
Y144356D01*
X784142Y141732D02*
Y143831D01*
X784666D01*
X785191Y143307D01*
Y141732D01*
Y143307D01*
X785716Y143831D01*
X786241Y143307D01*
Y141732D01*
X787290D02*
Y143831D01*
X787815D01*
X788340Y143307D01*
Y141732D01*
Y143307D01*
X788865Y143831D01*
X789389Y143307D01*
Y141732D01*
X794637D02*
X793587Y142782D01*
Y143831D01*
X794637Y144881D01*
X797786Y141732D02*
Y144881D01*
X796211Y143307D01*
X798310D01*
X799360Y144356D02*
X799885Y144881D01*
X800934D01*
X801459Y144356D01*
Y143831D01*
X800934Y143307D01*
X800409D01*
X800934D01*
X801459Y142782D01*
Y142257D01*
X800934Y141732D01*
X799885D01*
X799360Y142257D01*
X803033Y141208D02*
X803558Y141732D01*
Y142257D01*
X803033D01*
Y141732D01*
X803558D01*
X803033Y141208D01*
X802508Y140683D01*
X805657Y144356D02*
X806182Y144881D01*
X807231D01*
X807756Y144356D01*
Y143831D01*
X807231Y143307D01*
X806707D01*
X807231D01*
X807756Y142782D01*
Y142257D01*
X807231Y141732D01*
X806182D01*
X805657Y142257D01*
X808806Y141732D02*
X809855D01*
X809330D01*
Y144881D01*
X808806Y144356D01*
X811430Y141732D02*
Y143831D01*
X811954D01*
X812479Y143307D01*
Y141732D01*
Y143307D01*
X813004Y143831D01*
X813529Y143307D01*
Y141732D01*
X814578D02*
X815628D01*
X815103D01*
Y143831D01*
X814578D01*
X817202Y141732D02*
X818251D01*
X817727D01*
Y144881D01*
X817202D01*
X819826Y141732D02*
X820875Y142782D01*
Y143831D01*
X819826Y144881D01*
X769448Y136482D02*
X769973Y137007D01*
X771023D01*
X771547Y136482D01*
Y134383D01*
X771023Y133858D01*
X769973D01*
X769448Y134383D01*
Y136482D01*
X773122Y133334D02*
X773646Y133858D01*
Y134383D01*
X773122D01*
Y133858D01*
X773646D01*
X773122Y133334D01*
X772597Y132809D01*
X775745Y136482D02*
X776270Y137007D01*
X777320D01*
X777844Y136482D01*
Y135957D01*
X777320Y135433D01*
X776795D01*
X777320D01*
X777844Y134908D01*
Y134383D01*
X777320Y133858D01*
X776270D01*
X775745Y134383D01*
X778894Y136482D02*
X779419Y137007D01*
X780468D01*
X780993Y136482D01*
Y134383D01*
X780468Y133858D01*
X779419D01*
X778894Y134383D01*
Y136482D01*
X782043D02*
X782567Y137007D01*
X783617D01*
X784142Y136482D01*
Y134383D01*
X783617Y133858D01*
X782567D01*
X782043Y134383D01*
Y136482D01*
X785191Y133858D02*
Y135957D01*
X785716D01*
X786241Y135433D01*
Y133858D01*
Y135433D01*
X786765Y135957D01*
X787290Y135433D01*
Y133858D01*
X788340D02*
Y135957D01*
X788865D01*
X789389Y135433D01*
Y133858D01*
Y135433D01*
X789914Y135957D01*
X790439Y135433D01*
Y133858D01*
X795686D02*
X794637Y134908D01*
Y135957D01*
X795686Y137007D01*
X797261Y133858D02*
X798310D01*
X797786D01*
Y137007D01*
X797261Y136482D01*
X799885Y133858D02*
X800934D01*
X800409D01*
Y137007D01*
X799885Y136482D01*
X803033Y133334D02*
X803558Y133858D01*
Y134383D01*
X803033D01*
Y133858D01*
X803558D01*
X803033Y133334D01*
X802508Y132809D01*
X805657Y136482D02*
X806182Y137007D01*
X807231D01*
X807756Y136482D01*
Y135957D01*
X807231Y135433D01*
X807756Y134908D01*
Y134383D01*
X807231Y133858D01*
X806182D01*
X805657Y134383D01*
Y134908D01*
X806182Y135433D01*
X805657Y135957D01*
Y136482D01*
X806182Y135433D02*
X807231D01*
X808806Y133858D02*
X809855D01*
X809330D01*
Y137007D01*
X808806Y136482D01*
X811430Y133858D02*
Y135957D01*
X811954D01*
X812479Y135433D01*
Y133858D01*
Y135433D01*
X813004Y135957D01*
X813529Y135433D01*
Y133858D01*
X814578D02*
X815628D01*
X815103D01*
Y135957D01*
X814578D01*
X817202Y133858D02*
X818251D01*
X817727D01*
Y137007D01*
X817202D01*
X819826Y133858D02*
X820875Y134908D01*
Y135957D01*
X819826Y137007D01*
X741503Y129133D02*
X743602D01*
Y128608D01*
X741503Y126509D01*
Y125984D01*
X744651D02*
X745701D01*
X745176D01*
Y129133D01*
X744651Y128608D01*
X750424Y129133D02*
X752523D01*
X751473D01*
Y125984D01*
X754097D02*
X755147D01*
X755671Y126509D01*
Y127559D01*
X755147Y128083D01*
X754097D01*
X753572Y127559D01*
Y126509D01*
X754097Y125984D01*
X757246Y128608D02*
Y128083D01*
X756721D01*
X757770D01*
X757246D01*
Y126509D01*
X757770Y125984D01*
X759869Y128083D02*
X760919D01*
X761444Y127559D01*
Y125984D01*
X759869D01*
X759345Y126509D01*
X759869Y127034D01*
X761444D01*
X762493Y125984D02*
X763543D01*
X763018D01*
Y129133D01*
X762493D01*
X743602Y204724D02*
X741503D01*
X743602Y206823D01*
Y207348D01*
X743077Y207873D01*
X742027D01*
X741503Y207348D01*
X743602Y196850D02*
X741503D01*
X743602Y198949D01*
Y199474D01*
X743077Y199999D01*
X742027D01*
X741503Y199474D01*
X743602Y188976D02*
X741503D01*
X743602Y191075D01*
Y191600D01*
X743077Y192125D01*
X742027D01*
X741503Y191600D01*
X743602Y181102D02*
X741503D01*
X743602Y183201D01*
Y183726D01*
X743077Y184251D01*
X742027D01*
X741503Y183726D01*
X743077Y173228D02*
Y176377D01*
X741503Y174803D01*
X743602D01*
X743077Y165354D02*
Y168503D01*
X741503Y166929D01*
X743602D01*
Y160629D02*
X742552Y160104D01*
X741503Y159055D01*
Y158005D01*
X742027Y157480D01*
X743077D01*
X743602Y158005D01*
Y158530D01*
X743077Y159055D01*
X741503D01*
Y152755D02*
X743602D01*
Y152230D01*
X741503Y150131D01*
Y149606D01*
Y141732D02*
X742552D01*
X742027D01*
Y144881D01*
X741503Y144356D01*
X744127D02*
X744651Y144881D01*
X745701D01*
X746226Y144356D01*
Y143831D01*
X745701Y143307D01*
X746226Y142782D01*
Y142257D01*
X745701Y141732D01*
X744651D01*
X744127Y142257D01*
Y142782D01*
X744651Y143307D01*
X744127Y143831D01*
Y144356D01*
X744651Y143307D02*
X745701D01*
X743602Y133858D02*
X741503D01*
X743602Y135957D01*
Y136482D01*
X743077Y137007D01*
X742027D01*
X741503Y136482D01*
X746226Y133858D02*
Y137007D01*
X744651Y135433D01*
X746750D01*
X808830Y113913D02*
X810929D01*
X808830Y114963D02*
X810929D01*
X815128Y112864D02*
Y116012D01*
X816702D01*
X817227Y115488D01*
Y114438D01*
X816702Y113913D01*
X815128D01*
X816177D02*
X817227Y112864D01*
X818801D02*
X819851D01*
X820375Y113388D01*
Y114438D01*
X819851Y114963D01*
X818801D01*
X818276Y114438D01*
Y113388D01*
X818801Y112864D01*
X821425Y114963D02*
Y113388D01*
X821950Y112864D01*
X823524D01*
Y114963D01*
X825098Y115488D02*
Y114963D01*
X824573D01*
X825623D01*
X825098D01*
Y113388D01*
X825623Y112864D01*
X828771D02*
X827722D01*
X827197Y113388D01*
Y114438D01*
X827722Y114963D01*
X828771D01*
X829296Y114438D01*
Y113913D01*
X827197D01*
X832445Y116012D02*
Y112864D01*
X830871D01*
X830346Y113388D01*
Y114438D01*
X830871Y114963D01*
X832445D01*
X836643Y112864D02*
Y116012D01*
X838217D01*
X838742Y115488D01*
Y114438D01*
X838217Y113913D01*
X836643D01*
X840316Y114963D02*
X841366D01*
X841891Y114438D01*
Y112864D01*
X840316D01*
X839792Y113388D01*
X840316Y113913D01*
X841891D01*
X843465Y115488D02*
Y114963D01*
X842940D01*
X843990D01*
X843465D01*
Y113388D01*
X843990Y112864D01*
X845564Y116012D02*
Y112864D01*
Y114438D01*
X846089Y114963D01*
X847138D01*
X847663Y114438D01*
Y112864D01*
X851861Y116012D02*
Y112864D01*
X853960D01*
X856584D02*
X855534D01*
X855010Y113388D01*
Y114438D01*
X855534Y114963D01*
X856584D01*
X857109Y114438D01*
Y113913D01*
X855010D01*
X858158Y112864D02*
Y114963D01*
X859733D01*
X860257Y114438D01*
Y112864D01*
X862356Y111814D02*
X862881D01*
X863406Y112339D01*
Y114963D01*
X861832D01*
X861307Y114438D01*
Y113388D01*
X861832Y112864D01*
X863406D01*
X864980Y115488D02*
Y114963D01*
X864456D01*
X865505D01*
X864980D01*
Y113388D01*
X865505Y112864D01*
X867079Y116012D02*
Y112864D01*
Y114438D01*
X867604Y114963D01*
X868654D01*
X869178Y114438D01*
Y112864D01*
X873376Y114438D02*
X875476D01*
X874426Y115488D02*
Y113388D01*
X879674Y116012D02*
X881773D01*
X880723D01*
Y112864D01*
X883347D02*
X884397D01*
X884921Y113388D01*
Y114438D01*
X884397Y114963D01*
X883347D01*
X882822Y114438D01*
Y113388D01*
X883347Y112864D01*
X886496D02*
X887545D01*
X888070Y113388D01*
Y114438D01*
X887545Y114963D01*
X886496D01*
X885971Y114438D01*
Y113388D01*
X886496Y112864D01*
X889120D02*
X890169D01*
X889644D01*
Y116012D01*
X889120D01*
X896991Y115488D02*
X896466Y116012D01*
X895417D01*
X894892Y115488D01*
Y114963D01*
X895417Y114438D01*
X896466D01*
X896991Y113913D01*
Y113388D01*
X896466Y112864D01*
X895417D01*
X894892Y113388D01*
X898040Y112864D02*
X899090D01*
X898565D01*
Y114963D01*
X898040D01*
X900664D02*
X902763D01*
X900664Y112864D01*
X902763D01*
X905387D02*
X904338D01*
X903813Y113388D01*
Y114438D01*
X904338Y114963D01*
X905387D01*
X905912Y114438D01*
Y113913D01*
X903813D01*
X910110D02*
X912209D01*
X910110Y114963D02*
X912209D01*
X918506Y115488D02*
X917982Y116012D01*
X916932D01*
X916407Y115488D01*
Y114963D01*
X916932Y114438D01*
X917982D01*
X918506Y113913D01*
Y113388D01*
X917982Y112864D01*
X916932D01*
X916407Y113388D01*
X919556Y112864D02*
X920605D01*
X920081D01*
Y116012D01*
X919556D01*
X922705Y112864D02*
X923754D01*
X924279Y113388D01*
Y114438D01*
X923754Y114963D01*
X922705D01*
X922180Y114438D01*
Y113388D01*
X922705Y112864D01*
X925853Y115488D02*
Y114963D01*
X925328D01*
X926378D01*
X925853D01*
Y113388D01*
X926378Y112864D01*
X931101D02*
X932150D01*
X931625D01*
Y116012D01*
X931101D01*
X935299Y112864D02*
X934249D01*
X933724Y113388D01*
Y114438D01*
X934249Y114963D01*
X935299D01*
X935824Y114438D01*
Y113913D01*
X933724D01*
X936873Y112864D02*
Y114963D01*
X938447D01*
X938972Y114438D01*
Y112864D01*
X941071Y111814D02*
X941596D01*
X942121Y112339D01*
Y114963D01*
X940547D01*
X940022Y114438D01*
Y113388D01*
X940547Y112864D01*
X942121D01*
X943695Y115488D02*
Y114963D01*
X943170D01*
X944220D01*
X943695D01*
Y113388D01*
X944220Y112864D01*
X945794Y116012D02*
Y112864D01*
Y114438D01*
X946319Y114963D01*
X947368D01*
X947893Y114438D01*
Y112864D01*
X952616Y114963D02*
X953666D01*
X954190Y114438D01*
Y112864D01*
X952616D01*
X952091Y113388D01*
X952616Y113913D01*
X954190D01*
X955240Y112864D02*
X956814D01*
X957339Y113388D01*
X956814Y113913D01*
X955765D01*
X955240Y114438D01*
X955765Y114963D01*
X957339D01*
X963636Y116012D02*
Y112864D01*
X962062D01*
X961537Y113388D01*
Y114438D01*
X962062Y114963D01*
X963636D01*
X966260Y112864D02*
X965210D01*
X964686Y113388D01*
Y114438D01*
X965210Y114963D01*
X966260D01*
X966785Y114438D01*
Y113913D01*
X964686D01*
X968359Y112864D02*
Y115488D01*
Y114438D01*
X967834D01*
X968884D01*
X968359D01*
Y115488D01*
X968884Y116012D01*
X970458Y112864D02*
X971508D01*
X970983D01*
Y114963D01*
X970458D01*
X973082Y112864D02*
Y114963D01*
X974656D01*
X975181Y114438D01*
Y112864D01*
X977805D02*
X976755D01*
X976231Y113388D01*
Y114438D01*
X976755Y114963D01*
X977805D01*
X978330Y114438D01*
Y113913D01*
X976231D01*
X981478Y116012D02*
Y112864D01*
X979904D01*
X979379Y113388D01*
Y114438D01*
X979904Y114963D01*
X981478D01*
X985676Y112864D02*
X986726D01*
X986201D01*
Y114963D01*
X985676D01*
X988300Y112864D02*
Y114963D01*
X989874D01*
X990399Y114438D01*
Y112864D01*
X995122Y115488D02*
Y114963D01*
X994597D01*
X995647D01*
X995122D01*
Y113388D01*
X995647Y112864D01*
X997221Y116012D02*
Y112864D01*
Y114438D01*
X997746Y114963D01*
X998795D01*
X999320Y114438D01*
Y112864D01*
X1001944D02*
X1000895D01*
X1000370Y113388D01*
Y114438D01*
X1000895Y114963D01*
X1001944D01*
X1002469Y114438D01*
Y113913D01*
X1000370D01*
X1006667Y112864D02*
Y116012D01*
X1008241D01*
X1008766Y115488D01*
Y114438D01*
X1008241Y113913D01*
X1006667D01*
X1011915Y115488D02*
X1011390Y116012D01*
X1010340D01*
X1009816Y115488D01*
Y113388D01*
X1010340Y112864D01*
X1011390D01*
X1011915Y113388D01*
X1012964Y116012D02*
Y112864D01*
X1014538D01*
X1015063Y113388D01*
Y113913D01*
X1014538Y114438D01*
X1012964D01*
X1014538D01*
X1015063Y114963D01*
Y115488D01*
X1014538Y116012D01*
X1012964D01*
X1019261Y112864D02*
X1020311D01*
X1019786D01*
Y116012D01*
X1019261D01*
X1022410Y114963D02*
X1023459D01*
X1023984Y114438D01*
Y112864D01*
X1022410D01*
X1021885Y113388D01*
X1022410Y113913D01*
X1023984D01*
X1025034Y114963D02*
Y113388D01*
X1025558Y112864D01*
X1027133D01*
Y112339D01*
X1026608Y111814D01*
X1026083D01*
X1027133Y112864D02*
Y114963D01*
X1028707Y112864D02*
X1029757D01*
X1030281Y113388D01*
Y114438D01*
X1029757Y114963D01*
X1028707D01*
X1028182Y114438D01*
Y113388D01*
X1028707Y112864D01*
X1031331Y114963D02*
Y113388D01*
X1031856Y112864D01*
X1033430D01*
Y114963D01*
X1035004Y115488D02*
Y114963D01*
X1034479D01*
X1035529D01*
X1035004D01*
Y113388D01*
X1035529Y112864D01*
X827197Y119292D02*
X829296D01*
X827197Y120342D02*
X829296D01*
X835593Y120867D02*
X835069Y121391D01*
X834019D01*
X833494Y120867D01*
Y118768D01*
X834019Y118243D01*
X835069D01*
X835593Y118768D01*
X837168Y120342D02*
X838217D01*
X838742Y119817D01*
Y118243D01*
X837168D01*
X836643Y118768D01*
X837168Y119292D01*
X838742D01*
X839792Y118243D02*
X840841D01*
X840316D01*
Y121391D01*
X839792D01*
X844514Y120342D02*
X842940D01*
X842415Y119817D01*
Y118768D01*
X842940Y118243D01*
X844514D01*
X845564Y120342D02*
Y118768D01*
X846089Y118243D01*
X847663D01*
Y120342D01*
X848713Y118243D02*
X849762D01*
X849237D01*
Y121391D01*
X848713D01*
X851861Y120342D02*
X852911D01*
X853436Y119817D01*
Y118243D01*
X851861D01*
X851336Y118768D01*
X851861Y119292D01*
X853436D01*
X855010Y120867D02*
Y120342D01*
X854485D01*
X855534D01*
X855010D01*
Y118768D01*
X855534Y118243D01*
X858683D02*
X857634D01*
X857109Y118768D01*
Y119817D01*
X857634Y120342D01*
X858683D01*
X859208Y119817D01*
Y119292D01*
X857109D01*
X862356Y121391D02*
Y118243D01*
X860782D01*
X860257Y118768D01*
Y119817D01*
X860782Y120342D01*
X862356D01*
X867079Y118243D02*
Y120867D01*
Y119817D01*
X866555D01*
X867604D01*
X867079D01*
Y120867D01*
X867604Y121391D01*
X869178Y120342D02*
Y118243D01*
Y119292D01*
X869703Y119817D01*
X870228Y120342D01*
X870753D01*
X872852Y118243D02*
X873901D01*
X874426Y118768D01*
Y119817D01*
X873901Y120342D01*
X872852D01*
X872327Y119817D01*
Y118768D01*
X872852Y118243D01*
X875476D02*
Y120342D01*
X876000D01*
X876525Y119817D01*
Y118243D01*
Y119817D01*
X877050Y120342D01*
X877575Y119817D01*
Y118243D01*
X882298Y120867D02*
Y120342D01*
X881773D01*
X882822D01*
X882298D01*
Y118768D01*
X882822Y118243D01*
X884921D02*
X885971D01*
X886496Y118768D01*
Y119817D01*
X885971Y120342D01*
X884921D01*
X884397Y119817D01*
Y118768D01*
X884921Y118243D01*
X888070D02*
X889120D01*
X889644Y118768D01*
Y119817D01*
X889120Y120342D01*
X888070D01*
X887545Y119817D01*
Y118768D01*
X888070Y118243D01*
X890694D02*
X891743D01*
X891219D01*
Y121391D01*
X890694D01*
X896466Y118243D02*
X898040D01*
X898565Y118768D01*
X898040Y119292D01*
X896991D01*
X896466Y119817D01*
X896991Y120342D01*
X898565D01*
X900140Y120867D02*
Y120342D01*
X899615D01*
X900664D01*
X900140D01*
Y118768D01*
X900664Y118243D01*
X902763Y120342D02*
X903813D01*
X904338Y119817D01*
Y118243D01*
X902763D01*
X902239Y118768D01*
X902763Y119292D01*
X904338D01*
X905387Y120342D02*
Y118243D01*
Y119292D01*
X905912Y119817D01*
X906437Y120342D01*
X906962D01*
X909061Y120867D02*
Y120342D01*
X908536D01*
X909585D01*
X909061D01*
Y118768D01*
X909585Y118243D01*
X916407Y120342D02*
X914833D01*
X914308Y119817D01*
Y118768D01*
X914833Y118243D01*
X916407D01*
X919031D02*
X917982D01*
X917457Y118768D01*
Y119817D01*
X917982Y120342D01*
X919031D01*
X919556Y119817D01*
Y119292D01*
X917457D01*
X920605Y118243D02*
Y120342D01*
X922180D01*
X922705Y119817D01*
Y118243D01*
X924279Y120867D02*
Y120342D01*
X923754D01*
X924804D01*
X924279D01*
Y118768D01*
X924804Y118243D01*
X926378Y120342D02*
Y118243D01*
Y119292D01*
X926903Y119817D01*
X927427Y120342D01*
X927952D01*
X931101Y118243D02*
X930051D01*
X929526Y118768D01*
Y119817D01*
X930051Y120342D01*
X931101D01*
X931625Y119817D01*
Y119292D01*
X929526D01*
X935824Y117193D02*
Y120342D01*
X937398D01*
X937923Y119817D01*
Y118768D01*
X937398Y118243D01*
X935824D01*
X939497D02*
X940547D01*
X941071Y118768D01*
Y119817D01*
X940547Y120342D01*
X939497D01*
X938972Y119817D01*
Y118768D01*
X939497Y118243D01*
X942121D02*
X943695D01*
X944220Y118768D01*
X943695Y119292D01*
X942646D01*
X942121Y119817D01*
X942646Y120342D01*
X944220D01*
X945269Y118243D02*
X946319D01*
X945794D01*
Y120342D01*
X945269D01*
X948418Y120867D02*
Y120342D01*
X947893D01*
X948943D01*
X948418D01*
Y118768D01*
X948943Y118243D01*
X950517D02*
X951567D01*
X951042D01*
Y120342D01*
X950517D01*
X953666Y118243D02*
X954715D01*
X955240Y118768D01*
Y119817D01*
X954715Y120342D01*
X953666D01*
X953141Y119817D01*
Y118768D01*
X953666Y118243D01*
X956289D02*
Y120342D01*
X957864D01*
X958389Y119817D01*
Y118243D01*
X963111Y120867D02*
Y120342D01*
X962587D01*
X963636D01*
X963111D01*
Y118768D01*
X963636Y118243D01*
X965735D02*
X966785D01*
X967309Y118768D01*
Y119817D01*
X966785Y120342D01*
X965735D01*
X965211Y119817D01*
Y118768D01*
X965735Y118243D01*
X972032Y120867D02*
Y120342D01*
X971508D01*
X972557D01*
X972032D01*
Y118768D01*
X972557Y118243D01*
X974656D02*
X975706D01*
X976231Y118768D01*
Y119817D01*
X975706Y120342D01*
X974656D01*
X974131Y119817D01*
Y118768D01*
X974656Y118243D01*
X977805D02*
X978854D01*
X979379Y118768D01*
Y119817D01*
X978854Y120342D01*
X977805D01*
X977280Y119817D01*
Y118768D01*
X977805Y118243D01*
X980429D02*
X981478D01*
X980953D01*
Y121391D01*
X980429D01*
X987775Y118243D02*
X986726D01*
X986201Y118768D01*
Y119817D01*
X986726Y120342D01*
X987775D01*
X988300Y119817D01*
Y119292D01*
X986201D01*
X989350Y118243D02*
Y120342D01*
X990924D01*
X991449Y119817D01*
Y118243D01*
X994597Y121391D02*
Y118243D01*
X993023D01*
X992498Y118768D01*
Y119817D01*
X993023Y120342D01*
X994597D01*
X1000895D02*
X999320D01*
X998795Y119817D01*
Y118768D01*
X999320Y118243D01*
X1000895D01*
X1003518D02*
X1002469D01*
X1001944Y118768D01*
Y119817D01*
X1002469Y120342D01*
X1003518D01*
X1004043Y119817D01*
Y119292D01*
X1001944D01*
X1005093Y118243D02*
Y120342D01*
X1006667D01*
X1007192Y119817D01*
Y118243D01*
X1008766Y120867D02*
Y120342D01*
X1008241D01*
X1009291D01*
X1008766D01*
Y118768D01*
X1009291Y118243D01*
X1010865Y120342D02*
Y118243D01*
Y119292D01*
X1011390Y119817D01*
X1011915Y120342D01*
X1012439D01*
X1015588Y118243D02*
X1014538D01*
X1014014Y118768D01*
Y119817D01*
X1014538Y120342D01*
X1015588D01*
X1016113Y119817D01*
Y119292D01*
X1014014D01*
X1020311Y117193D02*
Y120342D01*
X1021885D01*
X1022410Y119817D01*
Y118768D01*
X1021885Y118243D01*
X1020311D01*
X1023984D02*
X1025034D01*
X1025558Y118768D01*
Y119817D01*
X1025034Y120342D01*
X1023984D01*
X1023459Y119817D01*
Y118768D01*
X1023984Y118243D01*
X1026608D02*
X1028182D01*
X1028707Y118768D01*
X1028182Y119292D01*
X1027133D01*
X1026608Y119817D01*
X1027133Y120342D01*
X1028707D01*
X1029757Y118243D02*
X1030806D01*
X1030281D01*
Y120342D01*
X1029757D01*
X1032905Y120867D02*
Y120342D01*
X1032380D01*
X1033430D01*
X1032905D01*
Y118768D01*
X1033430Y118243D01*
X1035004D02*
X1036054D01*
X1035529D01*
Y120342D01*
X1035004D01*
X1038153Y118243D02*
X1039202D01*
X1039727Y118768D01*
Y119817D01*
X1039202Y120342D01*
X1038153D01*
X1037628Y119817D01*
Y118768D01*
X1038153Y118243D01*
X1040777D02*
Y120342D01*
X1042351D01*
X1042876Y119817D01*
Y118243D01*
X1043925D02*
Y118768D01*
X1044450D01*
Y118243D01*
X1043925D01*
D12*
X1178748Y-229571D02*
Y-190201D01*
X1021267Y-150831D02*
X1296858D01*
X1021267Y-190201D02*
X1296858D01*
X824417Y-229571D02*
X1296858D01*
X824417Y-111461D02*
X1296858D01*
X824417Y-268941D02*
Y-111461D01*
X1021267Y-268941D02*
Y-111461D01*
X-356685Y900350D02*
X1296858D01*
Y-268941D02*
Y900350D01*
X-356685Y-268941D02*
Y900350D01*
Y-268941D02*
X1296858D01*
X1035046Y-255164D02*
X1031110D01*
Y-258115D01*
X1033078D01*
X1031110D01*
Y-261067D01*
X1037014Y-257131D02*
Y-261067D01*
Y-259099D01*
X1037998Y-258115D01*
X1038981Y-257131D01*
X1039965D01*
X1042917Y-261067D02*
X1044885D01*
X1043901D01*
Y-257131D01*
X1042917D01*
X1047837Y-256147D02*
X1048821Y-255164D01*
X1050789D01*
X1051772Y-256147D01*
Y-257131D01*
X1050789Y-258115D01*
X1049805D01*
X1050789D01*
X1051772Y-259099D01*
Y-260083D01*
X1050789Y-261067D01*
X1048821D01*
X1047837Y-260083D01*
X1053740Y-255164D02*
Y-261067D01*
X1056692D01*
X1057676Y-260083D01*
Y-256147D01*
X1056692Y-255164D01*
X1053740D01*
X1059644Y-262051D02*
X1063580D01*
X1069483Y-261067D02*
X1065548D01*
X1069483Y-257131D01*
Y-256147D01*
X1068499Y-255164D01*
X1066531D01*
X1065548Y-256147D01*
X1071451D02*
X1072435Y-255164D01*
X1074403D01*
X1075387Y-256147D01*
Y-260083D01*
X1074403Y-261067D01*
X1072435D01*
X1071451Y-260083D01*
Y-256147D01*
X1081291Y-261067D02*
X1077355D01*
X1081291Y-257131D01*
Y-256147D01*
X1080307Y-255164D01*
X1078339D01*
X1077355Y-256147D01*
X1083258D02*
X1084242Y-255164D01*
X1086210D01*
X1087194Y-256147D01*
Y-260083D01*
X1086210Y-261067D01*
X1084242D01*
X1083258Y-260083D01*
Y-256147D01*
X1089162Y-262051D02*
X1093098D01*
X1099001Y-256147D02*
X1098017Y-255164D01*
X1096049D01*
X1095066Y-256147D01*
Y-260083D01*
X1096049Y-261067D01*
X1098017D01*
X1099001Y-260083D01*
Y-258115D01*
X1097034D01*
X1101953Y-257131D02*
X1103921D01*
X1104905Y-258115D01*
Y-261067D01*
X1101953D01*
X1100969Y-260083D01*
X1101953Y-259099D01*
X1104905D01*
X1106873Y-261067D02*
Y-257131D01*
X1107857D01*
X1108841Y-258115D01*
Y-261067D01*
Y-258115D01*
X1109825Y-257131D01*
X1110808Y-258115D01*
Y-261067D01*
X1115728D02*
X1113760D01*
X1112776Y-260083D01*
Y-258115D01*
X1113760Y-257131D01*
X1115728D01*
X1116712Y-258115D01*
Y-259099D01*
X1112776D01*
X1121632Y-255164D02*
X1119664D01*
X1118680Y-256147D01*
Y-260083D01*
X1119664Y-261067D01*
X1121632D01*
X1122616Y-260083D01*
Y-256147D01*
X1121632Y-255164D01*
X1124584Y-261067D02*
Y-257131D01*
X1127535D01*
X1128519Y-258115D01*
Y-261067D01*
X1130487Y-262051D02*
X1134423D01*
X1136391Y-256147D02*
X1137375Y-255164D01*
X1139343D01*
X1140326Y-256147D01*
Y-260083D01*
X1139343Y-261067D01*
X1137375D01*
X1136391Y-260083D01*
Y-256147D01*
X1142294D02*
X1143278Y-255164D01*
X1145246D01*
X1146230Y-256147D01*
Y-260083D01*
X1145246Y-261067D01*
X1143278D01*
X1142294Y-260083D01*
Y-256147D01*
X1148198Y-261067D02*
Y-260083D01*
X1149182D01*
Y-261067D01*
X1148198D01*
X1153118D02*
Y-255164D01*
X1156069D01*
X1157053Y-256147D01*
Y-258115D01*
X1156069Y-259099D01*
X1153118D01*
X1162957Y-257131D02*
X1160005D01*
X1159021Y-258115D01*
Y-260083D01*
X1160005Y-261067D01*
X1162957D01*
X1164925Y-255164D02*
Y-261067D01*
X1167877D01*
X1168861Y-260083D01*
Y-259099D01*
Y-258115D01*
X1167877Y-257131D01*
X1164925D01*
X1170829Y-255164D02*
Y-261067D01*
X1173780D01*
X1174764Y-260083D01*
Y-256147D01*
X1173780Y-255164D01*
X1170829D01*
X1177716Y-261067D02*
X1179684D01*
X1180668Y-260083D01*
Y-258115D01*
X1179684Y-257131D01*
X1177716D01*
X1176732Y-258115D01*
Y-260083D01*
X1177716Y-261067D01*
X1186571Y-257131D02*
X1183620D01*
X1182636Y-258115D01*
Y-260083D01*
X1183620Y-261067D01*
X1186571D01*
D14*
X846071Y-247293D02*
Y-263036D01*
X851318Y-257788D01*
X856566Y-263036D01*
Y-247293D01*
X861814Y-263036D02*
X867061D01*
X864437D01*
Y-252540D01*
X861814D01*
X874933Y-263036D02*
Y-252540D01*
X877556D01*
X880180Y-255164D01*
Y-263036D01*
Y-255164D01*
X882804Y-252540D01*
X885428Y-255164D01*
Y-263036D01*
X890676Y-247293D02*
Y-257788D01*
X895923Y-263036D01*
X901171Y-257788D01*
Y-247293D01*
X916914Y-249917D02*
X914290Y-247293D01*
X909042D01*
X906419Y-249917D01*
Y-260412D01*
X909042Y-263036D01*
X914290D01*
X916914Y-260412D01*
Y-255164D01*
X911666D01*
X1200401Y-210546D02*
X1203025Y-207923D01*
X1208273D01*
X1210897Y-210546D01*
Y-221042D01*
X1208273Y-223665D01*
X1203025D01*
X1200401Y-221042D01*
Y-210546D01*
X1216144D02*
X1218768Y-207923D01*
X1224016D01*
X1226639Y-210546D01*
Y-221042D01*
X1224016Y-223665D01*
X1218768D01*
X1216144Y-221042D01*
Y-210546D01*
X1046199Y-223665D02*
X1037015D01*
X1046199Y-214482D01*
Y-212186D01*
X1043903Y-209890D01*
X1039311D01*
X1037015Y-212186D01*
X1059974Y-209890D02*
X1050791D01*
Y-216778D01*
X1055382Y-214482D01*
X1057678D01*
X1059974Y-216778D01*
Y-221370D01*
X1057678Y-223665D01*
X1053086D01*
X1050791Y-221370D01*
X1064566Y-223665D02*
X1073749Y-214482D01*
X1078341Y-212186D02*
X1080637Y-209890D01*
X1085228D01*
X1087524Y-212186D01*
Y-221370D01*
X1085228Y-223665D01*
X1080637D01*
X1078341Y-221370D01*
Y-212186D01*
X1092116D02*
X1094412Y-209890D01*
X1099003D01*
X1101299Y-212186D01*
Y-214482D01*
X1099003Y-216778D01*
X1096707D01*
X1099003D01*
X1101299Y-219074D01*
Y-221370D01*
X1099003Y-223665D01*
X1094412D01*
X1092116Y-221370D01*
X1105891Y-223665D02*
X1115074Y-214482D01*
X1128849Y-223665D02*
X1119666D01*
X1128849Y-214482D01*
Y-212186D01*
X1126553Y-209890D01*
X1121962D01*
X1119666Y-212186D01*
X1133441D02*
X1135737Y-209890D01*
X1140329D01*
X1142624Y-212186D01*
Y-221370D01*
X1140329Y-223665D01*
X1135737D01*
X1133441Y-221370D01*
Y-212186D01*
X1156400Y-223665D02*
X1147216D01*
X1156400Y-214482D01*
Y-212186D01*
X1154104Y-209890D01*
X1149512D01*
X1147216Y-212186D01*
X1160991D02*
X1163287Y-209890D01*
X1167879D01*
X1170175Y-212186D01*
Y-221370D01*
X1167879Y-223665D01*
X1163287D01*
X1160991Y-221370D01*
Y-212186D01*
X1039506Y-132331D02*
X1031110D01*
Y-138628D01*
X1035308D01*
X1031110D01*
Y-144925D01*
X1043704Y-136529D02*
Y-144925D01*
Y-140727D01*
X1045803Y-138628D01*
X1047902Y-136529D01*
X1050002D01*
X1056299Y-144925D02*
X1060497D01*
X1058398D01*
Y-136529D01*
X1056299D01*
X1066794Y-134430D02*
X1068893Y-132331D01*
X1073091D01*
X1075190Y-134430D01*
Y-136529D01*
X1073091Y-138628D01*
X1070992D01*
X1073091D01*
X1075190Y-140727D01*
Y-142826D01*
X1073091Y-144925D01*
X1068893D01*
X1066794Y-142826D01*
X1079388Y-132331D02*
Y-144925D01*
X1085686D01*
X1087784Y-142826D01*
Y-134430D01*
X1085686Y-132331D01*
X1079388D01*
X1112973Y-144925D02*
X1104577D01*
X1112973Y-136529D01*
Y-134430D01*
X1110874Y-132331D01*
X1106676D01*
X1104577Y-134430D01*
X1117171D02*
X1119270Y-132331D01*
X1123469D01*
X1125568Y-134430D01*
Y-142826D01*
X1123469Y-144925D01*
X1119270D01*
X1117171Y-142826D01*
Y-134430D01*
X1138162Y-144925D02*
X1129766D01*
X1138162Y-136529D01*
Y-134430D01*
X1136063Y-132331D01*
X1131865D01*
X1129766Y-134430D01*
X1142360D02*
X1144459Y-132331D01*
X1148657D01*
X1150756Y-134430D01*
Y-142826D01*
X1148657Y-144925D01*
X1144459D01*
X1142360Y-142826D01*
Y-134430D01*
X1175945D02*
X1173846Y-132331D01*
X1169648D01*
X1167549Y-134430D01*
Y-142826D01*
X1169648Y-144925D01*
X1173846D01*
X1175945Y-142826D01*
Y-138628D01*
X1171747D01*
X1182242Y-136529D02*
X1186440D01*
X1188539Y-138628D01*
Y-144925D01*
X1182242D01*
X1180143Y-142826D01*
X1182242Y-140727D01*
X1188539D01*
X1192737Y-144925D02*
Y-136529D01*
X1194837D01*
X1196936Y-138628D01*
Y-144925D01*
Y-138628D01*
X1199035Y-136529D01*
X1201134Y-138628D01*
Y-144925D01*
X1211629D02*
X1207431D01*
X1205332Y-142826D01*
Y-138628D01*
X1207431Y-136529D01*
X1211629D01*
X1213728Y-138628D01*
Y-140727D01*
X1205332D01*
X1224223Y-132331D02*
X1220025D01*
X1217926Y-134430D01*
Y-142826D01*
X1220025Y-144925D01*
X1224223D01*
X1226322Y-142826D01*
Y-134430D01*
X1224223Y-132331D01*
X1230521Y-144925D02*
Y-136529D01*
X1236818D01*
X1238917Y-138628D01*
Y-144925D01*
X1042921Y-168552D02*
Y-182327D01*
X1049809D01*
X1052104Y-180031D01*
Y-170848D01*
X1049809Y-168552D01*
X1042921D01*
X1056696Y-173143D02*
Y-182327D01*
Y-177735D01*
X1058992Y-175439D01*
X1061288Y-173143D01*
X1063584D01*
X1070471Y-182327D02*
X1075063D01*
X1072767D01*
Y-173143D01*
X1070471D01*
X1081950Y-182327D02*
X1086542D01*
X1084246D01*
Y-168552D01*
X1081950D01*
X1093430Y-182327D02*
X1098021D01*
X1095725D01*
Y-168552D01*
X1093430D01*
X1118684D02*
Y-182327D01*
X1125571D01*
X1127867Y-180031D01*
Y-170848D01*
X1125571Y-168552D01*
X1118684D01*
X1132459Y-173143D02*
Y-182327D01*
Y-177735D01*
X1134755Y-175439D01*
X1137051Y-173143D01*
X1139347D01*
X1148530D02*
X1153122D01*
X1155417Y-175439D01*
Y-182327D01*
X1148530D01*
X1146234Y-180031D01*
X1148530Y-177735D01*
X1155417D01*
X1160009Y-173143D02*
Y-180031D01*
X1162305Y-182327D01*
X1164601Y-180031D01*
X1166897Y-182327D01*
X1169193Y-180031D01*
Y-173143D01*
X1173784Y-182327D02*
X1178376D01*
X1176080D01*
Y-173143D01*
X1173784D01*
X1185263Y-182327D02*
Y-173143D01*
X1192151D01*
X1194447Y-175439D01*
Y-182327D01*
X1203630Y-186919D02*
X1205926D01*
X1208222Y-184623D01*
Y-173143D01*
X1201334D01*
X1199039Y-175439D01*
Y-180031D01*
X1201334Y-182327D01*
X1208222D01*
D15*
X19685Y196850D02*
G03*
X0Y177165I-0J-19685D01*
G01*
X354331D02*
G03*
X334646Y196850I-19685J0D01*
G01*
Y0D02*
G03*
X354331Y19685I-0J19685D01*
G01*
X0Y19685D02*
G03*
X19685Y0I19685J0D01*
G01*
X334646D01*
X354331Y19685D02*
Y177165D01*
X19685Y196850D02*
X334646D01*
X0Y19685D02*
Y177165D01*
D16*
X1182685Y-202012D02*
Y-194141D01*
X1186621D01*
X1187932Y-195452D01*
Y-198076D01*
X1186621Y-199388D01*
X1182685D01*
X1185308D02*
X1187932Y-202012D01*
X1194492D02*
X1191868D01*
X1190556Y-200700D01*
Y-198076D01*
X1191868Y-196764D01*
X1194492D01*
X1195804Y-198076D01*
Y-199388D01*
X1190556D01*
X1198428Y-196764D02*
X1201052Y-202012D01*
X1203675Y-196764D01*
X828354Y-233511D02*
Y-241382D01*
X832290D01*
X833602Y-240070D01*
Y-234823D01*
X832290Y-233511D01*
X828354D01*
X840161Y-241382D02*
X837537D01*
X836226Y-240070D01*
Y-237446D01*
X837537Y-236134D01*
X840161D01*
X841473Y-237446D01*
Y-238758D01*
X836226D01*
X844097Y-241382D02*
X848033D01*
X849345Y-240070D01*
X848033Y-238758D01*
X845409D01*
X844097Y-237446D01*
X845409Y-236134D01*
X849345D01*
X854592Y-244006D02*
X855904D01*
X857216Y-242694D01*
Y-236134D01*
X853280D01*
X851968Y-237446D01*
Y-240070D01*
X853280Y-241382D01*
X857216D01*
X859840D02*
X862464D01*
X861152D01*
Y-236134D01*
X859840D01*
X866399Y-241382D02*
Y-236134D01*
X870335D01*
X871647Y-237446D01*
Y-241382D01*
X878207D02*
X875583D01*
X874271Y-240070D01*
Y-237446D01*
X875583Y-236134D01*
X878207D01*
X879519Y-237446D01*
Y-238758D01*
X874271D01*
X882143Y-236134D02*
Y-241382D01*
Y-238758D01*
X883454Y-237446D01*
X884766Y-236134D01*
X886078D01*
X1025204Y-115400D02*
Y-123272D01*
X1029140D01*
X1030452Y-121960D01*
Y-116712D01*
X1029140Y-115400D01*
X1025204D01*
X1034388Y-123272D02*
X1037012D01*
X1038323Y-121960D01*
Y-119336D01*
X1037012Y-118024D01*
X1034388D01*
X1033076Y-119336D01*
Y-121960D01*
X1034388Y-123272D01*
X1046195Y-118024D02*
X1042259D01*
X1040947Y-119336D01*
Y-121960D01*
X1042259Y-123272D01*
X1046195D01*
X1048819Y-118024D02*
Y-121960D01*
X1050131Y-123272D01*
X1054066D01*
Y-118024D01*
X1056690Y-123272D02*
Y-118024D01*
X1058002D01*
X1059314Y-119336D01*
Y-123272D01*
Y-119336D01*
X1060626Y-118024D01*
X1061938Y-119336D01*
Y-123272D01*
X1068498D02*
X1065874D01*
X1064562Y-121960D01*
Y-119336D01*
X1065874Y-118024D01*
X1068498D01*
X1069810Y-119336D01*
Y-120648D01*
X1064562D01*
X1072433Y-123272D02*
Y-118024D01*
X1076369D01*
X1077681Y-119336D01*
Y-123272D01*
X1081617Y-116712D02*
Y-118024D01*
X1080305D01*
X1082929D01*
X1081617D01*
Y-121960D01*
X1082929Y-123272D01*
X1025204Y-154770D02*
Y-162642D01*
X1030452D01*
X1034388Y-157394D02*
X1037012D01*
X1038323Y-158706D01*
Y-162642D01*
X1034388D01*
X1033076Y-161330D01*
X1034388Y-160018D01*
X1038323D01*
X1040947Y-157394D02*
Y-161330D01*
X1042259Y-162642D01*
X1046195D01*
Y-163954D01*
X1044883Y-165266D01*
X1043571D01*
X1046195Y-162642D02*
Y-157394D01*
X1052755Y-162642D02*
X1050131D01*
X1048819Y-161330D01*
Y-158706D01*
X1050131Y-157394D01*
X1052755D01*
X1054066Y-158706D01*
Y-160018D01*
X1048819D01*
X1056690Y-157394D02*
Y-162642D01*
Y-160018D01*
X1058002Y-158706D01*
X1059314Y-157394D01*
X1060626D01*
X1072433Y-162642D02*
Y-154770D01*
X1077681Y-162642D01*
Y-154770D01*
X1081617Y-157394D02*
X1084241D01*
X1085552Y-158706D01*
Y-162642D01*
X1081617D01*
X1080305Y-161330D01*
X1081617Y-160018D01*
X1085552D01*
X1088176Y-162642D02*
Y-157394D01*
X1089488D01*
X1090800Y-158706D01*
Y-162642D01*
Y-158706D01*
X1092112Y-157394D01*
X1093424Y-158706D01*
Y-162642D01*
X1099984D02*
X1097360D01*
X1096048Y-161330D01*
Y-158706D01*
X1097360Y-157394D01*
X1099984D01*
X1101295Y-158706D01*
Y-160018D01*
X1096048D01*
X1025204Y-194141D02*
Y-202012D01*
X1029140D01*
X1030452Y-200700D01*
Y-195452D01*
X1029140Y-194141D01*
X1025204D01*
X1034388Y-196764D02*
X1037012D01*
X1038323Y-198076D01*
Y-202012D01*
X1034388D01*
X1033076Y-200700D01*
X1034388Y-199388D01*
X1038323D01*
X1042259Y-195452D02*
Y-196764D01*
X1040947D01*
X1043571D01*
X1042259D01*
Y-200700D01*
X1043571Y-202012D01*
X1051443D02*
X1048819D01*
X1047507Y-200700D01*
Y-198076D01*
X1048819Y-196764D01*
X1051443D01*
X1052755Y-198076D01*
Y-199388D01*
X1047507D01*
X1025204Y-233511D02*
Y-241382D01*
X1029140D01*
X1030452Y-240070D01*
Y-234823D01*
X1029140Y-233511D01*
X1025204D01*
X1034388Y-241382D02*
X1037012D01*
X1038323Y-240070D01*
Y-237446D01*
X1037012Y-236134D01*
X1034388D01*
X1033076Y-237446D01*
Y-240070D01*
X1034388Y-241382D01*
X1046195Y-236134D02*
X1042259D01*
X1040947Y-237446D01*
Y-240070D01*
X1042259Y-241382D01*
X1046195D01*
X1048819Y-236134D02*
Y-240070D01*
X1050131Y-241382D01*
X1054066D01*
Y-236134D01*
X1056690Y-241382D02*
Y-236134D01*
X1058002D01*
X1059314Y-237446D01*
Y-241382D01*
Y-237446D01*
X1060626Y-236134D01*
X1061938Y-237446D01*
Y-241382D01*
X1068498D02*
X1065874D01*
X1064562Y-240070D01*
Y-237446D01*
X1065874Y-236134D01*
X1068498D01*
X1069810Y-237446D01*
Y-238758D01*
X1064562D01*
X1072433Y-241382D02*
Y-236134D01*
X1076369D01*
X1077681Y-237446D01*
Y-241382D01*
X1081617Y-234823D02*
Y-236134D01*
X1080305D01*
X1082929D01*
X1081617D01*
Y-240070D01*
X1082929Y-241382D01*
D66*
X20285Y177165D02*
G03*
X20285Y177165I-600J0D01*
G01*
X20685D02*
G03*
X20685Y177165I-1000J0D01*
G01*
X335246Y177165D02*
G03*
X335246Y177165I-600J0D01*
G01*
X335646D02*
G03*
X335646Y177165I-1000J0D01*
G01*
X335246Y19685D02*
G03*
X335246Y19685I-600J0D01*
G01*
X335646D02*
G03*
X335646Y19685I-1000J0D01*
G01*
X20285Y19685D02*
G03*
X20285Y19685I-600J0D01*
G01*
X20685D02*
G03*
X20685Y19685I-1000J0D01*
G01*
X337024Y103740D02*
G03*
X337024Y103740I-1000J0D01*
G01*
Y72323D02*
G03*
X337024Y72323I-1000J0D01*
G01*
X268888Y89557D02*
X270088D01*
Y90758D01*
X268888D02*
X270088D01*
X268888Y89557D02*
Y90758D01*
X268488Y89157D02*
X270488D01*
Y91158D01*
X268488D02*
X270488D01*
X268488Y89157D02*
Y91158D01*
X268888Y86408D02*
X270088D01*
Y87608D01*
X268888D02*
X270088D01*
X268888Y86408D02*
Y87608D01*
X268488Y86008D02*
X270488D01*
Y88008D01*
X268488D02*
X270488D01*
X268488Y86008D02*
Y88008D01*
X299203Y78337D02*
X300403D01*
Y79537D01*
X299203D02*
X300403D01*
X299203Y78337D02*
Y79537D01*
X298803Y77937D02*
X300803D01*
Y79937D01*
X298803D02*
X300803D01*
X298803Y77937D02*
Y79937D01*
X301959Y59833D02*
X303159D01*
Y61033D01*
X301959D02*
X303159D01*
X301959Y59833D02*
Y61033D01*
X301559Y59433D02*
X303559D01*
Y61433D01*
X301559D02*
X303559D01*
X301559Y59433D02*
Y61433D01*
X290148Y59833D02*
X291348D01*
Y61033D01*
X290148D02*
X291348D01*
X290148Y59833D02*
Y61033D01*
X289748Y59433D02*
X291748D01*
Y61433D01*
X289748D02*
X291748D01*
X289748Y59433D02*
Y61433D01*
X333849Y54321D02*
X335049D01*
Y55521D01*
X333849D02*
X335049D01*
X333849Y54321D02*
Y55521D01*
X333449Y53921D02*
X335449D01*
Y55921D01*
X333449D02*
X335449D01*
X333449Y53921D02*
Y55921D01*
X333849Y66132D02*
X335049D01*
Y67332D01*
X333849D02*
X335049D01*
X333849Y66132D02*
Y67332D01*
X333449Y65732D02*
X335449D01*
Y67732D01*
X333449D02*
X335449D01*
X333449Y65732D02*
Y67732D01*
X301959Y118494D02*
X303159D01*
Y119694D01*
X301959D02*
X303159D01*
X301959Y118494D02*
Y119694D01*
X301559Y118095D02*
X303559D01*
Y120095D01*
X301559D02*
X303559D01*
X301559Y118095D02*
Y120095D01*
X290148Y118494D02*
X291348D01*
Y119694D01*
X290148D02*
X291348D01*
X290148Y118494D02*
Y119694D01*
X289748Y118095D02*
X291748D01*
Y120095D01*
X289748D02*
X291748D01*
X289748Y118095D02*
Y120095D01*
X333849Y127943D02*
X335049D01*
Y129143D01*
X333849D02*
X335049D01*
X333849Y127943D02*
Y129143D01*
X333449Y127543D02*
X335449D01*
Y129543D01*
X333449D02*
X335449D01*
X333449Y127543D02*
Y129543D01*
X333849Y116132D02*
X335049D01*
Y117332D01*
X333849D02*
X335049D01*
X333849Y116132D02*
Y117332D01*
X333449Y115732D02*
X335449D01*
Y117732D01*
X333449D02*
X335449D01*
X333449Y115732D02*
Y117732D01*
X217707Y74597D02*
X218907D01*
Y75797D01*
X217707D02*
X218907D01*
X217707Y74597D02*
Y75797D01*
X217307Y74197D02*
X219307D01*
Y76197D01*
X217307D02*
X219307D01*
X217307Y74197D02*
Y76197D01*
X217707Y71447D02*
X218907D01*
Y72647D01*
X217707D02*
X218907D01*
X217707Y71447D02*
Y72647D01*
X217307Y71047D02*
X219307D01*
Y73047D01*
X217307D02*
X219307D01*
X217307Y71047D02*
Y73047D01*
X196054Y74597D02*
X197254D01*
Y75797D01*
X196054D02*
X197254D01*
X196054Y74597D02*
Y75797D01*
X195653Y74197D02*
X197653D01*
Y76197D01*
X195653D02*
X197653D01*
X195653Y74197D02*
Y76197D01*
X166723Y81093D02*
X167923D01*
Y82293D01*
X166723D02*
X167923D01*
X166723Y81093D02*
Y82293D01*
X166323Y80693D02*
X168323D01*
Y82693D01*
X166323D02*
X168323D01*
X166323Y80693D02*
Y82693D01*
X203140Y58455D02*
X204340D01*
Y59655D01*
X203140D02*
X204340D01*
X203140Y58455D02*
Y59655D01*
X202740Y58055D02*
X204740D01*
Y60055D01*
X202740D02*
X204740D01*
X202740Y58055D02*
Y60055D01*
X196054Y71447D02*
X197254D01*
Y72647D01*
X196054D02*
X197254D01*
X196054Y71447D02*
Y72647D01*
X195653Y71047D02*
X197653D01*
Y73047D01*
X195653D02*
X197653D01*
X195653Y71047D02*
Y73047D01*
X200187Y58455D02*
X201387D01*
Y59655D01*
X200187D02*
X201387D01*
X200187Y58455D02*
Y59655D01*
X199787Y58055D02*
X201787D01*
Y60055D01*
X199787D02*
X201787D01*
X199787Y58055D02*
Y60055D01*
X249065Y142510D02*
X250265D01*
Y143710D01*
X249065D02*
X250265D01*
X249065Y142510D02*
Y143710D01*
X248665Y142110D02*
X250665D01*
Y144110D01*
X248665D02*
X250665D01*
X248665Y142110D02*
Y144110D01*
X254065Y142510D02*
X255265D01*
Y143710D01*
X254065D02*
X255265D01*
X254065Y142510D02*
Y143710D01*
X253665Y142110D02*
X255665D01*
Y144110D01*
X253665D02*
X255665D01*
X253665Y142110D02*
Y144110D01*
X70266Y152943D02*
X71466D01*
Y154143D01*
X70266D02*
X71466D01*
X70266Y152943D02*
Y154143D01*
X69866Y152543D02*
X71866D01*
Y154543D01*
X69866D02*
X71866D01*
X69866Y152543D02*
Y154543D01*
X282865Y153928D02*
X284065D01*
Y155128D01*
X282865D02*
X284065D01*
X282865Y153928D02*
Y155128D01*
X282465Y153528D02*
X284465D01*
Y155528D01*
X282465D02*
X284465D01*
X282465Y153528D02*
Y155528D01*
X154518Y83061D02*
X155718D01*
Y84261D01*
X154518D02*
X155718D01*
X154518Y83061D02*
Y84261D01*
X154118Y82661D02*
X156118D01*
Y84661D01*
X154118D02*
X156118D01*
X154118Y82661D02*
Y84661D01*
X192904Y76073D02*
X194104D01*
Y77273D01*
X192904D02*
X194104D01*
X192904Y76073D02*
Y77273D01*
X192504Y75673D02*
X194504D01*
Y77673D01*
X192504D02*
X194504D01*
X192504Y75673D02*
Y77673D01*
X57965Y65839D02*
X58465Y65339D01*
X57465Y65839D02*
X57965D01*
X57465D02*
X57965Y66339D01*
X57465Y66839D02*
X57965Y66339D01*
X57465Y66839D02*
X57965D01*
X58465Y67339D01*
X58965Y66839D01*
X59465D01*
X58965Y66339D02*
X59465Y66839D01*
X58965Y66339D02*
X59465Y65839D01*
X58965D02*
X59465D01*
X58465Y65339D02*
X58965Y65839D01*
X98516D02*
X99016Y65339D01*
X98016Y65839D02*
X98516D01*
X98016D02*
X98516Y66339D01*
X98016Y66839D02*
X98516Y66339D01*
X98016Y66839D02*
X98516D01*
X99016Y67339D01*
X99516Y66839D01*
X100016D01*
X99516Y66339D02*
X100016Y66839D01*
X99516Y66339D02*
X100016Y65839D01*
X99516D02*
X100016D01*
X99016Y65339D02*
X99516Y65839D01*
X57465Y50772D02*
X58465Y51272D01*
X59465Y50772D01*
X58965Y51772D02*
X59465Y50772D01*
X58965Y51772D02*
X59465Y52772D01*
X58465Y52272D02*
X59465Y52772D01*
X57465D02*
X58465Y52272D01*
X57465Y52772D02*
X57965Y51772D01*
X57465Y50772D02*
X57965Y51772D01*
X98016Y50772D02*
X99016Y51272D01*
X100016Y50772D01*
X99516Y51772D02*
X100016Y50772D01*
X99516Y51772D02*
X100016Y52772D01*
X99016Y52272D02*
X100016Y52772D01*
X98016D02*
X99016Y52272D01*
X98016Y52772D02*
X98516Y51772D01*
X98016Y50772D02*
X98516Y51772D01*
Y40248D02*
X99016Y39748D01*
X98016Y40248D02*
X98516D01*
X98016D02*
X98516Y40748D01*
X98016Y41248D02*
X98516Y40748D01*
X98016Y41248D02*
X98516D01*
X99016Y41748D01*
X99516Y41248D01*
X100016D01*
X99516Y40748D02*
X100016Y41248D01*
X99516Y40748D02*
X100016Y40248D01*
X99516D02*
X100016D01*
X99016Y39748D02*
X99516Y40248D01*
X57965D02*
X58465Y39748D01*
X57465Y40248D02*
X57965D01*
X57465D02*
X57965Y40748D01*
X57465Y41248D02*
X57965Y40748D01*
X57465Y41248D02*
X57965D01*
X58465Y41748D01*
X58965Y41248D01*
X59465D01*
X58965Y40748D02*
X59465Y41248D01*
X58965Y40748D02*
X59465Y40248D01*
X58965D02*
X59465D01*
X58465Y39748D02*
X58965Y40248D01*
X227221Y21433D02*
X228221Y23433D01*
X226220D02*
X228221D01*
X226220D02*
X227221Y21433D01*
X245220D02*
X246220Y23433D01*
X244220D02*
X246220D01*
X244220D02*
X245220Y21433D01*
Y47433D02*
X246220Y49433D01*
X244220D02*
X246220D01*
X244220D02*
X245220Y47433D01*
X227221D02*
X228221Y49433D01*
X226220D02*
X228221D01*
X226220D02*
X227221Y47433D01*
X187850Y21433D02*
X188850Y23433D01*
X186850D02*
X188850D01*
X186850D02*
X187850Y21433D01*
X205850D02*
X206850Y23433D01*
X204850D02*
X206850D01*
X204850D02*
X205850Y21433D01*
Y47433D02*
X206850Y49433D01*
X204850D02*
X206850D01*
X204850D02*
X205850Y47433D01*
X187850D02*
X188850Y49433D01*
X186850D02*
X188850D01*
X186850D02*
X187850Y47433D01*
X148480Y21433D02*
X149480Y23433D01*
X147480D02*
X149480D01*
X147480D02*
X148480Y21433D01*
X166480D02*
X167480Y23433D01*
X165480D02*
X167480D01*
X165480D02*
X166480Y21433D01*
Y47433D02*
X167480Y49433D01*
X165480D02*
X167480D01*
X165480D02*
X166480Y47433D01*
X148480D02*
X149480Y49433D01*
X147480D02*
X149480D01*
X147480D02*
X148480Y47433D01*
X266590Y41118D02*
X267590Y43118D01*
X265591D02*
X267590D01*
X265591D02*
X266590Y41118D01*
X284591D02*
X285591Y43118D01*
X283591D02*
X285591D01*
X283591D02*
X284591Y41118D01*
Y67118D02*
X285591Y69118D01*
X283591D02*
X285591D01*
X283591D02*
X284591Y67118D01*
X266590D02*
X267590Y69118D01*
X265591D02*
X267590D01*
X265591D02*
X266590Y67118D01*
X335772Y46244D02*
X337772D01*
Y48244D01*
X335772D02*
X337772D01*
X335772Y46244D02*
Y48244D01*
X325772Y46244D02*
X327772D01*
Y48244D01*
X325772D02*
X327772D01*
X325772Y46244D02*
Y48244D01*
X315772Y46244D02*
X317772D01*
Y48244D01*
X315772D02*
X317772D01*
X315772Y46244D02*
Y48244D01*
X305772Y46244D02*
X307772D01*
Y48244D01*
X305772D02*
X307772D01*
X305772Y46244D02*
Y48244D01*
X223410Y77622D02*
X225410D01*
Y79622D01*
X223410D02*
X225410D01*
X223410Y77622D02*
Y79622D01*
Y67622D02*
X225410D01*
Y69622D01*
X223410D02*
X225410D01*
X223410Y67622D02*
Y69622D01*
X40339Y70850D02*
X41339Y71350D01*
X42339Y70850D01*
X41839Y71850D02*
X42339Y70850D01*
X41839Y71850D02*
X42339Y72850D01*
X41339Y72350D02*
X42339Y72850D01*
X40339D02*
X41339Y72350D01*
X40339Y72850D02*
X40839Y71850D01*
X40339Y70850D02*
X40839Y71850D01*
X20653Y70850D02*
X21654Y71350D01*
X22654Y70850D01*
X22153Y71850D02*
X22654Y70850D01*
X22153Y71850D02*
X22654Y72850D01*
X21654Y72350D02*
X22654Y72850D01*
X20653D02*
X21654Y72350D01*
X20653Y72850D02*
X21154Y71850D01*
X20653Y70850D02*
X21154Y71850D01*
X30496Y127937D02*
X31496Y128437D01*
X32496Y127937D01*
X31996Y128937D02*
X32496Y127937D01*
X31996Y128937D02*
X32496Y129937D01*
X31496Y129437D02*
X32496Y129937D01*
X30496D02*
X31496Y129437D01*
X30496Y129937D02*
X30996Y128937D01*
X30496Y127937D02*
X30996Y128937D01*
X20653Y127937D02*
X21654Y128437D01*
X22654Y127937D01*
X22153Y128937D02*
X22654Y127937D01*
X22153Y128937D02*
X22654Y129937D01*
X21654Y129437D02*
X22654Y129937D01*
X20653D02*
X21654Y129437D01*
X20653Y129937D02*
X21154Y128937D01*
X20653Y127937D02*
X21154Y128937D01*
X40339Y127937D02*
X41339Y128437D01*
X42339Y127937D01*
X41839Y128937D02*
X42339Y127937D01*
X41839Y128937D02*
X42339Y129937D01*
X41339Y129437D02*
X42339Y129937D01*
X40339D02*
X41339Y129437D01*
X40339Y129937D02*
X40839Y128937D01*
X40339Y127937D02*
X40839Y128937D01*
X8055Y98909D02*
X8555D01*
X8055D02*
Y99910D01*
X8555D01*
Y100409D01*
X9555D01*
Y99910D02*
Y100409D01*
Y99910D02*
X10055D01*
Y98909D02*
Y99910D01*
X9555Y98909D02*
X10055D01*
X9555Y98409D02*
Y98909D01*
X8555Y98409D02*
X9555D01*
X8555D02*
Y98909D01*
X52937D02*
X53437D01*
X52937D02*
Y99910D01*
X53437D01*
Y100409D01*
X54437D01*
Y99910D02*
Y100409D01*
Y99910D02*
X54937D01*
Y98909D02*
Y99910D01*
X54437Y98909D02*
X54937D01*
X54437Y98409D02*
Y98909D01*
X53437Y98409D02*
X54437D01*
X53437D02*
Y98909D01*
X71260Y165339D02*
X72260Y167339D01*
X70260D02*
X72260D01*
X70260D02*
X71260Y165339D01*
X283071D02*
X284071Y167339D01*
X282071D02*
X284071D01*
X282071D02*
X283071Y165339D01*
X227346Y176953D02*
Y177453D01*
X227847Y177953D01*
X227346Y178453D02*
X227847Y177953D01*
X227346Y178453D02*
Y178953D01*
X227847D01*
X228346Y178453D01*
X228847Y178953D01*
X229346D01*
Y178453D02*
Y178953D01*
X228847Y177953D02*
X229346Y178453D01*
X228847Y177953D02*
X229346Y177453D01*
Y176953D02*
Y177453D01*
X228847Y176953D02*
X229346D01*
X228346Y177453D02*
X228847Y176953D01*
X227847D02*
X228346Y177453D01*
X227346Y176953D02*
X227847D01*
X124984D02*
Y177453D01*
X125484Y177953D01*
X124984Y178453D02*
X125484Y177953D01*
X124984Y178453D02*
Y178953D01*
X125484D01*
X125984Y178453D01*
X126484Y178953D01*
X126984D01*
Y178453D02*
Y178953D01*
X126484Y177953D02*
X126984Y178453D01*
X126484Y177953D02*
X126984Y177453D01*
Y176953D02*
Y177453D01*
X126484Y176953D02*
X126984D01*
X125984Y177453D02*
X126484Y176953D01*
X125484D02*
X125984Y177453D01*
X124984Y176953D02*
X125484D01*
X282465Y184488D02*
X283465Y183488D01*
X284465Y184488D01*
X283465Y185488D02*
X284465Y184488D01*
X282465D02*
X283465Y185488D01*
X69866Y184488D02*
X70866Y183488D01*
X71866Y184488D01*
X70866Y185488D02*
X71866Y184488D01*
X69866D02*
X70866Y185488D01*
D67*
X1185314Y212598D02*
Y216377D01*
X1187203D01*
X1187833Y215747D01*
Y214488D01*
X1187203Y213858D01*
X1185314D01*
X1186574D02*
X1187833Y212598D01*
X1189722D02*
X1190982D01*
X1191611Y213228D01*
Y214488D01*
X1190982Y215117D01*
X1189722D01*
X1189092Y214488D01*
Y213228D01*
X1189722Y212598D01*
X1192871Y215117D02*
Y213228D01*
X1193500Y212598D01*
X1195390D01*
Y215117D01*
X1197279Y215747D02*
Y215117D01*
X1196649D01*
X1197908D01*
X1197279D01*
Y213228D01*
X1197908Y212598D01*
X1201687D02*
X1200427D01*
X1199798Y213228D01*
Y214488D01*
X1200427Y215117D01*
X1201687D01*
X1202316Y214488D01*
Y213858D01*
X1199798D01*
X1206095Y216377D02*
Y212598D01*
X1204206D01*
X1203576Y213228D01*
Y214488D01*
X1204206Y215117D01*
X1206095D01*
X1211133Y212598D02*
Y216377D01*
X1213022D01*
X1213651Y215747D01*
Y214488D01*
X1213022Y213858D01*
X1211133D01*
X1215541Y215117D02*
X1216800D01*
X1217430Y214488D01*
Y212598D01*
X1215541D01*
X1214911Y213228D01*
X1215541Y213858D01*
X1217430D01*
X1219319Y215747D02*
Y215117D01*
X1218689D01*
X1219949D01*
X1219319D01*
Y213228D01*
X1219949Y212598D01*
X1221838Y216377D02*
Y212598D01*
Y214488D01*
X1222468Y215117D01*
X1223727D01*
X1224357Y214488D01*
Y212598D01*
X1229394Y216377D02*
Y212598D01*
X1231913D01*
X1235062D02*
X1233802D01*
X1233173Y213228D01*
Y214488D01*
X1233802Y215117D01*
X1235062D01*
X1235692Y214488D01*
Y213858D01*
X1233173D01*
X1236951Y212598D02*
Y215117D01*
X1238840D01*
X1239470Y214488D01*
Y212598D01*
X1241989Y211339D02*
X1242618D01*
X1243248Y211969D01*
Y215117D01*
X1241359D01*
X1240729Y214488D01*
Y213228D01*
X1241359Y212598D01*
X1243248D01*
X1245137Y215747D02*
Y215117D01*
X1244508D01*
X1245767D01*
X1245137D01*
Y213228D01*
X1245767Y212598D01*
X1247656Y216377D02*
Y212598D01*
Y214488D01*
X1248286Y215117D01*
X1249545D01*
X1250175Y214488D01*
Y212598D01*
X1123783Y216377D02*
Y212598D01*
Y214488D01*
X1126302D01*
Y216377D01*
Y212598D01*
X1128191D02*
X1129451D01*
X1130081Y213228D01*
Y214488D01*
X1129451Y215117D01*
X1128191D01*
X1127562Y214488D01*
Y213228D01*
X1128191Y212598D01*
X1131340D02*
X1132600D01*
X1131970D01*
Y216377D01*
X1131340D01*
X1136378Y212598D02*
X1135118D01*
X1134489Y213228D01*
Y214488D01*
X1135118Y215117D01*
X1136378D01*
X1137008Y214488D01*
Y213858D01*
X1134489D01*
X1142045Y216377D02*
Y212598D01*
X1144564D01*
X1147713D02*
X1146453D01*
X1145824Y213228D01*
Y214488D01*
X1146453Y215117D01*
X1147713D01*
X1148343Y214488D01*
Y213858D01*
X1145824D01*
X1149602Y212598D02*
Y215117D01*
X1151491D01*
X1152121Y214488D01*
Y212598D01*
X1154640Y211339D02*
X1155269D01*
X1155899Y211969D01*
Y215117D01*
X1154010D01*
X1153380Y214488D01*
Y213228D01*
X1154010Y212598D01*
X1155899D01*
X1157788Y215747D02*
Y215117D01*
X1157159D01*
X1158418D01*
X1157788D01*
Y213228D01*
X1158418Y212598D01*
X1160307Y216377D02*
Y212598D01*
Y214488D01*
X1160937Y215117D01*
X1162196D01*
X1162826Y214488D01*
Y212598D01*
X1063827Y216377D02*
X1066346D01*
X1065087D01*
Y212598D01*
X1069495D02*
X1068235D01*
X1067605Y213228D01*
Y214488D01*
X1068235Y215117D01*
X1069495D01*
X1070124Y214488D01*
Y213858D01*
X1067605D01*
X1071384Y212598D02*
Y215117D01*
X1072014D01*
X1072643Y214488D01*
Y212598D01*
Y214488D01*
X1073273Y215117D01*
X1073903Y214488D01*
Y212598D01*
X1075162Y211339D02*
Y215117D01*
X1077051D01*
X1077681Y214488D01*
Y213228D01*
X1077051Y212598D01*
X1075162D01*
X1078940D02*
X1080200D01*
X1079570D01*
Y216377D01*
X1078940D01*
X1082719Y215117D02*
X1083978D01*
X1084608Y214488D01*
Y212598D01*
X1082719D01*
X1082089Y213228D01*
X1082719Y213858D01*
X1084608D01*
X1086497Y215747D02*
Y215117D01*
X1085867D01*
X1087127D01*
X1086497D01*
Y213228D01*
X1087127Y212598D01*
X1090905D02*
X1089646D01*
X1089016Y213228D01*
Y214488D01*
X1089646Y215117D01*
X1090905D01*
X1091535Y214488D01*
Y213858D01*
X1089016D01*
X1006495Y212598D02*
Y216377D01*
X1008384D01*
X1009014Y215747D01*
Y214488D01*
X1008384Y213858D01*
X1006495D01*
X1010903Y215117D02*
X1012162D01*
X1012792Y214488D01*
Y212598D01*
X1010903D01*
X1010273Y213228D01*
X1010903Y213858D01*
X1012792D01*
X1016570Y216377D02*
Y212598D01*
X1014681D01*
X1014051Y213228D01*
Y214488D01*
X1014681Y215117D01*
X1016570D01*
X1024127Y215747D02*
X1023497Y216377D01*
X1022238D01*
X1021608Y215747D01*
Y215117D01*
X1022238Y214488D01*
X1023497D01*
X1024127Y213858D01*
Y213228D01*
X1023497Y212598D01*
X1022238D01*
X1021608Y213228D01*
X1025386Y216377D02*
Y212598D01*
Y214488D01*
X1026016Y215117D01*
X1027275D01*
X1027905Y214488D01*
Y212598D01*
X1029794Y215117D02*
X1031054D01*
X1031684Y214488D01*
Y212598D01*
X1029794D01*
X1029165Y213228D01*
X1029794Y213858D01*
X1031684D01*
X1032943Y211339D02*
Y215117D01*
X1034832D01*
X1035462Y214488D01*
Y213228D01*
X1034832Y212598D01*
X1032943D01*
X1038610D02*
X1037351D01*
X1036721Y213228D01*
Y214488D01*
X1037351Y215117D01*
X1038610D01*
X1039240Y214488D01*
Y213858D01*
X1036721D01*
X975322Y216377D02*
Y213858D01*
X976581Y212598D01*
X977841Y213858D01*
Y216377D01*
X979100Y212598D02*
X980359D01*
X979730D01*
Y215117D01*
X979100D01*
X982878D02*
X984138D01*
X984767Y214488D01*
Y212598D01*
X982878D01*
X982248Y213228D01*
X982878Y213858D01*
X984767D01*
X986027Y212598D02*
X988546Y215117D01*
X989805Y212598D02*
Y216377D01*
X991694D01*
X992324Y215747D01*
Y214488D01*
X991694Y213858D01*
X989805D01*
X994213Y215117D02*
X995473D01*
X996102Y214488D01*
Y212598D01*
X994213D01*
X993583Y213228D01*
X994213Y213858D01*
X996102D01*
X999881Y216377D02*
Y212598D01*
X997991D01*
X997362Y213228D01*
Y214488D01*
X997991Y215117D01*
X999881D01*
X896474Y216377D02*
Y212598D01*
X898363D01*
X898993Y213228D01*
Y215747D01*
X898363Y216377D01*
X896474D01*
X900252Y215117D02*
Y212598D01*
Y213858D01*
X900882Y214488D01*
X901511Y215117D01*
X902141D01*
X904030Y212598D02*
X905290D01*
X904660D01*
Y215117D01*
X904030D01*
X907179Y212598D02*
X908438D01*
X907809D01*
Y216377D01*
X907179D01*
X910328Y212598D02*
X911587D01*
X910957D01*
Y216377D01*
X910328D01*
X917255D02*
Y212598D01*
X919773D01*
X921663Y215117D02*
X922922D01*
X923552Y214488D01*
Y212598D01*
X921663D01*
X921033Y213228D01*
X921663Y213858D01*
X923552D01*
X924811Y215117D02*
Y213228D01*
X925441Y212598D01*
X927330D01*
Y211969D01*
X926700Y211339D01*
X926070D01*
X927330Y212598D02*
Y215117D01*
X930478Y212598D02*
X929219D01*
X928589Y213228D01*
Y214488D01*
X929219Y215117D01*
X930478D01*
X931108Y214488D01*
Y213858D01*
X928589D01*
X932368Y215117D02*
Y212598D01*
Y213858D01*
X932997Y214488D01*
X933627Y215117D01*
X934257D01*
X939924Y212598D02*
Y216377D01*
X941813D01*
X942443Y215747D01*
Y214488D01*
X941813Y213858D01*
X939924D01*
X944332Y215117D02*
X945592D01*
X946222Y214488D01*
Y212598D01*
X944332D01*
X943703Y213228D01*
X944332Y213858D01*
X946222D01*
X947481Y212598D02*
X948740D01*
X948111D01*
Y215117D01*
X947481D01*
X950630D02*
Y212598D01*
Y213858D01*
X951259Y214488D01*
X951889Y215117D01*
X952519D01*
X857744Y216377D02*
Y212598D01*
Y214488D01*
X860263D01*
Y216377D01*
Y212598D01*
X862152D02*
X863411D01*
X864041Y213228D01*
Y214488D01*
X863411Y215117D01*
X862152D01*
X861522Y214488D01*
Y213228D01*
X862152Y212598D01*
X865301D02*
X866560D01*
X865930D01*
Y216377D01*
X865301D01*
X870338Y212598D02*
X869079D01*
X868449Y213228D01*
Y214488D01*
X869079Y215117D01*
X870338D01*
X870968Y214488D01*
Y213858D01*
X868449D01*
X876006Y216377D02*
X878525D01*
X877265D01*
Y212598D01*
X879784Y215117D02*
Y213228D01*
X880414Y212598D01*
X882303D01*
Y211969D01*
X881673Y211339D01*
X881044D01*
X882303Y212598D02*
Y215117D01*
X883562Y211339D02*
Y215117D01*
X885452D01*
X886081Y214488D01*
Y213228D01*
X885452Y212598D01*
X883562D01*
X889230D02*
X887970D01*
X887341Y213228D01*
Y214488D01*
X887970Y215117D01*
X889230D01*
X889860Y214488D01*
Y213858D01*
X887341D01*
X830979Y212598D02*
Y216377D01*
X832868D01*
X833498Y215747D01*
Y214488D01*
X832868Y213858D01*
X830979D01*
X834757Y212598D02*
X836017D01*
X835387D01*
Y216377D01*
X834757D01*
X838535Y215117D02*
X839795D01*
X840425Y214488D01*
Y212598D01*
X838535D01*
X837906Y213228D01*
X838535Y213858D01*
X840425D01*
X842314Y215747D02*
Y215117D01*
X841684D01*
X842943D01*
X842314D01*
Y213228D01*
X842943Y212598D01*
X846722D02*
X845462D01*
X844833Y213228D01*
Y214488D01*
X845462Y215117D01*
X846722D01*
X847351Y214488D01*
Y213858D01*
X844833D01*
X851130Y216377D02*
Y212598D01*
X849241D01*
X848611Y213228D01*
Y214488D01*
X849241Y215117D01*
X851130D01*
X769448Y216377D02*
Y212598D01*
Y214488D01*
X771967D01*
Y216377D01*
Y212598D01*
X773856D02*
X775116D01*
X775745Y213228D01*
Y214488D01*
X775116Y215117D01*
X773856D01*
X773227Y214488D01*
Y213228D01*
X773856Y212598D01*
X777005D02*
X778264D01*
X777635D01*
Y216377D01*
X777005D01*
X782043Y212598D02*
X780783D01*
X780153Y213228D01*
Y214488D01*
X780783Y215117D01*
X782043D01*
X782672Y214488D01*
Y213858D01*
X780153D01*
X790229Y215747D02*
X789599Y216377D01*
X788340D01*
X787710Y215747D01*
Y215117D01*
X788340Y214488D01*
X789599D01*
X790229Y213858D01*
Y213228D01*
X789599Y212598D01*
X788340D01*
X787710Y213228D01*
X791488Y212598D02*
X792748D01*
X792118D01*
Y215117D01*
X791488D01*
X794637D02*
X797156D01*
X794637Y212598D01*
X797156D01*
X800304D02*
X799045D01*
X798415Y213228D01*
Y214488D01*
X799045Y215117D01*
X800304D01*
X800934Y214488D01*
Y213858D01*
X798415D01*
X744022Y215747D02*
X743392Y216377D01*
X742132D01*
X741503Y215747D01*
Y213228D01*
X742132Y212598D01*
X743392D01*
X744022Y213228D01*
X745911Y212598D02*
X747170D01*
X747800Y213228D01*
Y214488D01*
X747170Y215117D01*
X745911D01*
X745281Y214488D01*
Y213228D01*
X745911Y212598D01*
X749059Y215117D02*
Y213228D01*
X749689Y212598D01*
X751578D01*
Y215117D01*
X752838Y212598D02*
Y215117D01*
X754727D01*
X755356Y214488D01*
Y212598D01*
X757246Y215747D02*
Y215117D01*
X756616D01*
X757875D01*
X757246D01*
Y213228D01*
X757875Y212598D01*
X717256Y215747D02*
X716627Y216377D01*
X715367D01*
X714738Y215747D01*
Y215117D01*
X715367Y214488D01*
X716627D01*
X717256Y213858D01*
Y213228D01*
X716627Y212598D01*
X715367D01*
X714738Y213228D01*
X718516Y215117D02*
Y213228D01*
X719145Y212598D01*
X721035D01*
Y211969D01*
X720405Y211339D01*
X719775D01*
X721035Y212598D02*
Y215117D01*
X722294Y212598D02*
Y215117D01*
X722924D01*
X723554Y214488D01*
Y212598D01*
Y214488D01*
X724183Y215117D01*
X724813Y214488D01*
Y212598D01*
X726072Y216377D02*
Y212598D01*
X727961D01*
X728591Y213228D01*
Y213858D01*
Y214488D01*
X727961Y215117D01*
X726072D01*
X730480Y212598D02*
X731740D01*
X732370Y213228D01*
Y214488D01*
X731740Y215117D01*
X730480D01*
X729851Y214488D01*
Y213228D01*
X730480Y212598D01*
X733629D02*
X734889D01*
X734259D01*
Y216377D01*
X733629D01*
D68*
X769131Y116012D02*
Y112864D01*
Y114438D01*
X771230D01*
Y116012D01*
Y112864D01*
X772804D02*
X773854D01*
X774378Y113388D01*
Y114438D01*
X773854Y114963D01*
X772804D01*
X772279Y114438D01*
Y113388D01*
X772804Y112864D01*
X775428D02*
X776477D01*
X775953D01*
Y116012D01*
X775428D01*
X779626Y112864D02*
X778577D01*
X778052Y113388D01*
Y114438D01*
X778577Y114963D01*
X779626D01*
X780151Y114438D01*
Y113913D01*
X778052D01*
X784349Y116012D02*
Y112864D01*
X786448D01*
X789072D02*
X788022D01*
X787498Y113388D01*
Y114438D01*
X788022Y114963D01*
X789072D01*
X789597Y114438D01*
Y113913D01*
X787498D01*
X790646Y112864D02*
Y114963D01*
X792220D01*
X792745Y114438D01*
Y112864D01*
X794844Y111814D02*
X795369D01*
X795894Y112339D01*
Y114963D01*
X794319D01*
X793795Y114438D01*
Y113388D01*
X794319Y112864D01*
X795894D01*
X797468Y115488D02*
Y114963D01*
X796943D01*
X797993D01*
X797468D01*
Y113388D01*
X797993Y112864D01*
X799567Y116012D02*
Y112864D01*
Y114438D01*
X800092Y114963D01*
X801141D01*
X801666Y114438D01*
Y112864D01*
X769131Y118243D02*
Y121391D01*
X770705D01*
X771230Y120867D01*
Y119817D01*
X770705Y119292D01*
X769131D01*
X770180D02*
X771230Y118243D01*
X772804D02*
X773854D01*
X774378Y118768D01*
Y119817D01*
X773854Y120342D01*
X772804D01*
X772279Y119817D01*
Y118768D01*
X772804Y118243D01*
X775428Y120342D02*
Y118768D01*
X775953Y118243D01*
X777527D01*
Y120342D01*
X779101Y120867D02*
Y120342D01*
X778576D01*
X779626D01*
X779101D01*
Y118768D01*
X779626Y118243D01*
X782775D02*
X781725D01*
X781200Y118768D01*
Y119817D01*
X781725Y120342D01*
X782775D01*
X783299Y119817D01*
Y119292D01*
X781200D01*
X786448Y121391D02*
Y118243D01*
X784874D01*
X784349Y118768D01*
Y119817D01*
X784874Y120342D01*
X786448D01*
X790646Y118243D02*
Y121391D01*
X792220D01*
X792745Y120867D01*
Y119817D01*
X792220Y119292D01*
X790646D01*
X794319Y120342D02*
X795369D01*
X795894Y119817D01*
Y118243D01*
X794319D01*
X793795Y118768D01*
X794319Y119292D01*
X795894D01*
X797468Y120867D02*
Y120342D01*
X796943D01*
X797993D01*
X797468D01*
Y118768D01*
X797993Y118243D01*
X799567Y121391D02*
Y118243D01*
Y119817D01*
X800092Y120342D01*
X801141D01*
X801666Y119817D01*
Y118243D01*
X805864Y121391D02*
Y118243D01*
X807963D01*
X810587D02*
X809538D01*
X809013Y118768D01*
Y119817D01*
X809538Y120342D01*
X810587D01*
X811112Y119817D01*
Y119292D01*
X809013D01*
X812161Y118243D02*
Y120342D01*
X813736D01*
X814260Y119817D01*
Y118243D01*
X816360Y117193D02*
X816884D01*
X817409Y117718D01*
Y120342D01*
X815835D01*
X815310Y119817D01*
Y118768D01*
X815835Y118243D01*
X817409D01*
X818983Y120867D02*
Y120342D01*
X818459D01*
X819508D01*
X818983D01*
Y118768D01*
X819508Y118243D01*
X821082Y121391D02*
Y118243D01*
Y119817D01*
X821607Y120342D01*
X822657D01*
X823182Y119817D01*
Y118243D01*
X716837Y120867D02*
X716312Y121391D01*
X715262D01*
X714738Y120867D01*
Y120342D01*
X715262Y119817D01*
X716312D01*
X716837Y119292D01*
Y118768D01*
X716312Y118243D01*
X715262D01*
X714738Y118768D01*
X717886Y118243D02*
X718936D01*
X718411D01*
Y121391D01*
X717886D01*
X721035Y118243D02*
X722084D01*
X722609Y118768D01*
Y119817D01*
X722084Y120342D01*
X721035D01*
X720510Y119817D01*
Y118768D01*
X721035Y118243D01*
X724183Y120867D02*
Y120342D01*
X723659D01*
X724708D01*
X724183D01*
Y118768D01*
X724708Y118243D01*
X731530Y121391D02*
Y118243D01*
X729956D01*
X729431Y118768D01*
Y119817D01*
X729956Y120342D01*
X731530D01*
X734154Y118243D02*
X733104D01*
X732580Y118768D01*
Y119817D01*
X733104Y120342D01*
X734154D01*
X734679Y119817D01*
Y119292D01*
X732580D01*
X736253Y118243D02*
Y120867D01*
Y119817D01*
X735728D01*
X736778D01*
X736253D01*
Y120867D01*
X736778Y121391D01*
X738352Y118243D02*
X739401D01*
X738877D01*
Y120342D01*
X738352D01*
X740976Y118243D02*
Y120342D01*
X742550D01*
X743075Y119817D01*
Y118243D01*
X744124D02*
X745174D01*
X744649D01*
Y120342D01*
X744124D01*
X747273Y120867D02*
Y120342D01*
X746748D01*
X747798D01*
X747273D01*
Y118768D01*
X747798Y118243D01*
X749372D02*
X750421D01*
X749897D01*
Y120342D01*
X749372D01*
X752521Y118243D02*
X753570D01*
X754095Y118768D01*
Y119817D01*
X753570Y120342D01*
X752521D01*
X751996Y119817D01*
Y118768D01*
X752521Y118243D01*
X755144D02*
Y120342D01*
X756719D01*
X757243Y119817D01*
Y118243D01*
X758293D02*
X759867D01*
X760392Y118768D01*
X759867Y119292D01*
X758818D01*
X758293Y119817D01*
X758818Y120342D01*
X760392D01*
X764590D02*
X765115D01*
Y119817D01*
X764590D01*
Y120342D01*
Y118768D02*
X765115D01*
Y118243D01*
X764590D01*
Y118768D01*
M02*
