G04*
G04 #@! TF.GenerationSoftware,Altium Limited,Altium Designer,20.0.13 (296)*
G04*
G04 Layer_Physical_Order=2*
G04 Layer_Color=3381759*
%FSLAX25Y25*%
%MOIN*%
G70*
G01*
G75*
%ADD12C,0.00787*%
%ADD13C,0.01000*%
%ADD14C,0.01575*%
%ADD15C,0.00394*%
%ADD16C,0.00984*%
%ADD42C,0.06299*%
%ADD44R,0.06299X0.06299*%
%ADD49C,0.02756*%
G04:AMPARAMS|DCode=51|XSize=43.31mil|YSize=216.54mil|CornerRadius=10.83mil|HoleSize=0mil|Usage=FLASHONLY|Rotation=0.000|XOffset=0mil|YOffset=0mil|HoleType=Round|Shape=RoundedRectangle|*
%AMROUNDEDRECTD51*
21,1,0.04331,0.19488,0,0,0.0*
21,1,0.02165,0.21654,0,0,0.0*
1,1,0.02165,0.01083,-0.09744*
1,1,0.02165,-0.01083,-0.09744*
1,1,0.02165,-0.01083,0.09744*
1,1,0.02165,0.01083,0.09744*
%
%ADD51ROUNDEDRECTD51*%
%ADD52C,0.09055*%
G04:AMPARAMS|DCode=53|XSize=118.11mil|YSize=236.22mil|CornerRadius=29.53mil|HoleSize=0mil|Usage=FLASHONLY|Rotation=0.000|XOffset=0mil|YOffset=0mil|HoleType=Round|Shape=RoundedRectangle|*
%AMROUNDEDRECTD53*
21,1,0.11811,0.17717,0,0,0.0*
21,1,0.05906,0.23622,0,0,0.0*
1,1,0.05906,0.02953,-0.08858*
1,1,0.05906,-0.02953,-0.08858*
1,1,0.05906,-0.02953,0.08858*
1,1,0.05906,0.02953,0.08858*
%
%ADD53ROUNDEDRECTD53*%
G04:AMPARAMS|DCode=54|XSize=62.99mil|YSize=62.99mil|CornerRadius=15.75mil|HoleSize=0mil|Usage=FLASHONLY|Rotation=0.000|XOffset=0mil|YOffset=0mil|HoleType=Round|Shape=RoundedRectangle|*
%AMROUNDEDRECTD54*
21,1,0.06299,0.03150,0,0,0.0*
21,1,0.03150,0.06299,0,0,0.0*
1,1,0.03150,0.01575,-0.01575*
1,1,0.03150,-0.01575,-0.01575*
1,1,0.03150,-0.01575,0.01575*
1,1,0.03150,0.01575,0.01575*
%
%ADD54ROUNDEDRECTD54*%
%ADD55C,0.05906*%
%ADD56R,0.05906X0.05906*%
%ADD57R,0.05906X0.05906*%
%ADD58C,0.12598*%
%ADD59C,0.07087*%
%ADD60R,0.07087X0.07087*%
%ADD61C,0.02756*%
%ADD62C,0.04724*%
G36*
X317257Y184737D02*
X318690Y184143D01*
X319980Y183282D01*
X321077Y182185D01*
X321938Y180895D01*
X322532Y179462D01*
X322835Y177941D01*
Y177165D01*
Y175354D01*
X322883Y174374D01*
X323265Y172451D01*
X324015Y170640D01*
X325104Y169010D01*
X326491Y167624D01*
X328121Y166535D01*
X329932Y165785D01*
X331855Y165402D01*
X332835Y165354D01*
X339358D01*
X340879Y165052D01*
X342312Y164458D01*
X343602Y163596D01*
X344699Y162500D01*
X345561Y161210D01*
X346154Y159777D01*
X346457Y158256D01*
Y157480D01*
Y145669D01*
Y144894D01*
X346154Y143372D01*
X345561Y141939D01*
X344699Y140650D01*
X343602Y139553D01*
X342312Y138691D01*
X340879Y138098D01*
X339358Y137795D01*
X286626D01*
X285105Y138098D01*
X283672Y138691D01*
X282382Y139553D01*
X281285Y140650D01*
X280424Y141939D01*
X279830Y143372D01*
X279528Y144894D01*
Y145669D01*
Y153543D01*
Y153931D01*
X279679Y154692D01*
X279976Y155408D01*
X280406Y156053D01*
X280955Y156601D01*
X281600Y157032D01*
X282316Y157329D01*
X283077Y157480D01*
X283465D01*
X284236Y157518D01*
X285750Y157819D01*
X287176Y158410D01*
X288460Y159268D01*
X289551Y160359D01*
X290409Y161643D01*
X291000Y163069D01*
X291301Y164583D01*
X291339Y165354D01*
Y181102D01*
Y181490D01*
X291490Y182251D01*
X291787Y182967D01*
X292217Y183612D01*
X292766Y184160D01*
X293411Y184591D01*
X294127Y184888D01*
X294888Y185039D01*
X315736D01*
X317257Y184737D01*
D02*
G37*
G36*
X60203Y184888D02*
X60920Y184591D01*
X61565Y184160D01*
X62113Y183612D01*
X62544Y182967D01*
X62841Y182251D01*
X62992Y181490D01*
Y181102D01*
Y165354D01*
X63030Y164583D01*
X63331Y163069D01*
X63922Y161643D01*
X64779Y160359D01*
X65871Y159268D01*
X67154Y158410D01*
X68580Y157819D01*
X70094Y157518D01*
X70866Y157480D01*
X71254D01*
X72014Y157329D01*
X72731Y157032D01*
X73376Y156601D01*
X73924Y156053D01*
X74355Y155408D01*
X74652Y154692D01*
X74803Y153931D01*
Y153543D01*
Y145669D01*
Y144894D01*
X74501Y143372D01*
X73907Y141939D01*
X73045Y140650D01*
X71948Y139553D01*
X70659Y138691D01*
X69226Y138098D01*
X67705Y137795D01*
X14973D01*
X13451Y138098D01*
X12018Y138691D01*
X10729Y139553D01*
X9632Y140650D01*
X8770Y141939D01*
X8177Y143372D01*
X7874Y144894D01*
Y145669D01*
Y157480D01*
Y158256D01*
X8177Y159777D01*
X8770Y161210D01*
X9632Y162500D01*
X10729Y163596D01*
X12018Y164458D01*
X13451Y165052D01*
X14973Y165354D01*
X21496D01*
X22476Y165402D01*
X24399Y165785D01*
X26210Y166535D01*
X27840Y167624D01*
X29226Y169010D01*
X30315Y170640D01*
X31065Y172451D01*
X31448Y174374D01*
X31496Y175354D01*
Y177165D01*
Y177941D01*
X31799Y179462D01*
X32392Y180895D01*
X33254Y182185D01*
X34351Y183282D01*
X35640Y184143D01*
X37073Y184737D01*
X38594Y185039D01*
X59443D01*
X60203Y184888D01*
D02*
G37*
G36*
X18271Y48584D02*
X18271Y48502D01*
X18354Y48501D01*
X18354Y48584D01*
X18437Y48583D01*
X18437Y48500D01*
X18520Y48499D01*
X18519Y48416D01*
X18685Y48415D01*
X18684Y48332D01*
X18684Y48249D01*
X18767Y48248D01*
X18766Y48165D01*
X18765Y48082D01*
X18764Y47999D01*
X18847Y47998D01*
X18847Y47915D01*
X18846Y47832D01*
X18845Y47749D01*
X18845Y47666D01*
X18844Y47583D01*
X18927Y47582D01*
X18926Y47499D01*
X18843Y47500D01*
X18842Y47417D01*
X18925Y47416D01*
X18925Y47333D01*
X18842Y47334D01*
X18841Y47251D01*
X18924Y47250D01*
X18923Y47167D01*
X18923Y47084D01*
X18922Y47001D01*
X18921Y46918D01*
X18920Y46835D01*
X19003Y46834D01*
X19003Y46751D01*
X18920Y46752D01*
X18919Y46669D01*
X19002Y46668D01*
X19001Y46585D01*
X19000Y46502D01*
X19000Y46419D01*
X19083Y46419D01*
X19082Y46336D01*
X18999Y46336D01*
X18998Y46253D01*
X19081Y46253D01*
X19081Y46170D01*
X18997Y46170D01*
X18997Y46087D01*
X19080Y46087D01*
X19079Y46004D01*
X18996Y46004D01*
X18995Y45921D01*
X19078Y45921D01*
X19078Y45838D01*
X19077Y45755D01*
X19076Y45671D01*
X19159Y45671D01*
X19159Y45588D01*
X19158Y45505D01*
X19157Y45422D01*
X19156Y45339D01*
X19156Y45256D01*
X19239Y45255D01*
X19238Y45172D01*
X19155Y45173D01*
X19154Y45090D01*
X19237Y45089D01*
X19237Y45006D01*
X19153Y45007D01*
X19153Y44924D01*
X19236Y44923D01*
X19235Y44840D01*
X19152Y44841D01*
X19151Y44758D01*
X19234Y44757D01*
X19233Y44674D01*
X19233Y44591D01*
X19232Y44508D01*
X19315Y44507D01*
X19314Y44424D01*
X19231Y44425D01*
X19231Y44342D01*
X19314Y44341D01*
X19313Y44258D01*
X19312Y44175D01*
X19311Y44092D01*
X19311Y44009D01*
X19310Y43926D01*
X19393Y43925D01*
X19392Y43842D01*
X19309Y43843D01*
X19309Y43760D01*
X19392Y43759D01*
X19391Y43676D01*
X19308Y43677D01*
X19307Y43594D01*
X19390Y43593D01*
X19389Y43510D01*
X19389Y43427D01*
X19388Y43344D01*
X19387Y43261D01*
X19387Y43178D01*
X19470Y43177D01*
X19469Y43094D01*
X19468Y43011D01*
X19467Y42928D01*
X19467Y42845D01*
X19466Y42762D01*
X19549Y42761D01*
X19548Y42678D01*
X19465Y42679D01*
X19465Y42596D01*
X19547Y42595D01*
X19547Y42512D01*
X19464Y42513D01*
X19463Y42430D01*
X19546Y42429D01*
X19545Y42346D01*
X19545Y42263D01*
X19544Y42180D01*
X19543Y42097D01*
X19542Y42014D01*
X19625Y42013D01*
X19625Y41930D01*
X19624Y41848D01*
X19623Y41765D01*
X19623Y41682D01*
X19622Y41598D01*
X19705Y41598D01*
X19704Y41515D01*
X19787Y41514D01*
X19788Y41597D01*
X19705Y41598D01*
X19706Y41681D01*
X19789Y41680D01*
X19789Y41763D01*
X19790Y41846D01*
X19791Y41929D01*
X19792Y42012D01*
X19792Y42095D01*
X19875Y42094D01*
X19876Y42177D01*
X19793Y42178D01*
X19794Y42261D01*
X19877Y42260D01*
X19877Y42343D01*
X19794Y42344D01*
X19795Y42427D01*
X19878Y42426D01*
X19879Y42509D01*
X19880Y42592D01*
X19880Y42676D01*
X19963Y42675D01*
X19964Y42758D01*
X19881Y42759D01*
X19882Y42842D01*
X19965Y42841D01*
X19965Y42924D01*
X19966Y43007D01*
X19967Y43090D01*
X19968Y43173D01*
X19968Y43256D01*
X20051Y43255D01*
X20052Y43338D01*
X19969Y43339D01*
X19970Y43422D01*
X20053Y43421D01*
X20054Y43504D01*
X19971Y43505D01*
X19971Y43588D01*
X20054Y43587D01*
X20055Y43670D01*
X20056Y43753D01*
X20056Y43836D01*
X20057Y43919D01*
X20058Y44002D01*
X20141Y44002D01*
X20142Y44085D01*
X20142Y44168D01*
X20143Y44251D01*
X20144Y44334D01*
X20145Y44417D01*
X20228Y44416D01*
X20228Y44499D01*
X20145Y44500D01*
X20146Y44583D01*
X20229Y44582D01*
X20230Y44665D01*
X20147Y44666D01*
X20147Y44749D01*
X20231Y44748D01*
X20231Y44831D01*
X20232Y44914D01*
X20233Y44997D01*
X20233Y45080D01*
X20234Y45163D01*
X20235Y45246D01*
X20318Y45246D01*
X20319Y45329D01*
X20319Y45412D01*
X20320Y45495D01*
X20321Y45578D01*
X20404Y45577D01*
X20404Y45660D01*
X20322Y45661D01*
X20322Y45744D01*
X20405Y45743D01*
X20406Y45826D01*
X20323Y45827D01*
X20324Y45910D01*
X20407Y45909D01*
X20407Y45992D01*
X20408Y46075D01*
X20409Y46158D01*
X20410Y46241D01*
X20410Y46324D01*
X20411Y46407D01*
X20412Y46490D01*
X20495Y46489D01*
X20495Y46572D01*
X20496Y46655D01*
X20497Y46738D01*
X20498Y46821D01*
X20498Y46905D01*
X20581Y46904D01*
X20582Y46987D01*
X20499Y46988D01*
X20500Y47071D01*
X20583Y47070D01*
X20584Y47153D01*
X20501Y47154D01*
X20501Y47237D01*
X20584Y47236D01*
X20585Y47319D01*
X20586Y47402D01*
X20586Y47485D01*
X20587Y47568D01*
X20588Y47651D01*
X20671Y47650D01*
X20672Y47733D01*
X20589Y47734D01*
X20589Y47817D01*
X20672Y47816D01*
X20673Y47899D01*
X20674Y47982D01*
X20675Y48065D01*
X20758Y48065D01*
X20758Y48148D01*
X20675Y48148D01*
X20676Y48231D01*
X20759Y48231D01*
X20760Y48314D01*
X20843Y48313D01*
X20843Y48396D01*
X20927Y48395D01*
X20927Y48478D01*
X21010Y48478D01*
X21011Y48561D01*
X21094Y48560D01*
X21093Y48477D01*
X21176Y48476D01*
X21177Y48559D01*
X21260Y48558D01*
X21259Y48475D01*
X21342Y48475D01*
X21342Y48392D01*
X21425Y48391D01*
X21424Y48308D01*
X21507Y48307D01*
X21506Y48224D01*
X21589Y48223D01*
X21589Y48140D01*
X21588Y48057D01*
X21587Y47974D01*
X21586Y47891D01*
X21586Y47808D01*
X21669Y47808D01*
X21668Y47725D01*
X21585Y47725D01*
X21584Y47642D01*
X21667Y47642D01*
X21666Y47559D01*
X21666Y47475D01*
X21665Y47392D01*
X21664Y47309D01*
X21664Y47226D01*
X21747Y47226D01*
X21746Y47143D01*
X21663Y47143D01*
X21662Y47060D01*
X21745Y47060D01*
X21745Y46977D01*
X21661Y46977D01*
X21661Y46894D01*
X21744Y46894D01*
X21743Y46811D01*
X21742Y46728D01*
X21742Y46645D01*
X21825Y46644D01*
X21824Y46561D01*
X21741Y46562D01*
X21740Y46479D01*
X21823Y46478D01*
X21822Y46395D01*
X21822Y46312D01*
X21821Y46229D01*
X21820Y46146D01*
X21820Y46063D01*
X21903Y46062D01*
X21902Y45979D01*
X21819Y45980D01*
X21818Y45897D01*
X21901Y45896D01*
X21900Y45813D01*
X21817Y45814D01*
X21817Y45731D01*
X21900Y45730D01*
X21899Y45647D01*
X21898Y45564D01*
X21897Y45481D01*
X21981Y45480D01*
X21980Y45397D01*
X21897Y45398D01*
X21896Y45315D01*
X21979Y45314D01*
X21978Y45231D01*
X21978Y45148D01*
X21977Y45065D01*
X21976Y44982D01*
X21975Y44899D01*
X22058Y44898D01*
X22058Y44815D01*
X21975Y44816D01*
X21974Y44733D01*
X22057Y44732D01*
X22056Y44649D01*
X21973Y44650D01*
X21972Y44567D01*
X22055Y44566D01*
X22055Y44483D01*
X22054Y44400D01*
X22053Y44317D01*
X22053Y44234D01*
X22052Y44151D01*
X22135Y44150D01*
X22134Y44067D01*
X22133Y43984D01*
X22133Y43901D01*
X22132Y43818D01*
X22131Y43735D01*
X22214Y43734D01*
X22214Y43652D01*
X22131Y43652D01*
X22130Y43569D01*
X22213Y43568D01*
X22212Y43485D01*
X22129Y43486D01*
X22128Y43403D01*
X22211Y43402D01*
X22211Y43319D01*
X22128Y43320D01*
X22127Y43237D01*
X22210Y43236D01*
X22209Y43153D01*
X22208Y43070D01*
X22208Y42987D01*
X22207Y42904D01*
X22206Y42821D01*
X22289Y42821D01*
X22289Y42737D01*
X22288Y42654D01*
X22287Y42571D01*
X22370Y42571D01*
X22369Y42488D01*
X22287Y42489D01*
X22286Y42405D01*
X22369Y42405D01*
X22368Y42322D01*
X22285Y42322D01*
X22284Y42239D01*
X22367Y42239D01*
X22367Y42156D01*
X22284Y42156D01*
X22283Y42073D01*
X22366Y42073D01*
X22365Y41990D01*
X22364Y41907D01*
X22364Y41824D01*
X22363Y41741D01*
X22362Y41658D01*
X22445Y41657D01*
X22445Y41574D01*
X22444Y41491D01*
X22443Y41408D01*
X22526Y41407D01*
X22527Y41490D01*
X22528Y41573D01*
X22528Y41656D01*
X22529Y41739D01*
X22530Y41822D01*
X22613Y41821D01*
X22614Y41904D01*
X22614Y41987D01*
X22615Y42070D01*
X22616Y42153D01*
X22616Y42237D01*
X22699Y42236D01*
X22700Y42319D01*
X22617Y42320D01*
X22618Y42403D01*
X22701Y42402D01*
X22702Y42485D01*
X22619Y42486D01*
X22619Y42569D01*
X22702Y42568D01*
X22703Y42651D01*
X22704Y42734D01*
X22704Y42817D01*
X22705Y42900D01*
X22706Y42983D01*
X22789Y42982D01*
X22790Y43065D01*
X22707Y43066D01*
X22707Y43149D01*
X22790Y43148D01*
X22791Y43231D01*
X22792Y43314D01*
X22793Y43397D01*
X22876Y43397D01*
X22876Y43480D01*
X22793Y43480D01*
X22794Y43563D01*
X22877Y43563D01*
X22878Y43646D01*
X22795Y43646D01*
X22795Y43729D01*
X22878Y43729D01*
X22879Y43812D01*
X22796Y43812D01*
X22797Y43896D01*
X22880Y43895D01*
X22881Y43978D01*
X22881Y44061D01*
X22882Y44144D01*
X22883Y44227D01*
X22884Y44310D01*
X22967Y44309D01*
X22967Y44392D01*
X22884Y44393D01*
X22885Y44476D01*
X22968Y44475D01*
X22969Y44558D01*
X22970Y44641D01*
X22970Y44724D01*
X23053Y44723D01*
X23054Y44807D01*
X22971Y44807D01*
X22972Y44890D01*
X23055Y44890D01*
X23055Y44973D01*
X22972Y44973D01*
X22973Y45056D01*
X23056Y45056D01*
X23057Y45139D01*
X22974Y45139D01*
X22975Y45222D01*
X23058Y45222D01*
X23058Y45305D01*
X23059Y45388D01*
X23060Y45471D01*
X23143Y45470D01*
X23144Y45553D01*
X23061Y45554D01*
X23061Y45637D01*
X23144Y45636D01*
X23145Y45719D01*
X23146Y45802D01*
X23146Y45885D01*
X23229Y45884D01*
X23230Y45967D01*
X23147Y45968D01*
X23148Y46051D01*
X23231Y46050D01*
X23232Y46133D01*
X23149Y46134D01*
X23149Y46217D01*
X23232Y46216D01*
X23233Y46299D01*
X23150Y46300D01*
X23151Y46383D01*
X23234Y46382D01*
X23234Y46466D01*
X23235Y46549D01*
X23236Y46632D01*
X23319Y46631D01*
X23320Y46714D01*
X23237Y46715D01*
X23237Y46798D01*
X23320Y46797D01*
X23321Y46880D01*
X23322Y46963D01*
X23323Y47046D01*
X23323Y47129D01*
X23324Y47212D01*
X23407Y47211D01*
X23408Y47294D01*
X23325Y47295D01*
X23325Y47378D01*
X23408Y47377D01*
X23409Y47460D01*
X23326Y47461D01*
X23327Y47544D01*
X23410Y47543D01*
X23411Y47626D01*
X23411Y47709D01*
X23412Y47792D01*
X23413Y47875D01*
X23414Y47958D01*
X23497Y47958D01*
X23497Y48041D01*
X23498Y48124D01*
X23499Y48207D01*
X23582Y48206D01*
X23583Y48289D01*
X23583Y48372D01*
X23749Y48371D01*
X23750Y48454D01*
X23833Y48453D01*
X23834Y48536D01*
X23917Y48535D01*
X23916Y48452D01*
X23999Y48452D01*
X24000Y48535D01*
X24083Y48534D01*
X24082Y48451D01*
X24165Y48450D01*
X24164Y48367D01*
X24247Y48366D01*
X24247Y48283D01*
X24330Y48283D01*
X24329Y48199D01*
X24412Y48199D01*
X24411Y48116D01*
X24328Y48116D01*
X24328Y48033D01*
X24410Y48033D01*
X24410Y47950D01*
X24327Y47950D01*
X24326Y47867D01*
X24409Y47867D01*
X24408Y47784D01*
X24408Y47701D01*
X24407Y47618D01*
X24406Y47535D01*
X24406Y47452D01*
X24488Y47451D01*
X24488Y47368D01*
X24487Y47285D01*
X24486Y47202D01*
X24486Y47119D01*
X24485Y47036D01*
X24568Y47035D01*
X24567Y46952D01*
X24484Y46953D01*
X24483Y46870D01*
X24566Y46869D01*
X24566Y46786D01*
X24483Y46787D01*
X24482Y46704D01*
X24565Y46703D01*
X24564Y46620D01*
X24564Y46537D01*
X24563Y46454D01*
X24562Y46371D01*
X24561Y46288D01*
X24561Y46205D01*
X24560Y46122D01*
X24643Y46121D01*
X24642Y46038D01*
X24642Y45955D01*
X24641Y45872D01*
X24640Y45789D01*
X24639Y45706D01*
X24722Y45705D01*
X24722Y45622D01*
X24639Y45623D01*
X24638Y45540D01*
X24721Y45539D01*
X24720Y45456D01*
X24637Y45457D01*
X24636Y45374D01*
X24720Y45373D01*
X24719Y45290D01*
X24718Y45207D01*
X24717Y45124D01*
X24716Y45041D01*
X24716Y44958D01*
X24799Y44957D01*
X24798Y44874D01*
X24715Y44875D01*
X24714Y44792D01*
X24797Y44791D01*
X24797Y44708D01*
X24796Y44625D01*
X24795Y44542D01*
X24878Y44541D01*
X24878Y44458D01*
X24794Y44459D01*
X24794Y44376D01*
X24877Y44376D01*
X24876Y44293D01*
X24793Y44293D01*
X24792Y44210D01*
X24875Y44209D01*
X24875Y44126D01*
X24792Y44127D01*
X24791Y44044D01*
X24874Y44043D01*
X24873Y43960D01*
X24872Y43877D01*
X24872Y43794D01*
X24955Y43794D01*
X24954Y43711D01*
X24871Y43711D01*
X24870Y43628D01*
X24953Y43628D01*
X24953Y43545D01*
X24952Y43461D01*
X24951Y43378D01*
X24950Y43295D01*
X24950Y43213D01*
X25033Y43212D01*
X25032Y43129D01*
X24949Y43129D01*
X24948Y43046D01*
X25031Y43046D01*
X25030Y42963D01*
X24948Y42963D01*
X24947Y42880D01*
X25030Y42880D01*
X25029Y42797D01*
X25028Y42714D01*
X25028Y42631D01*
X25027Y42548D01*
X25026Y42465D01*
X25109Y42464D01*
X25109Y42381D01*
X25025Y42382D01*
X25025Y42298D01*
X25108Y42298D01*
X25107Y42215D01*
X25106Y42132D01*
X25106Y42049D01*
X25189Y42048D01*
X25188Y41965D01*
X25105Y41966D01*
X25104Y41883D01*
X25187Y41882D01*
X25186Y41799D01*
X25103Y41800D01*
X25103Y41717D01*
X25186Y41716D01*
X25185Y41633D01*
X25102Y41634D01*
X25101Y41551D01*
X25184Y41550D01*
X25183Y41467D01*
X25183Y41384D01*
X25182Y41301D01*
X25181Y41218D01*
X25181Y41135D01*
X25264Y41134D01*
X25263Y41051D01*
X25180Y41052D01*
X25179Y40969D01*
X25262Y40968D01*
X25262Y40885D01*
X25261Y40802D01*
X25260Y40719D01*
X25343Y40718D01*
X25342Y40635D01*
X25259Y40636D01*
X25259Y40553D01*
X25342Y40552D01*
X25341Y40469D01*
X25258Y40470D01*
X25257Y40387D01*
X25340Y40386D01*
X25339Y40303D01*
X25256Y40304D01*
X25256Y40221D01*
X25339Y40220D01*
X25338Y40137D01*
X25337Y40054D01*
X25337Y39971D01*
X25420Y39970D01*
X25419Y39887D01*
X25336Y39888D01*
X25335Y39805D01*
X25418Y39804D01*
X25417Y39721D01*
X25417Y39638D01*
X25416Y39555D01*
X25415Y39472D01*
X25414Y39389D01*
X25497Y39388D01*
X25497Y39305D01*
X25414Y39306D01*
X25413Y39223D01*
X25496Y39222D01*
X25495Y39139D01*
X25412Y39140D01*
X25412Y39057D01*
X25495Y39056D01*
X25494Y38973D01*
X25493Y38890D01*
X25492Y38807D01*
X25575Y38807D01*
X25575Y38724D01*
X25492Y38724D01*
X25491Y38641D01*
X25574Y38640D01*
X25573Y38557D01*
X25572Y38475D01*
X25572Y38392D01*
X25571Y38308D01*
X25570Y38225D01*
X25653Y38225D01*
X25653Y38142D01*
X25570Y38142D01*
X25569Y38059D01*
X25652Y38059D01*
X25651Y37976D01*
X25900Y37973D01*
X25899Y37890D01*
X25983Y37890D01*
X25983Y37973D01*
X26232Y37971D01*
X26232Y37887D01*
X26315Y37887D01*
X26315Y37970D01*
X26564Y37968D01*
X26564Y37885D01*
X26647Y37884D01*
X26647Y37967D01*
X26897Y37965D01*
X26896Y37882D01*
X26979Y37881D01*
X26980Y37964D01*
X27229Y37962D01*
X27228Y37879D01*
X27311Y37878D01*
X27312Y37961D01*
X27395Y37960D01*
X27394Y37877D01*
X27477Y37877D01*
X27478Y37960D01*
X27561Y37959D01*
X27560Y37876D01*
X27643Y37875D01*
X27644Y37958D01*
X27727Y37958D01*
X27726Y37874D01*
X27809Y37874D01*
X27810Y37957D01*
X27893Y37956D01*
X27892Y37873D01*
X27975Y37872D01*
X27976Y37955D01*
X28059Y37955D01*
X28058Y37872D01*
X28141Y37871D01*
X28142Y37954D01*
X28225Y37953D01*
X28224Y37870D01*
X28307Y37869D01*
X28308Y37953D01*
X28391Y37952D01*
X28390Y37869D01*
X28473Y37868D01*
X28474Y37951D01*
X28557Y37950D01*
X28556Y37867D01*
X28639Y37867D01*
X28640Y37949D01*
X28723Y37949D01*
X28722Y37866D01*
X28805Y37865D01*
X28806Y37948D01*
X28889Y37947D01*
X28888Y37864D01*
X28971Y37864D01*
X28972Y37947D01*
X29055Y37946D01*
X29054Y37863D01*
X29137Y37862D01*
X29138Y37945D01*
X29221Y37944D01*
X29220Y37861D01*
X29303Y37861D01*
X29304Y37944D01*
X29387Y37943D01*
X29386Y37860D01*
X29469Y37859D01*
X29470Y37942D01*
X29553Y37942D01*
X29553Y37859D01*
X29636Y37858D01*
X29636Y37941D01*
X29719Y37940D01*
X29719Y37857D01*
X29801Y37856D01*
X29802Y37939D01*
X29885Y37939D01*
X29884Y37856D01*
X29968Y37855D01*
X29968Y37938D01*
X30051Y37937D01*
X30051Y37854D01*
X30134Y37854D01*
X30134Y37936D01*
X30217Y37936D01*
X30217Y37853D01*
X30300Y37852D01*
X30300Y37935D01*
X30383Y37934D01*
X30383Y37851D01*
X30466Y37851D01*
X30466Y37934D01*
X30549Y37933D01*
X30549Y37850D01*
X30632Y37849D01*
X30632Y37932D01*
X30716Y37931D01*
X30715Y37848D01*
X30798Y37848D01*
X30799Y37931D01*
X30882Y37930D01*
X30881Y37847D01*
X30964Y37846D01*
X30964Y37929D01*
X31048Y37929D01*
X31047Y37846D01*
X31130Y37845D01*
X31131Y37928D01*
X31214Y37927D01*
X31213Y37844D01*
X31296Y37843D01*
X31297Y37926D01*
X31380Y37926D01*
X31379Y37843D01*
X31462Y37842D01*
X31463Y37925D01*
X31546Y37924D01*
X31545Y37841D01*
X31628Y37840D01*
X31629Y37923D01*
X31712Y37923D01*
X31711Y37840D01*
X31794Y37839D01*
X31795Y37922D01*
X31878Y37921D01*
X31877Y37838D01*
X31960Y37838D01*
X31961Y37921D01*
X32044Y37920D01*
X32043Y37837D01*
X32126Y37836D01*
X32127Y37919D01*
X32210Y37918D01*
X32209Y37835D01*
X32292Y37835D01*
X32293Y37918D01*
X32376Y37917D01*
X32375Y37834D01*
X32458Y37833D01*
X32459Y37916D01*
X32542Y37916D01*
X32541Y37832D01*
X32624Y37832D01*
X32625Y37915D01*
X32708Y37914D01*
X32707Y37831D01*
X32790Y37830D01*
X32791Y37913D01*
X32874Y37913D01*
X32873Y37830D01*
X32956Y37829D01*
X32957Y37912D01*
X33040Y37911D01*
X33039Y37828D01*
X33122Y37827D01*
X33123Y37910D01*
X33206Y37910D01*
X33205Y37827D01*
X33288Y37826D01*
X33289Y37909D01*
X33372Y37908D01*
X33371Y37825D01*
X33454Y37824D01*
X33455Y37907D01*
X33538Y37907D01*
X33537Y37824D01*
X33621Y37823D01*
X33621Y37906D01*
X33704Y37905D01*
X33704Y37822D01*
X33786Y37822D01*
X33787Y37905D01*
X33870Y37904D01*
X33869Y37821D01*
X33953Y37820D01*
X33953Y37903D01*
X34036Y37903D01*
X34036Y37819D01*
X34119Y37819D01*
X34119Y37902D01*
X34202Y37901D01*
X34202Y37818D01*
X34285Y37817D01*
X34285Y37900D01*
X34368Y37900D01*
X34368Y37817D01*
X34451Y37816D01*
X34451Y37899D01*
X34534Y37898D01*
X34534Y37815D01*
X34617Y37814D01*
X34617Y37897D01*
X34701Y37897D01*
X34700Y37814D01*
X34783Y37813D01*
X34784Y37896D01*
X34866Y37895D01*
X34866Y37812D01*
X34949Y37811D01*
X34949Y37894D01*
X35032Y37894D01*
X35032Y37811D01*
X35115Y37810D01*
X35116Y37893D01*
X35199Y37892D01*
X35198Y37809D01*
X35281Y37809D01*
X35282Y37892D01*
X35365Y37891D01*
X35364Y37808D01*
X35447Y37807D01*
X35448Y37890D01*
X35531Y37889D01*
X35530Y37806D01*
X35613Y37806D01*
X35614Y37889D01*
X35697Y37888D01*
X35696Y37805D01*
X35779Y37804D01*
X35780Y37887D01*
X35863Y37887D01*
X35862Y37804D01*
X35945Y37803D01*
X35946Y37886D01*
X36029Y37885D01*
X36028Y37802D01*
X36111Y37801D01*
X36112Y37884D01*
X36195Y37884D01*
X36194Y37801D01*
X36277Y37800D01*
X36278Y37883D01*
X36361Y37882D01*
X36360Y37799D01*
X36443Y37798D01*
X36444Y37881D01*
X36527Y37881D01*
X36526Y37798D01*
X36609Y37797D01*
X36610Y37880D01*
X36693Y37879D01*
X36692Y37796D01*
X36775Y37795D01*
X36776Y37879D01*
X36859Y37878D01*
X36858Y37795D01*
X36941Y37794D01*
X36942Y37877D01*
X37025Y37876D01*
X37024Y37793D01*
X37107Y37793D01*
X37108Y37876D01*
X37191Y37875D01*
X37190Y37792D01*
X37273Y37791D01*
X37274Y37874D01*
X37357Y37874D01*
X37356Y37790D01*
X37439Y37790D01*
X37440Y37873D01*
X37523Y37872D01*
X37522Y37789D01*
X37606Y37788D01*
X37606Y37871D01*
X37689Y37871D01*
X37688Y37788D01*
X37771Y37787D01*
X37772Y37870D01*
X37855Y37869D01*
X37854Y37786D01*
X37938Y37785D01*
X37938Y37868D01*
X38021Y37868D01*
X38021Y37785D01*
X38270Y37782D01*
X38270Y37865D01*
X38353Y37865D01*
X38353Y37782D01*
X38602Y37780D01*
X38602Y37863D01*
X38685Y37862D01*
X38685Y37779D01*
X38934Y37777D01*
X38934Y37860D01*
X39018Y37859D01*
X39017Y37776D01*
X39266Y37774D01*
X39267Y37857D01*
X39350Y37856D01*
X39349Y37773D01*
X39598Y37771D01*
X39599Y37854D01*
X39682Y37853D01*
X39681Y37770D01*
X39930Y37768D01*
X39931Y37851D01*
X40014Y37850D01*
X40013Y37767D01*
X40262Y37765D01*
X40263Y37848D01*
X40346Y37847D01*
X40345Y37764D01*
X40594Y37762D01*
X40595Y37845D01*
X40678Y37844D01*
X40677Y37762D01*
X40926Y37759D01*
X40927Y37842D01*
X41010Y37842D01*
X41009Y37759D01*
X41258Y37756D01*
X41259Y37839D01*
X41342Y37839D01*
X41341Y37756D01*
X50059Y37680D01*
X50058Y37597D01*
X49975Y37597D01*
X49974Y37514D01*
X49891Y37515D01*
X49890Y37432D01*
X49973Y37431D01*
X49973Y37348D01*
X49890Y37349D01*
X49889Y37266D01*
X24900Y37484D01*
X24900Y37567D01*
X24817Y37568D01*
X24818Y37651D01*
X24735Y37652D01*
X24736Y37734D01*
X24819Y37734D01*
X24820Y37817D01*
X24736Y37817D01*
X24737Y37901D01*
X24820Y37900D01*
X24821Y37983D01*
X24738Y37984D01*
X24739Y38067D01*
X24739Y38150D01*
X24740Y38233D01*
X24741Y38316D01*
X24742Y38399D01*
X24659Y38399D01*
X24659Y38482D01*
X24660Y38565D01*
X24661Y38649D01*
X24661Y38732D01*
X24662Y38814D01*
X24579Y38815D01*
X24580Y38898D01*
X24663Y38898D01*
X24664Y38981D01*
X24581Y38981D01*
X24581Y39064D01*
X24664Y39064D01*
X24665Y39147D01*
X24582Y39147D01*
X24583Y39230D01*
X24666Y39230D01*
X24667Y39313D01*
X24584Y39313D01*
X24584Y39396D01*
X24585Y39479D01*
X24586Y39562D01*
X24586Y39645D01*
X24587Y39729D01*
X24504Y39729D01*
X24505Y39812D01*
X24506Y39895D01*
X24506Y39978D01*
X24423Y39979D01*
X24424Y40062D01*
X24507Y40061D01*
X24508Y40144D01*
X24425Y40145D01*
X24426Y40228D01*
X24509Y40227D01*
X24509Y40310D01*
X24426Y40311D01*
X24427Y40394D01*
X24510Y40393D01*
X24511Y40476D01*
X24428Y40477D01*
X24428Y40560D01*
X24429Y40643D01*
X24430Y40726D01*
X24347Y40727D01*
X24348Y40810D01*
X24430Y40809D01*
X24431Y40892D01*
X24348Y40893D01*
X24349Y40976D01*
X24350Y41059D01*
X24350Y41142D01*
X24267Y41143D01*
X24268Y41226D01*
X24351Y41225D01*
X24352Y41308D01*
X24269Y41309D01*
X24270Y41392D01*
X24353Y41391D01*
X24353Y41474D01*
X24270Y41475D01*
X24271Y41558D01*
X24354Y41557D01*
X24355Y41640D01*
X24272Y41641D01*
X24272Y41724D01*
X24273Y41807D01*
X24274Y41890D01*
X24275Y41973D01*
X24275Y42056D01*
X24192Y42057D01*
X24193Y42140D01*
X24194Y42223D01*
X24194Y42306D01*
X24195Y42389D01*
X24196Y42472D01*
X24113Y42472D01*
X24114Y42555D01*
X24197Y42555D01*
X24197Y42638D01*
X24114Y42639D01*
X24115Y42722D01*
X24198Y42721D01*
X24199Y42804D01*
X24116Y42805D01*
X24117Y42888D01*
X24117Y42971D01*
X24118Y43054D01*
X24119Y43137D01*
X24119Y43220D01*
X24036Y43220D01*
X24037Y43303D01*
X24120Y43303D01*
X24121Y43386D01*
X24038Y43387D01*
X24039Y43470D01*
X24039Y43553D01*
X24040Y43635D01*
X24041Y43718D01*
X24042Y43802D01*
X23958Y43802D01*
X23959Y43885D01*
X24042Y43885D01*
X24043Y43968D01*
X23960Y43968D01*
X23961Y44051D01*
X23961Y44134D01*
X23962Y44217D01*
X23963Y44300D01*
X23964Y44383D01*
X23880Y44384D01*
X23880Y44301D01*
X23797Y44302D01*
X23796Y44219D01*
X23879Y44218D01*
X23878Y44135D01*
X23795Y44136D01*
X23795Y44053D01*
X23794Y43970D01*
X23793Y43887D01*
X23792Y43804D01*
X23792Y43721D01*
X23709Y43721D01*
X23708Y43639D01*
X23707Y43555D01*
X23707Y43472D01*
X23706Y43389D01*
X23705Y43306D01*
X23622Y43307D01*
X23621Y43224D01*
X23704Y43223D01*
X23704Y43140D01*
X23621Y43141D01*
X23620Y43058D01*
X23703Y43057D01*
X23702Y42974D01*
X23619Y42975D01*
X23618Y42892D01*
X23701Y42891D01*
X23701Y42808D01*
X23618Y42809D01*
X23617Y42726D01*
X23616Y42643D01*
X23616Y42560D01*
X23532Y42561D01*
X23532Y42478D01*
X23615Y42477D01*
X23614Y42394D01*
X23531Y42395D01*
X23530Y42311D01*
X23530Y42228D01*
X23529Y42145D01*
X23446Y42146D01*
X23445Y42063D01*
X23528Y42063D01*
X23527Y41980D01*
X23444Y41980D01*
X23444Y41897D01*
X23527Y41896D01*
X23526Y41813D01*
X23443Y41814D01*
X23442Y41731D01*
X23525Y41730D01*
X23525Y41647D01*
X23441Y41648D01*
X23441Y41565D01*
X23440Y41482D01*
X23439Y41399D01*
X23356Y41400D01*
X23356Y41317D01*
X23439Y41316D01*
X23438Y41233D01*
X23355Y41234D01*
X23354Y41151D01*
X23353Y41068D01*
X23353Y40985D01*
X23270Y40985D01*
X23269Y40902D01*
X23352Y40902D01*
X23351Y40819D01*
X23268Y40819D01*
X23268Y40736D01*
X23350Y40736D01*
X23350Y40653D01*
X23267Y40653D01*
X23266Y40570D01*
X23349Y40570D01*
X23348Y40486D01*
X23265Y40487D01*
X23265Y40404D01*
X23264Y40321D01*
X23263Y40238D01*
X23262Y40155D01*
X23262Y40072D01*
X23179Y40073D01*
X23178Y39990D01*
X23177Y39907D01*
X23177Y39824D01*
X23176Y39741D01*
X23175Y39658D01*
X23092Y39658D01*
X23091Y39575D01*
X23174Y39575D01*
X23174Y39492D01*
X23091Y39492D01*
X23090Y39409D01*
X23173Y39409D01*
X23172Y39326D01*
X23089Y39326D01*
X23088Y39243D01*
X23088Y39160D01*
X23087Y39077D01*
X23086Y38994D01*
X23086Y38911D01*
X23002Y38912D01*
X23002Y38829D01*
X23001Y38746D01*
X23000Y38663D01*
X23000Y38580D01*
X22999Y38497D01*
X22998Y38414D01*
X22998Y38331D01*
X22914Y38332D01*
X22914Y38249D01*
X22997Y38248D01*
X22996Y38165D01*
X22913Y38166D01*
X22912Y38083D01*
X22911Y37999D01*
X22911Y37916D01*
X22910Y37833D01*
X22909Y37751D01*
X22826Y37751D01*
X22826Y37668D01*
X22825Y37585D01*
X22824Y37502D01*
X22077Y37509D01*
X22078Y37592D01*
X21995Y37592D01*
X21995Y37675D01*
X21996Y37758D01*
X21997Y37841D01*
X21914Y37842D01*
X21915Y37925D01*
X21998Y37925D01*
X21998Y38008D01*
X21915Y38008D01*
X21916Y38091D01*
X21999Y38091D01*
X22000Y38174D01*
X21917Y38174D01*
X21917Y38257D01*
X22001Y38257D01*
X22001Y38340D01*
X21918Y38340D01*
X21919Y38423D01*
X21920Y38506D01*
X21920Y38589D01*
X21921Y38672D01*
X21922Y38755D01*
X21839Y38756D01*
X21839Y38839D01*
X21840Y38922D01*
X21841Y39005D01*
X21842Y39088D01*
X21842Y39171D01*
X21759Y39172D01*
X21760Y39255D01*
X21843Y39254D01*
X21844Y39337D01*
X21761Y39338D01*
X21761Y39421D01*
X21845Y39420D01*
X21845Y39503D01*
X21762Y39504D01*
X21763Y39587D01*
X21764Y39670D01*
X21765Y39753D01*
X21765Y39836D01*
X21766Y39919D01*
X21683Y39920D01*
X21684Y40003D01*
X21684Y40086D01*
X21685Y40169D01*
X21686Y40252D01*
X21687Y40335D01*
X21603Y40336D01*
X21604Y40419D01*
X21687Y40418D01*
X21688Y40501D01*
X21605Y40502D01*
X21606Y40585D01*
X21689Y40584D01*
X21689Y40667D01*
X21606Y40668D01*
X21607Y40751D01*
X21608Y40834D01*
X21609Y40917D01*
X21609Y41000D01*
X21610Y41083D01*
X21527Y41084D01*
X21528Y41167D01*
X21528Y41250D01*
X21529Y41333D01*
X21530Y41416D01*
X21531Y41499D01*
X21448Y41500D01*
X21448Y41583D01*
X21531Y41582D01*
X21532Y41665D01*
X21449Y41666D01*
X21450Y41748D01*
X21533Y41748D01*
X21533Y41831D01*
X21451Y41831D01*
X21451Y41915D01*
X21452Y41998D01*
X21453Y42081D01*
X21453Y42164D01*
X21454Y42247D01*
X21371Y42247D01*
X21372Y42330D01*
X21455Y42330D01*
X21455Y42413D01*
X21373Y42413D01*
X21373Y42496D01*
X21374Y42579D01*
X21375Y42663D01*
X21375Y42746D01*
X21376Y42829D01*
X21293Y42829D01*
X21294Y42912D01*
X21377Y42911D01*
X21378Y42995D01*
X21295Y42995D01*
X21295Y43078D01*
X21378Y43078D01*
X21379Y43161D01*
X21296Y43161D01*
X21297Y43244D01*
X21297Y43327D01*
X21298Y43410D01*
X21215Y43411D01*
X21216Y43494D01*
X21299Y43493D01*
X21300Y43576D01*
X21217Y43577D01*
X21217Y43660D01*
X21300Y43659D01*
X21301Y43742D01*
X21218Y43743D01*
X21219Y43826D01*
X21219Y43909D01*
X21220Y43992D01*
X21137Y43993D01*
X21138Y44076D01*
X21221Y44075D01*
X21222Y44158D01*
X21139Y44159D01*
X21139Y44242D01*
X21222Y44241D01*
X21223Y44324D01*
X21140Y44325D01*
X21141Y44408D01*
X21142Y44491D01*
X21142Y44574D01*
X21059Y44575D01*
X21058Y44492D01*
X21058Y44409D01*
X21057Y44326D01*
X20974Y44326D01*
X20973Y44243D01*
X21056Y44243D01*
X21056Y44160D01*
X20973Y44161D01*
X20972Y44077D01*
X21055Y44077D01*
X21054Y43994D01*
X20971Y43994D01*
X20970Y43911D01*
X21054Y43911D01*
X21053Y43828D01*
X20970Y43828D01*
X20969Y43745D01*
X20968Y43662D01*
X20968Y43579D01*
X20967Y43496D01*
X20966Y43413D01*
X20883Y43414D01*
X20882Y43331D01*
X20882Y43248D01*
X20881Y43165D01*
X20880Y43082D01*
X20879Y42999D01*
X20797Y43000D01*
X20796Y42917D01*
X20879Y42916D01*
X20878Y42833D01*
X20795Y42834D01*
X20794Y42751D01*
X20877Y42750D01*
X20877Y42667D01*
X20794Y42667D01*
X20793Y42584D01*
X20792Y42502D01*
X20791Y42419D01*
X20791Y42336D01*
X20790Y42252D01*
X20707Y42253D01*
X20706Y42170D01*
X20706Y42087D01*
X20705Y42004D01*
X20704Y41921D01*
X20703Y41838D01*
X20620Y41839D01*
X20619Y41756D01*
X20703Y41755D01*
X20702Y41672D01*
X20619Y41673D01*
X20618Y41590D01*
X20701Y41589D01*
X20700Y41506D01*
X20617Y41507D01*
X20617Y41424D01*
X20616Y41341D01*
X20615Y41258D01*
X20615Y41175D01*
X20614Y41092D01*
X20531Y41092D01*
X20530Y41009D01*
X20529Y40926D01*
X20529Y40843D01*
X20528Y40760D01*
X20527Y40677D01*
X20444Y40678D01*
X20443Y40595D01*
X20526Y40594D01*
X20526Y40511D01*
X20443Y40512D01*
X20442Y40429D01*
X20525Y40428D01*
X20524Y40345D01*
X20441Y40346D01*
X20440Y40263D01*
X20524Y40262D01*
X20523Y40179D01*
X20440Y40180D01*
X20439Y40097D01*
X20438Y40014D01*
X20438Y39931D01*
X20355Y39931D01*
X20354Y39849D01*
X20437Y39848D01*
X20436Y39765D01*
X20353Y39765D01*
X20352Y39682D01*
X20352Y39599D01*
X20351Y39516D01*
X20350Y39433D01*
X20349Y39350D01*
X20267Y39351D01*
X20266Y39268D01*
X20349Y39267D01*
X20348Y39184D01*
X20265Y39185D01*
X20264Y39102D01*
X20347Y39101D01*
X20347Y39018D01*
X20264Y39019D01*
X20263Y38936D01*
X20262Y38853D01*
X20261Y38770D01*
X20178Y38771D01*
X20178Y38688D01*
X20261Y38687D01*
X20260Y38604D01*
X20177Y38605D01*
X20176Y38522D01*
X20259Y38521D01*
X20258Y38438D01*
X20176Y38439D01*
X20175Y38355D01*
X20174Y38273D01*
X20173Y38190D01*
X20090Y38190D01*
X20089Y38107D01*
X20173Y38107D01*
X20172Y38023D01*
X20089Y38024D01*
X20088Y37941D01*
X20171Y37940D01*
X20170Y37857D01*
X20087Y37858D01*
X20087Y37775D01*
X20086Y37692D01*
X20085Y37609D01*
X20002Y37610D01*
X20001Y37527D01*
X19254Y37533D01*
X19255Y37616D01*
X19338Y37616D01*
X19339Y37699D01*
X19256Y37699D01*
X19256Y37782D01*
X19173Y37783D01*
X19174Y37866D01*
X19175Y37949D01*
X19176Y38032D01*
X19176Y38115D01*
X19177Y38198D01*
X19094Y38199D01*
X19095Y38282D01*
X19178Y38281D01*
X19178Y38364D01*
X19095Y38365D01*
X19096Y38448D01*
X19179Y38447D01*
X19180Y38530D01*
X19097Y38531D01*
X19098Y38614D01*
X19098Y38697D01*
X19099Y38780D01*
X19100Y38863D01*
X19101Y38946D01*
X19017Y38947D01*
X19018Y39030D01*
X19101Y39029D01*
X19102Y39112D01*
X19019Y39113D01*
X19020Y39196D01*
X19020Y39279D01*
X19021Y39362D01*
X19022Y39445D01*
X19023Y39528D01*
X18940Y39529D01*
X18940Y39612D01*
X19023Y39611D01*
X19024Y39694D01*
X18941Y39695D01*
X18942Y39778D01*
X18943Y39861D01*
X18943Y39944D01*
X18944Y40027D01*
X18945Y40110D01*
X18862Y40111D01*
X18862Y40194D01*
X18945Y40193D01*
X18946Y40276D01*
X18863Y40277D01*
X18864Y40360D01*
X18865Y40443D01*
X18865Y40526D01*
X18866Y40609D01*
X18867Y40692D01*
X18784Y40692D01*
X18784Y40775D01*
X18867Y40775D01*
X18868Y40858D01*
X18785Y40859D01*
X18786Y40942D01*
X18869Y40941D01*
X18870Y41024D01*
X18787Y41025D01*
X18787Y41107D01*
X18788Y41191D01*
X18789Y41274D01*
X18789Y41357D01*
X18790Y41440D01*
X18707Y41440D01*
X18708Y41523D01*
X18709Y41606D01*
X18709Y41689D01*
X18710Y41772D01*
X18711Y41855D01*
X18628Y41856D01*
X18629Y41939D01*
X18711Y41938D01*
X18712Y42022D01*
X18629Y42022D01*
X18630Y42105D01*
X18713Y42105D01*
X18714Y42188D01*
X18631Y42188D01*
X18631Y42271D01*
X18714Y42271D01*
X18715Y42354D01*
X18632Y42354D01*
X18633Y42437D01*
X18634Y42520D01*
X18634Y42603D01*
X18551Y42604D01*
X18552Y42687D01*
X18635Y42686D01*
X18636Y42769D01*
X18553Y42770D01*
X18553Y42853D01*
X18554Y42936D01*
X18555Y43019D01*
X18472Y43020D01*
X18473Y43103D01*
X18556Y43102D01*
X18556Y43185D01*
X18473Y43186D01*
X18474Y43269D01*
X18557Y43268D01*
X18558Y43351D01*
X18475Y43352D01*
X18475Y43435D01*
X18559Y43434D01*
X18559Y43517D01*
X18476Y43518D01*
X18477Y43601D01*
X18478Y43684D01*
X18478Y43767D01*
X18479Y43850D01*
X18480Y43933D01*
X18397Y43934D01*
X18398Y44017D01*
X18398Y44100D01*
X18399Y44183D01*
X18316Y44184D01*
X18317Y44267D01*
X18400Y44266D01*
X18401Y44349D01*
X18317Y44350D01*
X18318Y44433D01*
X18235Y44433D01*
X18234Y44350D01*
X18234Y44267D01*
X18233Y44184D01*
X18232Y44101D01*
X18232Y44018D01*
X18148Y44019D01*
X18148Y43936D01*
X18231Y43935D01*
X18230Y43852D01*
X18147Y43853D01*
X18146Y43770D01*
X18229Y43769D01*
X18229Y43686D01*
X18146Y43687D01*
X18145Y43604D01*
X18144Y43521D01*
X18143Y43438D01*
X18143Y43355D01*
X18142Y43272D01*
X18059Y43273D01*
X18058Y43190D01*
X18057Y43107D01*
X18057Y43023D01*
X18056Y42941D01*
X18055Y42858D01*
X18055Y42775D01*
X18054Y42691D01*
X17971Y42692D01*
X17970Y42609D01*
X18053Y42608D01*
X18052Y42525D01*
X17969Y42526D01*
X17969Y42443D01*
X17968Y42360D01*
X17967Y42277D01*
X17966Y42194D01*
X17966Y42111D01*
X17883Y42112D01*
X17882Y42029D01*
X17965Y42028D01*
X17964Y41945D01*
X17881Y41946D01*
X17881Y41863D01*
X17880Y41780D01*
X17879Y41697D01*
X17878Y41614D01*
X17878Y41531D01*
X17795Y41531D01*
X17794Y41448D01*
X17877Y41448D01*
X17876Y41365D01*
X17793Y41365D01*
X17793Y41282D01*
X17876Y41282D01*
X17875Y41199D01*
X17792Y41199D01*
X17791Y41116D01*
X17790Y41033D01*
X17790Y40950D01*
X17789Y40867D01*
X17788Y40784D01*
X17705Y40785D01*
X17704Y40702D01*
X17704Y40619D01*
X17703Y40536D01*
X17702Y40453D01*
X17702Y40370D01*
X17618Y40371D01*
X17618Y40288D01*
X17701Y40287D01*
X17700Y40204D01*
X17617Y40204D01*
X17616Y40121D01*
X17699Y40121D01*
X17699Y40038D01*
X17616Y40038D01*
X17615Y39955D01*
X17698Y39955D01*
X17697Y39872D01*
X17614Y39872D01*
X17613Y39789D01*
X17613Y39706D01*
X17612Y39623D01*
X17529Y39624D01*
X17528Y39541D01*
X17611Y39540D01*
X17610Y39457D01*
X17527Y39458D01*
X17527Y39375D01*
X17526Y39292D01*
X17525Y39209D01*
X17442Y39210D01*
X17442Y39127D01*
X17525Y39126D01*
X17524Y39043D01*
X17441Y39044D01*
X17440Y38961D01*
X17523Y38960D01*
X17522Y38877D01*
X17439Y38878D01*
X17439Y38794D01*
X17522Y38794D01*
X17521Y38711D01*
X17438Y38712D01*
X17437Y38629D01*
X17436Y38546D01*
X17436Y38462D01*
X17435Y38379D01*
X17434Y38296D01*
X17351Y38297D01*
X17351Y38214D01*
X17350Y38131D01*
X17349Y38048D01*
X17266Y38049D01*
X17265Y37966D01*
X17348Y37965D01*
X17348Y37882D01*
X17265Y37883D01*
X17264Y37800D01*
X17347Y37799D01*
X17346Y37716D01*
X17263Y37717D01*
X17263Y37634D01*
X17179Y37634D01*
X17179Y37551D01*
X9126Y37622D01*
X9126Y37705D01*
X9210Y37704D01*
X9210Y37787D01*
X9127Y37788D01*
X9128Y37871D01*
X9211Y37870D01*
X9212Y37953D01*
X9129Y37954D01*
X9129Y38037D01*
X12035Y38011D01*
X12036Y38094D01*
X12119Y38094D01*
X12118Y38011D01*
X12367Y38008D01*
X12368Y38092D01*
X12451Y38091D01*
X12450Y38008D01*
X12699Y38006D01*
X12700Y38089D01*
X12783Y38088D01*
X12782Y38005D01*
X12865Y38004D01*
X12866Y38087D01*
X12949Y38087D01*
X12948Y38004D01*
X13031Y38003D01*
X13032Y38086D01*
X13115Y38085D01*
X13114Y38002D01*
X13197Y38001D01*
X13198Y38084D01*
X13281Y38084D01*
X13280Y38001D01*
X13363Y38000D01*
X13364Y38083D01*
X13447Y38082D01*
X13446Y37999D01*
X13529Y37998D01*
X13530Y38081D01*
X13613Y38081D01*
X13612Y37998D01*
X13695Y37997D01*
X13696Y38080D01*
X13779Y38079D01*
X13779Y37996D01*
X13861Y37995D01*
X13862Y38078D01*
X13945Y38078D01*
X13945Y37995D01*
X14028Y37994D01*
X14028Y38077D01*
X14111Y38076D01*
X14111Y37993D01*
X14194Y37993D01*
X14194Y38076D01*
X14277Y38075D01*
X14277Y37992D01*
X14360Y37991D01*
X14360Y38074D01*
X14443Y38073D01*
X14443Y37990D01*
X14526Y37990D01*
X14526Y38073D01*
X14609Y38072D01*
X14609Y37989D01*
X14692Y37988D01*
X14693Y38071D01*
X14775Y38070D01*
X14775Y37988D01*
X14858Y37987D01*
X14859Y38070D01*
X14942Y38069D01*
X14941Y37986D01*
X15024Y37985D01*
X15024Y38068D01*
X15108Y38068D01*
X15107Y37985D01*
X15190Y37984D01*
X15191Y38067D01*
X15274Y38066D01*
X15273Y37983D01*
X15356Y37982D01*
X15357Y38065D01*
X15440Y38065D01*
X15439Y37982D01*
X15522Y37981D01*
X15523Y38064D01*
X15606Y38063D01*
X15605Y37980D01*
X15688Y37980D01*
X15689Y38063D01*
X15772Y38062D01*
X15771Y37979D01*
X15854Y37978D01*
X15855Y38061D01*
X15938Y38060D01*
X15937Y37977D01*
X16020Y37977D01*
X16021Y38060D01*
X16270Y38058D01*
X16269Y37975D01*
X16352Y37974D01*
X16353Y38057D01*
X16436Y38056D01*
X16437Y38139D01*
X16520Y38138D01*
X16520Y38221D01*
X16521Y38304D01*
X16522Y38387D01*
X16523Y38470D01*
X16523Y38554D01*
X16524Y38636D01*
X16607Y38636D01*
X16608Y38719D01*
X16609Y38802D01*
X16609Y38885D01*
X16610Y38968D01*
X16693Y38967D01*
X16694Y39050D01*
X16611Y39051D01*
X16611Y39134D01*
X16694Y39133D01*
X16695Y39216D01*
X16612Y39217D01*
X16613Y39300D01*
X16696Y39299D01*
X16696Y39382D01*
X16613Y39383D01*
X16614Y39466D01*
X16697Y39465D01*
X16698Y39548D01*
X16699Y39631D01*
X16700Y39714D01*
X16700Y39797D01*
X16701Y39880D01*
X16784Y39880D01*
X16785Y39963D01*
X16785Y40046D01*
X16786Y40129D01*
X16787Y40212D01*
X16788Y40295D01*
X16871Y40294D01*
X16871Y40377D01*
X16788Y40378D01*
X16789Y40461D01*
X16872Y40460D01*
X16873Y40543D01*
X16790Y40544D01*
X16791Y40627D01*
X16873Y40626D01*
X16874Y40709D01*
X16791Y40710D01*
X16792Y40793D01*
X16875Y40792D01*
X16876Y40875D01*
X16876Y40958D01*
X16877Y41041D01*
X16960Y41041D01*
X16961Y41124D01*
X16878Y41124D01*
X16879Y41207D01*
X16962Y41206D01*
X16962Y41289D01*
X16963Y41373D01*
X16964Y41456D01*
X16964Y41539D01*
X16965Y41622D01*
X17048Y41621D01*
X17049Y41704D01*
X16966Y41705D01*
X16967Y41788D01*
X17050Y41787D01*
X17050Y41870D01*
X16967Y41871D01*
X16968Y41954D01*
X17051Y41953D01*
X17052Y42036D01*
X17052Y42119D01*
X17053Y42202D01*
X17054Y42285D01*
X17055Y42368D01*
X17138Y42367D01*
X17139Y42450D01*
X17139Y42533D01*
X17140Y42616D01*
X17141Y42699D01*
X17141Y42782D01*
X17224Y42782D01*
X17225Y42865D01*
X17142Y42865D01*
X17143Y42948D01*
X17226Y42948D01*
X17227Y43031D01*
X17143Y43031D01*
X17144Y43115D01*
X17227Y43114D01*
X17228Y43197D01*
X17229Y43280D01*
X17229Y43363D01*
X17230Y43446D01*
X17231Y43529D01*
X17232Y43612D01*
X17232Y43695D01*
X17315Y43694D01*
X17316Y43777D01*
X17317Y43860D01*
X17318Y43943D01*
X17318Y44026D01*
X17319Y44109D01*
X17402Y44109D01*
X17403Y44192D01*
X17320Y44192D01*
X17321Y44275D01*
X17403Y44275D01*
X17404Y44358D01*
X17321Y44358D01*
X17322Y44441D01*
X17405Y44441D01*
X17406Y44524D01*
X17406Y44607D01*
X17407Y44690D01*
X17408Y44773D01*
X17409Y44856D01*
X17492Y44855D01*
X17492Y44938D01*
X17409Y44939D01*
X17410Y45022D01*
X17493Y45021D01*
X17494Y45104D01*
X17494Y45187D01*
X17495Y45270D01*
X17578Y45270D01*
X17579Y45353D01*
X17496Y45353D01*
X17497Y45436D01*
X17580Y45436D01*
X17580Y45518D01*
X17497Y45519D01*
X17498Y45602D01*
X17581Y45601D01*
X17582Y45685D01*
X17499Y45685D01*
X17500Y45768D01*
X17583Y45768D01*
X17583Y45851D01*
X17584Y45934D01*
X17585Y46017D01*
X17668Y46016D01*
X17669Y46099D01*
X17585Y46100D01*
X17586Y46183D01*
X17669Y46182D01*
X17670Y46265D01*
X17671Y46348D01*
X17671Y46431D01*
X17672Y46514D01*
X17673Y46597D01*
X17756Y46596D01*
X17757Y46679D01*
X17674Y46680D01*
X17674Y46763D01*
X17757Y46762D01*
X17758Y46845D01*
X17675Y46846D01*
X17676Y46929D01*
X17759Y46928D01*
X17760Y47011D01*
X17760Y47095D01*
X17761Y47177D01*
X17762Y47260D01*
X17762Y47344D01*
X17845Y47343D01*
X17846Y47426D01*
X17763Y47427D01*
X17764Y47510D01*
X17847Y47509D01*
X17848Y47592D01*
X17848Y47675D01*
X17849Y47758D01*
X17932Y47757D01*
X17933Y47840D01*
X17850Y47841D01*
X17851Y47924D01*
X17933Y47923D01*
X17934Y48006D01*
X17851Y48007D01*
X17852Y48090D01*
X17935Y48089D01*
X17936Y48172D01*
X17936Y48255D01*
X17937Y48338D01*
X18020Y48338D01*
X18021Y48421D01*
X18104Y48420D01*
X18105Y48503D01*
X18188Y48502D01*
X18188Y48585D01*
X18271Y48584D01*
D02*
G37*
G36*
X69979Y24217D02*
X69978Y24148D01*
X70047Y24148D01*
X70047Y24216D01*
X70116Y24216D01*
X70115Y24147D01*
X70183Y24147D01*
X70184Y24215D01*
X70253Y24215D01*
X70252Y24146D01*
X70320Y24145D01*
X70321Y24214D01*
X71485Y24204D01*
X71485Y24135D01*
X71279Y24137D01*
X71279Y24069D01*
X71210Y24069D01*
X71211Y24138D01*
X71142Y24138D01*
X71142Y24070D01*
X71073Y24070D01*
X71073Y24002D01*
X71004Y24002D01*
X71004Y23934D01*
X70935Y23935D01*
X70934Y23866D01*
X70797Y23867D01*
X70797Y23799D01*
X70796Y23730D01*
X70728Y23731D01*
X70727Y23663D01*
X70659Y23663D01*
X70658Y23595D01*
X70590Y23595D01*
X70589Y23527D01*
X70521Y23527D01*
X70520Y23459D01*
X70451Y23459D01*
X70451Y23391D01*
X70519Y23390D01*
X70519Y23322D01*
X70450Y23323D01*
X70450Y23254D01*
X70381Y23255D01*
X70381Y23186D01*
X70312Y23187D01*
X70311Y23118D01*
X70311Y23050D01*
X70310Y22981D01*
X70242Y22982D01*
X70241Y22913D01*
X70241Y22845D01*
X70240Y22776D01*
X70172Y22777D01*
X70171Y22709D01*
X70240Y22708D01*
X70239Y22639D01*
X70170Y22640D01*
X70170Y22572D01*
X70169Y22503D01*
X70169Y22435D01*
X70100Y22435D01*
X70100Y22367D01*
X70099Y22298D01*
X70098Y22230D01*
X70030Y22230D01*
X70029Y22162D01*
X70098Y22161D01*
X70097Y22093D01*
X70029Y22093D01*
X70028Y22025D01*
X70096Y22024D01*
X70096Y21956D01*
X70028Y21957D01*
X70027Y21888D01*
X70026Y21820D01*
X70026Y21751D01*
X70025Y21683D01*
X70025Y21614D01*
X70024Y21546D01*
X70023Y21477D01*
X69955Y21478D01*
X69954Y21409D01*
X70023Y21409D01*
X70022Y21340D01*
X69954Y21341D01*
X69953Y21272D01*
X70021Y21272D01*
X70021Y21203D01*
X69952Y21204D01*
X69952Y21135D01*
X70020Y21135D01*
X70020Y21066D01*
X69951Y21067D01*
X69951Y20998D01*
X70019Y20998D01*
X70019Y20929D01*
X69950Y20930D01*
X69949Y20861D01*
X70018Y20861D01*
X70017Y20792D01*
X69949Y20793D01*
X69948Y20724D01*
X70017Y20724D01*
X70016Y20655D01*
X69948Y20656D01*
X69947Y20587D01*
X70016Y20587D01*
X70015Y20518D01*
X70014Y20450D01*
X70014Y20381D01*
X70013Y20313D01*
X70012Y20245D01*
X70012Y20176D01*
X70011Y20108D01*
X70011Y20039D01*
X70010Y19971D01*
X70079Y19970D01*
X70078Y19902D01*
X70009Y19902D01*
X70009Y19834D01*
X70077Y19833D01*
X70077Y19764D01*
X70008Y19765D01*
X70008Y19697D01*
X70076Y19696D01*
X70076Y19628D01*
X70007Y19628D01*
X70007Y19560D01*
X70075Y19559D01*
X70074Y19491D01*
X70074Y19422D01*
X70073Y19354D01*
X70073Y19285D01*
X70072Y19217D01*
X70140Y19216D01*
X70140Y19148D01*
X70072Y19148D01*
X70071Y19080D01*
X70139Y19079D01*
X70139Y19011D01*
X70138Y18942D01*
X70138Y18874D01*
X70137Y18805D01*
X70136Y18737D01*
X70205Y18736D01*
X70204Y18668D01*
X70136Y18668D01*
X70135Y18600D01*
X70204Y18599D01*
X70203Y18531D01*
X70202Y18462D01*
X70202Y18394D01*
X70201Y18325D01*
X70201Y18257D01*
X70269Y18256D01*
X70268Y18188D01*
X70268Y18119D01*
X70267Y18051D01*
X70336Y18050D01*
X70335Y17982D01*
X70267Y17982D01*
X70266Y17914D01*
X70335Y17913D01*
X70334Y17845D01*
X70266Y17845D01*
X70265Y17777D01*
X70333Y17776D01*
X70333Y17708D01*
X70332Y17639D01*
X70332Y17571D01*
X70400Y17570D01*
X70399Y17502D01*
X70399Y17433D01*
X70398Y17365D01*
X70467Y17364D01*
X70466Y17296D01*
X70398Y17296D01*
X70397Y17228D01*
X70466Y17227D01*
X70465Y17159D01*
X70397Y17159D01*
X70396Y17091D01*
X70464Y17090D01*
X70464Y17022D01*
X70463Y16953D01*
X70463Y16885D01*
X70531Y16884D01*
X70530Y16816D01*
X70530Y16747D01*
X70529Y16679D01*
X70598Y16678D01*
X70597Y16610D01*
X70529Y16610D01*
X70528Y16542D01*
X70597Y16541D01*
X70596Y16473D01*
X70595Y16404D01*
X70595Y16336D01*
X70526Y16336D01*
X70527Y16405D01*
X70458Y16405D01*
X70458Y16337D01*
X70389Y16338D01*
X70390Y16406D01*
X70184Y16408D01*
X70185Y16476D01*
X70117Y16477D01*
X70116Y16408D01*
X70047Y16409D01*
X70048Y16477D01*
X69706Y16480D01*
X69706Y16549D01*
X69638Y16550D01*
X69637Y16481D01*
X69569Y16482D01*
X69569Y16550D01*
X69501Y16551D01*
X69502Y16619D01*
X69433Y16620D01*
X69432Y16551D01*
X69364Y16552D01*
X69365Y16621D01*
X69022Y16623D01*
X69023Y16692D01*
X68817Y16694D01*
X68818Y16762D01*
X68476Y16765D01*
X68476Y16834D01*
X68271Y16836D01*
X68271Y16904D01*
X67929Y16907D01*
X67929Y16975D01*
X67861Y16976D01*
X67862Y17044D01*
X67793Y17045D01*
X67792Y16977D01*
X67724Y16977D01*
X67725Y17046D01*
X67519Y17048D01*
X67520Y17116D01*
X67451Y17117D01*
X67452Y17185D01*
X67383Y17186D01*
X67383Y17117D01*
X67314Y17118D01*
X67315Y17186D01*
X67110Y17188D01*
X67110Y17256D01*
X66905Y17258D01*
X66905Y17327D01*
X66700Y17329D01*
X66700Y17397D01*
X66632Y17398D01*
X66632Y17466D01*
X66564Y17467D01*
X66563Y17398D01*
X66495Y17399D01*
X66496Y17467D01*
X66290Y17469D01*
X66291Y17538D01*
X66222Y17538D01*
X66223Y17607D01*
X66017Y17608D01*
X66018Y17677D01*
X65949Y17677D01*
X65950Y17746D01*
X65745Y17748D01*
X65745Y17816D01*
X65677Y17817D01*
X65677Y17885D01*
X65472Y17887D01*
X65473Y17956D01*
X65404Y17956D01*
X65405Y18025D01*
X65336Y18025D01*
X65337Y18094D01*
X65268Y18094D01*
X65269Y18163D01*
X65064Y18165D01*
X65064Y18233D01*
X64996Y18234D01*
X64996Y18302D01*
X64928Y18303D01*
X64928Y18371D01*
X64860Y18372D01*
X64860Y18440D01*
X64792Y18441D01*
X64793Y18509D01*
X64724Y18510D01*
X64725Y18578D01*
X64656Y18579D01*
X64657Y18648D01*
X64588Y18648D01*
X64589Y18717D01*
X64590Y18785D01*
X64590Y18854D01*
X64522Y18854D01*
X64522Y18923D01*
X64454Y18923D01*
X64454Y18992D01*
X64455Y19060D01*
X64455Y19129D01*
X64387Y19129D01*
X64388Y19198D01*
X64456Y19197D01*
X64457Y19266D01*
X64388Y19266D01*
X64389Y19335D01*
X64457Y19334D01*
X64458Y19403D01*
X64389Y19403D01*
X64390Y19472D01*
X64391Y19540D01*
X64391Y19609D01*
X64460Y19608D01*
X64460Y19677D01*
X64392Y19677D01*
X64392Y19746D01*
X64461Y19745D01*
X64461Y19814D01*
X64462Y19882D01*
X64463Y19951D01*
X64531Y19950D01*
X64532Y20018D01*
X64600Y20018D01*
X64601Y20086D01*
X64532Y20087D01*
X64533Y20155D01*
X64601Y20155D01*
X64602Y20223D01*
X64603Y20292D01*
X64603Y20360D01*
X64672Y20360D01*
X64672Y20428D01*
X64741Y20427D01*
X64741Y20496D01*
X64673Y20496D01*
X64674Y20565D01*
X64742Y20564D01*
X64743Y20633D01*
X64743Y20701D01*
X64812Y20701D01*
X64812Y20769D01*
X64813Y20838D01*
X64881Y20837D01*
X64882Y20906D01*
X64882Y20974D01*
X64883Y21043D01*
X64952Y21042D01*
X64952Y21111D01*
X65021Y21110D01*
X65021Y21178D01*
X64953Y21179D01*
X64953Y21248D01*
X65022Y21247D01*
X65022Y21315D01*
X65091Y21315D01*
X65092Y21383D01*
X65160Y21383D01*
X65161Y21451D01*
X65161Y21520D01*
X65230Y21519D01*
X65230Y21587D01*
X65231Y21656D01*
X65299Y21655D01*
X65300Y21724D01*
X65368Y21723D01*
X65369Y21792D01*
X65438Y21791D01*
X65438Y21859D01*
X65439Y21928D01*
X65507Y21927D01*
X65508Y21996D01*
X65508Y22064D01*
X65577Y22064D01*
X65578Y22132D01*
X65646Y22132D01*
X65647Y22200D01*
X65715Y22200D01*
X65716Y22268D01*
X65784Y22267D01*
X65785Y22336D01*
X65853Y22335D01*
X65854Y22404D01*
X65922Y22403D01*
X65923Y22472D01*
X65991Y22471D01*
X65992Y22539D01*
X66060Y22539D01*
X66061Y22607D01*
X66129Y22607D01*
X66130Y22675D01*
X66199Y22675D01*
X66199Y22743D01*
X66268Y22743D01*
X66268Y22811D01*
X66337Y22810D01*
X66337Y22879D01*
X66406Y22878D01*
X66406Y22947D01*
X66475Y22946D01*
X66475Y23015D01*
X66544Y23014D01*
X66545Y23083D01*
X66613Y23082D01*
X66614Y23151D01*
X66819Y23149D01*
X66820Y23217D01*
X66888Y23217D01*
X66889Y23285D01*
X67094Y23283D01*
X67095Y23352D01*
X67163Y23351D01*
X67164Y23420D01*
X67232Y23419D01*
X67233Y23487D01*
X67438Y23486D01*
X67439Y23554D01*
X67507Y23554D01*
X67508Y23622D01*
X67713Y23620D01*
X67714Y23689D01*
X67920Y23687D01*
X67920Y23755D01*
X67989Y23755D01*
X67989Y23823D01*
X68058Y23823D01*
X68057Y23754D01*
X68126Y23754D01*
X68126Y23822D01*
X68332Y23820D01*
X68332Y23889D01*
X68401Y23888D01*
X68401Y23957D01*
X68470Y23956D01*
X68469Y23888D01*
X68538Y23887D01*
X68538Y23956D01*
X68744Y23954D01*
X68744Y24022D01*
X68813Y24022D01*
X68812Y23953D01*
X68881Y23953D01*
X68881Y24021D01*
X68950Y24020D01*
X68950Y24089D01*
X69019Y24088D01*
X69018Y24020D01*
X69087Y24019D01*
X69087Y24088D01*
X69567Y24083D01*
X69567Y24152D01*
X69636Y24151D01*
X69635Y24083D01*
X69704Y24082D01*
X69704Y24151D01*
X69910Y24149D01*
X69910Y24217D01*
X69979Y24217D01*
D02*
G37*
G36*
X72511Y23989D02*
X72510Y23921D01*
X72579Y23920D01*
X72579Y23989D01*
X72648Y23988D01*
X72647Y23920D01*
X72989Y23917D01*
X72989Y23848D01*
X73057Y23848D01*
X73058Y23916D01*
X73126Y23915D01*
X73126Y23847D01*
X73331Y23845D01*
X73331Y23777D01*
X73536Y23775D01*
X73536Y23707D01*
X73604Y23706D01*
X73605Y23774D01*
X73673Y23774D01*
X73672Y23705D01*
X73741Y23705D01*
X73740Y23636D01*
X73809Y23636D01*
X73809Y23704D01*
X73878Y23704D01*
X73877Y23635D01*
X74083Y23633D01*
X74082Y23565D01*
X74151Y23564D01*
X74150Y23496D01*
X74355Y23494D01*
X74355Y23425D01*
X74560Y23424D01*
X74560Y23355D01*
X74628Y23355D01*
X74628Y23286D01*
X74833Y23284D01*
X74832Y23216D01*
X75038Y23214D01*
X75037Y23145D01*
X75106Y23145D01*
X75105Y23076D01*
X75174Y23076D01*
X75173Y23007D01*
X75378Y23006D01*
X75378Y22937D01*
X75446Y22937D01*
X75446Y22868D01*
X75514Y22867D01*
X75514Y22799D01*
X75719Y22797D01*
X75718Y22729D01*
X75787Y22728D01*
X75786Y22659D01*
X75855Y22659D01*
X75854Y22591D01*
X75923Y22590D01*
X75922Y22521D01*
X76127Y22520D01*
X76127Y22451D01*
X76195Y22451D01*
X76195Y22382D01*
X76263Y22381D01*
X76263Y22313D01*
X76331Y22312D01*
X76331Y22244D01*
X76399Y22243D01*
X76398Y22175D01*
X76467Y22174D01*
X76466Y22106D01*
X76603Y22105D01*
X76603Y22036D01*
X76602Y21968D01*
X76807Y21966D01*
X76807Y21897D01*
X76806Y21829D01*
X76943Y21828D01*
X76943Y21759D01*
X76942Y21691D01*
X77079Y21689D01*
X77078Y21621D01*
X77078Y21553D01*
X77215Y21551D01*
X77214Y21483D01*
X77214Y21414D01*
X77351Y21413D01*
X77350Y21345D01*
X77349Y21276D01*
X77486Y21275D01*
X77486Y21206D01*
X77417Y21207D01*
X77417Y21139D01*
X77554Y21137D01*
X77553Y21069D01*
X77552Y21001D01*
X77621Y21000D01*
X77620Y20931D01*
X77689Y20931D01*
X77688Y20862D01*
X77757Y20862D01*
X77756Y20793D01*
X77824Y20793D01*
X77824Y20724D01*
X77892Y20724D01*
X77892Y20655D01*
X77960Y20654D01*
X77960Y20586D01*
X77959Y20518D01*
X77959Y20449D01*
X78027Y20448D01*
X78026Y20380D01*
X78095Y20379D01*
X78094Y20311D01*
X78163Y20310D01*
X78162Y20242D01*
X78231Y20241D01*
X78230Y20173D01*
X78298Y20172D01*
X78298Y20104D01*
X78297Y20035D01*
X78366Y20035D01*
X78365Y19966D01*
X78365Y19898D01*
X78433Y19897D01*
X78433Y19829D01*
X78501Y19828D01*
X78500Y19760D01*
X78500Y19691D01*
X78499Y19623D01*
X78568Y19622D01*
X78567Y19554D01*
X78636Y19553D01*
X78635Y19484D01*
X78703Y19484D01*
X78703Y19415D01*
X78702Y19347D01*
X78702Y19278D01*
X78770Y19278D01*
X78769Y19209D01*
X78838Y19209D01*
X78837Y19140D01*
X78837Y19072D01*
X78836Y19003D01*
X78905Y19003D01*
X78904Y18934D01*
X78973Y18934D01*
X78972Y18865D01*
X78971Y18797D01*
X78971Y18728D01*
X79039Y18728D01*
X79039Y18659D01*
X79107Y18658D01*
X79106Y18590D01*
X79106Y18521D01*
X79105Y18453D01*
X79174Y18452D01*
X79173Y18384D01*
X79242Y18383D01*
X79241Y18315D01*
X79173Y18316D01*
X79172Y18247D01*
X79104Y18248D01*
X79104Y18316D01*
X79036Y18317D01*
X79036Y18385D01*
X78968Y18386D01*
X78968Y18454D01*
X78900Y18455D01*
X78900Y18523D01*
X78832Y18524D01*
X78833Y18592D01*
X78764Y18593D01*
X78765Y18661D01*
X78765Y18730D01*
X78697Y18731D01*
X78698Y18799D01*
X78629Y18800D01*
X78630Y18868D01*
X78561Y18869D01*
X78562Y18937D01*
X78562Y19006D01*
X78425Y19007D01*
X78426Y19075D01*
X78426Y19144D01*
X78290Y19145D01*
X78290Y19214D01*
X78291Y19282D01*
X78222Y19283D01*
X78223Y19351D01*
X78154Y19352D01*
X78155Y19420D01*
X78018Y19421D01*
X78019Y19490D01*
X78019Y19558D01*
X77882Y19559D01*
X77883Y19628D01*
X77814Y19628D01*
X77815Y19697D01*
X77678Y19698D01*
X77679Y19767D01*
X77610Y19767D01*
X77611Y19836D01*
X77542Y19836D01*
X77543Y19905D01*
X77474Y19905D01*
X77475Y19974D01*
X77407Y19974D01*
X77407Y20043D01*
X77339Y20044D01*
X77339Y20112D01*
X77134Y20114D01*
X77134Y20182D01*
X77066Y20183D01*
X77066Y20251D01*
X76998Y20252D01*
X76999Y20321D01*
X76930Y20321D01*
X76931Y20390D01*
X76725Y20391D01*
X76726Y20460D01*
X76657Y20460D01*
X76658Y20529D01*
X76590Y20529D01*
X76590Y20598D01*
X76522Y20599D01*
X76522Y20667D01*
X76317Y20669D01*
X76317Y20737D01*
X76249Y20738D01*
X76249Y20806D01*
X76044Y20808D01*
X76045Y20877D01*
X75976Y20877D01*
X75977Y20946D01*
X75771Y20948D01*
X75772Y21016D01*
X75704Y21017D01*
X75704Y21085D01*
X75636Y21086D01*
X75635Y21017D01*
X75567Y21018D01*
X75567Y21086D01*
X75499Y21087D01*
X75499Y21155D01*
X75431Y21156D01*
X75431Y21225D01*
X75363Y21225D01*
X75362Y21157D01*
X75294Y21157D01*
X75294Y21226D01*
X75089Y21227D01*
X75090Y21296D01*
X75021Y21296D01*
X75022Y21365D01*
X74816Y21367D01*
X74817Y21435D01*
X74611Y21437D01*
X74612Y21506D01*
X74407Y21507D01*
X74407Y21576D01*
X74202Y21578D01*
X74202Y21646D01*
X73997Y21648D01*
X73997Y21716D01*
X73792Y21718D01*
X73793Y21787D01*
X73587Y21788D01*
X73588Y21857D01*
X73519Y21858D01*
X73519Y21789D01*
X73450Y21790D01*
X73451Y21858D01*
X73382Y21859D01*
X73383Y21927D01*
X73314Y21928D01*
X73314Y21859D01*
X73245Y21860D01*
X73246Y21928D01*
X72904Y21931D01*
X72904Y22000D01*
X72836Y22001D01*
X72835Y21932D01*
X72767Y21933D01*
X72767Y22001D01*
X72699Y22002D01*
X72699Y22070D01*
X72631Y22071D01*
X72630Y22002D01*
X72562Y22003D01*
X72562Y22071D01*
X72494Y22072D01*
X72493Y22004D01*
X72425Y22004D01*
X72425Y22072D01*
X72357Y22073D01*
X72356Y22005D01*
X72288Y22005D01*
X72289Y22074D01*
X72220Y22074D01*
X72219Y22006D01*
X72151Y22006D01*
X72151Y22075D01*
X72083Y22075D01*
X72082Y22007D01*
X72014Y22008D01*
X72014Y22076D01*
X71946Y22077D01*
X71946Y22008D01*
X71877Y22009D01*
X71878Y22077D01*
X71809Y22078D01*
X71808Y22009D01*
X71740Y22010D01*
X71740Y21941D01*
X71671Y21942D01*
X71672Y22011D01*
X71603Y22011D01*
X71602Y21943D01*
X71397Y21945D01*
X71396Y21876D01*
X71328Y21877D01*
X71327Y21808D01*
X71259Y21809D01*
X71258Y21740D01*
X71190Y21741D01*
X71189Y21672D01*
X71121Y21673D01*
X71121Y21742D01*
X71122Y21810D01*
X71123Y21878D01*
X71123Y21947D01*
X71124Y22015D01*
X71192Y22015D01*
X71193Y22083D01*
X71124Y22084D01*
X71125Y22152D01*
X71193Y22152D01*
X71194Y22220D01*
X71126Y22221D01*
X71126Y22289D01*
X71195Y22289D01*
X71195Y22357D01*
X71196Y22426D01*
X71196Y22494D01*
X71265Y22493D01*
X71266Y22562D01*
X71266Y22630D01*
X71267Y22699D01*
X71335Y22698D01*
X71336Y22767D01*
X71267Y22768D01*
X71268Y22836D01*
X71336Y22835D01*
X71337Y22904D01*
X71337Y22972D01*
X71406Y22972D01*
X71407Y23040D01*
X71407Y23109D01*
X71476Y23108D01*
X71476Y23177D01*
X71477Y23245D01*
X71478Y23313D01*
X71546Y23313D01*
X71547Y23381D01*
X71615Y23381D01*
X71616Y23449D01*
X71616Y23518D01*
X71753Y23517D01*
X71754Y23585D01*
X71754Y23653D01*
X71891Y23652D01*
X71892Y23721D01*
X71893Y23789D01*
X72030Y23788D01*
X72030Y23857D01*
X72099Y23856D01*
X72099Y23924D01*
X72442Y23922D01*
X72442Y23990D01*
X72511Y23989D01*
D02*
G37*
G36*
X76517Y20051D02*
X76516Y19982D01*
X76585Y19982D01*
X76584Y19913D01*
X76653Y19913D01*
X76652Y19844D01*
X76858Y19842D01*
X76857Y19774D01*
X76925Y19773D01*
X76925Y19705D01*
X76993Y19704D01*
X76993Y19636D01*
X77198Y19634D01*
X77197Y19565D01*
X77266Y19565D01*
X77265Y19496D01*
X77334Y19496D01*
X77333Y19427D01*
X77402Y19427D01*
X77401Y19358D01*
X77470Y19358D01*
X77469Y19289D01*
X77538Y19288D01*
X77537Y19220D01*
X77742Y19218D01*
X77742Y19150D01*
X77810Y19149D01*
X77810Y19081D01*
X77878Y19080D01*
X77877Y19012D01*
X77946Y19011D01*
X77945Y18943D01*
X78014Y18942D01*
X78013Y18873D01*
X78082Y18873D01*
X78081Y18804D01*
X78150Y18804D01*
X78149Y18735D01*
X78218Y18735D01*
X78217Y18666D01*
X78285Y18666D01*
X78285Y18597D01*
X78353Y18597D01*
X78353Y18528D01*
X78421Y18528D01*
X78421Y18459D01*
X78489Y18458D01*
X78488Y18390D01*
X78557Y18389D01*
X78556Y18321D01*
X78625Y18320D01*
X78624Y18252D01*
X78693Y18251D01*
X78692Y18183D01*
X78624Y18183D01*
X78623Y18115D01*
X78760Y18114D01*
X78759Y18045D01*
X78759Y17977D01*
X78827Y17976D01*
X78827Y17908D01*
X78895Y17907D01*
X78895Y17839D01*
X78963Y17838D01*
X78962Y17769D01*
X79031Y17769D01*
X79030Y17700D01*
X79099Y17700D01*
X79098Y17631D01*
X79030Y17632D01*
X79029Y17563D01*
X79098Y17563D01*
X79097Y17494D01*
X79166Y17494D01*
X79165Y17425D01*
X79233Y17425D01*
X79233Y17356D01*
X79164Y17357D01*
X79164Y17288D01*
X79232Y17288D01*
X79232Y17219D01*
X79300Y17219D01*
X79299Y17150D01*
X79368Y17150D01*
X79367Y17081D01*
X79367Y17013D01*
X79366Y16944D01*
X79435Y16943D01*
X79434Y16875D01*
X79433Y16806D01*
X79433Y16738D01*
X79501Y16737D01*
X79501Y16669D01*
X79500Y16601D01*
X79500Y16532D01*
X79568Y16531D01*
X79567Y16463D01*
X79567Y16395D01*
X79566Y16326D01*
X79635Y16325D01*
X79634Y16257D01*
X79633Y16188D01*
X79633Y16120D01*
X79701Y16119D01*
X79701Y16051D01*
X79632Y16051D01*
X79632Y15983D01*
X79700Y15982D01*
X79699Y15914D01*
X79699Y15845D01*
X79698Y15777D01*
X79698Y15709D01*
X79697Y15640D01*
X79766Y15639D01*
X79765Y15571D01*
X79697Y15572D01*
X79696Y15503D01*
X79764Y15502D01*
X79764Y15434D01*
X79695Y15435D01*
X79695Y15366D01*
X79763Y15365D01*
X79763Y15297D01*
X79762Y15228D01*
X79761Y15160D01*
X79693Y15161D01*
X79692Y15092D01*
X79761Y15092D01*
X79760Y15023D01*
X79760Y14955D01*
X79759Y14886D01*
X79691Y14887D01*
X79690Y14818D01*
X79759Y14818D01*
X79758Y14749D01*
X79689Y14750D01*
X79689Y14681D01*
X79757Y14681D01*
X79757Y14612D01*
X79688Y14613D01*
X79688Y14544D01*
X79756Y14544D01*
X79756Y14475D01*
X79687Y14476D01*
X79686Y14407D01*
X79686Y14339D01*
X79685Y14270D01*
X79685Y14202D01*
X79684Y14133D01*
X79615Y14134D01*
X79615Y14066D01*
X79614Y13997D01*
X79614Y13929D01*
X79613Y13860D01*
X79612Y13792D01*
X79544Y13792D01*
X79544Y13724D01*
X79612Y13723D01*
X79611Y13655D01*
X79543Y13655D01*
X79542Y13587D01*
X79542Y13518D01*
X79541Y13450D01*
X79473Y13450D01*
X79472Y13382D01*
X79471Y13314D01*
X79471Y13245D01*
X79402Y13246D01*
X79402Y13177D01*
X79470Y13176D01*
X79470Y13108D01*
X79401Y13109D01*
X79400Y13040D01*
X79400Y12972D01*
X79331Y12972D01*
X79331Y12904D01*
X79330Y12835D01*
X79262Y12836D01*
X79261Y12767D01*
X79330Y12767D01*
X79329Y12698D01*
X79261Y12699D01*
X79260Y12630D01*
X79259Y12562D01*
X79191Y12563D01*
X79190Y12494D01*
X79190Y12426D01*
X79121Y12426D01*
X79121Y12358D01*
X79189Y12357D01*
X79189Y12289D01*
X79120Y12289D01*
X79119Y12221D01*
X79051Y12221D01*
X79050Y12153D01*
X78982Y12154D01*
X78981Y12085D01*
X79050Y12084D01*
X79049Y12016D01*
X78981Y12017D01*
X78980Y11948D01*
X78912Y11949D01*
X78911Y11880D01*
X78843Y11881D01*
X78842Y11812D01*
X78910Y11812D01*
X78910Y11743D01*
X78841Y11744D01*
X78841Y11675D01*
X78772Y11676D01*
X78772Y11608D01*
X78703Y11608D01*
X78703Y11540D01*
X78771Y11539D01*
X78771Y11470D01*
X78702Y11471D01*
X78701Y11403D01*
X78633Y11403D01*
X78632Y11335D01*
X78564Y11335D01*
X78563Y11267D01*
X78563Y11198D01*
X78494Y11199D01*
X78494Y11130D01*
X78493Y11062D01*
X78425Y11063D01*
X78424Y10994D01*
X78355Y10995D01*
X78355Y10926D01*
X78286Y10927D01*
X78286Y10858D01*
X78217Y10859D01*
X78217Y10791D01*
X78148Y10791D01*
X78148Y10723D01*
X78216Y10722D01*
X78215Y10654D01*
X78079Y10655D01*
X78078Y10586D01*
X78077Y10518D01*
X78009Y10518D01*
X78008Y10450D01*
X77940Y10451D01*
X77939Y10382D01*
X77871Y10383D01*
X77870Y10314D01*
X77802Y10315D01*
X77801Y10246D01*
X77732Y10247D01*
X77732Y10178D01*
X77663Y10179D01*
X77663Y10110D01*
X77594Y10111D01*
X77594Y10043D01*
X77525Y10043D01*
X77525Y9975D01*
X77456Y9975D01*
X77456Y9907D01*
X77387Y9907D01*
X77386Y9839D01*
X77318Y9840D01*
X77318Y9771D01*
X77249Y9772D01*
X77248Y9703D01*
X77111Y9704D01*
X77111Y9636D01*
X77110Y9567D01*
X76905Y9569D01*
X76904Y9501D01*
X76836Y9501D01*
X76835Y9433D01*
X76767Y9433D01*
X76766Y9365D01*
X76698Y9366D01*
X76697Y9297D01*
X76491Y9299D01*
X76491Y9230D01*
X76423Y9231D01*
X76422Y9163D01*
X76285Y9164D01*
X76284Y9095D01*
X76147Y9096D01*
X76147Y9028D01*
X76078Y9029D01*
X76078Y8960D01*
X76009Y8961D01*
X76010Y9029D01*
X75941Y9030D01*
X75941Y8961D01*
X75872Y8962D01*
X75872Y8893D01*
X75666Y8895D01*
X75666Y8827D01*
X75597Y8827D01*
X75596Y8759D01*
X75459Y8760D01*
X75460Y8828D01*
X75597Y8827D01*
X75598Y8896D01*
X75598Y8964D01*
X75667Y8964D01*
X75667Y9032D01*
X75668Y9101D01*
X75736Y9100D01*
X75737Y9168D01*
X75805Y9168D01*
X75806Y9236D01*
X75875Y9236D01*
X75875Y9304D01*
X75944Y9304D01*
X75944Y9372D01*
X76013Y9372D01*
X76013Y9440D01*
X75945Y9441D01*
X75946Y9509D01*
X76014Y9509D01*
X76015Y9577D01*
X76083Y9576D01*
X76084Y9645D01*
X76152Y9644D01*
X76153Y9713D01*
X76221Y9712D01*
X76222Y9781D01*
X76222Y9849D01*
X76223Y9918D01*
X76292Y9917D01*
X76292Y9985D01*
X76360Y9985D01*
X76361Y10053D01*
X76430Y10053D01*
X76430Y10121D01*
X76362Y10122D01*
X76362Y10190D01*
X76431Y10190D01*
X76431Y10258D01*
X76500Y10258D01*
X76500Y10326D01*
X76569Y10326D01*
X76570Y10394D01*
X76570Y10462D01*
X76639Y10462D01*
X76639Y10530D01*
X76640Y10599D01*
X76708Y10598D01*
X76709Y10667D01*
X76710Y10735D01*
X76710Y10804D01*
X76779Y10803D01*
X76779Y10871D01*
X76848Y10871D01*
X76848Y10939D01*
X76780Y10940D01*
X76780Y11009D01*
X76849Y11008D01*
X76849Y11076D01*
X76918Y11076D01*
X76919Y11144D01*
X76919Y11213D01*
X76920Y11281D01*
X76988Y11281D01*
X76989Y11349D01*
X76989Y11418D01*
X77058Y11417D01*
X77059Y11485D01*
X77059Y11554D01*
X77128Y11553D01*
X77128Y11622D01*
X77060Y11622D01*
X77060Y11691D01*
X77129Y11690D01*
X77129Y11759D01*
X77198Y11758D01*
X77198Y11827D01*
X77199Y11895D01*
X77200Y11964D01*
X77268Y11963D01*
X77269Y12032D01*
X77200Y12032D01*
X77201Y12101D01*
X77269Y12100D01*
X77270Y12168D01*
X77338Y12168D01*
X77339Y12236D01*
X77340Y12305D01*
X77340Y12373D01*
X77409Y12373D01*
X77409Y12441D01*
X77341Y12442D01*
X77341Y12510D01*
X77410Y12510D01*
X77410Y12578D01*
X77411Y12647D01*
X77412Y12715D01*
X77480Y12715D01*
X77481Y12783D01*
X77412Y12784D01*
X77413Y12852D01*
X77481Y12852D01*
X77482Y12920D01*
X77550Y12919D01*
X77551Y12988D01*
X77482Y12988D01*
X77483Y13057D01*
X77552Y13056D01*
X77552Y13125D01*
X77484Y13125D01*
X77484Y13194D01*
X77553Y13193D01*
X77553Y13262D01*
X77554Y13330D01*
X77555Y13399D01*
X77555Y13467D01*
X77556Y13536D01*
X77624Y13535D01*
X77625Y13604D01*
X77625Y13672D01*
X77626Y13740D01*
X77627Y13809D01*
X77627Y13878D01*
X77696Y13877D01*
X77696Y13945D01*
X77628Y13946D01*
X77628Y14014D01*
X77697Y14014D01*
X77697Y14082D01*
X77629Y14083D01*
X77630Y14151D01*
X77698Y14151D01*
X77699Y14219D01*
X77630Y14220D01*
X77631Y14288D01*
X77699Y14288D01*
X77700Y14356D01*
X77631Y14357D01*
X77632Y14425D01*
X77701Y14425D01*
X77701Y14493D01*
X77702Y14562D01*
X77702Y14630D01*
X77634Y14631D01*
X77634Y14699D01*
X77703Y14699D01*
X77703Y14767D01*
X77704Y14836D01*
X77705Y14904D01*
X77705Y14973D01*
X77706Y15041D01*
X77706Y15110D01*
X77707Y15178D01*
X77639Y15179D01*
X77639Y15247D01*
X77708Y15246D01*
X77708Y15315D01*
X77640Y15315D01*
X77640Y15384D01*
X77709Y15383D01*
X77710Y15452D01*
X77641Y15452D01*
X77642Y15521D01*
X77710Y15520D01*
X77711Y15589D01*
X77642Y15589D01*
X77643Y15658D01*
X77711Y15657D01*
X77712Y15726D01*
X77643Y15726D01*
X77644Y15795D01*
X77713Y15794D01*
X77713Y15863D01*
X77645Y15863D01*
X77645Y15932D01*
X77646Y16000D01*
X77646Y16069D01*
X77647Y16137D01*
X77648Y16206D01*
X77579Y16206D01*
X77580Y16275D01*
X77580Y16343D01*
X77581Y16412D01*
X77512Y16412D01*
X77513Y16481D01*
X77582Y16480D01*
X77582Y16549D01*
X77514Y16549D01*
X77514Y16618D01*
X77583Y16617D01*
X77583Y16686D01*
X77515Y16686D01*
X77515Y16755D01*
X77584Y16754D01*
X77584Y16823D01*
X77516Y16823D01*
X77517Y16892D01*
X77448Y16892D01*
X77449Y16961D01*
X77449Y17029D01*
X77450Y17098D01*
X77381Y17098D01*
X77382Y17167D01*
X77451Y17166D01*
X77451Y17235D01*
X77383Y17235D01*
X77383Y17304D01*
X77384Y17372D01*
X77384Y17441D01*
X77316Y17441D01*
X77316Y17510D01*
X77317Y17578D01*
X77318Y17647D01*
X77249Y17647D01*
X77250Y17716D01*
X77318Y17715D01*
X77319Y17784D01*
X77250Y17784D01*
X77251Y17853D01*
X77252Y17921D01*
X77252Y17990D01*
X77184Y17990D01*
X77184Y18059D01*
X77116Y18059D01*
X77117Y18128D01*
X77185Y18127D01*
X77185Y18196D01*
X77117Y18196D01*
X77118Y18265D01*
X77049Y18266D01*
X77050Y18334D01*
X77050Y18403D01*
X77051Y18471D01*
X76982Y18472D01*
X76983Y18540D01*
X76984Y18609D01*
X76984Y18677D01*
X76916Y18678D01*
X76916Y18746D01*
X76848Y18747D01*
X76849Y18815D01*
X76917Y18814D01*
X76918Y18883D01*
X76849Y18884D01*
X76850Y18952D01*
X76781Y18953D01*
X76782Y19021D01*
X76782Y19090D01*
X76783Y19158D01*
X76714Y19159D01*
X76715Y19227D01*
X76647Y19228D01*
X76647Y19296D01*
X76579Y19297D01*
X76579Y19365D01*
X76648Y19365D01*
X76648Y19433D01*
X76580Y19434D01*
X76581Y19502D01*
X76512Y19503D01*
X76513Y19571D01*
X76513Y19640D01*
X76514Y19708D01*
X76445Y19709D01*
X76446Y19777D01*
X76377Y19778D01*
X76378Y19847D01*
X76310Y19847D01*
X76310Y19916D01*
X76379Y19915D01*
X76379Y19984D01*
X76311Y19984D01*
X76311Y20053D01*
X76517Y20051D01*
D02*
G37*
G36*
X79308Y18177D02*
X79308Y18109D01*
X79307Y18040D01*
X79170Y18042D01*
X79171Y18110D01*
X79239Y18109D01*
X79240Y18178D01*
X79308Y18177D01*
D02*
G37*
G36*
X64169Y17693D02*
X64168Y17625D01*
X64237Y17624D01*
X64236Y17556D01*
X64305Y17555D01*
X64304Y17486D01*
X64304Y17418D01*
X64372Y17417D01*
X64372Y17349D01*
X64371Y17280D01*
X64439Y17280D01*
X64439Y17211D01*
X64507Y17211D01*
X64507Y17142D01*
X64575Y17142D01*
X64575Y17073D01*
X64643Y17073D01*
X64643Y17004D01*
X64711Y17004D01*
X64710Y16935D01*
X64779Y16934D01*
X64778Y16866D01*
X64847Y16865D01*
X64846Y16797D01*
X64915Y16796D01*
X64914Y16728D01*
X65119Y16726D01*
X65119Y16657D01*
X65118Y16589D01*
X65255Y16588D01*
X65255Y16519D01*
X65323Y16519D01*
X65323Y16450D01*
X65459Y16449D01*
X65459Y16381D01*
X65596Y16379D01*
X65595Y16311D01*
X65664Y16310D01*
X65663Y16242D01*
X65800Y16241D01*
X65799Y16172D01*
X65936Y16171D01*
X65936Y16103D01*
X66004Y16102D01*
X66004Y16033D01*
X66209Y16032D01*
X66208Y15963D01*
X66277Y15963D01*
X66276Y15894D01*
X66482Y15892D01*
X66481Y15824D01*
X66687Y15822D01*
X66686Y15754D01*
X66891Y15752D01*
X66891Y15683D01*
X66959Y15683D01*
X66959Y15614D01*
X67027Y15614D01*
X67028Y15682D01*
X67096Y15682D01*
X67096Y15613D01*
X67301Y15611D01*
X67301Y15543D01*
X67369Y15542D01*
X67369Y15474D01*
X67711Y15471D01*
X67710Y15402D01*
X67779Y15402D01*
X67778Y15333D01*
X67847Y15333D01*
X67847Y15401D01*
X67916Y15400D01*
X67915Y15332D01*
X68121Y15330D01*
X68120Y15262D01*
X68325Y15260D01*
X68325Y15191D01*
X68667Y15188D01*
X68667Y15120D01*
X68872Y15118D01*
X68871Y15050D01*
X69214Y15047D01*
X69213Y14978D01*
X69419Y14976D01*
X69418Y14908D01*
X69486Y14907D01*
X69487Y14976D01*
X69556Y14975D01*
X69555Y14907D01*
X69897Y14904D01*
X69897Y14835D01*
X69965Y14835D01*
X69966Y14903D01*
X70034Y14902D01*
X70034Y14834D01*
X70239Y14832D01*
X70239Y14764D01*
X70307Y14763D01*
X70308Y14832D01*
X70376Y14831D01*
X70376Y14762D01*
X70581Y14761D01*
X70580Y14692D01*
X70649Y14692D01*
X70649Y14760D01*
X70718Y14760D01*
X70717Y14691D01*
X70786Y14691D01*
X70786Y14759D01*
X70855Y14758D01*
X70854Y14690D01*
X70923Y14689D01*
X70922Y14621D01*
X70991Y14620D01*
X70991Y14689D01*
X71060Y14688D01*
X71059Y14620D01*
X71675Y14614D01*
X71675Y14546D01*
X71743Y14545D01*
X71744Y14614D01*
X71812Y14613D01*
X71812Y14545D01*
X72017Y14543D01*
X72017Y14474D01*
X72085Y14474D01*
X72086Y14542D01*
X72154Y14542D01*
X72154Y14473D01*
X72222Y14472D01*
X72223Y14541D01*
X72291Y14540D01*
X72291Y14472D01*
X72633Y14469D01*
X72632Y14400D01*
X72701Y14400D01*
X72702Y14468D01*
X72770Y14468D01*
X72769Y14399D01*
X72975Y14397D01*
X72974Y14329D01*
X73043Y14328D01*
X73043Y14397D01*
X73112Y14396D01*
X73111Y14328D01*
X73180Y14327D01*
X73180Y14396D01*
X73249Y14395D01*
X73248Y14327D01*
X73728Y14322D01*
X73727Y14254D01*
X73795Y14253D01*
X73796Y14322D01*
X73864Y14321D01*
X73864Y14253D01*
X74069Y14251D01*
X74069Y14182D01*
X74137Y14182D01*
X74138Y14250D01*
X74206Y14250D01*
X74206Y14181D01*
X74274Y14181D01*
X74275Y14249D01*
X74343Y14248D01*
X74343Y14180D01*
X74411Y14179D01*
X74412Y14248D01*
X74480Y14247D01*
X74480Y14179D01*
X74685Y14177D01*
X74686Y14245D01*
X74754Y14245D01*
X74753Y14176D01*
X75233Y14172D01*
X75233Y14241D01*
X75302Y14240D01*
X75301Y14172D01*
X75370Y14171D01*
X75370Y14240D01*
X75439Y14239D01*
X75438Y14171D01*
X75507Y14170D01*
X75507Y14238D01*
X75713Y14237D01*
X75713Y14305D01*
X76056Y14302D01*
X76056Y14371D01*
X76125Y14370D01*
X76126Y14438D01*
X76331Y14437D01*
X76332Y14505D01*
X76400Y14504D01*
X76401Y14573D01*
X76538Y14572D01*
X76538Y14640D01*
X76539Y14709D01*
X76676Y14708D01*
X76676Y14776D01*
X76677Y14845D01*
X76745Y14844D01*
X76746Y14912D01*
X76814Y14912D01*
X76815Y14980D01*
X76884Y14980D01*
X76884Y15048D01*
X76885Y15117D01*
X76885Y15185D01*
X76954Y15184D01*
X76953Y15116D01*
X77022Y15115D01*
X77021Y15047D01*
X76953Y15048D01*
X76952Y14979D01*
X77021Y14978D01*
X77020Y14910D01*
X76951Y14911D01*
X76951Y14842D01*
X77019Y14842D01*
X77019Y14773D01*
X76950Y14774D01*
X76950Y14705D01*
X76949Y14637D01*
X76948Y14568D01*
X76948Y14500D01*
X76947Y14431D01*
X76947Y14363D01*
X76946Y14294D01*
X76945Y14226D01*
X76945Y14157D01*
X76876Y14158D01*
X76876Y14089D01*
X76875Y14021D01*
X76875Y13952D01*
X76874Y13884D01*
X76873Y13816D01*
X76873Y13747D01*
X76872Y13679D01*
X76804Y13679D01*
X76803Y13611D01*
X76872Y13610D01*
X76871Y13542D01*
X76802Y13542D01*
X76802Y13474D01*
X76870Y13473D01*
X76870Y13405D01*
X76801Y13405D01*
X76801Y13337D01*
X76800Y13268D01*
X76799Y13200D01*
X76799Y13131D01*
X76798Y13063D01*
X76730Y13063D01*
X76729Y12995D01*
X76729Y12926D01*
X76728Y12858D01*
X76727Y12790D01*
X76727Y12721D01*
X76658Y12722D01*
X76658Y12653D01*
X76726Y12653D01*
X76726Y12584D01*
X76657Y12585D01*
X76657Y12516D01*
X76656Y12448D01*
X76655Y12379D01*
X76587Y12380D01*
X76586Y12311D01*
X76586Y12243D01*
X76585Y12174D01*
X76517Y12175D01*
X76516Y12107D01*
X76585Y12106D01*
X76584Y12037D01*
X76515Y12038D01*
X76515Y11970D01*
X76514Y11901D01*
X76514Y11833D01*
X76445Y11833D01*
X76445Y11765D01*
X76444Y11696D01*
X76443Y11628D01*
X76375Y11628D01*
X76374Y11560D01*
X76443Y11559D01*
X76442Y11491D01*
X76374Y11491D01*
X76373Y11423D01*
X76305Y11424D01*
X76304Y11355D01*
X76303Y11287D01*
X76303Y11218D01*
X76234Y11219D01*
X76234Y11150D01*
X76233Y11082D01*
X76233Y11013D01*
X76164Y11014D01*
X76163Y10945D01*
X76095Y10946D01*
X76094Y10877D01*
X76163Y10877D01*
X76162Y10808D01*
X76094Y10809D01*
X76093Y10740D01*
X76025Y10741D01*
X76024Y10673D01*
X75956Y10673D01*
X75955Y10605D01*
X76024Y10604D01*
X76023Y10536D01*
X75954Y10536D01*
X75954Y10468D01*
X75885Y10468D01*
X75885Y10400D01*
X75884Y10332D01*
X75884Y10263D01*
X75815Y10264D01*
X75814Y10195D01*
X75746Y10196D01*
X75745Y10127D01*
X75677Y10128D01*
X75676Y10059D01*
X75676Y9991D01*
X75607Y9991D01*
X75607Y9923D01*
X75606Y9854D01*
X75538Y9855D01*
X75537Y9787D01*
X75468Y9787D01*
X75468Y9719D01*
X75399Y9719D01*
X75399Y9651D01*
X75398Y9582D01*
X75261Y9584D01*
X75261Y9515D01*
X75260Y9447D01*
X75192Y9447D01*
X75191Y9379D01*
X75190Y9310D01*
X75054Y9311D01*
X75053Y9243D01*
X75052Y9174D01*
X74915Y9176D01*
X74915Y9107D01*
X74914Y9039D01*
X74709Y9041D01*
X74708Y8972D01*
X74640Y8973D01*
X74639Y8904D01*
X74571Y8905D01*
X74570Y8836D01*
X74502Y8837D01*
X74501Y8768D01*
X74295Y8770D01*
X74295Y8702D01*
X74226Y8702D01*
X74226Y8634D01*
X74020Y8636D01*
X74020Y8567D01*
X73951Y8568D01*
X73951Y8499D01*
X73608Y8502D01*
X73608Y8434D01*
X73402Y8436D01*
X73402Y8367D01*
X73333Y8368D01*
X73334Y8436D01*
X73265Y8437D01*
X73265Y8368D01*
X72648Y8374D01*
X72648Y8305D01*
X72579Y8306D01*
X72580Y8374D01*
X72511Y8375D01*
X72511Y8306D01*
X72442Y8307D01*
X72443Y8375D01*
X72374Y8376D01*
X72374Y8308D01*
X72305Y8308D01*
X72306Y8377D01*
X71416Y8384D01*
X71416Y8453D01*
X71348Y8454D01*
X71347Y8385D01*
X71279Y8386D01*
X71279Y8454D01*
X71074Y8456D01*
X71074Y8524D01*
X71006Y8525D01*
X71005Y8456D01*
X70937Y8457D01*
X70938Y8525D01*
X70732Y8527D01*
X70733Y8596D01*
X70664Y8596D01*
X70664Y8528D01*
X70595Y8529D01*
X70596Y8597D01*
X70527Y8598D01*
X70528Y8666D01*
X70459Y8667D01*
X70459Y8598D01*
X70390Y8599D01*
X70391Y8667D01*
X70186Y8669D01*
X70186Y8738D01*
X69981Y8739D01*
X69981Y8808D01*
X69776Y8810D01*
X69776Y8878D01*
X69571Y8880D01*
X69572Y8948D01*
X69366Y8950D01*
X69367Y9019D01*
X69298Y9019D01*
X69299Y9088D01*
X69093Y9089D01*
X69094Y9158D01*
X69025Y9159D01*
X69026Y9227D01*
X68821Y9229D01*
X68821Y9297D01*
X68753Y9298D01*
X68753Y9366D01*
X68548Y9368D01*
X68549Y9437D01*
X68480Y9437D01*
X68481Y9506D01*
X68275Y9508D01*
X68276Y9576D01*
X68207Y9577D01*
X68208Y9645D01*
X68139Y9646D01*
X68140Y9714D01*
X68072Y9715D01*
X68072Y9783D01*
X67935Y9785D01*
X67936Y9853D01*
X67799Y9854D01*
X67799Y9923D01*
X67731Y9923D01*
X67732Y9992D01*
X67663Y9992D01*
X67664Y10061D01*
X67595Y10061D01*
X67596Y10130D01*
X67527Y10131D01*
X67528Y10199D01*
X67322Y10201D01*
X67323Y10269D01*
X67392Y10269D01*
X67392Y10337D01*
X67187Y10339D01*
X67187Y10407D01*
X67119Y10408D01*
X67119Y10476D01*
X67051Y10477D01*
X67052Y10546D01*
X66983Y10546D01*
X66984Y10615D01*
X66915Y10615D01*
X66916Y10684D01*
X66847Y10684D01*
X66848Y10753D01*
X66779Y10753D01*
X66780Y10822D01*
X66711Y10822D01*
X66712Y10891D01*
X66644Y10892D01*
X66644Y10960D01*
X66576Y10961D01*
X66576Y11029D01*
X66508Y11030D01*
X66509Y11098D01*
X66440Y11099D01*
X66441Y11167D01*
X66372Y11168D01*
X66373Y11236D01*
X66304Y11237D01*
X66305Y11305D01*
X66236Y11306D01*
X66237Y11374D01*
X66305Y11374D01*
X66306Y11442D01*
X66169Y11444D01*
X66170Y11512D01*
X66170Y11581D01*
X66102Y11581D01*
X66102Y11649D01*
X66034Y11650D01*
X66035Y11719D01*
X65966Y11719D01*
X65967Y11788D01*
X65898Y11788D01*
X65899Y11857D01*
X65830Y11857D01*
X65831Y11926D01*
X65762Y11926D01*
X65763Y11995D01*
X65764Y12063D01*
X65764Y12132D01*
X65696Y12133D01*
X65696Y12201D01*
X65628Y12202D01*
X65628Y12270D01*
X65560Y12271D01*
X65561Y12339D01*
X65561Y12408D01*
X65493Y12408D01*
X65493Y12477D01*
X65494Y12545D01*
X65425Y12546D01*
X65426Y12614D01*
X65358Y12615D01*
X65358Y12683D01*
X65290Y12684D01*
X65290Y12752D01*
X65359Y12752D01*
X65359Y12820D01*
X65291Y12821D01*
X65291Y12889D01*
X65223Y12890D01*
X65223Y12958D01*
X65155Y12959D01*
X65156Y13027D01*
X65224Y13027D01*
X65225Y13095D01*
X65156Y13096D01*
X65157Y13164D01*
X65088Y13165D01*
X65089Y13234D01*
X65021Y13234D01*
X65021Y13303D01*
X65022Y13371D01*
X65022Y13440D01*
X64954Y13440D01*
X64954Y13509D01*
X64886Y13509D01*
X64886Y13578D01*
X64955Y13577D01*
X64956Y13646D01*
X64887Y13646D01*
X64888Y13715D01*
X64819Y13715D01*
X64820Y13784D01*
X64820Y13852D01*
X64821Y13921D01*
X64753Y13921D01*
X64753Y13990D01*
X64754Y14058D01*
X64754Y14127D01*
X64686Y14127D01*
X64686Y14196D01*
X64618Y14196D01*
X64618Y14265D01*
X64687Y14264D01*
X64688Y14333D01*
X64619Y14333D01*
X64620Y14402D01*
X64620Y14470D01*
X64621Y14539D01*
X64552Y14539D01*
X64553Y14608D01*
X64485Y14608D01*
X64485Y14677D01*
X64554Y14676D01*
X64554Y14745D01*
X64486Y14746D01*
X64486Y14814D01*
X64487Y14882D01*
X64487Y14951D01*
X64419Y14952D01*
X64420Y15020D01*
X64420Y15089D01*
X64421Y15157D01*
X64352Y15157D01*
X64353Y15226D01*
X64421Y15225D01*
X64422Y15294D01*
X64354Y15294D01*
X64354Y15363D01*
X64355Y15431D01*
X64355Y15500D01*
X64287Y15500D01*
X64288Y15569D01*
X64288Y15638D01*
X64289Y15706D01*
X64220Y15707D01*
X64221Y15775D01*
X64289Y15774D01*
X64290Y15843D01*
X64221Y15844D01*
X64222Y15912D01*
X64290Y15911D01*
X64291Y15980D01*
X64223Y15980D01*
X64223Y16049D01*
X64224Y16117D01*
X64224Y16186D01*
X64156Y16186D01*
X64157Y16255D01*
X64225Y16254D01*
X64226Y16323D01*
X64157Y16323D01*
X64158Y16392D01*
X64158Y16460D01*
X64159Y16529D01*
X64160Y16597D01*
X64160Y16666D01*
X64092Y16667D01*
X64092Y16735D01*
X64161Y16734D01*
X64161Y16803D01*
X64093Y16803D01*
X64093Y16872D01*
X64162Y16871D01*
X64162Y16940D01*
X64094Y16940D01*
X64095Y17009D01*
X64163Y17008D01*
X64164Y17077D01*
X64095Y17077D01*
X64096Y17146D01*
X64164Y17145D01*
X64165Y17214D01*
X64096Y17214D01*
X64097Y17283D01*
X64098Y17351D01*
X64098Y17420D01*
X64099Y17488D01*
X64099Y17557D01*
X64100Y17625D01*
X64101Y17694D01*
X64169Y17693D01*
D02*
G37*
G36*
X77023Y15252D02*
X77022Y15184D01*
X76954Y15184D01*
X76954Y15253D01*
X77023Y15252D01*
D02*
G37*
G36*
X315328Y14690D02*
X315170D01*
Y14848D01*
X315328D01*
Y14690D01*
D02*
G37*
G36*
X315170Y14532D02*
Y14374D01*
X315012D01*
Y14532D01*
Y14690D01*
X315170D01*
Y14532D01*
D02*
G37*
G36*
X315012Y14216D02*
X314854D01*
Y14374D01*
X315012D01*
Y14216D01*
D02*
G37*
G36*
X314854Y14058D02*
X314696D01*
Y14216D01*
X314854D01*
Y14058D01*
D02*
G37*
G36*
X289118Y17690D02*
Y17532D01*
X289276D01*
Y17374D01*
X289434D01*
Y17216D01*
X289592D01*
Y17058D01*
X289750D01*
Y16900D01*
X289907D01*
Y16743D01*
X290065D01*
Y16585D01*
X290223D01*
Y16427D01*
X290381D01*
Y16269D01*
X290539D01*
Y16111D01*
X290697D01*
Y15953D01*
X290855D01*
Y15795D01*
X291013D01*
Y15637D01*
X291171D01*
Y15479D01*
X291486D01*
Y15322D01*
X291644D01*
Y15164D01*
X291802D01*
Y15006D01*
X291960D01*
Y14848D01*
X292276D01*
Y14690D01*
X292434D01*
Y14532D01*
X292749D01*
Y14374D01*
X292907D01*
Y14216D01*
X293065D01*
Y14058D01*
X293381D01*
Y13901D01*
X293697D01*
Y13743D01*
X293855D01*
Y13585D01*
X294170D01*
Y13427D01*
X294486D01*
Y13269D01*
X294644D01*
Y13111D01*
X294960D01*
Y12953D01*
X295276D01*
Y12795D01*
X295591D01*
Y12637D01*
X295907D01*
Y12479D01*
X296381D01*
Y12322D01*
X296697D01*
Y12164D01*
X297012D01*
Y12006D01*
X297486D01*
Y11848D01*
X297960D01*
Y11690D01*
X298433D01*
Y11532D01*
X298907D01*
Y11374D01*
X299381D01*
Y11216D01*
X300012D01*
Y11058D01*
X300802D01*
Y10901D01*
X301591D01*
Y10743D01*
X302854D01*
Y10585D01*
X306644D01*
Y10743D01*
X307907D01*
Y10901D01*
X308696D01*
Y11058D01*
X309328D01*
Y11216D01*
X309801D01*
Y11374D01*
X310275D01*
Y11532D01*
X310749D01*
Y11690D01*
X311065D01*
Y11848D01*
X311538D01*
Y12006D01*
X311854D01*
Y12164D01*
X312170D01*
Y12322D01*
X312328D01*
Y12479D01*
X312643D01*
Y12637D01*
X312959D01*
Y12795D01*
X313117D01*
Y12953D01*
X313275D01*
Y13111D01*
X313591D01*
Y13269D01*
X313749D01*
Y13427D01*
X313907D01*
Y13585D01*
X314064D01*
Y13743D01*
X314380D01*
Y13901D01*
X314538D01*
Y14058D01*
X314696D01*
Y13901D01*
Y13743D01*
X314538D01*
Y13585D01*
X314380D01*
Y13427D01*
X314222D01*
Y13269D01*
X314064D01*
Y13111D01*
X313907D01*
Y12953D01*
X313749D01*
Y12795D01*
X313591D01*
Y12637D01*
X313433D01*
Y12479D01*
X313275D01*
Y12322D01*
X313117D01*
Y12164D01*
X312959D01*
Y12006D01*
X312643D01*
Y11848D01*
X312486D01*
Y11690D01*
X312328D01*
Y11532D01*
X312012D01*
Y11374D01*
X311696D01*
Y11216D01*
X311538D01*
Y11058D01*
X311222D01*
Y10901D01*
X310907D01*
Y10743D01*
X310591D01*
Y10585D01*
X310275D01*
Y10427D01*
X309959D01*
Y10269D01*
X309644D01*
Y10111D01*
X309170D01*
Y9953D01*
X308854D01*
Y9795D01*
X308380D01*
Y9638D01*
X307907D01*
Y9480D01*
X307275D01*
Y9322D01*
X306644D01*
Y9164D01*
X305854D01*
Y9006D01*
X304591D01*
Y8848D01*
X302381D01*
Y8690D01*
X301275D01*
Y8848D01*
X299065D01*
Y9006D01*
X297960D01*
Y9164D01*
X297012D01*
Y9322D01*
X296223D01*
Y9480D01*
X295591D01*
Y9638D01*
X294960D01*
Y9795D01*
X294486D01*
Y9953D01*
X294012D01*
Y10111D01*
X293539D01*
Y10269D01*
X293065D01*
Y10427D01*
X292592D01*
Y10585D01*
X292276D01*
Y10743D01*
X291802D01*
Y10901D01*
X291486D01*
Y11058D01*
X291171D01*
Y11216D01*
X290697D01*
Y11374D01*
X290223D01*
Y11532D01*
X289907D01*
Y11690D01*
X289592D01*
Y11848D01*
X289276D01*
Y12006D01*
X288960D01*
Y12164D01*
X288802D01*
Y12322D01*
X288486D01*
Y12479D01*
X288171D01*
Y12637D01*
X288013D01*
Y12795D01*
X287697D01*
Y12953D01*
X287539D01*
Y13111D01*
X287223D01*
Y13269D01*
X287065D01*
Y13427D01*
X286750D01*
Y13585D01*
X286592D01*
Y13743D01*
X286276D01*
Y13901D01*
X286118D01*
Y14058D01*
X285960D01*
Y14216D01*
X285644D01*
Y14374D01*
X285487D01*
Y14532D01*
X285329D01*
Y14690D01*
X285171D01*
Y14848D01*
X285013D01*
Y15006D01*
X284697D01*
Y15164D01*
X284539D01*
Y15322D01*
X284381D01*
Y15479D01*
X284223D01*
Y15637D01*
X284066D01*
Y15795D01*
X283908D01*
Y15953D01*
X283750D01*
Y16111D01*
X283592D01*
Y16269D01*
X283434D01*
Y16427D01*
X283276D01*
Y16585D01*
X283118D01*
Y16743D01*
X282960D01*
Y16900D01*
Y17058D01*
Y17216D01*
X282645D01*
Y17374D01*
X282487D01*
Y17532D01*
X282329D01*
Y17690D01*
Y17848D01*
X289118D01*
Y17690D01*
D02*
G37*
G36*
X1005337Y-155808D02*
X1005050D01*
Y-156094D01*
X1004764D01*
Y-156380D01*
Y-156667D01*
X1004478D01*
Y-156953D01*
X1004192D01*
Y-157239D01*
X1003905D01*
Y-157526D01*
Y-157812D01*
X1003619D01*
Y-158098D01*
X1003333D01*
Y-158385D01*
X1003046D01*
Y-158671D01*
X1002760D01*
Y-158957D01*
Y-159244D01*
X1002474D01*
Y-159530D01*
X1002187D01*
Y-159816D01*
X1001901D01*
Y-160102D01*
Y-160389D01*
X1001615D01*
Y-160675D01*
X1001328D01*
Y-160961D01*
X1001042D01*
Y-161248D01*
X1000756D01*
Y-161534D01*
Y-161820D01*
X1000469D01*
Y-162107D01*
X1000183D01*
Y-162393D01*
X999897D01*
Y-162679D01*
Y-162966D01*
X999611D01*
Y-163252D01*
X999324D01*
Y-163538D01*
X999038D01*
Y-163824D01*
Y-164111D01*
X998752D01*
Y-164397D01*
X998465D01*
Y-164683D01*
X998179D01*
Y-164970D01*
X997893D01*
Y-165256D01*
Y-165542D01*
X997606D01*
Y-165829D01*
X997320D01*
Y-166115D01*
X997034D01*
Y-166401D01*
Y-166688D01*
X996747D01*
Y-166974D01*
X996461D01*
Y-167260D01*
X996175D01*
Y-167547D01*
Y-167833D01*
X995889D01*
Y-168119D01*
X995602D01*
Y-168405D01*
X995316D01*
Y-168692D01*
X995030D01*
Y-168978D01*
Y-169264D01*
X994743D01*
Y-169551D01*
X994457D01*
Y-169837D01*
X994171D01*
Y-170123D01*
Y-170410D01*
X993884D01*
Y-170696D01*
X993598D01*
Y-170982D01*
X993312D01*
Y-171269D01*
Y-171555D01*
X993025D01*
Y-171841D01*
X992739D01*
Y-172127D01*
X992453D01*
Y-172414D01*
X992166D01*
Y-172700D01*
Y-172986D01*
X991880D01*
Y-173273D01*
X991594D01*
Y-173559D01*
X991308D01*
Y-173845D01*
Y-174132D01*
X991021D01*
Y-174418D01*
X990735D01*
Y-174704D01*
X990449D01*
Y-174991D01*
X990162D01*
Y-175277D01*
Y-175563D01*
X990449D01*
Y-175850D01*
Y-176136D01*
X990735D01*
Y-176422D01*
Y-176709D01*
X991021D01*
Y-176995D01*
X991308D01*
Y-177281D01*
Y-177568D01*
X991594D01*
Y-177854D01*
Y-178140D01*
X991880D01*
Y-178426D01*
Y-178713D01*
X992166D01*
Y-178999D01*
Y-179285D01*
X992453D01*
Y-179572D01*
Y-179858D01*
X992739D01*
Y-180144D01*
Y-180431D01*
X993025D01*
Y-180717D01*
Y-181003D01*
X993312D01*
Y-181290D01*
Y-181576D01*
X993598D01*
Y-181862D01*
X993884D01*
Y-182149D01*
Y-182435D01*
X994171D01*
Y-182721D01*
Y-183007D01*
X994457D01*
Y-183294D01*
Y-183580D01*
X994743D01*
Y-183866D01*
Y-184153D01*
X995030D01*
Y-184439D01*
Y-184725D01*
X995316D01*
Y-185012D01*
Y-185298D01*
X995602D01*
Y-185584D01*
Y-185871D01*
X995889D01*
Y-186157D01*
X996175D01*
Y-186443D01*
Y-186730D01*
X996461D01*
Y-187016D01*
Y-187302D01*
X996747D01*
Y-187588D01*
Y-187875D01*
X997034D01*
Y-188161D01*
Y-188447D01*
X997320D01*
Y-188734D01*
Y-189020D01*
X997606D01*
Y-189306D01*
Y-189593D01*
X997893D01*
Y-189879D01*
Y-190165D01*
X998179D01*
Y-190452D01*
X998465D01*
Y-190738D01*
Y-191024D01*
X998752D01*
Y-191311D01*
Y-191597D01*
X999038D01*
Y-191883D01*
X983863D01*
Y-191597D01*
X983577D01*
Y-191311D01*
Y-191024D01*
Y-190738D01*
X983291D01*
Y-190452D01*
Y-190165D01*
Y-189879D01*
X983004D01*
Y-189593D01*
Y-189306D01*
X982718D01*
Y-189020D01*
Y-188734D01*
Y-188447D01*
X982432D01*
Y-188161D01*
Y-187875D01*
Y-187588D01*
X982146D01*
Y-187302D01*
Y-187016D01*
X981859D01*
Y-186730D01*
Y-186443D01*
Y-186157D01*
X981573D01*
Y-185871D01*
Y-185584D01*
Y-185298D01*
X981287D01*
Y-185012D01*
Y-184725D01*
Y-184439D01*
X981000D01*
Y-184153D01*
X980428D01*
Y-184439D01*
Y-184725D01*
X980141D01*
Y-185012D01*
X979855D01*
Y-185298D01*
Y-185584D01*
X979569D01*
Y-185871D01*
X979282D01*
Y-186157D01*
Y-186443D01*
X978996D01*
Y-186730D01*
X978710D01*
Y-187016D01*
Y-187302D01*
X978423D01*
Y-187588D01*
X978137D01*
Y-187875D01*
X977851D01*
Y-188161D01*
Y-188447D01*
X977565D01*
Y-188734D01*
X977278D01*
Y-189020D01*
Y-189306D01*
X976992D01*
Y-189593D01*
X976705D01*
Y-189879D01*
Y-190165D01*
X976419D01*
Y-190452D01*
X976133D01*
Y-190738D01*
Y-191024D01*
X975847D01*
Y-191311D01*
X975560D01*
Y-191597D01*
Y-191883D01*
X959527D01*
Y-191597D01*
X959813D01*
Y-191311D01*
X960099D01*
Y-191024D01*
X960386D01*
Y-190738D01*
X960672D01*
Y-190452D01*
Y-190165D01*
X960958D01*
Y-189879D01*
X961245D01*
Y-189593D01*
X961531D01*
Y-189306D01*
X961817D01*
Y-189020D01*
Y-188734D01*
X962104D01*
Y-188447D01*
X962390D01*
Y-188161D01*
X962676D01*
Y-187875D01*
Y-187588D01*
X962963D01*
Y-187302D01*
X963249D01*
Y-187016D01*
X963535D01*
Y-186730D01*
X963822D01*
Y-186443D01*
Y-186157D01*
X964108D01*
Y-185871D01*
X964394D01*
Y-185584D01*
X964680D01*
Y-185298D01*
X964967D01*
Y-185012D01*
Y-184725D01*
X965253D01*
Y-184439D01*
X965539D01*
Y-184153D01*
X965826D01*
Y-183866D01*
Y-183580D01*
X966112D01*
Y-183294D01*
X966398D01*
Y-183007D01*
X966685D01*
Y-182721D01*
X966971D01*
Y-182435D01*
Y-182149D01*
X967257D01*
Y-181862D01*
X967544D01*
Y-181576D01*
X967830D01*
Y-181290D01*
Y-181003D01*
X968116D01*
Y-180717D01*
X968402D01*
Y-180431D01*
X968689D01*
Y-180144D01*
X968975D01*
Y-179858D01*
Y-179572D01*
X969261D01*
Y-179285D01*
X969548D01*
Y-178999D01*
X969834D01*
Y-178713D01*
Y-178426D01*
X970120D01*
Y-178140D01*
X970407D01*
Y-177854D01*
X970693D01*
Y-177568D01*
X970979D01*
Y-177281D01*
Y-176995D01*
X971266D01*
Y-176709D01*
X971552D01*
Y-176422D01*
X971838D01*
Y-176136D01*
X972124D01*
Y-175850D01*
Y-175563D01*
X972411D01*
Y-175277D01*
X972697D01*
Y-174991D01*
X972983D01*
Y-174704D01*
Y-174418D01*
X973270D01*
Y-174132D01*
X973556D01*
Y-173845D01*
X973842D01*
Y-173559D01*
X974129D01*
Y-173273D01*
Y-172986D01*
X974415D01*
Y-172700D01*
Y-172414D01*
Y-172127D01*
X974129D01*
Y-171841D01*
X973842D01*
Y-171555D01*
Y-171269D01*
X973556D01*
Y-170982D01*
Y-170696D01*
X973270D01*
Y-170410D01*
Y-170123D01*
X972983D01*
Y-169837D01*
Y-169551D01*
X972697D01*
Y-169264D01*
Y-168978D01*
X972411D01*
Y-168692D01*
Y-168405D01*
X972124D01*
Y-168119D01*
X971838D01*
Y-167833D01*
Y-167547D01*
X971552D01*
Y-167260D01*
Y-166974D01*
X971266D01*
Y-166688D01*
Y-166401D01*
X970979D01*
Y-166115D01*
Y-165829D01*
X970693D01*
Y-165542D01*
Y-165256D01*
X970407D01*
Y-164970D01*
Y-164683D01*
X970120D01*
Y-164397D01*
X969834D01*
Y-164111D01*
Y-163824D01*
X969548D01*
Y-163538D01*
Y-163252D01*
X969261D01*
Y-162966D01*
Y-162679D01*
X968975D01*
Y-162393D01*
Y-162107D01*
X968689D01*
Y-161820D01*
Y-161534D01*
X968402D01*
Y-161248D01*
Y-160961D01*
X968116D01*
Y-160675D01*
Y-160389D01*
X967830D01*
Y-160102D01*
X967544D01*
Y-159816D01*
Y-159530D01*
X967257D01*
Y-159244D01*
Y-158957D01*
X966971D01*
Y-158671D01*
Y-158385D01*
X966685D01*
Y-158098D01*
Y-157812D01*
X966398D01*
Y-157526D01*
Y-157239D01*
X966112D01*
Y-156953D01*
Y-156667D01*
X965826D01*
Y-156380D01*
X965539D01*
Y-156094D01*
Y-155808D01*
X965253D01*
Y-155521D01*
X981000D01*
Y-155808D01*
X981287D01*
Y-156094D01*
Y-156380D01*
Y-156667D01*
X981573D01*
Y-156953D01*
Y-157239D01*
Y-157526D01*
X981859D01*
Y-157812D01*
Y-158098D01*
Y-158385D01*
X982146D01*
Y-158671D01*
Y-158957D01*
Y-159244D01*
X982432D01*
Y-159530D01*
Y-159816D01*
Y-160102D01*
X982718D01*
Y-160389D01*
Y-160675D01*
Y-160961D01*
X983004D01*
Y-161248D01*
Y-161534D01*
Y-161820D01*
X983291D01*
Y-162107D01*
Y-162393D01*
Y-162679D01*
X983577D01*
Y-162966D01*
Y-163252D01*
Y-163538D01*
Y-163824D01*
X984150D01*
Y-163538D01*
X984436D01*
Y-163252D01*
X984722D01*
Y-162966D01*
Y-162679D01*
X985009D01*
Y-162393D01*
X985295D01*
Y-162107D01*
Y-161820D01*
X985581D01*
Y-161534D01*
X985868D01*
Y-161248D01*
Y-160961D01*
X986154D01*
Y-160675D01*
X986440D01*
Y-160389D01*
Y-160102D01*
X986726D01*
Y-159816D01*
X987013D01*
Y-159530D01*
Y-159244D01*
X987299D01*
Y-158957D01*
X987585D01*
Y-158671D01*
Y-158385D01*
X987872D01*
Y-158098D01*
X988158D01*
Y-157812D01*
Y-157526D01*
X988444D01*
Y-157239D01*
X988731D01*
Y-156953D01*
Y-156667D01*
X989017D01*
Y-156380D01*
X989303D01*
Y-156094D01*
Y-155808D01*
X989590D01*
Y-155521D01*
X1005337D01*
Y-155808D01*
D02*
G37*
G36*
X872201Y-141778D02*
X873919D01*
Y-142065D01*
X874778D01*
Y-142351D01*
X875637D01*
Y-142637D01*
X876496D01*
Y-142924D01*
X877069D01*
Y-143210D01*
X877355D01*
Y-143496D01*
X877928D01*
Y-143783D01*
X878214D01*
Y-144069D01*
X878786D01*
Y-144355D01*
X879073D01*
Y-144641D01*
X879359D01*
Y-144928D01*
X879646D01*
Y-145214D01*
X879932D01*
Y-145501D01*
X880218D01*
Y-145787D01*
X880504D01*
Y-146073D01*
Y-146359D01*
X880791D01*
Y-146646D01*
X881077D01*
Y-146932D01*
Y-147218D01*
X881363D01*
Y-147505D01*
X881650D01*
Y-147791D01*
Y-148077D01*
X881936D01*
Y-148364D01*
Y-148650D01*
Y-148936D01*
X882222D01*
Y-149223D01*
Y-149509D01*
Y-149795D01*
X882509D01*
Y-150082D01*
Y-150368D01*
Y-150654D01*
Y-150940D01*
X882795D01*
Y-151227D01*
Y-151513D01*
Y-151799D01*
Y-152086D01*
Y-152372D01*
X883081D01*
Y-152658D01*
Y-152945D01*
Y-153231D01*
Y-153517D01*
Y-153804D01*
Y-154090D01*
Y-154376D01*
Y-154663D01*
Y-154949D01*
Y-155235D01*
Y-155521D01*
Y-155808D01*
Y-156094D01*
Y-156380D01*
Y-156667D01*
Y-156953D01*
Y-157239D01*
Y-157526D01*
Y-157812D01*
Y-158098D01*
X882795D01*
Y-158385D01*
Y-158671D01*
Y-158957D01*
Y-159244D01*
Y-159530D01*
Y-159816D01*
Y-160102D01*
X882509D01*
Y-160389D01*
Y-160675D01*
Y-160961D01*
Y-161248D01*
Y-161534D01*
X882222D01*
Y-161820D01*
Y-162107D01*
Y-162393D01*
Y-162679D01*
Y-162966D01*
X881936D01*
Y-163252D01*
Y-163538D01*
Y-163824D01*
X881650D01*
Y-164111D01*
Y-164397D01*
Y-164683D01*
Y-164970D01*
X881363D01*
Y-165256D01*
Y-165542D01*
Y-165829D01*
X881077D01*
Y-166115D01*
Y-166401D01*
X880791D01*
Y-166688D01*
Y-166974D01*
Y-167260D01*
X880504D01*
Y-167547D01*
Y-167833D01*
X880218D01*
Y-168119D01*
Y-168405D01*
X879932D01*
Y-168692D01*
Y-168978D01*
X879646D01*
Y-169264D01*
X879359D01*
Y-169551D01*
Y-169837D01*
X879073D01*
Y-170123D01*
X878786D01*
Y-170410D01*
X878500D01*
Y-170696D01*
Y-170982D01*
X878214D01*
Y-171269D01*
X877928D01*
Y-171555D01*
X877641D01*
Y-171841D01*
X877355D01*
Y-172127D01*
X877069D01*
Y-172414D01*
X876496D01*
Y-172700D01*
X876210D01*
Y-172986D01*
X875637D01*
Y-173273D01*
X875351D01*
Y-173559D01*
X874778D01*
Y-173845D01*
X873919D01*
Y-174132D01*
X873060D01*
Y-174418D01*
X872201D01*
Y-174704D01*
X870483D01*
Y-174991D01*
X865330D01*
Y-174704D01*
X862753D01*
Y-174418D01*
X860749D01*
Y-174132D01*
X859317D01*
Y-173845D01*
X857886D01*
Y-173559D01*
X856454D01*
Y-173845D01*
Y-174132D01*
Y-174418D01*
Y-174704D01*
Y-174991D01*
Y-175277D01*
Y-175563D01*
X856168D01*
Y-175850D01*
Y-176136D01*
Y-176422D01*
Y-176709D01*
Y-176995D01*
Y-177281D01*
X855882D01*
Y-177568D01*
Y-177854D01*
Y-178140D01*
Y-178426D01*
Y-178713D01*
Y-178999D01*
X855595D01*
Y-179285D01*
Y-179572D01*
Y-179858D01*
Y-180144D01*
Y-180431D01*
Y-180717D01*
Y-181003D01*
X855309D01*
Y-181290D01*
Y-181576D01*
Y-181862D01*
Y-182149D01*
Y-182435D01*
Y-182721D01*
X855023D01*
Y-183007D01*
Y-183294D01*
Y-183580D01*
Y-183866D01*
Y-184153D01*
Y-184439D01*
X854736D01*
Y-184725D01*
Y-185012D01*
Y-185298D01*
Y-185584D01*
Y-185871D01*
Y-186157D01*
Y-186443D01*
X854450D01*
Y-186730D01*
Y-187016D01*
Y-187302D01*
Y-187588D01*
Y-187875D01*
Y-188161D01*
X854164D01*
Y-188447D01*
Y-188734D01*
Y-189020D01*
Y-189306D01*
Y-189593D01*
Y-189879D01*
X853877D01*
Y-190165D01*
Y-190452D01*
Y-190738D01*
Y-191024D01*
Y-191311D01*
Y-191597D01*
Y-191883D01*
X840421D01*
Y-191597D01*
X840707D01*
Y-191311D01*
Y-191024D01*
Y-190738D01*
Y-190452D01*
Y-190165D01*
X840993D01*
Y-189879D01*
Y-189593D01*
Y-189306D01*
Y-189020D01*
Y-188734D01*
Y-188447D01*
Y-188161D01*
X841280D01*
Y-187875D01*
Y-187588D01*
Y-187302D01*
Y-187016D01*
Y-186730D01*
Y-186443D01*
X841566D01*
Y-186157D01*
Y-185871D01*
Y-185584D01*
Y-185298D01*
Y-185012D01*
Y-184725D01*
X841852D01*
Y-184439D01*
Y-184153D01*
Y-183866D01*
Y-183580D01*
Y-183294D01*
Y-183007D01*
Y-182721D01*
X842138D01*
Y-182435D01*
Y-182149D01*
Y-181862D01*
Y-181576D01*
Y-181290D01*
Y-181003D01*
X842425D01*
Y-180717D01*
Y-180431D01*
Y-180144D01*
Y-179858D01*
Y-179572D01*
Y-179285D01*
X842711D01*
Y-178999D01*
Y-178713D01*
Y-178426D01*
Y-178140D01*
Y-177854D01*
Y-177568D01*
X842997D01*
Y-177281D01*
Y-176995D01*
Y-176709D01*
Y-176422D01*
Y-176136D01*
Y-175850D01*
Y-175563D01*
X843284D01*
Y-175277D01*
Y-174991D01*
Y-174704D01*
Y-174418D01*
Y-174132D01*
Y-173845D01*
X843570D01*
Y-173559D01*
Y-173273D01*
Y-172986D01*
Y-172700D01*
Y-172414D01*
Y-172127D01*
X843856D01*
Y-171841D01*
Y-171555D01*
Y-171269D01*
Y-170982D01*
Y-170696D01*
Y-170410D01*
X844143D01*
Y-170123D01*
Y-169837D01*
Y-169551D01*
Y-169264D01*
Y-168978D01*
Y-168692D01*
Y-168405D01*
X844429D01*
Y-168119D01*
Y-167833D01*
Y-167547D01*
Y-167260D01*
Y-166974D01*
Y-166688D01*
X844715D01*
Y-166401D01*
Y-166115D01*
Y-165829D01*
Y-165542D01*
Y-165256D01*
Y-164970D01*
X845002D01*
Y-164683D01*
Y-164397D01*
Y-164111D01*
Y-163824D01*
Y-163538D01*
Y-163252D01*
Y-162966D01*
X845288D01*
Y-162679D01*
Y-162393D01*
Y-162107D01*
Y-161820D01*
Y-161534D01*
Y-161248D01*
X845574D01*
Y-160961D01*
Y-160675D01*
Y-160389D01*
Y-160102D01*
Y-159816D01*
Y-159530D01*
X845861D01*
Y-159244D01*
Y-158957D01*
Y-158671D01*
Y-158385D01*
Y-158098D01*
Y-157812D01*
X846147D01*
Y-157526D01*
Y-157239D01*
Y-156953D01*
Y-156667D01*
Y-156380D01*
Y-156094D01*
Y-155808D01*
X846433D01*
Y-155521D01*
Y-155235D01*
Y-154949D01*
Y-154663D01*
Y-154376D01*
Y-154090D01*
X846719D01*
Y-153804D01*
Y-153517D01*
Y-153231D01*
Y-152945D01*
Y-152658D01*
Y-152372D01*
X847006D01*
Y-152086D01*
Y-151799D01*
Y-151513D01*
Y-151227D01*
Y-150940D01*
Y-150654D01*
Y-150368D01*
X847292D01*
Y-150082D01*
Y-149795D01*
Y-149509D01*
Y-149223D01*
Y-148936D01*
Y-148650D01*
X847578D01*
Y-148364D01*
Y-148077D01*
Y-147791D01*
Y-147505D01*
Y-147218D01*
Y-146932D01*
X847865D01*
Y-146646D01*
Y-146359D01*
Y-146073D01*
Y-145787D01*
Y-145501D01*
Y-145214D01*
Y-144928D01*
X848151D01*
Y-144641D01*
Y-144355D01*
Y-144069D01*
Y-143783D01*
Y-143496D01*
Y-143210D01*
X848437D01*
Y-142924D01*
Y-142637D01*
Y-142351D01*
Y-142065D01*
Y-141778D01*
Y-141492D01*
X872201D01*
Y-141778D01*
D02*
G37*
G36*
X961245Y-155808D02*
Y-156094D01*
Y-156380D01*
Y-156667D01*
Y-156953D01*
Y-157239D01*
Y-157526D01*
Y-157812D01*
Y-158098D01*
Y-158385D01*
Y-158671D01*
Y-158957D01*
Y-159244D01*
Y-159530D01*
Y-159816D01*
Y-160102D01*
Y-160389D01*
Y-160675D01*
Y-160961D01*
Y-161248D01*
Y-161534D01*
X960958D01*
Y-161820D01*
Y-162107D01*
Y-162393D01*
Y-162679D01*
Y-162966D01*
X960672D01*
Y-163252D01*
Y-163538D01*
Y-163824D01*
Y-164111D01*
X960386D01*
Y-164397D01*
Y-164683D01*
Y-164970D01*
Y-165256D01*
X960099D01*
Y-165542D01*
Y-165829D01*
Y-166115D01*
X959813D01*
Y-166401D01*
Y-166688D01*
Y-166974D01*
X959527D01*
Y-167260D01*
Y-167547D01*
Y-167833D01*
X959241D01*
Y-168119D01*
Y-168405D01*
Y-168692D01*
X958954D01*
Y-168978D01*
Y-169264D01*
X958668D01*
Y-169551D01*
Y-169837D01*
X958381D01*
Y-170123D01*
Y-170410D01*
Y-170696D01*
X958095D01*
Y-170982D01*
Y-171269D01*
X957809D01*
Y-171555D01*
Y-171841D01*
Y-172127D01*
X957523D01*
Y-172414D01*
Y-172700D01*
X957236D01*
Y-172986D01*
Y-173273D01*
Y-173559D01*
X956950D01*
Y-173845D01*
Y-174132D01*
X956664D01*
Y-174418D01*
Y-174704D01*
Y-174991D01*
X956377D01*
Y-175277D01*
Y-175563D01*
X956091D01*
Y-175850D01*
Y-176136D01*
Y-176422D01*
X955805D01*
Y-176709D01*
Y-176995D01*
X955518D01*
Y-177281D01*
Y-177568D01*
Y-177854D01*
X955232D01*
Y-178140D01*
Y-178426D01*
X954946D01*
Y-178713D01*
Y-178999D01*
Y-179285D01*
X954659D01*
Y-179572D01*
Y-179858D01*
X954373D01*
Y-180144D01*
Y-180431D01*
Y-180717D01*
X954087D01*
Y-181003D01*
Y-181290D01*
X953800D01*
Y-181576D01*
Y-181862D01*
Y-182149D01*
X953514D01*
Y-182435D01*
Y-182721D01*
X953228D01*
Y-183007D01*
Y-183294D01*
Y-183580D01*
X952942D01*
Y-183866D01*
Y-184153D01*
X952655D01*
Y-184439D01*
Y-184725D01*
Y-185012D01*
X952369D01*
Y-185298D01*
Y-185584D01*
X952083D01*
Y-185871D01*
Y-186157D01*
Y-186443D01*
X951796D01*
Y-186730D01*
Y-187016D01*
X951510D01*
Y-187302D01*
Y-187588D01*
Y-187875D01*
X951224D01*
Y-188161D01*
Y-188447D01*
X950937D01*
Y-188734D01*
Y-189020D01*
Y-189306D01*
X950651D01*
Y-189593D01*
Y-189879D01*
X950365D01*
Y-190165D01*
Y-190452D01*
Y-190738D01*
X950078D01*
Y-191024D01*
Y-191311D01*
X949792D01*
Y-191597D01*
Y-191883D01*
Y-192169D01*
X949506D01*
Y-192456D01*
Y-192742D01*
X949220D01*
Y-193028D01*
Y-193315D01*
X948933D01*
Y-193601D01*
Y-193887D01*
X948647D01*
Y-194174D01*
Y-194460D01*
Y-194746D01*
X948361D01*
Y-195033D01*
X948074D01*
Y-195319D01*
Y-195605D01*
Y-195891D01*
X947788D01*
Y-196178D01*
X947502D01*
Y-196464D01*
Y-196750D01*
X947215D01*
Y-197037D01*
Y-197323D01*
X946929D01*
Y-197609D01*
Y-197896D01*
X946643D01*
Y-198182D01*
Y-198468D01*
X946356D01*
Y-198755D01*
X946070D01*
Y-199041D01*
Y-199327D01*
X945784D01*
Y-199614D01*
Y-199900D01*
X945497D01*
Y-200186D01*
X945211D01*
Y-200472D01*
X944925D01*
Y-200759D01*
Y-201045D01*
X944639D01*
Y-201331D01*
X944352D01*
Y-201618D01*
Y-201904D01*
X944066D01*
Y-202190D01*
X943780D01*
Y-202477D01*
X943493D01*
Y-202763D01*
Y-203049D01*
X943207D01*
Y-203336D01*
X942921D01*
Y-203622D01*
X942634D01*
Y-203908D01*
X942348D01*
Y-204195D01*
X942062D01*
Y-204481D01*
Y-204767D01*
X941775D01*
Y-205053D01*
X941489D01*
Y-205340D01*
X941203D01*
Y-205626D01*
X940916D01*
Y-205912D01*
X940630D01*
Y-206199D01*
X940344D01*
Y-206485D01*
X940057D01*
Y-206771D01*
X939485D01*
Y-207058D01*
X939199D01*
Y-207344D01*
X938912D01*
Y-207630D01*
X938626D01*
Y-207917D01*
X938340D01*
Y-208203D01*
X937767D01*
Y-208489D01*
X937481D01*
Y-208776D01*
X936908D01*
Y-209062D01*
X936622D01*
Y-209348D01*
X936049D01*
Y-209634D01*
X935763D01*
Y-209921D01*
X935190D01*
Y-210207D01*
X934618D01*
Y-210493D01*
X934045D01*
Y-210780D01*
X933472D01*
Y-211066D01*
X932900D01*
Y-211352D01*
X932041D01*
Y-211639D01*
X931468D01*
Y-211925D01*
X930609D01*
Y-212211D01*
X929464D01*
Y-212498D01*
X928319D01*
Y-212784D01*
X926601D01*
Y-213070D01*
X924597D01*
Y-213357D01*
X924310D01*
Y-213070D01*
Y-212784D01*
Y-212498D01*
Y-212211D01*
Y-211925D01*
Y-211639D01*
Y-211352D01*
Y-211066D01*
Y-210780D01*
Y-210493D01*
Y-210207D01*
Y-209921D01*
Y-209634D01*
Y-209348D01*
Y-209062D01*
Y-208776D01*
Y-208489D01*
Y-208203D01*
Y-207917D01*
Y-207630D01*
Y-207344D01*
Y-207058D01*
Y-206771D01*
Y-206485D01*
Y-206199D01*
Y-205912D01*
Y-205626D01*
Y-205340D01*
Y-205053D01*
Y-204767D01*
Y-204481D01*
Y-204195D01*
Y-203908D01*
X924883D01*
Y-203622D01*
X925455D01*
Y-203336D01*
X926028D01*
Y-203049D01*
X926601D01*
Y-202763D01*
X927173D01*
Y-202477D01*
X927746D01*
Y-202190D01*
X928032D01*
Y-201904D01*
X928605D01*
Y-201618D01*
X928891D01*
Y-201331D01*
X929464D01*
Y-201045D01*
X929750D01*
Y-200759D01*
X930037D01*
Y-200472D01*
X930609D01*
Y-200186D01*
X930896D01*
Y-199900D01*
X931182D01*
Y-199614D01*
X931468D01*
Y-199327D01*
X931754D01*
Y-199041D01*
X932041D01*
Y-198755D01*
X932327D01*
Y-198468D01*
X932613D01*
Y-198182D01*
X932900D01*
Y-197896D01*
X933186D01*
Y-197609D01*
X933472D01*
Y-197323D01*
X933759D01*
Y-197037D01*
Y-196750D01*
X934045D01*
Y-196464D01*
X934331D01*
Y-196178D01*
X934618D01*
Y-195891D01*
Y-195605D01*
X934904D01*
Y-195319D01*
X935190D01*
Y-195033D01*
Y-194746D01*
X935476D01*
Y-194460D01*
Y-194174D01*
X935763D01*
Y-193887D01*
X936049D01*
Y-193601D01*
Y-193315D01*
X936335D01*
Y-193028D01*
Y-192742D01*
X936622D01*
Y-192456D01*
Y-192169D01*
X934904D01*
Y-191883D01*
X932900D01*
Y-191597D01*
X931754D01*
Y-191311D01*
X931182D01*
Y-191024D01*
X930323D01*
Y-190738D01*
X929750D01*
Y-190452D01*
X929464D01*
Y-190165D01*
X928891D01*
Y-189879D01*
X928605D01*
Y-189593D01*
X928319D01*
Y-189306D01*
X928032D01*
Y-189020D01*
X927746D01*
Y-188734D01*
X927460D01*
Y-188447D01*
Y-188161D01*
X927173D01*
Y-187875D01*
X926887D01*
Y-187588D01*
Y-187302D01*
X926601D01*
Y-187016D01*
Y-186730D01*
X926315D01*
Y-186443D01*
Y-186157D01*
X926028D01*
Y-185871D01*
Y-185584D01*
Y-185298D01*
X925742D01*
Y-185012D01*
Y-184725D01*
Y-184439D01*
Y-184153D01*
X925455D01*
Y-183866D01*
Y-183580D01*
Y-183294D01*
Y-183007D01*
Y-182721D01*
Y-182435D01*
Y-182149D01*
X925169D01*
Y-181862D01*
Y-181576D01*
Y-181290D01*
Y-181003D01*
Y-180717D01*
Y-180431D01*
Y-180144D01*
Y-179858D01*
Y-179572D01*
Y-179285D01*
Y-178999D01*
Y-178713D01*
Y-178426D01*
Y-178140D01*
Y-177854D01*
X924883D01*
Y-177568D01*
Y-177281D01*
Y-176995D01*
Y-176709D01*
Y-176422D01*
Y-176136D01*
Y-175850D01*
Y-175563D01*
Y-175277D01*
Y-174991D01*
Y-174704D01*
Y-174418D01*
Y-174132D01*
Y-173845D01*
Y-173559D01*
X924597D01*
Y-173273D01*
Y-172986D01*
Y-172700D01*
Y-172414D01*
Y-172127D01*
Y-171841D01*
Y-171555D01*
Y-171269D01*
Y-170982D01*
Y-170696D01*
Y-170410D01*
Y-170123D01*
Y-169837D01*
Y-169551D01*
Y-169264D01*
Y-168978D01*
X924310D01*
Y-168692D01*
Y-168405D01*
Y-168119D01*
Y-167833D01*
Y-167547D01*
Y-167260D01*
Y-166974D01*
Y-166688D01*
Y-166401D01*
Y-166115D01*
Y-165829D01*
Y-165542D01*
Y-165256D01*
Y-164970D01*
Y-164683D01*
Y-164397D01*
X924024D01*
Y-164111D01*
Y-163824D01*
Y-163538D01*
Y-163252D01*
Y-162966D01*
Y-162679D01*
Y-162393D01*
Y-162107D01*
Y-161820D01*
Y-161534D01*
Y-161248D01*
Y-160961D01*
Y-160675D01*
Y-160389D01*
X923738D01*
Y-160102D01*
Y-159816D01*
Y-159530D01*
Y-159244D01*
Y-158957D01*
Y-158671D01*
Y-158385D01*
Y-158098D01*
Y-157812D01*
Y-157526D01*
Y-157239D01*
Y-156953D01*
Y-156667D01*
Y-156380D01*
Y-156094D01*
Y-155808D01*
X923451D01*
Y-155521D01*
X937194D01*
Y-155808D01*
Y-156094D01*
Y-156380D01*
Y-156667D01*
Y-156953D01*
Y-157239D01*
Y-157526D01*
Y-157812D01*
Y-158098D01*
Y-158385D01*
Y-158671D01*
Y-158957D01*
Y-159244D01*
Y-159530D01*
X937481D01*
Y-159816D01*
Y-160102D01*
Y-160389D01*
Y-160675D01*
Y-160961D01*
Y-161248D01*
Y-161534D01*
Y-161820D01*
Y-162107D01*
Y-162393D01*
Y-162679D01*
Y-162966D01*
Y-163252D01*
Y-163538D01*
Y-163824D01*
Y-164111D01*
Y-164397D01*
Y-164683D01*
Y-164970D01*
Y-165256D01*
Y-165542D01*
Y-165829D01*
Y-166115D01*
Y-166401D01*
Y-166688D01*
Y-166974D01*
Y-167260D01*
Y-167547D01*
Y-167833D01*
Y-168119D01*
Y-168405D01*
Y-168692D01*
Y-168978D01*
Y-169264D01*
Y-169551D01*
Y-169837D01*
Y-170123D01*
Y-170410D01*
Y-170696D01*
Y-170982D01*
Y-171269D01*
X937767D01*
Y-171555D01*
X937481D01*
Y-171841D01*
Y-172127D01*
X937767D01*
Y-172414D01*
Y-172700D01*
Y-172986D01*
Y-173273D01*
Y-173559D01*
Y-173845D01*
Y-174132D01*
Y-174418D01*
Y-174704D01*
Y-174991D01*
Y-175277D01*
Y-175563D01*
Y-175850D01*
Y-176136D01*
Y-176422D01*
Y-176709D01*
Y-176995D01*
Y-177281D01*
Y-177568D01*
Y-177854D01*
Y-178140D01*
Y-178426D01*
Y-178713D01*
Y-178999D01*
Y-179285D01*
Y-179572D01*
X938053D01*
Y-179858D01*
Y-180144D01*
Y-180431D01*
X938340D01*
Y-180717D01*
X938626D01*
Y-181003D01*
X938912D01*
Y-181290D01*
X939771D01*
Y-181576D01*
X940630D01*
Y-181290D01*
X940916D01*
Y-181003D01*
Y-180717D01*
Y-180431D01*
X941203D01*
Y-180144D01*
Y-179858D01*
X941489D01*
Y-179572D01*
Y-179285D01*
Y-178999D01*
X941775D01*
Y-178713D01*
Y-178426D01*
Y-178140D01*
X942062D01*
Y-177854D01*
Y-177568D01*
Y-177281D01*
X942348D01*
Y-176995D01*
Y-176709D01*
Y-176422D01*
X942634D01*
Y-176136D01*
Y-175850D01*
X942921D01*
Y-175563D01*
Y-175277D01*
Y-174991D01*
X943207D01*
Y-174704D01*
Y-174418D01*
Y-174132D01*
X943493D01*
Y-173845D01*
Y-173559D01*
Y-173273D01*
X943780D01*
Y-172986D01*
Y-172700D01*
X944066D01*
Y-172414D01*
Y-172127D01*
Y-171841D01*
X944352D01*
Y-171555D01*
Y-171269D01*
Y-170982D01*
X944639D01*
Y-170696D01*
Y-170410D01*
Y-170123D01*
X944925D01*
Y-169837D01*
Y-169551D01*
X945211D01*
Y-169264D01*
Y-168978D01*
Y-168692D01*
X945497D01*
Y-168405D01*
Y-168119D01*
Y-167833D01*
X945784D01*
Y-167547D01*
Y-167260D01*
Y-166974D01*
X946070D01*
Y-166688D01*
Y-166401D01*
X946356D01*
Y-166115D01*
Y-165829D01*
Y-165542D01*
X946643D01*
Y-165256D01*
Y-164970D01*
Y-164683D01*
X946929D01*
Y-164397D01*
Y-164111D01*
Y-163824D01*
X947215D01*
Y-163538D01*
Y-163252D01*
Y-162966D01*
Y-162679D01*
X947502D01*
Y-162393D01*
Y-162107D01*
Y-161820D01*
Y-161534D01*
X947788D01*
Y-161248D01*
Y-160961D01*
Y-160675D01*
Y-160389D01*
Y-160102D01*
X948074D01*
Y-159816D01*
Y-159530D01*
Y-159244D01*
Y-158957D01*
Y-158671D01*
Y-158385D01*
X948361D01*
Y-158098D01*
Y-157812D01*
Y-157526D01*
Y-157239D01*
Y-156953D01*
Y-156667D01*
Y-156380D01*
Y-156094D01*
Y-155808D01*
Y-155521D01*
X961245D01*
Y-155808D01*
D02*
G37*
G36*
X903409Y-138343D02*
Y-138629D01*
X903123D01*
Y-138915D01*
Y-139202D01*
Y-139488D01*
Y-139774D01*
Y-140060D01*
Y-140347D01*
X902837D01*
Y-140633D01*
Y-140919D01*
Y-141206D01*
Y-141492D01*
Y-141778D01*
Y-142065D01*
X902551D01*
Y-142351D01*
Y-142637D01*
Y-142924D01*
Y-143210D01*
Y-143496D01*
Y-143783D01*
Y-144069D01*
X902264D01*
Y-144355D01*
Y-144641D01*
Y-144928D01*
Y-145214D01*
Y-145501D01*
Y-145787D01*
X901978D01*
Y-146073D01*
Y-146359D01*
Y-146646D01*
Y-146932D01*
Y-147218D01*
Y-147505D01*
X901692D01*
Y-147791D01*
Y-148077D01*
Y-148364D01*
Y-148650D01*
Y-148936D01*
Y-149223D01*
Y-149509D01*
X901405D01*
Y-149795D01*
Y-150082D01*
Y-150368D01*
Y-150654D01*
Y-150940D01*
Y-151227D01*
X901119D01*
Y-151513D01*
Y-151799D01*
Y-152086D01*
Y-152372D01*
Y-152658D01*
Y-152945D01*
X900833D01*
Y-153231D01*
Y-153517D01*
Y-153804D01*
Y-154090D01*
Y-154376D01*
Y-154663D01*
X900546D01*
Y-154949D01*
Y-155235D01*
Y-155521D01*
Y-155808D01*
Y-156094D01*
Y-156380D01*
Y-156667D01*
X900260D01*
Y-156953D01*
Y-157239D01*
Y-157526D01*
Y-157812D01*
Y-158098D01*
Y-158385D01*
X899974D01*
Y-158671D01*
Y-158957D01*
X900546D01*
Y-158671D01*
X900833D01*
Y-158385D01*
X901119D01*
Y-158098D01*
X901692D01*
Y-157812D01*
X901978D01*
Y-157526D01*
X902264D01*
Y-157239D01*
X902837D01*
Y-156953D01*
X903409D01*
Y-156667D01*
X903696D01*
Y-156380D01*
X904268D01*
Y-156094D01*
X905127D01*
Y-155808D01*
X905700D01*
Y-155521D01*
X906559D01*
Y-155235D01*
X907990D01*
Y-154949D01*
X914289D01*
Y-155235D01*
X915435D01*
Y-155521D01*
X916294D01*
Y-155808D01*
X916866D01*
Y-156094D01*
X917153D01*
Y-156380D01*
X917725D01*
Y-156667D01*
X918011D01*
Y-156953D01*
X918298D01*
Y-157239D01*
X918584D01*
Y-157526D01*
X918870D01*
Y-157812D01*
Y-158098D01*
X919157D01*
Y-158385D01*
Y-158671D01*
X919443D01*
Y-158957D01*
Y-159244D01*
Y-159530D01*
X919729D01*
Y-159816D01*
Y-160102D01*
Y-160389D01*
Y-160675D01*
X920016D01*
Y-160961D01*
Y-161248D01*
Y-161534D01*
Y-161820D01*
Y-162107D01*
Y-162393D01*
Y-162679D01*
Y-162966D01*
Y-163252D01*
Y-163538D01*
Y-163824D01*
Y-164111D01*
Y-164397D01*
Y-164683D01*
Y-164970D01*
Y-165256D01*
Y-165542D01*
Y-165829D01*
X919729D01*
Y-166115D01*
Y-166401D01*
Y-166688D01*
Y-166974D01*
Y-167260D01*
Y-167547D01*
Y-167833D01*
X919443D01*
Y-168119D01*
Y-168405D01*
Y-168692D01*
Y-168978D01*
Y-169264D01*
Y-169551D01*
Y-169837D01*
X919157D01*
Y-170123D01*
Y-170410D01*
Y-170696D01*
Y-170982D01*
Y-171269D01*
Y-171555D01*
X918870D01*
Y-171841D01*
Y-172127D01*
Y-172414D01*
Y-172700D01*
Y-172986D01*
Y-173273D01*
X918584D01*
Y-173559D01*
Y-173845D01*
Y-174132D01*
Y-174418D01*
Y-174704D01*
Y-174991D01*
X918298D01*
Y-175277D01*
Y-175563D01*
Y-175850D01*
Y-176136D01*
Y-176422D01*
Y-176709D01*
Y-176995D01*
X918011D01*
Y-177281D01*
Y-177568D01*
Y-177854D01*
Y-178140D01*
Y-178426D01*
Y-178713D01*
X917725D01*
Y-178999D01*
Y-179285D01*
Y-179572D01*
Y-179858D01*
Y-180144D01*
Y-180431D01*
X917439D01*
Y-180717D01*
Y-181003D01*
Y-181290D01*
Y-181576D01*
Y-181862D01*
Y-182149D01*
Y-182435D01*
X917153D01*
Y-182721D01*
Y-183007D01*
Y-183294D01*
Y-183580D01*
Y-183866D01*
Y-184153D01*
X916866D01*
Y-184439D01*
Y-184725D01*
Y-185012D01*
Y-185298D01*
Y-185584D01*
Y-185871D01*
X916580D01*
Y-186157D01*
Y-186443D01*
Y-186730D01*
Y-187016D01*
Y-187302D01*
Y-187588D01*
X916294D01*
Y-187875D01*
Y-188161D01*
Y-188447D01*
Y-188734D01*
Y-189020D01*
Y-189306D01*
Y-189593D01*
X916007D01*
Y-189879D01*
Y-190165D01*
Y-190452D01*
Y-190738D01*
Y-191024D01*
Y-191311D01*
X915721D01*
Y-191597D01*
Y-191883D01*
X902551D01*
Y-191597D01*
Y-191311D01*
X902837D01*
Y-191024D01*
Y-190738D01*
Y-190452D01*
Y-190165D01*
Y-189879D01*
Y-189593D01*
X903123D01*
Y-189306D01*
Y-189020D01*
Y-188734D01*
Y-188447D01*
Y-188161D01*
Y-187875D01*
Y-187588D01*
X903409D01*
Y-187302D01*
Y-187016D01*
Y-186730D01*
Y-186443D01*
Y-186157D01*
Y-185871D01*
X903696D01*
Y-185584D01*
Y-185298D01*
Y-185012D01*
Y-184725D01*
Y-184439D01*
Y-184153D01*
X903982D01*
Y-183866D01*
Y-183580D01*
Y-183294D01*
Y-183007D01*
Y-182721D01*
Y-182435D01*
Y-182149D01*
X904268D01*
Y-181862D01*
Y-181576D01*
Y-181290D01*
Y-181003D01*
Y-180717D01*
Y-180431D01*
X904555D01*
Y-180144D01*
Y-179858D01*
Y-179572D01*
Y-179285D01*
Y-178999D01*
Y-178713D01*
Y-178426D01*
X904841D01*
Y-178140D01*
Y-177854D01*
Y-177568D01*
Y-177281D01*
Y-176995D01*
Y-176709D01*
X905127D01*
Y-176422D01*
Y-176136D01*
Y-175850D01*
Y-175563D01*
Y-175277D01*
Y-174991D01*
X905414D01*
Y-174704D01*
Y-174418D01*
Y-174132D01*
Y-173845D01*
Y-173559D01*
Y-173273D01*
X905700D01*
Y-172986D01*
Y-172700D01*
Y-172414D01*
Y-172127D01*
Y-171841D01*
Y-171555D01*
Y-171269D01*
X905986D01*
Y-170982D01*
Y-170696D01*
Y-170410D01*
Y-170123D01*
Y-169837D01*
Y-169551D01*
X906273D01*
Y-169264D01*
Y-168978D01*
Y-168692D01*
Y-168405D01*
Y-168119D01*
Y-167833D01*
Y-167547D01*
X906559D01*
Y-167260D01*
Y-166974D01*
Y-166688D01*
Y-166401D01*
Y-166115D01*
Y-165829D01*
X906273D01*
Y-165542D01*
Y-165256D01*
X905986D01*
Y-164970D01*
X905700D01*
Y-164683D01*
X905127D01*
Y-164397D01*
X903409D01*
Y-164683D01*
X901978D01*
Y-164970D01*
X901119D01*
Y-165256D01*
X900546D01*
Y-165542D01*
X900260D01*
Y-165829D01*
X899687D01*
Y-166115D01*
X899401D01*
Y-166401D01*
X899115D01*
Y-166688D01*
Y-166974D01*
X898828D01*
Y-167260D01*
Y-167547D01*
Y-167833D01*
X898542D01*
Y-168119D01*
Y-168405D01*
Y-168692D01*
Y-168978D01*
Y-169264D01*
Y-169551D01*
X898256D01*
Y-169837D01*
Y-170123D01*
Y-170410D01*
Y-170696D01*
Y-170982D01*
Y-171269D01*
Y-171555D01*
X897970D01*
Y-171841D01*
Y-172127D01*
Y-172414D01*
Y-172700D01*
Y-172986D01*
Y-173273D01*
X897683D01*
Y-173559D01*
Y-173845D01*
Y-174132D01*
Y-174418D01*
Y-174704D01*
Y-174991D01*
X897397D01*
Y-175277D01*
Y-175563D01*
Y-175850D01*
Y-176136D01*
Y-176422D01*
Y-176709D01*
X897111D01*
Y-176995D01*
Y-177281D01*
Y-177568D01*
Y-177854D01*
Y-178140D01*
Y-178426D01*
Y-178713D01*
X896824D01*
Y-178999D01*
Y-179285D01*
Y-179572D01*
Y-179858D01*
Y-180144D01*
Y-180431D01*
X896538D01*
Y-180717D01*
Y-181003D01*
Y-181290D01*
Y-181576D01*
Y-181862D01*
Y-182149D01*
X896252D01*
Y-182435D01*
Y-182721D01*
Y-183007D01*
Y-183294D01*
Y-183580D01*
Y-183866D01*
Y-184153D01*
X895965D01*
Y-184439D01*
Y-184725D01*
Y-185012D01*
Y-185298D01*
Y-185584D01*
Y-185871D01*
X895679D01*
Y-186157D01*
Y-186443D01*
Y-186730D01*
Y-187016D01*
Y-187302D01*
Y-187588D01*
X895393D01*
Y-187875D01*
Y-188161D01*
Y-188447D01*
Y-188734D01*
Y-189020D01*
Y-189306D01*
X895106D01*
Y-189593D01*
Y-189879D01*
Y-190165D01*
Y-190452D01*
Y-190738D01*
Y-191024D01*
Y-191311D01*
X894820D01*
Y-191597D01*
Y-191883D01*
X881650D01*
Y-191597D01*
Y-191311D01*
X881936D01*
Y-191024D01*
Y-190738D01*
Y-190452D01*
Y-190165D01*
Y-189879D01*
Y-189593D01*
Y-189306D01*
X882222D01*
Y-189020D01*
Y-188734D01*
Y-188447D01*
Y-188161D01*
Y-187875D01*
Y-187588D01*
X882509D01*
Y-187302D01*
Y-187016D01*
Y-186730D01*
Y-186443D01*
Y-186157D01*
Y-185871D01*
X882795D01*
Y-185584D01*
Y-185298D01*
Y-185012D01*
Y-184725D01*
Y-184439D01*
Y-184153D01*
Y-183866D01*
X883081D01*
Y-183580D01*
Y-183294D01*
Y-183007D01*
Y-182721D01*
Y-182435D01*
Y-182149D01*
X883368D01*
Y-181862D01*
Y-181576D01*
Y-181290D01*
Y-181003D01*
Y-180717D01*
Y-180431D01*
X883654D01*
Y-180144D01*
Y-179858D01*
Y-179572D01*
Y-179285D01*
Y-178999D01*
Y-178713D01*
X883940D01*
Y-178426D01*
Y-178140D01*
Y-177854D01*
Y-177568D01*
Y-177281D01*
Y-176995D01*
Y-176709D01*
X884227D01*
Y-176422D01*
Y-176136D01*
Y-175850D01*
Y-175563D01*
Y-175277D01*
Y-174991D01*
X884513D01*
Y-174704D01*
Y-174418D01*
Y-174132D01*
Y-173845D01*
Y-173559D01*
Y-173273D01*
X884799D01*
Y-172986D01*
Y-172700D01*
Y-172414D01*
Y-172127D01*
Y-171841D01*
Y-171555D01*
Y-171269D01*
X885085D01*
Y-170982D01*
Y-170696D01*
Y-170410D01*
Y-170123D01*
Y-169837D01*
Y-169551D01*
X885372D01*
Y-169264D01*
Y-168978D01*
Y-168692D01*
Y-168405D01*
Y-168119D01*
Y-167833D01*
X885658D01*
Y-167547D01*
Y-167260D01*
Y-166974D01*
Y-166688D01*
Y-166401D01*
Y-166115D01*
X885944D01*
Y-165829D01*
Y-165542D01*
Y-165256D01*
Y-164970D01*
Y-164683D01*
Y-164397D01*
Y-164111D01*
X886231D01*
Y-163824D01*
Y-163538D01*
Y-163252D01*
Y-162966D01*
Y-162679D01*
Y-162393D01*
X886517D01*
Y-162107D01*
Y-161820D01*
Y-161534D01*
Y-161248D01*
Y-160961D01*
Y-160675D01*
X886803D01*
Y-160389D01*
Y-160102D01*
Y-159816D01*
Y-159530D01*
Y-159244D01*
Y-158957D01*
X887090D01*
Y-158671D01*
Y-158385D01*
Y-158098D01*
Y-157812D01*
Y-157526D01*
Y-157239D01*
Y-156953D01*
X887376D01*
Y-156667D01*
Y-156380D01*
Y-156094D01*
Y-155808D01*
Y-155521D01*
Y-155235D01*
X887662D01*
Y-154949D01*
Y-154663D01*
Y-154376D01*
Y-154090D01*
Y-153804D01*
Y-153517D01*
X887949D01*
Y-153231D01*
Y-152945D01*
Y-152658D01*
Y-152372D01*
Y-152086D01*
Y-151799D01*
Y-151513D01*
X888235D01*
Y-151227D01*
Y-150940D01*
Y-150654D01*
Y-150368D01*
Y-150082D01*
Y-149795D01*
X888521D01*
Y-149509D01*
Y-149223D01*
Y-148936D01*
Y-148650D01*
Y-148364D01*
Y-148077D01*
X888807D01*
Y-147791D01*
Y-147505D01*
Y-147218D01*
Y-146932D01*
Y-146646D01*
Y-146359D01*
X889094D01*
Y-146073D01*
Y-145787D01*
Y-145501D01*
Y-145214D01*
Y-144928D01*
Y-144641D01*
Y-144355D01*
X889380D01*
Y-144069D01*
Y-143783D01*
Y-143496D01*
Y-143210D01*
Y-142924D01*
Y-142637D01*
X889666D01*
Y-142351D01*
Y-142065D01*
Y-141778D01*
Y-141492D01*
Y-141206D01*
Y-140919D01*
X889953D01*
Y-140633D01*
Y-140347D01*
Y-140060D01*
Y-139774D01*
Y-139488D01*
Y-139202D01*
Y-138915D01*
X890239D01*
Y-138629D01*
Y-138343D01*
Y-138056D01*
X903409D01*
Y-138343D01*
D02*
G37*
%LPC*%
G36*
X18320Y44682D02*
X18320Y44599D01*
X18403Y44598D01*
X18403Y44681D01*
X18320Y44682D01*
D02*
G37*
G36*
X23882Y44550D02*
X23881Y44467D01*
X23798Y44468D01*
X23798Y44385D01*
X23880Y44384D01*
X23881Y44467D01*
X23964Y44467D01*
X23965Y44550D01*
X23882Y44550D01*
D02*
G37*
G36*
X18319Y44516D02*
X18318Y44433D01*
X18401Y44432D01*
X18402Y44515D01*
X18319Y44516D01*
D02*
G37*
G36*
X19621Y41515D02*
X19620Y41432D01*
X19703Y41432D01*
X19704Y41515D01*
X19621Y41515D01*
D02*
G37*
G36*
X19620Y41349D02*
X19619Y41266D01*
X19702Y41266D01*
X19703Y41349D01*
X19620Y41349D01*
D02*
G37*
G36*
X22442Y41325D02*
X22442Y41242D01*
X22525Y41241D01*
X22525Y41324D01*
X22442Y41325D01*
D02*
G37*
G36*
X25568Y37976D02*
X25567Y37893D01*
X25651Y37893D01*
X25651Y37976D01*
X25568Y37976D01*
D02*
G37*
G36*
X867907Y-152658D02*
X859890D01*
Y-152945D01*
Y-153231D01*
Y-153517D01*
Y-153804D01*
Y-154090D01*
X859604D01*
Y-154376D01*
Y-154663D01*
Y-154949D01*
Y-155235D01*
Y-155521D01*
Y-155808D01*
X859317D01*
Y-156094D01*
Y-156380D01*
Y-156667D01*
Y-156953D01*
Y-157239D01*
Y-157526D01*
X859031D01*
Y-157812D01*
Y-158098D01*
Y-158385D01*
Y-158671D01*
Y-158957D01*
Y-159244D01*
X858745D01*
Y-159530D01*
Y-159816D01*
Y-160102D01*
Y-160389D01*
Y-160675D01*
Y-160961D01*
Y-161248D01*
X858458D01*
Y-161534D01*
Y-161820D01*
Y-162107D01*
Y-162393D01*
Y-162679D01*
Y-162966D01*
X858172D01*
Y-163252D01*
Y-163538D01*
Y-163824D01*
X865330D01*
Y-163538D01*
X866475D01*
Y-163252D01*
X867048D01*
Y-162966D01*
X867334D01*
Y-162679D01*
X867620D01*
Y-162393D01*
X867907D01*
Y-162107D01*
X868193D01*
Y-161820D01*
Y-161534D01*
X868479D01*
Y-161248D01*
Y-160961D01*
X868766D01*
Y-160675D01*
Y-160389D01*
X869052D01*
Y-160102D01*
Y-159816D01*
Y-159530D01*
Y-159244D01*
X869338D01*
Y-158957D01*
Y-158671D01*
Y-158385D01*
Y-158098D01*
Y-157812D01*
X869625D01*
Y-157526D01*
Y-157239D01*
Y-156953D01*
Y-156667D01*
Y-156380D01*
Y-156094D01*
Y-155808D01*
Y-155521D01*
Y-155235D01*
Y-154949D01*
Y-154663D01*
X869338D01*
Y-154376D01*
Y-154090D01*
X869052D01*
Y-153804D01*
Y-153517D01*
X868766D01*
Y-153231D01*
X868479D01*
Y-152945D01*
X867907D01*
Y-152658D01*
D02*
G37*
%LPD*%
D12*
X346358Y177165D02*
G03*
X325125Y183988I-11713J0D01*
G01*
X342962Y168917D02*
G03*
X346358Y177165I-8316J8248D01*
G01*
X339370Y103740D02*
G03*
X339370Y103740I-3347J0D01*
G01*
Y72323D02*
G03*
X339370Y72323I-3347J0D01*
G01*
X286970Y174317D02*
G03*
X287008Y174744I-2423J427D01*
G01*
X279921D02*
G03*
X282382Y172283I2461J0D01*
G01*
X284547D02*
G03*
X286970Y174317I0J2461D01*
G01*
Y170773D02*
G03*
X280197Y161179I-3900J-4435D01*
G01*
X232874Y177953D02*
G03*
X232874Y177953I-4528J0D01*
G01*
D02*
G03*
X232874Y177953I-4528J0D01*
G01*
X130512D02*
G03*
X130512Y177953I-4528J0D01*
G01*
D02*
G03*
X130512Y177953I-4528J0D01*
G01*
X289134Y68118D02*
G03*
X289134Y68118I-4543J0D01*
G01*
X271118D02*
G03*
X271118Y68118I-4528J0D01*
G01*
X199409Y75197D02*
G03*
X193898Y75189I-2756J0D01*
G01*
X228740Y68622D02*
G03*
X228740Y68622I-4331J0D01*
G01*
X199409Y75197D02*
G03*
X193898Y75197I-2756J0D01*
G01*
X175362Y76298D02*
G03*
X181111Y73917I5749J5749D01*
G01*
X170079Y81693D02*
G03*
X167432Y78939I-2756J0D01*
G01*
X172717Y73654D02*
G03*
X181111Y70177I8393J8393D01*
G01*
X206496Y59055D02*
G03*
X203733Y61811I-2756J0D01*
G01*
X203740Y56299D02*
G03*
X206496Y59055I0J2756D01*
G01*
D02*
G03*
X203740Y61811I-2756J0D01*
G01*
X203733Y56299D02*
G03*
X206496Y59055I7J2756D01*
G01*
X199409Y62205D02*
G03*
X199803Y61811I394J0D01*
G01*
X193898Y62205D02*
G03*
X199803Y56299I5906J0D01*
G01*
X331102Y47244D02*
G03*
X331102Y47244I-4331J0D01*
G01*
X321102D02*
G03*
X321102Y47244I-4331J0D01*
G01*
X311102D02*
G03*
X311102Y47244I-4331J0D01*
G01*
X288700Y40181D02*
G03*
X289134Y42118I-4109J1938D01*
G01*
D02*
G03*
X282120Y38305I-4543J0D01*
G01*
X346358Y19685D02*
G03*
X346358Y19685I-11713J0D01*
G01*
X249764Y48433D02*
G03*
X249764Y48433I-4543J0D01*
G01*
X210394D02*
G03*
X210394Y48433I-4543J0D01*
G01*
X231748D02*
G03*
X231748Y48433I-4528J0D01*
G01*
X271118Y42118D02*
G03*
X271118Y42118I-4528J0D01*
G01*
X192378Y48433D02*
G03*
X192378Y48433I-4528J0D01*
G01*
X171024D02*
G03*
X171024Y48433I-4543J0D01*
G01*
X153008D02*
G03*
X153008Y48433I-4528J0D01*
G01*
X249764Y22433D02*
G03*
X249764Y22433I-4543J0D01*
G01*
X231748D02*
G03*
X231748Y22433I-4528J0D01*
G01*
X210394D02*
G03*
X210394Y22433I-4543J0D01*
G01*
X192378D02*
G03*
X192378Y22433I-4528J0D01*
G01*
X153008D02*
G03*
X153008Y22433I-4528J0D01*
G01*
X171024D02*
G03*
X171024Y22433I-4543J0D01*
G01*
X67360Y174317D02*
G03*
X69784Y172283I2423J427D01*
G01*
X71949D02*
G03*
X74410Y174744I0J2461D01*
G01*
X67323D02*
G03*
X67360Y174317I2461J0D01*
G01*
X74133Y161179D02*
G03*
X77165Y166339I-2874J5159D01*
G01*
D02*
G03*
X67360Y170773I-5906J0D01*
G01*
X61221Y108268D02*
G03*
X56890Y112598I-4331J0D01*
G01*
Y86221D02*
G03*
X61221Y90551I0J4331D01*
G01*
X50984Y112598D02*
G03*
X46654Y108268I0J-4331D01*
G01*
X43382Y133427D02*
G03*
X42913Y133465I-468J-2915D01*
G01*
X45866Y130512D02*
G03*
X43382Y133427I-2953J0D01*
G01*
X39764Y133465D02*
G03*
X39295Y133427I0J-2953D01*
G01*
X42913Y124409D02*
G03*
X45866Y127362I0J2953D01*
G01*
X39295Y133427D02*
G03*
X36811Y130512I468J-2915D01*
G01*
Y127362D02*
G03*
X39764Y124409I2953J0D01*
G01*
X46654Y90551D02*
G03*
X50984Y86221I4331J0D01*
G01*
X29205Y183988D02*
G03*
X11369Y168917I-9520J-6823D01*
G01*
X36039Y130512D02*
G03*
X33630Y133427I-2968J0D01*
G01*
X29362D02*
G03*
X26953Y130512I559J-2915D01*
G01*
X23697Y133427D02*
G03*
X23228Y133465I-468J-2915D01*
G01*
X20079D02*
G03*
X19610Y133427I0J-2953D01*
G01*
X26181Y130512D02*
G03*
X23697Y133427I-2953J0D01*
G01*
X19610D02*
G03*
X17126Y130512I468J-2915D01*
G01*
X33071Y124394D02*
G03*
X36039Y127362I0J2968D01*
G01*
X26953D02*
G03*
X29921Y124394I2968J0D01*
G01*
X23228Y124409D02*
G03*
X26181Y127362I0J2953D01*
G01*
X17126D02*
G03*
X20079Y124409I2953J0D01*
G01*
X26181Y73425D02*
G03*
X23228Y76378I-2953J0D01*
G01*
X20079D02*
G03*
X17126Y73425I0J-2953D01*
G01*
X12008Y86221D02*
G03*
X16339Y90551I0J4331D01*
G01*
Y108268D02*
G03*
X12008Y112598I-4331J0D01*
G01*
X6102D02*
G03*
X2510Y110687I0J-4331D01*
G01*
Y88132D02*
G03*
X6102Y86221I3592J2419D01*
G01*
X103937Y66339D02*
G03*
X103937Y66339I-4921J0D01*
G01*
X103543Y51772D02*
G03*
X103543Y51772I-4528J0D01*
G01*
X62992D02*
G03*
X62992Y51772I-4528J0D01*
G01*
X103953Y40748D02*
G03*
X103953Y40748I-4937J0D01*
G01*
X54383Y37999D02*
G03*
X63386Y40748I4082J2749D01*
G01*
D02*
G03*
X54134Y43086I-4921J0D01*
G01*
X17126Y70276D02*
G03*
X20079Y67323I2953J0D01*
G01*
X23228D02*
G03*
X26181Y70276I0J2953D01*
G01*
X31398Y19685D02*
G03*
X31398Y19685I-11713J0D01*
G01*
X342258Y192602D02*
X344208Y191476D01*
X340178Y193463D02*
X342258Y192602D01*
X344208Y191476D02*
X345994Y190106D01*
X338003Y194046D02*
X340178Y193463D01*
X334976Y188873D02*
X339695Y193593D01*
X338503Y188225D02*
X342652Y192374D01*
X348956Y186727D02*
X350082Y184778D01*
X347586Y188514D02*
X348956Y186727D01*
X350082Y184778D02*
X350944Y182698D01*
X345994Y190106D02*
X347586Y188514D01*
X341275Y186821D02*
X345182Y190728D01*
X343482Y184853D02*
X347365Y188735D01*
X335771Y194340D02*
X338003Y194046D01*
X330805Y194340D02*
X336399Y188746D01*
X329717Y187790D02*
X336209Y194282D01*
X326629Y194340D02*
X332323Y188645D01*
X322453Y194340D02*
X329238Y187555D01*
X323595Y185844D02*
X332091Y194340D01*
X324426Y184933D02*
X324709Y184611D01*
X324166Y185273D02*
X324426Y184933D01*
X324709Y184611D02*
X325125Y183988D01*
X322729Y186631D02*
X323069Y186370D01*
X324166Y185273D01*
X351526Y180523D02*
X351820Y178291D01*
X350944Y182698D02*
X351526Y180523D01*
X351820Y177165D02*
Y178291D01*
X334981Y194340D02*
X351820Y177500D01*
X346156Y174999D02*
X351544Y180387D01*
X346226Y178918D02*
X351820Y173324D01*
X346410Y166901D02*
X351820Y172311D01*
X346126Y174843D02*
X351820Y169149D01*
X348443Y164758D02*
X351820Y168135D01*
X343873Y168540D02*
X351820Y176487D01*
X345035Y171758D02*
X351820Y164973D01*
X346180Y179199D02*
X350573Y183592D01*
X345151Y182345D02*
X349168Y186362D01*
X343321Y169296D02*
X344314Y168303D01*
X339980Y193517D02*
X350997Y182499D01*
X344739Y168090D02*
X346029Y167228D01*
X344355Y168280D02*
X344739Y168090D01*
X346029Y167228D02*
X346351Y166946D01*
X342962Y168917D02*
X343984Y168494D01*
X344355Y168280D01*
X314631Y189407D02*
X319563Y194340D01*
X310455Y189407D02*
X315387Y194340D01*
X318341Y188942D02*
X323739Y194340D01*
X287005D02*
X335771D01*
X302103Y189407D02*
X307036Y194340D01*
X305750D02*
X310682Y189407D01*
X316161Y189351D02*
X316588Y189323D01*
X315736Y189407D02*
X316161Y189351D01*
X316588Y189323D02*
X318110Y189021D01*
X294888Y189407D02*
X315736D01*
X306279D02*
X311211Y194340D01*
X309926D02*
X314858Y189407D01*
X301574Y194340D02*
X306506Y189407D01*
X297398Y194340D02*
X302331Y189407D01*
X293576Y189232D02*
X298684Y194340D01*
X293222D02*
X298155Y189407D01*
X287008Y191016D02*
X290332Y194340D01*
X289046D02*
X294061Y189325D01*
X297927Y189407D02*
X302860Y194340D01*
X294463Y189351D02*
X294888Y189407D01*
X294036Y189323D02*
X294463Y189351D01*
X293275Y189172D02*
X294036Y189323D01*
X292869Y189034D02*
X293275Y189172D01*
X320733Y187965D02*
X321117Y187775D01*
X320362Y188179D02*
X320733Y187965D01*
X321257Y187682D02*
X327915Y194340D01*
X318929Y188772D02*
X320362Y188179D01*
X314101Y194340D02*
X320192Y188249D01*
X318277Y194340D02*
X326777Y185841D01*
X322407Y186913D02*
X322729Y186631D01*
X321117Y187775D02*
X322407Y186913D01*
X232372Y180026D02*
X336825Y75572D01*
X232361Y175860D02*
X333596Y74626D01*
X230216Y173829D02*
X332886Y71160D01*
X318110Y189021D02*
X318515Y188883D01*
X292456Y188924D02*
X292869Y189034D01*
X318515Y188883D02*
X318929Y188772D01*
X291739Y188627D02*
X292456Y188924D01*
X287008Y192203D02*
X290986Y188224D01*
X287008Y186840D02*
X294508Y194340D01*
X291368Y188413D02*
X291739Y188627D01*
X290984Y188223D02*
X291368Y188413D01*
X290339Y187792D02*
X290984Y188223D01*
X290017Y187510D02*
X290339Y187792D01*
X289677Y187249D02*
X290017Y187510D01*
X350766Y158729D02*
X351820Y159784D01*
X350769Y158681D02*
X350825Y158256D01*
Y157480D02*
Y158256D01*
X349406Y163212D02*
X351820Y160797D01*
X349932Y162071D02*
X351820Y163960D01*
X350741Y159108D02*
X350769Y158681D01*
X350825Y149265D02*
X351820Y148269D01*
X350825Y150437D02*
X351820Y151432D01*
X350825Y146261D02*
X351820Y147256D01*
X350825Y154613D02*
X351820Y155608D01*
X350825Y157617D02*
X351820Y156621D01*
X350825Y153441D02*
X351820Y152445D01*
X348331Y164927D02*
X349193Y163637D01*
X348048Y165249D02*
X348331Y164927D01*
X349193Y163637D02*
X349382Y163253D01*
X346691Y166685D02*
X347787Y165588D01*
X346351Y166946D02*
X346691Y166685D01*
X347787Y165588D02*
X348048Y165249D01*
X350301Y161035D02*
X350438Y160629D01*
X350190Y161449D02*
X350301Y161035D01*
X350438Y160629D02*
X350741Y159108D01*
X349382Y163253D02*
X349596Y162882D01*
X350190Y161449D01*
X350825Y144894D02*
Y145669D01*
Y157480D01*
Y145089D02*
X351820Y144094D01*
X350769Y144469D02*
X350825Y144894D01*
X350741Y144042D02*
X350769Y144469D01*
X350438Y142520D02*
X350741Y144042D01*
X350012Y141272D02*
X351820Y143081D01*
X350301Y142115D02*
X350438Y142520D01*
X350145Y141593D02*
X351820Y139918D01*
X348735Y138828D02*
X351820Y135742D01*
X346806Y136580D02*
X351820Y131566D01*
X350190Y141701D02*
X350301Y142115D01*
X349596Y140268D02*
X350190Y141701D01*
X349382Y139897D02*
X349596Y140268D01*
X349193Y139513D02*
X349382Y139897D01*
X348331Y138223D02*
X349193Y139513D01*
X348048Y137901D02*
X348331Y138223D01*
X347787Y137561D02*
X348048Y137901D01*
X346691Y136464D02*
X347787Y137561D01*
X346351Y136204D02*
X346691Y136464D01*
X346029Y135921D02*
X346351Y136204D01*
X344739Y135059D02*
X346029Y135921D01*
X344346Y134865D02*
X351820Y127390D01*
X344355Y134870D02*
X344739Y135059D01*
X341306Y133729D02*
X351820Y123214D01*
X333256Y133427D02*
X351820Y114863D01*
X337432Y133427D02*
X351820Y119039D01*
X329080Y133427D02*
X351820Y110687D01*
X324904Y133427D02*
X351820Y106511D01*
X336647Y107028D02*
X351820Y122201D01*
X339022Y105227D02*
X351820Y118026D01*
X320728Y133427D02*
X351820Y102335D01*
X316552Y133427D02*
X351820Y98159D01*
X343984Y134656D02*
X344355Y134870D01*
X342551Y134062D02*
X343984Y134656D01*
X342137Y133951D02*
X342551Y134062D01*
X341732Y133814D02*
X342137Y133951D01*
X340210Y133511D02*
X341732Y133814D01*
X339783Y133483D02*
X340210Y133511D01*
X339358Y133427D02*
X339783Y133483D01*
X308201Y133427D02*
X334781Y106847D01*
X286626Y133427D02*
X339358D01*
X304025D02*
X332803Y104649D01*
X299849Y133427D02*
X351820Y81456D01*
X312377Y133427D02*
X351820Y93984D01*
X295673Y133427D02*
X351820Y77280D01*
X288098Y71006D02*
X351820Y134729D01*
X285488Y72572D02*
X351820Y138905D01*
X281804Y134769D02*
X351820Y64753D01*
X338028Y75003D02*
X351820Y88795D01*
X339131Y102497D02*
X351820Y89808D01*
X339366Y72165D02*
X351820Y84619D01*
X336933Y100520D02*
X351820Y85632D01*
X291498Y133427D02*
X351820Y73104D01*
X287322Y133427D02*
X351820Y68929D01*
X270603Y70215D02*
X333815Y133427D01*
X270623Y66059D02*
X337991Y133427D01*
X268456Y72244D02*
X329640Y133427D01*
X228543Y69913D02*
X292057Y133427D01*
X228189Y52856D02*
X308760Y133427D01*
X339273Y73125D02*
X351820Y60577D01*
X338327Y69895D02*
X351820Y56401D01*
X289126Y67859D02*
X351820Y130553D01*
X245008Y52971D02*
X325464Y133427D01*
X289129Y186701D02*
X289677Y187249D01*
X288868Y186361D02*
X289129Y186701D01*
X288586Y186039D02*
X288868Y186361D01*
X287008Y188027D02*
X288777Y186257D01*
X288155Y185394D02*
X288586Y186039D01*
X287965Y185010D02*
X288155Y185394D01*
X287751Y184639D02*
X287965Y185010D01*
X287454Y183922D02*
X287751Y184639D01*
X287343Y183509D02*
X287454Y183922D01*
X287008Y183851D02*
X287345Y183514D01*
X287206Y183103D02*
X287343Y183509D01*
X287054Y182342D02*
X287206Y183103D01*
X287008Y181774D02*
Y194232D01*
X276519Y194340D02*
X279921Y190938D01*
Y174744D02*
Y194232D01*
X268167Y194340D02*
X279921Y182586D01*
X272343Y194340D02*
X279921Y186762D01*
X263991Y194340D02*
X279921Y178410D01*
X287026Y181915D02*
X287054Y182342D01*
X287008Y174744D02*
Y181774D01*
X282382Y172283D02*
X284547D01*
X285740Y172592D02*
X286970Y171361D01*
X284708Y172013D02*
X285026Y172331D01*
X286970Y170773D02*
Y174317D01*
X279724Y171204D02*
X281140Y172620D01*
X279557Y160854D02*
X279928Y161068D01*
X279173Y160664D02*
X279557Y160854D01*
X278528Y160233D02*
X279173Y160664D01*
X278206Y159951D02*
X278528Y160233D01*
X277866Y159690D02*
X278206Y159951D01*
X277318Y159142D02*
X277866Y159690D01*
X277057Y158802D02*
X277318Y159142D01*
X276775Y158480D02*
X277057Y158802D01*
X276344Y157835D02*
X276775Y158480D01*
X276154Y157451D02*
X276344Y157835D01*
X275940Y157080D02*
X276154Y157451D01*
X275643Y156363D02*
X275940Y157080D01*
X275532Y155949D02*
X275643Y156363D01*
X275395Y155544D02*
X275532Y155949D01*
X275243Y154783D02*
X275395Y155544D01*
X275215Y154356D02*
X275243Y154783D01*
X259816Y194340D02*
X279990Y174165D01*
X255640Y194340D02*
X279190Y170790D01*
X251464Y194340D02*
X277502Y168302D01*
X243112Y194340D02*
X277814Y159638D01*
X247288Y194340D02*
X277664Y163964D01*
X238936Y194340D02*
X276034Y157242D01*
X232828Y178594D02*
X248574Y194340D01*
X231376Y181318D02*
X244398Y194340D01*
X234761D02*
X275161Y153940D01*
X228363Y182480D02*
X240222Y194340D01*
X218057D02*
X230419Y181978D01*
X213881Y194340D02*
X226254Y181968D01*
X209706Y194340D02*
X224223Y179823D01*
X129959Y180121D02*
X144178Y194340D01*
X113661D02*
X125542Y182459D01*
X130116Y176102D02*
X148354Y194340D01*
X127774Y182112D02*
X140003Y194340D01*
X109485D02*
X122728Y181098D01*
X171739Y79922D02*
X279921Y188105D01*
X169998Y82357D02*
X279921Y192281D01*
X163771Y194340D02*
X285553Y72558D01*
X159596Y194340D02*
X282051Y71885D01*
X159595Y194340D02*
X282050Y71885D01*
X155420Y194340D02*
X280262Y69498D01*
X178644Y74300D02*
X279921Y175577D01*
X182437Y73917D02*
X278205Y169686D01*
X190789Y73917D02*
X278965Y162094D01*
X173826Y77834D02*
X279921Y183929D01*
X175941Y75773D02*
X279921Y179753D01*
X226409Y194340D02*
X275160Y145589D01*
X230585Y194340D02*
X275160Y149765D01*
X222233Y194340D02*
X276501Y140072D01*
X167861Y84396D02*
X277805Y194340D01*
X142892D02*
X264910Y72322D01*
X134540Y194340D02*
X262351Y66530D01*
X186613Y73917D02*
X277397Y164701D01*
X130490Y177511D02*
X225048Y82953D01*
X138716Y194340D02*
X262671Y70385D01*
X129129Y174696D02*
X220873Y82953D01*
X126218Y173431D02*
X220079Y79571D01*
X278197Y137561D02*
X279293Y136464D01*
X277936Y137901D02*
X278197Y137561D01*
X279293Y136464D02*
X279633Y136204D01*
X276792Y139513D02*
X277654Y138223D01*
X276602Y139897D02*
X276792Y139513D01*
X277654Y138223D02*
X277936Y137901D01*
X282000Y134656D02*
X283433Y134062D01*
X281629Y134870D02*
X282000Y134656D01*
X283433Y134062D02*
X283847Y133951D01*
X279955Y135921D02*
X281245Y135059D01*
X279633Y136204D02*
X279955Y135921D01*
X281245Y135059D02*
X281629Y134870D01*
X275160Y144894D02*
X275215Y144469D01*
X275160Y144894D02*
Y145669D01*
X275215Y144469D02*
X275243Y144042D01*
X275160Y153931D02*
X275215Y154356D01*
X275160Y153543D02*
Y153931D01*
Y145669D02*
Y153543D01*
X275795Y141701D02*
X276388Y140268D01*
X275684Y142115D02*
X275795Y141701D01*
X276388Y140268D02*
X276602Y139897D01*
X275243Y144042D02*
X275546Y142520D01*
X275684Y142115D01*
X285774Y133511D02*
X286201Y133483D01*
X284253Y133814D02*
X285774Y133511D01*
X286201Y133483D02*
X286626Y133427D01*
X283847Y133951D02*
X284253Y133814D01*
X228740Y78462D02*
X284133Y133854D01*
X226731Y72278D02*
X287881Y133427D01*
X228740Y82638D02*
X281195Y135093D01*
X224879Y82953D02*
X278842Y136916D01*
X228740Y74291D02*
Y82953D01*
X220703D02*
X276981Y139230D01*
X220079Y82328D02*
X220703Y82953D01*
X220079Y74291D02*
Y82953D01*
X225358Y74291D02*
X247064Y52586D01*
X228439Y67035D02*
X243050Y52424D01*
X222992Y72714D02*
X224570Y74291D01*
X221182D02*
X222822Y72651D01*
X199409Y74186D02*
X275160Y149936D01*
X220079Y82953D02*
X228740D01*
X199409Y70011D02*
X275160Y145761D01*
X198387Y77340D02*
X275187Y154140D01*
X199409Y65835D02*
X275685Y142110D01*
X220079Y74291D02*
X228740D01*
X199409Y72055D02*
Y75189D01*
Y62205D02*
Y72040D01*
X181111Y73917D02*
X193898D01*
Y75189D01*
X170077Y81584D02*
X175362Y76298D01*
X167432Y78939D02*
X172717Y73654D01*
X187714Y70177D02*
X193898Y63994D01*
X191890Y70177D02*
X193898Y68169D01*
Y62205D02*
Y70177D01*
X181111D02*
X193898D01*
X206264Y60162D02*
X220394Y74291D01*
X203737Y61811D02*
X220079Y78152D01*
X207219Y52765D02*
X220754Y66300D01*
X199611Y61861D02*
X220079Y82328D01*
X199409Y66834D02*
X204555Y61688D01*
X200795Y61811D02*
X203733D01*
X201592Y56299D02*
X204996Y52895D01*
X199409Y62658D02*
X200256Y61811D01*
X183538Y70177D02*
X195160Y58555D01*
X148931Y52938D02*
X171182Y75189D01*
X165582Y52887D02*
X182873Y70177D01*
X200795Y56299D02*
X203733D01*
X199803Y61811D02*
X200780D01*
X199803Y56299D02*
X200780D01*
X186239Y52664D02*
X194132Y60557D01*
X190108Y52358D02*
X195704Y57954D01*
X335495Y51591D02*
X351820Y67916D01*
X334861Y69185D02*
X351820Y52225D01*
X339671Y51591D02*
X351820Y63740D01*
X329933Y50204D02*
X351820Y72092D01*
X327114Y51561D02*
X351820Y76267D01*
X320616Y49238D02*
X351820Y80443D01*
X341118Y44686D02*
X351820Y55388D01*
X341118Y48862D02*
X351820Y59564D01*
X341118Y42898D02*
Y51591D01*
X332425D02*
X341118D01*
X332425Y42898D02*
X341118D01*
X331102Y47197D02*
X332425Y48520D01*
X318441Y51240D02*
X336181Y68980D01*
X311034Y48009D02*
X333344Y70318D01*
X331045Y47945D02*
X332425Y46565D01*
X311096Y47015D02*
X313006Y45106D01*
X320333Y44780D02*
X322455Y46902D01*
X341118Y46224D02*
X351820Y35522D01*
X341118Y50400D02*
X351820Y39698D01*
Y19685D02*
Y177165D01*
X331604Y30996D02*
X351820Y51212D01*
X336092Y31308D02*
X351820Y47036D01*
X330207Y44607D02*
X351820Y22995D01*
X339365Y30405D02*
X351820Y42861D01*
X340269Y42898D02*
X351820Y31346D01*
X336093Y42898D02*
X351820Y27170D01*
X327638Y43001D02*
X341350Y29289D01*
X319882Y23450D02*
X339330Y42898D01*
X319776Y31696D02*
X332425Y44345D01*
Y42898D02*
Y51591D01*
X320802Y45661D02*
X335073Y31390D01*
X309794Y44142D02*
X315446Y38489D01*
X309793Y44142D02*
X315446Y38490D01*
X316967Y37238D02*
X323812Y44083D01*
X318845Y43442D02*
X331360Y30927D01*
X318767Y34862D02*
X326818Y42914D01*
X314633Y43478D02*
X328473Y29639D01*
X311443Y40066D02*
X314777Y43400D01*
X314602Y39049D02*
X319236Y43683D01*
X197178Y194340D02*
X339928Y51591D01*
X193002Y194340D02*
X335752Y51591D01*
X205530Y194340D02*
X351820Y48050D01*
X188827Y194340D02*
X332425Y50741D01*
X180475Y194340D02*
X324135Y50680D01*
X176299Y194340D02*
X322529Y48110D01*
X309476Y50626D02*
X351820Y92971D01*
X306212Y51538D02*
X351820Y97146D01*
X287636Y45490D02*
X351820Y109674D01*
X284632Y46661D02*
X351820Y113850D01*
X184651Y194340D02*
X327473Y51518D01*
X270240Y44797D02*
X351820Y126377D01*
X230762Y51253D02*
X312936Y133427D01*
X289031Y69081D02*
X306543Y51569D01*
X231732Y48047D02*
X317112Y133427D01*
X172123Y194340D02*
X315188Y51275D01*
X167947Y194340D02*
X312970Y49318D01*
X210295Y47489D02*
X296233Y133427D01*
X288357Y65578D02*
X303670Y50266D01*
X288357Y65578D02*
X303670Y50266D01*
X285970Y63789D02*
X302442Y47318D01*
X267759Y46492D02*
X284849Y63582D01*
X268857Y64199D02*
X287266Y45790D01*
X289088Y42765D02*
X351820Y105498D01*
X271069Y41450D02*
X332736Y103117D01*
X290679Y40181D02*
X351820Y101322D01*
X201354Y194340D02*
X351820Y43874D01*
X231715Y22976D02*
X342980Y134240D01*
X210393Y22532D02*
X321288Y133427D01*
X306845Y42914D02*
X309579Y40181D01*
X303206D02*
X306007Y42981D01*
X307382Y40181D02*
X312776Y45574D01*
X236305Y2510D02*
X334537Y100742D01*
X294854Y40181D02*
X302477Y47803D01*
X270795Y66437D02*
X297052Y40181D01*
X192139Y20982D02*
X304585Y133427D01*
X151244Y194340D02*
X305403Y40181D01*
X147068Y194340D02*
X301227Y40181D01*
X191737Y24756D02*
X300409Y133427D01*
X288262Y44794D02*
X292876Y40181D01*
X299030D02*
X303389Y44540D01*
X346318Y20655D02*
X351820Y26157D01*
X345521Y24034D02*
X351820Y30333D01*
X345725Y15886D02*
X351820Y21982D01*
X344019Y26708D02*
X351820Y34509D01*
X341965Y28829D02*
X351820Y38685D01*
X344250Y26389D02*
X351820Y18819D01*
X351526Y16327D02*
X351820Y18559D01*
Y19685D01*
X350944Y14153D02*
X351526Y16327D01*
X346351Y20113D02*
X351233Y15231D01*
X345888Y16399D02*
X350121Y12166D01*
X350082Y12073D02*
X350944Y14153D01*
X319882Y19274D02*
X323335Y22727D01*
X319882Y25702D02*
X323239Y22345D01*
X319882Y14322D02*
X319882Y27402D01*
X319882Y28387D02*
Y30180D01*
Y31165D01*
Y29878D02*
X324400Y25360D01*
X319882Y15098D02*
X323023Y18239D01*
X319882Y21526D02*
X323003Y18405D01*
X348956Y10123D02*
X350082Y12073D01*
X319882Y14322D02*
X319882Y13337D01*
X319498Y11405D02*
X319882Y13337D01*
X344600Y13512D02*
X348536Y9575D01*
X342728Y11208D02*
X346592Y7343D01*
X342728Y11208D02*
X346592Y7343D01*
X342686Y4496D02*
X349835Y11645D01*
X336639Y2625D02*
X351706Y17691D01*
X347586Y8337D02*
X348956Y10123D01*
X345994Y6745D02*
X347586Y8337D01*
X344208Y5374D02*
X345994Y6745D01*
X340320Y9439D02*
X344308Y5451D01*
X342258Y4248D02*
X344208Y5374D01*
X337305Y8278D02*
X341605Y3978D01*
X332349Y2510D02*
X338444Y8606D01*
X323998Y2510D02*
X330297Y8810D01*
X319855Y13201D02*
X330546Y2510D01*
X319822D02*
X327623Y10311D01*
X319882Y17350D02*
X334722Y2510D01*
X340178Y3387D02*
X342258Y4248D01*
X338003Y2804D02*
X340178Y3387D01*
X335771Y2510D02*
X338003Y2804D01*
X333365Y8043D02*
X338477Y2931D01*
X328173Y2510D02*
X333676Y8013D01*
X319498Y33097D02*
X319882Y31165D01*
X318744Y34917D02*
X319498Y33097D01*
X318191Y35744D02*
X326168Y27767D01*
X317649Y36555D02*
X318744Y34917D01*
X316256Y37948D02*
X317649Y36555D01*
X318191Y35745D02*
X326168Y27767D01*
X318884Y9925D02*
X323926Y14966D01*
X318744Y9585D02*
X319498Y11405D01*
X317649Y7948D02*
X318744Y9585D01*
X316256Y6555D02*
X317649Y7948D01*
X314619Y5460D02*
X316256Y6555D01*
X312799Y39796D02*
X314619Y39042D01*
X310867Y40181D02*
X312799Y39796D01*
X314619Y39042D02*
X316256Y37948D01*
X309882Y40181D02*
X310867D01*
X288700D02*
X309882D01*
X283224Y5460D02*
X285044Y4706D01*
X312799Y4706D02*
X314619Y5460D01*
X302381Y4322D02*
X309882D01*
X301275D02*
X302381D01*
X287961D02*
X301275D01*
X302381D01*
X315646Y2510D02*
X325501Y12366D01*
X317203Y7501D02*
X322194Y2510D01*
X318905Y9975D02*
X326370Y2510D01*
X311470D02*
X314279Y5320D01*
X310867Y4322D02*
X312799Y4706D01*
X314888Y5640D02*
X318018Y2510D01*
X311838Y4515D02*
X313843Y2510D01*
X309882Y4322D02*
X310867Y4322D01*
X307855Y4322D02*
X309667Y2510D01*
X303679Y4322D02*
X305491Y2510D01*
X307294D02*
X309106Y4322D01*
X299503D02*
X301315Y2510D01*
X298943D02*
X300754Y4322D01*
X303118Y2510D02*
X304930Y4322D01*
X294767Y2510D02*
X296578Y4322D01*
X285044Y4706D02*
X286976Y4322D01*
X295327Y4322D02*
X297139Y2510D01*
X290591D02*
X292403Y4322D01*
X286976Y4322D02*
X288788Y2510D01*
X291152Y4322D02*
X292963Y2510D01*
X286976Y4322D02*
X287961Y4322D01*
X286415Y2510D02*
X288227Y4322D01*
X249682Y49294D02*
X264494Y64105D01*
X248133Y51920D02*
X262465Y66253D01*
X265002Y63878D02*
X282653Y46227D01*
X228740Y79261D02*
X263055Y44946D01*
X228740Y75085D02*
X262078Y41747D01*
X226480Y64818D02*
X241054Y50244D01*
X209612Y50982D02*
X223118Y64488D01*
X199409Y75185D02*
X223534Y51061D01*
X196153Y57562D02*
X202366Y51349D01*
X199409Y71009D02*
X222760Y47659D01*
X243859Y26768D02*
X281702Y64611D01*
X249373Y50277D02*
X277961Y21689D01*
X222259Y64863D02*
X284612Y2510D01*
X215426D02*
X280137Y67221D01*
X231575Y47195D02*
X276260Y2510D01*
X271016Y41161D02*
X278560Y33617D01*
X249212Y46262D02*
X277961Y17513D01*
X247032Y44266D02*
X277961Y13337D01*
X229848Y44746D02*
X272084Y2510D01*
X240481D02*
X280047Y42077D01*
X230308Y25744D02*
X268650Y64086D01*
X208766Y44949D02*
X226777Y26939D01*
X210313Y47579D02*
X255381Y2510D01*
X206373Y59870D02*
X241381Y24862D01*
X205291Y56777D02*
X240840Y21227D01*
X198723Y2510D02*
X241733Y45521D01*
X227347Y26959D02*
X244360Y43972D01*
X226447Y43972D02*
X243703Y26716D01*
X209194Y25509D02*
X227607Y43922D01*
X206446Y26937D02*
X224400Y44891D01*
X205645Y43894D02*
X223963Y25577D01*
X179209Y70331D02*
X201312Y48228D01*
X170821Y49774D02*
X191225Y70177D01*
X130365Y194340D02*
X280536Y44168D01*
X126189Y194340D02*
X280621Y39907D01*
X117837Y194340D02*
X265634Y46543D01*
X122013Y194340D02*
X280035Y36318D01*
X188825Y44012D02*
X205860Y26976D01*
X192050Y50124D02*
X198396Y56469D01*
X189468Y26662D02*
X206795Y43989D01*
X170244Y45889D02*
X189473Y26660D01*
X169051Y52179D02*
X187049Y70177D01*
X153002Y48658D02*
X175784Y71440D01*
X151742Y51573D02*
X173288Y73120D01*
X147980Y26933D02*
X165139Y44092D01*
X146880Y44198D02*
X164538Y26540D01*
X192361Y48827D02*
X238678Y2510D01*
X170923Y49386D02*
X217798Y2510D01*
X194547D02*
X240682Y48646D01*
X166177Y79186D02*
X222699Y22665D01*
X170552Y24449D02*
X202401Y56299D01*
X170380Y20102D02*
X220317Y70039D01*
X177843Y2510D02*
X222798Y47465D01*
X161140Y2510D02*
X203302Y44672D01*
X191395Y45617D02*
X234502Y2510D01*
X152682Y46747D02*
X196919Y2510D01*
X156964D02*
X201518Y47064D01*
X151243Y26020D02*
X193898Y68674D01*
X163972Y26221D02*
X183926Y46175D01*
X152884Y23485D02*
X193898Y64499D01*
X111030Y2510D02*
X178904Y70384D01*
X115206Y2510D02*
X162027Y49331D01*
X136085Y2510D02*
X183619Y50045D01*
X168453Y26526D02*
X186160Y44233D01*
X167855Y44103D02*
X185597Y26360D01*
X150743Y44511D02*
X169130Y26123D01*
X106854Y2510D02*
X148255Y43911D01*
X119382Y2510D02*
X162734Y45863D01*
X281586Y37948D02*
X282120Y38305D01*
X280193Y36555D02*
X281586Y37948D01*
X279099Y34917D02*
X280193Y36555D01*
X278345Y33097D02*
X279099Y34917D01*
X277961Y31165D02*
X278345Y33097D01*
X269419Y38583D02*
X277961Y30041D01*
Y13337D02*
X277961Y14322D01*
X277961Y27402D02*
Y28387D01*
Y13337D02*
X278345Y11405D01*
X277961Y28387D02*
Y30180D01*
Y31165D01*
Y27402D02*
Y28387D01*
X266220Y37606D02*
X277961Y25865D01*
X249474Y24031D02*
X263911Y38468D01*
X277961Y17848D02*
Y27402D01*
X247582Y26315D02*
X262216Y40949D01*
X277961Y17532D02*
Y17848D01*
Y14322D02*
Y17532D01*
X279099Y9585D02*
X280193Y7948D01*
X278345Y11405D02*
X279099Y9585D01*
X269712Y2510D02*
X278421Y11220D01*
X244657Y2510D02*
X281219Y39073D01*
X248833Y2510D02*
X278078Y31756D01*
X253008Y2510D02*
X277961Y27463D01*
X281586Y6555D02*
X283224Y5460D01*
X280193Y7948D02*
X281586Y6555D01*
X282239Y2510D02*
X284613Y4885D01*
X273888Y2510D02*
X279845Y8468D01*
X278063Y2510D02*
X281899Y6346D01*
X257184Y2510D02*
X277961Y23287D01*
X249503Y20916D02*
X267908Y2510D01*
X261360D02*
X277961Y19111D01*
X231726Y21989D02*
X251205Y2510D01*
X230364Y19175D02*
X247029Y2510D01*
X232129D02*
X267259Y37640D01*
X247649Y18594D02*
X263733Y2510D01*
X244014Y18053D02*
X259557Y2510D01*
X265536D02*
X277961Y14935D01*
X227452Y17911D02*
X242853Y2510D01*
X227954D02*
X243623Y18180D01*
X210394Y22443D02*
X230326Y2510D01*
X192077Y24056D02*
X213623Y2510D01*
X209246Y19414D02*
X226150Y2510D01*
X207074D02*
X223909Y19345D01*
X223778Y2510D02*
X241339Y20072D01*
X191777Y20180D02*
X209447Y2510D01*
X206542Y17943D02*
X221974Y2510D01*
X190371D02*
X205751Y17891D01*
X189546Y18235D02*
X205271Y2510D01*
X202899D02*
X222695Y22307D01*
X182019Y2510D02*
X201346Y21837D01*
X219602Y2510D02*
X240886Y23795D01*
X170171Y25083D02*
X192744Y2510D01*
X165316D02*
X183622Y20816D01*
X170587Y20491D02*
X188568Y2510D01*
X186195D02*
X202774Y19090D01*
X173668Y2510D02*
X189302Y18144D01*
X211250Y2510D02*
X226678Y17938D01*
X168526Y18376D02*
X184392Y2510D01*
X169492D02*
X185528Y18546D01*
X151304Y18894D02*
X167689Y2510D01*
X144437D02*
X162387Y20461D01*
X152904Y21470D02*
X171864Y2510D01*
X127734D02*
X144893Y19670D01*
X123558Y2510D02*
X143981Y22933D01*
X140261Y2510D02*
X162692Y24942D01*
X152788Y2510D02*
X168812Y18533D01*
X148613Y2510D02*
X164464Y18362D01*
X164253Y18473D02*
X180216Y2510D01*
X131909D02*
X147428Y18029D01*
X148102Y17921D02*
X163513Y2510D01*
X74410Y178857D02*
X89893Y194340D01*
X74410Y183033D02*
X85717Y194340D01*
X105310D02*
X121463Y178187D01*
X74407Y194340D02*
X279924D01*
X74410Y187209D02*
X81541Y194340D01*
X74409Y174680D02*
X94068Y194340D01*
X74410Y191384D02*
X77365Y194340D01*
X74410Y174744D02*
Y194232D01*
X72892Y172471D02*
X73606Y171758D01*
X69784Y172283D02*
X71949D01*
X67276Y182342D02*
X67304Y181915D01*
X67125Y183103D02*
X67276Y182342D01*
X67323Y181774D02*
Y194232D01*
X66891Y183866D02*
X67323Y184298D01*
X66876Y183922D02*
X66987Y183509D01*
X67125Y183103D01*
X68603Y172585D02*
X69284Y171904D01*
X67360Y173828D02*
X67625Y173563D01*
X67360Y171808D02*
X68319Y172767D01*
X67323Y174744D02*
Y181774D01*
X80255Y194340D02*
X196642Y77953D01*
X79171Y146036D02*
X127475Y194340D01*
X101134D02*
X220079Y75395D01*
X76079Y194340D02*
X194125Y76293D01*
X78200Y140889D02*
X131651Y194340D01*
X74410Y191833D02*
X192326Y73917D01*
X74410Y175130D02*
X165654Y83886D01*
X76679Y168684D02*
X164816Y80548D01*
X74410Y179306D02*
X179669Y74046D01*
X74410Y187658D02*
X188150Y73917D01*
X74410Y183482D02*
X183974Y73917D01*
X79118Y154335D02*
X119123Y194340D01*
X78137Y157530D02*
X114947Y194340D01*
X79171Y150212D02*
X123299Y194340D01*
X76924Y164668D02*
X106596Y194340D01*
X76705Y168625D02*
X102420Y194340D01*
X76271Y159839D02*
X110772Y194340D01*
X74896Y170992D02*
X98244Y194340D01*
X74403Y161068D02*
X74774Y160854D01*
X67360Y170773D02*
Y174317D01*
X63551Y194340D02*
X67323Y190568D01*
X59868Y189351D02*
X60295Y189323D01*
X63045Y188372D02*
X67323Y192649D01*
X18559Y194340D02*
X67325D01*
X55729Y189407D02*
X60662Y194340D01*
X59851Y189354D02*
X64837Y194340D01*
X62592Y188627D02*
X62963Y188413D01*
X61875Y188924D02*
X62592Y188627D01*
X62963Y188413D02*
X63347Y188223D01*
X61056Y189172D02*
X61461Y189034D01*
X60295Y189323D02*
X61056Y189172D01*
X61461Y189034D02*
X61875Y188924D01*
X51553Y189407D02*
X56486Y194340D01*
X51024D02*
X55956Y189407D01*
X55200Y194340D02*
X60211Y189329D01*
X46848Y194340D02*
X51780Y189407D01*
X39026D02*
X43958Y194340D01*
X47377Y189407D02*
X52310Y194340D01*
X43202Y189407D02*
X48134Y194340D01*
X42672D02*
X47605Y189407D01*
X59443D02*
X59868Y189351D01*
X38496Y194340D02*
X43429Y189407D01*
X38594D02*
X59443D01*
X61221Y98855D02*
X156706Y194340D01*
X61221Y103031D02*
X152530Y194340D01*
X61221Y94679D02*
X160882Y194340D01*
X61220Y90503D02*
X165057Y194340D01*
X54085Y112598D02*
X135827Y194340D01*
X58681Y71260D02*
X181761Y194340D01*
X60499Y110661D02*
X123816Y173978D01*
X65353Y186504D02*
X67323Y188474D01*
X61221Y107206D02*
X127835Y173821D01*
X59376Y194340D02*
X67323Y186393D01*
X58091Y112428D02*
X121826Y176163D01*
X64653Y187249D02*
X65202Y186701D01*
X64314Y187510D02*
X64653Y187249D01*
X65202Y186701D02*
X65463Y186361D01*
X63347Y188223D02*
X63992Y187792D01*
X33222Y187779D02*
X39783Y194340D01*
X63992Y187792D02*
X64314Y187510D01*
X66365Y185010D02*
X66580Y184639D01*
X66176Y185394D02*
X66365Y185010D01*
X66580Y184639D02*
X66876Y183922D01*
X65463Y186361D02*
X65745Y186039D01*
X66176Y185394D01*
X79115Y154356D02*
X79171Y153931D01*
X79087Y154783D02*
X79115Y154356D01*
X79171Y153543D02*
Y153931D01*
X78798Y155949D02*
X78936Y155544D01*
X78687Y156363D02*
X78798Y155949D01*
X78936Y155544D02*
X79087Y154783D01*
X79171Y144894D02*
Y145669D01*
Y153543D01*
X79115Y144469D02*
X79171Y144894D01*
X79087Y144042D02*
X79115Y144469D01*
X78785Y142520D02*
X79087Y144042D01*
X78647Y142115D02*
X78785Y142520D01*
X76464Y159690D02*
X77013Y159142D01*
X76125Y159951D02*
X76464Y159690D01*
X77013Y159142D02*
X77274Y158802D01*
X75158Y160664D02*
X75803Y160233D01*
X74774Y160854D02*
X75158Y160664D01*
X75803Y160233D02*
X76125Y159951D01*
X78176Y157451D02*
X78391Y157080D01*
X77987Y157835D02*
X78176Y157451D01*
X78391Y157080D02*
X78687Y156363D01*
X77274Y158802D02*
X77556Y158480D01*
X77987Y157835D01*
X78536Y141701D02*
X78647Y142115D01*
X77943Y140268D02*
X78536Y141701D01*
X77728Y139897D02*
X77943Y140268D01*
X77539Y139513D02*
X77728Y139897D01*
X76677Y138223D02*
X77539Y139513D01*
X76395Y137901D02*
X76677Y138223D01*
X76134Y137561D02*
X76395Y137901D01*
X75037Y136464D02*
X76134Y137561D01*
X74697Y136204D02*
X75037Y136464D01*
X74375Y135921D02*
X74697Y136204D01*
X73086Y135059D02*
X74375Y135921D01*
X72701Y134870D02*
X73086Y135059D01*
X72330Y134656D02*
X72701Y134870D01*
X70898Y134062D02*
X72330Y134656D01*
X70484Y133951D02*
X70898Y134062D01*
X70078Y133814D02*
X70484Y133951D01*
X68557Y133511D02*
X70078Y133814D01*
X68129Y133483D02*
X68557Y133511D01*
X67705Y133427D02*
X68129Y133483D01*
X61221Y90551D02*
Y108268D01*
X44963Y125236D02*
X57672Y112527D01*
X45866Y129435D02*
X49859Y133427D01*
X49721Y112410D02*
X71709Y134399D01*
X43382Y133427D02*
X67705D01*
X35754Y126093D02*
X49508Y112339D01*
X24582Y124738D02*
X46654Y102666D01*
X50984Y112598D02*
X56890D01*
X41614Y124409D02*
X53425Y112598D01*
X33271Y124400D02*
X47235Y110436D01*
X28932Y124563D02*
X46654Y106842D01*
X44927Y132671D02*
X45683Y133427D01*
X39764Y133465D02*
X42913D01*
X33630Y133427D02*
X39295D01*
X45866Y127362D02*
Y130512D01*
X39764Y124409D02*
X42913D01*
X16339Y91555D02*
X58210Y133427D01*
X16339Y95731D02*
X54035Y133427D01*
X46654Y90551D02*
Y108268D01*
X2510Y134282D02*
X46675Y90117D01*
X2510Y138458D02*
X46654Y94314D01*
X2510Y73551D02*
X62386Y133427D01*
X50984Y86221D02*
X56890D01*
X45882Y75164D02*
X56938Y86221D01*
X38759Y76394D02*
X49045Y86679D01*
X42935Y76394D02*
X52762Y86221D01*
X22040Y76378D02*
X46654Y100991D01*
X20734Y124409D02*
X46654Y98490D01*
X25334Y75495D02*
X46654Y96815D01*
X16339Y99907D02*
X40841Y124409D01*
X16339Y99575D02*
X39519Y76394D01*
X16339Y103750D02*
X43695Y76394D01*
X36795D02*
X45882D01*
X26181Y72167D02*
X46654Y92639D01*
X34321Y194340D02*
X39253Y189407D01*
X38170Y189351D02*
X38594Y189407D01*
X37742Y189323D02*
X38170Y189351D01*
X30145Y194340D02*
X35647Y188838D01*
X24795Y187704D02*
X31431Y194340D01*
X25969D02*
X32806Y187503D01*
X36221Y189021D02*
X37742Y189323D01*
X35815Y188883D02*
X36221Y189021D01*
X35402Y188772D02*
X35815Y188883D01*
X33969Y188179D02*
X35402Y188772D01*
X33598Y187965D02*
X33969Y188179D01*
X33214Y187775D02*
X33598Y187965D01*
X21630Y188715D02*
X27255Y194340D01*
X17390Y188651D02*
X23079Y194340D01*
X17727Y194230D02*
X23842Y188116D01*
X16327Y194046D02*
X18559Y194340D01*
X14153Y193463D02*
X16327Y194046D01*
X14283Y193498D02*
X18928Y188853D01*
X12073Y192602D02*
X14153Y193463D01*
X10123Y191476D02*
X12073Y192602D01*
X11395Y192211D02*
X15501Y188105D01*
X8337Y190106D02*
X10123Y191476D01*
X6745Y188514D02*
X8337Y190106D01*
X31924Y186913D02*
X33214Y187775D01*
X31602Y186631D02*
X31924Y186913D01*
X27317Y186050D02*
X35607Y194340D01*
X21793D02*
X30512Y185621D01*
X8895Y190534D02*
X12794Y186636D01*
X31262Y186370D02*
X31602Y186631D01*
X30165Y185273D02*
X31262Y186370D01*
X29904Y184934D02*
X30165Y185273D01*
X29622Y184611D02*
X29904Y184934D01*
X29205Y183988D02*
X29622Y184611D01*
X10347Y168494D02*
X11369Y168917D01*
X9976Y168280D02*
X10347Y168494D01*
X9591Y168090D02*
X9976Y168280D01*
X8884Y167617D02*
X10800Y169534D01*
X6743Y188511D02*
X10643Y184611D01*
X8302Y167228D02*
X9591Y168090D01*
X7980Y166946D02*
X8302Y167228D01*
X7640Y166685D02*
X7980Y166946D01*
X6543Y165588D02*
X7640Y166685D01*
X6282Y165249D02*
X6543Y165588D01*
X6000Y164927D02*
X6282Y165249D01*
X5000Y186079D02*
X9036Y182042D01*
X5374Y186727D02*
X6745Y188514D01*
X3626Y183276D02*
X8089Y178813D01*
X2510Y177947D02*
X18903Y194340D01*
X3600Y183213D02*
X13638Y193250D01*
X2734Y179992D02*
X8296Y174430D01*
X2510Y169595D02*
X8135Y175220D01*
X2510Y171864D02*
X7668Y166707D01*
X2510Y165419D02*
X9146Y172055D01*
X2510Y173771D02*
X8200Y179460D01*
X2510Y176040D02*
X10163Y168388D01*
X4248Y184778D02*
X5374Y186727D01*
X3387Y182698D02*
X4248Y184778D01*
X2804Y180523D02*
X3387Y182698D01*
X2510Y178291D02*
X2804Y180523D01*
X2510Y177165D02*
Y178291D01*
Y167689D02*
X5708Y164490D01*
X5138Y163637D02*
X6000Y164927D01*
X4949Y163253D02*
X5138Y163637D01*
X4735Y162882D02*
X4949Y163253D01*
X2510Y163513D02*
X4268Y161755D01*
X4141Y161449D02*
X4735Y162882D01*
X4030Y161035D02*
X4141Y161449D01*
X3892Y160629D02*
X4030Y161035D01*
X3590Y159108D02*
X3892Y160629D01*
X2510Y161244D02*
X5611Y164344D01*
X3562Y158680D02*
X3590Y159108D01*
X2510Y159337D02*
X3516Y158331D01*
X3562Y144469D02*
X3590Y144042D01*
X3506Y158256D02*
X3562Y158680D01*
X3590Y144042D02*
X3892Y142520D01*
X3506Y144894D02*
X3562Y144469D01*
X2510Y142633D02*
X4635Y140509D01*
X3506Y145669D02*
Y157480D01*
Y158256D01*
X2510Y110687D02*
Y177165D01*
Y155161D02*
X3506Y154165D01*
X2510Y157068D02*
X3506Y158063D01*
X2510Y152892D02*
X3506Y153888D01*
X2510Y148716D02*
X3506Y149712D01*
X2510Y150985D02*
X3506Y149990D01*
Y144894D02*
Y145669D01*
X2510Y146809D02*
X3506Y145814D01*
X2510Y144540D02*
X3506Y145536D01*
X36772Y133427D02*
X37638Y132561D01*
X35732Y131828D02*
X37331Y133427D01*
X23697D02*
X29362D01*
X28420D02*
X28652Y133195D01*
X36039Y129984D02*
X36811Y129212D01*
X36039Y127959D02*
X36811Y128731D01*
X26179Y130626D02*
X27164Y131611D01*
X25898Y131773D02*
X26959Y130712D01*
X20079Y133465D02*
X23228D01*
X24244Y133427D02*
X24490Y133182D01*
X14548Y133483D02*
X14973Y133427D01*
X14120Y133511D02*
X14548Y133483D01*
X24536Y133159D02*
X24804Y133427D01*
X14973D02*
X19610D01*
X15892D02*
X17454Y131865D01*
X36811Y127362D02*
Y130512D01*
X36039Y127362D02*
Y130512D01*
X26181Y127315D02*
X27122Y126373D01*
X29921Y124394D02*
X33071D01*
X16339Y108259D02*
X32474Y124394D01*
X16339Y104083D02*
X37604Y125348D01*
X15151Y111247D02*
X28605Y124701D01*
X16339Y95399D02*
X36795Y74942D01*
X26953Y127362D02*
Y130512D01*
X26181Y127362D02*
Y130512D01*
X25953Y126225D02*
X26956Y127227D01*
X17126Y127362D02*
Y130512D01*
X20079Y76378D02*
X23228D01*
X20079Y124409D02*
X23228D01*
X16339Y90551D02*
Y108268D01*
X9591Y135059D02*
X9976Y134870D01*
X8302Y135921D02*
X9591Y135059D01*
X9976Y134870D02*
X10347Y134656D01*
X7640Y136464D02*
X7980Y136204D01*
X6543Y137561D02*
X7640Y136464D01*
X7980Y136204D02*
X8302Y135921D01*
X12193Y133951D02*
X12599Y133814D01*
X11780Y134062D02*
X12193Y133951D01*
X12599Y133814D02*
X14120Y133511D01*
X10347Y134656D02*
X11780Y134062D01*
X10588Y134556D02*
X17126Y128018D01*
X4735Y140268D02*
X4949Y139897D01*
X4141Y141701D02*
X4735Y140268D01*
X4949Y139897D02*
X5138Y139513D01*
X4030Y142115D02*
X4141Y141701D01*
X3892Y142520D02*
X4030Y142115D01*
X2510Y140365D02*
X4079Y141933D01*
X6000Y138223D02*
X6283Y137901D01*
X5138Y139513D02*
X6000Y138223D01*
X6283Y137901D02*
X6543Y137561D01*
X2510Y136189D02*
X5417Y139095D01*
X2510Y132013D02*
X7301Y136803D01*
X8151Y112598D02*
X19964Y124412D01*
X2510Y119485D02*
X16452Y133427D01*
X12316Y112587D02*
X24366Y124637D01*
X2510Y115310D02*
X17126Y129925D01*
X2510Y123661D02*
X12652Y133803D01*
X2510Y111134D02*
X17431Y126055D01*
X12897Y86313D02*
X22832Y76378D01*
X8813Y86221D02*
X18901Y76133D01*
X4195Y86663D02*
X17141Y73718D01*
X6102Y112598D02*
X12008D01*
X2510Y113403D02*
X3910Y112003D01*
X2510Y121754D02*
X11666Y112598D01*
X2510Y127837D02*
X9686Y135013D01*
X2510Y117578D02*
X7491Y112598D01*
X6102Y86221D02*
X12008D01*
X2510Y86079D02*
X3512Y87081D01*
X2510Y81903D02*
X6828Y86221D01*
X2510Y77727D02*
X11004Y86221D01*
X102818Y69463D02*
X227695Y194340D01*
X100275Y71096D02*
X223519Y194340D01*
X103937Y66406D02*
X231871Y194340D01*
X97854Y56148D02*
X236047Y194340D01*
X63386Y63438D02*
X194288Y194340D01*
X84430D02*
X225982Y52788D01*
X101463Y55581D02*
X223819Y177936D01*
X96958Y194340D02*
X220606Y70692D01*
X103298Y53240D02*
X224982Y174923D01*
X92782Y194340D02*
X220650Y66472D01*
X63386Y67613D02*
X190112Y194340D01*
X63386Y63438D02*
X194288Y194340D01*
X78551Y141758D02*
X167434Y52875D01*
X77171Y138962D02*
X163936Y52197D01*
X79171Y153665D02*
X183429Y49407D01*
X76825Y164363D02*
X188244Y52943D01*
X62856Y71260D02*
X185937Y194340D01*
X75132Y161880D02*
X185034Y51978D01*
X75265Y136692D02*
X162150Y49807D01*
X63386Y61417D02*
Y71260D01*
X66003Y133427D02*
X146795Y52635D01*
X84125Y17363D02*
X261102Y194340D01*
X103918Y41332D02*
X256926Y194340D01*
X88606D02*
X280436Y2510D01*
X81799D02*
X273629Y194340D01*
X84125Y13187D02*
X265277Y194340D01*
X77624Y2510D02*
X269453Y194340D01*
X102577Y44167D02*
X252750Y194340D01*
X99848Y45614D02*
X227705Y173471D01*
X79171Y145313D02*
X201360Y23125D01*
X63133Y42305D02*
X215167Y194340D01*
X79171Y149489D02*
X202832Y25829D01*
X90151Y2510D02*
X166659Y79018D01*
X85975Y2510D02*
X164620Y81155D01*
X94327Y2510D02*
X169094Y77277D01*
X69839Y133766D02*
X201095Y2510D01*
X72842Y134939D02*
X183652Y24129D01*
X63386Y69231D02*
X130106Y2510D01*
X103936Y66262D02*
X144942Y25257D01*
X102814Y63209D02*
X143969Y22054D01*
X100268Y61579D02*
X159337Y2510D01*
X66116Y28585D02*
X98949Y61418D01*
X63386Y65055D02*
X125930Y2510D01*
X60113Y55989D02*
X198464Y194340D01*
X54505Y71260D02*
X177585Y194340D01*
X62367Y54067D02*
X202640Y194340D01*
X45882Y70989D02*
X169233Y194340D01*
X2510Y69375D02*
X66562Y133427D01*
X31955Y52886D02*
X173409Y194340D01*
X61221Y104803D02*
X95886Y70137D01*
X61221Y100627D02*
X94256Y67591D01*
X61221Y92275D02*
X97469Y56027D01*
X61149Y109050D02*
X98940Y71259D01*
X60744Y88576D02*
X95166Y54154D01*
X53543Y71260D02*
X63386D01*
X53543Y61417D02*
Y71260D01*
X36130Y52886D02*
X53543Y70298D01*
X2510Y130106D02*
X61357Y71260D01*
X2510Y125930D02*
X57181Y71260D01*
X16339Y107926D02*
X53543Y70721D01*
Y61417D02*
X63386D01*
X54496D02*
X59822Y56091D01*
X44482Y52886D02*
X53543Y61947D01*
X44430Y67307D02*
X56103Y55634D01*
X40254Y67307D02*
X54218Y53343D01*
X61371Y44719D02*
X210992Y194340D01*
X62730Y50255D02*
X206816Y194340D01*
X53589Y28585D02*
X219343Y194340D01*
X49299Y133427D02*
X162520Y20206D01*
X53475Y133427D02*
X162424Y24479D01*
X45123Y133427D02*
X176040Y2510D01*
X61827Y133427D02*
X144559Y50695D01*
X62847Y61417D02*
X121754Y2510D01*
X61221Y96451D02*
X155161Y2510D01*
X57651Y133427D02*
X144245Y46833D01*
X45866Y128508D02*
X147518Y26857D01*
X61940Y28585D02*
X95891Y62536D01*
X58580Y86564D02*
X94682Y50462D01*
X57765Y28585D02*
X94258Y65079D01*
X54748Y86221D02*
X96179Y44789D01*
X15455Y87930D02*
X57766Y45619D01*
X50550Y86242D02*
X94371Y42421D01*
X51231Y51283D02*
X61366Y61417D01*
X58672D02*
X117578Y2510D01*
X48428Y52656D02*
X57190Y61417D01*
X51231Y51283D02*
X61366Y61417D01*
X97706Y47438D02*
X99481Y45663D01*
X74465Y28582D02*
X95207Y49324D01*
X77901Y27842D02*
X97547Y47489D01*
X84125Y13937D02*
Y14611D01*
X82483Y24073D02*
X95597Y37187D01*
X80542Y26308D02*
X94150Y39915D01*
X83798Y21212D02*
X98431Y35846D01*
X80500Y26350D02*
X81892Y24957D01*
X78862Y27444D02*
X80500Y26350D01*
X81892Y24957D02*
X82987Y23319D01*
X75110Y28582D02*
X77042Y28198D01*
X74125Y28582D02*
X75110D01*
X77042Y28198D02*
X78862Y27444D01*
X84125Y15672D02*
Y18582D01*
Y19567D01*
Y15089D02*
Y15672D01*
X82987Y23319D02*
X83741Y21499D01*
X84125Y19567D01*
X103271Y50225D02*
X150985Y2510D01*
X103057Y37911D02*
X138458Y2510D01*
X103931Y41213D02*
X142633Y2510D01*
X101398Y47922D02*
X146809Y2510D01*
X98503D02*
X143975Y47983D01*
X102679Y2510D02*
X145340Y45172D01*
X84125Y19261D02*
X100875Y2510D01*
X84125Y15085D02*
X96699Y2510D01*
X100689Y36103D02*
X134282Y2510D01*
X82454Y8404D02*
X88348Y2510D01*
X83786Y11248D02*
X92523Y2510D01*
X83741Y11020D02*
X84125Y12952D01*
Y13937D01*
X82987Y9200D02*
X83741Y11020D01*
X81892Y7563D02*
X82987Y9200D01*
X80500Y6170D02*
X81892Y7563D01*
X80506Y6176D02*
X84172Y2510D01*
X78862Y5075D02*
X80500Y6170D01*
X77042Y4321D02*
X78862Y5075D01*
X77850Y4656D02*
X79996Y2510D01*
X75110Y3937D02*
X77042Y4321D01*
X74393Y3937D02*
X75820Y2510D01*
X58134Y45658D02*
X59982Y47506D01*
X54383Y37999D02*
X54426Y37642D01*
X54134Y45834D02*
X56169Y47869D01*
X54134Y45076D02*
X54983Y44227D01*
X54287Y36571D02*
X62273Y28585D01*
X52813Y33869D02*
X58097Y28585D01*
X59158Y35876D02*
X66448Y28585D01*
X46417D02*
X69947D01*
X49413D02*
X56907Y36080D01*
X54134Y43086D02*
Y45276D01*
Y46025D01*
X54343Y36972D02*
X54426Y37559D01*
X53162Y49038D02*
X54248Y50124D01*
X53268Y48880D02*
X53841Y47495D01*
X54134Y46025D01*
X54267Y36430D02*
X54343Y36972D01*
X54012Y35780D02*
X54182Y36181D01*
X53700Y34963D02*
X53987Y35658D01*
X53282Y34339D02*
X53700Y34963D01*
X49606Y32900D02*
X53921Y28585D01*
X70289Y28582D02*
X94640Y52933D01*
X63336Y40050D02*
X74803Y28582D01*
X70289D02*
X74125D01*
X62327Y49410D02*
X109227Y2510D01*
X60036Y47526D02*
X105051Y2510D01*
X62784Y53129D02*
X113403Y2510D01*
X74125Y3937D02*
X75110D01*
X72611D02*
X74125D01*
X73448Y2510D02*
X74875Y3937D01*
X46417D02*
X72611D01*
X18559Y2510D02*
X335771D01*
X69272D02*
X70699Y3937D01*
X66042D02*
X67469Y2510D01*
X70218Y3937D02*
X71644Y2510D01*
X61943Y37267D02*
X70627Y28582D01*
X65096Y2510D02*
X66523Y3937D01*
X61866D02*
X63293Y2510D01*
X57690Y3937D02*
X59117Y2510D01*
X56744D02*
X58171Y3937D01*
X60920Y2510D02*
X62347Y3937D01*
X52569Y2510D02*
X53996Y3937D01*
X53514D02*
X54941Y2510D01*
X45882Y74207D02*
X53543Y66546D01*
X45882Y67307D02*
Y76394D01*
Y70031D02*
X53543Y62370D01*
X26181Y73029D02*
X46324Y52886D01*
X25936Y69098D02*
X42148Y52886D01*
X40306D02*
X53543Y66123D01*
X36795Y67307D02*
X45882D01*
X46524Y52886D02*
X47273D01*
X24235D02*
X46524D01*
X23603D02*
X38025Y67307D01*
X27779Y52886D02*
X42200Y67307D01*
X26181Y70276D02*
Y73425D01*
X36795Y67307D02*
Y76394D01*
X16339Y91223D02*
X36795Y70766D01*
X17126Y70276D02*
Y73425D01*
X15251Y52886D02*
X36795Y74430D01*
X23521Y67337D02*
X37973Y52886D01*
X23722D02*
X24235D01*
X20079Y67323D02*
X23228D01*
X17677Y52886D02*
X18225Y52953D01*
X48744Y52593D02*
X50129Y52020D01*
X47273Y52886D02*
X48744Y52593D01*
X50129Y52020D02*
X51375Y51187D01*
X19427Y52886D02*
X36795Y70254D01*
X19237Y67445D02*
X33797Y52886D01*
X9762Y51572D02*
X47013Y88823D01*
X52751Y33807D02*
X53282Y34339D01*
X52435Y50127D02*
X53268Y48880D01*
X52126Y33390D02*
X52751Y33807D01*
X51375Y51187D02*
X52435Y50127D01*
X51432Y33102D02*
X52126Y33390D01*
X18940Y52886D02*
X20700D01*
X18476Y52951D02*
X18940Y52886D01*
X21588D02*
X23722D01*
X14761D02*
X17677D01*
X13777D02*
X14761D01*
X11845Y52501D02*
X13777Y52886D01*
X17234Y33195D02*
X19102Y33181D01*
X15905Y33194D02*
X17847Y31253D01*
X11693Y33231D02*
X14659Y30265D01*
X10025Y51748D02*
X11845Y52501D01*
X9088Y33254D02*
X17234Y33195D01*
X2510Y75820D02*
X25445Y52886D01*
X2510Y71644D02*
X21228Y52927D01*
X2510Y79996D02*
X29621Y52886D01*
X2510Y65200D02*
X46842Y109531D01*
X2510Y84172D02*
X17248Y69434D01*
X2510Y61024D02*
X46654Y105167D01*
X2510Y67469D02*
X17093Y52886D01*
X2510Y63293D02*
X13060Y52743D01*
X2510Y48496D02*
X21337Y67323D01*
X2510Y56848D02*
X17126Y71464D01*
X2510Y52672D02*
X18009Y68170D01*
X8387Y50653D02*
X10025Y51748D01*
X6994Y49260D02*
X8387Y50653D01*
X5900Y47622D02*
X6994Y49260D01*
X2510Y59117D02*
X9938Y51689D01*
X2510Y54941D02*
X7593Y49859D01*
X2510Y50765D02*
X5827Y47448D01*
X5146Y45803D02*
X5900Y47622D01*
X4761Y43870D02*
X5146Y45803D01*
X4761Y42886D02*
Y43870D01*
X2510Y44320D02*
X6075Y47885D01*
X2510Y46589D02*
X4839Y44261D01*
X7826Y33420D02*
X8662Y33254D01*
X7039Y33746D02*
X7826Y33420D01*
X6928Y33820D02*
X12121Y28627D01*
X6330Y34220D02*
X7039Y33746D01*
X5727Y34822D02*
X6330Y34220D01*
X2510Y34062D02*
X10123Y26449D01*
X9088Y33254D02*
X17141Y33184D01*
X8662Y33254D02*
X9088D01*
X2510Y27617D02*
X8232Y33339D01*
X2510Y23441D02*
X12295Y33226D01*
X2510Y19265D02*
X16435Y33190D01*
X4761Y38076D02*
Y42886D01*
X2510Y42414D02*
X4761Y40163D01*
X2510Y19685D02*
Y88132D01*
Y35969D02*
X4761Y38220D01*
X2510Y40145D02*
X4761Y42396D01*
X2510Y38238D02*
X5328Y35421D01*
X4928Y36318D02*
X5254Y35531D01*
X4761Y37154D02*
Y37580D01*
X5254Y35531D02*
X5727Y34822D01*
X4761Y37154D02*
X4928Y36318D01*
X2510Y31793D02*
X5652Y34935D01*
X50695Y32956D02*
X51432Y33102D01*
X50319Y32956D02*
X50695D01*
X49851Y32898D02*
X50319Y32956D01*
X45394Y32937D02*
X49745Y28585D01*
X41181Y32974D02*
X45569Y28585D01*
X36968Y33011D02*
X42282Y27697D01*
X45188Y28537D02*
X49552Y32901D01*
X45432Y28585D02*
X46417D01*
X43500Y28201D02*
X45432Y28585D01*
X41680Y27447D02*
X43500Y28201D01*
X40043Y26353D02*
X41680Y27447D01*
X31371Y18895D02*
X45412Y32937D01*
X32756Y33047D02*
X39746Y26057D01*
X29768Y25644D02*
X37133Y33009D01*
X31002Y22702D02*
X41273Y32973D01*
X27941Y27993D02*
X32993Y33045D01*
X27941Y27993D02*
X32993Y33045D01*
X28543Y33084D02*
X37856Y23772D01*
X38650Y24960D02*
X40043Y26353D01*
X37555Y23322D02*
X38650Y24960D01*
X36802Y21502D02*
X37555Y23322D01*
X36417Y19570D02*
X36802Y21502D01*
X36417Y18585D02*
Y19570D01*
X41680Y5075D02*
X43500Y4321D01*
X40043Y6170D02*
X41680Y5075D01*
X43500Y4321D02*
X45432Y3937D01*
X40041Y2510D02*
X42335Y4804D01*
X38650Y7563D02*
X40043Y6170D01*
X30265Y14659D02*
X42414Y2510D01*
X48393D02*
X49820Y3937D01*
X45432D02*
X46417D01*
X49338D02*
X50765Y2510D01*
X44217D02*
X45644Y3937D01*
X45096Y4004D02*
X46589Y2510D01*
X36417Y12952D02*
Y13937D01*
Y18585D01*
Y12952D02*
X36802Y11020D01*
X31253Y17847D02*
X36484Y12616D01*
X31138Y22138D02*
X36417Y16858D01*
X28627Y12121D02*
X38238Y2510D01*
X37555Y9200D02*
X38650Y7563D01*
X36802Y11020D02*
X37555Y9200D01*
X35865Y2510D02*
X39784Y6429D01*
X27514Y2510D02*
X36672Y11669D01*
X31689Y2510D02*
X37885Y8706D01*
X22944Y33154D02*
X24685Y33141D01*
X21893Y33161D02*
X22944Y33154D01*
X20101Y33174D02*
X22138Y31138D01*
X20088Y33174D02*
X21893Y33161D01*
X19102Y33181D02*
X20088Y33174D01*
X18784Y31363D02*
X20591Y33171D01*
X24862Y33116D02*
X49851Y32898D01*
X25579Y29807D02*
X28854Y33081D01*
X24308Y33144D02*
X36660Y20791D01*
X22039Y33141D02*
X22786Y33134D01*
X22620Y31024D02*
X24731Y33134D01*
X19216Y33165D02*
X19963Y33159D01*
X2510Y29886D02*
X8686Y23710D01*
X3004Y15583D02*
X8007Y20586D01*
X2510Y25710D02*
X7985Y20235D01*
X2510Y18559D02*
Y19685D01*
Y21534D02*
X8880Y15165D01*
X4079Y12482D02*
X8346Y16750D01*
X3387Y14153D02*
X4248Y12073D01*
X5374Y10123D01*
X2510Y18559D02*
X2804Y16327D01*
X3387Y14153D01*
X19162Y2510D02*
X36466Y19814D01*
X23338Y2510D02*
X36417Y15590D01*
X26449Y10123D02*
X34062Y2510D01*
X2692Y17177D02*
X17177Y2692D01*
X15165Y8880D02*
X21534Y2510D01*
X20235Y7985D02*
X25710Y2510D01*
X16327Y2804D02*
X18559Y2510D01*
X23710Y8686D02*
X29886Y2510D01*
X12409Y4109D02*
X16668Y8368D01*
X15501Y3026D02*
X20475Y7999D01*
X7515Y7567D02*
X11377Y11429D01*
X7515Y7567D02*
X11377Y11429D01*
X9769Y5645D02*
X13726Y9602D01*
X5600Y9828D02*
X9563Y13791D01*
X5374Y10123D02*
X6745Y8337D01*
X5106Y10587D02*
X10587Y5106D01*
X12073Y4248D02*
X14153Y3387D01*
X10123Y5374D02*
X12073Y4248D01*
X14153Y3387D02*
X16327Y2804D01*
X6745Y8337D02*
X8337Y6745D01*
X10123Y5374D01*
X1178748Y-229571D02*
Y-190201D01*
X1021267Y-150831D02*
X1296858D01*
X1021267Y-190201D02*
X1296858D01*
X824417Y-229571D02*
X1296858D01*
X824417Y-111461D02*
X1296858D01*
X824417Y-268941D02*
Y-111461D01*
X1021267Y-268941D02*
Y-111461D01*
X-356685Y900350D02*
X1296858D01*
Y-268941D02*
Y900350D01*
X-356685Y-268941D02*
Y900350D01*
Y-268941D02*
X1296858D01*
X1035046Y-255164D02*
X1031110D01*
Y-258115D01*
X1033078D01*
X1031110D01*
Y-261067D01*
X1037014Y-257131D02*
Y-261067D01*
Y-259099D01*
X1037998Y-258115D01*
X1038981Y-257131D01*
X1039965D01*
X1042917Y-261067D02*
X1044885D01*
X1043901D01*
Y-257131D01*
X1042917D01*
X1047837Y-256147D02*
X1048821Y-255164D01*
X1050789D01*
X1051772Y-256147D01*
Y-257131D01*
X1050789Y-258115D01*
X1049805D01*
X1050789D01*
X1051772Y-259099D01*
Y-260083D01*
X1050789Y-261067D01*
X1048821D01*
X1047837Y-260083D01*
X1053740Y-255164D02*
Y-261067D01*
X1056692D01*
X1057676Y-260083D01*
Y-256147D01*
X1056692Y-255164D01*
X1053740D01*
X1059644Y-262051D02*
X1063580D01*
X1069483Y-261067D02*
X1065548D01*
X1069483Y-257131D01*
Y-256147D01*
X1068499Y-255164D01*
X1066531D01*
X1065548Y-256147D01*
X1071451D02*
X1072435Y-255164D01*
X1074403D01*
X1075387Y-256147D01*
Y-260083D01*
X1074403Y-261067D01*
X1072435D01*
X1071451Y-260083D01*
Y-256147D01*
X1081291Y-261067D02*
X1077355D01*
X1081291Y-257131D01*
Y-256147D01*
X1080307Y-255164D01*
X1078339D01*
X1077355Y-256147D01*
X1083258D02*
X1084242Y-255164D01*
X1086210D01*
X1087194Y-256147D01*
Y-260083D01*
X1086210Y-261067D01*
X1084242D01*
X1083258Y-260083D01*
Y-256147D01*
X1089162Y-262051D02*
X1093098D01*
X1099001Y-256147D02*
X1098017Y-255164D01*
X1096049D01*
X1095066Y-256147D01*
Y-260083D01*
X1096049Y-261067D01*
X1098017D01*
X1099001Y-260083D01*
Y-258115D01*
X1097034D01*
X1101953Y-257131D02*
X1103921D01*
X1104905Y-258115D01*
Y-261067D01*
X1101953D01*
X1100969Y-260083D01*
X1101953Y-259099D01*
X1104905D01*
X1106873Y-261067D02*
Y-257131D01*
X1107857D01*
X1108841Y-258115D01*
Y-261067D01*
Y-258115D01*
X1109825Y-257131D01*
X1110808Y-258115D01*
Y-261067D01*
X1115728D02*
X1113760D01*
X1112776Y-260083D01*
Y-258115D01*
X1113760Y-257131D01*
X1115728D01*
X1116712Y-258115D01*
Y-259099D01*
X1112776D01*
X1121632Y-255164D02*
X1119664D01*
X1118680Y-256147D01*
Y-260083D01*
X1119664Y-261067D01*
X1121632D01*
X1122616Y-260083D01*
Y-256147D01*
X1121632Y-255164D01*
X1124584Y-261067D02*
Y-257131D01*
X1127535D01*
X1128519Y-258115D01*
Y-261067D01*
X1130487Y-262051D02*
X1134423D01*
X1136391Y-256147D02*
X1137375Y-255164D01*
X1139343D01*
X1140326Y-256147D01*
Y-260083D01*
X1139343Y-261067D01*
X1137375D01*
X1136391Y-260083D01*
Y-256147D01*
X1142294D02*
X1143278Y-255164D01*
X1145246D01*
X1146230Y-256147D01*
Y-260083D01*
X1145246Y-261067D01*
X1143278D01*
X1142294Y-260083D01*
Y-256147D01*
X1148198Y-261067D02*
Y-260083D01*
X1149182D01*
Y-261067D01*
X1148198D01*
X1153118D02*
Y-255164D01*
X1156069D01*
X1157053Y-256147D01*
Y-258115D01*
X1156069Y-259099D01*
X1153118D01*
X1162957Y-257131D02*
X1160005D01*
X1159021Y-258115D01*
Y-260083D01*
X1160005Y-261067D01*
X1162957D01*
X1164925Y-255164D02*
Y-261067D01*
X1167877D01*
X1168861Y-260083D01*
Y-259099D01*
Y-258115D01*
X1167877Y-257131D01*
X1164925D01*
X1170829Y-255164D02*
Y-261067D01*
X1173780D01*
X1174764Y-260083D01*
Y-256147D01*
X1173780Y-255164D01*
X1170829D01*
X1177716Y-261067D02*
X1179684D01*
X1180668Y-260083D01*
Y-258115D01*
X1179684Y-257131D01*
X1177716D01*
X1176732Y-258115D01*
Y-260083D01*
X1177716Y-261067D01*
X1186571Y-257131D02*
X1183620D01*
X1182636Y-258115D01*
Y-260083D01*
X1183620Y-261067D01*
X1186571D01*
D13*
X284591Y68118D02*
X288740D01*
X284591D02*
Y72268D01*
Y63968D02*
Y68118D01*
X280441D02*
X284591D01*
X336772Y47244D02*
X340724D01*
X336772D02*
Y51197D01*
X332819Y47244D02*
X336772D01*
Y43291D02*
Y47244D01*
X284591Y42118D02*
X288740D01*
X280441D02*
X284591D01*
X245220Y44284D02*
Y48433D01*
X284591Y42118D02*
Y46268D01*
X245220Y48433D02*
X249370D01*
X241071D02*
X245220D01*
Y52583D01*
X205850Y44284D02*
Y48433D01*
Y52583D01*
X201701Y48433D02*
X205850D01*
X210000D01*
X166480D02*
Y52583D01*
Y48433D02*
X170630D01*
X162331D02*
X166480D01*
Y44284D02*
Y48433D01*
X245220Y22433D02*
Y26583D01*
Y18283D02*
Y22433D01*
X241071D02*
X245220D01*
X249370D01*
X205850D02*
X210000D01*
X201701D02*
X205850D01*
Y26583D01*
X166480Y22433D02*
Y26583D01*
X162331Y22433D02*
X166480D01*
X205850Y18283D02*
Y22433D01*
X166480D02*
X170630D01*
X166480Y18283D02*
Y22433D01*
X41339Y71850D02*
X45488D01*
X37189D02*
X41339D01*
Y76000D01*
X31496Y128937D02*
X35646D01*
X27347D02*
X31496D01*
Y124787D02*
Y128937D01*
X99016Y40748D02*
Y45291D01*
Y36205D02*
Y40748D01*
X103559D01*
X94472D02*
X99016D01*
X41339Y67701D02*
Y71850D01*
D14*
X1042921Y-168552D02*
Y-182327D01*
X1049809D01*
X1052104Y-180031D01*
Y-177735D01*
X1049809Y-175439D01*
X1042921D01*
X1049809D01*
X1052104Y-173144D01*
Y-170848D01*
X1049809Y-168552D01*
X1042921D01*
X1058992Y-182327D02*
X1063584D01*
X1065879Y-180031D01*
Y-175439D01*
X1063584Y-173144D01*
X1058992D01*
X1056696Y-175439D01*
Y-180031D01*
X1058992Y-182327D01*
X1072767Y-170848D02*
Y-173144D01*
X1070471D01*
X1075063D01*
X1072767D01*
Y-180031D01*
X1075063Y-182327D01*
X1084246Y-170848D02*
Y-173144D01*
X1081950D01*
X1086542D01*
X1084246D01*
Y-180031D01*
X1086542Y-182327D01*
X1095725D02*
X1100317D01*
X1102613Y-180031D01*
Y-175439D01*
X1100317Y-173144D01*
X1095725D01*
X1093430Y-175439D01*
Y-180031D01*
X1095725Y-182327D01*
X1107205D02*
Y-173144D01*
X1109501D01*
X1111796Y-175439D01*
Y-182327D01*
Y-175439D01*
X1114092Y-173144D01*
X1116388Y-175439D01*
Y-182327D01*
X1134755Y-168552D02*
Y-182327D01*
X1143938D01*
X1150826Y-173144D02*
X1155417D01*
X1157713Y-175439D01*
Y-182327D01*
X1150826D01*
X1148530Y-180031D01*
X1150826Y-177735D01*
X1157713D01*
X1162305Y-173144D02*
Y-180031D01*
X1164601Y-182327D01*
X1171488D01*
Y-184623D01*
X1169193Y-186919D01*
X1166897D01*
X1171488Y-182327D02*
Y-173144D01*
X1182968Y-182327D02*
X1178376D01*
X1176080Y-180031D01*
Y-175439D01*
X1178376Y-173144D01*
X1182968D01*
X1185263Y-175439D01*
Y-177735D01*
X1176080D01*
X1189855Y-173144D02*
Y-182327D01*
Y-177735D01*
X1192151Y-175439D01*
X1194447Y-173144D01*
X1196743D01*
X846071Y-247293D02*
Y-263036D01*
X851318Y-257788D01*
X856566Y-263036D01*
Y-247293D01*
X861814Y-263036D02*
X867061D01*
X864437D01*
Y-252540D01*
X861814D01*
X874933Y-263036D02*
Y-252540D01*
X877556D01*
X880180Y-255164D01*
Y-263036D01*
Y-255164D01*
X882804Y-252540D01*
X885428Y-255164D01*
Y-263036D01*
X890676Y-247293D02*
Y-257788D01*
X895923Y-263036D01*
X901171Y-257788D01*
Y-247293D01*
X916914Y-249917D02*
X914290Y-247293D01*
X909042D01*
X906419Y-249917D01*
Y-260412D01*
X909042Y-263036D01*
X914290D01*
X916914Y-260412D01*
Y-255164D01*
X911666D01*
X1200401Y-210546D02*
X1203025Y-207923D01*
X1208273D01*
X1210897Y-210546D01*
Y-221042D01*
X1208273Y-223665D01*
X1203025D01*
X1200401Y-221042D01*
Y-210546D01*
X1216144D02*
X1218768Y-207923D01*
X1224016D01*
X1226639Y-210546D01*
Y-221042D01*
X1224016Y-223665D01*
X1218768D01*
X1216144Y-221042D01*
Y-210546D01*
X1046199Y-223665D02*
X1037015D01*
X1046199Y-214482D01*
Y-212186D01*
X1043903Y-209890D01*
X1039311D01*
X1037015Y-212186D01*
X1059974Y-209890D02*
X1050791D01*
Y-216778D01*
X1055382Y-214482D01*
X1057678D01*
X1059974Y-216778D01*
Y-221370D01*
X1057678Y-223665D01*
X1053086D01*
X1050791Y-221370D01*
X1064566Y-223665D02*
X1073749Y-214482D01*
X1078341Y-212186D02*
X1080637Y-209890D01*
X1085228D01*
X1087524Y-212186D01*
Y-221370D01*
X1085228Y-223665D01*
X1080637D01*
X1078341Y-221370D01*
Y-212186D01*
X1092116D02*
X1094412Y-209890D01*
X1099003D01*
X1101299Y-212186D01*
Y-214482D01*
X1099003Y-216778D01*
X1096707D01*
X1099003D01*
X1101299Y-219074D01*
Y-221370D01*
X1099003Y-223665D01*
X1094412D01*
X1092116Y-221370D01*
X1105891Y-223665D02*
X1115074Y-214482D01*
X1128849Y-223665D02*
X1119666D01*
X1128849Y-214482D01*
Y-212186D01*
X1126553Y-209890D01*
X1121962D01*
X1119666Y-212186D01*
X1133441D02*
X1135737Y-209890D01*
X1140329D01*
X1142624Y-212186D01*
Y-221370D01*
X1140329Y-223665D01*
X1135737D01*
X1133441Y-221370D01*
Y-212186D01*
X1156400Y-223665D02*
X1147216D01*
X1156400Y-214482D01*
Y-212186D01*
X1154104Y-209890D01*
X1149512D01*
X1147216Y-212186D01*
X1160991D02*
X1163287Y-209890D01*
X1167879D01*
X1170175Y-212186D01*
Y-221370D01*
X1167879Y-223665D01*
X1163287D01*
X1160991Y-221370D01*
Y-212186D01*
X1039506Y-132331D02*
X1031110D01*
Y-138628D01*
X1035308D01*
X1031110D01*
Y-144925D01*
X1043704Y-136529D02*
Y-144925D01*
Y-140727D01*
X1045803Y-138628D01*
X1047902Y-136529D01*
X1050002D01*
X1056299Y-144925D02*
X1060497D01*
X1058398D01*
Y-136529D01*
X1056299D01*
X1066794Y-134430D02*
X1068893Y-132331D01*
X1073091D01*
X1075190Y-134430D01*
Y-136529D01*
X1073091Y-138628D01*
X1070992D01*
X1073091D01*
X1075190Y-140727D01*
Y-142826D01*
X1073091Y-144925D01*
X1068893D01*
X1066794Y-142826D01*
X1079388Y-132331D02*
Y-144925D01*
X1085686D01*
X1087784Y-142826D01*
Y-134430D01*
X1085686Y-132331D01*
X1079388D01*
X1112973Y-144925D02*
X1104577D01*
X1112973Y-136529D01*
Y-134430D01*
X1110874Y-132331D01*
X1106676D01*
X1104577Y-134430D01*
X1117171D02*
X1119270Y-132331D01*
X1123469D01*
X1125568Y-134430D01*
Y-142826D01*
X1123469Y-144925D01*
X1119270D01*
X1117171Y-142826D01*
Y-134430D01*
X1138162Y-144925D02*
X1129766D01*
X1138162Y-136529D01*
Y-134430D01*
X1136063Y-132331D01*
X1131865D01*
X1129766Y-134430D01*
X1142360D02*
X1144459Y-132331D01*
X1148657D01*
X1150756Y-134430D01*
Y-142826D01*
X1148657Y-144925D01*
X1144459D01*
X1142360Y-142826D01*
Y-134430D01*
X1175945D02*
X1173846Y-132331D01*
X1169648D01*
X1167549Y-134430D01*
Y-142826D01*
X1169648Y-144925D01*
X1173846D01*
X1175945Y-142826D01*
Y-138628D01*
X1171747D01*
X1182242Y-136529D02*
X1186440D01*
X1188539Y-138628D01*
Y-144925D01*
X1182242D01*
X1180143Y-142826D01*
X1182242Y-140727D01*
X1188539D01*
X1192737Y-144925D02*
Y-136529D01*
X1194837D01*
X1196936Y-138628D01*
Y-144925D01*
Y-138628D01*
X1199035Y-136529D01*
X1201134Y-138628D01*
Y-144925D01*
X1211629D02*
X1207431D01*
X1205332Y-142826D01*
Y-138628D01*
X1207431Y-136529D01*
X1211629D01*
X1213728Y-138628D01*
Y-140727D01*
X1205332D01*
X1224223Y-132331D02*
X1220025D01*
X1217926Y-134430D01*
Y-142826D01*
X1220025Y-144925D01*
X1224223D01*
X1226322Y-142826D01*
Y-134430D01*
X1224223Y-132331D01*
X1230521Y-144925D02*
Y-136529D01*
X1236818D01*
X1238917Y-138628D01*
Y-144925D01*
D15*
X19685Y196850D02*
G03*
X0Y177165I-0J-19685D01*
G01*
X354331D02*
G03*
X334646Y196850I-19685J0D01*
G01*
Y0D02*
G03*
X354331Y19685I-0J19685D01*
G01*
X0Y19685D02*
G03*
X19685Y0I19685J0D01*
G01*
X334646D01*
X354331Y19685D02*
Y177165D01*
X19685Y196850D02*
X334646D01*
X0Y19685D02*
Y177165D01*
D16*
X174040Y74976D02*
G03*
X181111Y72047I7071J7071D01*
G01*
X167323Y81693D02*
X174040Y74976D01*
X181111Y72047D02*
X196653D01*
X1182685Y-202012D02*
Y-194141D01*
X1186621D01*
X1187932Y-195452D01*
Y-198076D01*
X1186621Y-199388D01*
X1182685D01*
X1185308D02*
X1187932Y-202012D01*
X1194492D02*
X1191868D01*
X1190556Y-200700D01*
Y-198076D01*
X1191868Y-196764D01*
X1194492D01*
X1195804Y-198076D01*
Y-199388D01*
X1190556D01*
X1198428Y-196764D02*
X1201052Y-202012D01*
X1203675Y-196764D01*
X828354Y-233511D02*
Y-241382D01*
X832290D01*
X833602Y-240070D01*
Y-234823D01*
X832290Y-233511D01*
X828354D01*
X840161Y-241382D02*
X837537D01*
X836226Y-240070D01*
Y-237446D01*
X837537Y-236134D01*
X840161D01*
X841473Y-237446D01*
Y-238758D01*
X836226D01*
X844097Y-241382D02*
X848033D01*
X849345Y-240070D01*
X848033Y-238758D01*
X845409D01*
X844097Y-237446D01*
X845409Y-236134D01*
X849345D01*
X854592Y-244006D02*
X855904D01*
X857216Y-242694D01*
Y-236134D01*
X853280D01*
X851968Y-237446D01*
Y-240070D01*
X853280Y-241382D01*
X857216D01*
X859840D02*
X862464D01*
X861152D01*
Y-236134D01*
X859840D01*
X866399Y-241382D02*
Y-236134D01*
X870335D01*
X871647Y-237446D01*
Y-241382D01*
X878207D02*
X875583D01*
X874271Y-240070D01*
Y-237446D01*
X875583Y-236134D01*
X878207D01*
X879519Y-237446D01*
Y-238758D01*
X874271D01*
X882143Y-236134D02*
Y-241382D01*
Y-238758D01*
X883454Y-237446D01*
X884766Y-236134D01*
X886078D01*
X1025204Y-115400D02*
Y-123272D01*
X1029140D01*
X1030452Y-121960D01*
Y-116712D01*
X1029140Y-115400D01*
X1025204D01*
X1034388Y-123272D02*
X1037012D01*
X1038323Y-121960D01*
Y-119336D01*
X1037012Y-118024D01*
X1034388D01*
X1033076Y-119336D01*
Y-121960D01*
X1034388Y-123272D01*
X1046195Y-118024D02*
X1042259D01*
X1040947Y-119336D01*
Y-121960D01*
X1042259Y-123272D01*
X1046195D01*
X1048819Y-118024D02*
Y-121960D01*
X1050131Y-123272D01*
X1054066D01*
Y-118024D01*
X1056690Y-123272D02*
Y-118024D01*
X1058002D01*
X1059314Y-119336D01*
Y-123272D01*
Y-119336D01*
X1060626Y-118024D01*
X1061938Y-119336D01*
Y-123272D01*
X1068498D02*
X1065874D01*
X1064562Y-121960D01*
Y-119336D01*
X1065874Y-118024D01*
X1068498D01*
X1069810Y-119336D01*
Y-120648D01*
X1064562D01*
X1072433Y-123272D02*
Y-118024D01*
X1076369D01*
X1077681Y-119336D01*
Y-123272D01*
X1081617Y-116712D02*
Y-118024D01*
X1080305D01*
X1082929D01*
X1081617D01*
Y-121960D01*
X1082929Y-123272D01*
X1025204Y-154770D02*
Y-162642D01*
X1030452D01*
X1034388Y-157394D02*
X1037012D01*
X1038323Y-158706D01*
Y-162642D01*
X1034388D01*
X1033076Y-161330D01*
X1034388Y-160018D01*
X1038323D01*
X1040947Y-157394D02*
Y-161330D01*
X1042259Y-162642D01*
X1046195D01*
Y-163954D01*
X1044883Y-165266D01*
X1043571D01*
X1046195Y-162642D02*
Y-157394D01*
X1052755Y-162642D02*
X1050131D01*
X1048819Y-161330D01*
Y-158706D01*
X1050131Y-157394D01*
X1052755D01*
X1054066Y-158706D01*
Y-160018D01*
X1048819D01*
X1056690Y-157394D02*
Y-162642D01*
Y-160018D01*
X1058002Y-158706D01*
X1059314Y-157394D01*
X1060626D01*
X1072433Y-162642D02*
Y-154770D01*
X1077681Y-162642D01*
Y-154770D01*
X1081617Y-157394D02*
X1084241D01*
X1085552Y-158706D01*
Y-162642D01*
X1081617D01*
X1080305Y-161330D01*
X1081617Y-160018D01*
X1085552D01*
X1088176Y-162642D02*
Y-157394D01*
X1089488D01*
X1090800Y-158706D01*
Y-162642D01*
Y-158706D01*
X1092112Y-157394D01*
X1093424Y-158706D01*
Y-162642D01*
X1099984D02*
X1097360D01*
X1096048Y-161330D01*
Y-158706D01*
X1097360Y-157394D01*
X1099984D01*
X1101295Y-158706D01*
Y-160018D01*
X1096048D01*
X1025204Y-194141D02*
Y-202012D01*
X1029140D01*
X1030452Y-200700D01*
Y-195452D01*
X1029140Y-194141D01*
X1025204D01*
X1034388Y-196764D02*
X1037012D01*
X1038323Y-198076D01*
Y-202012D01*
X1034388D01*
X1033076Y-200700D01*
X1034388Y-199388D01*
X1038323D01*
X1042259Y-195452D02*
Y-196764D01*
X1040947D01*
X1043571D01*
X1042259D01*
Y-200700D01*
X1043571Y-202012D01*
X1051443D02*
X1048819D01*
X1047507Y-200700D01*
Y-198076D01*
X1048819Y-196764D01*
X1051443D01*
X1052755Y-198076D01*
Y-199388D01*
X1047507D01*
X1025204Y-233511D02*
Y-241382D01*
X1029140D01*
X1030452Y-240070D01*
Y-234823D01*
X1029140Y-233511D01*
X1025204D01*
X1034388Y-241382D02*
X1037012D01*
X1038323Y-240070D01*
Y-237446D01*
X1037012Y-236134D01*
X1034388D01*
X1033076Y-237446D01*
Y-240070D01*
X1034388Y-241382D01*
X1046195Y-236134D02*
X1042259D01*
X1040947Y-237446D01*
Y-240070D01*
X1042259Y-241382D01*
X1046195D01*
X1048819Y-236134D02*
Y-240070D01*
X1050131Y-241382D01*
X1054066D01*
Y-236134D01*
X1056690Y-241382D02*
Y-236134D01*
X1058002D01*
X1059314Y-237446D01*
Y-241382D01*
Y-237446D01*
X1060626Y-236134D01*
X1061938Y-237446D01*
Y-241382D01*
X1068498D02*
X1065874D01*
X1064562Y-240070D01*
Y-237446D01*
X1065874Y-236134D01*
X1068498D01*
X1069810Y-237446D01*
Y-238758D01*
X1064562D01*
X1072433Y-241382D02*
Y-236134D01*
X1076369D01*
X1077681Y-237446D01*
Y-241382D01*
X1081617Y-234823D02*
Y-236134D01*
X1080305D01*
X1082929D01*
X1081617D01*
Y-240070D01*
X1082929Y-241382D01*
D42*
X125984Y177953D02*
D03*
X228346D02*
D03*
X266590Y68118D02*
D03*
X284591D02*
D03*
Y42118D02*
D03*
X266590D02*
D03*
X148480Y48433D02*
D03*
X166480D02*
D03*
Y22433D02*
D03*
X148480D02*
D03*
X187850Y48433D02*
D03*
X205850D02*
D03*
Y22433D02*
D03*
X187850D02*
D03*
X227221Y48433D02*
D03*
X245220D02*
D03*
Y22433D02*
D03*
X227221D02*
D03*
X99016Y51772D02*
D03*
X58465D02*
D03*
D44*
X41339Y71850D02*
D03*
D49*
X196653Y62205D02*
G03*
X199803Y59055I3150J0D01*
G01*
X196653Y62205D02*
Y72047D01*
X200787Y59055D02*
X203740D01*
X199803D02*
X200787D01*
X196653Y72047D02*
Y75197D01*
D51*
X70866Y184488D02*
D03*
X283465D02*
D03*
D52*
X283071Y166339D02*
D03*
X71260D02*
D03*
D53*
X53937Y99410D02*
D03*
X9055D02*
D03*
D54*
X41339Y128937D02*
D03*
X21654D02*
D03*
X31496D02*
D03*
X21654Y71850D02*
D03*
D55*
X224410Y68622D02*
D03*
X306772Y47244D02*
D03*
X316772D02*
D03*
X326772D02*
D03*
D56*
X224410Y78622D02*
D03*
D57*
X336772Y47244D02*
D03*
D58*
X19685Y19685D02*
D03*
X334646Y19685D02*
D03*
X334646Y177165D02*
D03*
X19685Y177165D02*
D03*
D59*
X58465Y40748D02*
D03*
X99016D02*
D03*
Y66339D02*
D03*
D60*
X58465D02*
D03*
D61*
X193504Y76673D02*
D03*
X155118Y83661D02*
D03*
X283465Y154528D02*
D03*
X70866Y153543D02*
D03*
X254665Y143110D02*
D03*
X249665D02*
D03*
X200787Y59055D02*
D03*
X196653Y72047D02*
D03*
X203740Y59055D02*
D03*
X167323Y81693D02*
D03*
X196653Y75197D02*
D03*
X218307Y72047D02*
D03*
Y75197D02*
D03*
X334449Y116732D02*
D03*
Y128543D02*
D03*
X290748Y119095D02*
D03*
X302559D02*
D03*
X334449Y66732D02*
D03*
Y54921D02*
D03*
X290748Y60433D02*
D03*
X302559D02*
D03*
X299803Y78937D02*
D03*
X269488Y87008D02*
D03*
Y90158D02*
D03*
D62*
X59055Y145669D02*
D03*
X295276D02*
D03*
M02*
