G04*
G04 #@! TF.GenerationSoftware,Altium Limited,Altium Designer,20.0.13 (296)*
G04*
G04 Layer_Color=128*
%FSLAX25Y25*%
%MOIN*%
G70*
G01*
G75*
%ADD12C,0.00787*%
%ADD14C,0.01575*%
%ADD15C,0.00394*%
%ADD16C,0.00984*%
%ADD62C,0.04724*%
G36*
X300667Y-141778D02*
X298949D01*
Y-142065D01*
X298090D01*
Y-142351D01*
X297231D01*
Y-142637D01*
X296373D01*
Y-142924D01*
X295800D01*
Y-143210D01*
X295514D01*
Y-143496D01*
X294941D01*
Y-143783D01*
X294655D01*
Y-144069D01*
X294082D01*
Y-144355D01*
X293796D01*
Y-144641D01*
X293509D01*
Y-144928D01*
X293223D01*
Y-145214D01*
X292937D01*
Y-145501D01*
X292650D01*
Y-145787D01*
X292364D01*
Y-146073D01*
Y-146359D01*
X292078D01*
Y-146646D01*
X291792D01*
Y-146932D01*
Y-147218D01*
X291505D01*
Y-147505D01*
X291219D01*
Y-147791D01*
Y-148077D01*
X290932D01*
Y-148364D01*
Y-148650D01*
Y-148936D01*
X290646D01*
Y-149223D01*
Y-149509D01*
Y-149795D01*
X290360D01*
Y-150082D01*
Y-150368D01*
Y-150654D01*
Y-150940D01*
X290074D01*
Y-151227D01*
Y-151513D01*
Y-151799D01*
Y-152086D01*
Y-152372D01*
X289787D01*
Y-152658D01*
Y-152945D01*
Y-153231D01*
Y-153517D01*
Y-153804D01*
Y-154090D01*
Y-154376D01*
Y-154663D01*
Y-154949D01*
Y-155235D01*
Y-155521D01*
Y-155808D01*
Y-156094D01*
Y-156380D01*
Y-156667D01*
Y-156953D01*
Y-157239D01*
Y-157526D01*
Y-157812D01*
Y-158098D01*
X290074D01*
Y-158385D01*
Y-158671D01*
Y-158957D01*
Y-159244D01*
Y-159530D01*
Y-159816D01*
Y-160102D01*
X290360D01*
Y-160389D01*
Y-160675D01*
Y-160961D01*
Y-161248D01*
Y-161534D01*
X290646D01*
Y-161820D01*
Y-162107D01*
Y-162393D01*
Y-162679D01*
Y-162966D01*
X290932D01*
Y-163252D01*
Y-163538D01*
Y-163824D01*
X291219D01*
Y-164111D01*
Y-164397D01*
Y-164683D01*
Y-164970D01*
X291505D01*
Y-165256D01*
Y-165542D01*
Y-165829D01*
X291792D01*
Y-166115D01*
Y-166401D01*
X292078D01*
Y-166688D01*
Y-166974D01*
Y-167260D01*
X292364D01*
Y-167547D01*
Y-167833D01*
X292650D01*
Y-168119D01*
Y-168405D01*
X292937D01*
Y-168692D01*
Y-168978D01*
X293223D01*
Y-169264D01*
X293509D01*
Y-169551D01*
Y-169837D01*
X293796D01*
Y-170123D01*
X294082D01*
Y-170410D01*
X294368D01*
Y-170696D01*
Y-170982D01*
X294655D01*
Y-171269D01*
X294941D01*
Y-171555D01*
X295227D01*
Y-171841D01*
X295514D01*
Y-172127D01*
X295800D01*
Y-172414D01*
X296373D01*
Y-172700D01*
X296659D01*
Y-172986D01*
X297231D01*
Y-173273D01*
X297518D01*
Y-173559D01*
X298090D01*
Y-173845D01*
X298949D01*
Y-174132D01*
X299808D01*
Y-174418D01*
X300667D01*
Y-174704D01*
X302385D01*
Y-174991D01*
X307539D01*
Y-174704D01*
X310116D01*
Y-174418D01*
X312120D01*
Y-174132D01*
X313551D01*
Y-173845D01*
X314983D01*
Y-173559D01*
X316414D01*
Y-173845D01*
Y-174132D01*
Y-174418D01*
Y-174704D01*
Y-174991D01*
Y-175277D01*
Y-175563D01*
X316701D01*
Y-175850D01*
Y-176136D01*
Y-176422D01*
Y-176709D01*
Y-176995D01*
Y-177281D01*
X316987D01*
Y-177568D01*
Y-177854D01*
Y-178140D01*
Y-178426D01*
Y-178713D01*
Y-178999D01*
X317273D01*
Y-179285D01*
Y-179572D01*
Y-179858D01*
Y-180144D01*
Y-180431D01*
Y-180717D01*
Y-181003D01*
X317560D01*
Y-181290D01*
Y-181576D01*
Y-181862D01*
Y-182149D01*
Y-182435D01*
Y-182721D01*
X317846D01*
Y-183007D01*
Y-183294D01*
Y-183580D01*
Y-183866D01*
Y-184153D01*
Y-184439D01*
X318132D01*
Y-184725D01*
Y-185012D01*
Y-185298D01*
Y-185584D01*
Y-185871D01*
Y-186157D01*
Y-186443D01*
X318419D01*
Y-186730D01*
Y-187016D01*
Y-187302D01*
Y-187588D01*
Y-187875D01*
Y-188161D01*
X318705D01*
Y-188447D01*
Y-188734D01*
Y-189020D01*
Y-189306D01*
Y-189593D01*
Y-189879D01*
X318991D01*
Y-190165D01*
Y-190452D01*
Y-190738D01*
Y-191024D01*
Y-191311D01*
Y-191597D01*
Y-191883D01*
X332448D01*
Y-191597D01*
X332162D01*
Y-191311D01*
Y-191024D01*
Y-190738D01*
Y-190452D01*
Y-190165D01*
X331875D01*
Y-189879D01*
Y-189593D01*
Y-189306D01*
Y-189020D01*
Y-188734D01*
Y-188447D01*
Y-188161D01*
X331589D01*
Y-187875D01*
Y-187588D01*
Y-187302D01*
Y-187016D01*
Y-186730D01*
Y-186443D01*
X331303D01*
Y-186157D01*
Y-185871D01*
Y-185584D01*
Y-185298D01*
Y-185012D01*
Y-184725D01*
X331016D01*
Y-184439D01*
Y-184153D01*
Y-183866D01*
Y-183580D01*
Y-183294D01*
Y-183007D01*
Y-182721D01*
X330730D01*
Y-182435D01*
Y-182149D01*
Y-181862D01*
Y-181576D01*
Y-181290D01*
Y-181003D01*
X330444D01*
Y-180717D01*
Y-180431D01*
Y-180144D01*
Y-179858D01*
Y-179572D01*
Y-179285D01*
X330157D01*
Y-178999D01*
Y-178713D01*
Y-178426D01*
Y-178140D01*
Y-177854D01*
Y-177568D01*
X329871D01*
Y-177281D01*
Y-176995D01*
Y-176709D01*
Y-176422D01*
Y-176136D01*
Y-175850D01*
Y-175563D01*
X329585D01*
Y-175277D01*
Y-174991D01*
Y-174704D01*
Y-174418D01*
Y-174132D01*
Y-173845D01*
X329298D01*
Y-173559D01*
Y-173273D01*
Y-172986D01*
Y-172700D01*
Y-172414D01*
Y-172127D01*
X329012D01*
Y-171841D01*
Y-171555D01*
Y-171269D01*
Y-170982D01*
Y-170696D01*
Y-170410D01*
X328726D01*
Y-170123D01*
Y-169837D01*
Y-169551D01*
Y-169264D01*
Y-168978D01*
Y-168692D01*
Y-168405D01*
X328439D01*
Y-168119D01*
Y-167833D01*
Y-167547D01*
Y-167260D01*
Y-166974D01*
Y-166688D01*
X328153D01*
Y-166401D01*
Y-166115D01*
Y-165829D01*
Y-165542D01*
Y-165256D01*
Y-164970D01*
X327867D01*
Y-164683D01*
Y-164397D01*
Y-164111D01*
Y-163824D01*
Y-163538D01*
Y-163252D01*
Y-162966D01*
X327581D01*
Y-162679D01*
Y-162393D01*
Y-162107D01*
Y-161820D01*
Y-161534D01*
Y-161248D01*
X327294D01*
Y-160961D01*
Y-160675D01*
Y-160389D01*
Y-160102D01*
Y-159816D01*
Y-159530D01*
X327008D01*
Y-159244D01*
Y-158957D01*
Y-158671D01*
Y-158385D01*
Y-158098D01*
Y-157812D01*
X326722D01*
Y-157526D01*
Y-157239D01*
Y-156953D01*
Y-156667D01*
Y-156380D01*
Y-156094D01*
Y-155808D01*
X326435D01*
Y-155521D01*
Y-155235D01*
Y-154949D01*
Y-154663D01*
Y-154376D01*
Y-154090D01*
X326149D01*
Y-153804D01*
Y-153517D01*
Y-153231D01*
Y-152945D01*
Y-152658D01*
Y-152372D01*
X325863D01*
Y-152086D01*
Y-151799D01*
Y-151513D01*
Y-151227D01*
Y-150940D01*
Y-150654D01*
Y-150368D01*
X325576D01*
Y-150082D01*
Y-149795D01*
Y-149509D01*
Y-149223D01*
Y-148936D01*
Y-148650D01*
X325290D01*
Y-148364D01*
Y-148077D01*
Y-147791D01*
Y-147505D01*
Y-147218D01*
Y-146932D01*
X325004D01*
Y-146646D01*
Y-146359D01*
Y-146073D01*
Y-145787D01*
Y-145501D01*
Y-145214D01*
Y-144928D01*
X324717D01*
Y-144641D01*
Y-144355D01*
Y-144069D01*
Y-143783D01*
Y-143496D01*
Y-143210D01*
X324431D01*
Y-142924D01*
Y-142637D01*
Y-142351D01*
Y-142065D01*
Y-141778D01*
Y-141492D01*
X300667D01*
Y-141778D01*
D02*
G37*
G36*
X269459Y-138343D02*
Y-138629D01*
X269745D01*
Y-138915D01*
Y-139202D01*
Y-139488D01*
Y-139774D01*
Y-140060D01*
Y-140347D01*
X270032D01*
Y-140633D01*
Y-140919D01*
Y-141206D01*
Y-141492D01*
Y-141778D01*
Y-142065D01*
X270318D01*
Y-142351D01*
Y-142637D01*
Y-142924D01*
Y-143210D01*
Y-143496D01*
Y-143783D01*
Y-144069D01*
X270604D01*
Y-144355D01*
Y-144641D01*
Y-144928D01*
Y-145214D01*
Y-145501D01*
Y-145787D01*
X270891D01*
Y-146073D01*
Y-146359D01*
Y-146646D01*
Y-146932D01*
Y-147218D01*
Y-147505D01*
X271177D01*
Y-147791D01*
Y-148077D01*
Y-148364D01*
Y-148650D01*
Y-148936D01*
Y-149223D01*
Y-149509D01*
X271463D01*
Y-149795D01*
Y-150082D01*
Y-150368D01*
Y-150654D01*
Y-150940D01*
Y-151227D01*
X271750D01*
Y-151513D01*
Y-151799D01*
Y-152086D01*
Y-152372D01*
Y-152658D01*
Y-152945D01*
X272036D01*
Y-153231D01*
Y-153517D01*
Y-153804D01*
Y-154090D01*
Y-154376D01*
Y-154663D01*
X272322D01*
Y-154949D01*
Y-155235D01*
Y-155521D01*
Y-155808D01*
Y-156094D01*
Y-156380D01*
Y-156667D01*
X272608D01*
Y-156953D01*
Y-157239D01*
Y-157526D01*
Y-157812D01*
Y-158098D01*
Y-158385D01*
X272895D01*
Y-158671D01*
Y-158957D01*
X272322D01*
Y-158671D01*
X272036D01*
Y-158385D01*
X271750D01*
Y-158098D01*
X271177D01*
Y-157812D01*
X270891D01*
Y-157526D01*
X270604D01*
Y-157239D01*
X270032D01*
Y-156953D01*
X269459D01*
Y-156667D01*
X269173D01*
Y-156380D01*
X268600D01*
Y-156094D01*
X267741D01*
Y-155808D01*
X267169D01*
Y-155521D01*
X266310D01*
Y-155235D01*
X264878D01*
Y-154949D01*
X258579D01*
Y-155235D01*
X257434D01*
Y-155521D01*
X256575D01*
Y-155808D01*
X256002D01*
Y-156094D01*
X255716D01*
Y-156380D01*
X255143D01*
Y-156667D01*
X254857D01*
Y-156953D01*
X254571D01*
Y-157239D01*
X254285D01*
Y-157526D01*
X253998D01*
Y-157812D01*
Y-158098D01*
X253712D01*
Y-158385D01*
Y-158671D01*
X253426D01*
Y-158957D01*
Y-159244D01*
Y-159530D01*
X253139D01*
Y-159816D01*
Y-160102D01*
Y-160389D01*
Y-160675D01*
X252853D01*
Y-160961D01*
Y-161248D01*
Y-161534D01*
Y-161820D01*
Y-162107D01*
Y-162393D01*
Y-162679D01*
Y-162966D01*
Y-163252D01*
Y-163538D01*
Y-163824D01*
Y-164111D01*
Y-164397D01*
Y-164683D01*
Y-164970D01*
Y-165256D01*
Y-165542D01*
Y-165829D01*
X253139D01*
Y-166115D01*
Y-166401D01*
Y-166688D01*
Y-166974D01*
Y-167260D01*
Y-167547D01*
Y-167833D01*
X253426D01*
Y-168119D01*
Y-168405D01*
Y-168692D01*
Y-168978D01*
Y-169264D01*
Y-169551D01*
Y-169837D01*
X253712D01*
Y-170123D01*
Y-170410D01*
Y-170696D01*
Y-170982D01*
Y-171269D01*
Y-171555D01*
X253998D01*
Y-171841D01*
Y-172127D01*
Y-172414D01*
Y-172700D01*
Y-172986D01*
Y-173273D01*
X254285D01*
Y-173559D01*
Y-173845D01*
Y-174132D01*
Y-174418D01*
Y-174704D01*
Y-174991D01*
X254571D01*
Y-175277D01*
Y-175563D01*
Y-175850D01*
Y-176136D01*
Y-176422D01*
Y-176709D01*
Y-176995D01*
X254857D01*
Y-177281D01*
Y-177568D01*
Y-177854D01*
Y-178140D01*
Y-178426D01*
Y-178713D01*
X255143D01*
Y-178999D01*
Y-179285D01*
Y-179572D01*
Y-179858D01*
Y-180144D01*
Y-180431D01*
X255430D01*
Y-180717D01*
Y-181003D01*
Y-181290D01*
Y-181576D01*
Y-181862D01*
Y-182149D01*
Y-182435D01*
X255716D01*
Y-182721D01*
Y-183007D01*
Y-183294D01*
Y-183580D01*
Y-183866D01*
Y-184153D01*
X256002D01*
Y-184439D01*
Y-184725D01*
Y-185012D01*
Y-185298D01*
Y-185584D01*
Y-185871D01*
X256289D01*
Y-186157D01*
Y-186443D01*
Y-186730D01*
Y-187016D01*
Y-187302D01*
Y-187588D01*
X256575D01*
Y-187875D01*
Y-188161D01*
Y-188447D01*
Y-188734D01*
Y-189020D01*
Y-189306D01*
Y-189593D01*
X256861D01*
Y-189879D01*
Y-190165D01*
Y-190452D01*
Y-190738D01*
Y-191024D01*
Y-191311D01*
X257148D01*
Y-191597D01*
Y-191883D01*
X270318D01*
Y-191597D01*
Y-191311D01*
X270032D01*
Y-191024D01*
Y-190738D01*
Y-190452D01*
Y-190165D01*
Y-189879D01*
Y-189593D01*
X269745D01*
Y-189306D01*
Y-189020D01*
Y-188734D01*
Y-188447D01*
Y-188161D01*
Y-187875D01*
Y-187588D01*
X269459D01*
Y-187302D01*
Y-187016D01*
Y-186730D01*
Y-186443D01*
Y-186157D01*
Y-185871D01*
X269173D01*
Y-185584D01*
Y-185298D01*
Y-185012D01*
Y-184725D01*
Y-184439D01*
Y-184153D01*
X268886D01*
Y-183866D01*
Y-183580D01*
Y-183294D01*
Y-183007D01*
Y-182721D01*
Y-182435D01*
Y-182149D01*
X268600D01*
Y-181862D01*
Y-181576D01*
Y-181290D01*
Y-181003D01*
Y-180717D01*
Y-180431D01*
X268314D01*
Y-180144D01*
Y-179858D01*
Y-179572D01*
Y-179285D01*
Y-178999D01*
Y-178713D01*
Y-178426D01*
X268027D01*
Y-178140D01*
Y-177854D01*
Y-177568D01*
Y-177281D01*
Y-176995D01*
Y-176709D01*
X267741D01*
Y-176422D01*
Y-176136D01*
Y-175850D01*
Y-175563D01*
Y-175277D01*
Y-174991D01*
X267455D01*
Y-174704D01*
Y-174418D01*
Y-174132D01*
Y-173845D01*
Y-173559D01*
Y-173273D01*
X267169D01*
Y-172986D01*
Y-172700D01*
Y-172414D01*
Y-172127D01*
Y-171841D01*
Y-171555D01*
Y-171269D01*
X266882D01*
Y-170982D01*
Y-170696D01*
Y-170410D01*
Y-170123D01*
Y-169837D01*
Y-169551D01*
X266596D01*
Y-169264D01*
Y-168978D01*
Y-168692D01*
Y-168405D01*
Y-168119D01*
Y-167833D01*
Y-167547D01*
X266310D01*
Y-167260D01*
Y-166974D01*
Y-166688D01*
Y-166401D01*
Y-166115D01*
Y-165829D01*
X266596D01*
Y-165542D01*
Y-165256D01*
X266882D01*
Y-164970D01*
X267169D01*
Y-164683D01*
X267741D01*
Y-164397D01*
X269459D01*
Y-164683D01*
X270891D01*
Y-164970D01*
X271750D01*
Y-165256D01*
X272322D01*
Y-165542D01*
X272608D01*
Y-165829D01*
X273181D01*
Y-166115D01*
X273467D01*
Y-166401D01*
X273754D01*
Y-166688D01*
Y-166974D01*
X274040D01*
Y-167260D01*
Y-167547D01*
Y-167833D01*
X274326D01*
Y-168119D01*
Y-168405D01*
Y-168692D01*
Y-168978D01*
Y-169264D01*
Y-169551D01*
X274613D01*
Y-169837D01*
Y-170123D01*
Y-170410D01*
Y-170696D01*
Y-170982D01*
Y-171269D01*
Y-171555D01*
X274899D01*
Y-171841D01*
Y-172127D01*
Y-172414D01*
Y-172700D01*
Y-172986D01*
Y-173273D01*
X275185D01*
Y-173559D01*
Y-173845D01*
Y-174132D01*
Y-174418D01*
Y-174704D01*
Y-174991D01*
X275472D01*
Y-175277D01*
Y-175563D01*
Y-175850D01*
Y-176136D01*
Y-176422D01*
Y-176709D01*
X275758D01*
Y-176995D01*
Y-177281D01*
Y-177568D01*
Y-177854D01*
Y-178140D01*
Y-178426D01*
Y-178713D01*
X276044D01*
Y-178999D01*
Y-179285D01*
Y-179572D01*
Y-179858D01*
Y-180144D01*
Y-180431D01*
X276331D01*
Y-180717D01*
Y-181003D01*
Y-181290D01*
Y-181576D01*
Y-181862D01*
Y-182149D01*
X276617D01*
Y-182435D01*
Y-182721D01*
Y-183007D01*
Y-183294D01*
Y-183580D01*
Y-183866D01*
Y-184153D01*
X276903D01*
Y-184439D01*
Y-184725D01*
Y-185012D01*
Y-185298D01*
Y-185584D01*
Y-185871D01*
X277189D01*
Y-186157D01*
Y-186443D01*
Y-186730D01*
Y-187016D01*
Y-187302D01*
Y-187588D01*
X277476D01*
Y-187875D01*
Y-188161D01*
Y-188447D01*
Y-188734D01*
Y-189020D01*
Y-189306D01*
X277762D01*
Y-189593D01*
Y-189879D01*
Y-190165D01*
Y-190452D01*
Y-190738D01*
Y-191024D01*
Y-191311D01*
X278048D01*
Y-191597D01*
Y-191883D01*
X291219D01*
Y-191597D01*
Y-191311D01*
X290932D01*
Y-191024D01*
Y-190738D01*
Y-190452D01*
Y-190165D01*
Y-189879D01*
Y-189593D01*
Y-189306D01*
X290646D01*
Y-189020D01*
Y-188734D01*
Y-188447D01*
Y-188161D01*
Y-187875D01*
Y-187588D01*
X290360D01*
Y-187302D01*
Y-187016D01*
Y-186730D01*
Y-186443D01*
Y-186157D01*
Y-185871D01*
X290074D01*
Y-185584D01*
Y-185298D01*
Y-185012D01*
Y-184725D01*
Y-184439D01*
Y-184153D01*
Y-183866D01*
X289787D01*
Y-183580D01*
Y-183294D01*
Y-183007D01*
Y-182721D01*
Y-182435D01*
Y-182149D01*
X289501D01*
Y-181862D01*
Y-181576D01*
Y-181290D01*
Y-181003D01*
Y-180717D01*
Y-180431D01*
X289215D01*
Y-180144D01*
Y-179858D01*
Y-179572D01*
Y-179285D01*
Y-178999D01*
Y-178713D01*
X288928D01*
Y-178426D01*
Y-178140D01*
Y-177854D01*
Y-177568D01*
Y-177281D01*
Y-176995D01*
Y-176709D01*
X288642D01*
Y-176422D01*
Y-176136D01*
Y-175850D01*
Y-175563D01*
Y-175277D01*
Y-174991D01*
X288356D01*
Y-174704D01*
Y-174418D01*
Y-174132D01*
Y-173845D01*
Y-173559D01*
Y-173273D01*
X288069D01*
Y-172986D01*
Y-172700D01*
Y-172414D01*
Y-172127D01*
Y-171841D01*
Y-171555D01*
Y-171269D01*
X287783D01*
Y-170982D01*
Y-170696D01*
Y-170410D01*
Y-170123D01*
Y-169837D01*
Y-169551D01*
X287497D01*
Y-169264D01*
Y-168978D01*
Y-168692D01*
Y-168405D01*
Y-168119D01*
Y-167833D01*
X287210D01*
Y-167547D01*
Y-167260D01*
Y-166974D01*
Y-166688D01*
Y-166401D01*
Y-166115D01*
X286924D01*
Y-165829D01*
Y-165542D01*
Y-165256D01*
Y-164970D01*
Y-164683D01*
Y-164397D01*
Y-164111D01*
X286638D01*
Y-163824D01*
Y-163538D01*
Y-163252D01*
Y-162966D01*
Y-162679D01*
Y-162393D01*
X286351D01*
Y-162107D01*
Y-161820D01*
Y-161534D01*
Y-161248D01*
Y-160961D01*
Y-160675D01*
X286065D01*
Y-160389D01*
Y-160102D01*
Y-159816D01*
Y-159530D01*
Y-159244D01*
Y-158957D01*
X285779D01*
Y-158671D01*
Y-158385D01*
Y-158098D01*
Y-157812D01*
Y-157526D01*
Y-157239D01*
Y-156953D01*
X285493D01*
Y-156667D01*
Y-156380D01*
Y-156094D01*
Y-155808D01*
Y-155521D01*
Y-155235D01*
X285206D01*
Y-154949D01*
Y-154663D01*
Y-154376D01*
Y-154090D01*
Y-153804D01*
Y-153517D01*
X284920D01*
Y-153231D01*
Y-152945D01*
Y-152658D01*
Y-152372D01*
Y-152086D01*
Y-151799D01*
Y-151513D01*
X284634D01*
Y-151227D01*
Y-150940D01*
Y-150654D01*
Y-150368D01*
Y-150082D01*
Y-149795D01*
X284347D01*
Y-149509D01*
Y-149223D01*
Y-148936D01*
Y-148650D01*
Y-148364D01*
Y-148077D01*
X284061D01*
Y-147791D01*
Y-147505D01*
Y-147218D01*
Y-146932D01*
Y-146646D01*
Y-146359D01*
X283775D01*
Y-146073D01*
Y-145787D01*
Y-145501D01*
Y-145214D01*
Y-144928D01*
Y-144641D01*
Y-144355D01*
X283488D01*
Y-144069D01*
Y-143783D01*
Y-143496D01*
Y-143210D01*
Y-142924D01*
Y-142637D01*
X283202D01*
Y-142351D01*
Y-142065D01*
Y-141778D01*
Y-141492D01*
Y-141206D01*
Y-140919D01*
X282916D01*
Y-140633D01*
Y-140347D01*
Y-140060D01*
Y-139774D01*
Y-139488D01*
Y-139202D01*
Y-138915D01*
X282629D01*
Y-138629D01*
Y-138343D01*
Y-138056D01*
X269459D01*
Y-138343D01*
D02*
G37*
G36*
X167532Y-155808D02*
X167818D01*
Y-156094D01*
X168104D01*
Y-156380D01*
Y-156667D01*
X168391D01*
Y-156953D01*
X168677D01*
Y-157239D01*
X168963D01*
Y-157526D01*
Y-157812D01*
X169250D01*
Y-158098D01*
X169536D01*
Y-158385D01*
X169822D01*
Y-158671D01*
X170108D01*
Y-158957D01*
Y-159244D01*
X170395D01*
Y-159530D01*
X170681D01*
Y-159816D01*
X170967D01*
Y-160102D01*
Y-160389D01*
X171254D01*
Y-160675D01*
X171540D01*
Y-160961D01*
X171826D01*
Y-161248D01*
X172113D01*
Y-161534D01*
Y-161820D01*
X172399D01*
Y-162107D01*
X172685D01*
Y-162393D01*
X172972D01*
Y-162679D01*
Y-162966D01*
X173258D01*
Y-163252D01*
X173544D01*
Y-163538D01*
X173831D01*
Y-163824D01*
Y-164111D01*
X174117D01*
Y-164397D01*
X174403D01*
Y-164683D01*
X174689D01*
Y-164970D01*
X174976D01*
Y-165256D01*
Y-165542D01*
X175262D01*
Y-165829D01*
X175549D01*
Y-166115D01*
X175835D01*
Y-166401D01*
Y-166688D01*
X176121D01*
Y-166974D01*
X176407D01*
Y-167260D01*
X176694D01*
Y-167547D01*
Y-167833D01*
X176980D01*
Y-168119D01*
X177266D01*
Y-168405D01*
X177553D01*
Y-168692D01*
X177839D01*
Y-168978D01*
Y-169264D01*
X178125D01*
Y-169551D01*
X178412D01*
Y-169837D01*
X178698D01*
Y-170123D01*
Y-170410D01*
X178984D01*
Y-170696D01*
X179271D01*
Y-170982D01*
X179557D01*
Y-171269D01*
Y-171555D01*
X179843D01*
Y-171841D01*
X180130D01*
Y-172127D01*
X180416D01*
Y-172414D01*
X180702D01*
Y-172700D01*
Y-172986D01*
X180988D01*
Y-173273D01*
X181275D01*
Y-173559D01*
X181561D01*
Y-173845D01*
Y-174132D01*
X181847D01*
Y-174418D01*
X182134D01*
Y-174704D01*
X182420D01*
Y-174991D01*
X182706D01*
Y-175277D01*
Y-175563D01*
X182420D01*
Y-175850D01*
Y-176136D01*
X182134D01*
Y-176422D01*
Y-176709D01*
X181847D01*
Y-176995D01*
X181561D01*
Y-177281D01*
Y-177568D01*
X181275D01*
Y-177854D01*
Y-178140D01*
X180988D01*
Y-178426D01*
Y-178713D01*
X180702D01*
Y-178999D01*
Y-179285D01*
X180416D01*
Y-179572D01*
Y-179858D01*
X180130D01*
Y-180144D01*
Y-180431D01*
X179843D01*
Y-180717D01*
Y-181003D01*
X179557D01*
Y-181290D01*
Y-181576D01*
X179271D01*
Y-181862D01*
X178984D01*
Y-182149D01*
Y-182435D01*
X178698D01*
Y-182721D01*
Y-183007D01*
X178412D01*
Y-183294D01*
Y-183580D01*
X178125D01*
Y-183866D01*
Y-184153D01*
X177839D01*
Y-184439D01*
Y-184725D01*
X177553D01*
Y-185012D01*
Y-185298D01*
X177266D01*
Y-185584D01*
Y-185871D01*
X176980D01*
Y-186157D01*
X176694D01*
Y-186443D01*
Y-186730D01*
X176407D01*
Y-187016D01*
Y-187302D01*
X176121D01*
Y-187588D01*
Y-187875D01*
X175835D01*
Y-188161D01*
Y-188447D01*
X175549D01*
Y-188734D01*
Y-189020D01*
X175262D01*
Y-189306D01*
Y-189593D01*
X174976D01*
Y-189879D01*
Y-190165D01*
X174689D01*
Y-190452D01*
X174403D01*
Y-190738D01*
Y-191024D01*
X174117D01*
Y-191311D01*
Y-191597D01*
X173831D01*
Y-191883D01*
X189005D01*
Y-191597D01*
X189292D01*
Y-191311D01*
Y-191024D01*
Y-190738D01*
X189578D01*
Y-190452D01*
Y-190165D01*
Y-189879D01*
X189864D01*
Y-189593D01*
Y-189306D01*
X190150D01*
Y-189020D01*
Y-188734D01*
Y-188447D01*
X190437D01*
Y-188161D01*
Y-187875D01*
Y-187588D01*
X190723D01*
Y-187302D01*
Y-187016D01*
X191009D01*
Y-186730D01*
Y-186443D01*
Y-186157D01*
X191296D01*
Y-185871D01*
Y-185584D01*
Y-185298D01*
X191582D01*
Y-185012D01*
Y-184725D01*
Y-184439D01*
X191868D01*
Y-184153D01*
X192441D01*
Y-184439D01*
Y-184725D01*
X192727D01*
Y-185012D01*
X193014D01*
Y-185298D01*
Y-185584D01*
X193300D01*
Y-185871D01*
X193586D01*
Y-186157D01*
Y-186443D01*
X193872D01*
Y-186730D01*
X194159D01*
Y-187016D01*
Y-187302D01*
X194445D01*
Y-187588D01*
X194731D01*
Y-187875D01*
X195018D01*
Y-188161D01*
Y-188447D01*
X195304D01*
Y-188734D01*
X195590D01*
Y-189020D01*
Y-189306D01*
X195877D01*
Y-189593D01*
X196163D01*
Y-189879D01*
Y-190165D01*
X196449D01*
Y-190452D01*
X196736D01*
Y-190738D01*
Y-191024D01*
X197022D01*
Y-191311D01*
X197308D01*
Y-191597D01*
Y-191883D01*
X213342D01*
Y-191597D01*
X213055D01*
Y-191311D01*
X212769D01*
Y-191024D01*
X212483D01*
Y-190738D01*
X212196D01*
Y-190452D01*
Y-190165D01*
X211910D01*
Y-189879D01*
X211624D01*
Y-189593D01*
X211338D01*
Y-189306D01*
X211051D01*
Y-189020D01*
Y-188734D01*
X210765D01*
Y-188447D01*
X210479D01*
Y-188161D01*
X210192D01*
Y-187875D01*
Y-187588D01*
X209906D01*
Y-187302D01*
X209620D01*
Y-187016D01*
X209333D01*
Y-186730D01*
X209047D01*
Y-186443D01*
Y-186157D01*
X208761D01*
Y-185871D01*
X208474D01*
Y-185584D01*
X208188D01*
Y-185298D01*
X207902D01*
Y-185012D01*
Y-184725D01*
X207615D01*
Y-184439D01*
X207329D01*
Y-184153D01*
X207043D01*
Y-183866D01*
Y-183580D01*
X206757D01*
Y-183294D01*
X206470D01*
Y-183007D01*
X206184D01*
Y-182721D01*
X205898D01*
Y-182435D01*
Y-182149D01*
X205611D01*
Y-181862D01*
X205325D01*
Y-181576D01*
X205039D01*
Y-181290D01*
Y-181003D01*
X204752D01*
Y-180717D01*
X204466D01*
Y-180431D01*
X204180D01*
Y-180144D01*
X203893D01*
Y-179858D01*
Y-179572D01*
X203607D01*
Y-179285D01*
X203321D01*
Y-178999D01*
X203034D01*
Y-178713D01*
Y-178426D01*
X202748D01*
Y-178140D01*
X202462D01*
Y-177854D01*
X202176D01*
Y-177568D01*
X201889D01*
Y-177281D01*
Y-176995D01*
X201603D01*
Y-176709D01*
X201317D01*
Y-176422D01*
X201030D01*
Y-176136D01*
X200744D01*
Y-175850D01*
Y-175563D01*
X200458D01*
Y-175277D01*
X200171D01*
Y-174991D01*
X199885D01*
Y-174704D01*
Y-174418D01*
X199599D01*
Y-174132D01*
X199312D01*
Y-173845D01*
X199026D01*
Y-173559D01*
X198740D01*
Y-173273D01*
Y-172986D01*
X198453D01*
Y-172700D01*
Y-172414D01*
Y-172127D01*
X198740D01*
Y-171841D01*
X199026D01*
Y-171555D01*
Y-171269D01*
X199312D01*
Y-170982D01*
Y-170696D01*
X199599D01*
Y-170410D01*
Y-170123D01*
X199885D01*
Y-169837D01*
Y-169551D01*
X200171D01*
Y-169264D01*
Y-168978D01*
X200458D01*
Y-168692D01*
Y-168405D01*
X200744D01*
Y-168119D01*
X201030D01*
Y-167833D01*
Y-167547D01*
X201317D01*
Y-167260D01*
Y-166974D01*
X201603D01*
Y-166688D01*
Y-166401D01*
X201889D01*
Y-166115D01*
Y-165829D01*
X202176D01*
Y-165542D01*
Y-165256D01*
X202462D01*
Y-164970D01*
Y-164683D01*
X202748D01*
Y-164397D01*
X203034D01*
Y-164111D01*
Y-163824D01*
X203321D01*
Y-163538D01*
Y-163252D01*
X203607D01*
Y-162966D01*
Y-162679D01*
X203893D01*
Y-162393D01*
Y-162107D01*
X204180D01*
Y-161820D01*
Y-161534D01*
X204466D01*
Y-161248D01*
Y-160961D01*
X204752D01*
Y-160675D01*
Y-160389D01*
X205039D01*
Y-160102D01*
X205325D01*
Y-159816D01*
Y-159530D01*
X205611D01*
Y-159244D01*
Y-158957D01*
X205898D01*
Y-158671D01*
Y-158385D01*
X206184D01*
Y-158098D01*
Y-157812D01*
X206470D01*
Y-157526D01*
Y-157239D01*
X206757D01*
Y-156953D01*
Y-156667D01*
X207043D01*
Y-156380D01*
X207329D01*
Y-156094D01*
Y-155808D01*
X207615D01*
Y-155521D01*
X191868D01*
Y-155808D01*
X191582D01*
Y-156094D01*
Y-156380D01*
Y-156667D01*
X191296D01*
Y-156953D01*
Y-157239D01*
Y-157526D01*
X191009D01*
Y-157812D01*
Y-158098D01*
Y-158385D01*
X190723D01*
Y-158671D01*
Y-158957D01*
Y-159244D01*
X190437D01*
Y-159530D01*
Y-159816D01*
Y-160102D01*
X190150D01*
Y-160389D01*
Y-160675D01*
Y-160961D01*
X189864D01*
Y-161248D01*
Y-161534D01*
Y-161820D01*
X189578D01*
Y-162107D01*
Y-162393D01*
Y-162679D01*
X189292D01*
Y-162966D01*
Y-163252D01*
Y-163538D01*
Y-163824D01*
X188719D01*
Y-163538D01*
X188433D01*
Y-163252D01*
X188146D01*
Y-162966D01*
Y-162679D01*
X187860D01*
Y-162393D01*
X187574D01*
Y-162107D01*
Y-161820D01*
X187287D01*
Y-161534D01*
X187001D01*
Y-161248D01*
Y-160961D01*
X186715D01*
Y-160675D01*
X186428D01*
Y-160389D01*
Y-160102D01*
X186142D01*
Y-159816D01*
X185856D01*
Y-159530D01*
Y-159244D01*
X185569D01*
Y-158957D01*
X185283D01*
Y-158671D01*
Y-158385D01*
X184997D01*
Y-158098D01*
X184711D01*
Y-157812D01*
Y-157526D01*
X184424D01*
Y-157239D01*
X184138D01*
Y-156953D01*
Y-156667D01*
X183852D01*
Y-156380D01*
X183565D01*
Y-156094D01*
Y-155808D01*
X183279D01*
Y-155521D01*
X167532D01*
Y-155808D01*
D02*
G37*
G36*
X211624D02*
Y-156094D01*
Y-156380D01*
Y-156667D01*
Y-156953D01*
Y-157239D01*
Y-157526D01*
Y-157812D01*
Y-158098D01*
Y-158385D01*
Y-158671D01*
Y-158957D01*
Y-159244D01*
Y-159530D01*
Y-159816D01*
Y-160102D01*
Y-160389D01*
Y-160675D01*
Y-160961D01*
Y-161248D01*
Y-161534D01*
X211910D01*
Y-161820D01*
Y-162107D01*
Y-162393D01*
Y-162679D01*
Y-162966D01*
X212196D01*
Y-163252D01*
Y-163538D01*
Y-163824D01*
Y-164111D01*
X212483D01*
Y-164397D01*
Y-164683D01*
Y-164970D01*
Y-165256D01*
X212769D01*
Y-165542D01*
Y-165829D01*
Y-166115D01*
X213055D01*
Y-166401D01*
Y-166688D01*
Y-166974D01*
X213342D01*
Y-167260D01*
Y-167547D01*
Y-167833D01*
X213628D01*
Y-168119D01*
Y-168405D01*
Y-168692D01*
X213914D01*
Y-168978D01*
Y-169264D01*
X214201D01*
Y-169551D01*
Y-169837D01*
X214487D01*
Y-170123D01*
Y-170410D01*
Y-170696D01*
X214773D01*
Y-170982D01*
Y-171269D01*
X215060D01*
Y-171555D01*
Y-171841D01*
Y-172127D01*
X215346D01*
Y-172414D01*
Y-172700D01*
X215632D01*
Y-172986D01*
Y-173273D01*
Y-173559D01*
X215919D01*
Y-173845D01*
Y-174132D01*
X216205D01*
Y-174418D01*
Y-174704D01*
Y-174991D01*
X216491D01*
Y-175277D01*
Y-175563D01*
X216777D01*
Y-175850D01*
Y-176136D01*
Y-176422D01*
X217064D01*
Y-176709D01*
Y-176995D01*
X217350D01*
Y-177281D01*
Y-177568D01*
Y-177854D01*
X217636D01*
Y-178140D01*
Y-178426D01*
X217923D01*
Y-178713D01*
Y-178999D01*
Y-179285D01*
X218209D01*
Y-179572D01*
Y-179858D01*
X218495D01*
Y-180144D01*
Y-180431D01*
Y-180717D01*
X218782D01*
Y-181003D01*
Y-181290D01*
X219068D01*
Y-181576D01*
Y-181862D01*
Y-182149D01*
X219354D01*
Y-182435D01*
Y-182721D01*
X219641D01*
Y-183007D01*
Y-183294D01*
Y-183580D01*
X219927D01*
Y-183866D01*
Y-184153D01*
X220213D01*
Y-184439D01*
Y-184725D01*
Y-185012D01*
X220500D01*
Y-185298D01*
Y-185584D01*
X220786D01*
Y-185871D01*
Y-186157D01*
Y-186443D01*
X221072D01*
Y-186730D01*
Y-187016D01*
X221358D01*
Y-187302D01*
Y-187588D01*
Y-187875D01*
X221645D01*
Y-188161D01*
Y-188447D01*
X221931D01*
Y-188734D01*
Y-189020D01*
Y-189306D01*
X222217D01*
Y-189593D01*
Y-189879D01*
X222504D01*
Y-190165D01*
Y-190452D01*
Y-190738D01*
X222790D01*
Y-191024D01*
Y-191311D01*
X223076D01*
Y-191597D01*
Y-191883D01*
Y-192169D01*
X223363D01*
Y-192456D01*
Y-192742D01*
X223649D01*
Y-193028D01*
Y-193315D01*
X223935D01*
Y-193601D01*
Y-193887D01*
X224222D01*
Y-194174D01*
Y-194460D01*
Y-194746D01*
X224508D01*
Y-195033D01*
X224794D01*
Y-195319D01*
Y-195605D01*
Y-195891D01*
X225081D01*
Y-196178D01*
X225367D01*
Y-196464D01*
Y-196750D01*
X225653D01*
Y-197037D01*
Y-197323D01*
X225939D01*
Y-197609D01*
Y-197896D01*
X226226D01*
Y-198182D01*
Y-198468D01*
X226512D01*
Y-198755D01*
X226799D01*
Y-199041D01*
Y-199327D01*
X227085D01*
Y-199614D01*
Y-199900D01*
X227371D01*
Y-200186D01*
X227657D01*
Y-200472D01*
X227944D01*
Y-200759D01*
Y-201045D01*
X228230D01*
Y-201331D01*
X228516D01*
Y-201618D01*
Y-201904D01*
X228803D01*
Y-202190D01*
X229089D01*
Y-202477D01*
X229375D01*
Y-202763D01*
Y-203049D01*
X229662D01*
Y-203336D01*
X229948D01*
Y-203622D01*
X230234D01*
Y-203908D01*
X230521D01*
Y-204195D01*
X230807D01*
Y-204481D01*
Y-204767D01*
X231093D01*
Y-205053D01*
X231380D01*
Y-205340D01*
X231666D01*
Y-205626D01*
X231952D01*
Y-205912D01*
X232238D01*
Y-206199D01*
X232525D01*
Y-206485D01*
X232811D01*
Y-206771D01*
X233384D01*
Y-207058D01*
X233670D01*
Y-207344D01*
X233956D01*
Y-207630D01*
X234243D01*
Y-207917D01*
X234529D01*
Y-208203D01*
X235102D01*
Y-208489D01*
X235388D01*
Y-208776D01*
X235961D01*
Y-209062D01*
X236247D01*
Y-209348D01*
X236819D01*
Y-209634D01*
X237106D01*
Y-209921D01*
X237678D01*
Y-210207D01*
X238251D01*
Y-210493D01*
X238824D01*
Y-210780D01*
X239396D01*
Y-211066D01*
X239969D01*
Y-211352D01*
X240828D01*
Y-211639D01*
X241400D01*
Y-211925D01*
X242259D01*
Y-212211D01*
X243405D01*
Y-212498D01*
X244550D01*
Y-212784D01*
X246268D01*
Y-213070D01*
X248272D01*
Y-213357D01*
X248558D01*
Y-213070D01*
Y-212784D01*
Y-212498D01*
Y-212211D01*
Y-211925D01*
Y-211639D01*
Y-211352D01*
Y-211066D01*
Y-210780D01*
Y-210493D01*
Y-210207D01*
Y-209921D01*
Y-209634D01*
Y-209348D01*
Y-209062D01*
Y-208776D01*
Y-208489D01*
Y-208203D01*
Y-207917D01*
Y-207630D01*
Y-207344D01*
Y-207058D01*
Y-206771D01*
Y-206485D01*
Y-206199D01*
Y-205912D01*
Y-205626D01*
Y-205340D01*
Y-205053D01*
Y-204767D01*
Y-204481D01*
Y-204195D01*
Y-203908D01*
X247986D01*
Y-203622D01*
X247413D01*
Y-203336D01*
X246840D01*
Y-203049D01*
X246268D01*
Y-202763D01*
X245695D01*
Y-202477D01*
X245123D01*
Y-202190D01*
X244836D01*
Y-201904D01*
X244264D01*
Y-201618D01*
X243977D01*
Y-201331D01*
X243405D01*
Y-201045D01*
X243118D01*
Y-200759D01*
X242832D01*
Y-200472D01*
X242259D01*
Y-200186D01*
X241973D01*
Y-199900D01*
X241687D01*
Y-199614D01*
X241400D01*
Y-199327D01*
X241114D01*
Y-199041D01*
X240828D01*
Y-198755D01*
X240542D01*
Y-198468D01*
X240255D01*
Y-198182D01*
X239969D01*
Y-197896D01*
X239683D01*
Y-197609D01*
X239396D01*
Y-197323D01*
X239110D01*
Y-197037D01*
Y-196750D01*
X238824D01*
Y-196464D01*
X238537D01*
Y-196178D01*
X238251D01*
Y-195891D01*
Y-195605D01*
X237965D01*
Y-195319D01*
X237678D01*
Y-195033D01*
Y-194746D01*
X237392D01*
Y-194460D01*
Y-194174D01*
X237106D01*
Y-193887D01*
X236819D01*
Y-193601D01*
Y-193315D01*
X236533D01*
Y-193028D01*
Y-192742D01*
X236247D01*
Y-192456D01*
Y-192169D01*
X237965D01*
Y-191883D01*
X239969D01*
Y-191597D01*
X241114D01*
Y-191311D01*
X241687D01*
Y-191024D01*
X242546D01*
Y-190738D01*
X243118D01*
Y-190452D01*
X243405D01*
Y-190165D01*
X243977D01*
Y-189879D01*
X244264D01*
Y-189593D01*
X244550D01*
Y-189306D01*
X244836D01*
Y-189020D01*
X245123D01*
Y-188734D01*
X245409D01*
Y-188447D01*
Y-188161D01*
X245695D01*
Y-187875D01*
X245981D01*
Y-187588D01*
Y-187302D01*
X246268D01*
Y-187016D01*
Y-186730D01*
X246554D01*
Y-186443D01*
Y-186157D01*
X246840D01*
Y-185871D01*
Y-185584D01*
Y-185298D01*
X247127D01*
Y-185012D01*
Y-184725D01*
Y-184439D01*
Y-184153D01*
X247413D01*
Y-183866D01*
Y-183580D01*
Y-183294D01*
Y-183007D01*
Y-182721D01*
Y-182435D01*
Y-182149D01*
X247699D01*
Y-181862D01*
Y-181576D01*
Y-181290D01*
Y-181003D01*
Y-180717D01*
Y-180431D01*
Y-180144D01*
Y-179858D01*
Y-179572D01*
Y-179285D01*
Y-178999D01*
Y-178713D01*
Y-178426D01*
Y-178140D01*
Y-177854D01*
X247986D01*
Y-177568D01*
Y-177281D01*
Y-176995D01*
Y-176709D01*
Y-176422D01*
Y-176136D01*
Y-175850D01*
Y-175563D01*
Y-175277D01*
Y-174991D01*
Y-174704D01*
Y-174418D01*
Y-174132D01*
Y-173845D01*
Y-173559D01*
X248272D01*
Y-173273D01*
Y-172986D01*
Y-172700D01*
Y-172414D01*
Y-172127D01*
Y-171841D01*
Y-171555D01*
Y-171269D01*
Y-170982D01*
Y-170696D01*
Y-170410D01*
Y-170123D01*
Y-169837D01*
Y-169551D01*
Y-169264D01*
Y-168978D01*
X248558D01*
Y-168692D01*
Y-168405D01*
Y-168119D01*
Y-167833D01*
Y-167547D01*
Y-167260D01*
Y-166974D01*
Y-166688D01*
Y-166401D01*
Y-166115D01*
Y-165829D01*
Y-165542D01*
Y-165256D01*
Y-164970D01*
Y-164683D01*
Y-164397D01*
X248845D01*
Y-164111D01*
Y-163824D01*
Y-163538D01*
Y-163252D01*
Y-162966D01*
Y-162679D01*
Y-162393D01*
Y-162107D01*
Y-161820D01*
Y-161534D01*
Y-161248D01*
Y-160961D01*
Y-160675D01*
Y-160389D01*
X249131D01*
Y-160102D01*
Y-159816D01*
Y-159530D01*
Y-159244D01*
Y-158957D01*
Y-158671D01*
Y-158385D01*
Y-158098D01*
Y-157812D01*
Y-157526D01*
Y-157239D01*
Y-156953D01*
Y-156667D01*
Y-156380D01*
Y-156094D01*
Y-155808D01*
X249417D01*
Y-155521D01*
X235674D01*
Y-155808D01*
Y-156094D01*
Y-156380D01*
Y-156667D01*
Y-156953D01*
Y-157239D01*
Y-157526D01*
Y-157812D01*
Y-158098D01*
Y-158385D01*
Y-158671D01*
Y-158957D01*
Y-159244D01*
Y-159530D01*
X235388D01*
Y-159816D01*
Y-160102D01*
Y-160389D01*
Y-160675D01*
Y-160961D01*
Y-161248D01*
Y-161534D01*
Y-161820D01*
Y-162107D01*
Y-162393D01*
Y-162679D01*
Y-162966D01*
Y-163252D01*
Y-163538D01*
Y-163824D01*
Y-164111D01*
Y-164397D01*
Y-164683D01*
Y-164970D01*
Y-165256D01*
Y-165542D01*
Y-165829D01*
Y-166115D01*
Y-166401D01*
Y-166688D01*
Y-166974D01*
Y-167260D01*
Y-167547D01*
Y-167833D01*
Y-168119D01*
Y-168405D01*
Y-168692D01*
Y-168978D01*
Y-169264D01*
Y-169551D01*
Y-169837D01*
Y-170123D01*
Y-170410D01*
Y-170696D01*
Y-170982D01*
Y-171269D01*
X235102D01*
Y-171555D01*
X235388D01*
Y-171841D01*
Y-172127D01*
X235102D01*
Y-172414D01*
Y-172700D01*
Y-172986D01*
Y-173273D01*
Y-173559D01*
Y-173845D01*
Y-174132D01*
Y-174418D01*
Y-174704D01*
Y-174991D01*
Y-175277D01*
Y-175563D01*
Y-175850D01*
Y-176136D01*
Y-176422D01*
Y-176709D01*
Y-176995D01*
Y-177281D01*
Y-177568D01*
Y-177854D01*
Y-178140D01*
Y-178426D01*
Y-178713D01*
Y-178999D01*
Y-179285D01*
Y-179572D01*
X234815D01*
Y-179858D01*
Y-180144D01*
Y-180431D01*
X234529D01*
Y-180717D01*
X234243D01*
Y-181003D01*
X233956D01*
Y-181290D01*
X233097D01*
Y-181576D01*
X232238D01*
Y-181290D01*
X231952D01*
Y-181003D01*
Y-180717D01*
Y-180431D01*
X231666D01*
Y-180144D01*
Y-179858D01*
X231380D01*
Y-179572D01*
Y-179285D01*
Y-178999D01*
X231093D01*
Y-178713D01*
Y-178426D01*
Y-178140D01*
X230807D01*
Y-177854D01*
Y-177568D01*
Y-177281D01*
X230521D01*
Y-176995D01*
Y-176709D01*
Y-176422D01*
X230234D01*
Y-176136D01*
Y-175850D01*
X229948D01*
Y-175563D01*
Y-175277D01*
Y-174991D01*
X229662D01*
Y-174704D01*
Y-174418D01*
Y-174132D01*
X229375D01*
Y-173845D01*
Y-173559D01*
Y-173273D01*
X229089D01*
Y-172986D01*
Y-172700D01*
X228803D01*
Y-172414D01*
Y-172127D01*
Y-171841D01*
X228516D01*
Y-171555D01*
Y-171269D01*
Y-170982D01*
X228230D01*
Y-170696D01*
Y-170410D01*
Y-170123D01*
X227944D01*
Y-169837D01*
Y-169551D01*
X227657D01*
Y-169264D01*
Y-168978D01*
Y-168692D01*
X227371D01*
Y-168405D01*
Y-168119D01*
Y-167833D01*
X227085D01*
Y-167547D01*
Y-167260D01*
Y-166974D01*
X226799D01*
Y-166688D01*
Y-166401D01*
X226512D01*
Y-166115D01*
Y-165829D01*
Y-165542D01*
X226226D01*
Y-165256D01*
Y-164970D01*
Y-164683D01*
X225939D01*
Y-164397D01*
Y-164111D01*
Y-163824D01*
X225653D01*
Y-163538D01*
Y-163252D01*
Y-162966D01*
Y-162679D01*
X225367D01*
Y-162393D01*
Y-162107D01*
Y-161820D01*
Y-161534D01*
X225081D01*
Y-161248D01*
Y-160961D01*
Y-160675D01*
Y-160389D01*
Y-160102D01*
X224794D01*
Y-159816D01*
Y-159530D01*
Y-159244D01*
Y-158957D01*
Y-158671D01*
Y-158385D01*
X224508D01*
Y-158098D01*
Y-157812D01*
Y-157526D01*
Y-157239D01*
Y-156953D01*
Y-156667D01*
Y-156380D01*
Y-156094D01*
Y-155808D01*
Y-155521D01*
X211624D01*
Y-155808D01*
D02*
G37*
%LPC*%
G36*
X304962Y-152658D02*
X312979D01*
Y-152945D01*
Y-153231D01*
Y-153517D01*
Y-153804D01*
Y-154090D01*
X313265D01*
Y-154376D01*
Y-154663D01*
Y-154949D01*
Y-155235D01*
Y-155521D01*
Y-155808D01*
X313551D01*
Y-156094D01*
Y-156380D01*
Y-156667D01*
Y-156953D01*
Y-157239D01*
Y-157526D01*
X313838D01*
Y-157812D01*
Y-158098D01*
Y-158385D01*
Y-158671D01*
Y-158957D01*
Y-159244D01*
X314124D01*
Y-159530D01*
Y-159816D01*
Y-160102D01*
Y-160389D01*
Y-160675D01*
Y-160961D01*
Y-161248D01*
X314410D01*
Y-161534D01*
Y-161820D01*
Y-162107D01*
Y-162393D01*
Y-162679D01*
Y-162966D01*
X314697D01*
Y-163252D01*
Y-163538D01*
Y-163824D01*
X307539D01*
Y-163538D01*
X306393D01*
Y-163252D01*
X305821D01*
Y-162966D01*
X305535D01*
Y-162679D01*
X305248D01*
Y-162393D01*
X304962D01*
Y-162107D01*
X304676D01*
Y-161820D01*
Y-161534D01*
X304389D01*
Y-161248D01*
Y-160961D01*
X304103D01*
Y-160675D01*
Y-160389D01*
X303817D01*
Y-160102D01*
Y-159816D01*
Y-159530D01*
Y-159244D01*
X303530D01*
Y-158957D01*
Y-158671D01*
Y-158385D01*
Y-158098D01*
Y-157812D01*
X303244D01*
Y-157526D01*
Y-157239D01*
Y-156953D01*
Y-156667D01*
Y-156380D01*
Y-156094D01*
Y-155808D01*
Y-155521D01*
Y-155235D01*
Y-154949D01*
Y-154663D01*
X303530D01*
Y-154376D01*
Y-154090D01*
X303817D01*
Y-153804D01*
Y-153517D01*
X304103D01*
Y-153231D01*
X304389D01*
Y-152945D01*
X304962D01*
Y-152658D01*
D02*
G37*
%LPD*%
D12*
X-5879Y-229571D02*
Y-190201D01*
X151601Y-150831D02*
X-123989D01*
X151601Y-190201D02*
X-123989D01*
X348451Y-229571D02*
X-123989D01*
X348451Y-111461D02*
X-123989D01*
X348451Y-268941D02*
Y-111461D01*
X151601Y-268941D02*
Y-111461D01*
X1529554Y900350D02*
X-123989D01*
Y-268941D02*
Y900350D01*
X1529554Y-268941D02*
Y900350D01*
Y-268941D02*
X-123989D01*
X137823Y-255164D02*
X141759D01*
Y-258115D01*
X139791D01*
X141759D01*
Y-261067D01*
X135855Y-257131D02*
Y-261067D01*
Y-259099D01*
X134871Y-258115D01*
X133887Y-257131D01*
X132903D01*
X129951Y-261067D02*
X127983D01*
X128967D01*
Y-257131D01*
X129951D01*
X125032Y-256147D02*
X124048Y-255164D01*
X122080D01*
X121096Y-256147D01*
Y-257131D01*
X122080Y-258115D01*
X123064D01*
X122080D01*
X121096Y-259099D01*
Y-260083D01*
X122080Y-261067D01*
X124048D01*
X125032Y-260083D01*
X119128Y-255164D02*
Y-261067D01*
X116176D01*
X115192Y-260083D01*
Y-256147D01*
X116176Y-255164D01*
X119128D01*
X113224Y-262051D02*
X109289D01*
X103385Y-261067D02*
X107321D01*
X103385Y-257131D01*
Y-256147D01*
X104369Y-255164D01*
X106337D01*
X107321Y-256147D01*
X101417D02*
X100433Y-255164D01*
X98466D01*
X97482Y-256147D01*
Y-260083D01*
X98466Y-261067D01*
X100433D01*
X101417Y-260083D01*
Y-256147D01*
X91578Y-261067D02*
X95514D01*
X91578Y-257131D01*
Y-256147D01*
X92562Y-255164D01*
X94530D01*
X95514Y-256147D01*
X89610D02*
X88626Y-255164D01*
X86658D01*
X85674Y-256147D01*
Y-260083D01*
X86658Y-261067D01*
X88626D01*
X89610Y-260083D01*
Y-256147D01*
X83706Y-262051D02*
X79771D01*
X73867Y-256147D02*
X74851Y-255164D01*
X76819D01*
X77803Y-256147D01*
Y-260083D01*
X76819Y-261067D01*
X74851D01*
X73867Y-260083D01*
Y-258115D01*
X75835D01*
X70915Y-257131D02*
X68947D01*
X67964Y-258115D01*
Y-261067D01*
X70915D01*
X71899Y-260083D01*
X70915Y-259099D01*
X67964D01*
X65996Y-261067D02*
Y-257131D01*
X65012D01*
X64028Y-258115D01*
Y-261067D01*
Y-258115D01*
X63044Y-257131D01*
X62060Y-258115D01*
Y-261067D01*
X57140D02*
X59108D01*
X60092Y-260083D01*
Y-258115D01*
X59108Y-257131D01*
X57140D01*
X56156Y-258115D01*
Y-259099D01*
X60092D01*
X51237Y-255164D02*
X53205D01*
X54189Y-256147D01*
Y-260083D01*
X53205Y-261067D01*
X51237D01*
X50253Y-260083D01*
Y-256147D01*
X51237Y-255164D01*
X48285Y-261067D02*
Y-257131D01*
X45333D01*
X44349Y-258115D01*
Y-261067D01*
X42381Y-262051D02*
X38446D01*
X36478Y-256147D02*
X35494Y-255164D01*
X33526D01*
X32542Y-256147D01*
Y-260083D01*
X33526Y-261067D01*
X35494D01*
X36478Y-260083D01*
Y-256147D01*
X30574D02*
X29590Y-255164D01*
X27622D01*
X26638Y-256147D01*
Y-260083D01*
X27622Y-261067D01*
X29590D01*
X30574Y-260083D01*
Y-256147D01*
X24670Y-261067D02*
Y-260083D01*
X23687D01*
Y-261067D01*
X24670D01*
X19751D02*
Y-255164D01*
X16799D01*
X15815Y-256147D01*
Y-258115D01*
X16799Y-259099D01*
X19751D01*
X9911Y-257131D02*
X12863D01*
X13847Y-258115D01*
Y-260083D01*
X12863Y-261067D01*
X9911D01*
X7944Y-255164D02*
Y-261067D01*
X4992D01*
X4008Y-260083D01*
Y-259099D01*
Y-258115D01*
X4992Y-257131D01*
X7944D01*
X2040Y-255164D02*
Y-261067D01*
X-912D01*
X-1896Y-260083D01*
Y-256147D01*
X-912Y-255164D01*
X2040D01*
X-4848Y-261067D02*
X-6815D01*
X-7799Y-260083D01*
Y-258115D01*
X-6815Y-257131D01*
X-4848D01*
X-3864Y-258115D01*
Y-260083D01*
X-4848Y-261067D01*
X-13703Y-257131D02*
X-10751D01*
X-9767Y-258115D01*
Y-260083D01*
X-10751Y-261067D01*
X-13703D01*
D14*
X129948Y-168552D02*
Y-182327D01*
X123060D01*
X120764Y-180031D01*
Y-177735D01*
X123060Y-175439D01*
X129948D01*
X123060D01*
X120764Y-173144D01*
Y-170848D01*
X123060Y-168552D01*
X129948D01*
X113877Y-182327D02*
X109285D01*
X106989Y-180031D01*
Y-175439D01*
X109285Y-173144D01*
X113877D01*
X116173Y-175439D01*
Y-180031D01*
X113877Y-182327D01*
X100101Y-170848D02*
Y-173144D01*
X102397D01*
X97806D01*
X100101D01*
Y-180031D01*
X97806Y-182327D01*
X88622Y-170848D02*
Y-173144D01*
X90918D01*
X86326D01*
X88622D01*
Y-180031D01*
X86326Y-182327D01*
X77143D02*
X72551D01*
X70256Y-180031D01*
Y-175439D01*
X72551Y-173144D01*
X77143D01*
X79439Y-175439D01*
Y-180031D01*
X77143Y-182327D01*
X65664D02*
Y-173144D01*
X63368D01*
X61072Y-175439D01*
Y-182327D01*
Y-175439D01*
X58776Y-173144D01*
X56480Y-175439D01*
Y-182327D01*
X38114D02*
Y-168552D01*
X31226D01*
X28930Y-170848D01*
Y-175439D01*
X31226Y-177735D01*
X38114D01*
X22043Y-173144D02*
X17451D01*
X15155Y-175439D01*
Y-182327D01*
X22043D01*
X24339Y-180031D01*
X22043Y-177735D01*
X15155D01*
X10564Y-182327D02*
X3676D01*
X1380Y-180031D01*
X3676Y-177735D01*
X8268D01*
X10564Y-175439D01*
X8268Y-173144D01*
X1380D01*
X-5507Y-170848D02*
Y-173144D01*
X-3212D01*
X-7803D01*
X-5507D01*
Y-180031D01*
X-7803Y-182327D01*
X-21578D02*
X-16987D01*
X-14691Y-180031D01*
Y-175439D01*
X-16987Y-173144D01*
X-21578D01*
X-23874Y-175439D01*
Y-177735D01*
X-14691D01*
X326798Y-247293D02*
Y-263036D01*
X321550Y-257788D01*
X316303Y-263036D01*
Y-247293D01*
X311055Y-263036D02*
X305807D01*
X308431D01*
Y-252540D01*
X311055D01*
X297936Y-263036D02*
Y-252540D01*
X295312D01*
X292688Y-255164D01*
Y-263036D01*
Y-255164D01*
X290064Y-252540D01*
X287441Y-255164D01*
Y-263036D01*
X282193Y-247293D02*
Y-257788D01*
X276945Y-263036D01*
X271698Y-257788D01*
Y-247293D01*
X255955Y-249917D02*
X258578Y-247293D01*
X263826D01*
X266450Y-249917D01*
Y-260412D01*
X263826Y-263036D01*
X258578D01*
X255955Y-260412D01*
Y-255164D01*
X261202D01*
X-27533Y-210546D02*
X-30157Y-207923D01*
X-35404D01*
X-38028Y-210546D01*
Y-221042D01*
X-35404Y-223665D01*
X-30157D01*
X-27533Y-221042D01*
Y-210546D01*
X-43276D02*
X-45900Y-207923D01*
X-51147D01*
X-53771Y-210546D01*
Y-221042D01*
X-51147Y-223665D01*
X-45900D01*
X-43276Y-221042D01*
Y-210546D01*
X126670Y-223665D02*
X135853D01*
X126670Y-214482D01*
Y-212186D01*
X128966Y-209890D01*
X133557D01*
X135853Y-212186D01*
X112895Y-209890D02*
X122078D01*
Y-216778D01*
X117486Y-214482D01*
X115190D01*
X112895Y-216778D01*
Y-221370D01*
X115190Y-223665D01*
X119782D01*
X122078Y-221370D01*
X108303Y-223665D02*
X99120Y-214482D01*
X94528Y-212186D02*
X92232Y-209890D01*
X87640D01*
X85344Y-212186D01*
Y-221370D01*
X87640Y-223665D01*
X92232D01*
X94528Y-221370D01*
Y-212186D01*
X80753D02*
X78457Y-209890D01*
X73865D01*
X71569Y-212186D01*
Y-214482D01*
X73865Y-216778D01*
X76161D01*
X73865D01*
X71569Y-219074D01*
Y-221370D01*
X73865Y-223665D01*
X78457D01*
X80753Y-221370D01*
X66978Y-223665D02*
X57794Y-214482D01*
X44019Y-223665D02*
X53203D01*
X44019Y-214482D01*
Y-212186D01*
X46315Y-209890D01*
X50907D01*
X53203Y-212186D01*
X39428D02*
X37132Y-209890D01*
X32540D01*
X30244Y-212186D01*
Y-221370D01*
X32540Y-223665D01*
X37132D01*
X39428Y-221370D01*
Y-212186D01*
X16469Y-223665D02*
X25652D01*
X16469Y-214482D01*
Y-212186D01*
X18765Y-209890D01*
X23357D01*
X25652Y-212186D01*
X11877D02*
X9582Y-209890D01*
X4990D01*
X2694Y-212186D01*
Y-221370D01*
X4990Y-223665D01*
X9582D01*
X11877Y-221370D01*
Y-212186D01*
X133362Y-132331D02*
X141759D01*
Y-138628D01*
X137560D01*
X141759D01*
Y-144925D01*
X129164Y-136529D02*
Y-144925D01*
Y-140727D01*
X127065Y-138628D01*
X124966Y-136529D01*
X122867D01*
X116570Y-144925D02*
X112372D01*
X114471D01*
Y-136529D01*
X116570D01*
X106075Y-134430D02*
X103975Y-132331D01*
X99777D01*
X97678Y-134430D01*
Y-136529D01*
X99777Y-138628D01*
X101876D01*
X99777D01*
X97678Y-140727D01*
Y-142826D01*
X99777Y-144925D01*
X103975D01*
X106075Y-142826D01*
X93480Y-132331D02*
Y-144925D01*
X87183D01*
X85084Y-142826D01*
Y-134430D01*
X87183Y-132331D01*
X93480D01*
X59895Y-144925D02*
X68291D01*
X59895Y-136529D01*
Y-134430D01*
X61994Y-132331D01*
X66192D01*
X68291Y-134430D01*
X55697D02*
X53598Y-132331D01*
X49400D01*
X47301Y-134430D01*
Y-142826D01*
X49400Y-144925D01*
X53598D01*
X55697Y-142826D01*
Y-134430D01*
X34707Y-144925D02*
X43103D01*
X34707Y-136529D01*
Y-134430D01*
X36806Y-132331D01*
X41004D01*
X43103Y-134430D01*
X30508D02*
X28409Y-132331D01*
X24211D01*
X22112Y-134430D01*
Y-142826D01*
X24211Y-144925D01*
X28409D01*
X30508Y-142826D01*
Y-134430D01*
X-3077D02*
X-977Y-132331D01*
X3221D01*
X5320Y-134430D01*
Y-142826D01*
X3221Y-144925D01*
X-977D01*
X-3077Y-142826D01*
Y-138628D01*
X1122D01*
X-9374Y-136529D02*
X-13572D01*
X-15671Y-138628D01*
Y-144925D01*
X-9374D01*
X-7275Y-142826D01*
X-9374Y-140727D01*
X-15671D01*
X-19869Y-144925D02*
Y-136529D01*
X-21968D01*
X-24067Y-138628D01*
Y-144925D01*
Y-138628D01*
X-26166Y-136529D01*
X-28265Y-138628D01*
Y-144925D01*
X-38761D02*
X-34562D01*
X-32463Y-142826D01*
Y-138628D01*
X-34562Y-136529D01*
X-38761D01*
X-40860Y-138628D01*
Y-140727D01*
X-32463D01*
X-51355Y-132331D02*
X-47157D01*
X-45058Y-134430D01*
Y-142826D01*
X-47157Y-144925D01*
X-51355D01*
X-53454Y-142826D01*
Y-134430D01*
X-51355Y-132331D01*
X-57652Y-144925D02*
Y-136529D01*
X-63949D01*
X-66048Y-138628D01*
Y-144925D01*
D15*
X1172869Y177165D02*
G03*
X1153183Y196850I-19685J-0D01*
G01*
X838223D02*
G03*
X818538Y177165I0J-19685D01*
G01*
Y19685D02*
G03*
X838223Y0I19685J0D01*
G01*
X1153183D02*
G03*
X1172869Y19685I0J19685D01*
G01*
X1153183Y0D02*
X838223D01*
X818538Y19685D02*
Y177165D01*
X1153183Y196850D02*
X838223D01*
X1172869Y19685D02*
Y177165D01*
D16*
X-9816Y-202012D02*
Y-194141D01*
X-13752D01*
X-15064Y-195452D01*
Y-198076D01*
X-13752Y-199388D01*
X-9816D01*
X-12440D02*
X-15064Y-202012D01*
X-21623D02*
X-19000D01*
X-17688Y-200700D01*
Y-198076D01*
X-19000Y-196764D01*
X-21623D01*
X-22935Y-198076D01*
Y-199388D01*
X-17688D01*
X-25559Y-196764D02*
X-28183Y-202012D01*
X-30807Y-196764D01*
X344514Y-233511D02*
Y-241382D01*
X340579D01*
X339267Y-240070D01*
Y-234823D01*
X340579Y-233511D01*
X344514D01*
X332707Y-241382D02*
X335331D01*
X336643Y-240070D01*
Y-237446D01*
X335331Y-236134D01*
X332707D01*
X331395Y-237446D01*
Y-238758D01*
X336643D01*
X328771Y-241382D02*
X324836D01*
X323524Y-240070D01*
X324836Y-238758D01*
X327460D01*
X328771Y-237446D01*
X327460Y-236134D01*
X323524D01*
X318276Y-244006D02*
X316964D01*
X315652Y-242694D01*
Y-236134D01*
X319588D01*
X320900Y-237446D01*
Y-240070D01*
X319588Y-241382D01*
X315652D01*
X313029D02*
X310405D01*
X311717D01*
Y-236134D01*
X313029D01*
X306469Y-241382D02*
Y-236134D01*
X302533D01*
X301221Y-237446D01*
Y-241382D01*
X294662D02*
X297286D01*
X298598Y-240070D01*
Y-237446D01*
X297286Y-236134D01*
X294662D01*
X293350Y-237446D01*
Y-238758D01*
X298598D01*
X290726Y-236134D02*
Y-241382D01*
Y-238758D01*
X289414Y-237446D01*
X288102Y-236134D01*
X286790D01*
X147664Y-115400D02*
Y-123272D01*
X143728D01*
X142417Y-121960D01*
Y-116712D01*
X143728Y-115400D01*
X147664D01*
X138481Y-123272D02*
X135857D01*
X134545Y-121960D01*
Y-119336D01*
X135857Y-118024D01*
X138481D01*
X139793Y-119336D01*
Y-121960D01*
X138481Y-123272D01*
X126673Y-118024D02*
X130609D01*
X131921Y-119336D01*
Y-121960D01*
X130609Y-123272D01*
X126673D01*
X124050Y-118024D02*
Y-121960D01*
X122738Y-123272D01*
X118802D01*
Y-118024D01*
X116178Y-123272D02*
Y-118024D01*
X114866D01*
X113554Y-119336D01*
Y-123272D01*
Y-119336D01*
X112242Y-118024D01*
X110931Y-119336D01*
Y-123272D01*
X104371D02*
X106995D01*
X108307Y-121960D01*
Y-119336D01*
X106995Y-118024D01*
X104371D01*
X103059Y-119336D01*
Y-120648D01*
X108307D01*
X100435Y-123272D02*
Y-118024D01*
X96500D01*
X95188Y-119336D01*
Y-123272D01*
X91252Y-116712D02*
Y-118024D01*
X92564D01*
X89940D01*
X91252D01*
Y-121960D01*
X89940Y-123272D01*
X147664Y-154770D02*
Y-162642D01*
X142417D01*
X138481Y-157394D02*
X135857D01*
X134545Y-158706D01*
Y-162642D01*
X138481D01*
X139793Y-161330D01*
X138481Y-160018D01*
X134545D01*
X131921Y-157394D02*
Y-161330D01*
X130609Y-162642D01*
X126673D01*
Y-163954D01*
X127985Y-165266D01*
X129297D01*
X126673Y-162642D02*
Y-157394D01*
X120114Y-162642D02*
X122738D01*
X124050Y-161330D01*
Y-158706D01*
X122738Y-157394D01*
X120114D01*
X118802Y-158706D01*
Y-160018D01*
X124050D01*
X116178Y-157394D02*
Y-162642D01*
Y-160018D01*
X114866Y-158706D01*
X113554Y-157394D01*
X112242D01*
X100435Y-162642D02*
Y-154770D01*
X95188Y-162642D01*
Y-154770D01*
X91252Y-157394D02*
X88628D01*
X87316Y-158706D01*
Y-162642D01*
X91252D01*
X92564Y-161330D01*
X91252Y-160018D01*
X87316D01*
X84692Y-162642D02*
Y-157394D01*
X83380D01*
X82068Y-158706D01*
Y-162642D01*
Y-158706D01*
X80756Y-157394D01*
X79445Y-158706D01*
Y-162642D01*
X72885D02*
X75509D01*
X76821Y-161330D01*
Y-158706D01*
X75509Y-157394D01*
X72885D01*
X71573Y-158706D01*
Y-160018D01*
X76821D01*
X147664Y-194141D02*
Y-202012D01*
X143728D01*
X142417Y-200700D01*
Y-195452D01*
X143728Y-194141D01*
X147664D01*
X138481Y-196764D02*
X135857D01*
X134545Y-198076D01*
Y-202012D01*
X138481D01*
X139793Y-200700D01*
X138481Y-199388D01*
X134545D01*
X130609Y-195452D02*
Y-196764D01*
X131921D01*
X129297D01*
X130609D01*
Y-200700D01*
X129297Y-202012D01*
X121426D02*
X124050D01*
X125362Y-200700D01*
Y-198076D01*
X124050Y-196764D01*
X121426D01*
X120114Y-198076D01*
Y-199388D01*
X125362D01*
X147664Y-233511D02*
Y-241382D01*
X143728D01*
X142417Y-240070D01*
Y-234823D01*
X143728Y-233511D01*
X147664D01*
X138481Y-241382D02*
X135857D01*
X134545Y-240070D01*
Y-237446D01*
X135857Y-236134D01*
X138481D01*
X139793Y-237446D01*
Y-240070D01*
X138481Y-241382D01*
X126673Y-236134D02*
X130609D01*
X131921Y-237446D01*
Y-240070D01*
X130609Y-241382D01*
X126673D01*
X124050Y-236134D02*
Y-240070D01*
X122738Y-241382D01*
X118802D01*
Y-236134D01*
X116178Y-241382D02*
Y-236134D01*
X114866D01*
X113554Y-237446D01*
Y-241382D01*
Y-237446D01*
X112242Y-236134D01*
X110931Y-237446D01*
Y-241382D01*
X104371D02*
X106995D01*
X108307Y-240070D01*
Y-237446D01*
X106995Y-236134D01*
X104371D01*
X103059Y-237446D01*
Y-238758D01*
X108307D01*
X100435Y-241382D02*
Y-236134D01*
X96500D01*
X95188Y-237446D01*
Y-241382D01*
X91252Y-234823D02*
Y-236134D01*
X92564D01*
X89940D01*
X91252D01*
Y-240070D01*
X89940Y-241382D01*
D62*
X1113813Y145669D02*
D03*
X877593D02*
D03*
M02*
