G04*
G04 #@! TF.GenerationSoftware,Altium Limited,Altium Designer,20.0.13 (296)*
G04*
G04 Layer_Physical_Order=1*
G04 Layer_Color=3394611*
%FSLAX25Y25*%
%MOIN*%
G70*
G01*
G75*
%ADD11C,0.00591*%
%ADD12C,0.00787*%
%ADD14C,0.01575*%
%ADD15C,0.00394*%
%ADD16C,0.00984*%
%ADD17R,0.03150X0.09843*%
%ADD18R,0.04331X0.03937*%
%ADD19R,0.07874X0.02756*%
%ADD20R,0.05512X0.06299*%
%ADD21R,0.06299X0.05512*%
%ADD22R,0.09449X0.05512*%
%ADD23R,0.03937X0.04331*%
%ADD24R,0.04724X0.05906*%
%ADD25R,0.05118X0.05906*%
%ADD42C,0.06299*%
%ADD44R,0.06299X0.06299*%
%ADD48C,0.01968*%
%ADD49C,0.02756*%
%ADD50R,0.05315X0.01575*%
G04:AMPARAMS|DCode=51|XSize=43.31mil|YSize=216.54mil|CornerRadius=10.83mil|HoleSize=0mil|Usage=FLASHONLY|Rotation=0.000|XOffset=0mil|YOffset=0mil|HoleType=Round|Shape=RoundedRectangle|*
%AMROUNDEDRECTD51*
21,1,0.04331,0.19488,0,0,0.0*
21,1,0.02165,0.21654,0,0,0.0*
1,1,0.02165,0.01083,-0.09744*
1,1,0.02165,-0.01083,-0.09744*
1,1,0.02165,-0.01083,0.09744*
1,1,0.02165,0.01083,0.09744*
%
%ADD51ROUNDEDRECTD51*%
%ADD52C,0.09055*%
G04:AMPARAMS|DCode=53|XSize=118.11mil|YSize=236.22mil|CornerRadius=29.53mil|HoleSize=0mil|Usage=FLASHONLY|Rotation=0.000|XOffset=0mil|YOffset=0mil|HoleType=Round|Shape=RoundedRectangle|*
%AMROUNDEDRECTD53*
21,1,0.11811,0.17717,0,0,0.0*
21,1,0.05906,0.23622,0,0,0.0*
1,1,0.05906,0.02953,-0.08858*
1,1,0.05906,-0.02953,-0.08858*
1,1,0.05906,-0.02953,0.08858*
1,1,0.05906,0.02953,0.08858*
%
%ADD53ROUNDEDRECTD53*%
G04:AMPARAMS|DCode=54|XSize=62.99mil|YSize=62.99mil|CornerRadius=15.75mil|HoleSize=0mil|Usage=FLASHONLY|Rotation=0.000|XOffset=0mil|YOffset=0mil|HoleType=Round|Shape=RoundedRectangle|*
%AMROUNDEDRECTD54*
21,1,0.06299,0.03150,0,0,0.0*
21,1,0.03150,0.06299,0,0,0.0*
1,1,0.03150,0.01575,-0.01575*
1,1,0.03150,-0.01575,-0.01575*
1,1,0.03150,-0.01575,0.01575*
1,1,0.03150,0.01575,0.01575*
%
%ADD54ROUNDEDRECTD54*%
%ADD55C,0.05906*%
%ADD56R,0.05906X0.05906*%
%ADD57R,0.05906X0.05906*%
%ADD58C,0.12598*%
%ADD59C,0.07087*%
%ADD60R,0.07087X0.07087*%
%ADD61C,0.02756*%
G36*
X199114Y70669D02*
X195827D01*
X195574Y70774D01*
X195380Y70968D01*
X195276Y71221D01*
Y71358D01*
X195272Y71397D01*
X195242Y71468D01*
X195188Y71522D01*
X195117Y71551D01*
X195079Y71555D01*
X192717D01*
Y73524D01*
X193602D01*
X193929Y73556D01*
X194532Y73806D01*
X194994Y74267D01*
X195243Y74870D01*
X195276Y75197D01*
Y75471D01*
X195485Y75977D01*
X195873Y76365D01*
X196379Y76575D01*
X198622D01*
X199114Y70669D01*
D02*
G37*
G36*
X1005337Y-155808D02*
X1005050D01*
Y-156094D01*
X1004764D01*
Y-156380D01*
Y-156667D01*
X1004478D01*
Y-156953D01*
X1004192D01*
Y-157239D01*
X1003905D01*
Y-157526D01*
Y-157812D01*
X1003619D01*
Y-158098D01*
X1003333D01*
Y-158385D01*
X1003046D01*
Y-158671D01*
X1002760D01*
Y-158957D01*
Y-159244D01*
X1002474D01*
Y-159530D01*
X1002187D01*
Y-159816D01*
X1001901D01*
Y-160102D01*
Y-160389D01*
X1001615D01*
Y-160675D01*
X1001328D01*
Y-160961D01*
X1001042D01*
Y-161248D01*
X1000756D01*
Y-161534D01*
Y-161820D01*
X1000469D01*
Y-162107D01*
X1000183D01*
Y-162393D01*
X999897D01*
Y-162679D01*
Y-162966D01*
X999611D01*
Y-163252D01*
X999324D01*
Y-163538D01*
X999038D01*
Y-163824D01*
Y-164111D01*
X998752D01*
Y-164397D01*
X998465D01*
Y-164683D01*
X998179D01*
Y-164970D01*
X997893D01*
Y-165256D01*
Y-165542D01*
X997606D01*
Y-165829D01*
X997320D01*
Y-166115D01*
X997034D01*
Y-166401D01*
Y-166688D01*
X996747D01*
Y-166974D01*
X996461D01*
Y-167260D01*
X996175D01*
Y-167547D01*
Y-167833D01*
X995889D01*
Y-168119D01*
X995602D01*
Y-168405D01*
X995316D01*
Y-168692D01*
X995030D01*
Y-168978D01*
Y-169264D01*
X994743D01*
Y-169551D01*
X994457D01*
Y-169837D01*
X994171D01*
Y-170123D01*
Y-170410D01*
X993884D01*
Y-170696D01*
X993598D01*
Y-170982D01*
X993312D01*
Y-171269D01*
Y-171555D01*
X993025D01*
Y-171841D01*
X992739D01*
Y-172127D01*
X992453D01*
Y-172414D01*
X992166D01*
Y-172700D01*
Y-172986D01*
X991880D01*
Y-173273D01*
X991594D01*
Y-173559D01*
X991308D01*
Y-173845D01*
Y-174132D01*
X991021D01*
Y-174418D01*
X990735D01*
Y-174704D01*
X990449D01*
Y-174991D01*
X990162D01*
Y-175277D01*
Y-175563D01*
X990449D01*
Y-175850D01*
Y-176136D01*
X990735D01*
Y-176422D01*
Y-176709D01*
X991021D01*
Y-176995D01*
X991308D01*
Y-177281D01*
Y-177568D01*
X991594D01*
Y-177854D01*
Y-178140D01*
X991880D01*
Y-178426D01*
Y-178713D01*
X992166D01*
Y-178999D01*
Y-179285D01*
X992453D01*
Y-179572D01*
Y-179858D01*
X992739D01*
Y-180144D01*
Y-180431D01*
X993025D01*
Y-180717D01*
Y-181003D01*
X993312D01*
Y-181290D01*
Y-181576D01*
X993598D01*
Y-181862D01*
X993884D01*
Y-182149D01*
Y-182435D01*
X994171D01*
Y-182721D01*
Y-183007D01*
X994457D01*
Y-183294D01*
Y-183580D01*
X994743D01*
Y-183866D01*
Y-184153D01*
X995030D01*
Y-184439D01*
Y-184725D01*
X995316D01*
Y-185012D01*
Y-185298D01*
X995602D01*
Y-185584D01*
Y-185871D01*
X995889D01*
Y-186157D01*
X996175D01*
Y-186443D01*
Y-186730D01*
X996461D01*
Y-187016D01*
Y-187302D01*
X996747D01*
Y-187588D01*
Y-187875D01*
X997034D01*
Y-188161D01*
Y-188447D01*
X997320D01*
Y-188734D01*
Y-189020D01*
X997606D01*
Y-189306D01*
Y-189593D01*
X997893D01*
Y-189879D01*
Y-190165D01*
X998179D01*
Y-190452D01*
X998465D01*
Y-190738D01*
Y-191024D01*
X998752D01*
Y-191311D01*
Y-191597D01*
X999038D01*
Y-191883D01*
X983863D01*
Y-191597D01*
X983577D01*
Y-191311D01*
Y-191024D01*
Y-190738D01*
X983291D01*
Y-190452D01*
Y-190165D01*
Y-189879D01*
X983004D01*
Y-189593D01*
Y-189306D01*
X982718D01*
Y-189020D01*
Y-188734D01*
Y-188447D01*
X982432D01*
Y-188161D01*
Y-187875D01*
Y-187588D01*
X982146D01*
Y-187302D01*
Y-187016D01*
X981859D01*
Y-186730D01*
Y-186443D01*
Y-186157D01*
X981573D01*
Y-185871D01*
Y-185584D01*
Y-185298D01*
X981287D01*
Y-185012D01*
Y-184725D01*
Y-184439D01*
X981000D01*
Y-184153D01*
X980428D01*
Y-184439D01*
Y-184725D01*
X980141D01*
Y-185012D01*
X979855D01*
Y-185298D01*
Y-185584D01*
X979569D01*
Y-185871D01*
X979282D01*
Y-186157D01*
Y-186443D01*
X978996D01*
Y-186730D01*
X978710D01*
Y-187016D01*
Y-187302D01*
X978423D01*
Y-187588D01*
X978137D01*
Y-187875D01*
X977851D01*
Y-188161D01*
Y-188447D01*
X977565D01*
Y-188734D01*
X977278D01*
Y-189020D01*
Y-189306D01*
X976992D01*
Y-189593D01*
X976705D01*
Y-189879D01*
Y-190165D01*
X976419D01*
Y-190452D01*
X976133D01*
Y-190738D01*
Y-191024D01*
X975847D01*
Y-191311D01*
X975560D01*
Y-191597D01*
Y-191883D01*
X959527D01*
Y-191597D01*
X959813D01*
Y-191311D01*
X960099D01*
Y-191024D01*
X960386D01*
Y-190738D01*
X960672D01*
Y-190452D01*
Y-190165D01*
X960958D01*
Y-189879D01*
X961245D01*
Y-189593D01*
X961531D01*
Y-189306D01*
X961817D01*
Y-189020D01*
Y-188734D01*
X962104D01*
Y-188447D01*
X962390D01*
Y-188161D01*
X962676D01*
Y-187875D01*
Y-187588D01*
X962963D01*
Y-187302D01*
X963249D01*
Y-187016D01*
X963535D01*
Y-186730D01*
X963822D01*
Y-186443D01*
Y-186157D01*
X964108D01*
Y-185871D01*
X964394D01*
Y-185584D01*
X964680D01*
Y-185298D01*
X964967D01*
Y-185012D01*
Y-184725D01*
X965253D01*
Y-184439D01*
X965539D01*
Y-184153D01*
X965826D01*
Y-183866D01*
Y-183580D01*
X966112D01*
Y-183294D01*
X966398D01*
Y-183007D01*
X966685D01*
Y-182721D01*
X966971D01*
Y-182435D01*
Y-182149D01*
X967257D01*
Y-181862D01*
X967544D01*
Y-181576D01*
X967830D01*
Y-181290D01*
Y-181003D01*
X968116D01*
Y-180717D01*
X968402D01*
Y-180431D01*
X968689D01*
Y-180144D01*
X968975D01*
Y-179858D01*
Y-179572D01*
X969261D01*
Y-179285D01*
X969548D01*
Y-178999D01*
X969834D01*
Y-178713D01*
Y-178426D01*
X970120D01*
Y-178140D01*
X970407D01*
Y-177854D01*
X970693D01*
Y-177568D01*
X970979D01*
Y-177281D01*
Y-176995D01*
X971266D01*
Y-176709D01*
X971552D01*
Y-176422D01*
X971838D01*
Y-176136D01*
X972124D01*
Y-175850D01*
Y-175563D01*
X972411D01*
Y-175277D01*
X972697D01*
Y-174991D01*
X972983D01*
Y-174704D01*
Y-174418D01*
X973270D01*
Y-174132D01*
X973556D01*
Y-173845D01*
X973842D01*
Y-173559D01*
X974129D01*
Y-173273D01*
Y-172986D01*
X974415D01*
Y-172700D01*
Y-172414D01*
Y-172127D01*
X974129D01*
Y-171841D01*
X973842D01*
Y-171555D01*
Y-171269D01*
X973556D01*
Y-170982D01*
Y-170696D01*
X973270D01*
Y-170410D01*
Y-170123D01*
X972983D01*
Y-169837D01*
Y-169551D01*
X972697D01*
Y-169264D01*
Y-168978D01*
X972411D01*
Y-168692D01*
Y-168405D01*
X972124D01*
Y-168119D01*
X971838D01*
Y-167833D01*
Y-167547D01*
X971552D01*
Y-167260D01*
Y-166974D01*
X971266D01*
Y-166688D01*
Y-166401D01*
X970979D01*
Y-166115D01*
Y-165829D01*
X970693D01*
Y-165542D01*
Y-165256D01*
X970407D01*
Y-164970D01*
Y-164683D01*
X970120D01*
Y-164397D01*
X969834D01*
Y-164111D01*
Y-163824D01*
X969548D01*
Y-163538D01*
Y-163252D01*
X969261D01*
Y-162966D01*
Y-162679D01*
X968975D01*
Y-162393D01*
Y-162107D01*
X968689D01*
Y-161820D01*
Y-161534D01*
X968402D01*
Y-161248D01*
Y-160961D01*
X968116D01*
Y-160675D01*
Y-160389D01*
X967830D01*
Y-160102D01*
X967544D01*
Y-159816D01*
Y-159530D01*
X967257D01*
Y-159244D01*
Y-158957D01*
X966971D01*
Y-158671D01*
Y-158385D01*
X966685D01*
Y-158098D01*
Y-157812D01*
X966398D01*
Y-157526D01*
Y-157239D01*
X966112D01*
Y-156953D01*
Y-156667D01*
X965826D01*
Y-156380D01*
X965539D01*
Y-156094D01*
Y-155808D01*
X965253D01*
Y-155521D01*
X981000D01*
Y-155808D01*
X981287D01*
Y-156094D01*
Y-156380D01*
Y-156667D01*
X981573D01*
Y-156953D01*
Y-157239D01*
Y-157526D01*
X981859D01*
Y-157812D01*
Y-158098D01*
Y-158385D01*
X982146D01*
Y-158671D01*
Y-158957D01*
Y-159244D01*
X982432D01*
Y-159530D01*
Y-159816D01*
Y-160102D01*
X982718D01*
Y-160389D01*
Y-160675D01*
Y-160961D01*
X983004D01*
Y-161248D01*
Y-161534D01*
Y-161820D01*
X983291D01*
Y-162107D01*
Y-162393D01*
Y-162679D01*
X983577D01*
Y-162966D01*
Y-163252D01*
Y-163538D01*
Y-163824D01*
X984150D01*
Y-163538D01*
X984436D01*
Y-163252D01*
X984722D01*
Y-162966D01*
Y-162679D01*
X985009D01*
Y-162393D01*
X985295D01*
Y-162107D01*
Y-161820D01*
X985581D01*
Y-161534D01*
X985868D01*
Y-161248D01*
Y-160961D01*
X986154D01*
Y-160675D01*
X986440D01*
Y-160389D01*
Y-160102D01*
X986726D01*
Y-159816D01*
X987013D01*
Y-159530D01*
Y-159244D01*
X987299D01*
Y-158957D01*
X987585D01*
Y-158671D01*
Y-158385D01*
X987872D01*
Y-158098D01*
X988158D01*
Y-157812D01*
Y-157526D01*
X988444D01*
Y-157239D01*
X988731D01*
Y-156953D01*
Y-156667D01*
X989017D01*
Y-156380D01*
X989303D01*
Y-156094D01*
Y-155808D01*
X989590D01*
Y-155521D01*
X1005337D01*
Y-155808D01*
D02*
G37*
G36*
X872201Y-141778D02*
X873919D01*
Y-142065D01*
X874778D01*
Y-142351D01*
X875637D01*
Y-142637D01*
X876496D01*
Y-142924D01*
X877069D01*
Y-143210D01*
X877355D01*
Y-143496D01*
X877928D01*
Y-143783D01*
X878214D01*
Y-144069D01*
X878786D01*
Y-144355D01*
X879073D01*
Y-144641D01*
X879359D01*
Y-144928D01*
X879646D01*
Y-145214D01*
X879932D01*
Y-145501D01*
X880218D01*
Y-145787D01*
X880504D01*
Y-146073D01*
Y-146359D01*
X880791D01*
Y-146646D01*
X881077D01*
Y-146932D01*
Y-147218D01*
X881363D01*
Y-147505D01*
X881650D01*
Y-147791D01*
Y-148077D01*
X881936D01*
Y-148364D01*
Y-148650D01*
Y-148936D01*
X882222D01*
Y-149223D01*
Y-149509D01*
Y-149795D01*
X882509D01*
Y-150082D01*
Y-150368D01*
Y-150654D01*
Y-150940D01*
X882795D01*
Y-151227D01*
Y-151513D01*
Y-151799D01*
Y-152086D01*
Y-152372D01*
X883081D01*
Y-152658D01*
Y-152945D01*
Y-153231D01*
Y-153517D01*
Y-153804D01*
Y-154090D01*
Y-154376D01*
Y-154663D01*
Y-154949D01*
Y-155235D01*
Y-155521D01*
Y-155808D01*
Y-156094D01*
Y-156380D01*
Y-156667D01*
Y-156953D01*
Y-157239D01*
Y-157526D01*
Y-157812D01*
Y-158098D01*
X882795D01*
Y-158385D01*
Y-158671D01*
Y-158957D01*
Y-159244D01*
Y-159530D01*
Y-159816D01*
Y-160102D01*
X882509D01*
Y-160389D01*
Y-160675D01*
Y-160961D01*
Y-161248D01*
Y-161534D01*
X882222D01*
Y-161820D01*
Y-162107D01*
Y-162393D01*
Y-162679D01*
Y-162966D01*
X881936D01*
Y-163252D01*
Y-163538D01*
Y-163824D01*
X881650D01*
Y-164111D01*
Y-164397D01*
Y-164683D01*
Y-164970D01*
X881363D01*
Y-165256D01*
Y-165542D01*
Y-165829D01*
X881077D01*
Y-166115D01*
Y-166401D01*
X880791D01*
Y-166688D01*
Y-166974D01*
Y-167260D01*
X880504D01*
Y-167547D01*
Y-167833D01*
X880218D01*
Y-168119D01*
Y-168405D01*
X879932D01*
Y-168692D01*
Y-168978D01*
X879646D01*
Y-169264D01*
X879359D01*
Y-169551D01*
Y-169837D01*
X879073D01*
Y-170123D01*
X878786D01*
Y-170410D01*
X878500D01*
Y-170696D01*
Y-170982D01*
X878214D01*
Y-171269D01*
X877928D01*
Y-171555D01*
X877641D01*
Y-171841D01*
X877355D01*
Y-172127D01*
X877069D01*
Y-172414D01*
X876496D01*
Y-172700D01*
X876210D01*
Y-172986D01*
X875637D01*
Y-173273D01*
X875351D01*
Y-173559D01*
X874778D01*
Y-173845D01*
X873919D01*
Y-174132D01*
X873060D01*
Y-174418D01*
X872201D01*
Y-174704D01*
X870483D01*
Y-174991D01*
X865330D01*
Y-174704D01*
X862753D01*
Y-174418D01*
X860749D01*
Y-174132D01*
X859317D01*
Y-173845D01*
X857886D01*
Y-173559D01*
X856454D01*
Y-173845D01*
Y-174132D01*
Y-174418D01*
Y-174704D01*
Y-174991D01*
Y-175277D01*
Y-175563D01*
X856168D01*
Y-175850D01*
Y-176136D01*
Y-176422D01*
Y-176709D01*
Y-176995D01*
Y-177281D01*
X855882D01*
Y-177568D01*
Y-177854D01*
Y-178140D01*
Y-178426D01*
Y-178713D01*
Y-178999D01*
X855595D01*
Y-179285D01*
Y-179572D01*
Y-179858D01*
Y-180144D01*
Y-180431D01*
Y-180717D01*
Y-181003D01*
X855309D01*
Y-181290D01*
Y-181576D01*
Y-181862D01*
Y-182149D01*
Y-182435D01*
Y-182721D01*
X855023D01*
Y-183007D01*
Y-183294D01*
Y-183580D01*
Y-183866D01*
Y-184153D01*
Y-184439D01*
X854736D01*
Y-184725D01*
Y-185012D01*
Y-185298D01*
Y-185584D01*
Y-185871D01*
Y-186157D01*
Y-186443D01*
X854450D01*
Y-186730D01*
Y-187016D01*
Y-187302D01*
Y-187588D01*
Y-187875D01*
Y-188161D01*
X854164D01*
Y-188447D01*
Y-188734D01*
Y-189020D01*
Y-189306D01*
Y-189593D01*
Y-189879D01*
X853877D01*
Y-190165D01*
Y-190452D01*
Y-190738D01*
Y-191024D01*
Y-191311D01*
Y-191597D01*
Y-191883D01*
X840421D01*
Y-191597D01*
X840707D01*
Y-191311D01*
Y-191024D01*
Y-190738D01*
Y-190452D01*
Y-190165D01*
X840993D01*
Y-189879D01*
Y-189593D01*
Y-189306D01*
Y-189020D01*
Y-188734D01*
Y-188447D01*
Y-188161D01*
X841280D01*
Y-187875D01*
Y-187588D01*
Y-187302D01*
Y-187016D01*
Y-186730D01*
Y-186443D01*
X841566D01*
Y-186157D01*
Y-185871D01*
Y-185584D01*
Y-185298D01*
Y-185012D01*
Y-184725D01*
X841852D01*
Y-184439D01*
Y-184153D01*
Y-183866D01*
Y-183580D01*
Y-183294D01*
Y-183007D01*
Y-182721D01*
X842138D01*
Y-182435D01*
Y-182149D01*
Y-181862D01*
Y-181576D01*
Y-181290D01*
Y-181003D01*
X842425D01*
Y-180717D01*
Y-180431D01*
Y-180144D01*
Y-179858D01*
Y-179572D01*
Y-179285D01*
X842711D01*
Y-178999D01*
Y-178713D01*
Y-178426D01*
Y-178140D01*
Y-177854D01*
Y-177568D01*
X842997D01*
Y-177281D01*
Y-176995D01*
Y-176709D01*
Y-176422D01*
Y-176136D01*
Y-175850D01*
Y-175563D01*
X843284D01*
Y-175277D01*
Y-174991D01*
Y-174704D01*
Y-174418D01*
Y-174132D01*
Y-173845D01*
X843570D01*
Y-173559D01*
Y-173273D01*
Y-172986D01*
Y-172700D01*
Y-172414D01*
Y-172127D01*
X843856D01*
Y-171841D01*
Y-171555D01*
Y-171269D01*
Y-170982D01*
Y-170696D01*
Y-170410D01*
X844143D01*
Y-170123D01*
Y-169837D01*
Y-169551D01*
Y-169264D01*
Y-168978D01*
Y-168692D01*
Y-168405D01*
X844429D01*
Y-168119D01*
Y-167833D01*
Y-167547D01*
Y-167260D01*
Y-166974D01*
Y-166688D01*
X844715D01*
Y-166401D01*
Y-166115D01*
Y-165829D01*
Y-165542D01*
Y-165256D01*
Y-164970D01*
X845002D01*
Y-164683D01*
Y-164397D01*
Y-164111D01*
Y-163824D01*
Y-163538D01*
Y-163252D01*
Y-162966D01*
X845288D01*
Y-162679D01*
Y-162393D01*
Y-162107D01*
Y-161820D01*
Y-161534D01*
Y-161248D01*
X845574D01*
Y-160961D01*
Y-160675D01*
Y-160389D01*
Y-160102D01*
Y-159816D01*
Y-159530D01*
X845861D01*
Y-159244D01*
Y-158957D01*
Y-158671D01*
Y-158385D01*
Y-158098D01*
Y-157812D01*
X846147D01*
Y-157526D01*
Y-157239D01*
Y-156953D01*
Y-156667D01*
Y-156380D01*
Y-156094D01*
Y-155808D01*
X846433D01*
Y-155521D01*
Y-155235D01*
Y-154949D01*
Y-154663D01*
Y-154376D01*
Y-154090D01*
X846719D01*
Y-153804D01*
Y-153517D01*
Y-153231D01*
Y-152945D01*
Y-152658D01*
Y-152372D01*
X847006D01*
Y-152086D01*
Y-151799D01*
Y-151513D01*
Y-151227D01*
Y-150940D01*
Y-150654D01*
Y-150368D01*
X847292D01*
Y-150082D01*
Y-149795D01*
Y-149509D01*
Y-149223D01*
Y-148936D01*
Y-148650D01*
X847578D01*
Y-148364D01*
Y-148077D01*
Y-147791D01*
Y-147505D01*
Y-147218D01*
Y-146932D01*
X847865D01*
Y-146646D01*
Y-146359D01*
Y-146073D01*
Y-145787D01*
Y-145501D01*
Y-145214D01*
Y-144928D01*
X848151D01*
Y-144641D01*
Y-144355D01*
Y-144069D01*
Y-143783D01*
Y-143496D01*
Y-143210D01*
X848437D01*
Y-142924D01*
Y-142637D01*
Y-142351D01*
Y-142065D01*
Y-141778D01*
Y-141492D01*
X872201D01*
Y-141778D01*
D02*
G37*
G36*
X961245Y-155808D02*
Y-156094D01*
Y-156380D01*
Y-156667D01*
Y-156953D01*
Y-157239D01*
Y-157526D01*
Y-157812D01*
Y-158098D01*
Y-158385D01*
Y-158671D01*
Y-158957D01*
Y-159244D01*
Y-159530D01*
Y-159816D01*
Y-160102D01*
Y-160389D01*
Y-160675D01*
Y-160961D01*
Y-161248D01*
Y-161534D01*
X960958D01*
Y-161820D01*
Y-162107D01*
Y-162393D01*
Y-162679D01*
Y-162966D01*
X960672D01*
Y-163252D01*
Y-163538D01*
Y-163824D01*
Y-164111D01*
X960386D01*
Y-164397D01*
Y-164683D01*
Y-164970D01*
Y-165256D01*
X960099D01*
Y-165542D01*
Y-165829D01*
Y-166115D01*
X959813D01*
Y-166401D01*
Y-166688D01*
Y-166974D01*
X959527D01*
Y-167260D01*
Y-167547D01*
Y-167833D01*
X959241D01*
Y-168119D01*
Y-168405D01*
Y-168692D01*
X958954D01*
Y-168978D01*
Y-169264D01*
X958668D01*
Y-169551D01*
Y-169837D01*
X958381D01*
Y-170123D01*
Y-170410D01*
Y-170696D01*
X958095D01*
Y-170982D01*
Y-171269D01*
X957809D01*
Y-171555D01*
Y-171841D01*
Y-172127D01*
X957523D01*
Y-172414D01*
Y-172700D01*
X957236D01*
Y-172986D01*
Y-173273D01*
Y-173559D01*
X956950D01*
Y-173845D01*
Y-174132D01*
X956664D01*
Y-174418D01*
Y-174704D01*
Y-174991D01*
X956377D01*
Y-175277D01*
Y-175563D01*
X956091D01*
Y-175850D01*
Y-176136D01*
Y-176422D01*
X955805D01*
Y-176709D01*
Y-176995D01*
X955518D01*
Y-177281D01*
Y-177568D01*
Y-177854D01*
X955232D01*
Y-178140D01*
Y-178426D01*
X954946D01*
Y-178713D01*
Y-178999D01*
Y-179285D01*
X954659D01*
Y-179572D01*
Y-179858D01*
X954373D01*
Y-180144D01*
Y-180431D01*
Y-180717D01*
X954087D01*
Y-181003D01*
Y-181290D01*
X953800D01*
Y-181576D01*
Y-181862D01*
Y-182149D01*
X953514D01*
Y-182435D01*
Y-182721D01*
X953228D01*
Y-183007D01*
Y-183294D01*
Y-183580D01*
X952942D01*
Y-183866D01*
Y-184153D01*
X952655D01*
Y-184439D01*
Y-184725D01*
Y-185012D01*
X952369D01*
Y-185298D01*
Y-185584D01*
X952083D01*
Y-185871D01*
Y-186157D01*
Y-186443D01*
X951796D01*
Y-186730D01*
Y-187016D01*
X951510D01*
Y-187302D01*
Y-187588D01*
Y-187875D01*
X951224D01*
Y-188161D01*
Y-188447D01*
X950937D01*
Y-188734D01*
Y-189020D01*
Y-189306D01*
X950651D01*
Y-189593D01*
Y-189879D01*
X950365D01*
Y-190165D01*
Y-190452D01*
Y-190738D01*
X950078D01*
Y-191024D01*
Y-191311D01*
X949792D01*
Y-191597D01*
Y-191883D01*
Y-192169D01*
X949506D01*
Y-192456D01*
Y-192742D01*
X949220D01*
Y-193028D01*
Y-193315D01*
X948933D01*
Y-193601D01*
Y-193887D01*
X948647D01*
Y-194174D01*
Y-194460D01*
Y-194746D01*
X948361D01*
Y-195033D01*
X948074D01*
Y-195319D01*
Y-195605D01*
Y-195891D01*
X947788D01*
Y-196178D01*
X947502D01*
Y-196464D01*
Y-196750D01*
X947215D01*
Y-197037D01*
Y-197323D01*
X946929D01*
Y-197609D01*
Y-197896D01*
X946643D01*
Y-198182D01*
Y-198468D01*
X946356D01*
Y-198755D01*
X946070D01*
Y-199041D01*
Y-199327D01*
X945784D01*
Y-199614D01*
Y-199900D01*
X945497D01*
Y-200186D01*
X945211D01*
Y-200472D01*
X944925D01*
Y-200759D01*
Y-201045D01*
X944639D01*
Y-201331D01*
X944352D01*
Y-201618D01*
Y-201904D01*
X944066D01*
Y-202190D01*
X943780D01*
Y-202477D01*
X943493D01*
Y-202763D01*
Y-203049D01*
X943207D01*
Y-203336D01*
X942921D01*
Y-203622D01*
X942634D01*
Y-203908D01*
X942348D01*
Y-204195D01*
X942062D01*
Y-204481D01*
Y-204767D01*
X941775D01*
Y-205053D01*
X941489D01*
Y-205340D01*
X941203D01*
Y-205626D01*
X940916D01*
Y-205912D01*
X940630D01*
Y-206199D01*
X940344D01*
Y-206485D01*
X940057D01*
Y-206771D01*
X939485D01*
Y-207058D01*
X939199D01*
Y-207344D01*
X938912D01*
Y-207630D01*
X938626D01*
Y-207917D01*
X938340D01*
Y-208203D01*
X937767D01*
Y-208489D01*
X937481D01*
Y-208776D01*
X936908D01*
Y-209062D01*
X936622D01*
Y-209348D01*
X936049D01*
Y-209634D01*
X935763D01*
Y-209921D01*
X935190D01*
Y-210207D01*
X934618D01*
Y-210493D01*
X934045D01*
Y-210780D01*
X933472D01*
Y-211066D01*
X932900D01*
Y-211352D01*
X932041D01*
Y-211639D01*
X931468D01*
Y-211925D01*
X930609D01*
Y-212211D01*
X929464D01*
Y-212498D01*
X928319D01*
Y-212784D01*
X926601D01*
Y-213070D01*
X924597D01*
Y-213357D01*
X924310D01*
Y-213070D01*
Y-212784D01*
Y-212498D01*
Y-212211D01*
Y-211925D01*
Y-211639D01*
Y-211352D01*
Y-211066D01*
Y-210780D01*
Y-210493D01*
Y-210207D01*
Y-209921D01*
Y-209634D01*
Y-209348D01*
Y-209062D01*
Y-208776D01*
Y-208489D01*
Y-208203D01*
Y-207917D01*
Y-207630D01*
Y-207344D01*
Y-207058D01*
Y-206771D01*
Y-206485D01*
Y-206199D01*
Y-205912D01*
Y-205626D01*
Y-205340D01*
Y-205053D01*
Y-204767D01*
Y-204481D01*
Y-204195D01*
Y-203908D01*
X924883D01*
Y-203622D01*
X925455D01*
Y-203336D01*
X926028D01*
Y-203049D01*
X926601D01*
Y-202763D01*
X927173D01*
Y-202477D01*
X927746D01*
Y-202190D01*
X928032D01*
Y-201904D01*
X928605D01*
Y-201618D01*
X928891D01*
Y-201331D01*
X929464D01*
Y-201045D01*
X929750D01*
Y-200759D01*
X930037D01*
Y-200472D01*
X930609D01*
Y-200186D01*
X930896D01*
Y-199900D01*
X931182D01*
Y-199614D01*
X931468D01*
Y-199327D01*
X931754D01*
Y-199041D01*
X932041D01*
Y-198755D01*
X932327D01*
Y-198468D01*
X932613D01*
Y-198182D01*
X932900D01*
Y-197896D01*
X933186D01*
Y-197609D01*
X933472D01*
Y-197323D01*
X933759D01*
Y-197037D01*
Y-196750D01*
X934045D01*
Y-196464D01*
X934331D01*
Y-196178D01*
X934618D01*
Y-195891D01*
Y-195605D01*
X934904D01*
Y-195319D01*
X935190D01*
Y-195033D01*
Y-194746D01*
X935476D01*
Y-194460D01*
Y-194174D01*
X935763D01*
Y-193887D01*
X936049D01*
Y-193601D01*
Y-193315D01*
X936335D01*
Y-193028D01*
Y-192742D01*
X936622D01*
Y-192456D01*
Y-192169D01*
X934904D01*
Y-191883D01*
X932900D01*
Y-191597D01*
X931754D01*
Y-191311D01*
X931182D01*
Y-191024D01*
X930323D01*
Y-190738D01*
X929750D01*
Y-190452D01*
X929464D01*
Y-190165D01*
X928891D01*
Y-189879D01*
X928605D01*
Y-189593D01*
X928319D01*
Y-189306D01*
X928032D01*
Y-189020D01*
X927746D01*
Y-188734D01*
X927460D01*
Y-188447D01*
Y-188161D01*
X927173D01*
Y-187875D01*
X926887D01*
Y-187588D01*
Y-187302D01*
X926601D01*
Y-187016D01*
Y-186730D01*
X926315D01*
Y-186443D01*
Y-186157D01*
X926028D01*
Y-185871D01*
Y-185584D01*
Y-185298D01*
X925742D01*
Y-185012D01*
Y-184725D01*
Y-184439D01*
Y-184153D01*
X925455D01*
Y-183866D01*
Y-183580D01*
Y-183294D01*
Y-183007D01*
Y-182721D01*
Y-182435D01*
Y-182149D01*
X925169D01*
Y-181862D01*
Y-181576D01*
Y-181290D01*
Y-181003D01*
Y-180717D01*
Y-180431D01*
Y-180144D01*
Y-179858D01*
Y-179572D01*
Y-179285D01*
Y-178999D01*
Y-178713D01*
Y-178426D01*
Y-178140D01*
Y-177854D01*
X924883D01*
Y-177568D01*
Y-177281D01*
Y-176995D01*
Y-176709D01*
Y-176422D01*
Y-176136D01*
Y-175850D01*
Y-175563D01*
Y-175277D01*
Y-174991D01*
Y-174704D01*
Y-174418D01*
Y-174132D01*
Y-173845D01*
Y-173559D01*
X924597D01*
Y-173273D01*
Y-172986D01*
Y-172700D01*
Y-172414D01*
Y-172127D01*
Y-171841D01*
Y-171555D01*
Y-171269D01*
Y-170982D01*
Y-170696D01*
Y-170410D01*
Y-170123D01*
Y-169837D01*
Y-169551D01*
Y-169264D01*
Y-168978D01*
X924310D01*
Y-168692D01*
Y-168405D01*
Y-168119D01*
Y-167833D01*
Y-167547D01*
Y-167260D01*
Y-166974D01*
Y-166688D01*
Y-166401D01*
Y-166115D01*
Y-165829D01*
Y-165542D01*
Y-165256D01*
Y-164970D01*
Y-164683D01*
Y-164397D01*
X924024D01*
Y-164111D01*
Y-163824D01*
Y-163538D01*
Y-163252D01*
Y-162966D01*
Y-162679D01*
Y-162393D01*
Y-162107D01*
Y-161820D01*
Y-161534D01*
Y-161248D01*
Y-160961D01*
Y-160675D01*
Y-160389D01*
X923738D01*
Y-160102D01*
Y-159816D01*
Y-159530D01*
Y-159244D01*
Y-158957D01*
Y-158671D01*
Y-158385D01*
Y-158098D01*
Y-157812D01*
Y-157526D01*
Y-157239D01*
Y-156953D01*
Y-156667D01*
Y-156380D01*
Y-156094D01*
Y-155808D01*
X923451D01*
Y-155521D01*
X937194D01*
Y-155808D01*
Y-156094D01*
Y-156380D01*
Y-156667D01*
Y-156953D01*
Y-157239D01*
Y-157526D01*
Y-157812D01*
Y-158098D01*
Y-158385D01*
Y-158671D01*
Y-158957D01*
Y-159244D01*
Y-159530D01*
X937481D01*
Y-159816D01*
Y-160102D01*
Y-160389D01*
Y-160675D01*
Y-160961D01*
Y-161248D01*
Y-161534D01*
Y-161820D01*
Y-162107D01*
Y-162393D01*
Y-162679D01*
Y-162966D01*
Y-163252D01*
Y-163538D01*
Y-163824D01*
Y-164111D01*
Y-164397D01*
Y-164683D01*
Y-164970D01*
Y-165256D01*
Y-165542D01*
Y-165829D01*
Y-166115D01*
Y-166401D01*
Y-166688D01*
Y-166974D01*
Y-167260D01*
Y-167547D01*
Y-167833D01*
Y-168119D01*
Y-168405D01*
Y-168692D01*
Y-168978D01*
Y-169264D01*
Y-169551D01*
Y-169837D01*
Y-170123D01*
Y-170410D01*
Y-170696D01*
Y-170982D01*
Y-171269D01*
X937767D01*
Y-171555D01*
X937481D01*
Y-171841D01*
Y-172127D01*
X937767D01*
Y-172414D01*
Y-172700D01*
Y-172986D01*
Y-173273D01*
Y-173559D01*
Y-173845D01*
Y-174132D01*
Y-174418D01*
Y-174704D01*
Y-174991D01*
Y-175277D01*
Y-175563D01*
Y-175850D01*
Y-176136D01*
Y-176422D01*
Y-176709D01*
Y-176995D01*
Y-177281D01*
Y-177568D01*
Y-177854D01*
Y-178140D01*
Y-178426D01*
Y-178713D01*
Y-178999D01*
Y-179285D01*
Y-179572D01*
X938053D01*
Y-179858D01*
Y-180144D01*
Y-180431D01*
X938340D01*
Y-180717D01*
X938626D01*
Y-181003D01*
X938912D01*
Y-181290D01*
X939771D01*
Y-181576D01*
X940630D01*
Y-181290D01*
X940916D01*
Y-181003D01*
Y-180717D01*
Y-180431D01*
X941203D01*
Y-180144D01*
Y-179858D01*
X941489D01*
Y-179572D01*
Y-179285D01*
Y-178999D01*
X941775D01*
Y-178713D01*
Y-178426D01*
Y-178140D01*
X942062D01*
Y-177854D01*
Y-177568D01*
Y-177281D01*
X942348D01*
Y-176995D01*
Y-176709D01*
Y-176422D01*
X942634D01*
Y-176136D01*
Y-175850D01*
X942921D01*
Y-175563D01*
Y-175277D01*
Y-174991D01*
X943207D01*
Y-174704D01*
Y-174418D01*
Y-174132D01*
X943493D01*
Y-173845D01*
Y-173559D01*
Y-173273D01*
X943780D01*
Y-172986D01*
Y-172700D01*
X944066D01*
Y-172414D01*
Y-172127D01*
Y-171841D01*
X944352D01*
Y-171555D01*
Y-171269D01*
Y-170982D01*
X944639D01*
Y-170696D01*
Y-170410D01*
Y-170123D01*
X944925D01*
Y-169837D01*
Y-169551D01*
X945211D01*
Y-169264D01*
Y-168978D01*
Y-168692D01*
X945497D01*
Y-168405D01*
Y-168119D01*
Y-167833D01*
X945784D01*
Y-167547D01*
Y-167260D01*
Y-166974D01*
X946070D01*
Y-166688D01*
Y-166401D01*
X946356D01*
Y-166115D01*
Y-165829D01*
Y-165542D01*
X946643D01*
Y-165256D01*
Y-164970D01*
Y-164683D01*
X946929D01*
Y-164397D01*
Y-164111D01*
Y-163824D01*
X947215D01*
Y-163538D01*
Y-163252D01*
Y-162966D01*
Y-162679D01*
X947502D01*
Y-162393D01*
Y-162107D01*
Y-161820D01*
Y-161534D01*
X947788D01*
Y-161248D01*
Y-160961D01*
Y-160675D01*
Y-160389D01*
Y-160102D01*
X948074D01*
Y-159816D01*
Y-159530D01*
Y-159244D01*
Y-158957D01*
Y-158671D01*
Y-158385D01*
X948361D01*
Y-158098D01*
Y-157812D01*
Y-157526D01*
Y-157239D01*
Y-156953D01*
Y-156667D01*
Y-156380D01*
Y-156094D01*
Y-155808D01*
Y-155521D01*
X961245D01*
Y-155808D01*
D02*
G37*
G36*
X903409Y-138343D02*
Y-138629D01*
X903123D01*
Y-138915D01*
Y-139202D01*
Y-139488D01*
Y-139774D01*
Y-140060D01*
Y-140347D01*
X902837D01*
Y-140633D01*
Y-140919D01*
Y-141206D01*
Y-141492D01*
Y-141778D01*
Y-142065D01*
X902551D01*
Y-142351D01*
Y-142637D01*
Y-142924D01*
Y-143210D01*
Y-143496D01*
Y-143783D01*
Y-144069D01*
X902264D01*
Y-144355D01*
Y-144641D01*
Y-144928D01*
Y-145214D01*
Y-145501D01*
Y-145787D01*
X901978D01*
Y-146073D01*
Y-146359D01*
Y-146646D01*
Y-146932D01*
Y-147218D01*
Y-147505D01*
X901692D01*
Y-147791D01*
Y-148077D01*
Y-148364D01*
Y-148650D01*
Y-148936D01*
Y-149223D01*
Y-149509D01*
X901405D01*
Y-149795D01*
Y-150082D01*
Y-150368D01*
Y-150654D01*
Y-150940D01*
Y-151227D01*
X901119D01*
Y-151513D01*
Y-151799D01*
Y-152086D01*
Y-152372D01*
Y-152658D01*
Y-152945D01*
X900833D01*
Y-153231D01*
Y-153517D01*
Y-153804D01*
Y-154090D01*
Y-154376D01*
Y-154663D01*
X900546D01*
Y-154949D01*
Y-155235D01*
Y-155521D01*
Y-155808D01*
Y-156094D01*
Y-156380D01*
Y-156667D01*
X900260D01*
Y-156953D01*
Y-157239D01*
Y-157526D01*
Y-157812D01*
Y-158098D01*
Y-158385D01*
X899974D01*
Y-158671D01*
Y-158957D01*
X900546D01*
Y-158671D01*
X900833D01*
Y-158385D01*
X901119D01*
Y-158098D01*
X901692D01*
Y-157812D01*
X901978D01*
Y-157526D01*
X902264D01*
Y-157239D01*
X902837D01*
Y-156953D01*
X903409D01*
Y-156667D01*
X903696D01*
Y-156380D01*
X904268D01*
Y-156094D01*
X905127D01*
Y-155808D01*
X905700D01*
Y-155521D01*
X906559D01*
Y-155235D01*
X907990D01*
Y-154949D01*
X914289D01*
Y-155235D01*
X915435D01*
Y-155521D01*
X916294D01*
Y-155808D01*
X916866D01*
Y-156094D01*
X917153D01*
Y-156380D01*
X917725D01*
Y-156667D01*
X918011D01*
Y-156953D01*
X918298D01*
Y-157239D01*
X918584D01*
Y-157526D01*
X918870D01*
Y-157812D01*
Y-158098D01*
X919157D01*
Y-158385D01*
Y-158671D01*
X919443D01*
Y-158957D01*
Y-159244D01*
Y-159530D01*
X919729D01*
Y-159816D01*
Y-160102D01*
Y-160389D01*
Y-160675D01*
X920016D01*
Y-160961D01*
Y-161248D01*
Y-161534D01*
Y-161820D01*
Y-162107D01*
Y-162393D01*
Y-162679D01*
Y-162966D01*
Y-163252D01*
Y-163538D01*
Y-163824D01*
Y-164111D01*
Y-164397D01*
Y-164683D01*
Y-164970D01*
Y-165256D01*
Y-165542D01*
Y-165829D01*
X919729D01*
Y-166115D01*
Y-166401D01*
Y-166688D01*
Y-166974D01*
Y-167260D01*
Y-167547D01*
Y-167833D01*
X919443D01*
Y-168119D01*
Y-168405D01*
Y-168692D01*
Y-168978D01*
Y-169264D01*
Y-169551D01*
Y-169837D01*
X919157D01*
Y-170123D01*
Y-170410D01*
Y-170696D01*
Y-170982D01*
Y-171269D01*
Y-171555D01*
X918870D01*
Y-171841D01*
Y-172127D01*
Y-172414D01*
Y-172700D01*
Y-172986D01*
Y-173273D01*
X918584D01*
Y-173559D01*
Y-173845D01*
Y-174132D01*
Y-174418D01*
Y-174704D01*
Y-174991D01*
X918298D01*
Y-175277D01*
Y-175563D01*
Y-175850D01*
Y-176136D01*
Y-176422D01*
Y-176709D01*
Y-176995D01*
X918011D01*
Y-177281D01*
Y-177568D01*
Y-177854D01*
Y-178140D01*
Y-178426D01*
Y-178713D01*
X917725D01*
Y-178999D01*
Y-179285D01*
Y-179572D01*
Y-179858D01*
Y-180144D01*
Y-180431D01*
X917439D01*
Y-180717D01*
Y-181003D01*
Y-181290D01*
Y-181576D01*
Y-181862D01*
Y-182149D01*
Y-182435D01*
X917153D01*
Y-182721D01*
Y-183007D01*
Y-183294D01*
Y-183580D01*
Y-183866D01*
Y-184153D01*
X916866D01*
Y-184439D01*
Y-184725D01*
Y-185012D01*
Y-185298D01*
Y-185584D01*
Y-185871D01*
X916580D01*
Y-186157D01*
Y-186443D01*
Y-186730D01*
Y-187016D01*
Y-187302D01*
Y-187588D01*
X916294D01*
Y-187875D01*
Y-188161D01*
Y-188447D01*
Y-188734D01*
Y-189020D01*
Y-189306D01*
Y-189593D01*
X916007D01*
Y-189879D01*
Y-190165D01*
Y-190452D01*
Y-190738D01*
Y-191024D01*
Y-191311D01*
X915721D01*
Y-191597D01*
Y-191883D01*
X902551D01*
Y-191597D01*
Y-191311D01*
X902837D01*
Y-191024D01*
Y-190738D01*
Y-190452D01*
Y-190165D01*
Y-189879D01*
Y-189593D01*
X903123D01*
Y-189306D01*
Y-189020D01*
Y-188734D01*
Y-188447D01*
Y-188161D01*
Y-187875D01*
Y-187588D01*
X903409D01*
Y-187302D01*
Y-187016D01*
Y-186730D01*
Y-186443D01*
Y-186157D01*
Y-185871D01*
X903696D01*
Y-185584D01*
Y-185298D01*
Y-185012D01*
Y-184725D01*
Y-184439D01*
Y-184153D01*
X903982D01*
Y-183866D01*
Y-183580D01*
Y-183294D01*
Y-183007D01*
Y-182721D01*
Y-182435D01*
Y-182149D01*
X904268D01*
Y-181862D01*
Y-181576D01*
Y-181290D01*
Y-181003D01*
Y-180717D01*
Y-180431D01*
X904555D01*
Y-180144D01*
Y-179858D01*
Y-179572D01*
Y-179285D01*
Y-178999D01*
Y-178713D01*
Y-178426D01*
X904841D01*
Y-178140D01*
Y-177854D01*
Y-177568D01*
Y-177281D01*
Y-176995D01*
Y-176709D01*
X905127D01*
Y-176422D01*
Y-176136D01*
Y-175850D01*
Y-175563D01*
Y-175277D01*
Y-174991D01*
X905414D01*
Y-174704D01*
Y-174418D01*
Y-174132D01*
Y-173845D01*
Y-173559D01*
Y-173273D01*
X905700D01*
Y-172986D01*
Y-172700D01*
Y-172414D01*
Y-172127D01*
Y-171841D01*
Y-171555D01*
Y-171269D01*
X905986D01*
Y-170982D01*
Y-170696D01*
Y-170410D01*
Y-170123D01*
Y-169837D01*
Y-169551D01*
X906273D01*
Y-169264D01*
Y-168978D01*
Y-168692D01*
Y-168405D01*
Y-168119D01*
Y-167833D01*
Y-167547D01*
X906559D01*
Y-167260D01*
Y-166974D01*
Y-166688D01*
Y-166401D01*
Y-166115D01*
Y-165829D01*
X906273D01*
Y-165542D01*
Y-165256D01*
X905986D01*
Y-164970D01*
X905700D01*
Y-164683D01*
X905127D01*
Y-164397D01*
X903409D01*
Y-164683D01*
X901978D01*
Y-164970D01*
X901119D01*
Y-165256D01*
X900546D01*
Y-165542D01*
X900260D01*
Y-165829D01*
X899687D01*
Y-166115D01*
X899401D01*
Y-166401D01*
X899115D01*
Y-166688D01*
Y-166974D01*
X898828D01*
Y-167260D01*
Y-167547D01*
Y-167833D01*
X898542D01*
Y-168119D01*
Y-168405D01*
Y-168692D01*
Y-168978D01*
Y-169264D01*
Y-169551D01*
X898256D01*
Y-169837D01*
Y-170123D01*
Y-170410D01*
Y-170696D01*
Y-170982D01*
Y-171269D01*
Y-171555D01*
X897970D01*
Y-171841D01*
Y-172127D01*
Y-172414D01*
Y-172700D01*
Y-172986D01*
Y-173273D01*
X897683D01*
Y-173559D01*
Y-173845D01*
Y-174132D01*
Y-174418D01*
Y-174704D01*
Y-174991D01*
X897397D01*
Y-175277D01*
Y-175563D01*
Y-175850D01*
Y-176136D01*
Y-176422D01*
Y-176709D01*
X897111D01*
Y-176995D01*
Y-177281D01*
Y-177568D01*
Y-177854D01*
Y-178140D01*
Y-178426D01*
Y-178713D01*
X896824D01*
Y-178999D01*
Y-179285D01*
Y-179572D01*
Y-179858D01*
Y-180144D01*
Y-180431D01*
X896538D01*
Y-180717D01*
Y-181003D01*
Y-181290D01*
Y-181576D01*
Y-181862D01*
Y-182149D01*
X896252D01*
Y-182435D01*
Y-182721D01*
Y-183007D01*
Y-183294D01*
Y-183580D01*
Y-183866D01*
Y-184153D01*
X895965D01*
Y-184439D01*
Y-184725D01*
Y-185012D01*
Y-185298D01*
Y-185584D01*
Y-185871D01*
X895679D01*
Y-186157D01*
Y-186443D01*
Y-186730D01*
Y-187016D01*
Y-187302D01*
Y-187588D01*
X895393D01*
Y-187875D01*
Y-188161D01*
Y-188447D01*
Y-188734D01*
Y-189020D01*
Y-189306D01*
X895106D01*
Y-189593D01*
Y-189879D01*
Y-190165D01*
Y-190452D01*
Y-190738D01*
Y-191024D01*
Y-191311D01*
X894820D01*
Y-191597D01*
Y-191883D01*
X881650D01*
Y-191597D01*
Y-191311D01*
X881936D01*
Y-191024D01*
Y-190738D01*
Y-190452D01*
Y-190165D01*
Y-189879D01*
Y-189593D01*
Y-189306D01*
X882222D01*
Y-189020D01*
Y-188734D01*
Y-188447D01*
Y-188161D01*
Y-187875D01*
Y-187588D01*
X882509D01*
Y-187302D01*
Y-187016D01*
Y-186730D01*
Y-186443D01*
Y-186157D01*
Y-185871D01*
X882795D01*
Y-185584D01*
Y-185298D01*
Y-185012D01*
Y-184725D01*
Y-184439D01*
Y-184153D01*
Y-183866D01*
X883081D01*
Y-183580D01*
Y-183294D01*
Y-183007D01*
Y-182721D01*
Y-182435D01*
Y-182149D01*
X883368D01*
Y-181862D01*
Y-181576D01*
Y-181290D01*
Y-181003D01*
Y-180717D01*
Y-180431D01*
X883654D01*
Y-180144D01*
Y-179858D01*
Y-179572D01*
Y-179285D01*
Y-178999D01*
Y-178713D01*
X883940D01*
Y-178426D01*
Y-178140D01*
Y-177854D01*
Y-177568D01*
Y-177281D01*
Y-176995D01*
Y-176709D01*
X884227D01*
Y-176422D01*
Y-176136D01*
Y-175850D01*
Y-175563D01*
Y-175277D01*
Y-174991D01*
X884513D01*
Y-174704D01*
Y-174418D01*
Y-174132D01*
Y-173845D01*
Y-173559D01*
Y-173273D01*
X884799D01*
Y-172986D01*
Y-172700D01*
Y-172414D01*
Y-172127D01*
Y-171841D01*
Y-171555D01*
Y-171269D01*
X885085D01*
Y-170982D01*
Y-170696D01*
Y-170410D01*
Y-170123D01*
Y-169837D01*
Y-169551D01*
X885372D01*
Y-169264D01*
Y-168978D01*
Y-168692D01*
Y-168405D01*
Y-168119D01*
Y-167833D01*
X885658D01*
Y-167547D01*
Y-167260D01*
Y-166974D01*
Y-166688D01*
Y-166401D01*
Y-166115D01*
X885944D01*
Y-165829D01*
Y-165542D01*
Y-165256D01*
Y-164970D01*
Y-164683D01*
Y-164397D01*
Y-164111D01*
X886231D01*
Y-163824D01*
Y-163538D01*
Y-163252D01*
Y-162966D01*
Y-162679D01*
Y-162393D01*
X886517D01*
Y-162107D01*
Y-161820D01*
Y-161534D01*
Y-161248D01*
Y-160961D01*
Y-160675D01*
X886803D01*
Y-160389D01*
Y-160102D01*
Y-159816D01*
Y-159530D01*
Y-159244D01*
Y-158957D01*
X887090D01*
Y-158671D01*
Y-158385D01*
Y-158098D01*
Y-157812D01*
Y-157526D01*
Y-157239D01*
Y-156953D01*
X887376D01*
Y-156667D01*
Y-156380D01*
Y-156094D01*
Y-155808D01*
Y-155521D01*
Y-155235D01*
X887662D01*
Y-154949D01*
Y-154663D01*
Y-154376D01*
Y-154090D01*
Y-153804D01*
Y-153517D01*
X887949D01*
Y-153231D01*
Y-152945D01*
Y-152658D01*
Y-152372D01*
Y-152086D01*
Y-151799D01*
Y-151513D01*
X888235D01*
Y-151227D01*
Y-150940D01*
Y-150654D01*
Y-150368D01*
Y-150082D01*
Y-149795D01*
X888521D01*
Y-149509D01*
Y-149223D01*
Y-148936D01*
Y-148650D01*
Y-148364D01*
Y-148077D01*
X888807D01*
Y-147791D01*
Y-147505D01*
Y-147218D01*
Y-146932D01*
Y-146646D01*
Y-146359D01*
X889094D01*
Y-146073D01*
Y-145787D01*
Y-145501D01*
Y-145214D01*
Y-144928D01*
Y-144641D01*
Y-144355D01*
X889380D01*
Y-144069D01*
Y-143783D01*
Y-143496D01*
Y-143210D01*
Y-142924D01*
Y-142637D01*
X889666D01*
Y-142351D01*
Y-142065D01*
Y-141778D01*
Y-141492D01*
Y-141206D01*
Y-140919D01*
X889953D01*
Y-140633D01*
Y-140347D01*
Y-140060D01*
Y-139774D01*
Y-139488D01*
Y-139202D01*
Y-138915D01*
X890239D01*
Y-138629D01*
Y-138343D01*
Y-138056D01*
X903409D01*
Y-138343D01*
D02*
G37*
%LPC*%
G36*
X867907Y-152658D02*
X859890D01*
Y-152945D01*
Y-153231D01*
Y-153517D01*
Y-153804D01*
Y-154090D01*
X859604D01*
Y-154376D01*
Y-154663D01*
Y-154949D01*
Y-155235D01*
Y-155521D01*
Y-155808D01*
X859317D01*
Y-156094D01*
Y-156380D01*
Y-156667D01*
Y-156953D01*
Y-157239D01*
Y-157526D01*
X859031D01*
Y-157812D01*
Y-158098D01*
Y-158385D01*
Y-158671D01*
Y-158957D01*
Y-159244D01*
X858745D01*
Y-159530D01*
Y-159816D01*
Y-160102D01*
Y-160389D01*
Y-160675D01*
Y-160961D01*
Y-161248D01*
X858458D01*
Y-161534D01*
Y-161820D01*
Y-162107D01*
Y-162393D01*
Y-162679D01*
Y-162966D01*
X858172D01*
Y-163252D01*
Y-163538D01*
Y-163824D01*
X865330D01*
Y-163538D01*
X866475D01*
Y-163252D01*
X867048D01*
Y-162966D01*
X867334D01*
Y-162679D01*
X867620D01*
Y-162393D01*
X867907D01*
Y-162107D01*
X868193D01*
Y-161820D01*
Y-161534D01*
X868479D01*
Y-161248D01*
Y-160961D01*
X868766D01*
Y-160675D01*
Y-160389D01*
X869052D01*
Y-160102D01*
Y-159816D01*
Y-159530D01*
Y-159244D01*
X869338D01*
Y-158957D01*
Y-158671D01*
Y-158385D01*
Y-158098D01*
Y-157812D01*
X869625D01*
Y-157526D01*
Y-157239D01*
Y-156953D01*
Y-156667D01*
Y-156380D01*
Y-156094D01*
Y-155808D01*
Y-155521D01*
Y-155235D01*
Y-154949D01*
Y-154663D01*
X869338D01*
Y-154376D01*
Y-154090D01*
X869052D01*
Y-153804D01*
Y-153517D01*
X868766D01*
Y-153231D01*
X868479D01*
Y-152945D01*
X867907D01*
Y-152658D01*
D02*
G37*
%LPD*%
D11*
X152352Y63395D02*
G03*
X158079Y61023I5727J5727D01*
G01*
X139913Y66339D02*
G03*
X141338Y66929I0J2015D01*
G01*
X137795Y80733D02*
G03*
X140039Y75316I7660J-0D01*
G01*
X140724Y90527D02*
G03*
X137795Y83456I7071J-7071D01*
G01*
X144661Y90528D02*
G03*
X141733Y83457I7071J-7071D01*
G01*
X145669Y91535D02*
G03*
X147244Y95337I-3802J3802D01*
G01*
X147638Y89567D02*
G03*
X149665Y94462I-4895J4895D01*
G01*
X147614Y89543D02*
G03*
X145065Y83390I6154J-6154D01*
G01*
X141756Y58095D02*
G03*
X145065Y66083I-7988J7988D01*
G01*
X174606Y76825D02*
G03*
X173774Y77658I-833J0D01*
G01*
X166732Y61023D02*
G03*
X174606Y68898I0J7874D01*
G01*
X142717Y92520D02*
G03*
X144665Y97224I-4705J4705D01*
G01*
X131291Y51772D02*
G03*
X138362Y54701I0J10000D01*
G01*
X179134Y61292D02*
G03*
X182063Y54221I10000J0D01*
G01*
X184079Y58047D02*
G03*
X191150Y55118I7071J7071D01*
G01*
X182087Y62857D02*
G03*
X184078Y58048I6802J0D01*
G01*
X168110Y55118D02*
G03*
X176181Y63189I0J8071D01*
G01*
X182087Y125000D02*
G03*
X169291Y137795I-12795J0D01*
G01*
X179134Y120905D02*
G03*
X166181Y133858I-12953J0D01*
G01*
X176181Y117239D02*
G03*
X165467Y127953I-10714J0D01*
G01*
X278520Y159473D02*
G03*
X271448Y162402I-7071J-7071D01*
G01*
X146760D02*
G03*
X139689Y159473I0J-10000D01*
G01*
X124665Y159449D02*
G03*
X119913Y161417I-4752J-4752D01*
G01*
X75787D02*
G03*
X67913Y153543I0J-7874D01*
G01*
X57913Y135827D02*
G03*
X67913Y145827I0J10000D01*
G01*
X32685Y135827D02*
G03*
X25614Y132898I0J-10000D01*
G01*
X50402Y133858D02*
G03*
X43331Y130929I0J-10000D01*
G01*
X76772Y159449D02*
G03*
X70866Y153543I0J-5906D01*
G01*
X60866Y133858D02*
G03*
X70866Y143858I0J10000D01*
G01*
X244665Y138473D02*
G03*
X249281Y133858I4615J0D01*
G01*
X239665Y135599D02*
G03*
X245343Y129921I5678J0D01*
G01*
X326772Y125107D02*
G03*
X318021Y133858I-8751J0D01*
G01*
X316772Y121170D02*
G03*
X308021Y129921I-8751J0D01*
G01*
X263779Y100389D02*
G03*
X253932Y110236I-9847J0D01*
G01*
X259842Y96609D02*
G03*
X250153Y106299I-9690J0D01*
G01*
X184665Y112515D02*
G03*
X194818Y102362I10153J0D01*
G01*
X281496Y104326D02*
G03*
X271649Y114173I-9847J0D01*
G01*
X204665Y122346D02*
G03*
X208814Y118110I4149J-87D01*
G01*
X236221Y92515D02*
G03*
X226373Y102362I-9847J0D01*
G01*
X189665Y120389D02*
G03*
X199818Y110236I10153J0D01*
G01*
X187140Y116452D02*
G03*
X197292Y106299I10153J0D01*
G01*
X284843Y108263D02*
G03*
X274995Y118110I-9847J0D01*
G01*
X194665Y123253D02*
G03*
X203745Y114173I9079J0D01*
G01*
X106693Y159449D02*
G03*
X104724Y157480I0J-1969D01*
G01*
X122146Y157382D02*
G03*
X120079Y159449I-2067J0D01*
G01*
X122146Y144783D02*
G03*
X123622Y143307I1476J0D01*
G01*
X140551D02*
G03*
X142126Y144882I0J1575D01*
G01*
X143701Y159449D02*
G03*
X142126Y157874I0J-1575D01*
G01*
X147205Y157913D02*
G03*
X145669Y159449I-1535J0D01*
G01*
X223464Y52189D02*
G03*
X216393Y55118I-7071J-7071D01*
G01*
X159180D02*
G03*
X152327Y52280I0J-9691D01*
G01*
X147205Y146063D02*
G03*
X147205Y146062I886J0D01*
G01*
X188583Y159449D02*
G03*
X187140Y158006I0J-1443D01*
G01*
X199665Y157421D02*
G03*
X197638Y159449I-2028J0D01*
G01*
X154665Y137953D02*
G03*
X164665Y127953I10000J0D01*
G01*
X159665Y139547D02*
G03*
X165354Y133858I5689J0D01*
G01*
X164665Y140765D02*
G03*
X167635Y137795I2970J0D01*
G01*
X287912Y98309D02*
G03*
X288583Y98032I671J671D01*
G01*
X289764Y97638D02*
G03*
X288813Y98032I-950J-950D01*
G01*
X289764Y97638D02*
G03*
X293090Y96260I3327J3327D01*
G01*
X281496Y100000D02*
G03*
X282331Y97985I2850J0D01*
G01*
X293898Y91929D02*
G03*
X293423Y92126I-475J-475D01*
G01*
X287355Y92961D02*
G03*
X289370Y92126I2015J2015D01*
G01*
X293898Y83268D02*
G03*
X292472Y83858I-1426J-1426D01*
G01*
X288189D02*
G03*
X286173Y83023I0J-2851D01*
G01*
X282053Y78903D02*
G03*
X281496Y77559I1344J-1344D01*
G01*
X279921Y72441D02*
G03*
X281496Y74016I0J1575D01*
G01*
X263779Y86819D02*
G03*
X266708Y79748I10000J0D01*
G01*
X272345Y74111D02*
G03*
X276378Y72441I4033J4033D01*
G01*
X293898Y74606D02*
G03*
X293423Y74803I-475J-475D01*
G01*
X284008Y73771D02*
G03*
X284843Y75788I-2016J2016D01*
G01*
X285271Y75359D02*
G03*
X286614Y74803I1343J1343D01*
G01*
X279134Y70472D02*
G03*
X281822Y71586I0J3802D01*
G01*
X269685Y72835D02*
G03*
X275388Y70472I5703J5703D01*
G01*
X259842Y86819D02*
G03*
X262772Y79748I10000J0D01*
G01*
X111736Y95988D02*
G03*
X114665Y103059I-7071J7071D01*
G01*
X63377Y51772D02*
G03*
X70449Y54701I0J10000D01*
G01*
X236221Y78118D02*
G03*
X246220Y68118I10000J0D01*
G01*
X184665Y157500D02*
G03*
X182717Y159449I-1949J0D01*
G01*
X171614D02*
G03*
X169665Y157500I0J-1949D01*
G01*
X106736Y96894D02*
G03*
X109665Y103965I-7071J7071D01*
G01*
X72039Y66339D02*
G03*
X79110Y69267I0J10000D01*
G01*
X69665Y79724D02*
G03*
X79665Y89724I0J10000D01*
G01*
X60031Y31496D02*
G03*
X67102Y34425I0J10000D01*
G01*
X32685Y79724D02*
G03*
X25614Y76796I0J-10000D01*
G01*
X43331Y34425D02*
G03*
X50402Y31496I7071J7071D01*
G01*
X21654Y60245D02*
G03*
X24582Y53173I10000J0D01*
G01*
X116736Y95083D02*
G03*
X119665Y102154I-7071J7071D01*
G01*
X66929Y48228D02*
G03*
X71970Y50316I0J7129D01*
G01*
X66929Y48228D02*
G03*
X65249Y47532I0J-2376D01*
G01*
X99665Y157500D02*
G03*
X97716Y159449I-1949J0D01*
G01*
X152352Y63395D02*
Y63396D01*
X148425Y67322D02*
X152352Y63396D01*
X99016Y66339D02*
X139913D01*
X141338Y66929D02*
X141732Y67322D01*
X137795Y80738D02*
Y83456D01*
X140043Y75311D02*
X141733Y73622D01*
X140039Y75316D02*
X140043Y75311D01*
X137795Y80733D02*
X137795Y80738D01*
X140724Y90527D02*
X142717Y92520D01*
X141733Y79922D02*
Y83457D01*
X141339Y78741D02*
Y79922D01*
X144661Y90528D02*
X145669Y91535D01*
X147614Y89543D02*
X147638Y89567D01*
X145065Y66083D02*
Y83390D01*
Y83390D01*
X170669Y77658D02*
X173774D01*
X174606Y68898D02*
Y76825D01*
X158079Y61023D02*
X166732D01*
X147205Y146062D02*
X147244Y104146D01*
Y95337D02*
Y104146D01*
X99016Y51772D02*
X131291D01*
X138362Y54701D02*
X141756Y58095D01*
X182063Y54221D02*
X187850Y48433D01*
X179134Y61292D02*
Y120905D01*
X182087Y62857D02*
Y125000D01*
X176181Y63189D02*
Y117239D01*
X278520Y159473D02*
X283465Y154528D01*
X146760Y162402D02*
X271448D01*
X139665Y159449D02*
X139689Y159473D01*
X124665Y159449D02*
X129665D01*
X75787Y161417D02*
X119913D01*
X124665Y150984D02*
Y159449D01*
X67913Y145827D02*
Y153543D01*
X32685Y135827D02*
X57913D01*
X21654Y128937D02*
X25614Y132898D01*
X139665Y150984D02*
Y159449D01*
X134665D02*
X139665D01*
X50402Y133858D02*
X60866D01*
X41339Y128937D02*
X43331Y130929D01*
X84665Y150984D02*
Y159449D01*
X70866Y143858D02*
Y153543D01*
X76772Y159449D02*
X89665D01*
X249281Y133858D02*
X318021D01*
X244665Y138473D02*
Y150984D01*
X326772Y47244D02*
Y125107D01*
X316772Y47244D02*
Y121170D01*
X239665Y135599D02*
Y150984D01*
X245343Y129921D02*
X308021D01*
X204665Y122346D02*
X204665Y122353D01*
X263779Y86819D02*
Y100389D01*
X199818Y110236D02*
X253932D01*
X187140Y116452D02*
Y158006D01*
X236221Y78118D02*
Y92515D01*
X204665Y122353D02*
Y150984D01*
X184665Y112515D02*
Y150984D01*
X194665Y123253D02*
Y150984D01*
X189665Y120389D02*
Y150984D01*
X281496Y100000D02*
Y104326D01*
X284843Y101378D02*
Y108263D01*
X194818Y102362D02*
X226373D01*
X203745Y114173D02*
X271649D01*
X259842Y86819D02*
Y96609D01*
X197292Y106299D02*
X250153D01*
X208814Y118110D02*
X274995Y118110D01*
X67102Y34425D02*
X99016Y66339D01*
X104724Y150984D02*
Y157480D01*
X106693Y159449D02*
X120079D01*
X122146Y144783D02*
Y157382D01*
X123622Y143307D02*
X140551D01*
X142126Y144882D02*
Y157874D01*
X143701Y159449D02*
X145669D01*
X147205Y146063D02*
Y157913D01*
X187850Y22433D02*
Y48433D01*
X246220Y68118D02*
X266590D01*
Y42118D02*
Y68118D01*
X223464Y52189D02*
X227221Y48433D01*
X191150Y55118D02*
X216393D01*
X148480Y48433D02*
X152327Y52280D01*
X159180Y55118D02*
X168110D01*
X144665Y97224D02*
Y150984D01*
X104665D02*
X104724D01*
X149665Y94462D02*
Y150984D01*
X188583Y159449D02*
X197638D01*
X199665Y150984D02*
Y157421D01*
X164665Y127953D02*
X165467D01*
X154665Y137953D02*
Y150984D01*
X165354Y133858D02*
X166181D01*
X159665Y139547D02*
Y150984D01*
X164665Y140765D02*
Y150984D01*
X167635Y137795D02*
X169291D01*
X288583Y98032D02*
X288813D01*
X284843Y101378D02*
X287912Y98309D01*
X293090Y96260D02*
X293898D01*
X284843Y95473D02*
X287355Y92961D01*
X282331Y97985D02*
X284843Y95473D01*
X289370Y92126D02*
X293423D01*
X288189Y83858D02*
X292472D01*
X281496Y74016D02*
Y77559D01*
X276378Y72441D02*
X279921D01*
X266708Y79748D02*
X272345Y74111D01*
X286614Y74803D02*
X293423D01*
X281822Y71586D02*
X284008Y73771D01*
X262772Y79748D02*
X269685Y72835D01*
X275388Y70472D02*
X279134D01*
X70449Y54701D02*
X111736Y95988D01*
X58465Y51772D02*
X63377D01*
X184665Y150984D02*
Y150984D01*
Y157500D01*
X179665Y159449D02*
X182717D01*
X171614D02*
X174665D01*
X169665Y150984D02*
Y157500D01*
X79110Y69267D02*
X106736Y96894D01*
X58465Y66339D02*
X72039D01*
X50402Y31496D02*
X60031D01*
X32685Y79724D02*
X69665D01*
X21654Y72835D02*
X25614Y76796D01*
X24582Y53173D02*
X43331Y34425D01*
X21654Y60245D02*
Y71850D01*
X71970Y50316D02*
X116736Y95083D01*
X21654Y71850D02*
Y72835D01*
X79665Y89724D02*
Y150984D01*
X282053Y78903D02*
X284843Y81693D01*
Y75788D02*
X285271Y75359D01*
X284843Y81693D02*
X286173Y83023D01*
X227221Y22433D02*
Y48433D01*
X148480Y22433D02*
Y48433D01*
X58465Y40748D02*
X65249Y47532D01*
X119665Y102154D02*
Y150984D01*
X114665Y103059D02*
Y150984D01*
X109665Y103965D02*
Y150984D01*
X134665D02*
Y159449D01*
X129665Y150984D02*
Y159449D01*
X134665D01*
X179665Y150984D02*
Y159449D01*
X174665Y150984D02*
Y159449D01*
X179665D01*
X89665D02*
X94665D01*
X89665Y150984D02*
Y159449D01*
X94665D02*
X97716D01*
X94665Y150984D02*
Y159449D01*
X99665Y150984D02*
Y157500D01*
D12*
X1178748Y-229571D02*
Y-190201D01*
X1021267Y-150831D02*
X1296858D01*
X1021267Y-190201D02*
X1296858D01*
X824417Y-229571D02*
X1296858D01*
X824417Y-111461D02*
X1296858D01*
X824417Y-268941D02*
Y-111461D01*
X1021267Y-268941D02*
Y-111461D01*
X-356685Y900350D02*
X1296858D01*
Y-268941D02*
Y900350D01*
X-356685Y-268941D02*
Y900350D01*
Y-268941D02*
X1296858D01*
X1035046Y-255164D02*
X1031110D01*
Y-258115D01*
X1033078D01*
X1031110D01*
Y-261067D01*
X1037014Y-257131D02*
Y-261067D01*
Y-259099D01*
X1037998Y-258115D01*
X1038981Y-257131D01*
X1039965D01*
X1042917Y-261067D02*
X1044885D01*
X1043901D01*
Y-257131D01*
X1042917D01*
X1047837Y-256147D02*
X1048821Y-255164D01*
X1050789D01*
X1051772Y-256147D01*
Y-257131D01*
X1050789Y-258115D01*
X1049805D01*
X1050789D01*
X1051772Y-259099D01*
Y-260083D01*
X1050789Y-261067D01*
X1048821D01*
X1047837Y-260083D01*
X1053740Y-255164D02*
Y-261067D01*
X1056692D01*
X1057676Y-260083D01*
Y-256147D01*
X1056692Y-255164D01*
X1053740D01*
X1059644Y-262051D02*
X1063580D01*
X1069483Y-261067D02*
X1065548D01*
X1069483Y-257131D01*
Y-256147D01*
X1068499Y-255164D01*
X1066531D01*
X1065548Y-256147D01*
X1071451D02*
X1072435Y-255164D01*
X1074403D01*
X1075387Y-256147D01*
Y-260083D01*
X1074403Y-261067D01*
X1072435D01*
X1071451Y-260083D01*
Y-256147D01*
X1081291Y-261067D02*
X1077355D01*
X1081291Y-257131D01*
Y-256147D01*
X1080307Y-255164D01*
X1078339D01*
X1077355Y-256147D01*
X1083258D02*
X1084242Y-255164D01*
X1086210D01*
X1087194Y-256147D01*
Y-260083D01*
X1086210Y-261067D01*
X1084242D01*
X1083258Y-260083D01*
Y-256147D01*
X1089162Y-262051D02*
X1093098D01*
X1099001Y-256147D02*
X1098017Y-255164D01*
X1096049D01*
X1095066Y-256147D01*
Y-260083D01*
X1096049Y-261067D01*
X1098017D01*
X1099001Y-260083D01*
Y-258115D01*
X1097034D01*
X1101953Y-257131D02*
X1103921D01*
X1104905Y-258115D01*
Y-261067D01*
X1101953D01*
X1100969Y-260083D01*
X1101953Y-259099D01*
X1104905D01*
X1106873Y-261067D02*
Y-257131D01*
X1107857D01*
X1108841Y-258115D01*
Y-261067D01*
Y-258115D01*
X1109825Y-257131D01*
X1110808Y-258115D01*
Y-261067D01*
X1115728D02*
X1113760D01*
X1112776Y-260083D01*
Y-258115D01*
X1113760Y-257131D01*
X1115728D01*
X1116712Y-258115D01*
Y-259099D01*
X1112776D01*
X1121632Y-255164D02*
X1119664D01*
X1118680Y-256147D01*
Y-260083D01*
X1119664Y-261067D01*
X1121632D01*
X1122616Y-260083D01*
Y-256147D01*
X1121632Y-255164D01*
X1124584Y-261067D02*
Y-257131D01*
X1127535D01*
X1128519Y-258115D01*
Y-261067D01*
X1130487Y-262051D02*
X1134423D01*
X1136391Y-256147D02*
X1137375Y-255164D01*
X1139343D01*
X1140326Y-256147D01*
Y-260083D01*
X1139343Y-261067D01*
X1137375D01*
X1136391Y-260083D01*
Y-256147D01*
X1142294D02*
X1143278Y-255164D01*
X1145246D01*
X1146230Y-256147D01*
Y-260083D01*
X1145246Y-261067D01*
X1143278D01*
X1142294Y-260083D01*
Y-256147D01*
X1148198Y-261067D02*
Y-260083D01*
X1149182D01*
Y-261067D01*
X1148198D01*
X1153118D02*
Y-255164D01*
X1156069D01*
X1157053Y-256147D01*
Y-258115D01*
X1156069Y-259099D01*
X1153118D01*
X1162957Y-257131D02*
X1160005D01*
X1159021Y-258115D01*
Y-260083D01*
X1160005Y-261067D01*
X1162957D01*
X1164925Y-255164D02*
Y-261067D01*
X1167877D01*
X1168861Y-260083D01*
Y-259099D01*
Y-258115D01*
X1167877Y-257131D01*
X1164925D01*
X1170829Y-255164D02*
Y-261067D01*
X1173780D01*
X1174764Y-260083D01*
Y-256147D01*
X1173780Y-255164D01*
X1170829D01*
X1177716Y-261067D02*
X1179684D01*
X1180668Y-260083D01*
Y-258115D01*
X1179684Y-257131D01*
X1177716D01*
X1176732Y-258115D01*
Y-260083D01*
X1177716Y-261067D01*
X1186571Y-257131D02*
X1183620D01*
X1182636Y-258115D01*
Y-260083D01*
X1183620Y-261067D01*
X1186571D01*
D14*
X189702Y75098D02*
G03*
X193504Y76673I0J5377D01*
G01*
X191142Y68898D02*
G03*
X188528Y69980I-2614J-2614D01*
G01*
X191142Y68898D02*
G03*
X196845Y66535I5703J5703D01*
G01*
X195894Y80709D02*
G03*
X191142Y78740I0J-6721D01*
G01*
X188528Y77658D02*
G03*
X191142Y78740I0J3696D01*
G01*
X187598Y75098D02*
X189702D01*
X155118Y79922D02*
X155118Y79922D01*
X155118Y79922D02*
Y83661D01*
X196845Y66535D02*
X200984D01*
X187598Y69980D02*
X188528D01*
X195894Y80709D02*
X200984D01*
X187598Y77658D02*
X188528D01*
X1042921Y-168552D02*
X1052104D01*
X1047513D01*
Y-182327D01*
X1058992D02*
X1063584D01*
X1065879Y-180031D01*
Y-175439D01*
X1063584Y-173144D01*
X1058992D01*
X1056696Y-175439D01*
Y-180031D01*
X1058992Y-182327D01*
X1070471Y-186919D02*
Y-173144D01*
X1077359D01*
X1079655Y-175439D01*
Y-180031D01*
X1077359Y-182327D01*
X1070471D01*
X1098021Y-168552D02*
Y-182327D01*
X1107205D01*
X1114092Y-173144D02*
X1118684D01*
X1120980Y-175439D01*
Y-182327D01*
X1114092D01*
X1111796Y-180031D01*
X1114092Y-177735D01*
X1120980D01*
X1125571Y-173144D02*
Y-180031D01*
X1127867Y-182327D01*
X1134755D01*
Y-184623D01*
X1132459Y-186919D01*
X1130163D01*
X1134755Y-182327D02*
Y-173144D01*
X1146234Y-182327D02*
X1141642D01*
X1139347Y-180031D01*
Y-175439D01*
X1141642Y-173144D01*
X1146234D01*
X1148530Y-175439D01*
Y-177735D01*
X1139347D01*
X1153122Y-173144D02*
Y-182327D01*
Y-177735D01*
X1155417Y-175439D01*
X1157713Y-173144D01*
X1160009D01*
X846071Y-247293D02*
Y-263036D01*
X851318Y-257788D01*
X856566Y-263036D01*
Y-247293D01*
X861814Y-263036D02*
X867061D01*
X864437D01*
Y-252540D01*
X861814D01*
X874933Y-263036D02*
Y-252540D01*
X877556D01*
X880180Y-255164D01*
Y-263036D01*
Y-255164D01*
X882804Y-252540D01*
X885428Y-255164D01*
Y-263036D01*
X890676Y-247293D02*
Y-257788D01*
X895923Y-263036D01*
X901171Y-257788D01*
Y-247293D01*
X916914Y-249917D02*
X914290Y-247293D01*
X909042D01*
X906419Y-249917D01*
Y-260412D01*
X909042Y-263036D01*
X914290D01*
X916914Y-260412D01*
Y-255164D01*
X911666D01*
X1200401Y-210546D02*
X1203025Y-207923D01*
X1208273D01*
X1210897Y-210546D01*
Y-221042D01*
X1208273Y-223665D01*
X1203025D01*
X1200401Y-221042D01*
Y-210546D01*
X1216144D02*
X1218768Y-207923D01*
X1224016D01*
X1226639Y-210546D01*
Y-221042D01*
X1224016Y-223665D01*
X1218768D01*
X1216144Y-221042D01*
Y-210546D01*
X1046199Y-223665D02*
X1037015D01*
X1046199Y-214482D01*
Y-212186D01*
X1043903Y-209890D01*
X1039311D01*
X1037015Y-212186D01*
X1059974Y-209890D02*
X1050791D01*
Y-216778D01*
X1055382Y-214482D01*
X1057678D01*
X1059974Y-216778D01*
Y-221370D01*
X1057678Y-223665D01*
X1053086D01*
X1050791Y-221370D01*
X1064566Y-223665D02*
X1073749Y-214482D01*
X1078341Y-212186D02*
X1080637Y-209890D01*
X1085228D01*
X1087524Y-212186D01*
Y-221370D01*
X1085228Y-223665D01*
X1080637D01*
X1078341Y-221370D01*
Y-212186D01*
X1092116D02*
X1094412Y-209890D01*
X1099003D01*
X1101299Y-212186D01*
Y-214482D01*
X1099003Y-216778D01*
X1096707D01*
X1099003D01*
X1101299Y-219074D01*
Y-221370D01*
X1099003Y-223665D01*
X1094412D01*
X1092116Y-221370D01*
X1105891Y-223665D02*
X1115074Y-214482D01*
X1128849Y-223665D02*
X1119666D01*
X1128849Y-214482D01*
Y-212186D01*
X1126553Y-209890D01*
X1121962D01*
X1119666Y-212186D01*
X1133441D02*
X1135737Y-209890D01*
X1140329D01*
X1142624Y-212186D01*
Y-221370D01*
X1140329Y-223665D01*
X1135737D01*
X1133441Y-221370D01*
Y-212186D01*
X1156400Y-223665D02*
X1147216D01*
X1156400Y-214482D01*
Y-212186D01*
X1154104Y-209890D01*
X1149512D01*
X1147216Y-212186D01*
X1160991D02*
X1163287Y-209890D01*
X1167879D01*
X1170175Y-212186D01*
Y-221370D01*
X1167879Y-223665D01*
X1163287D01*
X1160991Y-221370D01*
Y-212186D01*
X1039506Y-132331D02*
X1031110D01*
Y-138628D01*
X1035308D01*
X1031110D01*
Y-144925D01*
X1043704Y-136529D02*
Y-144925D01*
Y-140727D01*
X1045803Y-138628D01*
X1047902Y-136529D01*
X1050002D01*
X1056299Y-144925D02*
X1060497D01*
X1058398D01*
Y-136529D01*
X1056299D01*
X1066794Y-134430D02*
X1068893Y-132331D01*
X1073091D01*
X1075190Y-134430D01*
Y-136529D01*
X1073091Y-138628D01*
X1070992D01*
X1073091D01*
X1075190Y-140727D01*
Y-142826D01*
X1073091Y-144925D01*
X1068893D01*
X1066794Y-142826D01*
X1079388Y-132331D02*
Y-144925D01*
X1085686D01*
X1087784Y-142826D01*
Y-134430D01*
X1085686Y-132331D01*
X1079388D01*
X1112973Y-144925D02*
X1104577D01*
X1112973Y-136529D01*
Y-134430D01*
X1110874Y-132331D01*
X1106676D01*
X1104577Y-134430D01*
X1117171D02*
X1119270Y-132331D01*
X1123469D01*
X1125568Y-134430D01*
Y-142826D01*
X1123469Y-144925D01*
X1119270D01*
X1117171Y-142826D01*
Y-134430D01*
X1138162Y-144925D02*
X1129766D01*
X1138162Y-136529D01*
Y-134430D01*
X1136063Y-132331D01*
X1131865D01*
X1129766Y-134430D01*
X1142360D02*
X1144459Y-132331D01*
X1148657D01*
X1150756Y-134430D01*
Y-142826D01*
X1148657Y-144925D01*
X1144459D01*
X1142360Y-142826D01*
Y-134430D01*
X1175945D02*
X1173846Y-132331D01*
X1169648D01*
X1167549Y-134430D01*
Y-142826D01*
X1169648Y-144925D01*
X1173846D01*
X1175945Y-142826D01*
Y-138628D01*
X1171747D01*
X1182242Y-136529D02*
X1186440D01*
X1188539Y-138628D01*
Y-144925D01*
X1182242D01*
X1180143Y-142826D01*
X1182242Y-140727D01*
X1188539D01*
X1192737Y-144925D02*
Y-136529D01*
X1194837D01*
X1196936Y-138628D01*
Y-144925D01*
Y-138628D01*
X1199035Y-136529D01*
X1201134Y-138628D01*
Y-144925D01*
X1211629D02*
X1207431D01*
X1205332Y-142826D01*
Y-138628D01*
X1207431Y-136529D01*
X1211629D01*
X1213728Y-138628D01*
Y-140727D01*
X1205332D01*
X1224223Y-132331D02*
X1220025D01*
X1217926Y-134430D01*
Y-142826D01*
X1220025Y-144925D01*
X1224223D01*
X1226322Y-142826D01*
Y-134430D01*
X1224223Y-132331D01*
X1230521Y-144925D02*
Y-136529D01*
X1236818D01*
X1238917Y-138628D01*
Y-144925D01*
D15*
X19685Y196850D02*
G03*
X0Y177165I-0J-19685D01*
G01*
X354331D02*
G03*
X334646Y196850I-19685J0D01*
G01*
Y0D02*
G03*
X354331Y19685I-0J19685D01*
G01*
X0Y19685D02*
G03*
X19685Y0I19685J0D01*
G01*
X334646D01*
X354331Y19685D02*
Y177165D01*
X19685Y196850D02*
X334646D01*
X0Y19685D02*
Y177165D01*
D16*
X164961Y76772D02*
G03*
X169002Y75098I4041J4041D01*
G01*
X149098Y73344D02*
G03*
X148425Y73622I-672J-672D01*
G01*
X167793Y78630D02*
G03*
X170142Y77658I2349J2349D01*
G01*
X167323Y79766D02*
G03*
X167793Y78630I1606J0D01*
G01*
X169004Y69980D02*
G03*
X161933Y67051I0J-10000D01*
G01*
X169002Y75098D02*
X170669D01*
X161811Y79922D02*
X164961Y76772D01*
X148425Y79922D02*
X148622D01*
X154922Y73622D01*
X155118D01*
X149098Y73344D02*
X155118Y67323D01*
X167323Y79766D02*
Y81693D01*
X170142Y77658D02*
X170669D01*
X169004Y69980D02*
X170669D01*
X161811Y66929D02*
X161933Y67051D01*
X162107Y72539D02*
X170669D01*
X161811Y72835D02*
X162107Y72539D01*
X1182685Y-202012D02*
Y-194141D01*
X1186621D01*
X1187932Y-195452D01*
Y-198076D01*
X1186621Y-199388D01*
X1182685D01*
X1185308D02*
X1187932Y-202012D01*
X1194492D02*
X1191868D01*
X1190556Y-200700D01*
Y-198076D01*
X1191868Y-196764D01*
X1194492D01*
X1195804Y-198076D01*
Y-199388D01*
X1190556D01*
X1198428Y-196764D02*
X1201052Y-202012D01*
X1203675Y-196764D01*
X828354Y-233511D02*
Y-241382D01*
X832290D01*
X833602Y-240070D01*
Y-234823D01*
X832290Y-233511D01*
X828354D01*
X840161Y-241382D02*
X837537D01*
X836226Y-240070D01*
Y-237446D01*
X837537Y-236134D01*
X840161D01*
X841473Y-237446D01*
Y-238758D01*
X836226D01*
X844097Y-241382D02*
X848033D01*
X849345Y-240070D01*
X848033Y-238758D01*
X845409D01*
X844097Y-237446D01*
X845409Y-236134D01*
X849345D01*
X854592Y-244006D02*
X855904D01*
X857216Y-242694D01*
Y-236134D01*
X853280D01*
X851968Y-237446D01*
Y-240070D01*
X853280Y-241382D01*
X857216D01*
X859840D02*
X862464D01*
X861152D01*
Y-236134D01*
X859840D01*
X866399Y-241382D02*
Y-236134D01*
X870335D01*
X871647Y-237446D01*
Y-241382D01*
X878207D02*
X875583D01*
X874271Y-240070D01*
Y-237446D01*
X875583Y-236134D01*
X878207D01*
X879519Y-237446D01*
Y-238758D01*
X874271D01*
X882143Y-236134D02*
Y-241382D01*
Y-238758D01*
X883454Y-237446D01*
X884766Y-236134D01*
X886078D01*
X1025204Y-115400D02*
Y-123272D01*
X1029140D01*
X1030452Y-121960D01*
Y-116712D01*
X1029140Y-115400D01*
X1025204D01*
X1034388Y-123272D02*
X1037012D01*
X1038323Y-121960D01*
Y-119336D01*
X1037012Y-118024D01*
X1034388D01*
X1033076Y-119336D01*
Y-121960D01*
X1034388Y-123272D01*
X1046195Y-118024D02*
X1042259D01*
X1040947Y-119336D01*
Y-121960D01*
X1042259Y-123272D01*
X1046195D01*
X1048819Y-118024D02*
Y-121960D01*
X1050131Y-123272D01*
X1054066D01*
Y-118024D01*
X1056690Y-123272D02*
Y-118024D01*
X1058002D01*
X1059314Y-119336D01*
Y-123272D01*
Y-119336D01*
X1060626Y-118024D01*
X1061938Y-119336D01*
Y-123272D01*
X1068498D02*
X1065874D01*
X1064562Y-121960D01*
Y-119336D01*
X1065874Y-118024D01*
X1068498D01*
X1069810Y-119336D01*
Y-120648D01*
X1064562D01*
X1072433Y-123272D02*
Y-118024D01*
X1076369D01*
X1077681Y-119336D01*
Y-123272D01*
X1081617Y-116712D02*
Y-118024D01*
X1080305D01*
X1082929D01*
X1081617D01*
Y-121960D01*
X1082929Y-123272D01*
X1025204Y-154770D02*
Y-162642D01*
X1030452D01*
X1034388Y-157394D02*
X1037012D01*
X1038323Y-158706D01*
Y-162642D01*
X1034388D01*
X1033076Y-161330D01*
X1034388Y-160018D01*
X1038323D01*
X1040947Y-157394D02*
Y-161330D01*
X1042259Y-162642D01*
X1046195D01*
Y-163954D01*
X1044883Y-165266D01*
X1043571D01*
X1046195Y-162642D02*
Y-157394D01*
X1052755Y-162642D02*
X1050131D01*
X1048819Y-161330D01*
Y-158706D01*
X1050131Y-157394D01*
X1052755D01*
X1054066Y-158706D01*
Y-160018D01*
X1048819D01*
X1056690Y-157394D02*
Y-162642D01*
Y-160018D01*
X1058002Y-158706D01*
X1059314Y-157394D01*
X1060626D01*
X1072433Y-162642D02*
Y-154770D01*
X1077681Y-162642D01*
Y-154770D01*
X1081617Y-157394D02*
X1084241D01*
X1085552Y-158706D01*
Y-162642D01*
X1081617D01*
X1080305Y-161330D01*
X1081617Y-160018D01*
X1085552D01*
X1088176Y-162642D02*
Y-157394D01*
X1089488D01*
X1090800Y-158706D01*
Y-162642D01*
Y-158706D01*
X1092112Y-157394D01*
X1093424Y-158706D01*
Y-162642D01*
X1099984D02*
X1097360D01*
X1096048Y-161330D01*
Y-158706D01*
X1097360Y-157394D01*
X1099984D01*
X1101295Y-158706D01*
Y-160018D01*
X1096048D01*
X1025204Y-194141D02*
Y-202012D01*
X1029140D01*
X1030452Y-200700D01*
Y-195452D01*
X1029140Y-194141D01*
X1025204D01*
X1034388Y-196764D02*
X1037012D01*
X1038323Y-198076D01*
Y-202012D01*
X1034388D01*
X1033076Y-200700D01*
X1034388Y-199388D01*
X1038323D01*
X1042259Y-195452D02*
Y-196764D01*
X1040947D01*
X1043571D01*
X1042259D01*
Y-200700D01*
X1043571Y-202012D01*
X1051443D02*
X1048819D01*
X1047507Y-200700D01*
Y-198076D01*
X1048819Y-196764D01*
X1051443D01*
X1052755Y-198076D01*
Y-199388D01*
X1047507D01*
X1025204Y-233511D02*
Y-241382D01*
X1029140D01*
X1030452Y-240070D01*
Y-234823D01*
X1029140Y-233511D01*
X1025204D01*
X1034388Y-241382D02*
X1037012D01*
X1038323Y-240070D01*
Y-237446D01*
X1037012Y-236134D01*
X1034388D01*
X1033076Y-237446D01*
Y-240070D01*
X1034388Y-241382D01*
X1046195Y-236134D02*
X1042259D01*
X1040947Y-237446D01*
Y-240070D01*
X1042259Y-241382D01*
X1046195D01*
X1048819Y-236134D02*
Y-240070D01*
X1050131Y-241382D01*
X1054066D01*
Y-236134D01*
X1056690Y-241382D02*
Y-236134D01*
X1058002D01*
X1059314Y-237446D01*
Y-241382D01*
Y-237446D01*
X1060626Y-236134D01*
X1061938Y-237446D01*
Y-241382D01*
X1068498D02*
X1065874D01*
X1064562Y-240070D01*
Y-237446D01*
X1065874Y-236134D01*
X1068498D01*
X1069810Y-237446D01*
Y-238758D01*
X1064562D01*
X1072433Y-241382D02*
Y-236134D01*
X1076369D01*
X1077681Y-237446D01*
Y-241382D01*
X1081617Y-234823D02*
Y-236134D01*
X1080305D01*
X1082929D01*
X1081617D01*
Y-240070D01*
X1082929Y-241382D01*
D17*
X84665Y150984D02*
D03*
X79665D02*
D03*
X89665D02*
D03*
X94665D02*
D03*
X99665D02*
D03*
X104665D02*
D03*
X109665D02*
D03*
X114665D02*
D03*
X119665D02*
D03*
X124665D02*
D03*
X129665D02*
D03*
X134665D02*
D03*
X139665D02*
D03*
X144665D02*
D03*
X149665D02*
D03*
X154665D02*
D03*
X159665D02*
D03*
X164665D02*
D03*
X169665D02*
D03*
X174665D02*
D03*
X179665D02*
D03*
X184665D02*
D03*
X189665D02*
D03*
X194665D02*
D03*
X199665D02*
D03*
X204665D02*
D03*
X209665D02*
D03*
X214665D02*
D03*
X219665D02*
D03*
X224665D02*
D03*
X229665D02*
D03*
X234665D02*
D03*
X239665D02*
D03*
X244665D02*
D03*
X249665D02*
D03*
X254665D02*
D03*
X259665D02*
D03*
X264665D02*
D03*
X269665D02*
D03*
X274665D02*
D03*
D03*
X269665D02*
D03*
X264665D02*
D03*
X259665D02*
D03*
X254665D02*
D03*
X249665D02*
D03*
X244665D02*
D03*
X239665D02*
D03*
X234665D02*
D03*
X229665D02*
D03*
X224665D02*
D03*
X219665D02*
D03*
X214665D02*
D03*
X209665D02*
D03*
X204665D02*
D03*
X199665D02*
D03*
X194665D02*
D03*
X189665D02*
D03*
X184665D02*
D03*
X179665D02*
D03*
X174665D02*
D03*
X169665D02*
D03*
X164665D02*
D03*
X159665D02*
D03*
X154665D02*
D03*
X149665D02*
D03*
X144665D02*
D03*
X139665D02*
D03*
X134665D02*
D03*
X129665D02*
D03*
X124665D02*
D03*
X119665D02*
D03*
X114665D02*
D03*
X109665D02*
D03*
X104665D02*
D03*
X99665D02*
D03*
X94665D02*
D03*
X89665D02*
D03*
X79665D02*
D03*
X84665D02*
D03*
D18*
X141732Y67322D02*
D03*
X148425D02*
D03*
X161811Y79922D02*
D03*
X155118D02*
D03*
Y73622D02*
D03*
X161811D02*
D03*
X155118Y67323D02*
D03*
X161811D02*
D03*
X148425Y73622D02*
D03*
X141733D02*
D03*
X148425Y79922D02*
D03*
X141733D02*
D03*
X278150Y101378D02*
D03*
X284843D02*
D03*
X278150Y95473D02*
D03*
X284843D02*
D03*
X278150Y81693D02*
D03*
X284843D02*
D03*
X278150Y75788D02*
D03*
X284843D02*
D03*
D19*
X293898Y65945D02*
D03*
Y70276D02*
D03*
Y74606D02*
D03*
Y78937D02*
D03*
Y83268D02*
D03*
Y87599D02*
D03*
Y91929D02*
D03*
Y96260D02*
D03*
Y100591D02*
D03*
D20*
X296654Y119095D02*
D03*
D21*
Y60433D02*
D03*
D22*
X334449Y60827D02*
D03*
Y122638D02*
D03*
D23*
X214370Y82874D02*
D03*
Y76181D02*
D03*
X214370Y64370D02*
D03*
Y71063D02*
D03*
D24*
X200984Y80709D02*
D03*
X208465D02*
D03*
X200984Y66535D02*
D03*
X208465D02*
D03*
D25*
Y73622D02*
D03*
X200984D02*
D03*
X273819Y88583D02*
D03*
X281299D02*
D03*
D42*
X125984Y177953D02*
D03*
X228346D02*
D03*
X266590Y68118D02*
D03*
X284591D02*
D03*
Y42118D02*
D03*
X266590D02*
D03*
X148480Y48433D02*
D03*
X166480D02*
D03*
Y22433D02*
D03*
X148480D02*
D03*
X187850Y48433D02*
D03*
X205850D02*
D03*
Y22433D02*
D03*
X187850D02*
D03*
X227221Y48433D02*
D03*
X245220D02*
D03*
Y22433D02*
D03*
X227221D02*
D03*
X99016Y51772D02*
D03*
X58465D02*
D03*
D44*
X41339Y71850D02*
D03*
D48*
X222765Y68622D02*
G03*
X215694Y65693I0J-10000D01*
G01*
X215693Y81551D02*
G03*
X222764Y78622I7071J7071D01*
G01*
X274665Y157500D02*
G03*
X272716Y159449I-1949J0D01*
G01*
X251614D02*
G03*
X249665Y157500I0J-1949D01*
G01*
X279921Y92463D02*
G03*
X278783Y95210I-3886J0D01*
G01*
X279921Y89961D02*
G03*
X281299Y88583I1378J0D01*
G01*
X234665Y157500D02*
G03*
X232716Y159449I-1949J0D01*
G01*
X280338Y87621D02*
G03*
X279921Y86614I1009J-1007D01*
G01*
X306772Y47244D02*
G03*
X307087Y47559I0J315D01*
G01*
X278534Y81852D02*
G03*
X279921Y85202I-3350J3350D01*
G01*
X211614Y159449D02*
G03*
X209665Y157500I0J-1949D01*
G01*
X222765Y68622D02*
X224410D01*
X208465Y64961D02*
X214370D01*
Y64370D02*
X215694Y65693D01*
X208465Y82284D02*
X214370D01*
Y82874D02*
X215693Y81551D01*
X222764Y78622D02*
X224410D01*
X214370Y82284D02*
Y82874D01*
X274665Y150984D02*
Y157500D01*
X269665Y159449D02*
X272716D01*
X269488Y90158D02*
X273819D01*
X269488Y87008D02*
X273819D01*
X251614Y159449D02*
X254665D01*
X249665Y150984D02*
Y157500D01*
X208465Y75197D02*
X218307D01*
X208465Y72047D02*
X218307D01*
X278783Y95210D02*
X278783Y95210D01*
X278150Y95473D02*
X278783Y95210D01*
X280338Y87621D02*
X281299Y88583D01*
X279921Y89961D02*
Y92463D01*
X281299Y87599D02*
Y88583D01*
X229665Y159449D02*
X232716D01*
X234665Y150984D02*
Y157500D01*
X279921Y85202D02*
X279921Y86614D01*
X278150Y81693D02*
X278534Y81852D01*
X211614Y159449D02*
X214665D01*
X209665Y150984D02*
Y157500D01*
X196653Y75197D02*
X200984D01*
X196653Y72047D02*
X200984D01*
X187598Y72539D02*
X195948D01*
X196440Y72047D01*
X196653D01*
X208465Y80709D02*
Y82284D01*
Y64961D02*
Y66535D01*
X214370Y64370D02*
Y64961D01*
X254665Y143110D02*
Y150984D01*
X249665Y143110D02*
Y150984D01*
X200984Y73622D02*
Y75197D01*
Y72047D02*
Y73622D01*
X208465Y72047D02*
Y73622D01*
Y75197D01*
X334449Y116732D02*
Y122638D01*
Y128543D01*
X290748Y119095D02*
X296654D01*
X302559D01*
X334449Y60827D02*
Y66732D01*
Y54921D02*
Y60827D01*
X290748Y60433D02*
X296654D01*
X302559D01*
X293898Y78937D02*
X299803D01*
X278150Y95473D02*
Y101378D01*
Y75788D02*
Y81693D01*
X273819Y87008D02*
Y88583D01*
Y90158D01*
X269665Y150984D02*
Y159449D01*
X264665Y150984D02*
Y159449D01*
X259665D02*
X264665D01*
X269665D01*
X224665D02*
X229665D01*
X219665D02*
X224665D01*
Y150984D02*
Y159449D01*
X229665Y150984D02*
Y159449D01*
X259665Y150984D02*
Y159449D01*
X254665Y150984D02*
Y159449D01*
X259665D01*
X219665Y150984D02*
Y159449D01*
X214665Y150984D02*
Y159449D01*
X219665D01*
D49*
X307087Y116936D02*
G03*
X298038Y125984I-9049J0D01*
G01*
X234665Y130302D02*
G03*
X238983Y125984I4318J0D01*
G01*
X289834Y34449D02*
G03*
X296905Y37378I0J10000D01*
G01*
X246180Y55001D02*
G03*
X236389Y59055I-9791J-9795D01*
G01*
X262676Y38505D02*
G03*
X272469Y34449I9793J9793D01*
G01*
X307087Y87599D02*
Y116936D01*
X238983Y125984D02*
X298038D01*
X234665Y130302D02*
Y150984D01*
X281299Y87599D02*
X293898D01*
X296905Y37378D02*
X306772Y47244D01*
X272479Y34449D02*
X289834D01*
X236379Y59055D02*
X236389Y59055D01*
X262666Y38515D02*
X262676Y38505D01*
X272469Y34449D02*
X272479Y34449D01*
X246180Y55001D02*
X246191Y54990D01*
X253267Y47914D02*
X262666Y38515D01*
X246191Y54990D02*
X253267Y47914D01*
X203740Y59055D02*
X236379D01*
X200787D02*
X203740D01*
X307087Y47559D02*
Y87599D01*
X293898D02*
X307087D01*
D50*
X187598Y77658D02*
D03*
Y75098D02*
D03*
Y72539D02*
D03*
Y69980D02*
D03*
X170669D02*
D03*
Y72539D02*
D03*
Y75098D02*
D03*
Y77658D02*
D03*
D51*
X70866Y184488D02*
D03*
X283465D02*
D03*
D52*
X283071Y166339D02*
D03*
X71260D02*
D03*
D53*
X53937Y99410D02*
D03*
X9055D02*
D03*
D54*
X41339Y128937D02*
D03*
X21654D02*
D03*
X31496D02*
D03*
X21654Y71850D02*
D03*
D55*
X224410Y68622D02*
D03*
X306772Y47244D02*
D03*
X316772D02*
D03*
X326772D02*
D03*
D56*
X224410Y78622D02*
D03*
D57*
X336772Y47244D02*
D03*
D58*
X19685Y19685D02*
D03*
X334646Y19685D02*
D03*
X334646Y177165D02*
D03*
X19685Y177165D02*
D03*
D59*
X58465Y40748D02*
D03*
X99016D02*
D03*
Y66339D02*
D03*
D60*
X58465D02*
D03*
D61*
X193504Y76673D02*
D03*
X155118Y83661D02*
D03*
X283465Y154528D02*
D03*
X70866Y153543D02*
D03*
X254665Y143110D02*
D03*
X249665D02*
D03*
X200787Y59055D02*
D03*
X196653Y72047D02*
D03*
X203740Y59055D02*
D03*
X167323Y81693D02*
D03*
X196653Y75197D02*
D03*
X218307Y72047D02*
D03*
Y75197D02*
D03*
X334449Y116732D02*
D03*
Y128543D02*
D03*
X290748Y119095D02*
D03*
X302559D02*
D03*
X334449Y66732D02*
D03*
Y54921D02*
D03*
X290748Y60433D02*
D03*
X302559D02*
D03*
X299803Y78937D02*
D03*
X269488Y87008D02*
D03*
Y90158D02*
D03*
M02*
