G04*
G04 #@! TF.GenerationSoftware,Altium Limited,Altium Designer,20.0.13 (296)*
G04*
G04 Layer_Color=65535*
%FSLAX25Y25*%
%MOIN*%
G70*
G01*
G75*
%ADD10C,0.01181*%
%ADD11C,0.00591*%
%ADD12C,0.00787*%
%ADD13C,0.01000*%
%ADD14C,0.01575*%
%ADD15C,0.00394*%
%ADD16C,0.00984*%
G36*
X337326Y155281D02*
X339071Y154813D01*
X340739Y154122D01*
X342304Y153219D01*
X343737Y152119D01*
X345014Y150842D01*
X346114Y149409D01*
X347017Y147845D01*
X347708Y146176D01*
X348176Y144431D01*
X348411Y142640D01*
Y141737D01*
X348425D01*
X348425Y19685D01*
Y18782D01*
X348189Y16991D01*
X347722Y15246D01*
X347031Y13577D01*
X346128Y12013D01*
X345028Y10580D01*
X343751Y9303D01*
X342318Y8203D01*
X340753Y7300D01*
X339085Y6609D01*
X337340Y6141D01*
X335549Y5906D01*
X18782D01*
X16991Y6141D01*
X15246Y6609D01*
X13577Y7300D01*
X12013Y8203D01*
X10580Y9303D01*
X9303Y10580D01*
X8203Y12013D01*
X7300Y13577D01*
X6609Y15246D01*
X6141Y16991D01*
X5906Y18782D01*
Y19685D01*
X5906Y87303D01*
X12604D01*
X13193Y87420D01*
X13748Y87650D01*
X14248Y87984D01*
X14673Y88409D01*
X15007Y88909D01*
X15237Y89464D01*
X15354Y90054D01*
Y90354D01*
Y108366D01*
Y108676D01*
X15233Y109285D01*
X14996Y109858D01*
X14651Y110374D01*
X14212Y110813D01*
X13697Y111157D01*
X13123Y111395D01*
X12515Y111516D01*
X5906D01*
Y141718D01*
X5901D01*
Y142622D01*
X6137Y144412D01*
X6604Y146157D01*
X7295Y147826D01*
X8198Y149390D01*
X9298Y150823D01*
X10575Y152101D01*
X12008Y153200D01*
X13573Y154103D01*
X15241Y154795D01*
X16986Y155262D01*
X18777Y155498D01*
X19680D01*
Y155512D01*
X77756Y155512D01*
Y145768D01*
X276575D01*
Y155512D01*
X334632Y155512D01*
Y155517D01*
X335535D01*
X337326Y155281D01*
D02*
G37*
G36*
X1005337Y-155808D02*
X1005050D01*
Y-156094D01*
X1004764D01*
Y-156380D01*
Y-156667D01*
X1004478D01*
Y-156953D01*
X1004192D01*
Y-157239D01*
X1003905D01*
Y-157526D01*
Y-157812D01*
X1003619D01*
Y-158098D01*
X1003333D01*
Y-158385D01*
X1003046D01*
Y-158671D01*
X1002760D01*
Y-158957D01*
Y-159244D01*
X1002474D01*
Y-159530D01*
X1002187D01*
Y-159816D01*
X1001901D01*
Y-160102D01*
Y-160389D01*
X1001615D01*
Y-160675D01*
X1001328D01*
Y-160961D01*
X1001042D01*
Y-161248D01*
X1000756D01*
Y-161534D01*
Y-161820D01*
X1000469D01*
Y-162107D01*
X1000183D01*
Y-162393D01*
X999897D01*
Y-162679D01*
Y-162966D01*
X999611D01*
Y-163252D01*
X999324D01*
Y-163538D01*
X999038D01*
Y-163824D01*
Y-164111D01*
X998752D01*
Y-164397D01*
X998465D01*
Y-164683D01*
X998179D01*
Y-164970D01*
X997893D01*
Y-165256D01*
Y-165542D01*
X997606D01*
Y-165829D01*
X997320D01*
Y-166115D01*
X997034D01*
Y-166401D01*
Y-166688D01*
X996747D01*
Y-166974D01*
X996461D01*
Y-167260D01*
X996175D01*
Y-167547D01*
Y-167833D01*
X995889D01*
Y-168119D01*
X995602D01*
Y-168405D01*
X995316D01*
Y-168692D01*
X995030D01*
Y-168978D01*
Y-169264D01*
X994743D01*
Y-169551D01*
X994457D01*
Y-169837D01*
X994171D01*
Y-170123D01*
Y-170410D01*
X993884D01*
Y-170696D01*
X993598D01*
Y-170982D01*
X993312D01*
Y-171269D01*
Y-171555D01*
X993025D01*
Y-171841D01*
X992739D01*
Y-172127D01*
X992453D01*
Y-172414D01*
X992166D01*
Y-172700D01*
Y-172986D01*
X991880D01*
Y-173273D01*
X991594D01*
Y-173559D01*
X991308D01*
Y-173845D01*
Y-174132D01*
X991021D01*
Y-174418D01*
X990735D01*
Y-174704D01*
X990449D01*
Y-174991D01*
X990162D01*
Y-175277D01*
Y-175563D01*
X990449D01*
Y-175850D01*
Y-176136D01*
X990735D01*
Y-176422D01*
Y-176709D01*
X991021D01*
Y-176995D01*
X991308D01*
Y-177281D01*
Y-177568D01*
X991594D01*
Y-177854D01*
Y-178140D01*
X991880D01*
Y-178426D01*
Y-178713D01*
X992166D01*
Y-178999D01*
Y-179285D01*
X992453D01*
Y-179572D01*
Y-179858D01*
X992739D01*
Y-180144D01*
Y-180431D01*
X993025D01*
Y-180717D01*
Y-181003D01*
X993312D01*
Y-181290D01*
Y-181576D01*
X993598D01*
Y-181862D01*
X993884D01*
Y-182149D01*
Y-182435D01*
X994171D01*
Y-182721D01*
Y-183007D01*
X994457D01*
Y-183294D01*
Y-183580D01*
X994743D01*
Y-183866D01*
Y-184153D01*
X995030D01*
Y-184439D01*
Y-184725D01*
X995316D01*
Y-185012D01*
Y-185298D01*
X995602D01*
Y-185584D01*
Y-185871D01*
X995889D01*
Y-186157D01*
X996175D01*
Y-186443D01*
Y-186730D01*
X996461D01*
Y-187016D01*
Y-187302D01*
X996747D01*
Y-187588D01*
Y-187875D01*
X997034D01*
Y-188161D01*
Y-188447D01*
X997320D01*
Y-188734D01*
Y-189020D01*
X997606D01*
Y-189306D01*
Y-189593D01*
X997893D01*
Y-189879D01*
Y-190165D01*
X998179D01*
Y-190452D01*
X998465D01*
Y-190738D01*
Y-191024D01*
X998752D01*
Y-191311D01*
Y-191597D01*
X999038D01*
Y-191883D01*
X983863D01*
Y-191597D01*
X983577D01*
Y-191311D01*
Y-191024D01*
Y-190738D01*
X983291D01*
Y-190452D01*
Y-190165D01*
Y-189879D01*
X983004D01*
Y-189593D01*
Y-189306D01*
X982718D01*
Y-189020D01*
Y-188734D01*
Y-188447D01*
X982432D01*
Y-188161D01*
Y-187875D01*
Y-187588D01*
X982146D01*
Y-187302D01*
Y-187016D01*
X981859D01*
Y-186730D01*
Y-186443D01*
Y-186157D01*
X981573D01*
Y-185871D01*
Y-185584D01*
Y-185298D01*
X981287D01*
Y-185012D01*
Y-184725D01*
Y-184439D01*
X981000D01*
Y-184153D01*
X980428D01*
Y-184439D01*
Y-184725D01*
X980141D01*
Y-185012D01*
X979855D01*
Y-185298D01*
Y-185584D01*
X979569D01*
Y-185871D01*
X979282D01*
Y-186157D01*
Y-186443D01*
X978996D01*
Y-186730D01*
X978710D01*
Y-187016D01*
Y-187302D01*
X978423D01*
Y-187588D01*
X978137D01*
Y-187875D01*
X977851D01*
Y-188161D01*
Y-188447D01*
X977565D01*
Y-188734D01*
X977278D01*
Y-189020D01*
Y-189306D01*
X976992D01*
Y-189593D01*
X976705D01*
Y-189879D01*
Y-190165D01*
X976419D01*
Y-190452D01*
X976133D01*
Y-190738D01*
Y-191024D01*
X975847D01*
Y-191311D01*
X975560D01*
Y-191597D01*
Y-191883D01*
X959527D01*
Y-191597D01*
X959813D01*
Y-191311D01*
X960099D01*
Y-191024D01*
X960386D01*
Y-190738D01*
X960672D01*
Y-190452D01*
Y-190165D01*
X960958D01*
Y-189879D01*
X961245D01*
Y-189593D01*
X961531D01*
Y-189306D01*
X961817D01*
Y-189020D01*
Y-188734D01*
X962104D01*
Y-188447D01*
X962390D01*
Y-188161D01*
X962676D01*
Y-187875D01*
Y-187588D01*
X962963D01*
Y-187302D01*
X963249D01*
Y-187016D01*
X963535D01*
Y-186730D01*
X963822D01*
Y-186443D01*
Y-186157D01*
X964108D01*
Y-185871D01*
X964394D01*
Y-185584D01*
X964680D01*
Y-185298D01*
X964967D01*
Y-185012D01*
Y-184725D01*
X965253D01*
Y-184439D01*
X965539D01*
Y-184153D01*
X965826D01*
Y-183866D01*
Y-183580D01*
X966112D01*
Y-183294D01*
X966398D01*
Y-183007D01*
X966685D01*
Y-182721D01*
X966971D01*
Y-182435D01*
Y-182149D01*
X967257D01*
Y-181862D01*
X967544D01*
Y-181576D01*
X967830D01*
Y-181290D01*
Y-181003D01*
X968116D01*
Y-180717D01*
X968402D01*
Y-180431D01*
X968689D01*
Y-180144D01*
X968975D01*
Y-179858D01*
Y-179572D01*
X969261D01*
Y-179285D01*
X969548D01*
Y-178999D01*
X969834D01*
Y-178713D01*
Y-178426D01*
X970120D01*
Y-178140D01*
X970407D01*
Y-177854D01*
X970693D01*
Y-177568D01*
X970979D01*
Y-177281D01*
Y-176995D01*
X971266D01*
Y-176709D01*
X971552D01*
Y-176422D01*
X971838D01*
Y-176136D01*
X972124D01*
Y-175850D01*
Y-175563D01*
X972411D01*
Y-175277D01*
X972697D01*
Y-174991D01*
X972983D01*
Y-174704D01*
Y-174418D01*
X973270D01*
Y-174132D01*
X973556D01*
Y-173845D01*
X973842D01*
Y-173559D01*
X974129D01*
Y-173273D01*
Y-172986D01*
X974415D01*
Y-172700D01*
Y-172414D01*
Y-172127D01*
X974129D01*
Y-171841D01*
X973842D01*
Y-171555D01*
Y-171269D01*
X973556D01*
Y-170982D01*
Y-170696D01*
X973270D01*
Y-170410D01*
Y-170123D01*
X972983D01*
Y-169837D01*
Y-169551D01*
X972697D01*
Y-169264D01*
Y-168978D01*
X972411D01*
Y-168692D01*
Y-168405D01*
X972124D01*
Y-168119D01*
X971838D01*
Y-167833D01*
Y-167547D01*
X971552D01*
Y-167260D01*
Y-166974D01*
X971266D01*
Y-166688D01*
Y-166401D01*
X970979D01*
Y-166115D01*
Y-165829D01*
X970693D01*
Y-165542D01*
Y-165256D01*
X970407D01*
Y-164970D01*
Y-164683D01*
X970120D01*
Y-164397D01*
X969834D01*
Y-164111D01*
Y-163824D01*
X969548D01*
Y-163538D01*
Y-163252D01*
X969261D01*
Y-162966D01*
Y-162679D01*
X968975D01*
Y-162393D01*
Y-162107D01*
X968689D01*
Y-161820D01*
Y-161534D01*
X968402D01*
Y-161248D01*
Y-160961D01*
X968116D01*
Y-160675D01*
Y-160389D01*
X967830D01*
Y-160102D01*
X967544D01*
Y-159816D01*
Y-159530D01*
X967257D01*
Y-159244D01*
Y-158957D01*
X966971D01*
Y-158671D01*
Y-158385D01*
X966685D01*
Y-158098D01*
Y-157812D01*
X966398D01*
Y-157526D01*
Y-157239D01*
X966112D01*
Y-156953D01*
Y-156667D01*
X965826D01*
Y-156380D01*
X965539D01*
Y-156094D01*
Y-155808D01*
X965253D01*
Y-155521D01*
X981000D01*
Y-155808D01*
X981287D01*
Y-156094D01*
Y-156380D01*
Y-156667D01*
X981573D01*
Y-156953D01*
Y-157239D01*
Y-157526D01*
X981859D01*
Y-157812D01*
Y-158098D01*
Y-158385D01*
X982146D01*
Y-158671D01*
Y-158957D01*
Y-159244D01*
X982432D01*
Y-159530D01*
Y-159816D01*
Y-160102D01*
X982718D01*
Y-160389D01*
Y-160675D01*
Y-160961D01*
X983004D01*
Y-161248D01*
Y-161534D01*
Y-161820D01*
X983291D01*
Y-162107D01*
Y-162393D01*
Y-162679D01*
X983577D01*
Y-162966D01*
Y-163252D01*
Y-163538D01*
Y-163824D01*
X984150D01*
Y-163538D01*
X984436D01*
Y-163252D01*
X984722D01*
Y-162966D01*
Y-162679D01*
X985009D01*
Y-162393D01*
X985295D01*
Y-162107D01*
Y-161820D01*
X985581D01*
Y-161534D01*
X985868D01*
Y-161248D01*
Y-160961D01*
X986154D01*
Y-160675D01*
X986440D01*
Y-160389D01*
Y-160102D01*
X986726D01*
Y-159816D01*
X987013D01*
Y-159530D01*
Y-159244D01*
X987299D01*
Y-158957D01*
X987585D01*
Y-158671D01*
Y-158385D01*
X987872D01*
Y-158098D01*
X988158D01*
Y-157812D01*
Y-157526D01*
X988444D01*
Y-157239D01*
X988731D01*
Y-156953D01*
Y-156667D01*
X989017D01*
Y-156380D01*
X989303D01*
Y-156094D01*
Y-155808D01*
X989590D01*
Y-155521D01*
X1005337D01*
Y-155808D01*
D02*
G37*
G36*
X872201Y-141778D02*
X873919D01*
Y-142065D01*
X874778D01*
Y-142351D01*
X875637D01*
Y-142637D01*
X876496D01*
Y-142924D01*
X877069D01*
Y-143210D01*
X877355D01*
Y-143496D01*
X877928D01*
Y-143783D01*
X878214D01*
Y-144069D01*
X878786D01*
Y-144355D01*
X879073D01*
Y-144641D01*
X879359D01*
Y-144928D01*
X879646D01*
Y-145214D01*
X879932D01*
Y-145501D01*
X880218D01*
Y-145787D01*
X880504D01*
Y-146073D01*
Y-146359D01*
X880791D01*
Y-146646D01*
X881077D01*
Y-146932D01*
Y-147218D01*
X881363D01*
Y-147505D01*
X881650D01*
Y-147791D01*
Y-148077D01*
X881936D01*
Y-148364D01*
Y-148650D01*
Y-148936D01*
X882222D01*
Y-149223D01*
Y-149509D01*
Y-149795D01*
X882509D01*
Y-150082D01*
Y-150368D01*
Y-150654D01*
Y-150940D01*
X882795D01*
Y-151227D01*
Y-151513D01*
Y-151799D01*
Y-152086D01*
Y-152372D01*
X883081D01*
Y-152658D01*
Y-152945D01*
Y-153231D01*
Y-153517D01*
Y-153804D01*
Y-154090D01*
Y-154376D01*
Y-154663D01*
Y-154949D01*
Y-155235D01*
Y-155521D01*
Y-155808D01*
Y-156094D01*
Y-156380D01*
Y-156667D01*
Y-156953D01*
Y-157239D01*
Y-157526D01*
Y-157812D01*
Y-158098D01*
X882795D01*
Y-158385D01*
Y-158671D01*
Y-158957D01*
Y-159244D01*
Y-159530D01*
Y-159816D01*
Y-160102D01*
X882509D01*
Y-160389D01*
Y-160675D01*
Y-160961D01*
Y-161248D01*
Y-161534D01*
X882222D01*
Y-161820D01*
Y-162107D01*
Y-162393D01*
Y-162679D01*
Y-162966D01*
X881936D01*
Y-163252D01*
Y-163538D01*
Y-163824D01*
X881650D01*
Y-164111D01*
Y-164397D01*
Y-164683D01*
Y-164970D01*
X881363D01*
Y-165256D01*
Y-165542D01*
Y-165829D01*
X881077D01*
Y-166115D01*
Y-166401D01*
X880791D01*
Y-166688D01*
Y-166974D01*
Y-167260D01*
X880504D01*
Y-167547D01*
Y-167833D01*
X880218D01*
Y-168119D01*
Y-168405D01*
X879932D01*
Y-168692D01*
Y-168978D01*
X879646D01*
Y-169264D01*
X879359D01*
Y-169551D01*
Y-169837D01*
X879073D01*
Y-170123D01*
X878786D01*
Y-170410D01*
X878500D01*
Y-170696D01*
Y-170982D01*
X878214D01*
Y-171269D01*
X877928D01*
Y-171555D01*
X877641D01*
Y-171841D01*
X877355D01*
Y-172127D01*
X877069D01*
Y-172414D01*
X876496D01*
Y-172700D01*
X876210D01*
Y-172986D01*
X875637D01*
Y-173273D01*
X875351D01*
Y-173559D01*
X874778D01*
Y-173845D01*
X873919D01*
Y-174132D01*
X873060D01*
Y-174418D01*
X872201D01*
Y-174704D01*
X870483D01*
Y-174991D01*
X865330D01*
Y-174704D01*
X862753D01*
Y-174418D01*
X860749D01*
Y-174132D01*
X859317D01*
Y-173845D01*
X857886D01*
Y-173559D01*
X856454D01*
Y-173845D01*
Y-174132D01*
Y-174418D01*
Y-174704D01*
Y-174991D01*
Y-175277D01*
Y-175563D01*
X856168D01*
Y-175850D01*
Y-176136D01*
Y-176422D01*
Y-176709D01*
Y-176995D01*
Y-177281D01*
X855882D01*
Y-177568D01*
Y-177854D01*
Y-178140D01*
Y-178426D01*
Y-178713D01*
Y-178999D01*
X855595D01*
Y-179285D01*
Y-179572D01*
Y-179858D01*
Y-180144D01*
Y-180431D01*
Y-180717D01*
Y-181003D01*
X855309D01*
Y-181290D01*
Y-181576D01*
Y-181862D01*
Y-182149D01*
Y-182435D01*
Y-182721D01*
X855023D01*
Y-183007D01*
Y-183294D01*
Y-183580D01*
Y-183866D01*
Y-184153D01*
Y-184439D01*
X854736D01*
Y-184725D01*
Y-185012D01*
Y-185298D01*
Y-185584D01*
Y-185871D01*
Y-186157D01*
Y-186443D01*
X854450D01*
Y-186730D01*
Y-187016D01*
Y-187302D01*
Y-187588D01*
Y-187875D01*
Y-188161D01*
X854164D01*
Y-188447D01*
Y-188734D01*
Y-189020D01*
Y-189306D01*
Y-189593D01*
Y-189879D01*
X853877D01*
Y-190165D01*
Y-190452D01*
Y-190738D01*
Y-191024D01*
Y-191311D01*
Y-191597D01*
Y-191883D01*
X840421D01*
Y-191597D01*
X840707D01*
Y-191311D01*
Y-191024D01*
Y-190738D01*
Y-190452D01*
Y-190165D01*
X840993D01*
Y-189879D01*
Y-189593D01*
Y-189306D01*
Y-189020D01*
Y-188734D01*
Y-188447D01*
Y-188161D01*
X841280D01*
Y-187875D01*
Y-187588D01*
Y-187302D01*
Y-187016D01*
Y-186730D01*
Y-186443D01*
X841566D01*
Y-186157D01*
Y-185871D01*
Y-185584D01*
Y-185298D01*
Y-185012D01*
Y-184725D01*
X841852D01*
Y-184439D01*
Y-184153D01*
Y-183866D01*
Y-183580D01*
Y-183294D01*
Y-183007D01*
Y-182721D01*
X842138D01*
Y-182435D01*
Y-182149D01*
Y-181862D01*
Y-181576D01*
Y-181290D01*
Y-181003D01*
X842425D01*
Y-180717D01*
Y-180431D01*
Y-180144D01*
Y-179858D01*
Y-179572D01*
Y-179285D01*
X842711D01*
Y-178999D01*
Y-178713D01*
Y-178426D01*
Y-178140D01*
Y-177854D01*
Y-177568D01*
X842997D01*
Y-177281D01*
Y-176995D01*
Y-176709D01*
Y-176422D01*
Y-176136D01*
Y-175850D01*
Y-175563D01*
X843284D01*
Y-175277D01*
Y-174991D01*
Y-174704D01*
Y-174418D01*
Y-174132D01*
Y-173845D01*
X843570D01*
Y-173559D01*
Y-173273D01*
Y-172986D01*
Y-172700D01*
Y-172414D01*
Y-172127D01*
X843856D01*
Y-171841D01*
Y-171555D01*
Y-171269D01*
Y-170982D01*
Y-170696D01*
Y-170410D01*
X844143D01*
Y-170123D01*
Y-169837D01*
Y-169551D01*
Y-169264D01*
Y-168978D01*
Y-168692D01*
Y-168405D01*
X844429D01*
Y-168119D01*
Y-167833D01*
Y-167547D01*
Y-167260D01*
Y-166974D01*
Y-166688D01*
X844715D01*
Y-166401D01*
Y-166115D01*
Y-165829D01*
Y-165542D01*
Y-165256D01*
Y-164970D01*
X845002D01*
Y-164683D01*
Y-164397D01*
Y-164111D01*
Y-163824D01*
Y-163538D01*
Y-163252D01*
Y-162966D01*
X845288D01*
Y-162679D01*
Y-162393D01*
Y-162107D01*
Y-161820D01*
Y-161534D01*
Y-161248D01*
X845574D01*
Y-160961D01*
Y-160675D01*
Y-160389D01*
Y-160102D01*
Y-159816D01*
Y-159530D01*
X845861D01*
Y-159244D01*
Y-158957D01*
Y-158671D01*
Y-158385D01*
Y-158098D01*
Y-157812D01*
X846147D01*
Y-157526D01*
Y-157239D01*
Y-156953D01*
Y-156667D01*
Y-156380D01*
Y-156094D01*
Y-155808D01*
X846433D01*
Y-155521D01*
Y-155235D01*
Y-154949D01*
Y-154663D01*
Y-154376D01*
Y-154090D01*
X846719D01*
Y-153804D01*
Y-153517D01*
Y-153231D01*
Y-152945D01*
Y-152658D01*
Y-152372D01*
X847006D01*
Y-152086D01*
Y-151799D01*
Y-151513D01*
Y-151227D01*
Y-150940D01*
Y-150654D01*
Y-150368D01*
X847292D01*
Y-150082D01*
Y-149795D01*
Y-149509D01*
Y-149223D01*
Y-148936D01*
Y-148650D01*
X847578D01*
Y-148364D01*
Y-148077D01*
Y-147791D01*
Y-147505D01*
Y-147218D01*
Y-146932D01*
X847865D01*
Y-146646D01*
Y-146359D01*
Y-146073D01*
Y-145787D01*
Y-145501D01*
Y-145214D01*
Y-144928D01*
X848151D01*
Y-144641D01*
Y-144355D01*
Y-144069D01*
Y-143783D01*
Y-143496D01*
Y-143210D01*
X848437D01*
Y-142924D01*
Y-142637D01*
Y-142351D01*
Y-142065D01*
Y-141778D01*
Y-141492D01*
X872201D01*
Y-141778D01*
D02*
G37*
G36*
X961245Y-155808D02*
Y-156094D01*
Y-156380D01*
Y-156667D01*
Y-156953D01*
Y-157239D01*
Y-157526D01*
Y-157812D01*
Y-158098D01*
Y-158385D01*
Y-158671D01*
Y-158957D01*
Y-159244D01*
Y-159530D01*
Y-159816D01*
Y-160102D01*
Y-160389D01*
Y-160675D01*
Y-160961D01*
Y-161248D01*
Y-161534D01*
X960958D01*
Y-161820D01*
Y-162107D01*
Y-162393D01*
Y-162679D01*
Y-162966D01*
X960672D01*
Y-163252D01*
Y-163538D01*
Y-163824D01*
Y-164111D01*
X960386D01*
Y-164397D01*
Y-164683D01*
Y-164970D01*
Y-165256D01*
X960099D01*
Y-165542D01*
Y-165829D01*
Y-166115D01*
X959813D01*
Y-166401D01*
Y-166688D01*
Y-166974D01*
X959527D01*
Y-167260D01*
Y-167547D01*
Y-167833D01*
X959241D01*
Y-168119D01*
Y-168405D01*
Y-168692D01*
X958954D01*
Y-168978D01*
Y-169264D01*
X958668D01*
Y-169551D01*
Y-169837D01*
X958381D01*
Y-170123D01*
Y-170410D01*
Y-170696D01*
X958095D01*
Y-170982D01*
Y-171269D01*
X957809D01*
Y-171555D01*
Y-171841D01*
Y-172127D01*
X957523D01*
Y-172414D01*
Y-172700D01*
X957236D01*
Y-172986D01*
Y-173273D01*
Y-173559D01*
X956950D01*
Y-173845D01*
Y-174132D01*
X956664D01*
Y-174418D01*
Y-174704D01*
Y-174991D01*
X956377D01*
Y-175277D01*
Y-175563D01*
X956091D01*
Y-175850D01*
Y-176136D01*
Y-176422D01*
X955805D01*
Y-176709D01*
Y-176995D01*
X955518D01*
Y-177281D01*
Y-177568D01*
Y-177854D01*
X955232D01*
Y-178140D01*
Y-178426D01*
X954946D01*
Y-178713D01*
Y-178999D01*
Y-179285D01*
X954659D01*
Y-179572D01*
Y-179858D01*
X954373D01*
Y-180144D01*
Y-180431D01*
Y-180717D01*
X954087D01*
Y-181003D01*
Y-181290D01*
X953800D01*
Y-181576D01*
Y-181862D01*
Y-182149D01*
X953514D01*
Y-182435D01*
Y-182721D01*
X953228D01*
Y-183007D01*
Y-183294D01*
Y-183580D01*
X952942D01*
Y-183866D01*
Y-184153D01*
X952655D01*
Y-184439D01*
Y-184725D01*
Y-185012D01*
X952369D01*
Y-185298D01*
Y-185584D01*
X952083D01*
Y-185871D01*
Y-186157D01*
Y-186443D01*
X951796D01*
Y-186730D01*
Y-187016D01*
X951510D01*
Y-187302D01*
Y-187588D01*
Y-187875D01*
X951224D01*
Y-188161D01*
Y-188447D01*
X950937D01*
Y-188734D01*
Y-189020D01*
Y-189306D01*
X950651D01*
Y-189593D01*
Y-189879D01*
X950365D01*
Y-190165D01*
Y-190452D01*
Y-190738D01*
X950078D01*
Y-191024D01*
Y-191311D01*
X949792D01*
Y-191597D01*
Y-191883D01*
Y-192169D01*
X949506D01*
Y-192456D01*
Y-192742D01*
X949220D01*
Y-193028D01*
Y-193315D01*
X948933D01*
Y-193601D01*
Y-193887D01*
X948647D01*
Y-194174D01*
Y-194460D01*
Y-194746D01*
X948361D01*
Y-195033D01*
X948074D01*
Y-195319D01*
Y-195605D01*
Y-195891D01*
X947788D01*
Y-196178D01*
X947502D01*
Y-196464D01*
Y-196750D01*
X947215D01*
Y-197037D01*
Y-197323D01*
X946929D01*
Y-197609D01*
Y-197896D01*
X946643D01*
Y-198182D01*
Y-198468D01*
X946356D01*
Y-198755D01*
X946070D01*
Y-199041D01*
Y-199327D01*
X945784D01*
Y-199614D01*
Y-199900D01*
X945497D01*
Y-200186D01*
X945211D01*
Y-200472D01*
X944925D01*
Y-200759D01*
Y-201045D01*
X944639D01*
Y-201331D01*
X944352D01*
Y-201618D01*
Y-201904D01*
X944066D01*
Y-202190D01*
X943780D01*
Y-202477D01*
X943493D01*
Y-202763D01*
Y-203049D01*
X943207D01*
Y-203336D01*
X942921D01*
Y-203622D01*
X942634D01*
Y-203908D01*
X942348D01*
Y-204195D01*
X942062D01*
Y-204481D01*
Y-204767D01*
X941775D01*
Y-205053D01*
X941489D01*
Y-205340D01*
X941203D01*
Y-205626D01*
X940916D01*
Y-205912D01*
X940630D01*
Y-206199D01*
X940344D01*
Y-206485D01*
X940057D01*
Y-206771D01*
X939485D01*
Y-207058D01*
X939199D01*
Y-207344D01*
X938912D01*
Y-207630D01*
X938626D01*
Y-207917D01*
X938340D01*
Y-208203D01*
X937767D01*
Y-208489D01*
X937481D01*
Y-208776D01*
X936908D01*
Y-209062D01*
X936622D01*
Y-209348D01*
X936049D01*
Y-209634D01*
X935763D01*
Y-209921D01*
X935190D01*
Y-210207D01*
X934618D01*
Y-210493D01*
X934045D01*
Y-210780D01*
X933472D01*
Y-211066D01*
X932900D01*
Y-211352D01*
X932041D01*
Y-211639D01*
X931468D01*
Y-211925D01*
X930609D01*
Y-212211D01*
X929464D01*
Y-212498D01*
X928319D01*
Y-212784D01*
X926601D01*
Y-213070D01*
X924597D01*
Y-213357D01*
X924310D01*
Y-213070D01*
Y-212784D01*
Y-212498D01*
Y-212211D01*
Y-211925D01*
Y-211639D01*
Y-211352D01*
Y-211066D01*
Y-210780D01*
Y-210493D01*
Y-210207D01*
Y-209921D01*
Y-209634D01*
Y-209348D01*
Y-209062D01*
Y-208776D01*
Y-208489D01*
Y-208203D01*
Y-207917D01*
Y-207630D01*
Y-207344D01*
Y-207058D01*
Y-206771D01*
Y-206485D01*
Y-206199D01*
Y-205912D01*
Y-205626D01*
Y-205340D01*
Y-205053D01*
Y-204767D01*
Y-204481D01*
Y-204195D01*
Y-203908D01*
X924883D01*
Y-203622D01*
X925455D01*
Y-203336D01*
X926028D01*
Y-203049D01*
X926601D01*
Y-202763D01*
X927173D01*
Y-202477D01*
X927746D01*
Y-202190D01*
X928032D01*
Y-201904D01*
X928605D01*
Y-201618D01*
X928891D01*
Y-201331D01*
X929464D01*
Y-201045D01*
X929750D01*
Y-200759D01*
X930037D01*
Y-200472D01*
X930609D01*
Y-200186D01*
X930896D01*
Y-199900D01*
X931182D01*
Y-199614D01*
X931468D01*
Y-199327D01*
X931754D01*
Y-199041D01*
X932041D01*
Y-198755D01*
X932327D01*
Y-198468D01*
X932613D01*
Y-198182D01*
X932900D01*
Y-197896D01*
X933186D01*
Y-197609D01*
X933472D01*
Y-197323D01*
X933759D01*
Y-197037D01*
Y-196750D01*
X934045D01*
Y-196464D01*
X934331D01*
Y-196178D01*
X934618D01*
Y-195891D01*
Y-195605D01*
X934904D01*
Y-195319D01*
X935190D01*
Y-195033D01*
Y-194746D01*
X935476D01*
Y-194460D01*
Y-194174D01*
X935763D01*
Y-193887D01*
X936049D01*
Y-193601D01*
Y-193315D01*
X936335D01*
Y-193028D01*
Y-192742D01*
X936622D01*
Y-192456D01*
Y-192169D01*
X934904D01*
Y-191883D01*
X932900D01*
Y-191597D01*
X931754D01*
Y-191311D01*
X931182D01*
Y-191024D01*
X930323D01*
Y-190738D01*
X929750D01*
Y-190452D01*
X929464D01*
Y-190165D01*
X928891D01*
Y-189879D01*
X928605D01*
Y-189593D01*
X928319D01*
Y-189306D01*
X928032D01*
Y-189020D01*
X927746D01*
Y-188734D01*
X927460D01*
Y-188447D01*
Y-188161D01*
X927173D01*
Y-187875D01*
X926887D01*
Y-187588D01*
Y-187302D01*
X926601D01*
Y-187016D01*
Y-186730D01*
X926315D01*
Y-186443D01*
Y-186157D01*
X926028D01*
Y-185871D01*
Y-185584D01*
Y-185298D01*
X925742D01*
Y-185012D01*
Y-184725D01*
Y-184439D01*
Y-184153D01*
X925455D01*
Y-183866D01*
Y-183580D01*
Y-183294D01*
Y-183007D01*
Y-182721D01*
Y-182435D01*
Y-182149D01*
X925169D01*
Y-181862D01*
Y-181576D01*
Y-181290D01*
Y-181003D01*
Y-180717D01*
Y-180431D01*
Y-180144D01*
Y-179858D01*
Y-179572D01*
Y-179285D01*
Y-178999D01*
Y-178713D01*
Y-178426D01*
Y-178140D01*
Y-177854D01*
X924883D01*
Y-177568D01*
Y-177281D01*
Y-176995D01*
Y-176709D01*
Y-176422D01*
Y-176136D01*
Y-175850D01*
Y-175563D01*
Y-175277D01*
Y-174991D01*
Y-174704D01*
Y-174418D01*
Y-174132D01*
Y-173845D01*
Y-173559D01*
X924597D01*
Y-173273D01*
Y-172986D01*
Y-172700D01*
Y-172414D01*
Y-172127D01*
Y-171841D01*
Y-171555D01*
Y-171269D01*
Y-170982D01*
Y-170696D01*
Y-170410D01*
Y-170123D01*
Y-169837D01*
Y-169551D01*
Y-169264D01*
Y-168978D01*
X924310D01*
Y-168692D01*
Y-168405D01*
Y-168119D01*
Y-167833D01*
Y-167547D01*
Y-167260D01*
Y-166974D01*
Y-166688D01*
Y-166401D01*
Y-166115D01*
Y-165829D01*
Y-165542D01*
Y-165256D01*
Y-164970D01*
Y-164683D01*
Y-164397D01*
X924024D01*
Y-164111D01*
Y-163824D01*
Y-163538D01*
Y-163252D01*
Y-162966D01*
Y-162679D01*
Y-162393D01*
Y-162107D01*
Y-161820D01*
Y-161534D01*
Y-161248D01*
Y-160961D01*
Y-160675D01*
Y-160389D01*
X923738D01*
Y-160102D01*
Y-159816D01*
Y-159530D01*
Y-159244D01*
Y-158957D01*
Y-158671D01*
Y-158385D01*
Y-158098D01*
Y-157812D01*
Y-157526D01*
Y-157239D01*
Y-156953D01*
Y-156667D01*
Y-156380D01*
Y-156094D01*
Y-155808D01*
X923451D01*
Y-155521D01*
X937194D01*
Y-155808D01*
Y-156094D01*
Y-156380D01*
Y-156667D01*
Y-156953D01*
Y-157239D01*
Y-157526D01*
Y-157812D01*
Y-158098D01*
Y-158385D01*
Y-158671D01*
Y-158957D01*
Y-159244D01*
Y-159530D01*
X937481D01*
Y-159816D01*
Y-160102D01*
Y-160389D01*
Y-160675D01*
Y-160961D01*
Y-161248D01*
Y-161534D01*
Y-161820D01*
Y-162107D01*
Y-162393D01*
Y-162679D01*
Y-162966D01*
Y-163252D01*
Y-163538D01*
Y-163824D01*
Y-164111D01*
Y-164397D01*
Y-164683D01*
Y-164970D01*
Y-165256D01*
Y-165542D01*
Y-165829D01*
Y-166115D01*
Y-166401D01*
Y-166688D01*
Y-166974D01*
Y-167260D01*
Y-167547D01*
Y-167833D01*
Y-168119D01*
Y-168405D01*
Y-168692D01*
Y-168978D01*
Y-169264D01*
Y-169551D01*
Y-169837D01*
Y-170123D01*
Y-170410D01*
Y-170696D01*
Y-170982D01*
Y-171269D01*
X937767D01*
Y-171555D01*
X937481D01*
Y-171841D01*
Y-172127D01*
X937767D01*
Y-172414D01*
Y-172700D01*
Y-172986D01*
Y-173273D01*
Y-173559D01*
Y-173845D01*
Y-174132D01*
Y-174418D01*
Y-174704D01*
Y-174991D01*
Y-175277D01*
Y-175563D01*
Y-175850D01*
Y-176136D01*
Y-176422D01*
Y-176709D01*
Y-176995D01*
Y-177281D01*
Y-177568D01*
Y-177854D01*
Y-178140D01*
Y-178426D01*
Y-178713D01*
Y-178999D01*
Y-179285D01*
Y-179572D01*
X938053D01*
Y-179858D01*
Y-180144D01*
Y-180431D01*
X938340D01*
Y-180717D01*
X938626D01*
Y-181003D01*
X938912D01*
Y-181290D01*
X939771D01*
Y-181576D01*
X940630D01*
Y-181290D01*
X940916D01*
Y-181003D01*
Y-180717D01*
Y-180431D01*
X941203D01*
Y-180144D01*
Y-179858D01*
X941489D01*
Y-179572D01*
Y-179285D01*
Y-178999D01*
X941775D01*
Y-178713D01*
Y-178426D01*
Y-178140D01*
X942062D01*
Y-177854D01*
Y-177568D01*
Y-177281D01*
X942348D01*
Y-176995D01*
Y-176709D01*
Y-176422D01*
X942634D01*
Y-176136D01*
Y-175850D01*
X942921D01*
Y-175563D01*
Y-175277D01*
Y-174991D01*
X943207D01*
Y-174704D01*
Y-174418D01*
Y-174132D01*
X943493D01*
Y-173845D01*
Y-173559D01*
Y-173273D01*
X943780D01*
Y-172986D01*
Y-172700D01*
X944066D01*
Y-172414D01*
Y-172127D01*
Y-171841D01*
X944352D01*
Y-171555D01*
Y-171269D01*
Y-170982D01*
X944639D01*
Y-170696D01*
Y-170410D01*
Y-170123D01*
X944925D01*
Y-169837D01*
Y-169551D01*
X945211D01*
Y-169264D01*
Y-168978D01*
Y-168692D01*
X945497D01*
Y-168405D01*
Y-168119D01*
Y-167833D01*
X945784D01*
Y-167547D01*
Y-167260D01*
Y-166974D01*
X946070D01*
Y-166688D01*
Y-166401D01*
X946356D01*
Y-166115D01*
Y-165829D01*
Y-165542D01*
X946643D01*
Y-165256D01*
Y-164970D01*
Y-164683D01*
X946929D01*
Y-164397D01*
Y-164111D01*
Y-163824D01*
X947215D01*
Y-163538D01*
Y-163252D01*
Y-162966D01*
Y-162679D01*
X947502D01*
Y-162393D01*
Y-162107D01*
Y-161820D01*
Y-161534D01*
X947788D01*
Y-161248D01*
Y-160961D01*
Y-160675D01*
Y-160389D01*
Y-160102D01*
X948074D01*
Y-159816D01*
Y-159530D01*
Y-159244D01*
Y-158957D01*
Y-158671D01*
Y-158385D01*
X948361D01*
Y-158098D01*
Y-157812D01*
Y-157526D01*
Y-157239D01*
Y-156953D01*
Y-156667D01*
Y-156380D01*
Y-156094D01*
Y-155808D01*
Y-155521D01*
X961245D01*
Y-155808D01*
D02*
G37*
G36*
X903409Y-138343D02*
Y-138629D01*
X903123D01*
Y-138915D01*
Y-139202D01*
Y-139488D01*
Y-139774D01*
Y-140060D01*
Y-140347D01*
X902837D01*
Y-140633D01*
Y-140919D01*
Y-141206D01*
Y-141492D01*
Y-141778D01*
Y-142065D01*
X902551D01*
Y-142351D01*
Y-142637D01*
Y-142924D01*
Y-143210D01*
Y-143496D01*
Y-143783D01*
Y-144069D01*
X902264D01*
Y-144355D01*
Y-144641D01*
Y-144928D01*
Y-145214D01*
Y-145501D01*
Y-145787D01*
X901978D01*
Y-146073D01*
Y-146359D01*
Y-146646D01*
Y-146932D01*
Y-147218D01*
Y-147505D01*
X901692D01*
Y-147791D01*
Y-148077D01*
Y-148364D01*
Y-148650D01*
Y-148936D01*
Y-149223D01*
Y-149509D01*
X901405D01*
Y-149795D01*
Y-150082D01*
Y-150368D01*
Y-150654D01*
Y-150940D01*
Y-151227D01*
X901119D01*
Y-151513D01*
Y-151799D01*
Y-152086D01*
Y-152372D01*
Y-152658D01*
Y-152945D01*
X900833D01*
Y-153231D01*
Y-153517D01*
Y-153804D01*
Y-154090D01*
Y-154376D01*
Y-154663D01*
X900546D01*
Y-154949D01*
Y-155235D01*
Y-155521D01*
Y-155808D01*
Y-156094D01*
Y-156380D01*
Y-156667D01*
X900260D01*
Y-156953D01*
Y-157239D01*
Y-157526D01*
Y-157812D01*
Y-158098D01*
Y-158385D01*
X899974D01*
Y-158671D01*
Y-158957D01*
X900546D01*
Y-158671D01*
X900833D01*
Y-158385D01*
X901119D01*
Y-158098D01*
X901692D01*
Y-157812D01*
X901978D01*
Y-157526D01*
X902264D01*
Y-157239D01*
X902837D01*
Y-156953D01*
X903409D01*
Y-156667D01*
X903696D01*
Y-156380D01*
X904268D01*
Y-156094D01*
X905127D01*
Y-155808D01*
X905700D01*
Y-155521D01*
X906559D01*
Y-155235D01*
X907990D01*
Y-154949D01*
X914289D01*
Y-155235D01*
X915435D01*
Y-155521D01*
X916294D01*
Y-155808D01*
X916866D01*
Y-156094D01*
X917153D01*
Y-156380D01*
X917725D01*
Y-156667D01*
X918011D01*
Y-156953D01*
X918298D01*
Y-157239D01*
X918584D01*
Y-157526D01*
X918870D01*
Y-157812D01*
Y-158098D01*
X919157D01*
Y-158385D01*
Y-158671D01*
X919443D01*
Y-158957D01*
Y-159244D01*
Y-159530D01*
X919729D01*
Y-159816D01*
Y-160102D01*
Y-160389D01*
Y-160675D01*
X920016D01*
Y-160961D01*
Y-161248D01*
Y-161534D01*
Y-161820D01*
Y-162107D01*
Y-162393D01*
Y-162679D01*
Y-162966D01*
Y-163252D01*
Y-163538D01*
Y-163824D01*
Y-164111D01*
Y-164397D01*
Y-164683D01*
Y-164970D01*
Y-165256D01*
Y-165542D01*
Y-165829D01*
X919729D01*
Y-166115D01*
Y-166401D01*
Y-166688D01*
Y-166974D01*
Y-167260D01*
Y-167547D01*
Y-167833D01*
X919443D01*
Y-168119D01*
Y-168405D01*
Y-168692D01*
Y-168978D01*
Y-169264D01*
Y-169551D01*
Y-169837D01*
X919157D01*
Y-170123D01*
Y-170410D01*
Y-170696D01*
Y-170982D01*
Y-171269D01*
Y-171555D01*
X918870D01*
Y-171841D01*
Y-172127D01*
Y-172414D01*
Y-172700D01*
Y-172986D01*
Y-173273D01*
X918584D01*
Y-173559D01*
Y-173845D01*
Y-174132D01*
Y-174418D01*
Y-174704D01*
Y-174991D01*
X918298D01*
Y-175277D01*
Y-175563D01*
Y-175850D01*
Y-176136D01*
Y-176422D01*
Y-176709D01*
Y-176995D01*
X918011D01*
Y-177281D01*
Y-177568D01*
Y-177854D01*
Y-178140D01*
Y-178426D01*
Y-178713D01*
X917725D01*
Y-178999D01*
Y-179285D01*
Y-179572D01*
Y-179858D01*
Y-180144D01*
Y-180431D01*
X917439D01*
Y-180717D01*
Y-181003D01*
Y-181290D01*
Y-181576D01*
Y-181862D01*
Y-182149D01*
Y-182435D01*
X917153D01*
Y-182721D01*
Y-183007D01*
Y-183294D01*
Y-183580D01*
Y-183866D01*
Y-184153D01*
X916866D01*
Y-184439D01*
Y-184725D01*
Y-185012D01*
Y-185298D01*
Y-185584D01*
Y-185871D01*
X916580D01*
Y-186157D01*
Y-186443D01*
Y-186730D01*
Y-187016D01*
Y-187302D01*
Y-187588D01*
X916294D01*
Y-187875D01*
Y-188161D01*
Y-188447D01*
Y-188734D01*
Y-189020D01*
Y-189306D01*
Y-189593D01*
X916007D01*
Y-189879D01*
Y-190165D01*
Y-190452D01*
Y-190738D01*
Y-191024D01*
Y-191311D01*
X915721D01*
Y-191597D01*
Y-191883D01*
X902551D01*
Y-191597D01*
Y-191311D01*
X902837D01*
Y-191024D01*
Y-190738D01*
Y-190452D01*
Y-190165D01*
Y-189879D01*
Y-189593D01*
X903123D01*
Y-189306D01*
Y-189020D01*
Y-188734D01*
Y-188447D01*
Y-188161D01*
Y-187875D01*
Y-187588D01*
X903409D01*
Y-187302D01*
Y-187016D01*
Y-186730D01*
Y-186443D01*
Y-186157D01*
Y-185871D01*
X903696D01*
Y-185584D01*
Y-185298D01*
Y-185012D01*
Y-184725D01*
Y-184439D01*
Y-184153D01*
X903982D01*
Y-183866D01*
Y-183580D01*
Y-183294D01*
Y-183007D01*
Y-182721D01*
Y-182435D01*
Y-182149D01*
X904268D01*
Y-181862D01*
Y-181576D01*
Y-181290D01*
Y-181003D01*
Y-180717D01*
Y-180431D01*
X904555D01*
Y-180144D01*
Y-179858D01*
Y-179572D01*
Y-179285D01*
Y-178999D01*
Y-178713D01*
Y-178426D01*
X904841D01*
Y-178140D01*
Y-177854D01*
Y-177568D01*
Y-177281D01*
Y-176995D01*
Y-176709D01*
X905127D01*
Y-176422D01*
Y-176136D01*
Y-175850D01*
Y-175563D01*
Y-175277D01*
Y-174991D01*
X905414D01*
Y-174704D01*
Y-174418D01*
Y-174132D01*
Y-173845D01*
Y-173559D01*
Y-173273D01*
X905700D01*
Y-172986D01*
Y-172700D01*
Y-172414D01*
Y-172127D01*
Y-171841D01*
Y-171555D01*
Y-171269D01*
X905986D01*
Y-170982D01*
Y-170696D01*
Y-170410D01*
Y-170123D01*
Y-169837D01*
Y-169551D01*
X906273D01*
Y-169264D01*
Y-168978D01*
Y-168692D01*
Y-168405D01*
Y-168119D01*
Y-167833D01*
Y-167547D01*
X906559D01*
Y-167260D01*
Y-166974D01*
Y-166688D01*
Y-166401D01*
Y-166115D01*
Y-165829D01*
X906273D01*
Y-165542D01*
Y-165256D01*
X905986D01*
Y-164970D01*
X905700D01*
Y-164683D01*
X905127D01*
Y-164397D01*
X903409D01*
Y-164683D01*
X901978D01*
Y-164970D01*
X901119D01*
Y-165256D01*
X900546D01*
Y-165542D01*
X900260D01*
Y-165829D01*
X899687D01*
Y-166115D01*
X899401D01*
Y-166401D01*
X899115D01*
Y-166688D01*
Y-166974D01*
X898828D01*
Y-167260D01*
Y-167547D01*
Y-167833D01*
X898542D01*
Y-168119D01*
Y-168405D01*
Y-168692D01*
Y-168978D01*
Y-169264D01*
Y-169551D01*
X898256D01*
Y-169837D01*
Y-170123D01*
Y-170410D01*
Y-170696D01*
Y-170982D01*
Y-171269D01*
Y-171555D01*
X897970D01*
Y-171841D01*
Y-172127D01*
Y-172414D01*
Y-172700D01*
Y-172986D01*
Y-173273D01*
X897683D01*
Y-173559D01*
Y-173845D01*
Y-174132D01*
Y-174418D01*
Y-174704D01*
Y-174991D01*
X897397D01*
Y-175277D01*
Y-175563D01*
Y-175850D01*
Y-176136D01*
Y-176422D01*
Y-176709D01*
X897111D01*
Y-176995D01*
Y-177281D01*
Y-177568D01*
Y-177854D01*
Y-178140D01*
Y-178426D01*
Y-178713D01*
X896824D01*
Y-178999D01*
Y-179285D01*
Y-179572D01*
Y-179858D01*
Y-180144D01*
Y-180431D01*
X896538D01*
Y-180717D01*
Y-181003D01*
Y-181290D01*
Y-181576D01*
Y-181862D01*
Y-182149D01*
X896252D01*
Y-182435D01*
Y-182721D01*
Y-183007D01*
Y-183294D01*
Y-183580D01*
Y-183866D01*
Y-184153D01*
X895965D01*
Y-184439D01*
Y-184725D01*
Y-185012D01*
Y-185298D01*
Y-185584D01*
Y-185871D01*
X895679D01*
Y-186157D01*
Y-186443D01*
Y-186730D01*
Y-187016D01*
Y-187302D01*
Y-187588D01*
X895393D01*
Y-187875D01*
Y-188161D01*
Y-188447D01*
Y-188734D01*
Y-189020D01*
Y-189306D01*
X895106D01*
Y-189593D01*
Y-189879D01*
Y-190165D01*
Y-190452D01*
Y-190738D01*
Y-191024D01*
Y-191311D01*
X894820D01*
Y-191597D01*
Y-191883D01*
X881650D01*
Y-191597D01*
Y-191311D01*
X881936D01*
Y-191024D01*
Y-190738D01*
Y-190452D01*
Y-190165D01*
Y-189879D01*
Y-189593D01*
Y-189306D01*
X882222D01*
Y-189020D01*
Y-188734D01*
Y-188447D01*
Y-188161D01*
Y-187875D01*
Y-187588D01*
X882509D01*
Y-187302D01*
Y-187016D01*
Y-186730D01*
Y-186443D01*
Y-186157D01*
Y-185871D01*
X882795D01*
Y-185584D01*
Y-185298D01*
Y-185012D01*
Y-184725D01*
Y-184439D01*
Y-184153D01*
Y-183866D01*
X883081D01*
Y-183580D01*
Y-183294D01*
Y-183007D01*
Y-182721D01*
Y-182435D01*
Y-182149D01*
X883368D01*
Y-181862D01*
Y-181576D01*
Y-181290D01*
Y-181003D01*
Y-180717D01*
Y-180431D01*
X883654D01*
Y-180144D01*
Y-179858D01*
Y-179572D01*
Y-179285D01*
Y-178999D01*
Y-178713D01*
X883940D01*
Y-178426D01*
Y-178140D01*
Y-177854D01*
Y-177568D01*
Y-177281D01*
Y-176995D01*
Y-176709D01*
X884227D01*
Y-176422D01*
Y-176136D01*
Y-175850D01*
Y-175563D01*
Y-175277D01*
Y-174991D01*
X884513D01*
Y-174704D01*
Y-174418D01*
Y-174132D01*
Y-173845D01*
Y-173559D01*
Y-173273D01*
X884799D01*
Y-172986D01*
Y-172700D01*
Y-172414D01*
Y-172127D01*
Y-171841D01*
Y-171555D01*
Y-171269D01*
X885085D01*
Y-170982D01*
Y-170696D01*
Y-170410D01*
Y-170123D01*
Y-169837D01*
Y-169551D01*
X885372D01*
Y-169264D01*
Y-168978D01*
Y-168692D01*
Y-168405D01*
Y-168119D01*
Y-167833D01*
X885658D01*
Y-167547D01*
Y-167260D01*
Y-166974D01*
Y-166688D01*
Y-166401D01*
Y-166115D01*
X885944D01*
Y-165829D01*
Y-165542D01*
Y-165256D01*
Y-164970D01*
Y-164683D01*
Y-164397D01*
Y-164111D01*
X886231D01*
Y-163824D01*
Y-163538D01*
Y-163252D01*
Y-162966D01*
Y-162679D01*
Y-162393D01*
X886517D01*
Y-162107D01*
Y-161820D01*
Y-161534D01*
Y-161248D01*
Y-160961D01*
Y-160675D01*
X886803D01*
Y-160389D01*
Y-160102D01*
Y-159816D01*
Y-159530D01*
Y-159244D01*
Y-158957D01*
X887090D01*
Y-158671D01*
Y-158385D01*
Y-158098D01*
Y-157812D01*
Y-157526D01*
Y-157239D01*
Y-156953D01*
X887376D01*
Y-156667D01*
Y-156380D01*
Y-156094D01*
Y-155808D01*
Y-155521D01*
Y-155235D01*
X887662D01*
Y-154949D01*
Y-154663D01*
Y-154376D01*
Y-154090D01*
Y-153804D01*
Y-153517D01*
X887949D01*
Y-153231D01*
Y-152945D01*
Y-152658D01*
Y-152372D01*
Y-152086D01*
Y-151799D01*
Y-151513D01*
X888235D01*
Y-151227D01*
Y-150940D01*
Y-150654D01*
Y-150368D01*
Y-150082D01*
Y-149795D01*
X888521D01*
Y-149509D01*
Y-149223D01*
Y-148936D01*
Y-148650D01*
Y-148364D01*
Y-148077D01*
X888807D01*
Y-147791D01*
Y-147505D01*
Y-147218D01*
Y-146932D01*
Y-146646D01*
Y-146359D01*
X889094D01*
Y-146073D01*
Y-145787D01*
Y-145501D01*
Y-145214D01*
Y-144928D01*
Y-144641D01*
Y-144355D01*
X889380D01*
Y-144069D01*
Y-143783D01*
Y-143496D01*
Y-143210D01*
Y-142924D01*
Y-142637D01*
X889666D01*
Y-142351D01*
Y-142065D01*
Y-141778D01*
Y-141492D01*
Y-141206D01*
Y-140919D01*
X889953D01*
Y-140633D01*
Y-140347D01*
Y-140060D01*
Y-139774D01*
Y-139488D01*
Y-139202D01*
Y-138915D01*
X890239D01*
Y-138629D01*
Y-138343D01*
Y-138056D01*
X903409D01*
Y-138343D01*
D02*
G37*
%LPC*%
G36*
X212977Y141463D02*
X212474Y141463D01*
X142501Y141463D01*
X142501Y141463D01*
X141997Y141463D01*
X141008Y141267D01*
X140077Y140882D01*
X139239Y140323D01*
X138525Y139611D01*
X137964Y138775D01*
X137576Y137844D01*
X137377Y136856D01*
X137376Y136352D01*
X137376Y127436D01*
X137376Y127436D01*
X137377Y126932D01*
X137576Y125944D01*
X137964Y125013D01*
X138525Y124177D01*
X139239Y123465D01*
X140077Y122906D01*
X141008Y122521D01*
X141997Y122325D01*
X142501Y122325D01*
X212418D01*
X212922Y122325D01*
X213910Y122521D01*
X214842Y122906D01*
X215680Y123465D01*
X216394Y124177D01*
X216955Y125013D01*
X217343Y125944D01*
X217542Y126932D01*
X217543Y127436D01*
X217599Y136352D01*
Y136352D01*
Y136352D01*
D01*
X217597Y136856D01*
X217398Y137844D01*
X217011Y138775D01*
X216449Y139611D01*
X215736Y140323D01*
X214897Y140882D01*
X213966Y141267D01*
X212977Y141463D01*
D02*
G37*
G36*
X256587Y135452D02*
X256432Y135450D01*
X254154Y135450D01*
X254099Y130172D01*
X255307D01*
Y131644D01*
X256488D01*
X257502Y130172D01*
X258807D01*
X257627Y131866D01*
X257627D01*
X257748Y131918D01*
X257973Y132053D01*
X258177Y132219D01*
X258356Y132411D01*
X258432Y132519D01*
X258432D01*
X258504Y132632D01*
X258613Y132876D01*
X258684Y133134D01*
X258715Y133399D01*
X258710Y133533D01*
X258710Y133533D01*
X258715Y133667D01*
X258685Y133932D01*
X258614Y134190D01*
X258505Y134435D01*
X258432Y134547D01*
X258432Y134547D01*
X258362Y134658D01*
X258189Y134857D01*
X257987Y135026D01*
X257762Y135163D01*
X257640Y135213D01*
X257640Y135213D01*
X257640D01*
X257498Y135274D01*
X257201Y135365D01*
X256896Y135424D01*
X256587Y135452D01*
D02*
G37*
G36*
X245988Y137741D02*
X238154Y134519D01*
X230321Y137741D01*
X232626Y133130D01*
X233432Y133464D01*
X232140Y136075D01*
X237015Y134075D01*
X229474Y130977D01*
X238154Y122297D01*
X246835Y130977D01*
X239307Y134075D01*
X244168Y136075D01*
X242876Y133491D01*
X243696Y133158D01*
X245988Y137741D01*
D02*
G37*
G36*
X265432Y135477D02*
X261752D01*
Y134491D01*
X263988D01*
X262904Y133269D01*
Y132464D01*
X263460D01*
X263502Y132462D01*
X263585Y132457D01*
X263669Y132448D01*
X263752Y132434D01*
X263793Y132426D01*
X263793D01*
X263811Y132422D01*
X263846Y132413D01*
X263881Y132404D01*
X263916Y132393D01*
X263933Y132387D01*
X263933D01*
X263949Y132381D01*
X263980Y132369D01*
X264011Y132356D01*
X264041Y132342D01*
X264056Y132335D01*
X264056Y132335D01*
X264070Y132328D01*
X264097Y132313D01*
X264123Y132297D01*
X264149Y132280D01*
X264161Y132271D01*
X264173Y132262D01*
X264195Y132244D01*
X264217Y132226D01*
X264238Y132206D01*
X264248Y132195D01*
X264266Y132176D01*
X264300Y132133D01*
X264329Y132087D01*
X264354Y132039D01*
X264365Y132014D01*
X264374Y131988D01*
X264389Y131934D01*
X264399Y131880D01*
X264404Y131825D01*
X264404Y131797D01*
X264446Y131783D01*
X264444Y131709D01*
X264411Y131565D01*
X264342Y131435D01*
X264242Y131326D01*
X264182Y131283D01*
X264098Y131241D01*
X263923Y131175D01*
X263740Y131132D01*
X263554Y131115D01*
X263460Y131116D01*
X263460D01*
X263358Y131118D01*
X263154Y131134D01*
X262951Y131165D01*
X262752Y131212D01*
X262654Y131241D01*
X262561Y131269D01*
X262378Y131338D01*
X262203Y131425D01*
X262038Y131530D01*
X261960Y131588D01*
Y131588D01*
X261488Y130658D01*
X261593Y130586D01*
X261813Y130459D01*
X262043Y130351D01*
X262282Y130262D01*
X262404Y130227D01*
X262404Y130227D01*
X262537Y130192D01*
X262805Y130139D01*
X263077Y130104D01*
X263351Y130087D01*
X263488Y130088D01*
X263643Y130084D01*
X263953Y130109D01*
X264258Y130168D01*
X264554Y130262D01*
X264696Y130325D01*
X264808Y130371D01*
X265016Y130498D01*
X265203Y130653D01*
X265365Y130834D01*
X265432Y130936D01*
Y130936D01*
X265492Y131030D01*
X265582Y131234D01*
X265642Y131449D01*
X265670Y131671D01*
X265668Y131783D01*
X265668Y131783D01*
X265674Y131920D01*
X265634Y132190D01*
X265541Y132448D01*
X265399Y132682D01*
X265307Y132783D01*
X265202Y132890D01*
X264958Y133065D01*
X264688Y133196D01*
X264401Y133280D01*
X264251Y133297D01*
X264251Y133297D01*
X265432Y134686D01*
Y135477D01*
D02*
G37*
G36*
X260863Y135450D02*
X259654D01*
Y130172D01*
X260863D01*
Y135450D01*
D02*
G37*
G36*
X253279D02*
X249307D01*
X249293Y130172D01*
X250501D01*
Y132102D01*
X252946D01*
Y133075D01*
X250501D01*
Y134464D01*
X253279D01*
Y135450D01*
D02*
G37*
G36*
X269183Y135454D02*
X268988Y135450D01*
X266599D01*
X266529Y130172D01*
X268988D01*
X269183Y130168D01*
X269573Y130206D01*
X269956Y130290D01*
X270326Y130419D01*
X270502Y130505D01*
X270658Y130582D01*
X270948Y130776D01*
X271209Y131009D01*
X271435Y131275D01*
X271529Y131422D01*
X271707Y131740D01*
X271891Y132446D01*
Y133175D01*
X271707Y133881D01*
X271529Y134200D01*
X271529D01*
X271435Y134347D01*
X271209Y134613D01*
X270948Y134845D01*
X270658Y135040D01*
X270502Y135116D01*
X270502D01*
X270326Y135202D01*
X269956Y135331D01*
X269573Y135415D01*
X269183Y135454D01*
D02*
G37*
G36*
X271765Y128019D02*
X271765D01*
Y128019D01*
X271765Y128019D01*
D02*
G37*
G36*
X253710D02*
D01*
Y128019D01*
Y128019D01*
D02*
G37*
G36*
X251354Y128951D02*
X250977Y128908D01*
X250609Y128820D01*
X250253Y128689D01*
X250085Y128602D01*
X249926Y128518D01*
X249636Y128309D01*
X249375Y128062D01*
X249150Y127783D01*
X249057Y127630D01*
X248967Y127472D01*
X248831Y127135D01*
X248740Y126784D01*
X248695Y126423D01*
X248696Y126241D01*
X248696D01*
X248695Y126059D01*
X248740Y125699D01*
X248831Y125347D01*
X248967Y125010D01*
X249057Y124852D01*
X249057Y124852D01*
X249150Y124699D01*
X249375Y124420D01*
X249636Y124174D01*
X249926Y123964D01*
X250085Y123880D01*
X250252Y123791D01*
X250607Y123657D01*
X250976Y123569D01*
X251354Y123529D01*
X251543Y123533D01*
X251702Y123531D01*
X252017Y123559D01*
X252329Y123619D01*
X252633Y123709D01*
X252779Y123769D01*
X252779D01*
X252914Y123826D01*
X253169Y123972D01*
X253404Y124148D01*
X253616Y124350D01*
X253710Y124463D01*
X252932Y125186D01*
X252932D01*
X252798Y125042D01*
X252485Y124805D01*
X252126Y124647D01*
X251740Y124576D01*
X251543Y124574D01*
X251430Y124576D01*
X251204Y124600D01*
X250983Y124652D01*
X250770Y124733D01*
X250668Y124783D01*
X250668D01*
X250577Y124838D01*
X250406Y124967D01*
X250255Y125118D01*
X250126Y125288D01*
X250071Y125380D01*
X250033Y125490D01*
X249978Y125717D01*
X249953Y125948D01*
X249959Y126181D01*
X249974Y126297D01*
X250029Y126324D01*
X250033Y126438D01*
X250062Y126664D01*
X250118Y126885D01*
X250201Y127098D01*
X250252Y127200D01*
X250252Y127199D01*
X250308Y127290D01*
X250438Y127459D01*
X250589Y127610D01*
X250758Y127740D01*
X250849Y127797D01*
X250951Y127847D01*
X251163Y127927D01*
X251384Y127980D01*
X251610Y128004D01*
X251724Y128005D01*
X251920Y128004D01*
X252306Y127932D01*
X252665Y127774D01*
X252979Y127538D01*
X253113Y127394D01*
X253710Y128019D01*
X253616Y128129D01*
X253405Y128328D01*
X253174Y128504D01*
X252925Y128653D01*
X252793Y128713D01*
X252793D01*
X252644Y128773D01*
X252337Y128863D01*
X252022Y128922D01*
X251703Y128951D01*
X251543Y128950D01*
X251354Y128951D01*
D02*
G37*
G36*
X266210Y128908D02*
X265210D01*
X263265Y125644D01*
X261293Y128908D01*
X260293D01*
Y123644D01*
X261432D01*
Y126741D01*
X262974Y124199D01*
X263529D01*
X265071Y126811D01*
Y123644D01*
X266210D01*
Y128908D01*
D02*
G37*
G36*
X44771Y132382D02*
X37894D01*
Y125492D01*
X44771D01*
Y132382D01*
D02*
G37*
G36*
X34929D02*
X28051D01*
Y125492D01*
X34929D01*
Y132382D01*
D02*
G37*
G36*
X25086D02*
X18209D01*
Y125492D01*
X25086D01*
Y132382D01*
D02*
G37*
G36*
X269906Y128913D02*
X269752Y128908D01*
X267474D01*
Y123644D01*
X268696D01*
Y125033D01*
X269752D01*
X269752Y125033D01*
X269906Y125028D01*
X270215Y125051D01*
X270520Y125107D01*
X270817Y125195D01*
X270960Y125255D01*
X271082Y125307D01*
X271309Y125445D01*
X271514Y125614D01*
X271692Y125811D01*
X271765Y125922D01*
X271902Y126152D01*
X272044Y126668D01*
Y127203D01*
X271902Y127719D01*
X271765Y127950D01*
Y128019D01*
X271690Y128128D01*
X271511Y128324D01*
X271307Y128493D01*
X271081Y128632D01*
X270960Y128686D01*
X270960Y128686D01*
X270817Y128745D01*
X270520Y128834D01*
X270215Y128890D01*
X269906Y128913D01*
D02*
G37*
G36*
X257404Y128950D02*
X256196D01*
X253849Y123686D01*
X255099D01*
X255571Y124825D01*
X258015D01*
X258474Y123686D01*
X259752D01*
X257404Y128950D01*
D02*
G37*
G36*
X339469Y125689D02*
X329429D01*
Y119587D01*
X339469D01*
Y125689D01*
D02*
G37*
G36*
X299705Y122539D02*
X293602D01*
Y115650D01*
X299705D01*
Y122539D01*
D02*
G37*
G36*
X212977Y112297D02*
X212474Y112297D01*
X142501Y112297D01*
X142501Y112297D01*
X141997Y112297D01*
X141008Y112100D01*
X140077Y111715D01*
X139239Y111156D01*
X138525Y110445D01*
X137964Y109608D01*
X137576Y108677D01*
X137377Y107689D01*
X137376Y107185D01*
X137376Y98283D01*
X137376D01*
Y98283D01*
Y97778D01*
X137573Y96788D01*
X137959Y95855D01*
X138520Y95016D01*
X138877Y94659D01*
X138877D01*
X139234Y94302D01*
X140073Y93741D01*
X141006Y93355D01*
X141996Y93158D01*
X142501Y93158D01*
X212418D01*
X212923Y93158D01*
X213913Y93355D01*
X214845Y93741D01*
X215685Y94302D01*
X216042Y94659D01*
X216399Y95016D01*
X216960Y95855D01*
X217346Y96788D01*
X217543Y97778D01*
Y98283D01*
X217599Y107185D01*
X217599D01*
X217597Y107689D01*
X217398Y108677D01*
X217011Y109608D01*
X216449Y110445D01*
X215736Y111156D01*
X214897Y111715D01*
X213966Y112100D01*
X212977Y112297D01*
D02*
G37*
G36*
X287303Y103642D02*
X282382D01*
Y99114D01*
X287303D01*
Y103642D01*
D02*
G37*
G36*
X280610D02*
X275689D01*
Y99114D01*
X280610D01*
Y103642D01*
D02*
G37*
G36*
X298130Y102264D02*
X289665D01*
Y98917D01*
X298130D01*
Y102264D01*
D02*
G37*
G36*
Y97933D02*
X289665D01*
Y94587D01*
X298130D01*
Y97933D01*
D02*
G37*
G36*
X287303Y97736D02*
X282382D01*
Y93209D01*
X287303D01*
Y97736D01*
D02*
G37*
G36*
X280610D02*
X275689D01*
Y93209D01*
X280610D01*
Y97736D01*
D02*
G37*
G36*
X298130Y93602D02*
X289665D01*
Y90256D01*
X298130D01*
Y93602D01*
D02*
G37*
G36*
X87908Y89685D02*
X87306Y89685D01*
X69945Y89685D01*
Y89685D01*
X69945D01*
X69343Y89685D01*
X68162Y89451D01*
X67050Y88990D01*
X66049Y88321D01*
X65624Y87896D01*
X65198Y87470D01*
X64529Y86469D01*
X64069Y85357D01*
X63834Y84176D01*
X63834Y83574D01*
Y68824D01*
X62303D01*
Y70177D01*
X54626D01*
Y68824D01*
X49084D01*
X48483Y68823D01*
X47304Y68586D01*
X46194Y68124D01*
X45196Y67455D01*
X44347Y66604D01*
X43680Y65604D01*
X43220Y64493D01*
X42986Y63314D01*
X42986Y62713D01*
Y45352D01*
X42986D01*
Y45352D01*
X42986Y44751D01*
X43220Y43572D01*
X43680Y42461D01*
X44347Y41461D01*
X45196Y40610D01*
X46194Y39941D01*
X47304Y39479D01*
X48483Y39242D01*
X49084Y39241D01*
X54934D01*
X55063Y38930D01*
X55483Y38301D01*
X56018Y37766D01*
X56646Y37346D01*
X57345Y37057D01*
X58087Y36909D01*
X58843D01*
X59584Y37057D01*
X60283Y37346D01*
X60912Y37766D01*
X61446Y38301D01*
X61866Y38930D01*
X61995Y39241D01*
X63834D01*
Y24491D01*
X63834D01*
X63835Y23890D01*
X64072Y22711D01*
X64534Y21601D01*
X65203Y20603D01*
X66054Y19754D01*
X67054Y19087D01*
X68165Y18628D01*
X69344Y18393D01*
X69945Y18393D01*
X87306D01*
Y18393D01*
X87306D01*
X87306D01*
D01*
X87907Y18393D01*
X89086Y18628D01*
X90197Y19087D01*
X91197Y19754D01*
X92048Y20603D01*
X92717Y21601D01*
X93179Y22711D01*
X93416Y23890D01*
X93417Y24491D01*
Y39282D01*
X95468D01*
X95614Y38930D01*
X96034Y38301D01*
X96569Y37766D01*
X97198Y37346D01*
X97896Y37057D01*
X98638Y36909D01*
X99394D01*
X100135Y37057D01*
X100834Y37346D01*
X101463Y37766D01*
X101997Y38301D01*
X102418Y38930D01*
X102564Y39282D01*
X108769D01*
X109950Y39517D01*
X111062Y39978D01*
X112063Y40647D01*
X112488Y41072D01*
X112488D01*
X112914Y41498D01*
X113583Y42499D01*
X114044Y43611D01*
X114278Y44792D01*
X114278Y45393D01*
Y62741D01*
X114278Y63343D01*
X114044Y64523D01*
X113583Y65636D01*
X112914Y66637D01*
X112488Y67062D01*
X112488Y67062D01*
X112063Y67488D01*
X111062Y68156D01*
X109950Y68617D01*
X108769Y68852D01*
X108167Y68852D01*
X101931D01*
X101463Y69320D01*
X100834Y69740D01*
X100135Y70030D01*
X99394Y70177D01*
X98638D01*
X97896Y70030D01*
X97198Y69740D01*
X96569Y69320D01*
X96101Y68852D01*
X93417D01*
Y83574D01*
X93417Y83574D01*
Y84176D01*
X93182Y85357D01*
X92722Y86469D01*
X92053Y87470D01*
X91627Y87896D01*
X91627Y87896D01*
X91202Y88321D01*
X90201Y88990D01*
X89089Y89451D01*
X87908Y89685D01*
D02*
G37*
G36*
X57397Y111516D02*
X50477D01*
X49869Y111395D01*
X49295Y111157D01*
X48780Y110813D01*
X48341Y110374D01*
X47996Y109858D01*
X47759Y109285D01*
X47638Y108676D01*
Y108366D01*
Y90354D01*
Y90054D01*
X47755Y89464D01*
X47985Y88909D01*
X48319Y88409D01*
X48744Y87984D01*
X49244Y87650D01*
X49799Y87420D01*
X50388Y87303D01*
X57486D01*
X58075Y87420D01*
X58630Y87650D01*
X59130Y87984D01*
X59555Y88409D01*
X59889Y88909D01*
X60119Y89464D01*
X60236Y90054D01*
Y90354D01*
Y108366D01*
Y108676D01*
X60115Y109285D01*
X59878Y109858D01*
X59533Y110374D01*
X59094Y110813D01*
X58578Y111157D01*
X58005Y111395D01*
X57397Y111516D01*
D02*
G37*
G36*
X298130Y89272D02*
X289665D01*
Y85925D01*
X298130D01*
Y89272D01*
D02*
G37*
G36*
X284154Y91831D02*
X278445D01*
Y85335D01*
X284154D01*
Y91831D01*
D02*
G37*
G36*
X276673D02*
X270965D01*
Y85335D01*
X276673D01*
Y91831D01*
D02*
G37*
G36*
X216732Y85335D02*
X212106D01*
X212106Y83130D01*
X211122D01*
Y83957D01*
X198327D01*
Y83130D01*
X142501Y83130D01*
X142501Y83130D01*
X141997Y83130D01*
X141008Y82934D01*
X140077Y82548D01*
X139239Y81990D01*
X138525Y81278D01*
X137964Y80441D01*
X137576Y79511D01*
X137377Y78523D01*
X137376Y78019D01*
X137376Y69116D01*
X137376D01*
X137376Y68611D01*
X137573Y67621D01*
X137959Y66688D01*
X138520Y65849D01*
X138877Y65492D01*
X138877D01*
X139234Y65135D01*
X140073Y64574D01*
X141006Y64188D01*
X141996Y63991D01*
X142501Y63991D01*
X198327D01*
Y63287D01*
X211122D01*
Y63991D01*
X212106D01*
X212106Y61910D01*
X216732D01*
X216732Y66348D01*
X216960Y66688D01*
X217346Y67621D01*
X217543Y68611D01*
Y69116D01*
X217599Y78019D01*
X217597Y78523D01*
X217398Y79511D01*
X217011Y80441D01*
X216732Y80856D01*
X216732Y85335D01*
D02*
G37*
G36*
X298130Y84941D02*
X289665D01*
Y81595D01*
X298130D01*
Y84941D01*
D02*
G37*
G36*
X287303Y83957D02*
X282382D01*
Y79429D01*
X287303D01*
Y83957D01*
D02*
G37*
G36*
X280610D02*
X275689D01*
Y79429D01*
X280610D01*
Y83957D01*
D02*
G37*
G36*
X298130Y80610D02*
X289665D01*
Y77264D01*
X298130D01*
Y80610D01*
D02*
G37*
G36*
X227658Y81890D02*
X221161D01*
Y75394D01*
X227658D01*
Y81890D01*
D02*
G37*
G36*
X287303Y78051D02*
X282382D01*
Y73713D01*
X280610D01*
Y78051D01*
X275689D01*
Y73713D01*
X264738D01*
X264234Y73712D01*
X263246Y73513D01*
X262316Y73125D01*
X261478Y72564D01*
X260767Y71850D01*
X260208Y71012D01*
X259823Y70081D01*
X259627Y69092D01*
X259627Y68588D01*
Y35255D01*
X259627Y34751D01*
X259823Y33762D01*
X260208Y32831D01*
X260767Y31992D01*
X261478Y31279D01*
X262316Y30717D01*
X263246Y30330D01*
X264234Y30131D01*
X264738Y30130D01*
X264738Y30130D01*
Y30130D01*
X287937D01*
X288927Y30327D01*
X289860Y30713D01*
X290699Y31274D01*
X291056Y31631D01*
X291413Y31988D01*
X291974Y32827D01*
X292360Y33760D01*
X292557Y34750D01*
Y35255D01*
Y35255D01*
X292594Y64272D01*
X298130D01*
Y67618D01*
X292598D01*
X292599Y68588D01*
Y68602D01*
X298130D01*
Y71949D01*
X291361D01*
X291098Y72212D01*
X290741Y72569D01*
X290196Y72933D01*
X298130D01*
Y76279D01*
X289665D01*
Y73228D01*
X288969Y73516D01*
X287979Y73713D01*
X287474Y73713D01*
X287474Y73713D01*
X287303D01*
Y78051D01*
D02*
G37*
G36*
X44771Y75295D02*
X37894D01*
Y68405D01*
X44771D01*
Y75295D01*
D02*
G37*
G36*
X25086D02*
X18209D01*
Y68405D01*
X25086D01*
Y75295D01*
D02*
G37*
G36*
X224739Y71969D02*
X224080D01*
X223433Y71840D01*
X222824Y71588D01*
X222276Y71221D01*
X221810Y70755D01*
X221444Y70207D01*
X221192Y69598D01*
X221063Y68952D01*
Y68622D01*
Y68292D01*
X221192Y67646D01*
X221444Y67037D01*
X221810Y66489D01*
X222276Y66023D01*
X222824Y65656D01*
X223433Y65404D01*
X224080Y65276D01*
X224739D01*
X225386Y65404D01*
X225995Y65656D01*
X226543Y66023D01*
X227009Y66489D01*
X227375Y67037D01*
X227627Y67646D01*
X227756Y68292D01*
Y68622D01*
Y68952D01*
X227627Y69598D01*
X227375Y70207D01*
X227009Y70755D01*
X226543Y71221D01*
X225995Y71588D01*
X225386Y71840D01*
X224739Y71969D01*
D02*
G37*
G36*
X339469Y63878D02*
X329429D01*
Y57776D01*
X339469D01*
Y63878D01*
D02*
G37*
G36*
X300098Y63484D02*
X293209D01*
Y57382D01*
X300098D01*
Y63484D01*
D02*
G37*
G36*
X248936Y54102D02*
X248432Y54102D01*
X225682Y54102D01*
Y54102D01*
X225179Y54102D01*
X224191Y53905D01*
X223261Y53520D01*
X222424Y52961D01*
X222068Y52605D01*
X222068D01*
X221712Y52249D01*
X221152Y51412D01*
X220767Y50482D01*
X220571Y49494D01*
X220571Y48991D01*
Y15657D01*
X220571D01*
Y15657D01*
Y15154D01*
X220767Y14166D01*
X221152Y13236D01*
X221712Y12399D01*
X222068Y12043D01*
X222424Y11687D01*
X223261Y11128D01*
X224191Y10742D01*
X225179Y10546D01*
X248376D01*
Y10546D01*
X248880Y10546D01*
X249869Y10742D01*
X250800Y11127D01*
X251639Y11686D01*
X252352Y12398D01*
X252914Y13235D01*
X253301Y14165D01*
X253500Y15153D01*
X253502Y15657D01*
X253557Y48991D01*
X253556Y49495D01*
X253357Y50483D01*
X252969Y51413D01*
X252408Y52250D01*
X251694Y52962D01*
X250856Y53521D01*
X249924Y53906D01*
X248936Y54102D01*
D02*
G37*
G36*
X212977Y54074D02*
X212474Y54074D01*
Y54074D01*
X142501Y54074D01*
X141997Y54074D01*
X141008Y53878D01*
X140077Y53493D01*
X139239Y52934D01*
X138525Y52222D01*
X137964Y51385D01*
X137576Y50455D01*
X137377Y49467D01*
X137376Y48963D01*
X137376D01*
X137376Y15629D01*
X137377Y15126D01*
X137576Y14138D01*
X137964Y13207D01*
X138525Y12370D01*
X139239Y11659D01*
X140077Y11100D01*
X141008Y10715D01*
X141997Y10518D01*
X142501Y10518D01*
X142501D01*
X212418Y10518D01*
X212918Y10513D01*
X213903Y10695D01*
X214833Y11065D01*
X215674Y11608D01*
X216394Y12303D01*
X216966Y13124D01*
X217369Y14041D01*
X217586Y15018D01*
X217599Y15518D01*
X217599Y15518D01*
Y48963D01*
X217597Y49467D01*
X217398Y50455D01*
X217011Y51385D01*
X216449Y52222D01*
X215736Y52934D01*
X214897Y53493D01*
X213966Y53878D01*
X212977Y54074D01*
D02*
G37*
G36*
X253557Y48991D02*
Y48991D01*
D01*
Y48991D01*
D02*
G37*
%LPD*%
G36*
X256623Y134387D02*
X256835Y134326D01*
X257035Y134233D01*
X257126Y134172D01*
Y134172D01*
X257201Y134110D01*
X257316Y133955D01*
X257392Y133778D01*
X257424Y133588D01*
X257418Y133491D01*
X257418Y133491D01*
X257423Y133395D01*
X257388Y133206D01*
X257313Y133029D01*
X257199Y132874D01*
X257126Y132811D01*
X257126Y132866D01*
X257038Y132797D01*
X256840Y132690D01*
X256627Y132615D01*
X256406Y132576D01*
X256293Y132575D01*
X255293D01*
Y134408D01*
X256293D01*
X256403Y134412D01*
X256623Y134387D01*
D02*
G37*
G36*
X257126Y132811D02*
X257126D01*
X257126Y132811D01*
Y132811D01*
D02*
G37*
G36*
X245293Y130602D02*
X239585Y124894D01*
X242543Y130797D01*
X241724Y131130D01*
X238154Y123991D01*
X234585Y131130D01*
X233779Y130797D01*
X236737Y124950D01*
X231029Y130644D01*
X238154Y133575D01*
X245293Y130602D01*
D02*
G37*
G36*
X269370Y134399D02*
X269691Y134289D01*
X269985Y134118D01*
X270113Y134005D01*
X270113D01*
X270233Y133890D01*
X270418Y133614D01*
X270540Y133305D01*
X270594Y132977D01*
X270585Y132818D01*
X270595Y132657D01*
X270543Y132325D01*
X270421Y132012D01*
X270234Y131732D01*
X270113Y131616D01*
X270113Y131616D01*
X269986Y131502D01*
X269693Y131327D01*
X269371Y131213D01*
X269033Y131163D01*
X268863Y131172D01*
X268863Y131172D01*
X267752D01*
Y134436D01*
X268863D01*
X269033Y134446D01*
X269370Y134399D01*
D02*
G37*
%LPC*%
G36*
X270585Y132825D02*
Y132811D01*
X270585Y132818D01*
X270585Y132825D01*
D02*
G37*
%LPD*%
G36*
X251724Y128005D02*
X251724D01*
X251724D01*
D01*
D02*
G37*
G36*
X251543Y123533D02*
X251543D01*
X251543D01*
D01*
D02*
G37*
G36*
X269969Y127919D02*
X270181Y127863D01*
X270382Y127773D01*
X270474Y127713D01*
X270546Y127647D01*
X270659Y127488D01*
X270738Y127308D01*
X270778Y127117D01*
X270778Y127019D01*
Y126921D01*
X270738Y126730D01*
X270659Y126550D01*
X270546Y126391D01*
X270474Y126324D01*
X270382Y126263D01*
X270182Y126170D01*
X269970Y126110D01*
X269751Y126084D01*
X269640Y126088D01*
X269640Y126088D01*
X268654D01*
Y127922D01*
X269640D01*
Y127936D01*
X269750Y127942D01*
X269969Y127919D01*
D02*
G37*
G36*
X257613Y125713D02*
X255946D01*
X256779Y127727D01*
X257613Y125713D01*
D02*
G37*
G36*
X87306Y87741D02*
X87716D01*
X88521Y87581D01*
X89280Y87267D01*
X89962Y86811D01*
X90252Y86521D01*
X90543Y86230D01*
X90999Y85548D01*
X91313Y84790D01*
X91473Y83985D01*
Y83574D01*
Y66908D01*
X95215D01*
X95177Y66717D01*
Y66339D01*
Y65961D01*
X95325Y65219D01*
X95614Y64520D01*
X96034Y63892D01*
X96569Y63357D01*
X97198Y62937D01*
X97896Y62647D01*
X98638Y62500D01*
X99394D01*
X100135Y62647D01*
X100834Y62937D01*
X101463Y63357D01*
X101997Y63892D01*
X102418Y64520D01*
X102707Y65219D01*
X102854Y65961D01*
Y66339D01*
Y66717D01*
X102816Y66908D01*
X108140D01*
X108550Y66908D01*
X109355Y66747D01*
X110113Y66433D01*
X110796Y65977D01*
X111086Y65687D01*
Y65687D01*
X111376Y65397D01*
X111832Y64714D01*
X112146Y63956D01*
X112306Y63151D01*
Y62741D01*
Y45380D01*
Y44969D01*
X112146Y44164D01*
X111832Y43406D01*
X111376Y42724D01*
X111086Y42433D01*
X110796Y42143D01*
X110113Y41687D01*
X109355Y41373D01*
X108550Y41213D01*
X108140Y41213D01*
X102837D01*
X102707Y41868D01*
X102418Y42566D01*
X101997Y43195D01*
X101463Y43730D01*
X100834Y44150D01*
X100135Y44439D01*
X99394Y44587D01*
X98638D01*
X97896Y44439D01*
X97198Y44150D01*
X96569Y43730D01*
X96034Y43195D01*
X95614Y42566D01*
X95325Y41868D01*
X95194Y41213D01*
X91473D01*
Y24546D01*
Y24136D01*
X91313Y23331D01*
X90999Y22572D01*
X90543Y21890D01*
X90252Y21600D01*
Y21600D01*
X89962Y21310D01*
X89280Y20854D01*
X88521Y20540D01*
X87716Y20380D01*
X87306Y20380D01*
X69534D01*
X68730Y20540D01*
X67971Y20854D01*
X67289Y21310D01*
X66999Y21600D01*
X66708Y21890D01*
X66252Y22572D01*
X65938Y23331D01*
X65778Y24136D01*
X65778Y24546D01*
Y41213D01*
X62286D01*
X62156Y41868D01*
X61866Y42566D01*
X61446Y43195D01*
X60912Y43730D01*
X60283Y44150D01*
X59584Y44439D01*
X58843Y44587D01*
X58087D01*
X57345Y44439D01*
X56646Y44150D01*
X56018Y43730D01*
X55483Y43195D01*
X55063Y42566D01*
X54773Y41868D01*
X54643Y41213D01*
X49111D01*
X48701Y41213D01*
X47896Y41373D01*
X47138Y41687D01*
X46455Y42143D01*
X46165Y42433D01*
Y42433D01*
X45875Y42724D01*
X45419Y43406D01*
X45105Y44164D01*
X44945Y44969D01*
Y45380D01*
Y45380D01*
Y62741D01*
Y63151D01*
X45105Y63956D01*
X45419Y64714D01*
X45875Y65397D01*
X46165Y65687D01*
X46165D01*
X46455Y65977D01*
X47138Y66433D01*
X47896Y66747D01*
X48701Y66908D01*
X49111Y66908D01*
Y66908D01*
X54626D01*
Y62500D01*
X62303D01*
Y66908D01*
X65778D01*
Y83574D01*
X65778Y83985D01*
X65938Y84790D01*
X66252Y85548D01*
X66708Y86230D01*
X66999Y86521D01*
X67289Y86811D01*
X67971Y87267D01*
X68730Y87581D01*
X69534Y87741D01*
X69945D01*
Y87741D01*
X87306Y87741D01*
D02*
G37*
%LPC*%
G36*
X78598Y83755D02*
X74098Y79255D01*
X83098D01*
X78598Y83755D01*
D02*
G37*
G36*
X103764Y58574D02*
Y49588D01*
X108265Y54074D01*
X103764Y58574D01*
D02*
G37*
G36*
X53431Y58588D02*
X48931Y54088D01*
X53431Y49588D01*
Y58588D01*
D02*
G37*
G36*
X99365Y55315D02*
X98667D01*
X97982Y55179D01*
X97337Y54912D01*
X96757Y54524D01*
X96263Y54030D01*
X95876Y53450D01*
X95609Y52805D01*
X95472Y52121D01*
Y51772D01*
Y51423D01*
X95609Y50738D01*
X95876Y50093D01*
X96263Y49513D01*
X96757Y49019D01*
X97337Y48632D01*
X97982Y48364D01*
X98667Y48228D01*
X99365D01*
X100049Y48364D01*
X100694Y48632D01*
X101275Y49019D01*
X101768Y49513D01*
X102156Y50093D01*
X102423Y50738D01*
X102559Y51423D01*
Y51772D01*
Y52121D01*
X102423Y52805D01*
X102156Y53450D01*
X101768Y54030D01*
X101275Y54524D01*
X100694Y54912D01*
X100049Y55179D01*
X99365Y55315D01*
D02*
G37*
G36*
X58814D02*
X58116D01*
X57431Y55179D01*
X56786Y54912D01*
X56206Y54524D01*
X55712Y54030D01*
X55325Y53450D01*
X55057Y52805D01*
X54921Y52121D01*
Y51772D01*
Y51423D01*
X55057Y50738D01*
X55325Y50093D01*
X55712Y49513D01*
X56206Y49019D01*
X56786Y48632D01*
X57431Y48364D01*
X58116Y48228D01*
X58814D01*
X59498Y48364D01*
X60143Y48632D01*
X60723Y49019D01*
X61217Y49513D01*
X61605Y50093D01*
X61872Y50738D01*
X62008Y51423D01*
Y51772D01*
Y52121D01*
X61872Y52805D01*
X61605Y53450D01*
X61217Y54030D01*
X60723Y54524D01*
X60143Y54912D01*
X59498Y55179D01*
X58814Y55315D01*
D02*
G37*
G36*
X83098Y28921D02*
X74098D01*
X78598Y24421D01*
X83098Y28921D01*
D02*
G37*
%LPD*%
G36*
X279505Y31942D02*
X277811D01*
X277186Y33433D01*
X273944D01*
X273326Y31942D01*
X271676D01*
X274785Y38924D01*
X276384D01*
X279505Y31942D01*
D02*
G37*
%LPC*%
G36*
X275575Y37338D02*
X274466Y34662D01*
X276683D01*
X275575Y37338D01*
D02*
G37*
%LPD*%
G36*
X236634Y19232D02*
X236743Y19226D01*
X236864Y19213D01*
X237004Y19201D01*
X237151Y19175D01*
X237303Y19150D01*
X237469Y19118D01*
X237628Y19080D01*
X237794Y19035D01*
X237953Y18978D01*
X238106Y18908D01*
X238252Y18837D01*
X238386Y18748D01*
X238393Y18742D01*
X238418Y18723D01*
X238450Y18697D01*
X238495Y18659D01*
X238545Y18608D01*
X238603Y18551D01*
X238667Y18481D01*
X238730Y18398D01*
X238794Y18309D01*
X238851Y18207D01*
X238909Y18099D01*
X238960Y17984D01*
X239004Y17856D01*
X239036Y17723D01*
X239061Y17576D01*
X239068Y17423D01*
Y17417D01*
Y17398D01*
Y17372D01*
X239061Y17341D01*
Y17296D01*
X239055Y17239D01*
X239049Y17181D01*
X239036Y17118D01*
X239011Y16977D01*
X238966Y16825D01*
X238902Y16665D01*
X238819Y16512D01*
Y16506D01*
X238807Y16493D01*
X238794Y16474D01*
X238775Y16449D01*
X238718Y16379D01*
X238641Y16289D01*
X238545Y16188D01*
X238431Y16086D01*
X238291Y15984D01*
X238138Y15888D01*
X238144D01*
X238163Y15882D01*
X238195Y15869D01*
X238240Y15850D01*
X238284Y15831D01*
X238348Y15805D01*
X238412Y15774D01*
X238482Y15735D01*
X238628Y15646D01*
X238788Y15538D01*
X238934Y15404D01*
X239074Y15251D01*
X239081Y15245D01*
X239087Y15232D01*
X239106Y15207D01*
X239125Y15175D01*
X239157Y15130D01*
X239182Y15079D01*
X239214Y15015D01*
X239246Y14945D01*
X239278Y14875D01*
X239310Y14793D01*
X239342Y14697D01*
X239367Y14601D01*
X239405Y14391D01*
X239412Y14283D01*
X239418Y14162D01*
Y14149D01*
Y14124D01*
X239412Y14073D01*
X239405Y14009D01*
X239399Y13933D01*
X239380Y13843D01*
X239361Y13748D01*
X239329Y13640D01*
X239291Y13531D01*
X239246Y13417D01*
X239189Y13296D01*
X239119Y13181D01*
X239036Y13060D01*
X238941Y12952D01*
X238832Y12843D01*
X238705Y12748D01*
X238698Y12741D01*
X238673Y12729D01*
X238628Y12703D01*
X238571Y12671D01*
X238495Y12633D01*
X238405Y12595D01*
X238297Y12550D01*
X238176Y12506D01*
X238036Y12455D01*
X237883Y12410D01*
X237711Y12372D01*
X237526Y12334D01*
X237322Y12302D01*
X237106Y12276D01*
X236870Y12264D01*
X236622Y12257D01*
X233010D01*
Y19239D01*
X236545D01*
X236634Y19232D01*
D02*
G37*
%LPC*%
G36*
X236335Y18022D02*
X234622D01*
Y16372D01*
X236284D01*
X236322Y16379D01*
X236373D01*
X236431Y16385D01*
X236564Y16398D01*
X236711Y16423D01*
X236864Y16462D01*
X237004Y16512D01*
X237074Y16544D01*
X237131Y16582D01*
X237138D01*
X237144Y16595D01*
X237182Y16621D01*
X237233Y16672D01*
X237291Y16742D01*
X237348Y16825D01*
X237392Y16933D01*
X237431Y17054D01*
X237437Y17124D01*
X237443Y17200D01*
Y17207D01*
Y17220D01*
Y17239D01*
X237437Y17270D01*
X237424Y17341D01*
X237405Y17430D01*
X237367Y17532D01*
X237310Y17634D01*
X237278Y17678D01*
X237233Y17729D01*
X237189Y17774D01*
X237131Y17812D01*
X237125D01*
X237119Y17818D01*
X237100Y17831D01*
X237074Y17844D01*
X237042Y17863D01*
X237004Y17876D01*
X236959Y17895D01*
X236902Y17920D01*
X236845Y17939D01*
X236775Y17958D01*
X236705Y17971D01*
X236622Y17990D01*
X236533Y18003D01*
X236437Y18016D01*
X236335Y18022D01*
D02*
G37*
G36*
X236622Y15194D02*
X234622D01*
Y13474D01*
X236571D01*
X236609Y13480D01*
X236666D01*
X236724Y13487D01*
X236794Y13493D01*
X236864Y13499D01*
X237023Y13525D01*
X237182Y13563D01*
X237335Y13608D01*
X237405Y13640D01*
X237469Y13678D01*
X237475D01*
X237482Y13690D01*
X237520Y13716D01*
X237571Y13767D01*
X237635Y13837D01*
X237692Y13926D01*
X237743Y14041D01*
X237781Y14175D01*
X237788Y14251D01*
X237794Y14327D01*
Y14340D01*
Y14366D01*
X237788Y14410D01*
X237775Y14461D01*
X237756Y14531D01*
X237724Y14601D01*
X237686Y14678D01*
X237635Y14761D01*
X237564Y14843D01*
X237482Y14920D01*
X237373Y14990D01*
X237252Y15060D01*
X237106Y15111D01*
X237023Y15136D01*
X236934Y15156D01*
X236838Y15175D01*
X236736Y15188D01*
X236622Y15194D01*
D02*
G37*
%LPD*%
G36*
X189177Y17805D02*
X189221D01*
X189265Y17801D01*
X189316Y17797D01*
X189370Y17794D01*
X189428Y17786D01*
X189556Y17768D01*
X189690Y17746D01*
X189825Y17717D01*
X189829D01*
X189843Y17714D01*
X189862Y17706D01*
X189887Y17699D01*
X189920Y17692D01*
X189956Y17681D01*
X189996Y17666D01*
X190044Y17652D01*
X190142Y17612D01*
X190251Y17568D01*
X190360Y17517D01*
X190466Y17455D01*
X190178Y16756D01*
X190171Y16760D01*
X190153Y16771D01*
X190124Y16785D01*
X190084Y16804D01*
X190033Y16829D01*
X189974Y16855D01*
X189909Y16884D01*
X189836Y16913D01*
X189752Y16942D01*
X189669Y16971D01*
X189578Y16996D01*
X189483Y17022D01*
X189381Y17040D01*
X189283Y17055D01*
X189177Y17066D01*
X189075Y17069D01*
X189039D01*
X189014Y17066D01*
X188981D01*
X188941Y17062D01*
X188901Y17058D01*
X188857Y17055D01*
X188762Y17037D01*
X188668Y17015D01*
X188577Y16986D01*
X188537Y16964D01*
X188500Y16942D01*
X188497D01*
X188493Y16935D01*
X188471Y16920D01*
X188442Y16891D01*
X188409Y16855D01*
X188373Y16807D01*
X188344Y16753D01*
X188322Y16687D01*
X188318Y16651D01*
X188315Y16614D01*
Y16611D01*
Y16607D01*
Y16596D01*
X188318Y16582D01*
X188326Y16545D01*
X188340Y16498D01*
X188366Y16447D01*
X188384Y16421D01*
X188406Y16396D01*
X188431Y16371D01*
X188460Y16349D01*
X188493Y16327D01*
X188529Y16305D01*
X188533D01*
X188540Y16301D01*
X188551Y16294D01*
X188569Y16287D01*
X188591Y16280D01*
X188620Y16269D01*
X188653Y16258D01*
X188693Y16243D01*
X188733Y16229D01*
X188784Y16214D01*
X188835Y16199D01*
X188893Y16181D01*
X188959Y16167D01*
X189028Y16148D01*
X189101Y16130D01*
X189181Y16112D01*
X189184D01*
X189203Y16108D01*
X189225Y16101D01*
X189257Y16094D01*
X189297Y16083D01*
X189341Y16072D01*
X189392Y16057D01*
X189447Y16043D01*
X189563Y16010D01*
X189690Y15974D01*
X189814Y15934D01*
X189873Y15915D01*
X189927Y15894D01*
X189931D01*
X189942Y15890D01*
X189956Y15883D01*
X189974Y15872D01*
X190000Y15861D01*
X190029Y15846D01*
X190098Y15810D01*
X190178Y15763D01*
X190262Y15704D01*
X190346Y15635D01*
X190426Y15552D01*
X190429Y15548D01*
X190437Y15540D01*
X190444Y15526D01*
X190459Y15508D01*
X190473Y15486D01*
X190491Y15457D01*
X190513Y15424D01*
X190531Y15384D01*
X190550Y15344D01*
X190571Y15297D01*
X190590Y15242D01*
X190604Y15188D01*
X190619Y15126D01*
X190630Y15064D01*
X190633Y14995D01*
X190637Y14922D01*
Y14918D01*
Y14907D01*
Y14889D01*
X190633Y14863D01*
X190630Y14834D01*
X190626Y14798D01*
X190622Y14758D01*
X190611Y14714D01*
X190590Y14620D01*
X190557Y14514D01*
X190535Y14459D01*
X190509Y14405D01*
X190477Y14350D01*
X190444Y14296D01*
X190440Y14292D01*
X190437Y14285D01*
X190426Y14270D01*
X190408Y14248D01*
X190389Y14227D01*
X190364Y14197D01*
X190335Y14168D01*
X190302Y14135D01*
X190262Y14099D01*
X190222Y14063D01*
X190175Y14026D01*
X190124Y13990D01*
X190069Y13953D01*
X190007Y13917D01*
X189942Y13884D01*
X189873Y13852D01*
X189869D01*
X189854Y13844D01*
X189832Y13837D01*
X189803Y13826D01*
X189767Y13815D01*
X189723Y13801D01*
X189672Y13786D01*
X189614Y13771D01*
X189549Y13753D01*
X189479Y13739D01*
X189403Y13724D01*
X189319Y13713D01*
X189232Y13702D01*
X189141Y13695D01*
X189046Y13691D01*
X188944Y13688D01*
X188897D01*
X188864Y13691D01*
X188821D01*
X188770Y13695D01*
X188715Y13699D01*
X188653Y13702D01*
X188584Y13710D01*
X188511Y13717D01*
X188438Y13728D01*
X188358Y13739D01*
X188195Y13771D01*
X188027Y13812D01*
X188023D01*
X188009Y13819D01*
X187983Y13826D01*
X187954Y13833D01*
X187918Y13848D01*
X187874Y13862D01*
X187827Y13881D01*
X187772Y13903D01*
X187659Y13950D01*
X187543Y14008D01*
X187426Y14074D01*
X187368Y14110D01*
X187317Y14146D01*
X187630Y14842D01*
X187634Y14838D01*
X187641Y14834D01*
X187656Y14823D01*
X187678Y14809D01*
X187699Y14794D01*
X187732Y14776D01*
X187765Y14754D01*
X187805Y14732D01*
X187845Y14707D01*
X187892Y14685D01*
X187943Y14660D01*
X187998Y14634D01*
X188114Y14583D01*
X188242Y14536D01*
X188245D01*
X188256Y14532D01*
X188278Y14525D01*
X188304Y14518D01*
X188333Y14510D01*
X188373Y14500D01*
X188417Y14489D01*
X188464Y14481D01*
X188515Y14470D01*
X188569Y14459D01*
X188689Y14441D01*
X188817Y14427D01*
X188948Y14423D01*
X188984D01*
X189014Y14427D01*
X189046D01*
X189083Y14430D01*
X189123Y14434D01*
X189170Y14438D01*
X189265Y14452D01*
X189359Y14474D01*
X189450Y14500D01*
X189494Y14518D01*
X189530Y14539D01*
X189534D01*
X189538Y14547D01*
X189559Y14561D01*
X189589Y14587D01*
X189625Y14623D01*
X189661Y14671D01*
X189690Y14721D01*
X189712Y14783D01*
X189716Y14816D01*
X189720Y14853D01*
Y14860D01*
Y14878D01*
X189712Y14904D01*
X189705Y14936D01*
X189690Y14973D01*
X189672Y15013D01*
X189643Y15053D01*
X189607Y15089D01*
X189603Y15093D01*
X189589Y15104D01*
X189563Y15122D01*
X189530Y15144D01*
X189490Y15166D01*
X189439Y15191D01*
X189385Y15217D01*
X189323Y15238D01*
X189319D01*
X189316Y15242D01*
X189305Y15246D01*
X189290Y15249D01*
X189272Y15253D01*
X189254Y15260D01*
X189199Y15275D01*
X189130Y15297D01*
X189050Y15318D01*
X188959Y15340D01*
X188853Y15366D01*
X188850D01*
X188831Y15370D01*
X188810Y15377D01*
X188777Y15384D01*
X188737Y15395D01*
X188693Y15406D01*
X188642Y15417D01*
X188588Y15431D01*
X188468Y15464D01*
X188344Y15500D01*
X188220Y15540D01*
X188162Y15559D01*
X188103Y15581D01*
X188100D01*
X188093Y15584D01*
X188074Y15592D01*
X188056Y15602D01*
X188031Y15613D01*
X188002Y15628D01*
X187932Y15664D01*
X187856Y15712D01*
X187772Y15774D01*
X187689Y15843D01*
X187605Y15926D01*
X187601Y15930D01*
X187598Y15937D01*
X187587Y15952D01*
X187572Y15970D01*
X187557Y15996D01*
X187539Y16025D01*
X187521Y16057D01*
X187503Y16097D01*
X187481Y16141D01*
X187463Y16188D01*
X187445Y16239D01*
X187430Y16298D01*
X187416Y16360D01*
X187405Y16425D01*
X187401Y16494D01*
X187397Y16567D01*
Y16571D01*
Y16582D01*
Y16600D01*
X187401Y16625D01*
X187405Y16658D01*
X187408Y16691D01*
X187412Y16735D01*
X187423Y16778D01*
X187445Y16873D01*
X187477Y16982D01*
X187499Y17033D01*
X187525Y17087D01*
X187554Y17142D01*
X187587Y17197D01*
X187590Y17200D01*
X187594Y17208D01*
X187608Y17226D01*
X187623Y17244D01*
X187641Y17266D01*
X187667Y17295D01*
X187696Y17328D01*
X187729Y17361D01*
X187765Y17393D01*
X187809Y17430D01*
X187856Y17470D01*
X187907Y17506D01*
X187961Y17542D01*
X188020Y17579D01*
X188085Y17612D01*
X188154Y17645D01*
X188158Y17648D01*
X188173Y17652D01*
X188195Y17659D01*
X188224Y17670D01*
X188260Y17681D01*
X188304Y17695D01*
X188355Y17710D01*
X188413Y17728D01*
X188475Y17743D01*
X188548Y17757D01*
X188624Y17772D01*
X188704Y17783D01*
X188791Y17794D01*
X188882Y17801D01*
X188977Y17808D01*
X189145D01*
X189177Y17805D01*
D02*
G37*
G36*
X148211D02*
X148255D01*
X148298Y17801D01*
X148349Y17797D01*
X148404Y17794D01*
X148462Y17786D01*
X148590Y17768D01*
X148724Y17746D01*
X148859Y17717D01*
X148863D01*
X148877Y17714D01*
X148895Y17706D01*
X148921Y17699D01*
X148954Y17692D01*
X148990Y17681D01*
X149030Y17666D01*
X149077Y17652D01*
X149176Y17612D01*
X149285Y17568D01*
X149394Y17517D01*
X149500Y17455D01*
X149212Y16756D01*
X149205Y16760D01*
X149187Y16771D01*
X149157Y16785D01*
X149117Y16804D01*
X149066Y16829D01*
X149008Y16855D01*
X148943Y16884D01*
X148870Y16913D01*
X148786Y16942D01*
X148702Y16971D01*
X148611Y16996D01*
X148517Y17022D01*
X148415Y17040D01*
X148317Y17055D01*
X148211Y17066D01*
X148109Y17069D01*
X148073D01*
X148047Y17066D01*
X148014D01*
X147975Y17062D01*
X147934Y17058D01*
X147891Y17055D01*
X147796Y17037D01*
X147701Y17015D01*
X147610Y16986D01*
X147570Y16964D01*
X147534Y16942D01*
X147530D01*
X147527Y16935D01*
X147505Y16920D01*
X147476Y16891D01*
X147443Y16855D01*
X147407Y16807D01*
X147378Y16753D01*
X147356Y16687D01*
X147352Y16651D01*
X147348Y16614D01*
Y16611D01*
Y16607D01*
Y16596D01*
X147352Y16582D01*
X147359Y16545D01*
X147374Y16498D01*
X147399Y16447D01*
X147417Y16421D01*
X147439Y16396D01*
X147465Y16371D01*
X147494Y16349D01*
X147527Y16327D01*
X147563Y16305D01*
X147567D01*
X147574Y16301D01*
X147585Y16294D01*
X147603Y16287D01*
X147625Y16280D01*
X147654Y16269D01*
X147687Y16258D01*
X147727Y16243D01*
X147767Y16229D01*
X147818Y16214D01*
X147869Y16199D01*
X147927Y16181D01*
X147993Y16167D01*
X148062Y16148D01*
X148135Y16130D01*
X148215Y16112D01*
X148218D01*
X148237Y16108D01*
X148258Y16101D01*
X148291Y16094D01*
X148331Y16083D01*
X148375Y16072D01*
X148426Y16057D01*
X148480Y16043D01*
X148597Y16010D01*
X148724Y15974D01*
X148848Y15934D01*
X148906Y15915D01*
X148961Y15894D01*
X148965D01*
X148976Y15890D01*
X148990Y15883D01*
X149008Y15872D01*
X149034Y15861D01*
X149063Y15846D01*
X149132Y15810D01*
X149212Y15763D01*
X149296Y15704D01*
X149380Y15635D01*
X149460Y15552D01*
X149463Y15548D01*
X149470Y15540D01*
X149478Y15526D01*
X149492Y15508D01*
X149507Y15486D01*
X149525Y15457D01*
X149547Y15424D01*
X149565Y15384D01*
X149583Y15344D01*
X149605Y15297D01*
X149623Y15242D01*
X149638Y15188D01*
X149653Y15126D01*
X149663Y15064D01*
X149667Y14995D01*
X149671Y14922D01*
Y14918D01*
Y14907D01*
Y14889D01*
X149667Y14863D01*
X149663Y14834D01*
X149660Y14798D01*
X149656Y14758D01*
X149645Y14714D01*
X149623Y14620D01*
X149591Y14514D01*
X149569Y14459D01*
X149543Y14405D01*
X149511Y14350D01*
X149478Y14296D01*
X149474Y14292D01*
X149470Y14285D01*
X149460Y14270D01*
X149441Y14248D01*
X149423Y14227D01*
X149398Y14197D01*
X149369Y14168D01*
X149336Y14135D01*
X149296Y14099D01*
X149256Y14063D01*
X149208Y14026D01*
X149157Y13990D01*
X149103Y13953D01*
X149041Y13917D01*
X148976Y13884D01*
X148906Y13852D01*
X148903D01*
X148888Y13844D01*
X148866Y13837D01*
X148837Y13826D01*
X148801Y13815D01*
X148757Y13801D01*
X148706Y13786D01*
X148648Y13771D01*
X148582Y13753D01*
X148513Y13739D01*
X148437Y13724D01*
X148353Y13713D01*
X148266Y13702D01*
X148175Y13695D01*
X148080Y13691D01*
X147978Y13688D01*
X147931D01*
X147898Y13691D01*
X147854D01*
X147803Y13695D01*
X147749Y13699D01*
X147687Y13702D01*
X147618Y13710D01*
X147545Y13717D01*
X147472Y13728D01*
X147392Y13739D01*
X147228Y13771D01*
X147061Y13812D01*
X147057D01*
X147043Y13819D01*
X147017Y13826D01*
X146988Y13833D01*
X146952Y13848D01*
X146908Y13862D01*
X146861Y13881D01*
X146806Y13903D01*
X146693Y13950D01*
X146577Y14008D01*
X146460Y14074D01*
X146402Y14110D01*
X146351Y14146D01*
X146664Y14842D01*
X146668Y14838D01*
X146675Y14834D01*
X146689Y14823D01*
X146711Y14809D01*
X146733Y14794D01*
X146766Y14776D01*
X146799Y14754D01*
X146839Y14732D01*
X146879Y14707D01*
X146926Y14685D01*
X146977Y14660D01*
X147032Y14634D01*
X147148Y14583D01*
X147276Y14536D01*
X147279D01*
X147290Y14532D01*
X147312Y14525D01*
X147337Y14518D01*
X147367Y14510D01*
X147407Y14500D01*
X147450Y14489D01*
X147498Y14481D01*
X147549Y14470D01*
X147603Y14459D01*
X147723Y14441D01*
X147851Y14427D01*
X147982Y14423D01*
X148018D01*
X148047Y14427D01*
X148080D01*
X148116Y14430D01*
X148156Y14434D01*
X148204Y14438D01*
X148298Y14452D01*
X148393Y14474D01*
X148484Y14500D01*
X148528Y14518D01*
X148564Y14539D01*
X148568D01*
X148571Y14547D01*
X148593Y14561D01*
X148622Y14587D01*
X148659Y14623D01*
X148695Y14671D01*
X148724Y14721D01*
X148746Y14783D01*
X148750Y14816D01*
X148753Y14853D01*
Y14860D01*
Y14878D01*
X148746Y14904D01*
X148739Y14936D01*
X148724Y14973D01*
X148706Y15013D01*
X148677Y15053D01*
X148641Y15089D01*
X148637Y15093D01*
X148622Y15104D01*
X148597Y15122D01*
X148564Y15144D01*
X148524Y15166D01*
X148473Y15191D01*
X148418Y15217D01*
X148357Y15238D01*
X148353D01*
X148349Y15242D01*
X148338Y15246D01*
X148324Y15249D01*
X148306Y15253D01*
X148287Y15260D01*
X148233Y15275D01*
X148164Y15297D01*
X148084Y15318D01*
X147993Y15340D01*
X147887Y15366D01*
X147883D01*
X147865Y15370D01*
X147843Y15377D01*
X147811Y15384D01*
X147771Y15395D01*
X147727Y15406D01*
X147676Y15417D01*
X147621Y15431D01*
X147501Y15464D01*
X147378Y15500D01*
X147254Y15540D01*
X147195Y15559D01*
X147137Y15581D01*
X147134D01*
X147126Y15584D01*
X147108Y15592D01*
X147090Y15602D01*
X147064Y15613D01*
X147035Y15628D01*
X146966Y15664D01*
X146890Y15712D01*
X146806Y15774D01*
X146722Y15843D01*
X146639Y15926D01*
X146635Y15930D01*
X146631Y15937D01*
X146620Y15952D01*
X146606Y15970D01*
X146591Y15996D01*
X146573Y16025D01*
X146555Y16057D01*
X146537Y16097D01*
X146515Y16141D01*
X146497Y16188D01*
X146478Y16239D01*
X146464Y16298D01*
X146449Y16360D01*
X146438Y16425D01*
X146435Y16494D01*
X146431Y16567D01*
Y16571D01*
Y16582D01*
Y16600D01*
X146435Y16625D01*
X146438Y16658D01*
X146442Y16691D01*
X146446Y16735D01*
X146457Y16778D01*
X146478Y16873D01*
X146511Y16982D01*
X146533Y17033D01*
X146558Y17087D01*
X146588Y17142D01*
X146620Y17197D01*
X146624Y17200D01*
X146628Y17208D01*
X146642Y17226D01*
X146657Y17244D01*
X146675Y17266D01*
X146701Y17295D01*
X146730Y17328D01*
X146762Y17361D01*
X146799Y17393D01*
X146842Y17430D01*
X146890Y17470D01*
X146941Y17506D01*
X146995Y17542D01*
X147054Y17579D01*
X147119Y17612D01*
X147188Y17645D01*
X147192Y17648D01*
X147206Y17652D01*
X147228Y17659D01*
X147257Y17670D01*
X147294Y17681D01*
X147337Y17695D01*
X147388Y17710D01*
X147447Y17728D01*
X147509Y17743D01*
X147581Y17757D01*
X147658Y17772D01*
X147738Y17783D01*
X147825Y17794D01*
X147916Y17801D01*
X148011Y17808D01*
X148178D01*
X148211Y17805D01*
D02*
G37*
G36*
X163401D02*
X163444D01*
X163499Y17797D01*
X163557Y17794D01*
X163623Y17786D01*
X163696Y17775D01*
X163768Y17765D01*
X163925Y17732D01*
X164009Y17710D01*
X164089Y17688D01*
X164169Y17659D01*
X164249Y17626D01*
X164252Y17623D01*
X164267Y17619D01*
X164289Y17608D01*
X164318Y17594D01*
X164354Y17575D01*
X164398Y17550D01*
X164442Y17524D01*
X164493Y17492D01*
X164547Y17459D01*
X164606Y17419D01*
X164664Y17375D01*
X164722Y17328D01*
X164784Y17277D01*
X164842Y17222D01*
X164901Y17164D01*
X164955Y17102D01*
X164362Y16556D01*
X164358Y16560D01*
X164344Y16578D01*
X164322Y16600D01*
X164289Y16629D01*
X164249Y16665D01*
X164202Y16705D01*
X164147Y16745D01*
X164085Y16789D01*
X164016Y16833D01*
X163939Y16876D01*
X163856Y16913D01*
X163768Y16949D01*
X163674Y16978D01*
X163572Y17004D01*
X163466Y17018D01*
X163357Y17022D01*
X163321D01*
X163295Y17018D01*
X163262D01*
X163226Y17015D01*
X163182Y17007D01*
X163135Y17000D01*
X163033Y16982D01*
X162920Y16953D01*
X162807Y16913D01*
X162749Y16887D01*
X162695Y16858D01*
X162691D01*
X162684Y16851D01*
X162665Y16840D01*
X162647Y16829D01*
X162622Y16811D01*
X162596Y16793D01*
X162531Y16742D01*
X162458Y16676D01*
X162382Y16600D01*
X162309Y16509D01*
X162243Y16407D01*
Y16403D01*
X162236Y16392D01*
X162229Y16378D01*
X162218Y16356D01*
X162207Y16327D01*
X162192Y16294D01*
X162178Y16258D01*
X162163Y16214D01*
X162145Y16170D01*
X162130Y16119D01*
X162116Y16065D01*
X162105Y16006D01*
X162087Y15883D01*
X162083Y15817D01*
X162079Y15748D01*
Y15744D01*
Y15730D01*
Y15712D01*
X162083Y15686D01*
Y15653D01*
X162087Y15617D01*
X162094Y15573D01*
X162101Y15526D01*
X162119Y15424D01*
X162149Y15311D01*
X162189Y15198D01*
X162214Y15140D01*
X162243Y15086D01*
X162247Y15082D01*
X162250Y15075D01*
X162261Y15056D01*
X162272Y15038D01*
X162291Y15013D01*
X162309Y14984D01*
X162360Y14918D01*
X162425Y14845D01*
X162502Y14773D01*
X162593Y14696D01*
X162695Y14630D01*
X162698D01*
X162709Y14623D01*
X162724Y14616D01*
X162746Y14605D01*
X162775Y14594D01*
X162807Y14580D01*
X162844Y14565D01*
X162888Y14550D01*
X162935Y14536D01*
X162986Y14521D01*
X163040Y14507D01*
X163099Y14496D01*
X163222Y14478D01*
X163288Y14474D01*
X163357Y14470D01*
X163383D01*
X163415Y14474D01*
X163459Y14478D01*
X163510Y14485D01*
X163568Y14496D01*
X163634Y14510D01*
X163707Y14529D01*
X163787Y14554D01*
X163867Y14587D01*
X163950Y14623D01*
X164034Y14671D01*
X164118Y14725D01*
X164202Y14787D01*
X164285Y14860D01*
X164362Y14944D01*
X164955Y14394D01*
X164951Y14390D01*
X164941Y14379D01*
X164926Y14361D01*
X164904Y14336D01*
X164875Y14307D01*
X164842Y14274D01*
X164802Y14237D01*
X164759Y14197D01*
X164711Y14157D01*
X164657Y14114D01*
X164598Y14070D01*
X164533Y14026D01*
X164467Y13983D01*
X164398Y13943D01*
X164322Y13903D01*
X164245Y13866D01*
X164242Y13862D01*
X164227Y13859D01*
X164202Y13852D01*
X164172Y13837D01*
X164132Y13826D01*
X164085Y13812D01*
X164031Y13793D01*
X163972Y13779D01*
X163903Y13761D01*
X163834Y13746D01*
X163754Y13728D01*
X163674Y13717D01*
X163586Y13706D01*
X163495Y13695D01*
X163401Y13691D01*
X163306Y13688D01*
X163281D01*
X163248Y13691D01*
X163204D01*
X163150Y13695D01*
X163088Y13702D01*
X163019Y13710D01*
X162942Y13721D01*
X162858Y13735D01*
X162771Y13753D01*
X162680Y13771D01*
X162585Y13797D01*
X162487Y13830D01*
X162392Y13862D01*
X162298Y13903D01*
X162203Y13950D01*
X162196Y13953D01*
X162181Y13961D01*
X162156Y13979D01*
X162123Y13997D01*
X162079Y14026D01*
X162032Y14059D01*
X161981Y14096D01*
X161923Y14139D01*
X161861Y14190D01*
X161799Y14245D01*
X161734Y14303D01*
X161668Y14368D01*
X161606Y14441D01*
X161544Y14514D01*
X161483Y14598D01*
X161428Y14682D01*
X161424Y14689D01*
X161417Y14703D01*
X161402Y14729D01*
X161384Y14765D01*
X161362Y14809D01*
X161340Y14863D01*
X161315Y14925D01*
X161290Y14991D01*
X161260Y15067D01*
X161235Y15151D01*
X161213Y15238D01*
X161191Y15329D01*
X161173Y15428D01*
X161159Y15533D01*
X161151Y15639D01*
X161148Y15748D01*
Y15755D01*
Y15774D01*
X161151Y15806D01*
Y15846D01*
X161155Y15901D01*
X161162Y15959D01*
X161170Y16028D01*
X161184Y16101D01*
X161199Y16181D01*
X161217Y16265D01*
X161239Y16352D01*
X161268Y16443D01*
X161297Y16534D01*
X161337Y16625D01*
X161377Y16720D01*
X161428Y16807D01*
X161432Y16815D01*
X161442Y16829D01*
X161457Y16855D01*
X161479Y16884D01*
X161508Y16924D01*
X161544Y16971D01*
X161584Y17022D01*
X161632Y17077D01*
X161683Y17135D01*
X161741Y17193D01*
X161806Y17255D01*
X161876Y17317D01*
X161948Y17379D01*
X162029Y17437D01*
X162112Y17492D01*
X162203Y17542D01*
X162211Y17546D01*
X162225Y17553D01*
X162254Y17568D01*
X162291Y17583D01*
X162338Y17604D01*
X162392Y17626D01*
X162454Y17652D01*
X162527Y17677D01*
X162607Y17699D01*
X162691Y17725D01*
X162782Y17746D01*
X162880Y17768D01*
X162982Y17783D01*
X163088Y17797D01*
X163201Y17805D01*
X163313Y17808D01*
X163364D01*
X163401Y17805D01*
D02*
G37*
G36*
X168602Y16989D02*
X167325D01*
Y13753D01*
X166404D01*
Y16989D01*
X165126D01*
Y17743D01*
X168602D01*
Y16989D01*
D02*
G37*
G36*
X206376D02*
X205099D01*
Y13753D01*
X204178D01*
Y16989D01*
X202900D01*
Y17743D01*
X206376D01*
Y16989D01*
D02*
G37*
G36*
X200978Y17739D02*
X201022D01*
X201076Y17732D01*
X201135Y17728D01*
X201200Y17721D01*
X201273Y17710D01*
X201346Y17699D01*
X201499Y17666D01*
X201579Y17648D01*
X201655Y17623D01*
X201735Y17597D01*
X201808Y17564D01*
X201812Y17561D01*
X201826Y17557D01*
X201845Y17546D01*
X201874Y17532D01*
X201906Y17513D01*
X201943Y17492D01*
X201983Y17466D01*
X202030Y17437D01*
X202077Y17404D01*
X202125Y17364D01*
X202176Y17324D01*
X202227Y17280D01*
X202274Y17230D01*
X202321Y17179D01*
X202369Y17120D01*
X202409Y17062D01*
X202412Y17058D01*
X202420Y17048D01*
X202427Y17029D01*
X202441Y17004D01*
X202456Y16975D01*
X202474Y16935D01*
X202496Y16895D01*
X202514Y16844D01*
X202532Y16793D01*
X202554Y16731D01*
X202572Y16669D01*
X202587Y16600D01*
X202602Y16531D01*
X202612Y16454D01*
X202616Y16378D01*
X202620Y16294D01*
Y16290D01*
Y16276D01*
Y16250D01*
X202616Y16221D01*
X202612Y16181D01*
X202609Y16138D01*
X202602Y16086D01*
X202594Y16032D01*
X202583Y15974D01*
X202569Y15912D01*
X202551Y15846D01*
X202529Y15784D01*
X202503Y15719D01*
X202478Y15653D01*
X202441Y15588D01*
X202405Y15526D01*
X202401Y15522D01*
X202394Y15511D01*
X202383Y15497D01*
X202365Y15475D01*
X202343Y15446D01*
X202318Y15417D01*
X202285Y15380D01*
X202252Y15344D01*
X202208Y15304D01*
X202165Y15264D01*
X202114Y15224D01*
X202063Y15184D01*
X202001Y15144D01*
X201939Y15104D01*
X201874Y15067D01*
X201801Y15035D01*
X202693Y13753D01*
X201702D01*
X200935Y14863D01*
X200083D01*
Y13753D01*
X199158D01*
Y17743D01*
X200938D01*
X200978Y17739D01*
D02*
G37*
G36*
X198743Y13753D02*
X197775D01*
X197418Y14605D01*
X195565D01*
X195212Y13753D01*
X194270D01*
X196046Y17743D01*
X196960D01*
X198743Y13753D01*
D02*
G37*
G36*
X160587Y17000D02*
X158490D01*
Y16134D01*
X160343D01*
Y15417D01*
X158490D01*
Y14492D01*
X160660D01*
Y13753D01*
X157570D01*
Y17743D01*
X160587D01*
Y17000D01*
D02*
G37*
G36*
X155051Y14503D02*
X157053D01*
Y13753D01*
X154126D01*
Y17743D01*
X155051D01*
Y14503D01*
D02*
G37*
G36*
X194295Y16989D02*
X193017D01*
Y13753D01*
X192097D01*
Y16989D01*
X190819D01*
Y17743D01*
X194295D01*
Y16989D01*
D02*
G37*
G36*
X153318Y17000D02*
X151221D01*
Y16134D01*
X153074D01*
Y15417D01*
X151221D01*
Y14492D01*
X153391D01*
Y13753D01*
X150300D01*
Y17743D01*
X153318D01*
Y17000D01*
D02*
G37*
%LPC*%
G36*
X200836Y16989D02*
X200083D01*
Y15599D01*
X200876D01*
X200905Y15602D01*
X200938Y15606D01*
X200978Y15610D01*
X201022Y15613D01*
X201069Y15621D01*
X201171Y15642D01*
X201277Y15675D01*
X201328Y15697D01*
X201378Y15723D01*
X201422Y15748D01*
X201466Y15781D01*
X201470Y15784D01*
X201477Y15788D01*
X201488Y15799D01*
X201499Y15814D01*
X201517Y15832D01*
X201535Y15857D01*
X201553Y15883D01*
X201575Y15912D01*
X201597Y15948D01*
X201615Y15985D01*
X201633Y16028D01*
X201652Y16076D01*
X201662Y16123D01*
X201673Y16177D01*
X201681Y16232D01*
X201684Y16294D01*
Y16298D01*
Y16309D01*
Y16327D01*
X201681Y16349D01*
X201677Y16378D01*
X201673Y16410D01*
X201659Y16483D01*
X201630Y16567D01*
X201615Y16611D01*
X201593Y16651D01*
X201568Y16694D01*
X201539Y16735D01*
X201506Y16771D01*
X201466Y16807D01*
X201462Y16811D01*
X201455Y16815D01*
X201444Y16826D01*
X201426Y16836D01*
X201404Y16851D01*
X201375Y16865D01*
X201342Y16880D01*
X201306Y16898D01*
X201266Y16917D01*
X201218Y16931D01*
X201167Y16946D01*
X201109Y16960D01*
X201047Y16971D01*
X200982Y16982D01*
X200913Y16986D01*
X200836Y16989D01*
D02*
G37*
G36*
X196497Y16836D02*
X195864Y15308D01*
X197131D01*
X196497Y16836D01*
D02*
G37*
G36*
X867907Y-152658D02*
X859890D01*
Y-152945D01*
Y-153231D01*
Y-153517D01*
Y-153804D01*
Y-154090D01*
X859604D01*
Y-154376D01*
Y-154663D01*
Y-154949D01*
Y-155235D01*
Y-155521D01*
Y-155808D01*
X859317D01*
Y-156094D01*
Y-156380D01*
Y-156667D01*
Y-156953D01*
Y-157239D01*
Y-157526D01*
X859031D01*
Y-157812D01*
Y-158098D01*
Y-158385D01*
Y-158671D01*
Y-158957D01*
Y-159244D01*
X858745D01*
Y-159530D01*
Y-159816D01*
Y-160102D01*
Y-160389D01*
Y-160675D01*
Y-160961D01*
Y-161248D01*
X858458D01*
Y-161534D01*
Y-161820D01*
Y-162107D01*
Y-162393D01*
Y-162679D01*
Y-162966D01*
X858172D01*
Y-163252D01*
Y-163538D01*
Y-163824D01*
X865330D01*
Y-163538D01*
X866475D01*
Y-163252D01*
X867048D01*
Y-162966D01*
X867334D01*
Y-162679D01*
X867620D01*
Y-162393D01*
X867907D01*
Y-162107D01*
X868193D01*
Y-161820D01*
Y-161534D01*
X868479D01*
Y-161248D01*
Y-160961D01*
X868766D01*
Y-160675D01*
Y-160389D01*
X869052D01*
Y-160102D01*
Y-159816D01*
Y-159530D01*
Y-159244D01*
X869338D01*
Y-158957D01*
Y-158671D01*
Y-158385D01*
Y-158098D01*
Y-157812D01*
X869625D01*
Y-157526D01*
Y-157239D01*
Y-156953D01*
Y-156667D01*
Y-156380D01*
Y-156094D01*
Y-155808D01*
Y-155521D01*
Y-155235D01*
Y-154949D01*
Y-154663D01*
X869338D01*
Y-154376D01*
Y-154090D01*
X869052D01*
Y-153804D01*
Y-153517D01*
X868766D01*
Y-153231D01*
X868479D01*
Y-152945D01*
X867907D01*
Y-152658D01*
D02*
G37*
%LPD*%
D10*
X75891Y147441D02*
G03*
X75891Y147441I-557J0D01*
G01*
D02*
G03*
X75891Y147441I-557J0D01*
G01*
D11*
X69291Y173425D02*
G03*
X65354Y169488I0J-3937D01*
G01*
Y153740D02*
G03*
X69291Y149803I3937J0D01*
G01*
X288976Y169488D02*
G03*
X285039Y173425I-3937J0D01*
G01*
Y149803D02*
G03*
X288976Y153740I0J3937D01*
G01*
X351772Y109646D02*
G03*
X347835Y91732I33126J-16670D01*
G01*
X277165Y153740D02*
X288976D01*
X65354Y195473D02*
X288976D01*
Y153740D02*
Y195473D01*
X65354Y153740D02*
X77165D01*
X65354D02*
Y195473D01*
Y153740D02*
Y169488D01*
X288976Y153740D02*
Y169488D01*
X69291Y149803D02*
X77165D01*
X288976Y153740D02*
Y169488D01*
X69291Y173425D02*
X285039D01*
X277165Y149803D02*
X285039D01*
X144291Y69291D02*
X145866D01*
X144291Y65354D02*
X145866D01*
X340354Y120669D02*
X351772D01*
X300590D02*
X328543D01*
X294685Y103347D02*
Y114764D01*
X300984Y62795D02*
X328543D01*
X340354D02*
X347835D01*
X351772Y109646D02*
Y120669D01*
X347835Y62795D02*
Y91732D01*
X158071Y77953D02*
X158858D01*
X158071Y81890D02*
X158858D01*
X157677Y75590D02*
X159252D01*
X157677Y71653D02*
X159252D01*
X157677Y69291D02*
X159252D01*
X157677Y65354D02*
X159252D01*
X144685Y71653D02*
X145472D01*
X144685Y75590D02*
X145472D01*
X144685Y77953D02*
X145472D01*
X144685Y81890D02*
X145472D01*
X216339Y79134D02*
Y79921D01*
X212402Y79134D02*
Y79921D01*
X212402Y67323D02*
Y68110D01*
X216339Y67323D02*
Y68110D01*
X203543Y83858D02*
X205906D01*
X203543Y77559D02*
X205906D01*
X204331Y70473D02*
X205118D01*
X204331Y76772D02*
X205118D01*
X203543Y69685D02*
X205906D01*
X203543Y63386D02*
X205906D01*
X280709Y103347D02*
X282283D01*
X280709Y99410D02*
X282283D01*
X280709Y97441D02*
X282283D01*
X280709Y93504D02*
X282283D01*
X277165Y91732D02*
X277953D01*
X277165Y85433D02*
X277953D01*
X280709Y83661D02*
X282283D01*
X280709Y79724D02*
X282283D01*
X280709Y77756D02*
X282283D01*
X280709Y73819D02*
X282283D01*
X98819Y59449D02*
Y61811D01*
Y70866D02*
Y73622D01*
X58661Y70866D02*
Y73622D01*
X98819D01*
Y45276D02*
Y51181D01*
X58661Y55905D02*
Y61811D01*
Y33465D02*
X98819D01*
Y36220D01*
X58661Y33465D02*
Y36220D01*
Y45276D02*
Y47638D01*
D12*
X175591Y77756D02*
G03*
X175591Y77756I-394J0D01*
G01*
X173228Y79724D02*
X185039D01*
X173228Y79331D02*
Y79724D01*
X185039Y79331D02*
Y79724D01*
X173228Y67913D02*
Y68307D01*
X185039Y67913D02*
Y68307D01*
X173228Y67913D02*
X185039D01*
X1178748Y-229571D02*
Y-190201D01*
X1021267Y-150831D02*
X1296858D01*
X1021267Y-190201D02*
X1296858D01*
X824417Y-229571D02*
X1296858D01*
X824417Y-111461D02*
X1296858D01*
X824417Y-268941D02*
Y-111461D01*
X1021267Y-268941D02*
Y-111461D01*
X-356685Y900350D02*
X1296858D01*
Y-268941D02*
Y900350D01*
X-356685Y-268941D02*
Y900350D01*
Y-268941D02*
X1296858D01*
X1035046Y-255164D02*
X1031110D01*
Y-258115D01*
X1033078D01*
X1031110D01*
Y-261067D01*
X1037014Y-257131D02*
Y-261067D01*
Y-259099D01*
X1037998Y-258115D01*
X1038981Y-257131D01*
X1039965D01*
X1042917Y-261067D02*
X1044885D01*
X1043901D01*
Y-257131D01*
X1042917D01*
X1047837Y-256147D02*
X1048821Y-255164D01*
X1050789D01*
X1051772Y-256147D01*
Y-257131D01*
X1050789Y-258115D01*
X1049805D01*
X1050789D01*
X1051772Y-259099D01*
Y-260083D01*
X1050789Y-261067D01*
X1048821D01*
X1047837Y-260083D01*
X1053740Y-255164D02*
Y-261067D01*
X1056692D01*
X1057676Y-260083D01*
Y-256147D01*
X1056692Y-255164D01*
X1053740D01*
X1059644Y-262051D02*
X1063580D01*
X1069483Y-261067D02*
X1065548D01*
X1069483Y-257131D01*
Y-256147D01*
X1068499Y-255164D01*
X1066531D01*
X1065548Y-256147D01*
X1071451D02*
X1072435Y-255164D01*
X1074403D01*
X1075387Y-256147D01*
Y-260083D01*
X1074403Y-261067D01*
X1072435D01*
X1071451Y-260083D01*
Y-256147D01*
X1081291Y-261067D02*
X1077355D01*
X1081291Y-257131D01*
Y-256147D01*
X1080307Y-255164D01*
X1078339D01*
X1077355Y-256147D01*
X1083258D02*
X1084242Y-255164D01*
X1086210D01*
X1087194Y-256147D01*
Y-260083D01*
X1086210Y-261067D01*
X1084242D01*
X1083258Y-260083D01*
Y-256147D01*
X1089162Y-262051D02*
X1093098D01*
X1099001Y-256147D02*
X1098017Y-255164D01*
X1096049D01*
X1095066Y-256147D01*
Y-260083D01*
X1096049Y-261067D01*
X1098017D01*
X1099001Y-260083D01*
Y-258115D01*
X1097034D01*
X1101953Y-257131D02*
X1103921D01*
X1104905Y-258115D01*
Y-261067D01*
X1101953D01*
X1100969Y-260083D01*
X1101953Y-259099D01*
X1104905D01*
X1106873Y-261067D02*
Y-257131D01*
X1107857D01*
X1108841Y-258115D01*
Y-261067D01*
Y-258115D01*
X1109825Y-257131D01*
X1110808Y-258115D01*
Y-261067D01*
X1115728D02*
X1113760D01*
X1112776Y-260083D01*
Y-258115D01*
X1113760Y-257131D01*
X1115728D01*
X1116712Y-258115D01*
Y-259099D01*
X1112776D01*
X1121632Y-255164D02*
X1119664D01*
X1118680Y-256147D01*
Y-260083D01*
X1119664Y-261067D01*
X1121632D01*
X1122616Y-260083D01*
Y-256147D01*
X1121632Y-255164D01*
X1124584Y-261067D02*
Y-257131D01*
X1127535D01*
X1128519Y-258115D01*
Y-261067D01*
X1130487Y-262051D02*
X1134423D01*
X1136391Y-256147D02*
X1137375Y-255164D01*
X1139343D01*
X1140326Y-256147D01*
Y-260083D01*
X1139343Y-261067D01*
X1137375D01*
X1136391Y-260083D01*
Y-256147D01*
X1142294D02*
X1143278Y-255164D01*
X1145246D01*
X1146230Y-256147D01*
Y-260083D01*
X1145246Y-261067D01*
X1143278D01*
X1142294Y-260083D01*
Y-256147D01*
X1148198Y-261067D02*
Y-260083D01*
X1149182D01*
Y-261067D01*
X1148198D01*
X1153118D02*
Y-255164D01*
X1156069D01*
X1157053Y-256147D01*
Y-258115D01*
X1156069Y-259099D01*
X1153118D01*
X1162957Y-257131D02*
X1160005D01*
X1159021Y-258115D01*
Y-260083D01*
X1160005Y-261067D01*
X1162957D01*
X1164925Y-255164D02*
Y-261067D01*
X1167877D01*
X1168861Y-260083D01*
Y-259099D01*
Y-258115D01*
X1167877Y-257131D01*
X1164925D01*
X1170829Y-255164D02*
Y-261067D01*
X1173780D01*
X1174764Y-260083D01*
Y-256147D01*
X1173780Y-255164D01*
X1170829D01*
X1177716Y-261067D02*
X1179684D01*
X1180668Y-260083D01*
Y-258115D01*
X1179684Y-257131D01*
X1177716D01*
X1176732Y-258115D01*
Y-260083D01*
X1177716Y-261067D01*
X1186571Y-257131D02*
X1183620D01*
X1182636Y-258115D01*
Y-260083D01*
X1183620Y-261067D01*
X1186571D01*
D13*
X266590Y46118D02*
Y64118D01*
X284591Y46118D02*
Y64118D01*
X279090Y55118D02*
X284591D01*
X274091Y60118D02*
X279090Y55118D01*
X266590D02*
X274091D01*
X148480Y26433D02*
Y44433D01*
X166480Y26433D02*
Y44433D01*
X160980Y35433D02*
X166480D01*
X155980Y40433D02*
X160980Y35433D01*
X148480D02*
X155980D01*
X187850Y26433D02*
Y44433D01*
X205850Y26433D02*
Y44433D01*
X200350Y35433D02*
X205850D01*
X195350Y40433D02*
X200350Y35433D01*
X187850D02*
X195350D01*
X227221Y26433D02*
Y44433D01*
X245220Y26433D02*
Y44433D01*
X239721Y35433D02*
X245220D01*
X234720Y40433D02*
X239721Y35433D01*
X227221D02*
X234720D01*
D14*
X1042921Y-168552D02*
X1052104D01*
X1047513D01*
Y-182327D01*
X1058992D02*
X1063584D01*
X1065879Y-180031D01*
Y-175439D01*
X1063584Y-173144D01*
X1058992D01*
X1056696Y-175439D01*
Y-180031D01*
X1058992Y-182327D01*
X1070471Y-186919D02*
Y-173144D01*
X1077359D01*
X1079655Y-175439D01*
Y-180031D01*
X1077359Y-182327D01*
X1070471D01*
X1104909Y-168552D02*
X1100317D01*
X1098021Y-170848D01*
Y-180031D01*
X1100317Y-182327D01*
X1104909D01*
X1107205Y-180031D01*
Y-170848D01*
X1104909Y-168552D01*
X1111796Y-173144D02*
X1116388Y-182327D01*
X1120980Y-173144D01*
X1132459Y-182327D02*
X1127867D01*
X1125571Y-180031D01*
Y-175439D01*
X1127867Y-173144D01*
X1132459D01*
X1134755Y-175439D01*
Y-177735D01*
X1125571D01*
X1139347Y-173144D02*
Y-182327D01*
Y-177735D01*
X1141642Y-175439D01*
X1143938Y-173144D01*
X1146234D01*
X1153122Y-182327D02*
X1157713D01*
X1155417D01*
Y-168552D01*
X1153122D01*
X1166897Y-173144D02*
X1171488D01*
X1173784Y-175439D01*
Y-182327D01*
X1166897D01*
X1164601Y-180031D01*
X1166897Y-177735D01*
X1173784D01*
X1178376Y-173144D02*
Y-180031D01*
X1180672Y-182327D01*
X1187559D01*
Y-184623D01*
X1185264Y-186919D01*
X1182968D01*
X1187559Y-182327D02*
Y-173144D01*
X846071Y-247293D02*
Y-263036D01*
X851318Y-257788D01*
X856566Y-263036D01*
Y-247293D01*
X861814Y-263036D02*
X867061D01*
X864437D01*
Y-252540D01*
X861814D01*
X874933Y-263036D02*
Y-252540D01*
X877556D01*
X880180Y-255164D01*
Y-263036D01*
Y-255164D01*
X882804Y-252540D01*
X885428Y-255164D01*
Y-263036D01*
X890676Y-247293D02*
Y-257788D01*
X895923Y-263036D01*
X901171Y-257788D01*
Y-247293D01*
X916914Y-249917D02*
X914290Y-247293D01*
X909042D01*
X906419Y-249917D01*
Y-260412D01*
X909042Y-263036D01*
X914290D01*
X916914Y-260412D01*
Y-255164D01*
X911666D01*
X1200401Y-210546D02*
X1203025Y-207923D01*
X1208273D01*
X1210897Y-210546D01*
Y-221042D01*
X1208273Y-223665D01*
X1203025D01*
X1200401Y-221042D01*
Y-210546D01*
X1216144D02*
X1218768Y-207923D01*
X1224016D01*
X1226639Y-210546D01*
Y-221042D01*
X1224016Y-223665D01*
X1218768D01*
X1216144Y-221042D01*
Y-210546D01*
X1046199Y-223665D02*
X1037015D01*
X1046199Y-214482D01*
Y-212186D01*
X1043903Y-209890D01*
X1039311D01*
X1037015Y-212186D01*
X1059974Y-209890D02*
X1050791D01*
Y-216778D01*
X1055382Y-214482D01*
X1057678D01*
X1059974Y-216778D01*
Y-221370D01*
X1057678Y-223665D01*
X1053086D01*
X1050791Y-221370D01*
X1064566Y-223665D02*
X1073749Y-214482D01*
X1078341Y-212186D02*
X1080637Y-209890D01*
X1085228D01*
X1087524Y-212186D01*
Y-221370D01*
X1085228Y-223665D01*
X1080637D01*
X1078341Y-221370D01*
Y-212186D01*
X1092116D02*
X1094412Y-209890D01*
X1099003D01*
X1101299Y-212186D01*
Y-214482D01*
X1099003Y-216778D01*
X1096707D01*
X1099003D01*
X1101299Y-219074D01*
Y-221370D01*
X1099003Y-223665D01*
X1094412D01*
X1092116Y-221370D01*
X1105891Y-223665D02*
X1115074Y-214482D01*
X1128849Y-223665D02*
X1119666D01*
X1128849Y-214482D01*
Y-212186D01*
X1126553Y-209890D01*
X1121962D01*
X1119666Y-212186D01*
X1133441D02*
X1135737Y-209890D01*
X1140329D01*
X1142624Y-212186D01*
Y-221370D01*
X1140329Y-223665D01*
X1135737D01*
X1133441Y-221370D01*
Y-212186D01*
X1156400Y-223665D02*
X1147216D01*
X1156400Y-214482D01*
Y-212186D01*
X1154104Y-209890D01*
X1149512D01*
X1147216Y-212186D01*
X1160991D02*
X1163287Y-209890D01*
X1167879D01*
X1170175Y-212186D01*
Y-221370D01*
X1167879Y-223665D01*
X1163287D01*
X1160991Y-221370D01*
Y-212186D01*
X1039506Y-132331D02*
X1031110D01*
Y-138628D01*
X1035308D01*
X1031110D01*
Y-144925D01*
X1043704Y-136529D02*
Y-144925D01*
Y-140727D01*
X1045803Y-138628D01*
X1047902Y-136529D01*
X1050002D01*
X1056299Y-144925D02*
X1060497D01*
X1058398D01*
Y-136529D01*
X1056299D01*
X1066794Y-134430D02*
X1068893Y-132331D01*
X1073091D01*
X1075190Y-134430D01*
Y-136529D01*
X1073091Y-138628D01*
X1070992D01*
X1073091D01*
X1075190Y-140727D01*
Y-142826D01*
X1073091Y-144925D01*
X1068893D01*
X1066794Y-142826D01*
X1079388Y-132331D02*
Y-144925D01*
X1085686D01*
X1087784Y-142826D01*
Y-134430D01*
X1085686Y-132331D01*
X1079388D01*
X1112973Y-144925D02*
X1104577D01*
X1112973Y-136529D01*
Y-134430D01*
X1110874Y-132331D01*
X1106676D01*
X1104577Y-134430D01*
X1117171D02*
X1119270Y-132331D01*
X1123469D01*
X1125568Y-134430D01*
Y-142826D01*
X1123469Y-144925D01*
X1119270D01*
X1117171Y-142826D01*
Y-134430D01*
X1138162Y-144925D02*
X1129766D01*
X1138162Y-136529D01*
Y-134430D01*
X1136063Y-132331D01*
X1131865D01*
X1129766Y-134430D01*
X1142360D02*
X1144459Y-132331D01*
X1148657D01*
X1150756Y-134430D01*
Y-142826D01*
X1148657Y-144925D01*
X1144459D01*
X1142360Y-142826D01*
Y-134430D01*
X1175945D02*
X1173846Y-132331D01*
X1169648D01*
X1167549Y-134430D01*
Y-142826D01*
X1169648Y-144925D01*
X1173846D01*
X1175945Y-142826D01*
Y-138628D01*
X1171747D01*
X1182242Y-136529D02*
X1186440D01*
X1188539Y-138628D01*
Y-144925D01*
X1182242D01*
X1180143Y-142826D01*
X1182242Y-140727D01*
X1188539D01*
X1192737Y-144925D02*
Y-136529D01*
X1194837D01*
X1196936Y-138628D01*
Y-144925D01*
Y-138628D01*
X1199035Y-136529D01*
X1201134Y-138628D01*
Y-144925D01*
X1211629D02*
X1207431D01*
X1205332Y-142826D01*
Y-138628D01*
X1207431Y-136529D01*
X1211629D01*
X1213728Y-138628D01*
Y-140727D01*
X1205332D01*
X1224223Y-132331D02*
X1220025D01*
X1217926Y-134430D01*
Y-142826D01*
X1220025Y-144925D01*
X1224223D01*
X1226322Y-142826D01*
Y-134430D01*
X1224223Y-132331D01*
X1230521Y-144925D02*
Y-136529D01*
X1236818D01*
X1238917Y-138628D01*
Y-144925D01*
D15*
X19685Y196850D02*
G03*
X0Y177165I-0J-19685D01*
G01*
X354331D02*
G03*
X334646Y196850I-19685J0D01*
G01*
Y0D02*
G03*
X354331Y19685I-0J19685D01*
G01*
X0Y19685D02*
G03*
X19685Y0I19685J0D01*
G01*
X334646D01*
X354331Y19685D02*
Y177165D01*
X19685Y196850D02*
X334646D01*
X0Y19685D02*
Y177165D01*
D16*
X1182685Y-202012D02*
Y-194141D01*
X1186621D01*
X1187932Y-195452D01*
Y-198076D01*
X1186621Y-199388D01*
X1182685D01*
X1185308D02*
X1187932Y-202012D01*
X1194492D02*
X1191868D01*
X1190556Y-200700D01*
Y-198076D01*
X1191868Y-196764D01*
X1194492D01*
X1195804Y-198076D01*
Y-199388D01*
X1190556D01*
X1198428Y-196764D02*
X1201052Y-202012D01*
X1203675Y-196764D01*
X828354Y-233511D02*
Y-241382D01*
X832290D01*
X833602Y-240070D01*
Y-234823D01*
X832290Y-233511D01*
X828354D01*
X840161Y-241382D02*
X837537D01*
X836226Y-240070D01*
Y-237446D01*
X837537Y-236134D01*
X840161D01*
X841473Y-237446D01*
Y-238758D01*
X836226D01*
X844097Y-241382D02*
X848033D01*
X849345Y-240070D01*
X848033Y-238758D01*
X845409D01*
X844097Y-237446D01*
X845409Y-236134D01*
X849345D01*
X854592Y-244006D02*
X855904D01*
X857216Y-242694D01*
Y-236134D01*
X853280D01*
X851968Y-237446D01*
Y-240070D01*
X853280Y-241382D01*
X857216D01*
X859840D02*
X862464D01*
X861152D01*
Y-236134D01*
X859840D01*
X866399Y-241382D02*
Y-236134D01*
X870335D01*
X871647Y-237446D01*
Y-241382D01*
X878207D02*
X875583D01*
X874271Y-240070D01*
Y-237446D01*
X875583Y-236134D01*
X878207D01*
X879519Y-237446D01*
Y-238758D01*
X874271D01*
X882143Y-236134D02*
Y-241382D01*
Y-238758D01*
X883454Y-237446D01*
X884766Y-236134D01*
X886078D01*
X1025204Y-115400D02*
Y-123272D01*
X1029140D01*
X1030452Y-121960D01*
Y-116712D01*
X1029140Y-115400D01*
X1025204D01*
X1034388Y-123272D02*
X1037012D01*
X1038323Y-121960D01*
Y-119336D01*
X1037012Y-118024D01*
X1034388D01*
X1033076Y-119336D01*
Y-121960D01*
X1034388Y-123272D01*
X1046195Y-118024D02*
X1042259D01*
X1040947Y-119336D01*
Y-121960D01*
X1042259Y-123272D01*
X1046195D01*
X1048819Y-118024D02*
Y-121960D01*
X1050131Y-123272D01*
X1054066D01*
Y-118024D01*
X1056690Y-123272D02*
Y-118024D01*
X1058002D01*
X1059314Y-119336D01*
Y-123272D01*
Y-119336D01*
X1060626Y-118024D01*
X1061938Y-119336D01*
Y-123272D01*
X1068498D02*
X1065874D01*
X1064562Y-121960D01*
Y-119336D01*
X1065874Y-118024D01*
X1068498D01*
X1069810Y-119336D01*
Y-120648D01*
X1064562D01*
X1072433Y-123272D02*
Y-118024D01*
X1076369D01*
X1077681Y-119336D01*
Y-123272D01*
X1081617Y-116712D02*
Y-118024D01*
X1080305D01*
X1082929D01*
X1081617D01*
Y-121960D01*
X1082929Y-123272D01*
X1025204Y-154770D02*
Y-162642D01*
X1030452D01*
X1034388Y-157394D02*
X1037012D01*
X1038323Y-158706D01*
Y-162642D01*
X1034388D01*
X1033076Y-161330D01*
X1034388Y-160018D01*
X1038323D01*
X1040947Y-157394D02*
Y-161330D01*
X1042259Y-162642D01*
X1046195D01*
Y-163954D01*
X1044883Y-165266D01*
X1043571D01*
X1046195Y-162642D02*
Y-157394D01*
X1052755Y-162642D02*
X1050131D01*
X1048819Y-161330D01*
Y-158706D01*
X1050131Y-157394D01*
X1052755D01*
X1054066Y-158706D01*
Y-160018D01*
X1048819D01*
X1056690Y-157394D02*
Y-162642D01*
Y-160018D01*
X1058002Y-158706D01*
X1059314Y-157394D01*
X1060626D01*
X1072433Y-162642D02*
Y-154770D01*
X1077681Y-162642D01*
Y-154770D01*
X1081617Y-157394D02*
X1084241D01*
X1085552Y-158706D01*
Y-162642D01*
X1081617D01*
X1080305Y-161330D01*
X1081617Y-160018D01*
X1085552D01*
X1088176Y-162642D02*
Y-157394D01*
X1089488D01*
X1090800Y-158706D01*
Y-162642D01*
Y-158706D01*
X1092112Y-157394D01*
X1093424Y-158706D01*
Y-162642D01*
X1099984D02*
X1097360D01*
X1096048Y-161330D01*
Y-158706D01*
X1097360Y-157394D01*
X1099984D01*
X1101295Y-158706D01*
Y-160018D01*
X1096048D01*
X1025204Y-194141D02*
Y-202012D01*
X1029140D01*
X1030452Y-200700D01*
Y-195452D01*
X1029140Y-194141D01*
X1025204D01*
X1034388Y-196764D02*
X1037012D01*
X1038323Y-198076D01*
Y-202012D01*
X1034388D01*
X1033076Y-200700D01*
X1034388Y-199388D01*
X1038323D01*
X1042259Y-195452D02*
Y-196764D01*
X1040947D01*
X1043571D01*
X1042259D01*
Y-200700D01*
X1043571Y-202012D01*
X1051443D02*
X1048819D01*
X1047507Y-200700D01*
Y-198076D01*
X1048819Y-196764D01*
X1051443D01*
X1052755Y-198076D01*
Y-199388D01*
X1047507D01*
X1025204Y-233511D02*
Y-241382D01*
X1029140D01*
X1030452Y-240070D01*
Y-234823D01*
X1029140Y-233511D01*
X1025204D01*
X1034388Y-241382D02*
X1037012D01*
X1038323Y-240070D01*
Y-237446D01*
X1037012Y-236134D01*
X1034388D01*
X1033076Y-237446D01*
Y-240070D01*
X1034388Y-241382D01*
X1046195Y-236134D02*
X1042259D01*
X1040947Y-237446D01*
Y-240070D01*
X1042259Y-241382D01*
X1046195D01*
X1048819Y-236134D02*
Y-240070D01*
X1050131Y-241382D01*
X1054066D01*
Y-236134D01*
X1056690Y-241382D02*
Y-236134D01*
X1058002D01*
X1059314Y-237446D01*
Y-241382D01*
Y-237446D01*
X1060626Y-236134D01*
X1061938Y-237446D01*
Y-241382D01*
X1068498D02*
X1065874D01*
X1064562Y-240070D01*
Y-237446D01*
X1065874Y-236134D01*
X1068498D01*
X1069810Y-237446D01*
Y-238758D01*
X1064562D01*
X1072433Y-241382D02*
Y-236134D01*
X1076369D01*
X1077681Y-237446D01*
Y-241382D01*
X1081617Y-234823D02*
Y-236134D01*
X1080305D01*
X1082929D01*
X1081617D01*
Y-240070D01*
X1082929Y-241382D01*
M02*
